<?xml version="1.0" encoding="UTF-8"?>
<svg width="46px" height="43px" viewBox="0 0 46 43" version="1.1" xmlns="http://www.w3.org/2000/svg" xmlns:xlink="http://www.w3.org/1999/xlink">
    <!-- Generator: sketchtool 52.5 (67469) - http://www.bohemiancoding.com/sketch -->
    <title>2746DADC-0428-428D-B0F2-845561795A53</title>
    <desc>Created with sketchtool.</desc>
    <g id="Main_nav" stroke="none" stroke-width="1" fill="none" fill-rule="evenodd">
        <g id="Analiza-Page" transform="translate(-191.000000, -731.000000)" fill="#1D88E5">
            <path d="M202.501051,731 C200.695917,731 199.215262,732.490516 199.215262,734.307672 L199.215262,745.884524 C199.215262,747.703743 200.695917,749.192196 202.501051,749.192196 L213.179604,749.192196 L213.179604,754.153704 L197.571841,754.153704 C197.117992,754.153704 196.750394,754.52375 196.750394,754.980622 L196.750394,760.849755 C193.520069,761.263214 191,764.023056 191,767.384656 C191,771.029287 193.951059,774 197.571578,774 C201.192098,774 204.143157,771.029287 204.143157,767.384656 C204.143157,764.023215 201.623351,761.263611 198.392763,760.849755 L198.392763,755.807645 L213.178815,755.807645 L213.178815,760.849755 C209.94849,761.263214 207.428421,764.023056 207.428421,767.384656 C207.428421,771.029287 210.37948,774 214,774 C217.620519,774 220.571579,771.029287 220.571579,767.384656 C220.571579,764.023215 218.051772,761.263611 214.821184,760.849755 L214.821184,755.807645 L229.607237,755.807645 L229.607237,760.849755 C226.376911,761.263214 223.856842,764.023056 223.856842,767.384656 C223.856842,771.029287 226.807902,774 230.428421,774 C234.048941,774 237,771.029287 237,767.384656 C237,764.023215 234.480194,761.263611 231.249606,760.849755 L231.249606,754.980622 C231.249606,754.52375 230.882007,754.153704 230.428158,754.153704 L214.820396,754.153704 L214.820396,749.192196 L225.498948,749.192196 C227.304082,749.192196 228.784738,747.703743 228.784738,745.884524 L228.784738,734.307672 C228.784738,732.490516 227.304082,731 225.498948,731 L202.501051,731 Z M202.501051,732.653836 L225.501577,732.653836 C226.425699,732.653836 227.144472,733.377396 227.144472,734.307672 L227.144472,745.884524 C227.144472,746.8148 226.425699,747.53836 225.501577,747.53836 L202.501051,747.53836 C201.576929,747.53836 200.858156,746.8148 200.858156,745.884524 L200.858156,734.307672 C200.858156,733.377396 201.576929,732.653836 202.501051,732.653836 Z M203.322498,734.307672 C202.868649,734.307672 202.501051,734.677718 202.501051,735.13459 L202.501051,745.057606 C202.501051,745.514477 202.868649,745.884524 203.322498,745.884524 L224.68013,745.884524 C225.133979,745.884524 225.501577,745.514477 225.501577,745.057606 L225.501577,735.13459 C225.501577,734.677718 225.133979,734.307672 224.68013,734.307672 L203.322498,734.307672 Z M204.143946,735.961508 L223.858682,735.961508 L223.858682,744.230688 L204.143946,744.230688 L204.143946,735.961508 Z M209.89434,739.26918 L209.89434,740.923016 L211.537235,740.923016 L211.537235,739.26918 L209.89434,739.26918 Z M213.18013,739.26918 L213.18013,740.923016 L214.823024,740.923016 L214.823024,739.26918 L213.18013,739.26918 Z M216.465919,739.26918 L216.465919,740.923016 L218.108814,740.923016 L218.108814,739.26918 L216.465919,739.26918 Z M197.572367,762.422884 C200.303673,762.422884 202.501051,764.634896 202.501051,767.384391 C202.501051,770.133887 200.303673,772.345899 197.572367,772.345899 C194.841061,772.345899 192.643683,770.133887 192.643683,767.384391 C192.643683,764.634896 194.841061,762.422884 197.572367,762.422884 Z M214.001314,762.422884 C216.73262,762.422884 218.929998,764.634896 218.929998,767.384391 C218.929998,770.133887 216.73262,772.345899 214.001314,772.345899 C211.270008,772.345899 209.07263,770.133887 209.07263,767.384391 C209.07263,764.634896 211.270008,762.422884 214.001314,762.422884 Z M230.430261,762.422884 C233.161567,762.422884 235.358945,764.634896 235.358945,767.384391 C235.358945,770.133887 233.161567,772.345899 230.430261,772.345899 C227.698955,772.345899 225.501577,770.133887 225.501577,767.384391 C225.501577,764.634896 227.698955,762.422884 230.430261,762.422884 Z M197.572367,765.730556 C196.664648,765.730556 195.929472,766.470627 195.929472,767.384391 C195.929472,768.298156 196.664648,769.038227 197.572367,769.038227 C198.480086,769.038227 199.215262,768.298156 199.215262,767.384391 C199.215262,766.470627 198.480086,765.730556 197.572367,765.730556 Z M214.001314,765.730556 C213.093595,765.730556 212.358419,766.470627 212.358419,767.384391 C212.358419,767.822655 212.530921,768.244386 212.838965,768.554461 C213.147009,768.864556 213.565939,769.038206 214.001293,769.038206 C214.436647,769.038206 214.855598,768.864556 215.163621,768.554461 C215.471665,768.244365 215.644167,767.822645 215.644167,767.384391 C215.644167,766.946138 215.471665,766.524397 215.163621,766.214322 C214.855577,765.904227 214.436647,765.730577 214.001293,765.730577 L214.001314,765.730556 Z M230.430261,765.730556 C229.522542,765.730556 228.787366,766.470627 228.787366,767.384391 C228.787366,768.298156 229.522542,769.038227 230.430261,769.038227 C231.33798,769.038227 232.073156,768.298156 232.073156,767.384391 C232.073156,766.470627 231.33798,765.730556 230.430261,765.730556 Z" id="detaljanOpis"></path>
        </g>
        <g id="Page"></g>
    </g>
</svg>