<svg xmlns="http://www.w3.org/2000/svg" width="1440" height="201.495" viewBox="0 0 1440 201.495">
  <g id="Group_108" data-name="Group 108" transform="translate(0 -559)">
    <rect id="Rectangle_130" data-name="Rectangle 130" width="1440" height="200" transform="translate(0 560.495)" fill="#0389ec"/>
    <path id="Path_991" data-name="Path 991" d="M1103.24,40a2.75,2.75,0,0,0-1.89,4.739l-1.84,3.744c-.08,0-.18-.022-.27-.022a2.424,2.424,0,0,0-1.11.254l-2.83-2.263a2.649,2.649,0,0,0,.36-1.375,2.735,2.735,0,1,0-5.47,0,2.621,2.621,0,0,0,.8,1.926l-1.62,2.581a3.227,3.227,0,0,0-.63-.084,2.75,2.75,0,1,0,2.73,2.75,2.846,2.846,0,0,0-.65-1.8l1.68-2.687a3.186,3.186,0,0,0,.45.042,2.617,2.617,0,0,0,1.09-.233l2.84,2.264a2.74,2.74,0,1,0,4.19-.7l1.81-3.681a2.313,2.313,0,0,0,.38.021,2.74,2.74,0,1,0-.02-5.48Z" transform="translate(0 560.495)" fill="#fff" fill-rule="evenodd" opacity="0.2"/>
    <path id="Path_992" data-name="Path 992" d="M322.241,40a2.756,2.756,0,0,0-1.895,4.739l-1.831,3.744c-.084,0-.189-.022-.274-.022a2.47,2.47,0,0,0-1.116.254l-2.82-2.263a2.744,2.744,0,1,0-5.116-1.375,2.636,2.636,0,0,0,.8,1.926l-1.621,2.581a3.238,3.238,0,0,0-.631-.084,2.75,2.75,0,1,0,2.736,2.75,2.848,2.848,0,0,0-.652-1.8l1.684-2.687a3.061,3.061,0,0,0,.442.042,2.664,2.664,0,0,0,1.1-.233l2.842,2.264a2.7,2.7,0,0,0-.358,1.354,2.736,2.736,0,1,0,4.547-2.052l1.811-3.681a2.248,2.248,0,0,0,.379.021,2.74,2.74,0,1,0-.022-5.48Z" transform="translate(0 560.495)" fill="#fff" fill-rule="evenodd" opacity="0.2"/>
    <path id="Path_993" data-name="Path 993" d="M1014.95,105.542h-4.2c.03.346.08.687.08,1.042h0a10.414,10.414,0,1,1-10.41-10.416,10.073,10.073,0,0,1,1.04.087v-4.2c.34-.028.69-.052,1.04-.052a12.5,12.5,0,0,1,12.5,12.5c0,.353-.02.7-.05,1.042Zm-13.49-7.22a8.334,8.334,0,1,0,7.29,8.261,9.059,9.059,0,0,0-.07-1.041h-6.18a1.038,1.038,0,0,1-1.04-1.042Zm12.5,5.136-1.33-1.321h.01a10.383,10.383,0,0,0-9.1-7.964v9.284h9.31a9.827,9.827,0,0,0-.21-1.32Z" transform="translate(0 560.495)" fill="#fff" fill-rule="evenodd" opacity="0.2"/>
    <path id="Path_994" data-name="Path 994" d="M417.948,110.542h-4.2c.031.346.083.687.083,1.042h0a10.416,10.416,0,1,1-10.416-10.416,10.054,10.054,0,0,1,1.041.087v-4.2c.344-.028.688-.052,1.042-.052A12.5,12.5,0,0,1,418,109.5c0,.353-.021.7-.052,1.042Zm-13.49-7.22a8.334,8.334,0,1,0,7.292,8.261,8.43,8.43,0,0,0-.073-1.041H405.5a1.043,1.043,0,0,1-1.042-1.042Zm12.5,5.136-1.323-1.321h0a10.381,10.381,0,0,0-9.094-7.964v9.284h9.312a11.107,11.107,0,0,0-.218-1.32Z" transform="translate(0 560.495)" fill="#44afd5" fill-rule="evenodd"/>
    <path id="Path_995" data-name="Path 995" d="M890.992,35.015,882.009,40.2a2.27,2.27,0,1,0,2.269,3.931l.714-.412,7.592,13.148a4.362,4.362,0,0,0,7.554-4.36L892.56,39.381l.714-.412a2.283,2.283,0,1,0-2.282-3.954Zm7.534,18.423a2.5,2.5,0,0,1-4.33,2.5l-3.26-5.648,4.307-2.487,3.261,5.648Zm-6.165-16.051-1.52.878a.934.934,0,0,0-.35,1.256l3.874,6.71-4.33,2.5-3.874-6.71A.933.933,0,0,0,884.9,41.7l-1.521.878a.443.443,0,1,1-.443-.768l8.983-5.186a.443.443,0,1,1,.443.768Z" transform="translate(0 560.495)" fill="#00ff83" fill-rule="evenodd" opacity="0.8"/>
    <g id="Group_99" data-name="Group 99" transform="translate(0 560.495)" opacity="0.2">
      <path id="Path_996" data-name="Path 996" d="M493.451,93.746a1.095,1.095,0,0,0,.887-1.267,1.358,1.358,0,0,0-.027-.155l1.4-1.242a1.082,1.082,0,0,0,1.326-.234l1.623.736a1.262,1.262,0,0,0,.03.172,1.09,1.09,0,1,0,1.951-.833l1.426-2.446h0a1.473,1.473,0,0,0,.589.011,1.5,1.5,0,1,0-1.39-.474l-1.387,2.466a1.1,1.1,0,0,0-.837.289l-1.735-.724-.017-.094a1.094,1.094,0,1,0-2.146.378l.013.078-1.443,1.285a1.093,1.093,0,1,0-.268,2.063Z" fill="#fff" fill-rule="evenodd"/>
      <path id="Path_997" data-name="Path 997" d="M493.548,98.979l1.586-.28-.624-3.541-1.586.28Z" fill="#fff" fill-rule="evenodd"/>
      <path id="Path_998" data-name="Path 998" d="M500.079,97.827l1.587-.28-.625-3.541-1.586.28Z" fill="#fff" fill-rule="evenodd"/>
      <path id="Path_999" data-name="Path 999" d="M503.341,97.236l1.587-.28-1.169-6.627-1.586.28Z" fill="#fff" fill-rule="evenodd"/>
      <path id="Path_1000" data-name="Path 1000" d="M496.812,98.4l1.586-.28-.947-5.368-1.586.28Z" fill="#fff" fill-rule="evenodd"/>
      <path id="Path_1001" data-name="Path 1001" d="M508.711,90.7A10.369,10.369,0,1,1,496.7,82.289,10.367,10.367,0,0,1,508.711,90.7" fill="none" stroke="#fff" stroke-width="2"/>
    </g>
    <g id="Group_100" data-name="Group 100" transform="translate(0 560.495)" opacity="0.2">
      <path id="Path_1002" data-name="Path 1002" d="M1161.45,121.746a1.1,1.1,0,0,0,.71-.45,1.124,1.124,0,0,0,.18-.817c-.01-.052-.02-.1-.03-.155l1.4-1.242a1.09,1.09,0,0,0,1.33-.234l1.62.736a.517.517,0,0,0,.03.172,1.091,1.091,0,0,0,2.14-.378.96.96,0,0,0-.19-.455l1.43-2.446h-.01a1.5,1.5,0,1,0-.93-2.3,1.514,1.514,0,0,0,.13,1.837l-1.38,2.465a1.107,1.107,0,0,0-.84.29l-1.74-.725-.01-.094a1.1,1.1,0,0,0-.43-.775,1.083,1.083,0,0,0-.85-.21,1.089,1.089,0,0,0-.87,1.364l.01.078-1.44,1.284a1.1,1.1,0,0,0-.99.028,1.075,1.075,0,0,0-.56.821,1.089,1.089,0,0,0,1.28,1.214Z" fill="#fff" fill-rule="evenodd"/>
      <path id="Path_1003" data-name="Path 1003" d="M1161.55,126.979l1.58-.28-.62-3.541-1.59.28Z" fill="#fff" fill-rule="evenodd"/>
      <path id="Path_1004" data-name="Path 1004" d="M1168.08,125.827l1.59-.279-.63-3.541-1.58.279Z" fill="#fff" fill-rule="evenodd"/>
      <path id="Path_1005" data-name="Path 1005" d="M1171.34,125.236l1.59-.28-1.17-6.627-1.59.279Z" fill="#fff" fill-rule="evenodd"/>
      <path id="Path_1006" data-name="Path 1006" d="M1164.81,126.395l1.59-.279-.95-5.368-1.58.279Z" fill="#fff" fill-rule="evenodd"/>
      <path id="Path_1007" data-name="Path 1007" d="M1176.71,118.7a10.368,10.368,0,1,1-12.01-8.41,10.363,10.363,0,0,1,12.01,8.41" fill="none" stroke="#fff" stroke-width="2"/>
    </g>
    <path id="Path_1008" data-name="Path 1008" d="M433.164,26a.72.72,0,0,0,.074,1.438h.476v6.656l-5.431,10.5a2.784,2.784,0,0,0-.283,1.3A3.116,3.116,0,0,0,431.1,49H444.9a3.116,3.116,0,0,0,3.1-3.114,2.784,2.784,0,0,0-.283-1.3l-5.431-10.5v-4.5a.72.72,0,0,0-.206-.515.71.71,0,0,0-1.017,0,.72.72,0,0,0-.206.515v4.679a.726.726,0,0,0,.082.329l3.772,7.292a6.733,6.733,0,0,1-3.14,1.355,6.828,6.828,0,0,1-3.95-1.445,7.829,7.829,0,0,0-4.383-1.67,6.711,6.711,0,0,0-1.086.1l2.909-5.63a.726.726,0,0,0,.082-.329V27.438h7.619a.712.712,0,0,0,.512-.207.722.722,0,0,0,0-1.024.712.712,0,0,0-.512-.207h-9.6Zm3.883,8.385a1.2,1.2,0,1,0,1.191,1.2A1.194,1.194,0,0,0,437.047,34.386Zm2.143,4.073a.958.958,0,1,0,.953.958A.955.955,0,0,0,439.19,38.459Zm-5.952,3.115a6.447,6.447,0,0,1,3.608,1.438,8.357,8.357,0,0,0,4.725,1.677,6.958,6.958,0,0,0,3.81-1.5l1.071,2.066a1.417,1.417,0,0,1,.119.629,1.66,1.66,0,0,1-1.666,1.677H431.1a1.661,1.661,0,0,1-1.667-1.677,1.432,1.432,0,0,1,.119-.629l1.712-3.309a5.45,5.45,0,0,1,1.979-.374Z" transform="translate(0 560.495)" fill="#fff" fill-rule="evenodd" opacity="0.2"/>
    <g id="Group_101" data-name="Group 101" transform="translate(0 560.495)" opacity="0.2">
      <path id="Path_1009" data-name="Path 1009" d="M730.77,14.4h22.493a1.2,1.2,0,0,0,1.2-1.2l0-13.492a1.2,1.2,0,0,0-1.2-1.2H731.37c-.664,0-1.8.537-1.8,1.2V13.2a1.2,1.2,0,0,0,1.2,1.2ZM731.22.2a.78.78,0,0,1,.165-.047h21.428V12.745H731.219Z" fill="#fff" fill-rule="evenodd"/>
      <path id="Path_1010" data-name="Path 1010" d="M749.876,4.083s0-.009,0-.015h0a.956.956,0,0,0-.041-.158c-.007-.02-.019-.039-.027-.057a.678.678,0,0,0-.044-.087.5.5,0,0,0-.041-.055.608.608,0,0,0-.056-.073c-.018-.019-.038-.034-.056-.052a.848.848,0,0,0-.064-.056.82.82,0,0,0-.3-.137c-.015,0-.03,0-.044-.007a.74.74,0,0,0-.115-.015.848.848,0,0,0-.144.008h-.021l-1.73.27c-.012,0-.022.007-.034.008a.717.717,0,0,0-.086.022c-.025.008-.05.016-.075.027s-.047.021-.069.034a.871.871,0,0,0-.076.046c-.009.007-.02.011-.029.018s-.019.019-.03.027a.84.84,0,0,0-.064.06c-.019.019-.035.039-.052.059s-.031.042-.046.064a.547.547,0,0,0-.042.069c-.011.023-.022.047-.032.071s-.019.049-.027.075a.684.684,0,0,0-.019.079c-.005.027-.009.053-.012.08s0,.052,0,.077a.864.864,0,0,0,0,.088c0,.013,0,.026,0,.04s.007.023.009.036.011.048.018.071a.787.787,0,0,0,.029.082.433.433,0,0,0,.027.059.747.747,0,0,0,.053.087.3.3,0,0,0,.02.033l.043.057-4.084,3.149-3.514-2.529-.011-.006a.87.87,0,0,0-.083-.048c-.02-.011-.04-.023-.061-.033a.753.753,0,0,0-.072-.023A.807.807,0,0,0,738.8,5.5c-.02,0-.041,0-.061-.008a.863.863,0,0,0-.1-.011c-.021,0-.042,0-.063,0a.826.826,0,0,0-.094.008.607.607,0,0,0-.062.016.84.84,0,0,0-.092.027c-.019.007-.036.018-.054.026a.809.809,0,0,0-.093.048l-.01.006L733.78,8.508a.824.824,0,0,0,.454,1.514.811.811,0,0,0,.452-.136l3.92-2.577,3.553,2.557a.806.806,0,0,0,.12.071l.021.008a.751.751,0,0,0,.138.048l.04.009a.861.861,0,0,0,.163.019h0a.842.842,0,0,0,.17-.02l.041-.011a.852.852,0,0,0,.138-.049c.01,0,.019-.007.027-.012a.745.745,0,0,0,.127-.08l4.562-3.513a.772.772,0,0,0,.062.057.385.385,0,0,0,.045.04.793.793,0,0,0,.106.068c.017.009.031.02.047.028l.007,0a.686.686,0,0,0,.1.035.531.531,0,0,0,.064.021.78.78,0,0,0,.18.021h0a.858.858,0,0,0,.211-.029l.026-.006a.81.81,0,0,0,.183-.082.362.362,0,0,0,.034-.022c.014-.009.028-.016.042-.027a.772.772,0,0,0,.11-.1l.011-.009a.856.856,0,0,0,.117-.179.121.121,0,0,1,.014-.02l.739-1.588h0l0,0a.254.254,0,0,1,.009-.026.721.721,0,0,0,.044-.127.84.84,0,0,0,.013-.084.625.625,0,0,0,.011-.075c-.005-.05-.008-.1-.014-.149Z" fill="#fff" fill-rule="evenodd"/>
      <path id="Path_1011" data-name="Path 1011" d="M754.6,15.524H729.4a.825.825,0,1,0,0,1.65h25.2a.825.825,0,1,0,0-1.65Z" fill="#fff" fill-rule="evenodd"/>
    </g>
    <g id="Group_102" data-name="Group 102" transform="translate(0 560.495)" opacity="0.2">
      <path id="Path_1012" data-name="Path 1012" d="M259.77,135.4h22.493a1.2,1.2,0,0,0,1.2-1.2l0-13.491a1.2,1.2,0,0,0-1.2-1.2H260.37c-.664,0-1.8.536-1.8,1.2V134.2a1.2,1.2,0,0,0,1.2,1.2Zm.45-14.194a.755.755,0,0,1,.165-.047h21.428v12.59l-21.594,0Z" fill="#fff" fill-rule="evenodd"/>
      <path id="Path_1013" data-name="Path 1013" d="M278.876,125.083s0-.01,0-.016h0a.969.969,0,0,0-.041-.158c-.007-.02-.019-.039-.027-.057a.645.645,0,0,0-.044-.087.52.52,0,0,0-.041-.055.64.64,0,0,0-.056-.073c-.018-.019-.038-.034-.056-.051s-.04-.039-.064-.057a.83.83,0,0,0-.295-.137c-.015,0-.03,0-.044-.007a.723.723,0,0,0-.115-.015.869.869,0,0,0-.144.008h-.018s0,0,0,0l-1.73.269c-.012,0-.022.007-.034.008a.643.643,0,0,0-.086.023.751.751,0,0,0-.075.027.627.627,0,0,0-.069.034c-.027.014-.051.029-.076.045-.009.007-.02.011-.029.018s-.019.019-.03.027a.956.956,0,0,0-.116.118c-.016.021-.031.042-.046.065a.489.489,0,0,0-.042.069c-.011.023-.022.047-.032.071s-.019.049-.027.075a.7.7,0,0,0-.019.079c-.005.027-.009.052-.012.079s0,.052,0,.078a.88.88,0,0,0,0,.088c0,.013,0,.025,0,.039s.007.024.009.037.011.048.018.071a.8.8,0,0,0,.029.082.444.444,0,0,0,.027.059.773.773,0,0,0,.053.087.278.278,0,0,0,.02.032l.043.058-4.084,3.149-3.514-2.529-.011-.006a.772.772,0,0,0-.083-.048c-.02-.011-.04-.024-.061-.033s-.047-.016-.072-.023a.7.7,0,0,0-.082-.026c-.02,0-.041,0-.061-.008a.762.762,0,0,0-.1-.011c-.021,0-.042,0-.063,0a.729.729,0,0,0-.094.008c-.021,0-.041.011-.062.016s-.062.016-.092.027-.036.018-.054.026a.74.74,0,0,0-.093.048.053.053,0,0,1-.01.006l-4.395,2.889a.825.825,0,0,0,.454,1.514.816.816,0,0,0,.452-.136l3.92-2.577,3.553,2.557a.821.821,0,0,0,.12.071l.021.009a.78.78,0,0,0,.138.048c.013,0,.026.007.04.009a.824.824,0,0,0,.163.019h0a.821.821,0,0,0,.17-.02l.041-.011a.783.783,0,0,0,.138-.049c.01-.005.019-.007.027-.012a.766.766,0,0,0,.127-.079l4.562-3.514a.846.846,0,0,0,.062.058.43.43,0,0,0,.045.04.871.871,0,0,0,.106.068c.017.009.031.02.047.028l.007,0a.578.578,0,0,0,.1.035.436.436,0,0,0,.064.021.733.733,0,0,0,.18.022h0a.84.84,0,0,0,.211-.03l.026-.006a.745.745,0,0,0,.183-.082l.034-.022a.5.5,0,0,0,.042-.027.712.712,0,0,0,.11-.1l.011-.009a.861.861,0,0,0,.117-.179.12.12,0,0,1,.014-.02l.739-1.588h0l0,0c0-.008.005-.017.009-.026a.725.725,0,0,0,.044-.126.815.815,0,0,0,.013-.084.648.648,0,0,0,.011-.075c-.005-.051-.008-.1-.014-.149Z" fill="#fff" fill-rule="evenodd"/>
      <path id="Path_1014" data-name="Path 1014" d="M283.6,136.524H258.4a.825.825,0,1,0,0,1.65h25.2a.825.825,0,1,0,0-1.65Z" fill="#fff" fill-rule="evenodd"/>
    </g>
    <path id="Path_1015" data-name="Path 1015" d="M688.795,134.941l-1.889-.665a.513.513,0,0,0-.653.3.5.5,0,0,0,.307.638l.822.29-7.46,3.2-1.338-2.772-4.8,2.148a.494.494,0,0,0-.253.656.515.515,0,0,0,.677.251l3.885-1.739L679.424,140l8.416-3.6-.308.837a.5.5,0,0,0,.306.638.514.514,0,0,0,.652-.3l.68-1.846a.606.606,0,0,0-.375-.782Zm-6.376-7.955a.5.5,0,0,0,.307.638.514.514,0,0,0,.653-.3l.714-1.939a.51.51,0,0,0-.316-.656l-1.984-.7a.512.512,0,0,0-.652.3.5.5,0,0,0,.307.638l.829.292-11.973,5.18a.494.494,0,0,0-.26.658h0a.515.515,0,0,0,.672.252l12.01-5.2Zm7.234,1.968-1.984-.7a.512.512,0,0,0-.651.3.494.494,0,0,0,.306.637l.846.3-7.026,3.127-1.077-2.012-8.091,3.5a.494.494,0,0,0-.26.659h0a.514.514,0,0,0,.671.252l7.219-3.119,1.082,2.022L688.6,130.4l-.3.816a.5.5,0,0,0,.308.637.512.512,0,0,0,.651-.3l.715-1.939a.51.51,0,0,0-.316-.656Z" transform="translate(0 560.495)" fill="#fff" fill-rule="evenodd" opacity="0.2"/>
    <path id="Path_1016" data-name="Path 1016" d="M860.047,159.322l.007-.008c.012-.011.022-.023.033-.033l.011-.013.026-.03a.11.11,0,0,0,.012-.018l.022-.028a.144.144,0,0,1,.013-.021l.017-.027.013-.023a.17.17,0,0,0,.014-.026c0-.008.008-.016.012-.023s.009-.018.012-.027.007-.017.011-.025l.01-.027a.218.218,0,0,0,.009-.027c0-.009.006-.017.009-.027s.005-.017.008-.027.005-.018.007-.027a.138.138,0,0,0,0-.028l.006-.027,0-.028a.139.139,0,0,0,0-.029c0-.009,0-.018,0-.027s0-.019,0-.029a.252.252,0,0,0,0-.028v-.03l0-.027c0-.009,0-.019,0-.029s0-.018,0-.028,0-.017,0-.027,0,0,0,0,0,0,0,0l-.194-1.068,4.4-3.693.017-.016c.013-.012.027-.024.039-.037a.337.337,0,0,0,.026-.029l.029-.032.028-.036.021-.029a.462.462,0,0,0,.026-.041c.006-.01.012-.019.018-.03l.021-.042c.005-.012.011-.023.015-.035l.015-.039c.005-.013.01-.027.014-.04a.368.368,0,0,0,.01-.036c0-.015.007-.031.011-.046s0-.023.006-.034a.382.382,0,0,0,.007-.048l0-.036c0-.016,0-.031,0-.047s0-.028,0-.042,0-.027,0-.04,0-.036-.007-.054a.2.2,0,0,0,0-.023l-1.006-5.583.941-.79.043-.039a.075.075,0,0,0,.012-.013.236.236,0,0,0,.027-.028l.015-.018c.007-.009.015-.017.022-.025a.246.246,0,0,0,.014-.021.229.229,0,0,0,.019-.025l.014-.021.017-.025.013-.023a.225.225,0,0,1,.015-.026c0-.008.007-.016.011-.023l.012-.028a.237.237,0,0,1,.01-.024c0-.01.008-.019.011-.028a.111.111,0,0,0,.007-.024l.009-.029a.223.223,0,0,0,.007-.024.267.267,0,0,1,.008-.03.213.213,0,0,1,.005-.025l.006-.03,0-.026c0-.009,0-.02,0-.029s0-.018,0-.026,0-.02,0-.03a.231.231,0,0,0,0-.026v-.03c0-.009,0-.018,0-.027s0-.019,0-.03,0-.018,0-.027a.267.267,0,0,0,0-.027,0,0,0,0,0,0,0v0l-1-5.562a.86.86,0,0,0-.549-.655l-5.3-1.954h0s0,0,0,0l-.021-.007-.032-.011a.183.183,0,0,0-.025-.006l-.03-.008-.027-.005-.029-.006-.028,0-.027,0-.029,0h-.057a.224.224,0,0,1-.026,0l-.031,0-.025,0-.03.005-.025,0a.244.244,0,0,0-.029.006l-.026,0-.029.008-.025.008-.028.009-.025.009c-.009,0-.017.008-.026.012l-.026.01-.025.013-.025.013a.2.2,0,0,0-.025.014.187.187,0,0,0-.024.014l-.026.018-.021.015-.032.025-.013.01-.941.789-5.322-1.959a.1.1,0,0,0-.023-.006l-.05-.016c-.013,0-.027-.006-.04-.009a.258.258,0,0,0-.04-.009l-.047-.007-.035,0-.05,0h-.033a.4.4,0,0,0-.048,0l-.037,0c-.014,0-.028,0-.043.006l-.041.008a.235.235,0,0,1-.036.009l-.046.013-.032.013c-.015.006-.03.011-.046.019l-.032.016-.042.021-.035.022-.034.021c-.015.01-.028.021-.043.032l-.019.015-4.4,3.694-1.022-.376h-.005l-.031-.01-.021-.007a.354.354,0,0,0-.035-.009l-.02-.005-.036-.007a.151.151,0,0,0-.021,0l-.035-.005-.02,0-.035,0h-.076a.187.187,0,0,0-.034,0H844.4l-.034.005-.021,0-.034.007-.021.005-.034.01-.02.005-.033.012-.02.007a.322.322,0,0,0-.033.014l-.02.008-.033.017-.017.009c-.011.005-.022.013-.034.02l-.015.009c-.013.008-.025.017-.036.025a.059.059,0,0,0-.011.008l-.04.03-.006.005-4.321,3.626a.859.859,0,0,0-.294.812l1,5.563a.86.86,0,0,0,.555.657l.032.01,1.073.4.991,5.5a.858.858,0,0,0,.613.675l5.185,1.907.21,1.167a.861.861,0,0,0,.555.656l.033.011,5.268,1.939a.859.859,0,0,0,.851-.149l4.319-3.623c.014-.013.029-.025.042-.039Zm-1.711-1.95-3.426-1.264-.648-3.593,3.428,1.262Zm-5.773-4.572.65,3.61-2.8,2.35-.65-3.61Zm4.732-12.764.65,3.61-2.8,2.35-.651-3.61Zm1.758,4.928,3.441,1.268-2.8,2.348-3.443-1.266Zm3.368-3.95.649,3.594-3.427-1.263-.648-3.6Zm-19.56,8.744,2.8-2.35,3.441,1.268-2.8,2.348Zm3.39-3.969L845.6,142.2l3.427,1.263.648,3.6Zm-2.347-3.308.65,3.61-2.8,2.35-.649-3.61Zm.675,13.5-.725-4.023,2.321.854a.859.859,0,0,0,.851-.149l4.32-3.623.043-.039a.106.106,0,0,1,.015-.015l.025-.026.017-.019c.006-.009.014-.016.021-.025a.142.142,0,0,1,.015-.019c.006-.008.013-.017.018-.025l.014-.022.017-.026c0-.008.009-.015.013-.022a.19.19,0,0,1,.016-.027l.01-.021a.205.205,0,0,0,.014-.03c0-.007.006-.014.009-.02s.008-.02.011-.031a.176.176,0,0,0,.007-.021c0-.011.008-.021.011-.032s0-.014.005-.02.005-.023.008-.034a.114.114,0,0,0,0-.02c0-.012,0-.023.007-.035s0-.013,0-.02,0-.023.005-.035,0-.014,0-.02,0-.024,0-.037v-.02c0-.012,0-.025,0-.037s0-.014,0-.021a.236.236,0,0,0,0-.036l0-.022c0-.01,0-.021-.005-.031v0s0,0,0,0l-1-5.561a.859.859,0,0,0-.549-.654l-2.42-.892,3.266-2.74,3.929,1.448-1.859,1.561a.861.861,0,0,0-.295.812l1,5.563a.86.86,0,0,0,.555.657l.034.011,5.267,1.938a.861.861,0,0,0,.852-.149l1.857-1.558.743,4.121-3.264,2.739-.457-2.536a.859.859,0,0,0-.55-.655l-5.3-1.954h-.006l-.021-.007-.032-.011-.023-.006-.032-.008-.025,0a.155.155,0,0,0-.031-.006l-.026,0-.03,0-.026,0-.029,0h-.055l-.027,0-.029,0c-.009,0-.018,0-.027,0a.231.231,0,0,0-.028.005l-.027.006-.028.006-.027.007-.028.008-.025.009-.028.01-.024.01-.027.012-.024.012a.216.216,0,0,0-.026.014.221.221,0,0,0-.026.015l-.023.013-.029.02-.018.013-.038.029-.008.006-4.32,3.626a.86.86,0,0,0-.295.812l.437,2.429Zm6.942,4.1,2.8-2.35L857.761,159l-2.8,2.348Z" transform="translate(0 560.495)" fill="#fff" fill-rule="evenodd" opacity="0.2"/>
    <path id="Path_1027" data-name="Path 1027" d="M860.047,159.322l.007-.008c.012-.011.022-.023.033-.033l.011-.013.026-.03a.11.11,0,0,0,.012-.018l.022-.028a.144.144,0,0,1,.013-.021l.017-.027.013-.023a.17.17,0,0,0,.014-.026c0-.008.008-.016.012-.023s.009-.018.012-.027.007-.017.011-.025l.01-.027a.218.218,0,0,0,.009-.027c0-.009.006-.017.009-.027s.005-.017.008-.027.005-.018.007-.027a.138.138,0,0,0,0-.028l.006-.027,0-.028a.139.139,0,0,0,0-.029c0-.009,0-.018,0-.027s0-.019,0-.029a.252.252,0,0,0,0-.028v-.03l0-.027c0-.009,0-.019,0-.029s0-.018,0-.028,0-.017,0-.027,0,0,0,0,0,0,0,0l-.194-1.068,4.4-3.693.017-.016c.013-.012.027-.024.039-.037a.337.337,0,0,0,.026-.029l.029-.032.028-.036.021-.029a.462.462,0,0,0,.026-.041c.006-.01.012-.019.018-.03l.021-.042c.005-.012.011-.023.015-.035l.015-.039c.005-.013.01-.027.014-.04a.368.368,0,0,0,.01-.036c0-.015.007-.031.011-.046s0-.023.006-.034a.382.382,0,0,0,.007-.048l0-.036c0-.016,0-.031,0-.047s0-.028,0-.042,0-.027,0-.04,0-.036-.007-.054a.2.2,0,0,0,0-.023l-1.006-5.583.941-.79.043-.039a.075.075,0,0,0,.012-.013.236.236,0,0,0,.027-.028l.015-.018c.007-.009.015-.017.022-.025a.246.246,0,0,0,.014-.021.229.229,0,0,0,.019-.025l.014-.021.017-.025.013-.023a.225.225,0,0,1,.015-.026c0-.008.007-.016.011-.023l.012-.028a.237.237,0,0,1,.01-.024c0-.01.008-.019.011-.028a.111.111,0,0,0,.007-.024l.009-.029a.223.223,0,0,0,.007-.024.267.267,0,0,1,.008-.03.213.213,0,0,1,.005-.025l.006-.03,0-.026c0-.009,0-.02,0-.029s0-.018,0-.026,0-.02,0-.03a.231.231,0,0,0,0-.026v-.03c0-.009,0-.018,0-.027s0-.019,0-.03,0-.018,0-.027a.267.267,0,0,0,0-.027,0,0,0,0,0,0,0v0l-1-5.562a.86.86,0,0,0-.549-.655l-5.3-1.954h0s0,0,0,0l-.021-.007-.032-.011a.183.183,0,0,0-.025-.006l-.03-.008-.027-.005-.029-.006-.028,0-.027,0-.029,0h-.057a.224.224,0,0,1-.026,0l-.031,0-.025,0-.03.005-.025,0a.244.244,0,0,0-.029.006l-.026,0-.029.008-.025.008-.028.009-.025.009c-.009,0-.017.008-.026.012l-.026.01-.025.013-.025.013a.2.2,0,0,0-.025.014.187.187,0,0,0-.024.014l-.026.018-.021.015-.032.025-.013.01-.941.789-5.322-1.959a.1.1,0,0,0-.023-.006l-.05-.016c-.013,0-.027-.006-.04-.009a.258.258,0,0,0-.04-.009l-.047-.007-.035,0-.05,0h-.033a.4.4,0,0,0-.048,0l-.037,0c-.014,0-.028,0-.043.006l-.041.008a.235.235,0,0,1-.036.009l-.046.013-.032.013c-.015.006-.03.011-.046.019l-.032.016-.042.021-.035.022-.034.021c-.015.01-.028.021-.043.032l-.019.015-4.4,3.694-1.022-.376h-.005l-.031-.01-.021-.007a.354.354,0,0,0-.035-.009l-.02-.005-.036-.007a.151.151,0,0,0-.021,0l-.035-.005-.02,0-.035,0h-.076a.187.187,0,0,0-.034,0H844.4l-.034.005-.021,0-.034.007-.021.005-.034.01-.02.005-.033.012-.02.007a.322.322,0,0,0-.033.014l-.02.008-.033.017-.017.009c-.011.005-.022.013-.034.02l-.015.009c-.013.008-.025.017-.036.025a.059.059,0,0,0-.011.008l-.04.03-.006.005-4.321,3.626a.859.859,0,0,0-.294.812l1,5.563a.86.86,0,0,0,.555.657l.032.01,1.073.4.991,5.5a.858.858,0,0,0,.613.675l5.185,1.907.21,1.167a.861.861,0,0,0,.555.656l.033.011,5.268,1.939a.859.859,0,0,0,.851-.149l4.319-3.623c.014-.013.029-.025.042-.039Zm-1.711-1.95-3.426-1.264-.648-3.593,3.428,1.262Zm-5.773-4.572.65,3.61-2.8,2.35-.65-3.61Zm4.732-12.764.65,3.61-2.8,2.35-.651-3.61Zm1.758,4.928,3.441,1.268-2.8,2.348-3.443-1.266Zm3.368-3.95.649,3.594-3.427-1.263-.648-3.6Zm-19.56,8.744,2.8-2.35,3.441,1.268-2.8,2.348Zm3.39-3.969L845.6,142.2l3.427,1.263.648,3.6Zm-2.347-3.308.65,3.61-2.8,2.35-.649-3.61Zm.675,13.5-.725-4.023,2.321.854a.859.859,0,0,0,.851-.149l4.32-3.623.043-.039a.106.106,0,0,1,.015-.015l.025-.026.017-.019c.006-.009.014-.016.021-.025a.142.142,0,0,1,.015-.019c.006-.008.013-.017.018-.025l.014-.022.017-.026c0-.008.009-.015.013-.022a.19.19,0,0,1,.016-.027l.01-.021a.205.205,0,0,0,.014-.03c0-.007.006-.014.009-.02s.008-.02.011-.031a.176.176,0,0,0,.007-.021c0-.011.008-.021.011-.032s0-.014.005-.02.005-.023.008-.034a.114.114,0,0,0,0-.02c0-.012,0-.023.007-.035s0-.013,0-.02,0-.023.005-.035,0-.014,0-.02,0-.024,0-.037v-.02c0-.012,0-.025,0-.037s0-.014,0-.021a.236.236,0,0,0,0-.036l0-.022c0-.01,0-.021-.005-.031v0s0,0,0,0l-1-5.561a.859.859,0,0,0-.549-.654l-2.42-.892,3.266-2.74,3.929,1.448-1.859,1.561a.861.861,0,0,0-.295.812l1,5.563a.86.86,0,0,0,.555.657l.034.011,5.267,1.938a.861.861,0,0,0,.852-.149l1.857-1.558.743,4.121-3.264,2.739-.457-2.536a.859.859,0,0,0-.55-.655l-5.3-1.954h-.006l-.021-.007-.032-.011-.023-.006-.032-.008-.025,0a.155.155,0,0,0-.031-.006l-.026,0-.03,0-.026,0-.029,0h-.055l-.027,0-.029,0c-.009,0-.018,0-.027,0a.231.231,0,0,0-.028.005l-.027.006-.028.006-.027.007-.028.008-.025.009-.028.01-.024.01-.027.012-.024.012a.216.216,0,0,0-.026.014.221.221,0,0,0-.026.015l-.023.013-.029.02-.018.013-.038.029-.008.006-4.32,3.626a.86.86,0,0,0-.295.812l.437,2.429Zm6.942,4.1,2.8-2.35L857.761,159l-2.8,2.348Z" transform="translate(-280 552.495)" fill="#fff" fill-rule="evenodd" opacity="0.2"/>
    <g id="Group_106" data-name="Group 106" transform="translate(280 580.495)" opacity="0.2">
      <path id="Path_996-2" data-name="Path 996" d="M493.451,93.746a1.095,1.095,0,0,0,.887-1.267,1.358,1.358,0,0,0-.027-.155l1.4-1.242a1.082,1.082,0,0,0,1.326-.234l1.623.736a1.262,1.262,0,0,0,.03.172,1.09,1.09,0,1,0,1.951-.833l1.426-2.446h0a1.473,1.473,0,0,0,.589.011,1.5,1.5,0,1,0-1.39-.474l-1.387,2.466a1.1,1.1,0,0,0-.837.289l-1.735-.724-.017-.094a1.094,1.094,0,1,0-2.146.378l.013.078-1.443,1.285a1.093,1.093,0,1,0-.268,2.063Z" fill="#fff" fill-rule="evenodd"/>
      <path id="Path_997-2" data-name="Path 997" d="M493.548,98.979l1.586-.28-.624-3.541-1.586.28Z" fill="#fff" fill-rule="evenodd"/>
      <path id="Path_998-2" data-name="Path 998" d="M500.079,97.827l1.587-.28-.625-3.541-1.586.28Z" fill="#fff" fill-rule="evenodd"/>
      <path id="Path_999-2" data-name="Path 999" d="M503.341,97.236l1.587-.28-1.169-6.627-1.586.28Z" fill="#fff" fill-rule="evenodd"/>
      <path id="Path_1000-2" data-name="Path 1000" d="M496.812,98.4l1.586-.28-.947-5.368-1.586.28Z" fill="#fff" fill-rule="evenodd"/>
      <path id="Path_1001-2" data-name="Path 1001" d="M508.711,90.7A10.369,10.369,0,1,1,496.7,82.289,10.367,10.367,0,0,1,508.711,90.7" fill="none" stroke="#fff" stroke-width="2"/>
    </g>
    <g id="Group_107" data-name="Group 107" transform="translate(349 481.495)" opacity="0.2">
      <path id="Path_1012-2" data-name="Path 1012" d="M259.77,135.4h22.493a1.2,1.2,0,0,0,1.2-1.2l0-13.491a1.2,1.2,0,0,0-1.2-1.2H260.37c-.664,0-1.8.536-1.8,1.2V134.2a1.2,1.2,0,0,0,1.2,1.2Zm.45-14.194a.755.755,0,0,1,.165-.047h21.428v12.59l-21.594,0Z" fill="#fff" fill-rule="evenodd"/>
      <path id="Path_1013-2" data-name="Path 1013" d="M278.876,125.083s0-.01,0-.016h0a.969.969,0,0,0-.041-.158c-.007-.02-.019-.039-.027-.057a.645.645,0,0,0-.044-.087.52.52,0,0,0-.041-.055.64.64,0,0,0-.056-.073c-.018-.019-.038-.034-.056-.051s-.04-.039-.064-.057a.83.83,0,0,0-.295-.137c-.015,0-.03,0-.044-.007a.723.723,0,0,0-.115-.015.869.869,0,0,0-.144.008h-.018s0,0,0,0l-1.73.269c-.012,0-.022.007-.034.008a.643.643,0,0,0-.086.023.751.751,0,0,0-.075.027.627.627,0,0,0-.069.034c-.027.014-.051.029-.076.045-.009.007-.02.011-.029.018s-.019.019-.03.027a.956.956,0,0,0-.116.118c-.016.021-.031.042-.046.065a.489.489,0,0,0-.042.069c-.011.023-.022.047-.032.071s-.019.049-.027.075a.7.7,0,0,0-.019.079c-.005.027-.009.052-.012.079s0,.052,0,.078a.88.88,0,0,0,0,.088c0,.013,0,.025,0,.039s.007.024.009.037.011.048.018.071a.8.8,0,0,0,.029.082.444.444,0,0,0,.027.059.773.773,0,0,0,.053.087.278.278,0,0,0,.02.032l.043.058-4.084,3.149-3.514-2.529-.011-.006a.772.772,0,0,0-.083-.048c-.02-.011-.04-.024-.061-.033s-.047-.016-.072-.023a.7.7,0,0,0-.082-.026c-.02,0-.041,0-.061-.008a.762.762,0,0,0-.1-.011c-.021,0-.042,0-.063,0a.729.729,0,0,0-.094.008c-.021,0-.041.011-.062.016s-.062.016-.092.027-.036.018-.054.026a.74.74,0,0,0-.093.048.053.053,0,0,1-.01.006l-4.395,2.889a.825.825,0,0,0,.454,1.514.816.816,0,0,0,.452-.136l3.92-2.577,3.553,2.557a.821.821,0,0,0,.12.071l.021.009a.78.78,0,0,0,.138.048c.013,0,.026.007.04.009a.824.824,0,0,0,.163.019h0a.821.821,0,0,0,.17-.02l.041-.011a.783.783,0,0,0,.138-.049c.01-.005.019-.007.027-.012a.766.766,0,0,0,.127-.079l4.562-3.514a.846.846,0,0,0,.062.058.43.43,0,0,0,.045.04.871.871,0,0,0,.106.068c.017.009.031.02.047.028l.007,0a.578.578,0,0,0,.1.035.436.436,0,0,0,.064.021.733.733,0,0,0,.18.022h0a.84.84,0,0,0,.211-.03l.026-.006a.745.745,0,0,0,.183-.082l.034-.022a.5.5,0,0,0,.042-.027.712.712,0,0,0,.11-.1l.011-.009a.861.861,0,0,0,.117-.179.12.12,0,0,1,.014-.02l.739-1.588h0l0,0c0-.008.005-.017.009-.026a.725.725,0,0,0,.044-.126.815.815,0,0,0,.013-.084.648.648,0,0,0,.011-.075c-.005-.051-.008-.1-.014-.149Z" fill="#fff" fill-rule="evenodd"/>
      <path id="Path_1014-2" data-name="Path 1014" d="M283.6,136.524H258.4a.825.825,0,1,0,0,1.65h25.2a.825.825,0,1,0,0-1.65Z" fill="#fff" fill-rule="evenodd"/>
    </g>
  </g>
</svg>
