<svg xmlns="http://www.w3.org/2000/svg" width="22.344" height="19.609" viewBox="0 0 22.344 19.609">
  <path id="Path_1266" data-name="Path 1266" d="M15.938,20.592H11.123V14.576a.678.678,0,0,1,.2-.508.716.716,0,0,1,.522-.2h3.389a.683.683,0,0,1,.513.2.7.7,0,0,1,.19.508ZM5.3,20.123a2.042,2.042,0,0,0,.571,1.533,2.164,2.164,0,0,0,1.577.557H19.619a2.147,2.147,0,0,0,1.572-.557,2.052,2.052,0,0,0,.566-1.533V12.965L14.092,6.539a.779.779,0,0,0-1.123,0L5.3,12.955ZM2.354,11.842a.8.8,0,0,0,.239.571.858.858,0,0,0,.649.249.833.833,0,0,0,.386-.093,1.443,1.443,0,0,0,.327-.229l9.219-7.725a.558.558,0,0,1,.361-.151.531.531,0,0,1,.371.151L23.1,12.34a2.026,2.026,0,0,0,.342.229.824.824,0,0,0,.391.093.921.921,0,0,0,.615-.215.727.727,0,0,0,.254-.586.88.88,0,0,0-.322-.7L14.756,3.082A1.827,1.827,0,0,0,13.54,2.6a1.863,1.863,0,0,0-1.226.479L2.7,11.158A.86.86,0,0,0,2.354,11.842ZM19.287,7.486,21.777,9.6V5.211a.624.624,0,0,0-.674-.674H19.971a.683.683,0,0,0-.5.181.657.657,0,0,0-.186.493Z" transform="translate(-2.354 -2.604)" fill="#fff"/>
</svg>
