<?xml version="1.0" encoding="UTF-8"?>
<svg width="40px" height="40px" viewBox="0 0 40 40" version="1.1" xmlns="http://www.w3.org/2000/svg" xmlns:xlink="http://www.w3.org/1999/xlink">
    <!-- Generator: sketchtool 52.5 (67469) - http://www.bohemiancoding.com/sketch -->
    <title>CD10BA10-F713-4570-9AA6-588E19031747</title>
    <desc>Created with sketchtool.</desc>
    <g id="Main_nav" stroke="none" stroke-width="1" fill="none" fill-rule="evenodd">
        <g id="Analiza-Page" transform="translate(-191.000000, -2685.000000)" fill="#DA65F5">
            <g id="kada" transform="translate(191.000000, 2685.000000)">
                <path d="M38.019802,16.2376238 C36.8316832,16.2376238 36.039604,17.029703 36.039604,18.2178218 L36.039604,34.0594059 C36.039604,35.2475248 35.2475248,36.039604 34.0594059,36.039604 L14.2574257,36.039604 C13.0693069,36.039604 12.2772277,35.2475248 12.2772277,34.0594059 L12.2772277,18.2178218 C12.2772277,17.029703 11.4851485,16.2376238 10.2970297,16.2376238 C9.30693069,16.2376238 8.31683168,17.2277228 8.31683168,18.2178218 L8.31683168,34.0594059 C8.31683168,37.4257426 10.8910891,40 14.2574257,40 L34.0594059,40 C37.4257426,40 40,37.4257426 40,34.0594059 L40,18.2178218 C40,17.2277228 39.2079208,16.2376238 38.019802,16.2376238 Z" id="Fill-1"></path>
                <path d="M21.5841584,15.049505 L23.7623762,7.32673267 C23.960396,6.33663366 23.3663366,5.14851485 22.3762376,4.95049505 L7.52475248,0.594059406 C3.16831683,-0.594059406 0.99009901,3.16831683 0.594059406,4.75247525 C-0.198019802,7.92079208 1.38613861,11.0891089 4.15841584,12.0792079 L19.009901,16.4356436 C20.5940594,16.8316832 21.3861386,15.6435644 21.5841584,15.049505 Z M5.34653465,8.11881188 C4.55445545,7.92079208 4.15841584,6.93069307 4.35643564,5.94059406 C4.55445545,5.14851485 5.34653465,4.15841584 6.33663366,4.35643564 L19.4059406,8.11881188 L18.2178218,12.0792079 L5.34653465,8.11881188 Z" id="Fill-2"></path>
                <path d="M18.2178218,26.1386139 C18.2178218,29.5049505 20.7920792,32.0792079 24.1584158,32.0792079 C27.5247525,32.0792079 30.0990099,29.5049505 30.0990099,26.1386139 C30.0990099,23.5643564 27.1287129,19.009901 25.7425743,17.029703 C24.950495,16.039604 23.1683168,16.039604 22.5742574,17.029703 C21.1881188,19.009901 18.2178218,23.5643564 18.2178218,26.1386139 Z M26.1386139,26.1386139 C26.1386139,27.3267327 25.3465347,28.1188119 24.1584158,28.1188119 C22.970297,28.1188119 22.1782178,27.3267327 22.1782178,26.1386139 C22.1782178,25.5445545 22.970297,23.7623762 24.1584158,21.980198 C25.3465347,23.7623762 26.1386139,25.5445545 26.1386139,26.1386139 Z" id="Fill-3"></path>
            </g>
        </g>
        <g id="Page"></g>
    </g>
</svg>