<?xml version="1.0" encoding="UTF-8"?>
<svg width="32px" height="41px" viewBox="0 0 32 41" version="1.1" xmlns="http://www.w3.org/2000/svg" xmlns:xlink="http://www.w3.org/1999/xlink">
    <!-- Generator: sketchtool 52.5 (67469) - http://www.bohemiancoding.com/sketch -->
    <title>A5AA9323-AB19-4E48-84F1-870353EAD888</title>
    <desc>Created with sketchtool.</desc>
    <g id="Main_nav" stroke="none" stroke-width="1" fill="none" fill-rule="evenodd">
        <g id="Analiza-Page" transform="translate(-198.000000, -311.000000)" fill="#1D88E5">
            <g id="opis" transform="translate(198.000000, 311.000000)">
                <path d="M32,39.8611111 L32,6.83333333 C32,6.51479978 31.8625006,6.24074667 31.6803566,6.01296889 L25.9660709,0.318524444 C25.7374994,0.137012889 25.4624823,-9.11111111e-06 25.142848,-9.11111111e-06 L1.142848,-9.11111111e-06 C0.503579429,-9.11111111e-06 -9.14285714e-06,0.501830889 -9.14285714e-06,1.13887978 L-9.14285714e-06,39.861102 C-9.14285714e-06,40.4981509 0.503579429,40.9999909 1.142848,40.9999909 L30.8571337,40.9999909 C31.4964023,40.9999909 31.9999909,40.4981509 31.9999909,39.861102 L32,39.8611111 Z M25.1428571,2.73333333 L29.2571429,6.83333333 L25.1428571,6.83333333 L25.1428571,2.73333333 Z M29.7142857,38.7222222 L2.28571429,38.7222222 L2.28571429,2.27777778 L22.8571429,2.27777778 L22.8571429,7.97222222 C22.8571429,8.60927111 23.3607314,9.11111111 24,9.11111111 L29.7142857,9.11111111 L29.7142857,38.7222222 Z" id="Fill-1"></path>
                <path d="M24,18.2222222 L8,18.2222222 C7.36073143,18.2222222 6.85714286,18.7240622 6.85714286,19.3611111 C6.85714286,19.99816 7.36073143,20.5 8,20.5 L24,20.5 C24.6392686,20.5 25.1428571,19.99816 25.1428571,19.3611111 C25.1428571,18.7240622 24.6392686,18.2222222 24,18.2222222 Z" id="Fill-2"></path>
                <path d="M8,13.6666667 C7.36073143,13.6666667 6.85714286,14.1685067 6.85714286,14.8055556 C6.85714286,15.4426044 7.36073143,15.9444444 8,15.9444444 L24,15.9444444 C24.6392686,15.9444444 25.1428571,15.4426044 25.1428571,14.8055556 C25.1428571,14.1685067 24.6392686,13.6666667 24,13.6666667 L8,13.6666667 Z" id="Fill-3"></path>
                <path d="M24,22.7777778 L8,22.7777778 C7.36073143,22.7777778 6.85714286,23.2796178 6.85714286,23.9166667 C6.85714286,24.5537156 7.36073143,25.0555556 8,25.0555556 L24,25.0555556 C24.6392686,25.0555556 25.1428571,24.5537156 25.1428571,23.9166667 C25.1428571,23.2796178 24.6392686,22.7777778 24,22.7777778 Z" id="Fill-4"></path>
                <path d="M24,27.3333333 L8,27.3333333 C7.36073143,27.3333333 6.85714286,27.8351733 6.85714286,28.4722222 C6.85714286,29.1092711 7.36073143,29.6111111 8,29.6111111 L24,29.6111111 C24.6392686,29.6111111 25.1428571,29.1092711 25.1428571,28.4722222 C25.1428571,27.8351733 24.6392686,27.3333333 24,27.3333333 Z" id="Fill-5"></path>
                <path d="M24,31.8888889 L8,31.8888889 C7.36073143,31.8888889 6.85714286,32.3907289 6.85714286,33.0277778 C6.85714286,33.6648267 7.36073143,34.1666667 8,34.1666667 L24,34.1666667 C24.6392686,34.1666667 25.1428571,33.6648267 25.1428571,33.0277778 C25.1428571,32.3907289 24.6392686,31.8888889 24,31.8888889 Z" id="Fill-6"></path>
            </g>
        </g>
        <g id="Page"></g>
    </g>
</svg>