<?xml version="1.0" encoding="UTF-8"?>
<svg width="24px" height="23px" viewBox="0 0 24 23" version="1.1" xmlns="http://www.w3.org/2000/svg" xmlns:xlink="http://www.w3.org/1999/xlink">
    <!-- Generator: sketchtool 52.5 (67469) - http://www.bohemiancoding.com/sketch -->
    <title>0DA255E2-327D-47C2-A7B0-7421019C31F7</title>
    <desc>Created with sketchtool.</desc>
    <g id="Main_nav" stroke="none" stroke-width="1" fill="none" fill-rule="evenodd">
        <g id="Analiza-Page" transform="translate(-601.000000, -2835.000000)" fill="#FF8E8E">
            <path d="M601,2856.9653 C601,2856.6891 601.109259,2856.42442 601.303075,2856.23069 C601.496891,2856.03601 601.760059,2855.92764 602.033681,2855.92955 L604.366102,2855.92955 L604.366102,2853.05934 L603.69725,2853.05934 C603.409376,2853.05934 603.145264,2852.89726 603.013196,2852.63834 C602.882087,2852.37941 602.904888,2852.06869 603.072101,2851.8318 L605.628819,2848.23268 C605.77323,2848.02937 606.006003,2847.90854 606.253965,2847.90854 C606.501926,2847.90854 606.734711,2848.02937 606.87911,2848.23268 L609.432909,2851.82886 L609.432909,2851.82982 C609.600123,2852.06573 609.622924,2852.37742 609.490864,2852.63635 C609.359754,2852.89433 609.095633,2853.05735 608.807759,2853.05735 L608.145547,2853.05735 L608.145547,2855.92953 L611.086064,2855.92953 L611.086064,2846.60028 L610.421954,2846.60028 C610.134081,2846.60028 609.869969,2846.43821 609.73885,2846.17929 C609.606789,2845.92035 609.629591,2845.60964 609.797755,2845.37275 L612.3535,2841.77829 C612.497911,2841.57498 612.730684,2841.45415 612.978645,2841.45415 C613.226607,2841.45415 613.459392,2841.57498 613.603791,2841.77829 L616.15759,2845.37447 L616.15759,2845.37543 C616.324803,2845.61134 616.347605,2845.92303 616.216495,2846.18098 C616.084435,2846.43992 615.820316,2846.60296 615.532442,2846.60296 L614.871178,2846.60296 L614.871178,2855.93221 L617.811695,2855.93221 L617.811695,2840.1508 L617.149483,2840.1508 C616.861609,2840.1508 616.597498,2839.98777 616.466378,2839.72981 C616.334318,2839.47087 616.35712,2839.1592 616.524333,2838.92327 L619.08105,2835.32414 C619.225462,2835.12083 619.458234,2835 619.706196,2835 C619.954158,2835 620.186943,2835.12084 620.331342,2835.32414 L622.885141,2838.92032 C623.052354,2839.1572 623.075155,2839.46792 622.944046,2839.72686 C622.811985,2839.9858 622.547867,2840.14786 622.259993,2840.14786 L621.598729,2840.14786 L621.598729,2855.92926 L623.923562,2855.92926 C624.203823,2855.91584 624.478393,2856.01845 624.681724,2856.2141 C624.88504,2856.40974 625,2856.68017 625,2856.96405 C625,2857.24793 624.88504,2857.51835 624.681724,2857.714 C624.478407,2857.90963 624.203847,2858.01224 623.923562,2857.99883 L602.033856,2857.99883 C601.761183,2858.00075 601.49802,2857.89334 601.304199,2857.69865 C601.110383,2857.50493 601.001124,2857.2412 601.000176,2856.96501 L601,2856.9653 Z" id="poviseneVrednosti"></path>
        </g>
        <g id="Page"></g>
    </g>
</svg>