<?xml version="1.0" encoding="UTF-8"?>
<svg width="24px" height="23px" viewBox="0 0 24 23" version="1.1" xmlns="http://www.w3.org/2000/svg" xmlns:xlink="http://www.w3.org/1999/xlink">
    <!-- Generator: sketchtool 52.5 (67469) - http://www.bohemiancoding.com/sketch -->
    <title>3E7A8AA7-E8B7-4498-924E-32C52314EC46</title>
    <desc>Created with sketchtool.</desc>
    <g id="Main_nav" stroke="none" stroke-width="1" fill="none" fill-rule="evenodd">
        <g id="Analiza-Page" transform="translate(-188.000000, -2835.000000)" fill="#1AE9B6">
            <path d="M188,2856.9653 C188,2856.6891 188.109259,2856.42442 188.303075,2856.23069 C188.496891,2856.03601 188.760059,2855.92764 189.033681,2855.92955 L191.366102,2855.92955 L191.366102,2853.05934 L190.69725,2853.05934 C190.409376,2853.05934 190.145264,2852.89726 190.013196,2852.63834 C189.882087,2852.37941 189.904888,2852.06869 190.072101,2851.8318 L192.628819,2848.23268 C192.77323,2848.02937 193.006003,2847.90854 193.253965,2847.90854 C193.501926,2847.90854 193.734711,2848.02937 193.87911,2848.23268 L196.432909,2851.82886 L196.432909,2851.82982 C196.600123,2852.06573 196.622924,2852.37742 196.490864,2852.63635 C196.359754,2852.89433 196.095633,2853.05735 195.807759,2853.05735 L195.145547,2853.05735 L195.145547,2855.92953 L198.086064,2855.92953 L198.086064,2846.60028 L197.421954,2846.60028 C197.134081,2846.60028 196.869969,2846.43821 196.73885,2846.17929 C196.606789,2845.92035 196.629591,2845.60964 196.797755,2845.37275 L199.3535,2841.77829 C199.497911,2841.57498 199.730684,2841.45415 199.978645,2841.45415 C200.226607,2841.45415 200.459392,2841.57498 200.603791,2841.77829 L203.15759,2845.37447 L203.15759,2845.37543 C203.324803,2845.61134 203.347605,2845.92303 203.216495,2846.18098 C203.084435,2846.43992 202.820316,2846.60296 202.532442,2846.60296 L201.871178,2846.60296 L201.871178,2855.93221 L204.811695,2855.93221 L204.811695,2840.1508 L204.149483,2840.1508 C203.861609,2840.1508 203.597498,2839.98777 203.466378,2839.72981 C203.334318,2839.47087 203.35712,2839.1592 203.524333,2838.92327 L206.08105,2835.32414 C206.225462,2835.12083 206.458234,2835 206.706196,2835 C206.954158,2835 207.186943,2835.12084 207.331342,2835.32414 L209.885141,2838.92032 C210.052354,2839.1572 210.075155,2839.46792 209.944046,2839.72686 C209.811985,2839.9858 209.547867,2840.14786 209.259993,2840.14786 L208.598729,2840.14786 L208.598729,2855.92926 L210.923562,2855.92926 C211.203823,2855.91584 211.478393,2856.01845 211.681724,2856.2141 C211.88504,2856.40974 212,2856.68017 212,2856.96405 C212,2857.24793 211.88504,2857.51835 211.681724,2857.714 C211.478407,2857.90963 211.203847,2858.01224 210.923562,2857.99883 L189.033856,2857.99883 C188.761183,2858.00075 188.49802,2857.89334 188.304199,2857.69865 C188.110383,2857.50493 188.001124,2857.2412 188.000176,2856.96501 L188,2856.9653 Z" id="snizeneVrednosti" transform="translate(200.000000, 2846.500000) scale(-1, 1) translate(-200.000000, -2846.500000) "></path>
        </g>
        <g id="Page"></g>
    </g>
</svg>