<svg xmlns="http://www.w3.org/2000/svg" width="20" height="20" viewBox="0 0 20 20">
  <path id="Path_1" data-name="Path 1" d="M6.222,5.778H7.556v4.444H6.222ZM3.556,10.222H4.889V8.889H3.556Zm4.445,4a8.784,8.784,0,0,1-3.979-.942,4.958,4.958,0,0,1-2.117.471,4.709,4.709,0,0,1-.77-.064A.889.889,0,0,1,.77,12.059a2.153,2.153,0,0,0,.727-.792A6.52,6.52,0,0,1,0,7.112C0,3.191,3.594,0,8,0s8,3.191,8,7.112-3.593,7.111-8,7.111ZM4.344,11.941A7.34,7.34,0,0,0,8,12.889c3.678,0,6.667-2.587,6.667-5.778S11.678,1.333,8,1.333,1.333,3.92,1.333,7.111a5.208,5.208,0,0,0,1.463,3.6l.28.3-.15.388a4.36,4.36,0,0,1-.495.948,2.973,2.973,0,0,0,1.226-.431L4,11.7Zm5.434-4.83H8.444v3.111H9.778ZM12,4.444H10.667v5.778H12Zm5.107,4.889c-.9,3.759-4.632,6.59-9.074,6.59-.314,0-.629-.021-.922-.042A6.555,6.555,0,0,0,13.419,20,7.2,7.2,0,0,0,17,19.071a3.785,3.785,0,0,0,2.515.465.182.182,0,0,0,.063-.338,2.717,2.717,0,0,1-1.048-1.352A5.383,5.383,0,0,0,20,14.171a5.674,5.674,0,0,0-2.893-4.837Z" fill="#fff" fill-rule="evenodd"/>
</svg>
