<svg xmlns="http://www.w3.org/2000/svg" width="80" height="74.977" viewBox="0 0 80 74.977">
  <path id="zakazivanjeBig_disabled" d="M64.719,74.977H15.277L0,28.637,40,0,80,28.637,64.72,74.974ZM36.158,53.709H46.371a6.488,6.488,0,0,0,12.536,0h1.856a3.233,3.233,0,0,0,3.25-3.209V39.865a3.184,3.184,0,0,0-.782-2.088L54.358,27.554a3.254,3.254,0,0,0-2.468-1.121H21.765a3.233,3.233,0,0,0-3.25,3.209V50.5a3.233,3.233,0,0,0,3.25,3.209h1.856a6.488,6.488,0,0,0,12.535,0Zm16.481,1.6a3.209,3.209,0,1,1,3.25-3.209A3.233,3.233,0,0,1,52.639,55.314Zm-22.749,0A3.209,3.209,0,1,1,33.14,52.1,3.233,3.233,0,0,1,29.89,55.314Zm0-14.44H26.64V37.664H23.39V34.455h3.25V31.246h3.25v3.209h3.25v3.209H29.89v3.209Zm26.936-1.6H46.951a.808.808,0,0,1-.812-.8V32.049a.808.808,0,0,1,.812-.8h3.337a1.653,1.653,0,0,1,1.211.532l5.82,6.388a.65.65,0,0,1,.114.713A.658.658,0,0,1,56.826,39.269Z" fill="#ff0c95"/>
</svg>
