<?xml version="1.0" encoding="UTF-8"?>
<svg width="60px" height="65px" viewBox="0 0 60 65" version="1.1" xmlns="http://www.w3.org/2000/svg" xmlns:xlink="http://www.w3.org/1999/xlink">
    <!-- Generator: Sketch 53.2 (72643) - https://sketchapp.com -->
    <title>1h</title>
    <desc>Created with Sketch.</desc>
    <g id="Main_nav" stroke="none" stroke-width="1" fill="none" fill-rule="evenodd">
        <g id="Tumacenje-Rezultata" transform="translate(-259.000000, -533.000000)">
            <g id="1h" transform="translate(259.000000, 533.000000)">
                <path d="M25.5805017,0.000685260842 C24.6318588,0.0511953188 23.8310731,0.721877796 23.6106445,1.65075712 C23.3874302,2.57683471 23.8003731,3.54213644 24.6207159,4.01921978 L25.6921445,4.67026145 C11.188573,6.78333619 3.44613227e-13,19.3441122 3.44613227e-13,34.5057502 C3.44613227e-13,51.1436814 13.4571444,64.6781629 30.0000017,64.6781629 C46.542859,64.6781629 60.000002,51.1436814 60.000002,34.5057502 C60.000002,27.1788824 57.4162877,20.4130777 53.0803591,15.1767271 C52.7287948,14.7052831 52.2014305,14.3966265 51.6210733,14.3264397 C51.0379233,14.2562817 50.4520019,14.4302687 50.0000019,14.8034943 C49.5479948,15.1795288 49.2690019,15.7238966 49.2271448,16.3104627 C49.1852876,16.8997659 49.3833948,17.4778478 49.776809,17.9156351 C53.4877377,22.3943708 55.7143091,28.200118 55.7143091,34.5061525 C55.7143091,48.8150607 44.2271661,60.3682218 30.0000231,60.3682218 C15.7728802,60.3682218 4.28573718,48.8150607 4.28573718,34.5061525 C4.28573718,22.2568708 12.715023,12.031296 24.0628802,9.34020403 C23.2398088,10.1231063 23.1644516,11.4167845 23.8898874,12.2895575 C24.6181017,13.1651322 25.8960302,13.3166408 26.8083874,12.6403334 L33.9512446,8.3299885 C34.5901946,7.93992384 34.980816,7.24119539 34.980816,6.48911205 C34.980816,5.73702871 34.5901875,5.0383218 33.9512446,4.64823559 L26.8083874,0.337890724 C26.4428731,0.102172331 26.0131731,-0.0128851416 25.5806731,0.00114503096 L25.5805017,0.000685260842 Z" id="Path" fill="#2288E5"></path>
                <text font-family="Roboto-Bold, Roboto" font-size="20" font-weight="bold" line-spacing="20" fill="#1D88E5">
                    <tspan x="19" y="44.2011494">1h</tspan>
                </text>
            </g>
        </g>
        <g id="Page"></g>
    </g>
</svg>