<svg xmlns="http://www.w3.org/2000/svg" xmlns:xlink="http://www.w3.org/1999/xlink" width="60" height="69.6" viewBox="0 0 60 69.6">
  <defs>
    <clipPath id="clip-path">
      <rect id="Rectangle_166" data-name="Rectangle 166" width="60" height="69.6" transform="translate(102 32)" fill="#fff"/>
    </clipPath>
  </defs>
  <g id="Group_111" data-name="Group 111" transform="translate(-102 -32)" clip-path="url(#clip-path)">
    <path id="Path_1054" data-name="Path 1054" d="M127.581,32a2.144,2.144,0,0,0-.96,4l1.071.647A29.9,29.9,0,1,0,155.08,47.09a2.143,2.143,0,1,0-3.3,2.723,25.744,25.744,0,1,1-25.714-8.527,2.143,2.143,0,0,0,2.745,3.281l7.143-4.286a2.141,2.141,0,0,0,0-3.661l-7.143-4.286A2.145,2.145,0,0,0,127.581,32Z" fill="#2288e5" fill-rule="evenodd"/>
    <path id="Path_1055" data-name="Path 1055" d="M128.984,74h-2.822V63.121l-3.369,1.045V61.871l5.889-2.109h.3Zm7.5-9.414a3.524,3.524,0,0,1,2.823-1.348q3.437,0,3.486,3.994V74h-2.822V67.311a1.945,1.945,0,0,0-.391-1.338,1.663,1.663,0,0,0-1.3-.439,1.921,1.921,0,0,0-1.8.957V74h-2.822V59h2.822Z" fill="#1d88e5"/>
  </g>
</svg>
