<svg xmlns="http://www.w3.org/2000/svg" xmlns:xlink="http://www.w3.org/1999/xlink" width="60" height="67" viewBox="0 0 60 67">
  <defs>
    <clipPath id="clip-path">
      <rect id="Rectangle_166" data-name="Rectangle 166" width="60" height="67" transform="translate(102 32)" fill="#fff"/>
    </clipPath>
  </defs>
  <g id="_1h" data-name="1h" transform="translate(-102 -32)" clip-path="url(#clip-path)">
    <path id="Path_1054" data-name="Path 1054" d="M127.581,32a2.119,2.119,0,0,0-1.97,1.579,2.03,2.03,0,0,0,1.01,2.267l1.071.623C113.189,38.493,102,50.515,102,65.027c0,15.925,13.457,28.879,30,28.879s30-12.954,30-28.879a28.2,28.2,0,0,0-6.92-18.5,2.165,2.165,0,0,0-1.459-.814,2.212,2.212,0,0,0-1.621.457,2.041,2.041,0,0,0-.773,1.442,2.018,2.018,0,0,0,.55,1.536,24.194,24.194,0,0,1,5.937,15.879c0,13.7-11.487,24.754-25.714,24.754s-25.714-11.058-25.714-24.754c0-11.724,8.429-21.512,19.777-24.087a2.01,2.01,0,0,0-.173,2.823,2.2,2.2,0,0,0,2.918.336l7.143-4.126a2.022,2.022,0,0,0,0-3.524l-7.143-4.126A2.208,2.208,0,0,0,127.581,32Z" transform="translate(0 0)" fill="#2288e5" fill-rule="evenodd"/>
    <path id="Path_1055" data-name="Path 1055" d="M128.984,73.44h-2.822V62.967l-3.369,1.006V61.764l5.889-2.031h.3Zm7.5-9.062a3.578,3.578,0,0,1,2.823-1.3q3.437,0,3.486,3.845V73.44h-2.822V67a1.825,1.825,0,0,0-.391-1.288,1.7,1.7,0,0,0-1.3-.423,1.94,1.94,0,0,0-1.8.921V73.44h-2.822V59h2.822Z" transform="translate(0 -1.009)" fill="#1d88e5"/>
  </g>
</svg>
