<svg xmlns="http://www.w3.org/2000/svg" xmlns:xlink="http://www.w3.org/1999/xlink" width="60" height="65" viewBox="0 0 60 65">
  <defs>
    <clipPath id="clip-path">
      <rect id="Rectangle_169" data-name="Rectangle 169" width="60" height="65" transform="translate(963 34)" fill="#fff"/>
    </clipPath>
  </defs>
  <g id="_4h" data-name="4h" transform="translate(-963 -34)" clip-path="url(#clip-path)">
    <path id="Path_1060" data-name="Path 1060" d="M988.581,34a2.144,2.144,0,0,0-.96,4l1.071.647A29.9,29.9,0,1,0,1016.08,49.09a2.142,2.142,0,1,0-3.3,2.723,25.746,25.746,0,1,1-25.717-8.527,2.143,2.143,0,0,0,2.745,3.281l7.143-4.286a2.141,2.141,0,0,0,0-3.661l-7.143-4.286A2.145,2.145,0,0,0,988.581,34Z" fill="#2288e5" fill-rule="evenodd"/>
    <path id="Path_1061" data-name="Path 1061" d="M987.133,74h-9.746V72.066l4.6-4.9a11.1,11.1,0,0,0,1.4-1.807,2.88,2.88,0,0,0,.459-1.465,2.153,2.153,0,0,0-.479-1.484A1.718,1.718,0,0,0,982,61.861a1.873,1.873,0,0,0-1.514.664,2.61,2.61,0,0,0-.546,1.729H977.1a4.691,4.691,0,0,1,.615-2.373,4.362,4.362,0,0,1,1.758-1.68,5.292,5.292,0,0,1,2.568-.615,5.024,5.024,0,0,1,3.408,1.055,3.724,3.724,0,0,1,1.221,2.979,4.776,4.776,0,0,1-.547,2.149,11.968,11.968,0,0,1-1.875,2.549l-3.232,3.408h6.113Zm10.088-5.352h1.611v2.275h-1.611V74H994.4V70.924h-5.83l-.127-1.777,5.928-9.365h2.852Zm-5.967,0H994.4v-5.02l-.185.322Zm11.976-4.062a3.524,3.524,0,0,1,2.82-1.348q3.435,0,3.49,3.994V74h-2.83V67.311a1.945,1.945,0,0,0-.39-1.338,1.659,1.659,0,0,0-1.3-.439,1.916,1.916,0,0,0-1.79.957V74h-2.83V59h2.83Z" fill="#1d88e5"/>
  </g>
</svg>
