<?xml version="1.0" encoding="utf-8"?>
<!-- Generator: Adobe Illustrator 27.3.1, SVG Export Plug-In . SVG Version: 6.00 Build 0)  -->
<svg version="1.1" id="Layer_1" xmlns="http://www.w3.org/2000/svg" xmlns:xlink="http://www.w3.org/1999/xlink" x="0px" y="0px"
	 viewBox="0 0 60 65" style="enable-background:new 0 0 60 65;" xml:space="preserve">
<style type="text/css">
	.st0{fill-rule:evenodd;clip-rule:evenodd;fill:#2288E5;}
	.st1{enable-background:new    ;}
	.st2{fill:#1D88E5;}
</style>
<g id="Main_nav">
	<g id="Tumacenje-Rezultata" transform="translate(-832.000000, -535.000000)">
		<g id="_x31_2h" transform="translate(832.000000, 535.000000)">
			<path id="Path-Copy-5" class="st0" d="M25.6,0c-0.9,0.1-1.7,0.7-2,1.6c-0.2,0.9,0.2,1.9,1,2.4l1.1,0.6C11.2,6.7,0,19.2,0,34.3
				c0,16.5,13.5,30,30,30s30-13.5,30-30c0-7.3-2.6-14-6.9-19.2c-0.4-0.5-0.9-0.8-1.5-0.8c-0.6-0.1-1.2,0.1-1.6,0.5
				c-0.5,0.4-0.7,0.9-0.8,1.5c0,0.6,0.2,1.2,0.5,1.6c3.7,4.5,5.9,10.2,5.9,16.5C55.7,48.5,44.2,60,30,60S4.3,48.5,4.3,34.3
				c0-12.2,8.4-22.3,19.8-25c-0.8,0.8-0.9,2.1-0.2,2.9c0.7,0.9,2,1,2.9,0.3L34,8.3c0.6-0.4,1-1.1,1-1.8S34.6,5,34,4.6l-7.1-4.3
				C26.4,0.1,26,0,25.6,0L25.6,0z"/>
			<g class="st1">
				<path class="st2" d="M28.6,42h-9.7v-1.9l4.6-4.9c0.6-0.7,1.1-1.3,1.4-1.8s0.5-1,0.5-1.5c0-0.6-0.2-1.1-0.5-1.5s-0.8-0.5-1.4-0.5
					c-0.6,0-1.1,0.2-1.5,0.7s-0.6,1-0.6,1.7h-2.8c0-0.9,0.2-1.7,0.6-2.4s1-1.3,1.8-1.7s1.6-0.6,2.6-0.6c1.5,0,2.6,0.4,3.4,1.1
					s1.2,1.7,1.2,3c0,0.7-0.2,1.4-0.5,2.1s-1,1.6-1.9,2.5l-3.2,3.4h6.1V42z"/>
				<path class="st2" d="M33.2,32.6c0.7-0.9,1.7-1.3,2.8-1.3c2.3,0,3.5,1.3,3.5,4V42h-2.8v-6.7c0-0.6-0.1-1.1-0.4-1.3
					s-0.7-0.4-1.3-0.4c-0.8,0-1.4,0.3-1.8,1V42h-2.8V27h2.8V32.6z"/>
			</g>
		</g>
	</g>
	<g id="Page">
	</g>
</g>
</svg>
