<?xml version="1.0" encoding="utf-8"?>
<!-- Generator: Adobe Illustrator 23.0.1, SVG Export Plug-In . SVG Version: 6.00 Build 0)  -->
<svg version="1.1" id="Layer_1" xmlns="http://www.w3.org/2000/svg" xmlns:xlink="http://www.w3.org/1999/xlink" x="0px" y="0px"
	 viewBox="0 0 60 65" style="enable-background:new 0 0 60 65;" xml:space="preserve">
<style type="text/css">
	.st0{fill:#2288E5;}
</style>
<g>
	<path class="st0" d="M59.7,29.8c-0.8-5.4-3.1-10.5-6.6-14.7c-0.7-1-2-1.2-3-0.5c-1,0.7-1.2,2-0.5,3c0.1,0.1,0.1,0.1,0.2,0.2
		c9.1,10.9,7.7,27.1-3.2,36.3c-10.9,9.2-27.1,7.7-36.3-3.2C1.2,40,2.6,23.8,13.5,14.6c3.1-2.6,6.7-4.4,10.5-5.3
		c-0.9,0.8-0.9,2.2-0.1,3c0.7,0.8,2,0.9,2.8,0.3L34,8.3c1-0.6,1.3-1.9,0.7-2.9C34.5,5,34.2,4.8,34,4.6l-7.1-4.3
		C26.4,0.1,26,0,25.6,0c-1.2,0.1-2.1,1.1-2,2.2c0,0.8,0.4,1.4,1,1.8l1.1,0.6C9.4,7.1-1.9,22.3,0.5,38.6C3,55,18.2,66.2,34.5,63.8
		C50.8,61.4,62.1,46.1,59.7,29.8z"/>
	<path class="st0" d="M38.4,33.3c0.4-0.6,1.1-1,1.8-1c0.5,0,1,0.1,1.3,0.4c0.3,0.4,0.4,0.9,0.4,1.3v6.8h2.8V34c0-2.7-1.2-4-3.5-4
		c-1.1,0-2.1,0.5-2.8,1.3v-5.5h-2.8v15h2.8V33.3z"/>
	<path class="st0" d="M21.5,41v-3.3h1.9v-2h-1.9V26H19l-6.4,10.1l0.1,1.5h6.4V41H21.5z M15.1,35.6l3.7-5.9l0.2-0.3v6.2H15.1z"/>
	<path class="st0" d="M24.6,34.7c-0.4,0.6-0.6,1.4-0.6,2.2c0,1.3,0.4,2.3,1.3,3.1c0.9,0.8,2.1,1.2,3.6,1.2c1.5,0,2.7-0.4,3.5-1.2
		c0.9-0.8,1.3-1.8,1.3-3.1c0-0.8-0.2-1.5-0.6-2.1c-0.4-0.6-1-1.1-1.8-1.5c0.6-0.3,1.2-0.8,1.5-1.3c0.4-0.6,0.6-1.2,0.6-2
		c0-1.3-0.4-2.3-1.2-3s-1.9-1.1-3.3-1.1c-1.4,0-2.5,0.4-3.3,1.1s-1.2,1.8-1.2,3c0,0.7,0.2,1.4,0.6,2c0.4,0.6,0.9,1,1.5,1.3
		C25.6,33.6,25,34.1,24.6,34.7z M27.3,28.4c0.4-0.4,0.9-0.6,1.5-0.6s1.1,0.2,1.5,0.6c0.4,0.4,0.6,1,0.6,1.6c0,0.7-0.2,1.2-0.6,1.6
		c-0.4,0.4-0.9,0.6-1.5,0.6s-1.1-0.2-1.5-0.6s-0.6-0.9-0.6-1.6C26.8,29.4,27,28.8,27.3,28.4z M27.1,35c0.4-0.5,1-0.7,1.7-0.7
		s1.3,0.2,1.7,0.7c0.4,0.5,0.7,1.1,0.7,1.8c0,0.8-0.2,1.3-0.6,1.8c-0.4,0.4-1,0.6-1.8,0.6s-1.3-0.2-1.8-0.7c-0.4-0.4-0.6-1-0.6-1.8
		C26.4,36,26.7,35.4,27.1,35z"/>
</g>
</svg>
