<svg xmlns="http://www.w3.org/2000/svg" xmlns:xlink="http://www.w3.org/1999/xlink" width="60" height="65" viewBox="0 0 60 65">
  <defs>
    <clipPath id="clip-path">
      <rect id="Rectangle_167" data-name="Rectangle 167" width="60" height="65" transform="translate(389 34)" fill="#fff"/>
    </clipPath>
  </defs>
  <g id="Group_112" data-name="Group 112" transform="translate(-389 -34)" clip-path="url(#clip-path)">
    <path id="Path_1056" data-name="Path 1056" d="M414.581,34a2.144,2.144,0,0,0-.96,4l1.071.647A29.9,29.9,0,1,0,442.08,49.09a2.143,2.143,0,1,0-3.3,2.723,25.744,25.744,0,1,1-25.714-8.527,2.143,2.143,0,0,0,2.745,3.281l7.143-4.286a2.141,2.141,0,0,0,0-3.661l-7.143-4.286A2.145,2.145,0,0,0,414.581,34Z" fill="#2288e5" fill-rule="evenodd"/>
    <path id="Path_1057" data-name="Path 1057" d="M417.479,68.648h1.611v2.275h-1.611V74h-2.823V70.924h-5.83l-.127-1.777,5.928-9.365h2.852Zm-5.967,0h3.144v-5.02l-.185.322Zm11.972-4.062a3.524,3.524,0,0,1,2.823-1.348q3.436,0,3.486,3.994V74h-2.822V67.311a1.945,1.945,0,0,0-.391-1.338,1.662,1.662,0,0,0-1.3-.439,1.921,1.921,0,0,0-1.8.957V74h-2.822V59h2.822Z" fill="#1d88e5"/>
  </g>
</svg>
