<?xml version="1.0" encoding="UTF-8"?>
<svg width="60px" height="65px" viewBox="0 0 60 65" version="1.1" xmlns="http://www.w3.org/2000/svg" xmlns:xlink="http://www.w3.org/1999/xlink">
    <!-- Generator: Sketch 53.2 (72643) - https://sketchapp.com -->
    <title>4h</title>
    <desc>Created with Sketch.</desc>
    <g id="Main_nav" stroke="none" stroke-width="1" fill="none" fill-rule="evenodd">
        <g id="Tumacenje-Rezultata" transform="translate(-546.000000, -535.000000)">
            <g id="4h" transform="translate(546.000000, 535.000000)">
                <path d="M25.5805017,0.000681345065 C24.6318588,0.0509027741 23.8310731,0.71775278 23.6106445,1.64132422 C23.3874302,2.56210994 23.8003731,3.52189566 24.6207159,3.99625281 L25.6921445,4.64357425 C11.188573,6.74457427 3.44613227e-13,19.2335744 3.44613227e-13,34.3085745 C3.44613227e-13,50.8514318 13.4571444,64.3085734 30.0000017,64.3085734 C46.542859,64.3085734 60.000002,50.8514318 60.000002,34.3085745 C60.000002,27.0235745 57.4162877,20.2964315 53.0803591,15.0900029 C52.7287948,14.6212529 52.2014305,14.3143601 51.6210733,14.2445743 C51.0379233,14.1748172 50.4520019,14.3478101 50.0000019,14.7189029 C49.5479948,15.0927886 49.2690019,15.6340458 49.2271448,16.2172601 C49.1852876,16.8031958 49.3833948,17.3779744 49.776809,17.8132601 C53.4877377,22.266403 55.7143091,28.0389745 55.7143091,34.3089745 C55.7143091,48.5361175 44.2271661,60.0232605 30.0000231,60.0232605 C15.7728802,60.0232605 4.28573718,48.5361175 4.28573718,34.3089745 C4.28573718,22.1296887 12.715023,11.9625457 24.0628802,9.28683143 C23.2398088,10.06526 23.1644516,11.3515457 23.8898874,12.2193315 C24.6181017,13.0899029 25.8960302,13.2405458 26.8083874,12.5681029 L33.9512446,8.28238857 C34.5901946,7.89455285 34.980816,7.19981713 34.980816,6.45203141 C34.980816,5.70424569 34.5901875,5.00953139 33.9512446,4.62167425 L26.8083874,0.33595992 C26.4428731,0.101588489 26.0131731,-0.0128115122 25.5806731,0.00113848793 L25.5805017,0.000681345065 Z" id="Path-Copy-4" fill="#2288E5"></path>
                <text font-family="Roboto-Bold, Roboto" font-size="20" font-weight="bold" line-spacing="20" fill="#1D88E5">
                    <tspan x="19" y="42">4h</tspan>
                </text>
            </g>
        </g>
        <g id="Page"></g>
    </g>
</svg>
