<?xml version="1.0" encoding="utf-8"?>
<!-- Generator: Adobe Illustrator 23.0.1, SVG Export Plug-In . SVG Version: 6.00 Build 0)  -->
<svg version="1.1" id="Layer_1" xmlns="http://www.w3.org/2000/svg" xmlns:xlink="http://www.w3.org/1999/xlink" x="0px" y="0px"
	 viewBox="0 0 60 65" style="enable-background:new 0 0 60 65;" xml:space="preserve">
<style type="text/css">
	.st0{fill:none;}
	.st1{fill:#2288E5;}
</style>
<rect class="st0" width="60" height="65"/>
<g>
	<path class="st1" d="M59.7,29.8c-0.8-5.4-3.1-10.5-6.6-14.7c-0.7-1-2-1.2-3-0.5c-1,0.7-1.2,2-0.5,3c0.1,0.1,0.1,0.1,0.2,0.2
		c9.1,10.9,7.7,27.1-3.2,36.3s-27.1,7.7-36.3-3.2c-9.1-10.9-7.7-27.1,3.2-36.3c3.1-2.6,6.7-4.4,10.5-5.3c-0.9,0.8-0.9,2.2-0.1,3
		c0.7,0.8,2,0.9,2.8,0.3L34,8.3c1-0.6,1.3-1.9,0.7-2.9C34.5,5,34.2,4.8,34,4.6l-7.1-4.3C26.4,0.1,26,0,25.6,0
		c-1.2,0.1-2.1,1.1-2,2.2C23.6,3,24,3.6,24.6,4l1.1,0.6C9.4,7.1-1.9,22.3,0.5,38.6C3,55,18.2,66.2,34.5,63.8
		C50.8,61.4,62.1,46.1,59.7,29.8z"/>
	<path class="st1" d="M34.5,25h-2.8v15h2.8v-7.5c0.4-0.6,1.1-1,1.8-1c0.5,0,1,0.1,1.3,0.4c0.3,0.4,0.4,0.9,0.4,1.3V40h2.8v-6.8
		c0-2.7-1.2-4-3.5-4c-1.1,0-2.1,0.5-2.8,1.3L34.5,25z"/>
	<path class="st1" d="M27.3,27.6h0.3v-2.4h-0.5c-1.5,0-2.8,0.3-3.9,1c-1.1,0.7-2,1.6-2.6,2.8c-0.6,1.2-0.9,2.6-0.9,4.2v1
		c0,1.8,0.5,3.2,1.4,4.3c1,1.1,2.2,1.6,3.7,1.6c1,0,1.8-0.2,2.6-0.6c0.8-0.4,1.3-1,1.8-1.8c0.4-0.8,0.6-1.6,0.6-2.6
		c0-1.5-0.4-2.7-1.1-3.6c-0.8-0.9-1.8-1.4-3-1.4c-1.2,0-2.2,0.4-3,1.2c0.2-1.2,0.6-2.1,1.4-2.8S26,27.6,27.3,27.6z M23.5,32.9
		c0.4-0.2,0.8-0.4,1.3-0.4c0.7,0,1.2,0.2,1.6,0.7c0.4,0.5,0.6,1.1,0.6,1.9c0,0.8-0.2,1.4-0.6,1.9c-0.4,0.5-0.9,0.7-1.5,0.7
		c-0.7,0-1.2-0.3-1.6-0.8c-0.4-0.5-0.6-1.3-0.6-2.3v-0.9C22.8,33.5,23.1,33.1,23.5,32.9z"/>
</g>
</svg>
