<svg width="158" height="161" viewBox="0 0 158 161" fill="none" xmlns="http://www.w3.org/2000/svg">
<path d="M89.0001 77.8999L62.5001 110.7L20.8001 104.1L5.6001 64.7002L32.1001 31.8999L73.8001 38.5L89.0001 77.8999ZM8.30008 65.2002L22.5001 102.1L61.5001 108.3L86.4001 77.6001L72.2001 40.7002L33.2001 34.5L8.30008 65.2002Z" fill="#A9E4EF"/>
<path d="M144.3 122.1L117.8 154.9L76.0999 148.3L60.8999 108.9L87.3999 76.1001L129.1 82.7002L144.3 122.1ZM63.4999 109.3L77.6999 146.2L116.7 152.4L141.6 121.7L127.4 84.7998L88.3999 78.6001L63.4999 109.3Z" fill="#A9E4EF"/>
<path d="M155.3 52.1001L128.8 84.8999L87.0999 78.2998L71.8999 38.8999L98.3999 6.1001L140.1 12.7002L155.3 52.1001ZM74.5999 39.3999L88.7999 76.2998L127.8 82.5L152.7 51.7998L138.5 14.8999L99.4999 8.7002L74.5999 39.3999Z" fill="#A9E4EF"/>
<path opacity="0.7" d="M69.0001 111.4C69.5001 108 67.2 104.8 63.8 104.3C60.4 103.8 57.2001 106.1 56.7001 109.5C56.2001 112.9 58.5 116.1 61.9 116.6C65.3 117.1 68.4001 114.8 69.0001 111.4Z" fill="#A9E4EF"/>
<path d="M82.0999 146.7C82.5999 143.3 80.2999 140.1 76.8999 139.6C73.4999 139.1 70.2999 141.4 69.7999 144.8C69.2999 148.2 71.5999 151.4 74.9999 151.9C78.3999 152.4 81.5999 150.1 82.0999 146.7Z" fill="#A9E4EF"/>
<path d="M93.2 76.7997C93.7 73.3997 91.4 70.2001 88 69.7001C84.6 69.2001 81.4 71.4998 80.9 74.8998C80.4 78.2998 82.7 81.4999 86.1 81.9999C89.4 82.4999 92.6 80.1997 93.2 76.7997Z" fill="#A9E4EF"/>
<path d="M79.8001 40.2001C80.3001 36.8001 78.0001 33.6 74.6001 33.1C71.2001 32.6 68.0001 34.8997 67.5001 38.2997C67.0001 41.6997 69.3001 44.8998 72.7001 45.3998C76.1001 45.8998 79.3001 43.6001 79.8001 40.2001Z" fill="#A9E4EF"/>
<path d="M28.0001 103.7C28.5001 100.3 26.2 97.1 22.8 96.6C19.4 96.1 16.2001 98.3997 15.7001 101.8C15.2001 105.2 17.5 108.4 20.9 108.9C24.3 109.4 27.5001 107.1 28.0001 103.7Z" fill="#A9E4EF"/>
<path d="M12.7 65.8998C13.2 62.4998 10.9 59.2997 7.50002 58.7997C4.10002 58.2997 0.900013 60.5999 0.400013 63.9999C-0.0999868 67.3999 2.20003 70.6 5.60003 71.1C9.00002 71.6 12.2 69.2998 12.7 65.8998Z" fill="#A9E4EF"/>
<path opacity="0.7" d="M37.9 32.6C38.4 29.2 36.1 25.9999 32.7 25.4999C29.3 24.9999 26.1 27.3001 25.6 30.7001C25.1 34.1001 27.3999 37.2997 30.7999 37.7997C34.1999 38.2997 37.4 36 37.9 32.6Z" fill="#A9E4EF"/>
<path d="M146.1 14.3998C146.6 10.9998 144.3 7.79967 140.9 7.29967C137.5 6.79967 134.3 9.09986 133.8 12.4999C133.3 15.8999 135.6 19.1 139 19.6C142.4 20.2 145.5 17.7998 146.1 14.3998Z" fill="#A9E4EF"/>
<path opacity="0.7" d="M157.4 52.4999C157.9 49.0999 155.6 45.8998 152.2 45.3998C148.8 44.8998 145.6 47.2 145.1 50.6C144.6 54 146.9 57.2001 150.3 57.7001C153.7 58.2001 156.9 55.8999 157.4 52.4999Z" fill="#A9E4EF"/>
<path opacity="0.7" d="M146.4 122.4C146.9 119 144.6 115.8 141.2 115.3C137.8 114.8 134.6 117.1 134.1 120.5C133.6 123.9 135.9 127.1 139.3 127.6C142.7 128.1 145.9 125.8 146.4 122.4Z" fill="#A9E4EF"/>
<path d="M123.9 155.1C124.4 151.7 122.1 148.5 118.7 148C115.3 147.5 112.1 149.8 111.6 153.2C111.1 156.6 113.4 159.8 116.8 160.3C120.2 160.8 123.4 158.5 123.9 155.1Z" fill="#A9E4EF"/>
<path d="M105.4 7.99986C105.9 4.59986 103.6 1.39976 100.2 0.899765C96.8 0.399765 93.6 2.69996 93.1 6.09996C92.6 9.49996 94.8999 12.7001 98.2999 13.2001C101.6 13.7001 104.8 11.3999 105.4 7.99986Z" fill="#A9E4EF"/>
<path d="M135.1 84.3998C135.6 80.9998 133.3 77.7997 129.9 77.2997C126.5 76.7997 123.3 79.0999 122.8 82.4999C122.3 85.8999 124.6 89.1 128 89.6C131.3 90.1 134.5 87.7998 135.1 84.3998Z" fill="#A9E4EF"/>
</svg>
