<svg xmlns="http://www.w3.org/2000/svg" width="16.24" height="17.052" viewBox="0 0 16.24 17.052">
  <g id="Group_54" data-name="Group 54" transform="translate(0 0)">
    <path id="Path_86" data-name="Path 86" d="M21.875,960.358a4.364,4.364,0,0,0-4.352,4.047l-2.531-.787a.406.406,0,0,0-.159-.013c-.028,0-4.548,1.4-4.548,1.4A.418.418,0,0,0,10,965.4V977a.426.426,0,0,0,.527.387l4.345-1.345,4.345,1.345a.409.409,0,0,0,.241,0l4.466-1.383a.417.417,0,0,0,.285-.387v-6.737c.177-.212.354-.428.52-.647a6.2,6.2,0,0,0,1.51-3.515s0-.008,0-.013a4.362,4.362,0,0,0-4.364-4.352Zm0,.812a3.539,3.539,0,0,1,3.552,3.534s0,0,0,.006a5.561,5.561,0,0,1-1.345,3.032c-.679.895-1.494,1.757-2.208,2.563-.714-.807-1.529-1.661-2.208-2.557a5.587,5.587,0,0,1-1.345-3.039s0,0,0-.006A3.538,3.538,0,0,1,21.875,961.17Zm0,1.421a2.132,2.132,0,1,0,2.131,2.132A2.138,2.138,0,0,0,21.875,962.591Zm0,.812a1.32,1.32,0,1,1-1.319,1.32A1.313,1.313,0,0,1,21.875,963.4Zm-7.409,1.161v10.753l-3.654,1.129V965.693Zm.812,0,2.284.7a6.741,6.741,0,0,0,1.37,2.842s0,.005,0,.006v8.33l-3.654-1.129Zm4.466,4.561c.632.739,1.289,1.429,1.821,2.049a.424.424,0,0,0,.615,0c.363-.424.784-.876,1.218-1.358v5.5l-3.654,1.129Z" transform="translate(-10 -960.358)" fill="#202020"/>
  </g>
</svg>
