<svg id="icon_adresa" xmlns="http://www.w3.org/2000/svg" width="14.436" height="17.372" viewBox="0 0 14.436 17.372">
  <g id="Group_175" data-name="Group 175" transform="translate(0 0)">
    <g id="Group_174" data-name="Group 174">
      <path id="Path_1226" data-name="Path 1226" d="M149.209,66.884a6.119,6.119,0,0,1-.056.818c.008-.06.015-.119.025-.179a7.549,7.549,0,0,1-.545,1.936c.023-.054.046-.108.067-.161a11.944,11.944,0,0,1-1.557,2.594c.035-.046.069-.09.106-.136a18.35,18.35,0,0,1-1.54,1.736q-.7.694-1.454,1.325-.325.274-.662.532c.046-.035.09-.069.136-.106-.227.175-.457.348-.693.511l-.04.029h.678c-.157-.106-.309-.217-.461-.33l-.275-.207c.046.035.09.069.136.106q-.654-.5-1.267-1.056a20.71,20.71,0,0,1-1.53-1.515q-.449-.5-.858-1.022c.035.046.069.09.106.136a11.779,11.779,0,0,1-1.557-2.594c.023.054.046.108.067.161a7.706,7.706,0,0,1-.545-1.936c.008.06.015.119.025.179a6.441,6.441,0,0,1,0-1.7c-.008.06-.015.119-.025.179a6.614,6.614,0,0,1,.455-1.669c-.023.054-.046.108-.067.161a6.621,6.621,0,0,1,.854-1.459c-.035.046-.069.09-.106.136a6.7,6.7,0,0,1,1.171-1.171c-.046.035-.09.069-.136.106a6.621,6.621,0,0,1,1.459-.854c-.054.023-.108.046-.161.067a6.535,6.535,0,0,1,1.669-.455c-.06.008-.119.015-.179.025a6.741,6.741,0,0,1,1.759,0c-.06-.008-.119-.015-.179-.025a6.615,6.615,0,0,1,1.669.455c-.054-.023-.108-.046-.161-.067a6.621,6.621,0,0,1,1.459.854c-.046-.035-.09-.069-.136-.106a6.7,6.7,0,0,1,1.171,1.171c-.035-.046-.069-.09-.106-.136a6.621,6.621,0,0,1,.854,1.459c-.023-.054-.046-.108-.067-.161a6.534,6.534,0,0,1,.455,1.669c-.008-.06-.015-.119-.025-.179a6.376,6.376,0,0,1,.063.878.672.672,0,1,0,1.344,0,7.219,7.219,0,0,0-11.51-5.8,7.776,7.776,0,0,0-.791.672,7.354,7.354,0,0,0-.68.785,7.168,7.168,0,0,0-1.35,5.565,9.273,9.273,0,0,0,1.294,3.255,16.323,16.323,0,0,0,2.133,2.723,22.051,22.051,0,0,0,2.007,1.851c.415.338.839.67,1.279.974l.056.038a.66.66,0,0,0,.678,0c.227-.152.445-.317.661-.482.586-.449,1.154-.918,1.7-1.417a19.429,19.429,0,0,0,1.907-2.009,13.439,13.439,0,0,0,1.728-2.627,8.435,8.435,0,0,0,.876-3.147c.008-.125.012-.25.012-.376a.67.67,0,1,0-1.34,0Z" transform="translate(-136.118 -59.663)" fill="#1d88e5"/>
    </g>
  </g>
  <g id="Group_177" data-name="Group 177" transform="translate(4.878 4.884)">
    <g id="Group_176" data-name="Group 176">
      <path id="Path_1227" data-name="Path 1227" d="M393.5,316.336a1.982,1.982,0,0,1-.013.213c.008-.06.015-.119.025-.179a1.78,1.78,0,0,1-.111.422c.023-.054.046-.108.067-.161a1.737,1.737,0,0,1-.213.371c.035-.046.069-.09.106-.136a1.768,1.768,0,0,1-.317.317c.046-.035.09-.069.136-.106a1.734,1.734,0,0,1-.371.213c.054-.023.108-.046.161-.067a1.7,1.7,0,0,1-.422.111c.06-.008.119-.015.179-.025a1.744,1.744,0,0,1-.424,0c.06.008.119.015.179.025a1.781,1.781,0,0,1-.422-.111c.054.023.108.046.161.067a1.734,1.734,0,0,1-.371-.213c.046.035.09.069.136.106a1.77,1.77,0,0,1-.317-.317c.035.046.069.09.106.136a1.734,1.734,0,0,1-.213-.371c.023.054.046.108.067.161a1.693,1.693,0,0,1-.111-.422c.008.06.015.119.025.179a1.744,1.744,0,0,1,0-.424c-.008.06-.015.119-.025.179a1.78,1.78,0,0,1,.111-.422c-.023.054-.046.108-.067.161a1.735,1.735,0,0,1,.213-.371c-.035.046-.069.09-.106.136a1.768,1.768,0,0,1,.317-.317c-.046.035-.09.069-.136.106a1.736,1.736,0,0,1,.371-.213c-.054.023-.108.046-.161.067a1.693,1.693,0,0,1,.422-.111c-.06.008-.119.015-.179.025a1.744,1.744,0,0,1,.424,0c-.06-.008-.119-.015-.179-.025a1.778,1.778,0,0,1,.422.111c-.054-.023-.107-.046-.161-.067a1.737,1.737,0,0,1,.371.213c-.046-.035-.09-.069-.136-.106a1.766,1.766,0,0,1,.317.317c-.035-.046-.069-.09-.106-.136a1.738,1.738,0,0,1,.213.371c-.023-.054-.046-.108-.067-.161a1.693,1.693,0,0,1,.111.422c-.008-.06-.015-.119-.025-.179a1.916,1.916,0,0,1,.013.211.672.672,0,0,0,1.344,0,2.316,2.316,0,0,0-.409-1.315,2.455,2.455,0,0,0-1.171-.893,2.326,2.326,0,0,0-2.523.687,2.626,2.626,0,0,0-.417.707,2.325,2.325,0,0,0,1.164,2.911,2.641,2.641,0,0,0,.808.225,2.324,2.324,0,0,0,2.546-2.322.671.671,0,1,0-1.342,0Z" transform="translate(-390.178 -313.999)" fill="#1d88e5"/>
    </g>
  </g>
</svg>
