<svg xmlns="http://www.w3.org/2000/svg" width="10.549" height="28" viewBox="0 0 10.549 28">
  <g id="icon_alkohol" transform="translate(-462.506 -413)">
    <path id="Path_1080" data-name="Path 1080" d="M32.78,33.027V19.736c0-2.391-2.583-4.74-3.333-5.37V11.514A.536.536,0,0,0,28.892,11H26.669a.536.536,0,0,0-.556.514v2.852c-.749.631-3.333,2.979-3.333,5.37V33.027c-.245.831-.443,1.888-.058,2.356a.776.776,0,0,0,.614.283h8.889a.787.787,0,0,0,.614-.283C33.223,34.916,33.025,33.859,32.78,33.027Zm-9.167,1.612a5.791,5.791,0,0,1,.258-1.4.485.485,0,0,0,.02-.138V19.736c0-2.26,3.106-4.722,3.137-4.747a.5.5,0,0,0,.2-.392V12.028h1.111V14.6a.5.5,0,0,0,.2.392c.031.025,3.137,2.487,3.137,4.747V33.1a.485.485,0,0,0,.021.138,5.785,5.785,0,0,1,.257,1.4Z" transform="translate(440 405.333)" fill="#1d88e5"/>
    <path id="Path_1081" data-name="Path 1081" d="M29.556,7.222h2.222a.555.555,0,0,0,.556-.556V5.556A.555.555,0,0,0,31.778,5H29.556A.556.556,0,0,0,29,5.556V6.667A.556.556,0,0,0,29.556,7.222Z" transform="translate(437.114 408)" fill="#1d88e5"/>
    <path id="Path_1082" data-name="Path 1082" d="M32,31H27.556a.556.556,0,0,0-.556.556v8.889a.555.555,0,0,0,.556.556H32a.555.555,0,0,0,.556-.556V31.556A.555.555,0,0,0,32,31Zm-.556,8.889H28.111V32.111h3.333Z" transform="translate(438.003 395)" fill="#1d88e5"/>
    <path id="Path_1083" data-name="Path 1083" d="M.556,0A.556.556,0,1,1,0,.556.556.556,0,0,1,.556,0Z" transform="translate(466.669 432.132)" fill="#1d88e5"/>
    <path id="Path_1084" data-name="Path 1084" d="M.556,0A.556.556,0,1,1,0,.556.556.556,0,0,1,.556,0Z" transform="translate(467.78 430.064)" fill="#1d88e5"/>
    <path id="Path_1085" data-name="Path 1085" d="M.556,0A.556.556,0,1,1,0,.556.556.556,0,0,1,.556,0Z" transform="translate(466.669 427.996)" fill="#1d88e5"/>
  </g>
</svg>
