<?xml version="1.0" encoding="UTF-8"?>
<svg width="38px" height="40px" viewBox="0 0 38 40" version="1.1" xmlns="http://www.w3.org/2000/svg" xmlns:xlink="http://www.w3.org/1999/xlink">
    <!-- Generator: sketchtool 52.6 (67491) - http://www.bohemiancoding.com/sketch -->
    <title>5EBCDF6E-0DB9-4F9D-B462-93AB9E70ED48</title>
    <desc>Created with sketchtool.</desc>
    <g id="Main_nav" stroke="none" stroke-width="1" fill="none" fill-rule="evenodd">
        <g id="Grupe-Analiza" transform="translate(-188.000000, -1112.000000)" fill="#FFDB3C">
            <g id="alergije" transform="translate(188.000000, 1112.000000)">
                <path d="M19.0697674,28.5572093 C17.2274884,28.5899116 15.4396744,27.9394884 14.0516279,26.7294419 C13.6900744,26.378786 13.6755395,25.8028372 14.017107,25.434 C14.3586791,25.0633581 14.9328279,25.0324744 15.3125488,25.3631442 C16.3572465,26.2552372 17.6962698,26.7312372 19.0698047,26.6967256 C20.4433395,26.7312465 21.7823628,26.2552279 22.8270605,25.3631442 C23.0069302,25.186907 23.2503907,25.0924326 23.5029209,25.0996977 C23.7536465,25.1051488 23.9916651,25.2141581 24.1606419,25.3976605 C24.3314279,25.5829814 24.4204512,25.8282558 24.4059163,26.0789628 C24.3913814,26.3296884 24.2769209,26.5640791 24.0879674,26.7293814 C22.6998744,27.9394279 20.912107,28.5898465 19.0698279,28.5571488 L19.0697674,28.5572093 Z" id="Fill-1"></path>
                <path d="M21.3953488,19.0697674 C21.269986,19.0697674 21.1464372,19.0443302 21.0319767,18.9952744 C20.4033256,18.7627163 19.7402093,18.6300837 19.0697442,18.6046512 C18.4047674,18.6173674 17.7470465,18.7463674 17.1256977,18.9861907 C16.6569535,19.1969488 16.1064419,18.9880093 15.8956977,18.5192605 C15.6849442,18.0505163 15.8938791,17.4981907 16.3626279,17.2892605 C17.2238372,16.9404233 18.1413256,16.7569349 19.0697442,16.7441907 C19.989093,16.7696279 20.8993256,16.9531302 21.7586744,17.2838186 C22.1638326,17.4564186 22.3927674,17.8924698 22.3055581,18.3248884 C22.2165302,18.7573023 21.836814,19.0698186 21.3953256,19.0698186 L21.3953488,19.0697674 Z" id="Fill-2"></path>
                <path d="M9.47488372,28.3302326 C9.26776279,28.3302326 9.06608837,28.2611907 8.90255814,28.1340093 C7.30553488,26.896707 6.59697674,24.8254977 7.10386047,22.868893 C7.60893023,20.9121488 9.23139535,19.4441023 11.2281395,19.1352651 L13.7390233,5.0092186 C13.9297953,2.20033488 16.2553953,0.0166604651 19.0697209,-8.37209302e-05 C19.583907,-8.37209302e-05 19.9999535,0.415976744 19.9999535,0.930148837 C19.9999535,1.44432093 19.583893,1.8603814 19.0697209,1.8603814 C17.2146977,1.86946512 15.6867442,3.31931163 15.5813488,5.17252093 C15.5831674,5.20704186 15.5831674,5.24337674 15.5813488,5.27971628 L12.934186,20.1634372 C12.8542419,20.6122 12.461814,20.9374372 12.0039535,20.9301349 C10.6322326,20.9265023 9.41130233,21.796786 8.968,23.0939953 C8.52286977,24.3912512 8.95528372,25.8283674 10.0417674,26.6641349 C10.3560837,26.9094093 10.4814465,27.3254837 10.3506326,27.7015767 C10.2216372,28.0776651 9.86733023,28.3302279 9.46946977,28.3302279 L9.47488372,28.3302326 Z" id="Fill-3"></path>
                <path d="M28.5572093,28.3302326 C28.1593163,28.3302326 27.8050233,28.0776884 27.6760465,27.7015814 C27.5470698,27.3254744 27.672414,26.9094419 27.9867302,26.6641395 C29.0695674,25.830186 29.501986,24.4003256 29.0641256,23.1049302 C28.6262605,21.8094884 27.4144047,20.9355814 26.0463116,20.9301395 C25.5902791,20.9374093 25.1960326,20.6121907 25.1160791,20.1634419 L22.4689163,5.27972093 C22.4671023,5.24338605 22.4671023,5.20704651 22.4689163,5.17252558 C22.4144093,3.33206047 20.9100326,1.86764186 19.0695674,1.86038605 C18.5553814,1.86038605 18.1393349,1.44432558 18.1393349,0.930153488 C18.1393349,0.415981395 18.5553953,-7.90697674e-05 19.0695674,-7.90697674e-05 C21.8693349,0.00719069767 24.1714279,2.2074093 24.3021256,5.00550233 L26.8130093,19.1315488 L26.8130093,19.1297349 C28.8115674,19.4404186 30.4321721,20.9084326 30.9372884,22.8651767 C31.4441721,24.8219209 30.7374326,26.8913163 29.1385907,28.130293 C28.9732558,28.261107 28.7679488,28.3319628 28.5571953,28.3301488 L28.5572093,28.3302326 Z" id="Fill-4"></path>
                <path d="M26.2190698,37.9344186 C24.2605116,37.9326 22.6725581,36.3446512 22.6689302,34.386093 C22.6689302,32.5673953 24.9945116,29.269814 25.4596279,28.6046977 C25.6340465,28.3648744 25.9102093,28.2213395 26.2045581,28.2195256 C26.4988884,28.2213395 26.7750698,28.3557907 26.9585581,28.5865302 C27.7016744,29.5767163 28.3702791,30.621414 28.9589302,31.7115535 C29.4113302,32.5363907 29.6874884,33.4484837 29.7674419,34.3859721 C29.7656279,36.3445302 28.1776744,37.9324837 26.2191163,37.9342977 L26.2190698,37.9344186 Z M26.2190698,30.7851163 C25.3687907,32.1150698 24.5166512,33.692093 24.5166512,34.3843256 L24.5166512,34.3861395 C24.5166512,35.318186 25.2724651,36.074 26.2045116,36.074 C27.1365581,36.074 27.8923721,35.318186 27.8923721,34.3861395 C27.8215163,33.7447907 27.6216605,33.1215814 27.3073488,32.5583721 C26.9803116,31.9497209 26.6223721,31.3574419 26.2317674,30.7869302 L26.2190698,30.7851163 Z" id="Fill-5"></path>
                <path d="M10.2325581,33.4883721 L8.70274419,33.4883721 C8.63915349,33.2739814 8.55194419,33.0668605 8.44656744,32.8706512 L9.52940465,31.787814 L9.52940465,31.7859953 C9.89277674,31.4226233 9.89277674,30.8339488 9.52940465,30.4706 C9.16603256,30.1072512 8.57735814,30.1072279 8.2140093,30.4706 L7.13117209,31.5534372 L7.12935349,31.5534372 C6.93313023,31.4480605 6.7260093,31.3608512 6.51163256,31.2972605 L6.51163256,29.7674465 C6.51163256,29.2532605 6.09557209,28.837214 5.5814,28.837214 C5.06722791,28.837214 4.65116744,29.2532744 4.65116744,29.7674465 L4.65116744,31.2972605 C4.43677674,31.3608512 4.22965581,31.4480605 4.03344651,31.5534372 L2.9506093,30.4706 L2.94879535,30.4706 C2.58542326,30.1072279 1.99674884,30.1072279 1.6334,30.4706 C1.27005116,30.8339721 1.27002791,31.4226465 1.6334,31.7859953 L2.71623721,32.8688326 L2.71623721,32.8706512 C2.61086047,33.0668744 2.52365116,33.2739953 2.46006047,33.4883721 L0.930246512,33.4883721 C0.416059535,33.4883721 1.30232558e-05,33.9044326 1.30232558e-05,34.4186047 C1.30232558e-05,34.9327767 0.416073488,35.3488372 0.930246512,35.3488372 L2.46006047,35.3488372 C2.52365116,35.5632279 2.61086047,35.7703488 2.71623721,35.9665581 L1.6334,37.0493953 L1.6334,37.051214 C1.27002791,37.414586 1.27002791,38.0032605 1.6334,38.3666093 C1.99677209,38.7299563 2.58544651,38.7299795 2.94879535,38.3666093 L4.03163256,37.2837721 L4.03344651,37.2837721 C4.22966977,37.3891488 4.4367907,37.4763581 4.65116744,37.5399488 L4.65116744,39.0697609 C4.65116744,39.583947 5.06722791,39.9999935 5.5814,39.9999935 C6.09557209,39.9999935 6.51163256,39.583933 6.51163256,39.0697609 L6.51163256,37.5399488 C6.72602326,37.4763581 6.93314419,37.3891488 7.12935349,37.2837721 L8.2121907,38.3666093 L8.2140093,38.3666093 C8.5773814,38.7299795 9.16605581,38.7299795 9.52940465,38.3666093 C9.89275349,38.0032372 9.89277674,37.4145628 9.52940465,37.051214 L8.44656744,35.9683767 L8.44656744,35.9665581 C8.55194419,35.7703349 8.63915349,35.563214 8.70274419,35.3488372 L10.2325581,35.3488372 C10.7467442,35.3488372 11.1627907,34.9327767 11.1627907,34.4186047 C11.1627907,33.9044326 10.7467302,33.4883721 10.2325581,33.4883721 Z M6.97674419,34.4186047 C6.97674419,34.9836279 6.6369907,35.4923721 6.11553488,35.7085581 C5.59409302,35.9229488 4.99451163,35.8048512 4.59483721,35.4051442 C4.19516279,35.0054372 4.07702326,34.4058884 4.29142326,33.8844465 C4.50762791,33.3630047 5.01635349,33.0232372 5.58137674,33.0232372 C6.35170233,33.0232372 6.97672558,33.6482605 6.97672558,34.418586 L6.97674419,34.4186047 Z" id="Fill-6"></path>
                <path d="M37.2093023,6.51162791 C37.2093023,6.26453488 37.1111907,6.02832558 36.9367721,5.85390698 C36.7623535,5.67948837 36.5261628,5.58137674 36.2790512,5.58137674 L35.7339814,5.58137674 L36.1191535,5.19620465 L36.1209721,5.19620465 C36.4843442,4.83101395 36.4843442,4.24234419 36.1209721,3.87899535 C35.7576,3.51564651 35.1689256,3.51562326 34.8037628,3.87899535 L34.4185907,4.26416744 L34.4185907,3.72091163 C34.4185907,3.20672558 34.0025302,2.79067907 33.4883581,2.79067907 C32.974186,2.79067907 32.5581256,3.20673953 32.5581256,3.72091163 L32.5581256,4.2659814 L32.1729535,3.8808093 L32.1729535,3.8789907 C31.8077628,3.5156186 31.219093,3.5156186 30.8557442,3.8789907 C30.4923953,4.24236279 30.4923721,4.83103721 30.8557442,5.1962 L31.2409163,5.58137209 L30.6976605,5.58137209 C30.1834744,5.58137209 29.7674279,5.99743256 29.7674279,6.51160465 C29.7674279,7.02577674 30.1834884,7.44183721 30.6976605,7.44183721 L31.2427302,7.44183721 L30.8575581,7.8270093 L30.8557395,7.8270093 C30.4923674,8.1922 30.4923674,8.78086977 30.8557395,9.1442186 C31.2191116,9.50756744 31.807786,9.5075907 32.1729488,9.1442186 L32.5581209,8.75904651 L32.5581209,9.30230233 C32.5581209,9.81648837 32.9741814,10.2325349 33.4883535,10.2325349 C34.0025256,10.2325349 34.418586,9.81647442 34.418586,9.30230233 L34.418586,8.75723256 L34.8037581,9.14240465 L34.8037581,9.14422326 C35.1689488,9.50759535 35.7576186,9.50759535 36.1209674,9.14422326 C36.4843163,8.78085116 36.4843395,8.19217674 36.1209674,7.82701395 L35.7339767,7.44184186 L36.2790465,7.44184186 C36.5261395,7.44184186 36.7623488,7.34373023 36.9367674,7.16931163 C37.111186,6.99489302 37.2092977,6.75870233 37.2092977,6.5115907 L37.2093023,6.51162791 Z M33.4883721,6.04651163 C33.6773256,6.04651163 33.846293,6.15915814 33.9189674,6.33357674 C33.9898233,6.50799535 33.9498558,6.70785116 33.8172233,6.84046047 C33.6845907,6.97309302 33.4847395,7.01306047 33.3103395,6.94220465 C33.1359209,6.86953023 33.0232744,6.70056279 33.0232744,6.5116093 C33.0232744,6.25543256 33.232214,6.04649302 33.4883907,6.04649302 L33.4883721,6.04651163 Z" id="Fill-7"></path>
                <path d="M5.58139535,16.744186 C5.0672093,16.744186 4.65116279,16.3281256 4.65116279,15.8139535 L4.65116279,11.627907 C4.65116279,11.1137209 5.06722326,10.6976744 5.58139535,10.6976744 C6.09556744,10.6976744 6.51162791,11.1137349 6.51162791,11.627907 L6.51162791,15.8139535 C6.51162791,16.0610465 6.41351628,16.2972558 6.23909767,16.4716744 C6.06467907,16.646093 5.82848837,16.7442047 5.58137674,16.7442047 L5.58139535,16.744186 Z" id="Fill-8"></path>
                <path d="M7.3944186,15.6976744 C7.23090233,15.6976744 7.0710186,15.6540698 6.92930233,15.5723116 L3.30283721,13.4883581 C3.07754884,13.3702605 2.91039535,13.1667721 2.83953953,12.9233349 C2.76868372,12.6798744 2.80138605,12.4182651 2.92856744,12.1984047 C3.05393023,11.9785628 3.26650233,11.8204977 3.51177674,11.7605395 C3.75886977,11.7005814 4.01866047,11.7423721 4.23307907,11.8786372 L7.85954419,13.9534744 C8.22473488,14.1642279 8.40098605,14.5930093 8.29195814,14.9981721 C8.18294419,15.4051488 7.81595814,15.6867767 7.39442326,15.6885907 L7.3944186,15.6976744 Z" id="Fill-9"></path>
                <path d="M3.76837209,15.6976744 C3.34686047,15.6976744 2.97986047,15.4142419 2.87083721,15.0090698 C2.76182326,14.602093 2.93806047,14.1733023 3.30325116,13.9625581 L6.92608837,11.8695349 C7.14047907,11.7332698 7.40027442,11.6914837 7.64557674,11.7514372 C7.89266977,11.8113953 8.10342791,11.9694605 8.2306,12.1893023 C8.3577814,12.4091442 8.38866512,12.6707907 8.3178093,12.9142326 C8.24695349,13.157693 8.0798,13.3611814 7.85632558,13.4792558 L4.23348837,15.5722791 C4.09177209,15.6540372 3.93188837,15.6976419 3.76837209,15.6976419 L3.76837209,15.6976744 Z" id="Fill-10"></path>
            </g>
        </g>
        <g id="Page"></g>
    </g>
</svg>