<svg xmlns="http://www.w3.org/2000/svg" width="17" height="16" viewBox="0 0 17 16">
  <g id="ambulance_1" transform="translate(-716 -469)">
    <path id="Exclusion_2" data-name="Exclusion 2" d="M13.753,16H3.246L0,6.112,8.5,0,17,6.112Z" transform="translate(716 469)" fill="#ff0093"/>
    <path id="amb2" d="M2.155,4.828a.46.46,0,1,0,.461.46.46.46,0,0,0-.461-.46ZM3.548,3.482h-.82V2.7H1.947v-.82h.781V1.1h.82v.781h.781V2.7H3.548v.78ZM5.562.249A.431.431,0,0,1,5.951,0h.032a.43.43,0,0,1,.428.43h0A.509.509,0,0,1,6.406.5,6.357,6.357,0,0,1,8.82,2.709c.546.7,1.067.812,1.073,1.338L9.9,4.7a.375.375,0,0,1-.417.432H9.239a1.065,1.065,0,0,0-2.107,0h-3.9a1.091,1.091,0,0,0-2.159,0H1.063L.535,5.119A.58.58,0,0,1,0,4.541c0-.005,0-.283,0-.3a.318.318,0,0,1,.279-.29V.8A.58.58,0,0,1,.86.223c1.7,0,2.626.031,4.263,0a2.487,2.487,0,0,1,.438.027h0ZM8.185,4.828a.46.46,0,1,0,.46.46.46.46,0,0,0-.46-.46Zm0-.479a.94.94,0,1,0,.94.94.939.939,0,0,0-.94-.94h0ZM8.168,2.931c.18,0,.14-.19.1-.24C7.227,1.254,7.048,1.394,6.35,1.4a.089.089,0,0,0-.089.089V2.842a.09.09,0,0,0,.089.09H8.168ZM2.155,4.348a.94.94,0,1,1-.939.94A.94.94,0,0,1,2.155,4.348Z" transform="translate(719.907 474.558)" fill="#fff" fill-rule="evenodd"/>
  </g>
</svg>
