<?xml version="1.0" encoding="UTF-8"?>
<svg width="40px" height="36px" viewBox="0 0 40 36" version="1.1" xmlns="http://www.w3.org/2000/svg" xmlns:xlink="http://www.w3.org/1999/xlink">
    <!-- Generator: sketchtool 52.6 (67491) - http://www.bohemiancoding.com/sketch -->
    <title>FF53E308-0E07-4EBA-8ADD-93ABC717DD01</title>
    <desc>Created with sketchtool.</desc>
    <g id="Main_nav" stroke="none" stroke-width="1" fill="none" fill-rule="evenodd">
        <g id="Grupe-Analiza" transform="translate(-186.000000, -1212.000000)" fill="#96EC46">
            <g id="aminokiseline" transform="translate(186.000000, 1212.000000)">
                <path d="M35,14.4314286 C33.7165143,14.4314286 32.5725714,14.8611143 31.7131429,15.7149143 L28.4262857,13.8566286 L28.4262857,9.57091429 C30.424,9.00171429 31.8525714,7.14348571 31.8525714,5.00062857 C31.8525714,2.28862857 29.7097143,0.145771429 26.9977143,0.145771429 C24.2857143,0.145771429 22.1428571,2.28862857 22.1428571,5.00062857 C22.1428571,7.14348571 23.5714286,9.00177143 25.5691429,9.57091429 L25.5691429,13.8566286 L22.5724286,15.7149143 C21.7130571,15.0006286 20.5747143,14.4314286 19.4307143,14.4314286 C18.1472286,14.4314286 16.8581429,15.0006286 16.0044286,15.86 L15.8593429,15.86 C15.8593429,13.148 13.7164857,11.0051429 11.0044857,11.0051429 C8.29248571,11.0051429 6.14962857,13.148 6.14962857,15.86 C6.14962857,16.7193714 6.43422857,17.4337143 6.71882857,18.148 C6.14962857,18.0029143 5.57485714,17.8634 5.00568571,17.8634 C2.29368571,17.8634 0.150828571,20.0062571 0.150828571,22.7182571 C0.150828571,25.4302571 2.29368571,27.5731143 5.00568571,27.5731143 C5.29028571,27.5731143 5.57488571,27.5731143 6.00457143,27.4280286 L6.14965714,27.7126286 C5.43537143,28.572 5.00568571,29.7103429 5.00568571,30.8543429 C5.00568571,33.5663429 7.14854286,35.7092 9.86054286,35.7092 C12.2879714,35.7092 14.2914,33.8509143 14.5759714,31.4234857 L14.8605714,31.4234857 C15.7199429,32.7069714 17.1485714,33.4212 18.7165714,33.4212 C21.4285714,33.4212 23.5714286,31.2783429 23.5714286,28.5663429 C23.5714286,26.5686286 22.4274571,24.9949143 20.7142857,24.1354857 L20.7142857,23.8508857 C22.712,23.2816857 24.1405714,21.4234571 24.1405714,19.2806 C24.1405714,18.8509143 24.1405714,18.5663143 23.9954857,18.1366286 L26.8526286,16.2783429 L30.1394857,18.1366286 C29.9944,18.4212286 29.9944,18.8509143 29.9944,19.2806 C29.9944,21.9926 32.1372571,24.1354571 34.8492571,24.1354571 C37.5612571,24.1354571 39.7041143,21.9926 39.7041143,19.2806 C39.7152714,16.5741714 37.5724,14.4313143 34.9998286,14.4313143 L35,14.4314286 Z M14.0014286,28.427 C13.1420571,26.9984286 11.574,25.9995714 9.86085714,25.9995714 C9.43117143,25.9995714 9.00148571,25.9995714 8.71688571,26.1446571 L8.5718,26.1446571 C9.43117143,25.2852857 10.0003714,24.1469429 10.0003714,22.7183714 C10.0003714,21.859 9.71577143,21.1446571 9.43117143,20.4303714 C10.0003714,20.5754571 10.5751429,20.7149714 11.1443143,20.7149714 C12.5728857,20.7149714 13.8563143,20.1457714 14.7157429,19.1412571 L14.7157429,19.2863429 C14.7157429,21.4292 16.1443143,23.2874857 18.0026,23.8566286 C15.7146,24.2863143 14.0014571,26.1446286 14.0014571,28.4269143 L14.0014286,28.427 Z M10.9991429,13.857 C12.1431143,13.857 12.9968571,14.7163714 12.9968571,15.8547143 C12.9968571,16.9986857 12.1374857,17.8524286 10.9991429,17.8524286 C9.85517143,17.8524286 9.00142857,16.9930571 9.00142857,15.8547143 C9.00142857,14.7163714 9.85522857,13.857 10.9991429,13.857 Z M3.142,22.713 C3.142,21.5690286 4.00137143,20.7152857 5.13971429,20.7152857 C6.28368571,20.7152857 7.13742857,21.5746571 7.13742857,22.713 C7.13742857,23.8569714 6.27805714,24.7107143 5.13971429,24.7107143 C4.00131429,24.7163 3.142,23.8569143 3.142,22.713 Z M9.85514286,32.8581429 C8.71117143,32.8581429 7.85742857,31.9987714 7.85742857,30.8604286 C7.85742857,29.7164571 8.7168,28.8627143 9.85514286,28.8627143 C10.9991143,28.8627143 11.8528571,29.7220857 11.8528571,30.8604286 C11.7133429,31.9988286 10.8595571,32.8581429 9.85514286,32.8581429 Z M18.7167143,30.5701429 C17.5727429,30.5701429 16.719,29.7107714 16.719,28.5724286 C16.719,27.4284571 17.5783714,26.5747143 18.7167143,26.5747143 C19.8606857,26.5747143 20.7144286,27.4340857 20.7144286,28.5724286 C20.7144286,29.7164 19.8550571,30.5701429 18.7167143,30.5701429 Z M19.2859143,21.2844286 C18.1419429,21.2844286 17.2882,20.4250571 17.2882,19.2867143 C17.2882,18.1427429 18.1475714,17.289 19.2859143,17.289 C20.4298857,17.289 21.2836286,18.1483714 21.2836286,19.2867143 C21.2836286,20.4306857 20.4298286,21.2844286 19.2859143,21.2844286 Z M26.8584857,3.003 C28.0024571,3.003 28.8562,3.86237143 28.8562,5.00071429 C28.8562,6.14468571 27.9968286,6.99842857 26.8584857,6.99842857 C25.7145143,6.99842857 24.8607714,6.13905714 24.8607714,5.00071429 C24.8551857,3.85674286 25.8596571,3.003 26.8584857,3.003 Z M35.0002,21.2844286 C33.8562286,21.2844286 33.0024857,20.4250571 33.0024857,19.2867143 C33.0024857,18.1427429 33.8618571,17.289 35.0002,17.289 C36.1441714,17.289 36.9979143,18.1483714 36.9979143,19.2867143 C36.8584,20.4306857 35.9990286,21.2844286 35.0002,21.2844286 Z" id="Fill-2"></path>
            </g>
        </g>
        <g id="Page"></g>
    </g>
</svg>