<?xml version="1.0" encoding="utf-8"?>
<!-- Generator: Adobe Illustrator 23.0.1, SVG Export Plug-In . SVG Version: 6.00 Build 0)  -->
<svg version="1.1" id="Layer_1" xmlns="http://www.w3.org/2000/svg" xmlns:xlink="http://www.w3.org/1999/xlink" x="0px" y="0px"
	 viewBox="0 0 815.95 485.41" style="enable-background:new 0 0 815.95 485.41;" xml:space="preserve">
<style type="text/css">
	.st0{fill:none;stroke:url(#SVGID_1_);stroke-width:3;stroke-miterlimit:10;}
	.st1{fill:none;stroke:url(#SVGID_2_);stroke-width:3;stroke-miterlimit:10;}
	.st2{fill:#D14EF2;}
	.st3{fill:none;stroke:url(#SVGID_3_);stroke-width:3;stroke-miterlimit:10;}
	.st4{fill:#6D6F72;}
	.st5{fill:none;stroke:url(#SVGID_4_);stroke-width:3;stroke-miterlimit:10;}
	.st6{fill:none;stroke:url(#SVGID_5_);stroke-width:3;stroke-miterlimit:10;}
	.st7{fill:none;stroke:url(#SVGID_6_);stroke-width:3;stroke-miterlimit:10;}
	.st8{fill:none;stroke:url(#SVGID_7_);stroke-width:3;stroke-miterlimit:10;}
	.st9{fill:none;stroke:url(#SVGID_8_);stroke-width:3;stroke-miterlimit:10;}
	.st10{fill:none;stroke:url(#SVGID_9_);stroke-width:3;stroke-miterlimit:10;}
	.st11{fill:#9EF27C;}
	.st12{fill:none;stroke:url(#SVGID_10_);stroke-width:3;stroke-miterlimit:10;}
	.st13{fill:none;stroke:url(#SVGID_11_);stroke-width:3;stroke-miterlimit:10;}
	.st14{fill:none;stroke:url(#SVGID_12_);stroke-width:3;stroke-miterlimit:10;}
	.st15{fill:none;stroke:url(#SVGID_13_);stroke-width:3;stroke-miterlimit:10;}
	.st16{fill:url(#SVGID_14_);stroke:url(#SVGID_15_);stroke-width:3;stroke-miterlimit:10;}
	.st17{fill:url(#SVGID_16_);stroke:url(#SVGID_17_);stroke-width:3;stroke-miterlimit:10;}
	.st18{fill:#1E7A3C;}
	.st19{fill:#FC7C80;}
	.st20{fill:none;stroke:url(#SVGID_18_);stroke-width:3;stroke-miterlimit:10;}
	.st21{fill:none;stroke:url(#SVGID_19_);stroke-width:3;stroke-miterlimit:10;}
	.st22{fill:none;stroke:url(#SVGID_20_);stroke-width:3;stroke-miterlimit:10;}
	.st23{fill:#1B71DE;}
	.st24{fill:none;stroke:url(#SVGID_21_);stroke-width:3;stroke-miterlimit:10;}
	.st25{fill:none;stroke:url(#SVGID_22_);stroke-width:3;stroke-miterlimit:10;}
	.st26{fill:none;stroke:url(#SVGID_23_);stroke-width:3;stroke-miterlimit:10;}
</style>
<linearGradient id="SVGID_1_" gradientUnits="userSpaceOnUse" x1="-55.4854" y1="-147.0163" x2="-55.4854" y2="-268.4792" gradientTransform="matrix(-6.123234e-17 1 -1 -6.123234e-17 233.2976 183.911)">
	<stop  offset="0" style="stop-color:#FFFFFF"/>
	<stop  offset="0.7266" style="stop-color:#6D6F72"/>
</linearGradient>
<line class="st0" x1="380.31" y1="128.43" x2="501.78" y2="128.43"/>
<linearGradient id="SVGID_2_" gradientUnits="userSpaceOnUse" x1="25.875" y1="-155.0163" x2="25.875" y2="-235.2694" gradientTransform="matrix(-6.123234e-17 1 -1 -6.123234e-17 233.2976 183.911)">
	<stop  offset="0" style="stop-color:#FFFFFF"/>
	<stop  offset="0.7266" style="stop-color:#6D6F72"/>
</linearGradient>
<line class="st1" x1="388.31" y1="209.79" x2="468.57" y2="209.79"/>
<g>
	<g>
		<path class="st2" d="M36.51,172.78l0.66-0.86c0.61,0.64,1.41,1.2,2.61,1.2c1.24,0,2.12-0.73,2.12-1.87c0-1.21-0.84-2.03-3.26-2.03
			v-1.01c2.16,0,2.9-0.83,2.9-1.9c0-0.99-0.68-1.62-1.76-1.62c-0.85,0-1.58,0.43-2.18,1.03l-0.71-0.84
			c0.79-0.73,1.73-1.27,2.93-1.27c1.78,0,3.05,0.94,3.05,2.59c0,1.23-0.75,2.02-1.85,2.43v0.06c1.23,0.29,2.22,1.19,2.22,2.59
			c0,1.82-1.5,2.92-3.37,2.92C38.22,174.22,37.19,173.53,36.51,172.78z"/>
		<path class="st2" d="M48.97,173.22h-0.04l-0.12,0.8h-1.05v-11.4h1.32v3.12l-0.04,1.4c0.71-0.61,1.58-1.08,2.44-1.08
			c2.01,0,3.09,1.56,3.09,3.96c0,2.66-1.59,4.21-3.37,4.21C50.46,174.22,49.66,173.85,48.97,173.22z M53.2,170.03
			c0-1.72-0.59-2.87-2.05-2.87c-0.66,0-1.34,0.36-2.08,1.06v4.08c0.68,0.59,1.38,0.81,1.89,0.81
			C52.25,173.11,53.2,171.95,53.2,170.03z"/>
		<path class="st2" d="M55.62,170.15c0-2.53,1.71-4.09,3.5-4.09c1.98,0,3.1,1.43,3.1,3.65c0,0.28-0.02,0.56-0.06,0.75h-5.24
			c0.09,1.65,1.1,2.72,2.59,2.72c0.75,0,1.36-0.24,1.94-0.62l0.47,0.86c-0.68,0.45-1.51,0.81-2.57,0.81
			C57.27,174.22,55.62,172.7,55.62,170.15z M61.06,169.51c0-1.56-0.7-2.41-1.92-2.41c-1.09,0-2.07,0.88-2.23,2.41H61.06z"/>
		<path class="st2" d="M63.96,171.62v-4.3h-1.16v-1l1.22-0.08l0.16-2.18h1.1v2.18h2.11v1.07h-2.11v4.33c0,0.95,0.31,1.5,1.2,1.5
			c0.28,0,0.63-0.1,0.89-0.21l0.25,0.99c-0.44,0.15-0.96,0.29-1.44,0.29C64.52,174.22,63.96,173.17,63.96,171.62z"/>
		<path class="st2" d="M68.26,172.01c0-1.69,1.46-2.54,4.78-2.9c0-1-0.33-1.97-1.61-1.97c-0.9,0-1.71,0.43-2.32,0.83l-0.52-0.9
			c0.72-0.47,1.81-1.02,3.06-1.02c1.9,0,2.7,1.26,2.7,3.2v4.77h-1.09l-0.11-0.93h-0.04c-0.74,0.62-1.61,1.12-2.57,1.12
			C69.24,174.22,68.26,173.41,68.26,172.01z M73.04,172.13v-2.16c-2.61,0.31-3.49,0.95-3.49,1.95c0,0.88,0.6,1.24,1.36,1.24
			C71.66,173.16,72.28,172.79,73.04,172.13z"/>
	</g>
</g>
<linearGradient id="SVGID_3_" gradientUnits="userSpaceOnUse" x1="91.441" y1="94.9597" x2="91.441" y2="49.9349" gradientTransform="matrix(-1 0 0 -1 182.8044 231.2284)">
	<stop  offset="0" style="stop-color:#FFFFFF"/>
	<stop  offset="0.7266" style="stop-color:#6D6F72"/>
</linearGradient>
<line class="st3" x1="91.36" y1="136.27" x2="91.36" y2="181.29"/>
<polygon class="st4" points="86.31,179.54 96.49,179.54 91.49,199.26 91.31,199.26 "/>
<linearGradient id="SVGID_4_" gradientUnits="userSpaceOnUse" x1="-375.7074" y1="94.9597" x2="-375.7074" y2="49.9349" gradientTransform="matrix(-1 0 0 -1 182.8044 231.2284)">
	<stop  offset="0" style="stop-color:#FFFFFF"/>
	<stop  offset="0.7266" style="stop-color:#6D6F72"/>
</linearGradient>
<line class="st5" x1="558.51" y1="136.27" x2="558.51" y2="181.29"/>
<polygon class="st4" points="553.46,179.54 563.64,179.54 558.64,199.26 558.46,199.26 "/>
<linearGradient id="SVGID_5_" gradientUnits="userSpaceOnUse" x1="-375.7074" y1="6.4226" x2="-375.7074" y2="-38.6022" gradientTransform="matrix(-1 0 0 -1 182.8044 231.2284)">
	<stop  offset="0" style="stop-color:#FFFFFF"/>
	<stop  offset="0.7266" style="stop-color:#6D6F72"/>
</linearGradient>
<line class="st6" x1="558.51" y1="224.81" x2="558.51" y2="269.83"/>
<polygon class="st4" points="553.46,268.08 563.64,268.08 558.64,287.8 558.46,287.8 "/>
<linearGradient id="SVGID_6_" gradientUnits="userSpaceOnUse" x1="-375.7074" y1="-81.7908" x2="-375.7074" y2="-126.8157" gradientTransform="matrix(-1 0 0 -1 182.8044 231.2284)">
	<stop  offset="0" style="stop-color:#FFFFFF"/>
	<stop  offset="0.7266" style="stop-color:#6D6F72"/>
</linearGradient>
<line class="st7" x1="558.51" y1="313.02" x2="558.51" y2="358.04"/>
<polygon class="st4" points="553.46,349.29 563.64,349.29 558.64,369.01 558.46,369.01 "/>
<linearGradient id="SVGID_7_" gradientUnits="userSpaceOnUse" x1="-508.5008" y1="19.9524" x2="-508.5008" y2="-47.7677" gradientTransform="matrix(-1 0 0 -1 182.8044 231.2284)">
	<stop  offset="0" style="stop-color:#FFFFFF"/>
	<stop  offset="0.7266" style="stop-color:#6D6F72"/>
</linearGradient>
<path class="st8" d="M638.4,212.8c110.42-1.53,104.27,66.06,104.27,66.06"/>
<polygon class="st4" points="737.62,270.11 747.8,270.11 742.8,289.83 742.62,289.83 "/>
<linearGradient id="SVGID_8_" gradientUnits="userSpaceOnUse" x1="-469.4462" y1="-64.4515" x2="-469.4462" y2="-146.5508" gradientTransform="matrix(-0.8924 0.4513 -0.4513 -0.8924 187.3076 451.9315)">
	<stop  offset="0" style="stop-color:#FFFFFF"/>
	<stop  offset="0.7266" style="stop-color:#6D6F72"/>
</linearGradient>
<path class="st9" d="M605.83,314.06c76.83-5.09,95.73,41.9,95.73,41.9"/>
<polygon class="st4" points="693.11,350.43 702.19,345.84 706.62,365.69 706.47,365.77 "/>
<linearGradient id="SVGID_9_" gradientUnits="userSpaceOnUse" x1="-559.9053" y1="-81.7908" x2="-559.9053" y2="-126.8157" gradientTransform="matrix(-1 0 0 -1 182.8044 231.2284)">
	<stop  offset="0" style="stop-color:#FFFFFF"/>
	<stop  offset="0.7266" style="stop-color:#6D6F72"/>
</linearGradient>
<line class="st10" x1="742.71" y1="313.02" x2="742.71" y2="358.04"/>
<polygon class="st4" points="737.66,349.29 747.84,349.29 742.84,369.01 742.66,369.01 "/>
<g>
	<g>
		<path class="st11" d="M36.72,256.64c3.07-3.06,4.8-4.9,4.8-6.56c0-1.17-0.63-1.99-1.94-1.99c-0.85,0-1.59,0.54-2.17,1.22
			l-0.76-0.74c0.85-0.94,1.77-1.55,3.1-1.55c1.89,0,3.06,1.19,3.06,3.01c0,1.92-1.76,3.82-4.17,6.35c0.55-0.04,1.19-0.09,1.72-0.09
			h2.95v1.13h-6.59V256.64z"/>
		<path class="st11" d="M44.9,256.33h2.34v-7.52h-1.86v-0.85c0.93-0.16,1.61-0.41,2.17-0.75h1.01v9.11h2.11v1.1H44.9V256.33z"/>
		<path class="st11" d="M54.81,252.13c0-3.36,1.85-5.41,4.49-5.41c2.64,0,4.49,2.05,4.49,5.41c0,3.36-1.85,5.48-4.49,5.48
			C56.67,257.61,54.81,255.5,54.81,252.13z M62.41,252.13c0-2.62-1.23-4.23-3.11-4.23c-1.88,0-3.11,1.61-3.11,4.23
			s1.23,4.31,3.11,4.31C61.18,256.44,62.41,254.75,62.41,252.13z"/>
		<path class="st11" d="M65.65,246.92h1.34v4.4h4.89v-4.4h1.34v10.51h-1.34v-4.94h-4.89v4.94h-1.34V246.92z"/>
	</g>
</g>
<linearGradient id="SVGID_10_" gradientUnits="userSpaceOnUse" x1="91.441" y1="11.8876" x2="91.441" y2="-33.1372" gradientTransform="matrix(-1 0 0 -1 182.8044 231.2284)">
	<stop  offset="0" style="stop-color:#FFFFFF"/>
	<stop  offset="0.7266" style="stop-color:#6D6F72"/>
</linearGradient>
<line class="st12" x1="91.36" y1="219.34" x2="91.36" y2="264.37"/>
<polygon class="st4" points="86.31,262.61 96.49,262.61 91.49,282.33 91.31,282.33 "/>
<g>
	<g>
		<path class="st4" d="M37.34,335.63h2.34v-7.52h-1.86v-0.85c0.93-0.16,1.61-0.41,2.17-0.75H41v9.11h2.11v1.1h-5.76V335.63z"/>
		<path class="st4" d="M44.9,335.63h2.34v-7.52h-1.86v-0.85c0.93-0.16,1.61-0.41,2.17-0.75h1.01v9.11h2.11v1.1H44.9V335.63z"/>
		<path class="st4" d="M56.52,335.93h-0.04l-0.12,0.8H55.3v-11.4h1.32v3.12l-0.04,1.4c0.71-0.61,1.58-1.08,2.44-1.08
			c2.01,0,3.09,1.56,3.09,3.96c0,2.66-1.59,4.21-3.37,4.21C58.01,336.92,57.21,336.55,56.52,335.93z M60.75,332.73
			c0-1.72-0.59-2.87-2.05-2.87c-0.66,0-1.34,0.36-2.08,1.06v4.08c0.68,0.59,1.38,0.81,1.89,0.81
			C59.8,335.81,60.75,334.65,60.75,332.73z"/>
		<path class="st4" d="M63.17,332.85c0-2.53,1.71-4.09,3.5-4.09c1.98,0,3.1,1.43,3.1,3.65c0,0.28-0.02,0.56-0.06,0.75h-5.24
			c0.09,1.65,1.1,2.72,2.59,2.72c0.75,0,1.36-0.24,1.94-0.62l0.47,0.86c-0.68,0.45-1.51,0.81-2.57,0.81
			C64.82,336.92,63.17,335.41,63.17,332.85z M68.61,332.21c0-1.56-0.7-2.41-1.92-2.41c-1.09,0-2.07,0.88-2.23,2.41H68.61z"/>
		<path class="st4" d="M71.52,334.32v-4.3h-1.16v-1l1.22-0.08l0.16-2.18h1.1v2.18h2.11v1.07h-2.11v4.33c0,0.95,0.31,1.5,1.2,1.5
			c0.28,0,0.63-0.1,0.89-0.21l0.25,0.99c-0.44,0.15-0.96,0.29-1.44,0.29C72.08,336.92,71.52,335.87,71.52,334.32z"/>
		<path class="st4" d="M75.81,334.71c0-1.69,1.46-2.54,4.78-2.9c0-1-0.33-1.97-1.61-1.97c-0.9,0-1.71,0.43-2.32,0.83l-0.52-0.9
			c0.72-0.47,1.81-1.02,3.06-1.02c1.9,0,2.7,1.26,2.7,3.2v4.77h-1.09l-0.11-0.93h-0.04c-0.74,0.62-1.61,1.12-2.57,1.12
			C76.79,336.92,75.81,336.11,75.81,334.71z M80.59,334.83v-2.16c-2.61,0.31-3.49,0.95-3.49,1.95c0,0.88,0.6,1.24,1.36,1.24
			C79.22,335.86,79.84,335.5,80.59,334.83z"/>
	</g>
</g>
<linearGradient id="SVGID_11_" gradientUnits="userSpaceOnUse" x1="91.441" y1="-68.8451" x2="91.441" y2="-113.8699" gradientTransform="matrix(-1 0 0 -1 182.8044 231.2284)">
	<stop  offset="0" style="stop-color:#FFFFFF"/>
	<stop  offset="0.7266" style="stop-color:#6D6F72"/>
</linearGradient>
<line class="st13" x1="91.36" y1="300.07" x2="91.36" y2="345.1"/>
<polygon class="st4" points="86.31,343.35 96.49,343.35 91.49,363.06 91.31,363.06 "/>
<g>
	<g>
		<path class="st4" d="M37.34,420.99h2.34v-7.52h-1.86v-0.85c0.93-0.16,1.61-0.41,2.17-0.75H41v9.11h2.11v1.1h-5.76V420.99z"/>
		<path class="st4" d="M44.29,419.48c0-1.33,0.97-2.23,1.93-2.75v-0.06c-0.76-0.53-1.43-1.28-1.43-2.36c0-1.57,1.25-2.62,2.89-2.62
			c1.79,0,2.89,1.13,2.89,2.72c0,1.07-0.78,1.99-1.41,2.46v0.06c0.91,0.54,1.77,1.26,1.77,2.62c0,1.53-1.32,2.73-3.29,2.73
			C45.71,422.28,44.29,421.1,44.29,419.48z M49.67,419.52c0-1.32-1.29-1.79-2.76-2.39c-0.82,0.53-1.43,1.29-1.43,2.23
			c0,1.12,0.94,1.94,2.19,1.94C48.86,421.3,49.67,420.57,49.67,419.52z M49.43,414.48c0-1.01-0.65-1.81-1.77-1.81
			c-0.95,0-1.66,0.65-1.66,1.64c0,1.22,1.13,1.73,2.35,2.22C49.05,415.91,49.43,415.23,49.43,414.48z"/>
		<path class="st4" d="M54.81,416.8c0-3.36,1.85-5.41,4.49-5.41c2.64,0,4.49,2.05,4.49,5.41c0,3.36-1.85,5.48-4.49,5.48
			C56.67,422.28,54.81,420.16,54.81,416.8z M62.41,416.8c0-2.62-1.23-4.23-3.11-4.23c-1.88,0-3.11,1.61-3.11,4.23
			s1.23,4.31,3.11,4.31C61.18,421.11,62.41,419.42,62.41,416.8z"/>
		<path class="st4" d="M65.65,411.58h1.34v4.4h4.89v-4.4h1.34v10.51h-1.34v-4.94h-4.89v4.94h-1.34V411.58z"/>
	</g>
</g>
<linearGradient id="SVGID_12_" gradientUnits="userSpaceOnUse" x1="91.441" y1="-152.1702" x2="91.441" y2="-197.195" gradientTransform="matrix(-1 0 0 -1 182.8044 231.2284)">
	<stop  offset="0" style="stop-color:#FFFFFF"/>
	<stop  offset="0.7266" style="stop-color:#6D6F72"/>
</linearGradient>
<line class="st14" x1="91.36" y1="383.4" x2="91.36" y2="428.42"/>
<polygon class="st4" points="86.31,426.67 96.49,426.67 91.49,446.39 91.31,446.39 "/>
<linearGradient id="SVGID_13_" gradientUnits="userSpaceOnUse" x1="91.441" y1="173.3908" x2="91.441" y2="128.366" gradientTransform="matrix(-1 0 0 -1 182.8044 231.2284)">
	<stop  offset="0" style="stop-color:#FFFFFF"/>
	<stop  offset="0.7266" style="stop-color:#6D6F72"/>
</linearGradient>
<line class="st15" x1="91.36" y1="57.84" x2="91.36" y2="102.86"/>
<linearGradient id="SVGID_14_" gradientUnits="userSpaceOnUse" x1="61.3719" y1="73.1916" x2="116.1528" y2="7.9063">
	<stop  offset="0" style="stop-color:#D7D7D7"/>
	<stop  offset="0.0125" style="stop-color:#D4D4D5"/>
	<stop  offset="0.0743" style="stop-color:#CACCCD"/>
	<stop  offset="0.153" style="stop-color:#C7C9CA"/>
	<stop  offset="1" style="stop-color:#FFFFFF"/>
</linearGradient>
<linearGradient id="SVGID_15_" gradientUnits="userSpaceOnUse" x1="29.6155" y1="40.549" x2="147.9092" y2="40.549">
	<stop  offset="0" style="stop-color:#FFFFFF"/>
	<stop  offset="0.3541" style="stop-color:#FCFCFC"/>
	<stop  offset="0.6325" style="stop-color:#F2F2F2"/>
	<stop  offset="0.8842" style="stop-color:#E1E1E1"/>
	<stop  offset="1" style="stop-color:#D7D7D7"/>
</linearGradient>
<path class="st16" d="M146.41,40.55c0,8.59-6.96,15.56-15.56,15.56H46.67c-8.59,0-15.56-6.96-15.56-15.56l0,0
	c0-8.59,6.96-15.56,15.56-15.56h84.18C139.44,24.99,146.41,31.96,146.41,40.55L146.41,40.55z"/>
<linearGradient id="SVGID_16_" gradientUnits="userSpaceOnUse" x1="722.5836" y1="152.9446" x2="765.5912" y2="101.6901">
	<stop  offset="0" style="stop-color:#D7D7D7"/>
	<stop  offset="0.0125" style="stop-color:#D4D4D5"/>
	<stop  offset="0.0743" style="stop-color:#CACCCD"/>
	<stop  offset="0.153" style="stop-color:#C7C9CA"/>
	<stop  offset="1" style="stop-color:#FFFFFF"/>
</linearGradient>
<linearGradient id="SVGID_17_" gradientUnits="userSpaceOnUse" x1="699.1879" y1="127.3174" x2="788.987" y2="127.3174">
	<stop  offset="0" style="stop-color:#FFFFFF"/>
	<stop  offset="0.3541" style="stop-color:#FCFCFC"/>
	<stop  offset="0.6325" style="stop-color:#F2F2F2"/>
	<stop  offset="0.8842" style="stop-color:#E1E1E1"/>
	<stop  offset="1" style="stop-color:#D7D7D7"/>
</linearGradient>
<path class="st17" d="M787.49,127.32c0,8.59-6.96,15.56-15.56,15.56h-55.69c-8.59,0-15.56-6.96-15.56-15.56l0,0
	c0-8.59,6.96-15.56,15.56-15.56h55.69C780.52,111.76,787.49,118.73,787.49,127.32L787.49,127.32z"/>
<g>
	<g>
		<path class="st4" d="M42.51,39.23c0-4.28,2.68-6.83,5.99-6.83c1.64,0,2.94,0.78,3.77,1.66l-1.24,1.5
			c-0.67-0.67-1.46-1.14-2.48-1.14c-2.13,0-3.66,1.8-3.66,4.74c0,2.98,1.41,4.79,3.6,4.79c1.16,0,2.06-0.54,2.79-1.34l1.24,1.46
			c-1.06,1.23-2.42,1.9-4.12,1.9C45.12,45.97,42.51,43.56,42.51,39.23z"/>
		<path class="st4" d="M54.02,31.6h2.3v3.66l-0.1,1.9c0.82-0.78,1.8-1.49,3.14-1.49c2.1,0,3.02,1.42,3.02,3.9v6.16h-2.3v-5.87
			c0-1.62-0.46-2.22-1.53-2.22c-0.86,0-1.43,0.42-2.24,1.22v6.87h-2.3V31.6z"/>
		<path class="st4" d="M64.03,40.83c0-3.27,2.22-5.16,4.67-5.16c2.45,0,4.67,1.89,4.67,5.16c0,3.26-2.22,5.15-4.67,5.15
			C66.26,45.97,64.03,44.08,64.03,40.83z M71.01,40.83c0-1.97-0.86-3.28-2.3-3.28s-2.3,1.31-2.3,3.28c0,1.97,0.86,3.27,2.3,3.27
			S71.01,42.79,71.01,40.83z"/>
		<path class="st4" d="M75.16,43.2V31.6h2.3v11.72c0,0.57,0.26,0.77,0.5,0.77c0.1,0,0.18,0,0.36-0.04l0.29,1.72
			c-0.28,0.11-0.66,0.2-1.22,0.2C75.76,45.97,75.16,44.91,75.16,43.2z"/>
		<path class="st4" d="M79.43,40.83c0-3.19,2.22-5.16,4.53-5.16c2.66,0,4.06,1.92,4.06,4.66c0,0.44-0.05,0.88-0.1,1.12h-6.24
			c0.19,1.74,1.31,2.74,2.9,2.74c0.84,0,1.56-0.26,2.28-0.71l0.78,1.43c-0.94,0.63-2.12,1.06-3.37,1.06
			C81.56,45.97,79.43,44.07,79.43,40.83z M86.03,39.88c0-1.51-0.67-2.43-2.02-2.43c-1.14,0-2.15,0.86-2.35,2.43H86.03z"/>
		<path class="st4" d="M88.74,44.6l1.07-1.46c0.87,0.68,1.72,1.1,2.71,1.1c1.07,0,1.58-0.5,1.58-1.18c0-0.82-1.06-1.19-2.11-1.59
			c-1.29-0.48-2.76-1.22-2.76-2.86c0-1.71,1.38-2.94,3.58-2.94c1.37,0,2.46,0.56,3.26,1.18l-1.06,1.42
			c-0.69-0.5-1.38-0.86-2.15-0.86c-0.99,0-1.46,0.47-1.46,1.09c0,0.78,0.99,1.07,2.06,1.46c1.33,0.5,2.82,1.14,2.82,2.97
			c0,1.69-1.34,3.05-3.82,3.05C91.12,45.97,89.7,45.4,88.74,44.6z"/>
		<path class="st4" d="M98.18,42.42v-4.68h-1.4v-1.73l1.52-0.1l0.27-2.68h1.91v2.68h2.5v1.83h-2.5v4.68c0,1.16,0.45,1.72,1.39,1.72
			c0.34,0,0.74-0.11,1.02-0.22l0.39,1.7c-0.54,0.18-1.22,0.36-2.01,0.36C99.02,45.97,98.18,44.54,98.18,42.42z"/>
		<path class="st4" d="M103.91,40.83c0-3.19,2.22-5.16,4.53-5.16c2.66,0,4.06,1.92,4.06,4.66c0,0.44-0.05,0.88-0.1,1.12h-6.24
			c0.19,1.74,1.31,2.74,2.9,2.74c0.84,0,1.56-0.26,2.28-0.71l0.78,1.43c-0.94,0.63-2.12,1.06-3.37,1.06
			C106.04,45.97,103.91,44.07,103.91,40.83z M110.51,39.88c0-1.51-0.67-2.43-2.02-2.43c-1.14,0-2.15,0.86-2.35,2.43H110.51z"/>
		<path class="st4" d="M114.2,35.9h1.89l0.18,1.75h0.06c0.7-1.28,1.74-1.99,2.79-1.99c0.5,0,0.82,0.06,1.11,0.2l-0.4,2
			c-0.34-0.1-0.6-0.16-1.01-0.16c-0.78,0-1.73,0.54-2.32,2.03v5.99h-2.3V35.9z"/>
		<path class="st4" d="M120.51,40.83c0-3.27,2.22-5.16,4.67-5.16c2.45,0,4.67,1.89,4.67,5.16c0,3.26-2.22,5.15-4.67,5.15
			C122.74,45.97,120.51,44.08,120.51,40.83z M127.49,40.83c0-1.97-0.86-3.28-2.3-3.28s-2.3,1.31-2.3,3.28c0,1.97,0.86,3.27,2.3,3.27
			S127.49,42.79,127.49,40.83z"/>
		<path class="st4" d="M131.64,43.2V31.6h2.3v11.72c0,0.57,0.26,0.77,0.5,0.77c0.1,0,0.18,0,0.36-0.04l0.29,1.72
			c-0.28,0.11-0.66,0.2-1.22,0.2C132.24,45.97,131.64,44.91,131.64,43.2z"/>
	</g>
</g>
<g>
	<g>
		<path class="st4" d="M713.7,297.24h7.87v1.95h-5.55v3.35h4.71v1.95h-4.71v3.87h5.75v1.95h-8.07V297.24z"/>
		<path class="st4" d="M722.79,309.2l1.07-1.46c0.87,0.68,1.72,1.1,2.71,1.1c1.07,0,1.58-0.5,1.58-1.18c0-0.82-1.06-1.19-2.11-1.59
			c-1.29-0.48-2.76-1.22-2.76-2.86c0-1.7,1.38-2.94,3.58-2.94c1.37,0,2.46,0.56,3.26,1.18l-1.06,1.42c-0.69-0.5-1.38-0.86-2.15-0.86
			c-0.99,0-1.46,0.47-1.46,1.09c0,0.78,0.99,1.07,2.06,1.46c1.33,0.5,2.82,1.14,2.82,2.97c0,1.69-1.34,3.05-3.82,3.05
			C725.16,310.57,723.75,309.99,722.79,309.2z"/>
		<path class="st4" d="M732.23,307.01v-4.68h-1.4v-1.73l1.52-0.1l0.27-2.68h1.91v2.68h2.5v1.83h-2.5v4.68
			c0,1.16,0.45,1.72,1.39,1.72c0.34,0,0.74-0.11,1.02-0.22l0.39,1.7c-0.54,0.18-1.22,0.36-2.01,0.36
			C733.07,310.57,732.23,309.13,732.23,307.01z"/>
		<path class="st4" d="M738.6,300.5h1.89l0.18,1.75h0.06c0.7-1.28,1.74-1.99,2.79-1.99c0.5,0,0.82,0.06,1.11,0.2l-0.4,2
			c-0.34-0.1-0.6-0.16-1.01-0.16c-0.78,0-1.73,0.54-2.32,2.03v5.99h-2.3V300.5z"/>
		<path class="st4" d="M744.91,305.42c0-3.27,2.22-5.16,4.67-5.16c2.45,0,4.67,1.89,4.67,5.16c0,3.26-2.22,5.15-4.67,5.15
			C747.14,310.57,744.91,308.68,744.91,305.42z M751.89,305.42c0-1.97-0.86-3.28-2.3-3.28s-2.3,1.31-2.3,3.28
			c0,1.97,0.86,3.27,2.3,3.27S751.89,307.39,751.89,305.42z"/>
		<path class="st4" d="M756.04,300.5h1.89l0.18,1.33h0.06c0.88-0.86,1.88-1.57,3.22-1.57c2.1,0,3.02,1.42,3.02,3.9v6.16h-2.3v-5.87
			c0-1.62-0.46-2.22-1.53-2.22c-0.86,0-1.43,0.42-2.24,1.22v6.87h-2.3V300.5z"/>
		<path class="st4" d="M766.09,305.42c0-3.19,2.22-5.16,4.53-5.16c2.66,0,4.06,1.92,4.06,4.66c0,0.44-0.05,0.88-0.1,1.12h-6.24
			c0.19,1.74,1.31,2.74,2.9,2.74c0.84,0,1.56-0.26,2.28-0.71l0.78,1.43c-0.94,0.63-2.12,1.06-3.37,1.06
			C768.22,310.57,766.09,308.66,766.09,305.42z M772.69,304.48c0-1.51-0.67-2.43-2.02-2.43c-1.14,0-2.15,0.86-2.35,2.43H772.69z"/>
	</g>
</g>
<g>
	<g>
		<path class="st4" d="M708.74,369.5h7.87v1.95h-5.55v3.35h4.71v1.95h-4.71v3.87h5.75v1.95h-8.07V369.5z"/>
		<path class="st4" d="M717.83,381.45l1.07-1.46c0.87,0.68,1.72,1.1,2.71,1.1c1.07,0,1.58-0.5,1.58-1.18c0-0.82-1.06-1.19-2.11-1.59
			c-1.29-0.48-2.76-1.22-2.76-2.86c0-1.7,1.38-2.94,3.58-2.94c1.37,0,2.46,0.56,3.26,1.18l-1.06,1.42c-0.69-0.5-1.38-0.86-2.15-0.86
			c-0.99,0-1.46,0.47-1.46,1.09c0,0.78,0.99,1.07,2.06,1.46c1.33,0.5,2.82,1.14,2.82,2.97c0,1.69-1.34,3.05-3.82,3.05
			C720.2,382.82,718.79,382.24,717.83,381.45z"/>
		<path class="st4" d="M727.27,379.27v-4.68h-1.4v-1.73l1.52-0.1l0.27-2.68h1.91v2.68h2.5v1.83h-2.5v4.68
			c0,1.16,0.45,1.72,1.39,1.72c0.34,0,0.74-0.11,1.02-0.22l0.39,1.7c-0.54,0.18-1.22,0.36-2.01,0.36
			C728.11,382.82,727.27,381.39,727.27,379.27z"/>
		<path class="st4" d="M733.64,372.75h1.89l0.18,1.75h0.06c0.7-1.28,1.74-1.99,2.79-1.99c0.5,0,0.82,0.06,1.11,0.2l-0.4,2
			c-0.34-0.1-0.6-0.16-1.01-0.16c-0.78,0-1.73,0.54-2.32,2.03v5.99h-2.3V372.75z"/>
		<path class="st4" d="M740.07,379.94c0-2.1,1.74-3.2,5.78-3.63c-0.03-1.06-0.46-1.94-1.78-1.94c-0.98,0-1.9,0.44-2.76,0.97
			l-0.85-1.54c1.08-0.68,2.47-1.29,4.03-1.29c2.46,0,3.67,1.51,3.67,4.25v5.82h-1.89l-0.18-1.09h-0.06
			c-0.88,0.75-1.89,1.33-3.05,1.33C741.26,382.82,740.07,381.65,740.07,379.94z M745.85,379.95v-2.21
			c-2.66,0.34-3.55,1.03-3.55,2.02c0,0.87,0.59,1.25,1.42,1.25C744.51,381.01,745.12,380.62,745.85,379.95z"/>
		<path class="st4" d="M749.82,377.67c0-3.2,2.01-5.16,4.16-5.16c1.11,0,1.82,0.42,2.58,1.08l-0.09-1.58v-3.56h2.3v14.13h-1.89
			l-0.18-1.06h-0.06c-0.73,0.73-1.74,1.3-2.79,1.3C751.41,382.82,749.82,380.91,749.82,377.67z M756.47,379.81v-4.58
			c-0.67-0.6-1.34-0.82-2-0.82c-1.25,0-2.28,1.18-2.28,3.23c0,2.14,0.82,3.26,2.23,3.26C755.18,380.91,755.82,380.58,756.47,379.81z
			"/>
		<path class="st4" d="M760.94,369.73c0-0.78,0.61-1.3,1.42-1.3c0.82,0,1.42,0.53,1.42,1.3c0,0.76-0.61,1.3-1.42,1.3
			C761.55,371.03,760.94,370.49,760.94,369.73z M761.2,372.75h2.3v9.83h-2.3V372.75z"/>
		<path class="st4" d="M765.29,377.67c0-3.27,2.22-5.16,4.67-5.16c2.45,0,4.67,1.89,4.67,5.16c0,3.26-2.22,5.15-4.67,5.15
			C767.52,382.82,765.29,380.93,765.29,377.67z M772.27,377.67c0-1.97-0.86-3.28-2.3-3.28s-2.3,1.31-2.3,3.28
			c0,1.97,0.86,3.27,2.3,3.27S772.27,379.64,772.27,377.67z"/>
		<path class="st4" d="M776.42,380.05v-11.6h2.3v11.72c0,0.57,0.26,0.77,0.5,0.77c0.1,0,0.18,0,0.36-0.04l0.29,1.72
			c-0.28,0.11-0.66,0.2-1.22,0.2C777.02,382.82,776.42,381.76,776.42,380.05z"/>
	</g>
</g>
<g>
	<g>
		<path class="st4" d="M716.9,120.17h3.49c4.01,0,6.38,2.16,6.38,6.49c0,4.33-2.37,6.59-6.26,6.59h-3.61V120.17z M720.23,131.37
			c2.63,0,4.15-1.5,4.15-4.71c0-3.22-1.51-4.61-4.15-4.61h-1.02v9.32H720.23z"/>
		<path class="st4" d="M728.9,120.17h2.32v5.26h5.29v-5.26h2.32v13.08h-2.32v-5.8h-5.29v5.8h-2.32V120.17z"/>
		<path class="st4" d="M741.66,120.17h7.87v1.95h-5.55v3.35h4.71v1.95h-4.71v3.87h5.75v1.95h-8.07V120.17z"/>
		<path class="st4" d="M754.48,120.17h2.72l4.27,13.08h-2.46l-1.99-6.96c-0.42-1.38-0.8-2.88-1.18-4.31h-0.08
			c-0.36,1.45-0.74,2.93-1.16,4.31l-2.01,6.96h-2.37L754.48,120.17z M752.73,127.89h6.16v1.82h-6.16V127.89z"/>
		<path class="st4" d="M761.68,131.57l1.35-1.59c0.94,0.89,2.19,1.49,3.41,1.49c1.47,0,2.28-0.67,2.28-1.69
			c0-1.08-0.84-1.42-2.03-1.92l-1.79-0.78c-1.29-0.54-2.64-1.56-2.64-3.47c0-2.08,1.84-3.69,4.39-3.69c1.53,0,3.01,0.63,4.03,1.67
			l-1.19,1.47c-0.83-0.71-1.72-1.12-2.84-1.12c-1.24,0-2.05,0.58-2.05,1.54c0,1.03,1,1.41,2.08,1.85l1.76,0.74
			c1.56,0.65,2.64,1.63,2.64,3.53c0,2.12-1.76,3.89-4.7,3.89C764.63,133.49,762.92,132.8,761.68,131.57z"/>
	</g>
</g>
<g>
	<g>
		<path class="st18" d="M300.7,114.78h2.78v-7.35h-2.38v-1.82c1.36-0.26,2.26-0.6,3.15-1.16h2.17v10.33h2.38v2.37h-8.1V114.78z"/>
		<path class="st18" d="M315.94,106.92h-5.69v-2.47h8.84v1.81c-2.95,3.54-3.35,5.94-3.59,10.89h-2.95
			C312.78,112.93,313.54,110.25,315.94,106.92z"/>
		<path class="st18" d="M323.85,110.58c0-4.26,2.41-6.7,5.92-6.7c3.52,0,5.92,2.46,5.92,6.7c0,4.26-2.41,6.82-5.92,6.82
			C326.26,117.39,323.85,114.84,323.85,110.58z M332.67,110.58c0-2.61-1.12-4.16-2.9-4.16c-1.78,0-2.9,1.54-2.9,4.16
			s1.12,4.27,2.9,4.27C331.55,114.85,332.67,113.19,332.67,110.58z"/>
		<path class="st18" d="M337.65,104.11h2.95v5.02h4.5v-5.02h2.95v13.04h-2.95v-5.44h-4.5v5.44h-2.95V104.11z"/>
		<path class="st18" d="M266.8,122.11h4.48c2.87,0,5.18,1.03,5.18,4.19c0,3.06-2.34,4.42-5.1,4.42h-1.61v4.42h-2.95V122.11z
			 M271.18,128.39c1.62,0,2.39-0.72,2.39-2.08c0-1.36-0.87-1.85-2.47-1.85h-1.36v3.93H271.18z"/>
		<path class="st18" d="M277.97,125.23h2.4l0.21,1.73h0.07c0.72-1.32,1.81-1.97,2.82-1.97c0.57,0,0.9,0.07,1.18,0.2l-0.49,2.54
			c-0.35-0.09-0.65-0.16-1.07-0.16c-0.75,0-1.66,0.48-2.19,1.84v5.75h-2.94V125.23z"/>
		<path class="st18" d="M284.86,130.19c0-3.22,2.3-5.21,4.68-5.21c2.83,0,4.23,2.05,4.23,4.76c0,0.53-0.07,1.06-0.12,1.3h-5.94
			c0.26,1.44,1.25,2.1,2.57,2.1c0.75,0,1.43-0.23,2.15-0.65l0.97,1.77c-1.02,0.7-2.34,1.12-3.52,1.12
			C287.05,135.39,284.86,133.48,284.86,130.19z M291.25,129.11c0-1.09-0.48-1.88-1.65-1.88c-0.93,0-1.73,0.62-1.93,1.88H291.25z"/>
		<path class="st18" d="M294.68,136.86c0-0.82,0.49-1.49,1.41-2v-0.08c-0.51-0.35-0.91-0.87-0.91-1.68c0-0.72,0.48-1.42,1.11-1.86
			v-0.08c-0.7-0.49-1.33-1.42-1.33-2.58c0-2.38,1.97-3.59,4.1-3.59c0.55,0,1.09,0.09,1.54,0.24h3.63v2.14h-1.6
			c0.19,0.3,0.34,0.79,0.34,1.31c0,2.28-1.74,3.33-3.91,3.33c-0.36,0-0.77-0.06-1.21-0.19c-0.24,0.21-0.35,0.39-0.35,0.74
			c0,0.49,0.4,0.73,1.48,0.73h1.61c2.43,0,3.79,0.75,3.79,2.52c0,2.06-2.15,3.56-5.55,3.56
			C296.53,139.37,294.68,138.62,294.68,136.86z M301.57,136.31c0-0.63-0.54-0.77-1.51-0.77h-1.03c-0.68,0-1.07-0.04-1.39-0.13
			c-0.37,0.31-0.54,0.62-0.54,0.97c0,0.75,0.87,1.14,2.2,1.14C300.63,137.53,301.57,137,301.57,136.31z M300.42,128.58
			c0-1.06-0.57-1.61-1.35-1.61c-0.78,0-1.35,0.55-1.35,1.61c0,1.09,0.58,1.65,1.35,1.65C299.84,130.23,300.42,129.67,300.42,128.58z
			"/>
		<path class="st18" d="M305.47,125.23h2.4l0.21,1.26h0.07c0.84-0.8,1.84-1.5,3.19-1.5c2.16,0,3.08,1.52,3.08,4v6.16h-2.94v-5.78
			c0-1.43-0.38-1.88-1.23-1.88c-0.74,0-1.19,0.34-1.84,0.96v6.7h-2.94V125.23z"/>
		<path class="st18" d="M315.84,130.19c0-3.22,2.3-5.21,4.68-5.21c2.83,0,4.23,2.05,4.23,4.76c0,0.53-0.07,1.06-0.12,1.3h-5.94
			c0.26,1.44,1.25,2.1,2.57,2.1c0.75,0,1.43-0.23,2.15-0.65l0.97,1.77c-1.02,0.7-2.34,1.12-3.52,1.12
			C318.03,135.39,315.84,133.48,315.84,130.19z M322.23,129.11c0-1.09-0.48-1.88-1.65-1.88c-0.93,0-1.73,0.62-1.93,1.88H322.23z"/>
		<path class="st18" d="M326.27,125.23h2.4l0.21,1.26h0.07c0.84-0.8,1.84-1.5,3.19-1.5c2.16,0,3.08,1.52,3.08,4v6.16h-2.94v-5.78
			c0-1.43-0.38-1.88-1.23-1.88c-0.74,0-1.19,0.34-1.84,0.96v6.7h-2.94V125.23z"/>
		<path class="st18" d="M336.64,130.19c0-3.3,2.32-5.21,4.83-5.21s4.83,1.91,4.83,5.21c0,3.29-2.32,5.2-4.83,5.2
			S336.64,133.49,336.64,130.19z M343.29,130.19c0-1.72-0.6-2.83-1.82-2.83s-1.82,1.12-1.82,2.83c0,1.72,0.6,2.83,1.82,2.83
			S343.29,131.91,343.29,130.19z"/>
		<path class="st18" d="M347.81,132.07v-10.93h2.94v11.05c0,0.63,0.29,0.83,0.53,0.83c0.11,0,0.19,0,0.36-0.04l0.35,2.17
			c-0.32,0.14-0.81,0.25-1.48,0.25C348.5,135.39,347.81,134.08,347.81,132.07z"/>
		<path class="st18" d="M352.46,130.19c0-3.3,2.32-5.21,4.83-5.21s4.83,1.91,4.83,5.21c0,3.29-2.32,5.2-4.83,5.2
			S352.46,133.49,352.46,130.19z M359.11,130.19c0-1.72-0.6-2.83-1.82-2.83s-1.82,1.12-1.82,2.83c0,1.72,0.6,2.83,1.82,2.83
			S359.11,131.91,359.11,130.19z"/>
		<path class="st18" d="M363.63,125.23h2.4l0.21,1.26h0.07c0.84-0.8,1.84-1.5,3.19-1.5c2.16,0,3.08,1.52,3.08,4v6.16h-2.94v-5.78
			c0-1.43-0.38-1.88-1.23-1.88c-0.74,0-1.19,0.34-1.84,0.96v6.7h-2.94V125.23z"/>
		<path class="st18" d="M374,130.19c0-3.22,2.3-5.21,4.68-5.21c2.83,0,4.23,2.05,4.23,4.76c0,0.53-0.07,1.06-0.12,1.3h-5.94
			c0.26,1.44,1.25,2.1,2.57,2.1c0.75,0,1.43-0.23,2.15-0.65l0.97,1.77c-1.02,0.7-2.34,1.12-3.52,1.12
			C376.19,135.39,374,133.48,374,130.19z M380.39,129.11c0-1.09-0.48-1.88-1.65-1.88c-0.93,0-1.73,0.62-1.93,1.88H380.39z"/>
	</g>
</g>
<g>
	<g>
		<path class="st18" d="M300.7,195.14h2.78v-7.35h-2.38v-1.82c1.36-0.26,2.26-0.6,3.15-1.16h2.17v10.33h2.38v2.37h-8.1V195.14z"/>
		<path class="st18" d="M315.94,187.28h-5.69v-2.47h8.84v1.81c-2.95,3.54-3.35,5.94-3.59,10.89h-2.95
			C312.78,193.29,313.54,190.61,315.94,187.28z"/>
		<path class="st18" d="M323.85,190.94c0-4.26,2.41-6.7,5.92-6.7c3.52,0,5.92,2.46,5.92,6.7c0,4.26-2.41,6.82-5.92,6.82
			C326.26,197.75,323.85,195.2,323.85,190.94z M332.67,190.94c0-2.61-1.12-4.16-2.9-4.16c-1.78,0-2.9,1.54-2.9,4.16
			c0,2.61,1.12,4.27,2.9,4.27C331.55,195.21,332.67,193.55,332.67,190.94z"/>
		<path class="st18" d="M337.65,184.47h2.95v5.02h4.5v-5.02h2.95v13.04h-2.95v-5.44h-4.5v5.44h-2.95V184.47z"/>
		<path class="st18" d="M268.86,202.47h4.48c2.87,0,5.18,1.03,5.18,4.19c0,3.06-2.34,4.42-5.1,4.42h-1.61v4.42h-2.95V202.47z
			 M273.24,208.75c1.62,0,2.39-0.72,2.39-2.08c0-1.36-0.87-1.85-2.47-1.85h-1.36v3.93H273.24z"/>
		<path class="st18" d="M280.03,205.59h2.4l0.21,1.73h0.07c0.72-1.32,1.81-1.97,2.82-1.97c0.57,0,0.9,0.07,1.18,0.2l-0.49,2.54
			c-0.35-0.09-0.65-0.16-1.07-0.16c-0.75,0-1.66,0.48-2.19,1.84v5.75h-2.94V205.59z"/>
		<path class="st18" d="M286.92,210.55c0-3.3,2.32-5.21,4.83-5.21s4.83,1.91,4.83,5.21c0,3.29-2.32,5.2-4.83,5.2
			S286.92,213.85,286.92,210.55z M293.57,210.55c0-1.72-0.6-2.83-1.82-2.83s-1.82,1.12-1.82,2.83c0,1.72,0.6,2.83,1.82,2.83
			S293.57,212.27,293.57,210.55z"/>
		<path class="st18" d="M297.48,217.22c0-0.82,0.49-1.49,1.41-2v-0.08c-0.51-0.35-0.91-0.87-0.91-1.69c0-0.72,0.48-1.41,1.11-1.86
			v-0.08c-0.7-0.49-1.33-1.41-1.33-2.57c0-2.38,1.97-3.59,4.1-3.59c0.55,0,1.09,0.09,1.54,0.24h3.63v2.14h-1.6
			c0.19,0.3,0.34,0.79,0.34,1.31c0,2.28-1.74,3.33-3.91,3.33c-0.36,0-0.77-0.06-1.21-0.19c-0.24,0.21-0.35,0.39-0.35,0.74
			c0,0.49,0.4,0.73,1.48,0.73h1.61c2.43,0,3.79,0.75,3.79,2.52c0,2.06-2.15,3.56-5.55,3.56
			C299.33,219.73,297.48,218.98,297.48,217.22z M304.37,216.67c0-0.63-0.54-0.77-1.51-0.77h-1.03c-0.68,0-1.07-0.04-1.39-0.13
			c-0.37,0.31-0.54,0.62-0.54,0.97c0,0.75,0.87,1.14,2.2,1.14C303.43,217.89,304.37,217.36,304.37,216.67z M303.22,208.94
			c0-1.06-0.57-1.61-1.35-1.61c-0.78,0-1.35,0.55-1.35,1.61c0,1.09,0.58,1.65,1.35,1.65S303.22,210.03,303.22,208.94z"/>
		<path class="st18" d="M307.7,210.55c0-3.22,2.3-5.21,4.68-5.21c2.83,0,4.23,2.05,4.23,4.76c0,0.53-0.07,1.06-0.12,1.3h-5.94
			c0.26,1.44,1.25,2.1,2.57,2.1c0.75,0,1.43-0.23,2.15-0.65l0.97,1.77c-1.02,0.7-2.34,1.12-3.52,1.12
			C309.89,215.75,307.7,213.84,307.7,210.55z M314.09,209.47c0-1.09-0.48-1.88-1.65-1.88c-0.93,0-1.73,0.62-1.93,1.88H314.09z"/>
		<path class="st18" d="M317.26,214.37l1.32-1.83c0.9,0.68,1.73,1.04,2.56,1.04c0.88,0,1.25-0.33,1.25-0.85c0-0.65-0.98-0.95-2-1.35
			c-1.22-0.47-2.63-1.28-2.63-2.92c0-1.85,1.5-3.11,3.79-3.11c1.52,0,2.65,0.61,3.5,1.26l-1.32,1.77c-0.71-0.51-1.4-0.85-2.09-0.85
			c-0.76,0-1.13,0.3-1.13,0.79c0,0.63,0.93,0.88,1.96,1.25c1.26,0.46,2.67,1.17,2.67,2.99c0,1.8-1.42,3.2-4.08,3.2
			C319.76,215.75,318.26,215.19,317.26,214.37z"/>
		<path class="st18" d="M326.89,211.9v-4.01h-1.36v-2.19l1.52-0.11l0.34-2.64h2.43v2.64h2.38v2.31h-2.38v3.97
			c0,1.12,0.51,1.58,1.29,1.58c0.33,0,0.68-0.09,0.94-0.19l0.46,2.14c-0.53,0.17-1.24,0.36-2.21,0.36
			C327.87,215.75,326.89,214.2,326.89,211.9z"/>
		<path class="st18" d="M333.08,210.55c0-3.22,2.3-5.21,4.68-5.21c2.83,0,4.23,2.05,4.23,4.76c0,0.53-0.07,1.06-0.12,1.3h-5.94
			c0.26,1.44,1.25,2.1,2.57,2.1c0.75,0,1.43-0.23,2.15-0.65l0.97,1.77c-1.02,0.7-2.34,1.12-3.52,1.12
			C335.27,215.75,333.08,213.84,333.08,210.55z M339.47,209.47c0-1.09-0.48-1.88-1.65-1.88c-0.93,0-1.73,0.62-1.93,1.88H339.47z"/>
		<path class="st18" d="M343.51,205.59h2.4l0.21,1.73h0.07c0.72-1.32,1.81-1.97,2.82-1.97c0.57,0,0.9,0.07,1.18,0.2l-0.49,2.54
			c-0.35-0.09-0.65-0.16-1.07-0.16c-0.75,0-1.66,0.48-2.19,1.84v5.75h-2.94V205.59z"/>
		<path class="st18" d="M350.4,210.55c0-3.3,2.32-5.21,4.83-5.21s4.83,1.91,4.83,5.21c0,3.29-2.32,5.2-4.83,5.2
			S350.4,213.85,350.4,210.55z M357.05,210.55c0-1.72-0.6-2.83-1.82-2.83s-1.82,1.12-1.82,2.83c0,1.72,0.6,2.83,1.82,2.83
			S357.05,212.27,357.05,210.55z"/>
		<path class="st18" d="M361.57,205.59h2.4l0.21,1.26h0.07c0.84-0.8,1.84-1.5,3.19-1.5c2.16,0,3.08,1.52,3.08,4v6.16h-2.94v-5.78
			c0-1.43-0.38-1.88-1.23-1.88c-0.74,0-1.19,0.34-1.84,0.96v6.7h-2.94V205.59z"/>
		<path class="st18" d="M371.94,210.55c0-3.22,2.3-5.21,4.68-5.21c2.83,0,4.23,2.05,4.23,4.76c0,0.53-0.07,1.06-0.12,1.3h-5.94
			c0.26,1.44,1.25,2.1,2.57,2.1c0.75,0,1.43-0.23,2.15-0.65l0.97,1.77c-1.02,0.7-2.34,1.12-3.52,1.12
			C374.13,215.75,371.94,213.84,371.94,210.55z M378.33,209.47c0-1.09-0.48-1.88-1.65-1.88c-0.93,0-1.73,0.62-1.93,1.88H378.33z"/>
	</g>
</g>
<g>
	<g>
		<path class="st18" d="M315.53,288.66h2.78v-7.35h-2.38v-1.82c1.36-0.26,2.26-0.6,3.15-1.16h2.17v10.33h2.38v2.37h-8.1V288.66z"/>
		<path class="st18" d="M325.59,288.66h2.78v-7.35h-2.38v-1.82c1.36-0.26,2.26-0.6,3.15-1.16h2.17v10.33h2.38v2.37h-8.1V288.66z"/>
		<path class="st18" d="M267.93,295.99h3.69c3.98,0,6.55,1.98,6.55,6.46c0,4.48-2.57,6.58-6.38,6.58h-3.85V295.99z M271.43,306.66
			c2.21,0,3.71-1.08,3.71-4.2s-1.49-4.09-3.71-4.09h-0.56v8.29H271.43z"/>
		<path class="st18" d="M279.31,304.07c0-3.22,2.3-5.21,4.68-5.21c2.83,0,4.23,2.05,4.23,4.76c0,0.53-0.07,1.06-0.12,1.3h-5.94
			c0.26,1.44,1.25,2.1,2.57,2.1c0.75,0,1.43-0.23,2.15-0.65l0.97,1.77c-1.02,0.7-2.34,1.12-3.52,1.12
			C281.5,309.27,279.31,307.36,279.31,304.07z M285.7,302.99c0-1.09-0.48-1.88-1.65-1.88c-0.93,0-1.73,0.62-1.93,1.88H285.7z"/>
		<path class="st18" d="M289.17,304.07c0-3.3,2.32-5.21,4.83-5.21s4.83,1.91,4.83,5.21c0,3.29-2.32,5.2-4.83,5.2
			S289.17,307.37,289.17,304.07z M295.82,304.07c0-1.72-0.6-2.83-1.82-2.83s-1.82,1.12-1.82,2.83c0,1.72,0.6,2.83,1.82,2.83
			S295.82,305.79,295.82,304.07z"/>
		<path class="st18" d="M302.38,303.87l-2.87-4.76h3.15l0.88,1.6c0.27,0.55,0.56,1.14,0.84,1.69h0.08c0.21-0.55,0.47-1.14,0.68-1.69
			l0.68-1.6h3.05l-2.87,5.1l3.05,4.83h-3.15l-0.98-1.64c-0.31-0.57-0.61-1.17-0.93-1.73h-0.08c-0.25,0.56-0.51,1.14-0.76,1.73
			l-0.77,1.64h-3.05L302.38,303.87z"/>
		<path class="st18" d="M309.82,312.71l0.52-2.24c0.18,0.05,0.45,0.13,0.67,0.13c0.97,0,1.48-0.53,1.74-1.3l0.15-0.52l-3.83-9.67
			h2.95l1.42,4.27c0.29,0.9,0.52,1.84,0.78,2.81h0.08c0.22-0.94,0.44-1.88,0.69-2.81l1.2-4.27h2.82l-3.45,10.03
			c-0.94,2.49-2,3.77-4.33,3.77C310.62,312.91,310.23,312.83,309.82,312.71z"/>
		<path class="st18" d="M319.47,304.07c0-3.3,2.43-5.21,5.17-5.21c1.22,0,2.16,0.44,2.9,1.07l-1.39,1.89
			c-0.48-0.4-0.87-0.59-1.35-0.59c-1.41,0-2.32,1.12-2.32,2.83c0,1.72,0.95,2.83,2.22,2.83c0.65,0,1.27-0.32,1.79-0.73l1.15,1.92
			c-0.97,0.85-2.2,1.18-3.27,1.18C321.6,309.27,319.47,307.37,319.47,304.07z"/>
		<path class="st18" d="M328.31,304.07c0-3.3,2.32-5.21,4.83-5.21s4.83,1.91,4.83,5.21c0,3.29-2.32,5.2-4.83,5.2
			S328.31,307.37,328.31,304.07z M334.96,304.07c0-1.72-0.6-2.83-1.82-2.83s-1.82,1.12-1.82,2.83c0,1.72,0.6,2.83,1.82,2.83
			S334.96,305.79,334.96,304.07z"/>
		<path class="st18" d="M339.48,299.11h2.4l0.21,1.73h0.07c0.72-1.32,1.81-1.97,2.82-1.97c0.57,0,0.9,0.07,1.18,0.2l-0.49,2.54
			c-0.35-0.09-0.65-0.16-1.07-0.16c-0.75,0-1.66,0.48-2.19,1.84v5.75h-2.94V299.11z"/>
		<path class="st18" d="M347.34,305.42v-4.01h-1.36v-2.19l1.52-0.11l0.34-2.64h2.43v2.64h2.38v2.31h-2.38v3.97
			c0,1.12,0.51,1.58,1.29,1.58c0.33,0,0.68-0.09,0.94-0.19l0.46,2.14c-0.53,0.17-1.24,0.36-2.21,0.36
			C348.31,309.27,347.34,307.72,347.34,305.42z"/>
		<path class="st18" d="M353.87,296.12c0-0.9,0.72-1.54,1.7-1.54s1.7,0.64,1.7,1.54c0,0.89-0.72,1.54-1.7,1.54
			S353.87,297.01,353.87,296.12z M354.1,299.11h2.94v9.92h-2.94V299.11z"/>
		<path class="st18" d="M358.24,307.89l1.32-1.83c0.9,0.68,1.73,1.04,2.56,1.04c0.88,0,1.25-0.33,1.25-0.85c0-0.65-0.98-0.95-2-1.35
			c-1.22-0.47-2.63-1.28-2.63-2.92c0-1.85,1.5-3.11,3.79-3.11c1.52,0,2.65,0.61,3.5,1.26l-1.32,1.77c-0.71-0.51-1.4-0.85-2.09-0.85
			c-0.76,0-1.13,0.3-1.13,0.79c0,0.63,0.93,0.88,1.96,1.25c1.26,0.46,2.67,1.17,2.67,2.99c0,1.8-1.42,3.2-4.08,3.2
			C360.75,309.27,359.25,308.7,358.24,307.89z"/>
		<path class="st18" d="M366.91,304.07c0-3.3,2.32-5.21,4.83-5.21s4.83,1.91,4.83,5.21c0,3.29-2.32,5.2-4.83,5.2
			S366.91,307.37,366.91,304.07z M373.56,304.07c0-1.72-0.6-2.83-1.82-2.83s-1.82,1.12-1.82,2.83c0,1.72,0.6,2.83,1.82,2.83
			S373.56,305.79,373.56,304.07z"/>
		<path class="st18" d="M378.08,305.95v-10.93h2.94v11.05c0,0.63,0.29,0.83,0.53,0.83c0.11,0,0.19,0,0.36-0.04l0.35,2.17
			c-0.32,0.14-0.81,0.25-1.48,0.25C378.77,309.27,378.08,307.96,378.08,305.95z"/>
	</g>
</g>
<g>
	<g>
		<path class="st18" d="M292.34,374.21c0-4.33,2.86-6.83,6.15-6.83c1.69,0,3.04,0.79,3.92,1.69l-1.55,1.89
			c-0.65-0.61-1.36-1.04-2.3-1.04c-1.79,0-3.2,1.58-3.2,4.19c0,2.68,1.25,4.24,3.15,4.24c1.07,0,1.91-0.53,2.55-1.22l1.55,1.85
			c-1.08,1.26-2.52,1.91-4.21,1.91C295.1,380.9,292.34,378.61,292.34,374.21z"/>
		<path class="st18" d="M303.28,375.7c0-3.3,2.32-5.21,4.83-5.21s4.83,1.91,4.83,5.21c0,3.29-2.32,5.2-4.83,5.2
			S303.28,378.99,303.28,375.7z M309.93,375.7c0-1.72-0.6-2.83-1.82-2.83s-1.82,1.12-1.82,2.83c0,1.72,0.6,2.83,1.82,2.83
			S309.93,377.42,309.93,375.7z"/>
		<path class="st18" d="M314.45,370.73h2.4l0.21,1.73h0.07c0.72-1.32,1.81-1.97,2.82-1.97c0.57,0,0.9,0.07,1.18,0.2l-0.49,2.54
			c-0.35-0.09-0.65-0.16-1.07-0.16c-0.75,0-1.66,0.48-2.19,1.84v5.75h-2.94V370.73z"/>
		<path class="st18" d="M322.31,377.05v-4.01h-1.36v-2.19l1.52-0.11l0.34-2.64h2.43v2.64h2.38v2.31h-2.38v3.97
			c0,1.12,0.51,1.58,1.29,1.58c0.33,0,0.68-0.09,0.94-0.19l0.46,2.14c-0.53,0.17-1.24,0.36-2.21,0.36
			C323.29,380.9,322.31,379.35,322.31,377.05z"/>
		<path class="st18" d="M328.84,367.74c0-0.9,0.72-1.54,1.7-1.54s1.7,0.64,1.7,1.54c0,0.89-0.72,1.54-1.7,1.54
			S328.84,368.64,328.84,367.74z M329.07,370.73h2.94v9.92h-2.94V370.73z"/>
		<path class="st18" d="M333.21,379.51l1.32-1.83c0.9,0.68,1.73,1.04,2.56,1.04c0.88,0,1.25-0.33,1.25-0.85c0-0.65-0.98-0.95-2-1.35
			c-1.22-0.47-2.63-1.28-2.63-2.92c0-1.85,1.5-3.11,3.79-3.11c1.52,0,2.65,0.61,3.5,1.26l-1.32,1.77c-0.71-0.51-1.4-0.85-2.09-0.85
			c-0.76,0-1.13,0.3-1.13,0.79c0,0.63,0.93,0.88,1.96,1.25c1.26,0.46,2.67,1.17,2.67,2.99c0,1.8-1.42,3.2-4.08,3.2
			C335.72,380.9,334.22,380.33,333.21,379.51z"/>
		<path class="st18" d="M341.88,375.7c0-3.3,2.32-5.21,4.83-5.21s4.83,1.91,4.83,5.21c0,3.29-2.32,5.2-4.83,5.2
			S341.88,378.99,341.88,375.7z M348.53,375.7c0-1.72-0.6-2.83-1.82-2.83s-1.82,1.12-1.82,2.83c0,1.72,0.6,2.83,1.82,2.83
			S348.53,377.42,348.53,375.7z"/>
		<path class="st18" d="M353.05,377.57v-10.93h2.94v11.05c0,0.63,0.29,0.83,0.53,0.83c0.11,0,0.19,0,0.36-0.04l0.35,2.17
			c-0.32,0.14-0.81,0.25-1.48,0.25C353.74,380.9,353.05,379.58,353.05,377.57z"/>
	</g>
</g>
<g>
	<g>
		<path class="st19" d="M36.97,203.14h4.48c2.87,0,5.18,1.03,5.18,4.19c0,3.06-2.34,4.42-5.1,4.42h-1.61v4.42h-2.95V203.14z
			 M41.35,209.42c1.62,0,2.39-0.72,2.39-2.08c0-1.36-0.87-1.85-2.47-1.85h-1.36v3.93H41.35z"/>
		<path class="st19" d="M48.14,206.26h2.4l0.21,1.73h0.07c0.72-1.32,1.81-1.97,2.82-1.97c0.57,0,0.9,0.07,1.18,0.2l-0.49,2.54
			c-0.35-0.09-0.65-0.16-1.07-0.16c-0.75,0-1.66,0.48-2.19,1.84v5.75h-2.94V206.26z"/>
		<path class="st19" d="M55.03,211.22c0-3.3,2.32-5.21,4.83-5.21s4.83,1.91,4.83,5.21c0,3.29-2.32,5.2-4.83,5.2
			S55.03,214.51,55.03,211.22z M61.68,211.22c0-1.72-0.6-2.83-1.82-2.83s-1.82,1.12-1.82,2.83c0,1.72,0.6,2.83,1.82,2.83
			S61.68,212.94,61.68,211.22z"/>
		<path class="st19" d="M65.59,217.88c0-0.82,0.49-1.49,1.41-2v-0.08c-0.51-0.35-0.91-0.87-0.91-1.69c0-0.72,0.48-1.41,1.11-1.86
			v-0.08c-0.7-0.49-1.33-1.41-1.33-2.57c0-2.38,1.97-3.59,4.1-3.59c0.55,0,1.09,0.09,1.54,0.24h3.63v2.14h-1.6
			c0.19,0.3,0.34,0.79,0.34,1.31c0,2.28-1.74,3.33-3.91,3.33c-0.36,0-0.77-0.06-1.21-0.19c-0.24,0.21-0.35,0.39-0.35,0.74
			c0,0.49,0.4,0.73,1.48,0.73h1.61c2.43,0,3.79,0.75,3.79,2.52c0,2.06-2.15,3.56-5.55,3.56C67.44,220.4,65.59,219.65,65.59,217.88z
			 M72.49,217.34c0-0.63-0.54-0.77-1.51-0.77h-1.03c-0.68,0-1.07-0.04-1.39-0.13c-0.37,0.31-0.54,0.62-0.54,0.97
			c0,0.75,0.87,1.14,2.2,1.14C71.54,218.55,72.49,218.03,72.49,217.34z M71.33,209.61c0-1.06-0.57-1.61-1.35-1.61
			c-0.78,0-1.35,0.55-1.35,1.61c0,1.09,0.58,1.65,1.35,1.65S71.33,210.69,71.33,209.61z"/>
		<path class="st19" d="M75.81,211.22c0-3.22,2.3-5.21,4.68-5.21c2.83,0,4.23,2.05,4.23,4.76c0,0.53-0.07,1.06-0.12,1.3h-5.94
			c0.26,1.44,1.25,2.1,2.57,2.1c0.75,0,1.43-0.23,2.15-0.65l0.97,1.77c-1.02,0.7-2.34,1.12-3.52,1.12
			C78,216.42,75.81,214.51,75.81,211.22z M82.2,210.13c0-1.09-0.48-1.88-1.65-1.88c-0.93,0-1.73,0.62-1.93,1.88H82.2z"/>
		<path class="st19" d="M85.37,215.03l1.32-1.83c0.9,0.68,1.73,1.04,2.56,1.04c0.88,0,1.25-0.33,1.25-0.85c0-0.65-0.98-0.95-2-1.35
			c-1.22-0.47-2.63-1.28-2.63-2.92c0-1.85,1.5-3.11,3.79-3.11c1.52,0,2.65,0.61,3.5,1.26l-1.32,1.77c-0.71-0.51-1.4-0.85-2.09-0.85
			c-0.76,0-1.13,0.3-1.13,0.79c0,0.63,0.93,0.88,1.96,1.25c1.26,0.46,2.67,1.17,2.67,2.99c0,1.8-1.42,3.2-4.08,3.2
			C87.87,216.42,86.37,215.85,85.37,215.03z"/>
		<path class="st19" d="M95,212.57v-4.01h-1.36v-2.19l1.52-0.11l0.34-2.64h2.43v2.64h2.38v2.31h-2.38v3.97
			c0,1.12,0.51,1.58,1.29,1.58c0.33,0,0.68-0.09,0.94-0.19l0.46,2.14c-0.53,0.17-1.24,0.36-2.21,0.36
			C95.98,216.42,95,214.87,95,212.57z"/>
		<path class="st19" d="M101.19,211.22c0-3.22,2.3-5.21,4.68-5.21c2.83,0,4.23,2.05,4.23,4.76c0,0.53-0.07,1.06-0.12,1.3h-5.94
			c0.26,1.44,1.25,2.1,2.57,2.1c0.75,0,1.43-0.23,2.15-0.65l0.97,1.77c-1.02,0.7-2.34,1.12-3.52,1.12
			C103.38,216.42,101.19,214.51,101.19,211.22z M107.58,210.13c0-1.09-0.48-1.88-1.65-1.88c-0.93,0-1.73,0.62-1.93,1.88H107.58z"/>
		<path class="st19" d="M111.62,206.26h2.4l0.21,1.73h0.07c0.72-1.32,1.81-1.97,2.82-1.97c0.57,0,0.9,0.07,1.18,0.2l-0.49,2.54
			c-0.35-0.09-0.65-0.16-1.07-0.16c-0.75,0-1.66,0.48-2.19,1.84v5.75h-2.94V206.26z"/>
		<path class="st19" d="M118.51,211.22c0-3.3,2.32-5.21,4.83-5.21s4.83,1.91,4.83,5.21c0,3.29-2.32,5.2-4.83,5.2
			S118.51,214.51,118.51,211.22z M125.16,211.22c0-1.72-0.6-2.83-1.82-2.83s-1.82,1.12-1.82,2.83c0,1.72,0.6,2.83,1.82,2.83
			S125.16,212.94,125.16,211.22z"/>
		<path class="st19" d="M129.68,206.26h2.4l0.21,1.26h0.07c0.84-0.8,1.84-1.5,3.19-1.5c2.16,0,3.08,1.52,3.08,4v6.16h-2.94v-5.78
			c0-1.43-0.38-1.88-1.23-1.88c-0.74,0-1.19,0.34-1.84,0.96v6.7h-2.94V206.26z"/>
		<path class="st19" d="M140.05,211.22c0-3.22,2.3-5.21,4.68-5.21c2.83,0,4.23,2.05,4.23,4.76c0,0.53-0.07,1.06-0.12,1.3h-5.94
			c0.26,1.44,1.25,2.1,2.57,2.1c0.75,0,1.43-0.23,2.15-0.65l0.97,1.77c-1.02,0.7-2.34,1.12-3.52,1.12
			C142.24,216.42,140.05,214.51,140.05,211.22z M146.44,210.13c0-1.09-0.48-1.88-1.65-1.88c-0.93,0-1.73,0.62-1.93,1.88H146.44z"/>
	</g>
</g>
<g>
	<g>
		<path class="st19" d="M36.97,285.06h3.69c3.98,0,6.55,1.98,6.55,6.46c0,4.48-2.57,6.58-6.38,6.58h-3.85V285.06z M40.48,295.73
			c2.21,0,3.71-1.08,3.71-4.2s-1.49-4.09-3.71-4.09h-0.56v8.29H40.48z"/>
		<path class="st19" d="M48.35,293.14c0-3.22,2.3-5.21,4.68-5.21c2.83,0,4.23,2.05,4.23,4.76c0,0.53-0.07,1.06-0.12,1.3H51.2
			c0.26,1.44,1.25,2.1,2.57,2.1c0.75,0,1.43-0.23,2.15-0.65l0.97,1.77c-1.02,0.7-2.34,1.12-3.52,1.12
			C50.54,298.34,48.35,296.43,48.35,293.14z M54.74,292.06c0-1.09-0.48-1.88-1.65-1.88c-0.93,0-1.73,0.62-1.93,1.88H54.74z"/>
		<path class="st19" d="M58.21,293.14c0-3.3,2.32-5.21,4.83-5.21s4.83,1.91,4.83,5.21c0,3.29-2.32,5.2-4.83,5.2
			S58.21,296.44,58.21,293.14z M64.86,293.14c0-1.72-0.6-2.83-1.82-2.83s-1.82,1.12-1.82,2.83c0,1.72,0.6,2.83,1.82,2.83
			S64.86,294.86,64.86,293.14z"/>
		<path class="st19" d="M71.42,292.94l-2.87-4.76h3.15l0.88,1.6c0.27,0.55,0.56,1.14,0.84,1.69h0.08c0.21-0.55,0.47-1.14,0.68-1.69
			l0.68-1.6h3.05l-2.87,5.1l3.05,4.83h-3.15l-0.98-1.64c-0.31-0.57-0.61-1.17-0.93-1.73h-0.08c-0.25,0.56-0.51,1.14-0.76,1.73
			l-0.77,1.64h-3.05L71.42,292.94z"/>
		<path class="st19" d="M78.86,301.78l0.52-2.24c0.18,0.05,0.45,0.13,0.67,0.13c0.97,0,1.48-0.53,1.74-1.3l0.15-0.52l-3.83-9.67
			h2.95l1.42,4.27c0.29,0.9,0.52,1.84,0.78,2.81h0.08c0.22-0.94,0.44-1.88,0.69-2.81l1.2-4.27h2.82l-3.45,10.03
			c-0.94,2.49-2,3.77-4.33,3.77C79.66,301.98,79.27,301.9,78.86,301.78z"/>
		<path class="st19" d="M88.51,293.14c0-3.3,2.43-5.21,5.17-5.21c1.22,0,2.16,0.44,2.9,1.07l-1.39,1.89
			c-0.48-0.4-0.87-0.59-1.35-0.59c-1.41,0-2.32,1.12-2.32,2.83c0,1.72,0.95,2.83,2.22,2.83c0.65,0,1.27-0.32,1.79-0.73l1.15,1.92
			c-0.97,0.85-2.2,1.18-3.27,1.18C90.64,298.34,88.51,296.44,88.51,293.14z"/>
		<path class="st19" d="M97.35,293.14c0-3.3,2.32-5.21,4.83-5.21s4.83,1.91,4.83,5.21c0,3.29-2.32,5.2-4.83,5.2
			S97.35,296.44,97.35,293.14z M104,293.14c0-1.72-0.6-2.83-1.82-2.83s-1.82,1.12-1.82,2.83c0,1.72,0.6,2.83,1.82,2.83
			S104,294.86,104,293.14z"/>
		<path class="st19" d="M108.52,288.18h2.4l0.21,1.73h0.07c0.72-1.32,1.81-1.97,2.82-1.97c0.57,0,0.9,0.07,1.18,0.2l-0.49,2.54
			c-0.35-0.09-0.65-0.16-1.07-0.16c-0.75,0-1.66,0.48-2.19,1.84v5.75h-2.94V288.18z"/>
		<path class="st19" d="M116.38,294.49v-4.01h-1.36v-2.19l1.52-0.11l0.34-2.64h2.43v2.64h2.38v2.31h-2.38v3.97
			c0,1.12,0.51,1.58,1.29,1.58c0.33,0,0.68-0.09,0.94-0.19l0.46,2.14c-0.53,0.17-1.24,0.36-2.21,0.36
			C117.36,298.34,116.38,296.79,116.38,294.49z"/>
		<path class="st19" d="M122.57,293.14c0-3.3,2.32-5.21,4.83-5.21c2.51,0,4.83,1.91,4.83,5.21c0,3.29-2.32,5.2-4.83,5.2
			C124.89,298.34,122.57,296.44,122.57,293.14z M129.22,293.14c0-1.72-0.6-2.83-1.82-2.83c-1.22,0-1.82,1.12-1.82,2.83
			c0,1.72,0.6,2.83,1.82,2.83C128.62,295.97,129.22,294.86,129.22,293.14z"/>
		<path class="st19" d="M133.17,293.14c0-3.3,2.43-5.21,5.17-5.21c1.22,0,2.16,0.44,2.9,1.07l-1.39,1.89
			c-0.48-0.4-0.87-0.59-1.35-0.59c-1.41,0-2.32,1.12-2.32,2.83c0,1.72,0.95,2.83,2.22,2.83c0.65,0,1.27-0.32,1.79-0.73l1.15,1.92
			c-0.97,0.85-2.2,1.18-3.27,1.18C135.3,298.34,133.17,296.44,133.17,293.14z"/>
		<path class="st19" d="M142.01,293.14c0-3.3,2.32-5.21,4.83-5.21s4.83,1.91,4.83,5.21c0,3.29-2.32,5.2-4.83,5.2
			S142.01,296.44,142.01,293.14z M148.66,293.14c0-1.72-0.6-2.83-1.82-2.83s-1.82,1.12-1.82,2.83c0,1.72,0.6,2.83,1.82,2.83
			S148.66,294.86,148.66,293.14z"/>
		<path class="st19" d="M152.31,296.96l1.32-1.83c0.9,0.68,1.73,1.04,2.56,1.04c0.88,0,1.25-0.33,1.25-0.85c0-0.65-0.98-0.95-2-1.35
			c-1.22-0.47-2.63-1.28-2.63-2.92c0-1.85,1.5-3.11,3.79-3.11c1.52,0,2.65,0.61,3.5,1.26l-1.32,1.77c-0.71-0.51-1.4-0.85-2.09-0.85
			c-0.76,0-1.13,0.3-1.13,0.79c0,0.63,0.93,0.88,1.96,1.25c1.26,0.46,2.67,1.17,2.67,2.99c0,1.8-1.42,3.2-4.08,3.2
			C154.81,298.34,153.31,297.78,152.31,296.96z"/>
		<path class="st19" d="M161.94,294.49v-4.01h-1.36v-2.19l1.52-0.11l0.34-2.64h2.43v2.64h2.38v2.31h-2.38v3.97
			c0,1.12,0.51,1.58,1.29,1.58c0.33,0,0.68-0.09,0.94-0.19l0.46,2.14c-0.53,0.17-1.24,0.36-2.21,0.36
			C162.91,298.34,161.94,296.79,161.94,294.49z"/>
		<path class="st19" d="M168.13,293.14c0-3.22,2.3-5.21,4.68-5.21c2.83,0,4.23,2.05,4.23,4.76c0,0.53-0.07,1.06-0.12,1.3h-5.94
			c0.26,1.44,1.25,2.1,2.57,2.1c0.75,0,1.43-0.23,2.15-0.65l0.97,1.77c-1.02,0.7-2.34,1.12-3.52,1.12
			C170.32,298.34,168.13,296.43,168.13,293.14z M174.52,292.06c0-1.09-0.48-1.88-1.65-1.88c-0.93,0-1.73,0.62-1.93,1.88H174.52z"/>
		<path class="st19" d="M178.13,292h4.91v2.08h-4.91V292z"/>
	</g>
</g>
<g>
	<g>
		<path class="st19" d="M36.35,373.58c0-4.33,2.86-6.83,6.15-6.83c1.69,0,3.04,0.79,3.92,1.69l-1.55,1.89
			c-0.65-0.61-1.36-1.04-2.3-1.04c-1.79,0-3.2,1.58-3.2,4.19c0,2.68,1.25,4.24,3.15,4.24c1.07,0,1.91-0.53,2.55-1.22l1.55,1.85
			c-1.08,1.26-2.52,1.91-4.21,1.91C39.11,380.27,36.35,377.97,36.35,373.58z"/>
		<path class="st19" d="M47.29,375.07c0-3.3,2.32-5.21,4.83-5.21s4.83,1.91,4.83,5.21c0,3.29-2.32,5.2-4.83,5.2
			S47.29,378.36,47.29,375.07z M53.94,375.07c0-1.72-0.6-2.83-1.82-2.83s-1.82,1.12-1.82,2.83c0,1.72,0.6,2.83,1.82,2.83
			S53.94,376.78,53.94,375.07z"/>
		<path class="st19" d="M58.46,370.1h2.4l0.21,1.73h0.07c0.72-1.32,1.81-1.97,2.82-1.97c0.57,0,0.9,0.07,1.18,0.2l-0.49,2.54
			c-0.35-0.09-0.65-0.16-1.07-0.16c-0.75,0-1.66,0.48-2.19,1.84v5.75h-2.94V370.1z"/>
		<path class="st19" d="M66.32,376.42v-4.01h-1.36v-2.19l1.52-0.11l0.34-2.64h2.43v2.64h2.38v2.31h-2.38v3.97
			c0,1.12,0.51,1.58,1.29,1.58c0.33,0,0.68-0.09,0.94-0.19l0.46,2.14c-0.53,0.17-1.24,0.36-2.21,0.36
			C67.3,380.27,66.32,378.72,66.32,376.42z"/>
		<path class="st19" d="M72.86,367.11c0-0.9,0.72-1.54,1.7-1.54s1.7,0.64,1.7,1.54c0,0.89-0.72,1.54-1.7,1.54
			S72.86,368.01,72.86,367.11z M73.08,370.1h2.94v9.92h-2.94V370.1z"/>
		<path class="st19" d="M77.53,375.07c0-3.3,2.43-5.21,5.17-5.21c1.22,0,2.16,0.44,2.9,1.07l-1.39,1.89
			c-0.48-0.4-0.87-0.59-1.35-0.59c-1.41,0-2.32,1.12-2.32,2.83c0,1.72,0.95,2.83,2.22,2.83c0.65,0,1.27-0.32,1.79-0.73l1.15,1.92
			c-0.97,0.85-2.2,1.18-3.27,1.18C79.66,380.27,77.53,378.36,77.53,375.07z"/>
		<path class="st19" d="M86.37,375.07c0-3.3,2.32-5.21,4.83-5.21s4.83,1.91,4.83,5.21c0,3.29-2.32,5.2-4.83,5.2
			S86.37,378.36,86.37,375.07z M93.02,375.07c0-1.72-0.6-2.83-1.82-2.83s-1.82,1.12-1.82,2.83c0,1.72,0.6,2.83,1.82,2.83
			S93.02,376.78,93.02,375.07z"/>
		<path class="st19" d="M96.67,378.88l1.32-1.83c0.9,0.68,1.73,1.04,2.56,1.04c0.88,0,1.25-0.33,1.25-0.85c0-0.65-0.98-0.95-2-1.35
			c-1.22-0.47-2.63-1.28-2.63-2.92c0-1.85,1.5-3.11,3.79-3.11c1.52,0,2.65,0.61,3.5,1.26l-1.32,1.77c-0.71-0.51-1.4-0.85-2.09-0.85
			c-0.76,0-1.13,0.3-1.13,0.79c0,0.63,0.93,0.88,1.96,1.25c1.26,0.46,2.67,1.17,2.67,2.99c0,1.8-1.42,3.2-4.08,3.2
			C99.17,380.27,97.67,379.7,96.67,378.88z"/>
		<path class="st19" d="M106.3,376.42v-4.01h-1.36v-2.19l1.52-0.11l0.34-2.64h2.43v2.64h2.38v2.31h-2.38v3.97
			c0,1.12,0.51,1.58,1.29,1.58c0.33,0,0.68-0.09,0.94-0.19l0.46,2.14c-0.53,0.17-1.24,0.36-2.21,0.36
			C107.28,380.27,106.3,378.72,106.3,376.42z"/>
		<path class="st19" d="M112.49,375.07c0-3.22,2.3-5.21,4.68-5.21c2.83,0,4.23,2.05,4.23,4.76c0,0.53-0.07,1.06-0.12,1.3h-5.94
			c0.26,1.44,1.25,2.1,2.57,2.1c0.75,0,1.43-0.23,2.15-0.65l0.97,1.77c-1.02,0.7-2.34,1.12-3.52,1.12
			C114.68,380.27,112.49,378.35,112.49,375.07z M118.88,373.98c0-1.09-0.48-1.88-1.65-1.88c-0.93,0-1.73,0.62-1.93,1.88H118.88z"/>
		<path class="st19" d="M122.92,370.1h2.4l0.21,1.73h0.07c0.72-1.32,1.81-1.97,2.82-1.97c0.57,0,0.9,0.07,1.18,0.2l-0.49,2.54
			c-0.35-0.09-0.65-0.16-1.07-0.16c-0.75,0-1.66,0.48-2.19,1.84v5.75h-2.94V370.1z"/>
		<path class="st19" d="M129.81,375.07c0-3.3,2.32-5.21,4.83-5.21s4.83,1.91,4.83,5.21c0,3.29-2.32,5.2-4.83,5.2
			S129.81,378.36,129.81,375.07z M136.46,375.07c0-1.72-0.6-2.83-1.82-2.83s-1.82,1.12-1.82,2.83c0,1.72,0.6,2.83,1.82,2.83
			S136.46,376.78,136.46,375.07z"/>
		<path class="st19" d="M140.98,370.1h2.4l0.21,1.26h0.07c0.84-0.8,1.84-1.5,3.19-1.5c2.16,0,3.08,1.52,3.08,4v6.16h-2.94v-5.78
			c0-1.43-0.38-1.88-1.23-1.88c-0.74,0-1.19,0.34-1.84,0.96v6.7h-2.94V370.1z"/>
		<path class="st19" d="M151.35,375.07c0-3.22,2.3-5.21,4.68-5.21c2.83,0,4.23,2.05,4.23,4.76c0,0.53-0.07,1.06-0.12,1.3h-5.94
			c0.26,1.44,1.25,2.1,2.57,2.1c0.75,0,1.43-0.23,2.15-0.65l0.97,1.77c-1.02,0.7-2.34,1.12-3.52,1.12
			C153.54,380.27,151.35,378.35,151.35,375.07z M157.74,373.98c0-1.09-0.48-1.88-1.65-1.88c-0.93,0-1.73,0.62-1.93,1.88H157.74z"/>
	</g>
</g>
<g>
	<g>
		<path class="st19" d="M39.4,448.91h3.53l4.09,13.04H43.9l-1.71-6.6c-0.36-1.3-0.71-2.85-1.06-4.21h-0.08
			c-0.32,1.38-0.66,2.9-1.03,4.21l-1.71,6.6H35.3L39.4,448.91z M38,456.55h6.27v2.29H38V456.55z"/>
		<path class="st19" d="M47.68,458.86v-10.93h2.94v11.05c0,0.63,0.29,0.83,0.53,0.83c0.11,0,0.19,0,0.36-0.04l0.35,2.17
			c-0.32,0.14-0.81,0.25-1.48,0.25C48.37,462.19,47.68,460.87,47.68,458.86z"/>
		<path class="st19" d="M52.39,456.99c0-3.25,2.03-5.21,4.12-5.21c1.09,0,1.76,0.41,2.43,1.04l-0.11-1.5v-3.38h2.94v14.01h-2.4
			l-0.21-0.98h-0.07c-0.7,0.7-1.68,1.22-2.64,1.22C53.99,462.19,52.39,460.23,52.39,456.99z M58.84,458.89v-4.08
			c-0.52-0.47-1.1-0.63-1.64-0.63c-0.95,0-1.79,0.88-1.79,2.77c0,1.95,0.67,2.83,1.81,2.83C57.84,459.78,58.35,459.54,58.84,458.89z
			"/>
		<path class="st19" d="M63.29,456.99c0-3.3,2.32-5.21,4.83-5.21s4.83,1.91,4.83,5.21c0,3.29-2.32,5.2-4.83,5.2
			S63.29,460.28,63.29,456.99z M69.94,456.99c0-1.72-0.6-2.83-1.82-2.83s-1.82,1.12-1.82,2.83c0,1.72,0.6,2.83,1.82,2.83
			S69.94,458.71,69.94,456.99z"/>
		<path class="st19" d="M73.59,460.8l1.32-1.83c0.9,0.68,1.73,1.04,2.56,1.04c0.88,0,1.25-0.33,1.25-0.85c0-0.65-0.98-0.95-2-1.35
			c-1.22-0.47-2.63-1.28-2.63-2.92c0-1.85,1.5-3.11,3.79-3.11c1.52,0,2.65,0.61,3.5,1.26l-1.32,1.77c-0.71-0.51-1.4-0.85-2.09-0.85
			c-0.76,0-1.13,0.3-1.13,0.79c0,0.63,0.93,0.88,1.96,1.25c1.26,0.46,2.67,1.17,2.67,2.99c0,1.8-1.42,3.2-4.08,3.2
			C76.09,462.19,74.59,461.62,73.59,460.8z"/>
		<path class="st19" d="M83.22,458.34v-4.01h-1.36v-2.19l1.52-0.11l0.34-2.64h2.43v2.64h2.38v2.31h-2.38v3.97
			c0,1.12,0.51,1.58,1.29,1.58c0.33,0,0.68-0.09,0.94-0.19l0.46,2.14c-0.53,0.17-1.24,0.36-2.21,0.36
			C84.2,462.19,83.22,460.64,83.22,458.34z"/>
		<path class="st19" d="M89.41,456.99c0-3.22,2.3-5.21,4.68-5.21c2.83,0,4.23,2.05,4.23,4.76c0,0.53-0.07,1.06-0.12,1.3h-5.94
			c0.26,1.44,1.25,2.1,2.57,2.1c0.75,0,1.43-0.23,2.15-0.65l0.97,1.77c-1.02,0.7-2.34,1.12-3.52,1.12
			C91.6,462.19,89.41,460.27,89.41,456.99z M95.8,455.9c0-1.09-0.48-1.88-1.65-1.88c-0.93,0-1.73,0.62-1.93,1.88H95.8z"/>
		<path class="st19" d="M99.84,452.02h2.4l0.21,1.73h0.07c0.72-1.32,1.81-1.97,2.82-1.97c0.57,0,0.9,0.07,1.18,0.2l-0.49,2.54
			c-0.35-0.09-0.65-0.16-1.07-0.16c-0.75,0-1.66,0.48-2.19,1.84v5.75h-2.94V452.02z"/>
		<path class="st19" d="M106.73,456.99c0-3.3,2.32-5.21,4.83-5.21s4.83,1.91,4.83,5.21c0,3.29-2.32,5.2-4.83,5.2
			S106.73,460.28,106.73,456.99z M113.38,456.99c0-1.72-0.6-2.83-1.82-2.83s-1.82,1.12-1.82,2.83c0,1.72,0.6,2.83,1.82,2.83
			S113.38,458.71,113.38,456.99z"/>
		<path class="st19" d="M117.9,452.02h2.4l0.21,1.26h0.07c0.84-0.8,1.84-1.5,3.19-1.5c2.16,0,3.08,1.52,3.08,4v6.16h-2.94v-5.78
			c0-1.43-0.38-1.88-1.23-1.88c-0.74,0-1.19,0.34-1.84,0.96v6.7h-2.94V452.02z"/>
		<path class="st19" d="M128.27,456.99c0-3.22,2.3-5.21,4.68-5.21c2.83,0,4.23,2.05,4.23,4.76c0,0.53-0.07,1.06-0.12,1.3h-5.94
			c0.26,1.44,1.25,2.1,2.57,2.1c0.75,0,1.43-0.23,2.15-0.65l0.97,1.77c-1.02,0.7-2.34,1.12-3.52,1.12
			C130.46,462.19,128.27,460.27,128.27,456.99z M134.66,455.9c0-1.09-0.48-1.88-1.65-1.88c-0.93,0-1.73,0.62-1.93,1.88H134.66z"/>
	</g>
</g>
<g>
	<g>
		<path class="st4" d="M171.68,119.94h2.34v-7.52h-1.86v-0.85c0.93-0.16,1.61-0.41,2.17-0.75h1.01v9.11h2.11v1.1h-5.76V119.94z"/>
		<path class="st4" d="M183.76,111.96h-5.08v-1.13h6.58v0.81c-2.42,3.09-2.92,5.42-3.09,9.4h-1.36
			C180.98,117.19,181.74,114.76,183.76,111.96z"/>
		<path class="st4" d="M189.15,119.02c0-1.69,1.46-2.54,4.78-2.9c0-1-0.33-1.97-1.61-1.97c-0.9,0-1.71,0.43-2.32,0.83l-0.52-0.9
			c0.72-0.47,1.81-1.02,3.06-1.02c1.9,0,2.7,1.26,2.7,3.2v4.77h-1.09l-0.11-0.93H194c-0.74,0.62-1.61,1.12-2.57,1.12
			C190.13,121.23,189.15,120.42,189.15,119.02z M193.93,119.14v-2.16c-2.61,0.31-3.49,0.95-3.49,1.95c0,0.88,0.6,1.24,1.36,1.24
			C192.56,120.17,193.18,119.8,193.93,119.14z"/>
		<path class="st4" d="M197.3,119.47v-9.84h1.32v9.94c0,0.4,0.18,0.56,0.37,0.56c0.08,0,0.14,0,0.29-0.03l0.18,1.01
			c-0.19,0.07-0.41,0.12-0.76,0.12C197.7,121.23,197.3,120.6,197.3,119.47z"/>
		<path class="st4" d="M200.98,113.26h1.09l0.11,0.9h0.04c0.7-0.58,1.58-1.09,2.48-1.09c2.01,0,3.08,1.56,3.08,3.96
			c0,2.65-1.59,4.2-3.37,4.2c-0.71,0-1.44-0.33-2.16-0.9l0.04,1.36v2.63h-1.32V113.26z M206.42,117.04c0-1.72-0.59-2.87-2.05-2.87
			c-0.66,0-1.32,0.36-2.08,1.06v4.08c0.7,0.59,1.38,0.81,1.89,0.81C205.48,120.12,206.42,118.96,206.42,117.04z"/>
		<path class="st4" d="M209.46,109.63h1.32v3.12l-0.05,1.6c0.73-0.7,1.51-1.29,2.58-1.29c1.64,0,2.38,1.06,2.38,3.04v4.93h-1.32
			v-4.76c0-1.45-0.44-2.07-1.47-2.07c-0.8,0-1.35,0.41-2.13,1.19v5.63h-1.32V109.63z"/>
		<path class="st4" d="M217.28,119.02c0-1.69,1.46-2.54,4.78-2.9c0-1-0.33-1.97-1.61-1.97c-0.9,0-1.71,0.43-2.32,0.83l-0.52-0.9
			c0.72-0.47,1.81-1.02,3.06-1.02c1.9,0,2.7,1.26,2.7,3.2v4.77h-1.09l-0.11-0.93h-0.04c-0.74,0.62-1.61,1.12-2.57,1.12
			C218.26,121.23,217.28,120.42,217.28,119.02z M222.06,119.14v-2.16c-2.61,0.31-3.49,0.95-3.49,1.95c0,0.88,0.6,1.24,1.36,1.24
			C220.68,120.17,221.3,119.8,222.06,119.14z"/>
	</g>
</g>
<g>
	<g>
		<path class="st4" d="M171.68,199.28h2.34v-7.52h-1.86v-0.85c0.93-0.16,1.61-0.41,2.17-0.75h1.01v9.11h2.11v1.1h-5.76V199.28z"/>
		<path class="st4" d="M183.76,191.3h-5.08v-1.13h6.58v0.81c-2.42,3.09-2.92,5.42-3.09,9.4h-1.36
			C180.98,196.53,181.74,194.1,183.76,191.3z"/>
		<path class="st4" d="M189.15,198.36c0-1.69,1.46-2.54,4.78-2.9c0-1-0.33-1.97-1.61-1.97c-0.9,0-1.71,0.43-2.32,0.83l-0.52-0.9
			c0.72-0.47,1.81-1.02,3.06-1.02c1.9,0,2.7,1.26,2.7,3.2v4.77h-1.09l-0.11-0.93H194c-0.74,0.62-1.61,1.12-2.57,1.12
			C190.13,200.57,189.15,199.76,189.15,198.36z M193.93,198.48v-2.16c-2.61,0.31-3.49,0.95-3.49,1.95c0,0.88,0.6,1.24,1.36,1.24
			C192.56,199.51,193.18,199.15,193.93,198.48z"/>
		<path class="st4" d="M197.3,198.82v-9.84h1.32v9.94c0,0.4,0.18,0.56,0.37,0.56c0.08,0,0.14,0,0.29-0.03l0.18,1.01
			c-0.19,0.07-0.41,0.12-0.76,0.12C197.7,200.57,197.3,199.94,197.3,198.82z"/>
		<path class="st4" d="M200.98,192.6h1.09l0.11,0.9h0.04c0.7-0.58,1.58-1.09,2.48-1.09c2.01,0,3.08,1.56,3.08,3.96
			c0,2.65-1.59,4.2-3.37,4.2c-0.71,0-1.44-0.33-2.16-0.9l0.04,1.36v2.63h-1.32V192.6z M206.42,196.38c0-1.72-0.59-2.87-2.05-2.87
			c-0.66,0-1.32,0.36-2.08,1.06v4.08c0.7,0.59,1.38,0.81,1.89,0.81C205.48,199.46,206.42,198.3,206.42,196.38z"/>
		<path class="st4" d="M209.46,188.98h1.32v3.12l-0.05,1.6c0.73-0.7,1.51-1.29,2.58-1.29c1.64,0,2.38,1.06,2.38,3.04v4.93h-1.32
			v-4.76c0-1.45-0.44-2.07-1.47-2.07c-0.8,0-1.35,0.41-2.13,1.19v5.63h-1.32V188.98z"/>
		<path class="st4" d="M217.28,198.36c0-1.69,1.46-2.54,4.78-2.9c0-1-0.33-1.97-1.61-1.97c-0.9,0-1.71,0.43-2.32,0.83l-0.52-0.9
			c0.72-0.47,1.81-1.02,3.06-1.02c1.9,0,2.7,1.26,2.7,3.2v4.77h-1.09l-0.11-0.93h-0.04c-0.74,0.62-1.61,1.12-2.57,1.12
			C218.26,200.57,217.28,199.76,217.28,198.36z M222.06,198.48v-2.16c-2.61,0.31-3.49,0.95-3.49,1.95c0,0.88,0.6,1.24,1.36,1.24
			C220.68,199.51,221.3,199.15,222.06,198.48z"/>
	</g>
</g>
<polygon class="st4" points="86.31,101.11 96.49,101.11 91.49,120.83 91.31,120.83 "/>
<linearGradient id="SVGID_18_" gradientUnits="userSpaceOnUse" x1="-55.4854" y1="82.8707" x2="-55.4854" y2="-5.3825" gradientTransform="matrix(-6.123234e-17 1 -1 -6.123234e-17 233.2976 183.911)">
	<stop  offset="0" style="stop-color:#FFFFFF"/>
	<stop  offset="0.7266" style="stop-color:#6D6F72"/>
</linearGradient>
<line class="st20" x1="150.43" y1="128.43" x2="238.68" y2="128.43"/>
<polygon class="st4" points="236.93,133.48 236.93,123.3 256.65,128.3 256.65,128.48 "/>
<linearGradient id="SVGID_19_" gradientUnits="userSpaceOnUse" x1="25.8233" y1="82.8707" x2="25.8233" y2="-5.3825" gradientTransform="matrix(-6.123234e-17 1 -1 -6.123234e-17 233.2976 183.911)">
	<stop  offset="0" style="stop-color:#FFFFFF"/>
	<stop  offset="0.7266" style="stop-color:#6D6F72"/>
</linearGradient>
<line class="st21" x1="150.43" y1="209.73" x2="238.68" y2="209.73"/>
<polygon class="st4" points="236.93,214.78 236.93,204.61 256.65,209.61 256.65,209.78 "/>
<g>
	<g>
		<path class="st2" d="M270.55,167.7l0.66-0.86c0.61,0.64,1.41,1.2,2.61,1.2c1.24,0,2.12-0.73,2.12-1.87c0-1.21-0.84-2.03-3.26-2.03
			v-1.01c2.16,0,2.9-0.83,2.9-1.9c0-0.99-0.68-1.62-1.76-1.62c-0.85,0-1.58,0.43-2.18,1.03l-0.71-0.84
			c0.79-0.73,1.73-1.27,2.93-1.27c1.78,0,3.05,0.94,3.05,2.59c0,1.23-0.75,2.02-1.85,2.43v0.06c1.23,0.29,2.22,1.19,2.22,2.59
			c0,1.82-1.5,2.92-3.37,2.92C272.27,169.14,271.24,168.46,270.55,167.7z"/>
		<path class="st2" d="M283.01,168.15h-0.04l-0.12,0.8h-1.05v-11.4h1.32v3.12l-0.04,1.4c0.71-0.61,1.58-1.08,2.44-1.08
			c2.01,0,3.09,1.56,3.09,3.96c0,2.66-1.59,4.21-3.37,4.21C284.51,169.14,283.7,168.77,283.01,168.15z M287.24,164.95
			c0-1.72-0.59-2.87-2.05-2.87c-0.66,0-1.34,0.36-2.08,1.06v4.08c0.68,0.59,1.38,0.81,1.89,0.81
			C286.29,168.03,287.24,166.87,287.24,164.95z"/>
		<path class="st2" d="M289.66,165.07c0-2.53,1.71-4.09,3.5-4.09c1.98,0,3.1,1.43,3.1,3.65c0,0.28-0.02,0.56-0.06,0.75h-5.24
			c0.09,1.65,1.1,2.72,2.59,2.72c0.75,0,1.36-0.24,1.94-0.62l0.47,0.86c-0.68,0.45-1.51,0.81-2.57,0.81
			C291.32,169.14,289.66,167.63,289.66,165.07z M295.1,164.43c0-1.56-0.7-2.41-1.92-2.41c-1.09,0-2.07,0.88-2.23,2.41H295.1z"/>
		<path class="st2" d="M298.01,166.54v-4.3h-1.16v-1l1.22-0.08l0.16-2.18h1.1v2.18h2.11v1.07h-2.11v4.33c0,0.95,0.31,1.5,1.2,1.5
			c0.28,0,0.63-0.1,0.89-0.21l0.25,0.99c-0.44,0.15-0.96,0.29-1.44,0.29C298.57,169.14,298.01,168.09,298.01,166.54z"/>
		<path class="st2" d="M302.3,166.93c0-1.69,1.46-2.54,4.78-2.9c0-1-0.33-1.97-1.61-1.97c-0.9,0-1.71,0.43-2.32,0.83l-0.52-0.9
			c0.72-0.47,1.81-1.02,3.06-1.02c1.9,0,2.7,1.26,2.7,3.2v4.77h-1.09l-0.11-0.93h-0.04c-0.74,0.62-1.61,1.12-2.57,1.12
			C303.28,169.14,302.3,168.33,302.3,166.93z M307.08,167.05v-2.16c-2.61,0.31-3.49,0.95-3.49,1.95c0,0.88,0.6,1.24,1.36,1.24
			C305.71,168.08,306.33,167.72,307.08,167.05z"/>
	</g>
</g>
<g>
	<g>
		<path class="st11" d="M271.77,261.73c3.07-3.06,4.8-4.9,4.8-6.56c0-1.17-0.63-1.99-1.94-1.99c-0.85,0-1.59,0.54-2.17,1.22
			l-0.76-0.74c0.85-0.94,1.77-1.55,3.1-1.55c1.89,0,3.06,1.19,3.06,3.01c0,1.92-1.76,3.82-4.17,6.35c0.55-0.04,1.19-0.09,1.72-0.09
			h2.95v1.13h-6.59V261.73z"/>
		<path class="st11" d="M279.94,261.41h2.34v-7.52h-1.86v-0.85c0.93-0.16,1.61-0.41,2.17-0.75h1.01v9.11h2.11v1.1h-5.76V261.41z"/>
		<path class="st11" d="M289.86,257.21c0-3.36,1.85-5.41,4.49-5.41c2.64,0,4.49,2.05,4.49,5.41c0,3.36-1.85,5.48-4.49,5.48
			C291.71,262.7,289.86,260.58,289.86,257.21z M297.46,257.21c0-2.62-1.23-4.23-3.11-4.23c-1.88,0-3.11,1.61-3.11,4.23
			s1.23,4.31,3.11,4.31C296.23,261.52,297.46,259.83,297.46,257.21z"/>
		<path class="st11" d="M300.69,252h1.34v4.4h4.89V252h1.34v10.51h-1.34v-4.94h-4.89v4.94h-1.34V252z"/>
	</g>
</g>
<g>
	<g>
		<path class="st4" d="M272.77,344.1c3.07-3.06,4.8-4.9,4.8-6.56c0-1.17-0.63-1.99-1.94-1.99c-0.85,0-1.59,0.54-2.17,1.22
			l-0.76-0.74c0.85-0.94,1.77-1.55,3.1-1.55c1.89,0,3.06,1.19,3.06,3.01c0,1.92-1.76,3.82-4.17,6.35c0.55-0.04,1.19-0.09,1.72-0.09
			h2.95v1.13h-6.59V344.1z"/>
		<path class="st4" d="M280.94,343.79h2.34v-7.52h-1.86v-0.85c0.93-0.16,1.61-0.41,2.17-0.75h1.01v9.11h2.11v1.1h-5.76V343.79z"/>
		<path class="st4" d="M290.86,339.59c0-3.36,1.85-5.41,4.49-5.41c2.64,0,4.49,2.05,4.49,5.41c0,3.36-1.85,5.48-4.49,5.48
			C292.71,345.07,290.86,342.96,290.86,339.59z M298.46,339.59c0-2.62-1.23-4.23-3.11-4.23c-1.88,0-3.11,1.61-3.11,4.23
			s1.23,4.31,3.11,4.31C297.23,343.9,298.46,342.21,298.46,339.59z"/>
		<path class="st4" d="M301.69,334.38h1.34v4.4h4.89v-4.4h1.34v10.51h-1.34v-4.94h-4.89v4.94h-1.34V334.38z"/>
	</g>
</g>
<linearGradient id="SVGID_20_" gradientUnits="userSpaceOnUse" x1="-141.6049" y1="93.0135" x2="-141.6049" y2="62.0112" gradientTransform="matrix(-1 0 0 -1 182.8044 231.2284)">
	<stop  offset="0" style="stop-color:#FFFFFF"/>
	<stop  offset="0.7266" style="stop-color:#6D6F72"/>
</linearGradient>
<line class="st22" x1="324.41" y1="138.21" x2="324.41" y2="169.22"/>
<polygon class="st4" points="319.36,162.47 329.54,162.47 324.54,182.18 324.36,182.18 "/>
<g>
	<g>
		<path class="st23" d="M535.99,121.41h3.69c3.98,0,6.55,1.98,6.55,6.46c0,4.48-2.57,6.58-6.38,6.58h-3.85V121.41z M539.5,132.08
			c2.21,0,3.71-1.08,3.71-4.2s-1.49-4.09-3.71-4.09h-0.56v8.29H539.5z"/>
		<path class="st23" d="M548.19,121.41h2.95v5.02h4.5v-5.02h2.95v13.04h-2.95v-5.44h-4.5v5.44h-2.95V121.41z"/>
		<path class="st23" d="M561.17,121.41h8.17v2.47h-5.22v2.62h4.44v2.47h-4.44v3h5.42v2.47h-8.37V121.41z"/>
		<path class="st23" d="M574.06,121.41h3.53l4.09,13.04h-3.12l-1.71-6.6c-0.36-1.3-0.71-2.85-1.06-4.21h-0.08
			c-0.32,1.38-0.66,2.9-1.03,4.21l-1.71,6.6h-3.01L574.06,121.41z M572.66,129.06h6.27v2.29h-6.27V129.06z"/>
	</g>
</g>
<g>
	<g>
		<path class="st23" d="M491.51,201.78h3.53l4.09,13.04h-3.12l-1.71-6.6c-0.36-1.3-0.71-2.85-1.06-4.21h-0.08
			c-0.32,1.38-0.66,2.9-1.03,4.21l-1.71,6.6h-3.01L491.51,201.78z M490.12,209.42h6.27v2.29h-6.27V209.42z"/>
		<path class="st23" d="M499.8,204.89h2.4l0.21,1.26h0.07c0.84-0.8,1.84-1.5,3.19-1.5c2.16,0,3.08,1.52,3.08,4v6.16h-2.94v-5.78
			c0-1.43-0.38-1.88-1.23-1.88c-0.74,0-1.19,0.34-1.84,0.96v6.7h-2.94V204.89z"/>
		<path class="st23" d="M510.23,209.85c0-3.25,2.03-5.21,4.12-5.21c1.09,0,1.76,0.41,2.43,1.04l-0.11-1.5v-3.38h2.94v14.01h-2.4
			l-0.21-0.98h-0.07c-0.7,0.7-1.68,1.22-2.64,1.22C511.83,215.05,510.23,213.09,510.23,209.85z M516.68,211.76v-4.08
			c-0.52-0.47-1.1-0.63-1.64-0.63c-0.95,0-1.79,0.88-1.79,2.77c0,1.95,0.67,2.83,1.81,2.83
			C515.68,212.65,516.19,212.41,516.68,211.76z"/>
		<path class="st23" d="M521.7,204.89h2.4l0.21,1.73h0.07c0.72-1.32,1.81-1.97,2.82-1.97c0.57,0,0.9,0.07,1.18,0.2l-0.49,2.54
			c-0.35-0.09-0.65-0.16-1.07-0.16c-0.75,0-1.66,0.48-2.19,1.84v5.75h-2.94V204.89z"/>
		<path class="st23" d="M528.59,209.85c0-3.3,2.32-5.21,4.83-5.21s4.83,1.91,4.83,5.21c0,3.29-2.32,5.2-4.83,5.2
			S528.59,213.15,528.59,209.85z M535.24,209.85c0-1.72-0.6-2.83-1.82-2.83s-1.82,1.12-1.82,2.83c0,1.72,0.6,2.83,1.82,2.83
			S535.24,211.57,535.24,209.85z"/>
		<path class="st23" d="M538.89,213.67l1.32-1.83c0.9,0.68,1.73,1.04,2.56,1.04c0.88,0,1.25-0.33,1.25-0.85c0-0.65-0.98-0.95-2-1.35
			c-1.22-0.47-2.63-1.28-2.63-2.92c0-1.85,1.5-3.11,3.79-3.11c1.52,0,2.65,0.61,3.5,1.26l-1.32,1.77c-0.71-0.51-1.4-0.85-2.09-0.85
			c-0.76,0-1.13,0.3-1.13,0.79c0,0.63,0.93,0.88,1.96,1.25c1.26,0.46,2.67,1.17,2.67,2.99c0,1.8-1.42,3.2-4.08,3.2
			C541.39,215.05,539.89,214.49,538.89,213.67z"/>
		<path class="st23" d="M548.52,211.2v-4.01h-1.36V205l1.52-0.11l0.34-2.64h2.43v2.64h2.38v2.31h-2.38v3.97
			c0,1.12,0.51,1.58,1.29,1.58c0.33,0,0.68-0.09,0.94-0.19l0.46,2.14c-0.53,0.17-1.24,0.36-2.21,0.36
			C549.49,215.05,548.52,213.5,548.52,211.2z"/>
		<path class="st23" d="M554.71,209.85c0-3.22,2.3-5.21,4.68-5.21c2.83,0,4.23,2.05,4.23,4.76c0,0.53-0.07,1.06-0.12,1.3h-5.94
			c0.26,1.44,1.25,2.1,2.57,2.1c0.75,0,1.43-0.23,2.15-0.65l0.97,1.77c-1.02,0.7-2.34,1.12-3.52,1.12
			C556.9,215.05,554.71,213.14,554.71,209.85z M561.1,208.77c0-1.09-0.48-1.88-1.65-1.88c-0.93,0-1.73,0.62-1.93,1.88H561.1z"/>
		<path class="st23" d="M565.14,204.89h2.4l0.21,1.26h0.07c0.84-0.8,1.84-1.5,3.19-1.5c2.16,0,3.08,1.52,3.08,4v6.16h-2.94v-5.78
			c0-1.43-0.38-1.88-1.23-1.88c-0.74,0-1.19,0.34-1.84,0.96v6.7h-2.94V204.89z"/>
		<path class="st23" d="M575.51,209.85c0-3.22,2.3-5.21,4.68-5.21c2.83,0,4.23,2.05,4.23,4.76c0,0.53-0.07,1.06-0.12,1.3h-5.94
			c0.26,1.44,1.25,2.1,2.57,2.1c0.75,0,1.43-0.23,2.15-0.65l0.97,1.77c-1.02,0.7-2.34,1.12-3.52,1.12
			C577.7,215.05,575.51,213.14,575.51,209.85z M581.9,208.77c0-1.09-0.48-1.88-1.65-1.88c-0.93,0-1.73,0.62-1.93,1.88H581.9z"/>
		<path class="st23" d="M585.43,209.85c0-3.25,2.03-5.21,4.12-5.21c1.09,0,1.76,0.41,2.43,1.04l-0.11-1.5v-3.38h2.94v14.01h-2.4
			l-0.21-0.98h-0.07c-0.7,0.7-1.68,1.22-2.64,1.22C587.02,215.05,585.43,213.09,585.43,209.85z M591.87,211.76v-4.08
			c-0.52-0.47-1.1-0.63-1.64-0.63c-0.95,0-1.79,0.88-1.79,2.77c0,1.95,0.67,2.83,1.81,2.83
			C590.88,212.65,591.39,212.41,591.87,211.76z"/>
		<path class="st23" d="M596.67,201.9c0-0.9,0.72-1.54,1.7-1.54s1.7,0.64,1.7,1.54c0,0.89-0.72,1.54-1.7,1.54
			S596.67,202.79,596.67,201.9z M596.9,204.89h2.94v9.92h-2.94V204.89z"/>
		<path class="st23" d="M601.35,209.85c0-3.3,2.32-5.21,4.83-5.21s4.83,1.91,4.83,5.21c0,3.29-2.32,5.2-4.83,5.2
			S601.35,213.15,601.35,209.85z M608,209.85c0-1.72-0.6-2.83-1.82-2.83s-1.82,1.12-1.82,2.83c0,1.72,0.6,2.83,1.82,2.83
			S608,211.57,608,209.85z"/>
		<path class="st23" d="M612.52,204.89h2.4l0.21,1.26h0.07c0.84-0.8,1.84-1.5,3.19-1.5c2.16,0,3.08,1.52,3.08,4v6.16h-2.94v-5.78
			c0-1.43-0.38-1.88-1.23-1.88c-0.74,0-1.19,0.34-1.84,0.96v6.7h-2.94V204.89z"/>
		<path class="st23" d="M622.89,209.85c0-3.22,2.3-5.21,4.68-5.21c2.83,0,4.23,2.05,4.23,4.76c0,0.53-0.07,1.06-0.12,1.3h-5.94
			c0.26,1.44,1.25,2.1,2.57,2.1c0.75,0,1.43-0.23,2.15-0.65l0.97,1.77c-1.02,0.7-2.34,1.12-3.52,1.12
			C625.08,215.05,622.89,213.14,622.89,209.85z M629.28,208.77c0-1.09-0.48-1.88-1.65-1.88c-0.93,0-1.73,0.62-1.93,1.88H629.28z"/>
	</g>
</g>
<g>
	<g>
		<path class="st23" d="M508.46,298.89h-3.59v-2.47h10.12v2.47h-3.59v10.57h-2.95V298.89z"/>
		<path class="st23" d="M515.71,304.5c0-3.22,2.3-5.21,4.68-5.21c2.83,0,4.23,2.05,4.23,4.76c0,0.53-0.07,1.06-0.12,1.3h-5.94
			c0.26,1.44,1.25,2.1,2.57,2.1c0.75,0,1.43-0.23,2.15-0.65l0.97,1.77c-1.02,0.7-2.34,1.12-3.52,1.12
			C517.9,309.7,515.71,307.78,515.71,304.5z M522.1,303.41c0-1.09-0.48-1.88-1.65-1.88c-0.93,0-1.73,0.62-1.93,1.88H522.1z"/>
		<path class="st23" d="M525.27,308.31l1.32-1.83c0.9,0.68,1.73,1.04,2.56,1.04c0.88,0,1.25-0.33,1.25-0.85c0-0.65-0.98-0.95-2-1.35
			c-1.22-0.47-2.63-1.28-2.63-2.92c0-1.85,1.5-3.11,3.79-3.11c1.52,0,2.65,0.61,3.5,1.26l-1.32,1.77c-0.71-0.51-1.4-0.85-2.09-0.85
			c-0.76,0-1.13,0.3-1.13,0.79c0,0.63,0.93,0.88,1.96,1.25c1.26,0.46,2.67,1.17,2.67,2.99c0,1.8-1.42,3.2-4.08,3.2
			C527.77,309.7,526.27,309.13,525.27,308.31z"/>
		<path class="st23" d="M534.9,305.85v-4.01h-1.36v-2.19l1.52-0.11l0.34-2.64h2.43v2.64h2.38v2.31h-2.38v3.97
			c0,1.12,0.51,1.58,1.29,1.58c0.33,0,0.68-0.09,0.94-0.19l0.46,2.14c-0.53,0.17-1.24,0.36-2.21,0.36
			C535.88,309.7,534.9,308.15,534.9,305.85z"/>
		<path class="st23" d="M541.09,304.5c0-3.3,2.32-5.21,4.83-5.21s4.83,1.91,4.83,5.21c0,3.29-2.32,5.2-4.83,5.2
			S541.09,307.79,541.09,304.5z M547.74,304.5c0-1.72-0.6-2.83-1.82-2.83s-1.82,1.12-1.82,2.83c0,1.72,0.6,2.83,1.82,2.83
			S547.74,306.22,547.74,304.5z"/>
		<path class="st23" d="M551.39,308.31l1.32-1.83c0.9,0.68,1.73,1.04,2.56,1.04c0.88,0,1.25-0.33,1.25-0.85c0-0.65-0.98-0.95-2-1.35
			c-1.22-0.47-2.63-1.28-2.63-2.92c0-1.85,1.5-3.11,3.79-3.11c1.52,0,2.65,0.61,3.5,1.26l-1.32,1.77c-0.71-0.51-1.4-0.85-2.09-0.85
			c-0.76,0-1.13,0.3-1.13,0.79c0,0.63,0.93,0.88,1.96,1.25c1.26,0.46,2.67,1.17,2.67,2.99c0,1.8-1.42,3.2-4.08,3.2
			C553.89,309.7,552.39,309.13,551.39,308.31z"/>
		<path class="st23" d="M561.02,305.85v-4.01h-1.36v-2.19l1.52-0.11l0.34-2.64h2.43v2.64h2.38v2.31h-2.38v3.97
			c0,1.12,0.51,1.58,1.29,1.58c0.33,0,0.68-0.09,0.94-0.19l0.46,2.14c-0.53,0.17-1.24,0.36-2.21,0.36
			C561.99,309.7,561.02,308.15,561.02,305.85z"/>
		<path class="st23" d="M567.21,304.5c0-3.22,2.3-5.21,4.68-5.21c2.83,0,4.23,2.05,4.23,4.76c0,0.53-0.07,1.06-0.12,1.3h-5.94
			c0.26,1.44,1.25,2.1,2.57,2.1c0.75,0,1.43-0.23,2.15-0.65l0.97,1.77c-1.02,0.7-2.34,1.12-3.52,1.12
			C569.4,309.7,567.21,307.78,567.21,304.5z M573.6,303.41c0-1.09-0.48-1.88-1.65-1.88c-0.93,0-1.73,0.62-1.93,1.88H573.6z"/>
		<path class="st23" d="M577.64,299.53h2.4l0.21,1.73h0.07c0.72-1.32,1.81-1.97,2.82-1.97c0.57,0,0.9,0.07,1.18,0.2l-0.49,2.54
			c-0.35-0.09-0.65-0.16-1.07-0.16c-0.75,0-1.66,0.48-2.19,1.84v5.75h-2.94V299.53z"/>
		<path class="st23" d="M584.53,304.5c0-3.3,2.32-5.21,4.83-5.21s4.83,1.91,4.83,5.21c0,3.29-2.32,5.2-4.83,5.2
			S584.53,307.79,584.53,304.5z M591.18,304.5c0-1.72-0.6-2.83-1.82-2.83s-1.82,1.12-1.82,2.83c0,1.72,0.6,2.83,1.82,2.83
			S591.18,306.22,591.18,304.5z"/>
		<path class="st23" d="M595.7,299.53h2.4l0.21,1.26h0.07c0.84-0.8,1.84-1.5,3.19-1.5c2.16,0,3.08,1.52,3.08,4v6.16h-2.94v-5.78
			c0-1.43-0.38-1.88-1.23-1.88c-0.74,0-1.19,0.34-1.84,0.96v6.7h-2.94V299.53z"/>
		<path class="st23" d="M606.07,304.5c0-3.22,2.3-5.21,4.68-5.21c2.83,0,4.23,2.05,4.23,4.76c0,0.53-0.07,1.06-0.12,1.3h-5.94
			c0.26,1.44,1.25,2.1,2.57,2.1c0.75,0,1.43-0.23,2.15-0.65l0.97,1.77c-1.02,0.7-2.34,1.12-3.52,1.12
			C608.26,309.7,606.07,307.78,606.07,304.5z M612.46,303.41c0-1.09-0.48-1.88-1.65-1.88c-0.93,0-1.73,0.62-1.93,1.88H612.46z"/>
	</g>
</g>
<g>
	<g>
		<path class="st23" d="M477.15,367.62h3.69c3.98,0,6.55,1.98,6.55,6.46c0,4.48-2.57,6.58-6.38,6.58h-3.85V367.62z M480.66,378.28
			c2.21,0,3.71-1.08,3.71-4.2s-1.49-4.09-3.71-4.09h-0.56v8.29H480.66z"/>
		<path class="st23" d="M488.88,367.74c0-0.9,0.72-1.54,1.7-1.54s1.7,0.64,1.7,1.54c0,0.89-0.72,1.54-1.7,1.54
			S488.88,368.64,488.88,367.74z M489.11,370.73h2.94v9.92h-2.94V370.73z"/>
		<path class="st23" d="M494.13,366.64h2.94v3.42l-0.13,1.8c0.74-0.68,1.71-1.37,3.06-1.37c2.16,0,3.08,1.52,3.08,4v6.16h-2.94
			v-5.78c0-1.43-0.38-1.88-1.23-1.88c-0.74,0-1.19,0.34-1.84,0.96v6.7h-2.94V366.64z"/>
		<path class="st23" d="M504.74,384.34l0.52-2.24c0.18,0.05,0.45,0.13,0.67,0.13c0.97,0,1.48-0.53,1.74-1.3l0.15-0.52l-3.83-9.67
			h2.95l1.42,4.27c0.29,0.9,0.52,1.84,0.78,2.81h0.08c0.22-0.94,0.44-1.88,0.69-2.81l1.2-4.27h2.82l-3.45,10.03
			c-0.94,2.49-2,3.77-4.33,3.77C505.54,384.54,505.15,384.46,504.74,384.34z"/>
		<path class="st23" d="M514.45,375.7c0-3.25,2.03-5.21,4.12-5.21c1.09,0,1.76,0.41,2.43,1.04l-0.11-1.5v-3.38h2.94v14.01h-2.4
			l-0.21-0.98h-0.07c-0.7,0.7-1.68,1.22-2.64,1.22C516.05,380.9,514.45,378.94,514.45,375.7z M520.9,377.6v-4.08
			c-0.52-0.47-1.1-0.63-1.64-0.63c-0.95,0-1.79,0.88-1.79,2.77c0,1.95,0.67,2.83,1.81,2.83C519.91,378.49,520.41,378.25,520.9,377.6
			z"/>
		<path class="st23" d="M525.93,370.73h2.4l0.21,1.73h0.07c0.72-1.32,1.81-1.97,2.82-1.97c0.57,0,0.9,0.07,1.18,0.2l-0.49,2.54
			c-0.35-0.09-0.65-0.16-1.07-0.16c-0.75,0-1.66,0.48-2.19,1.84v5.75h-2.94V370.73z"/>
		<path class="st23" d="M532.81,375.7c0-3.3,2.32-5.21,4.83-5.21s4.83,1.91,4.83,5.21c0,3.29-2.32,5.2-4.83,5.2
			S532.81,378.99,532.81,375.7z M539.46,375.7c0-1.72-0.6-2.83-1.82-2.83s-1.82,1.12-1.82,2.83c0,1.72,0.6,2.83,1.82,2.83
			S539.46,377.42,539.46,375.7z"/>
		<path class="st23" d="M544.38,377.05v-4.01h-1.36v-2.19l1.52-0.11l0.34-2.64h2.43v2.64h2.38v2.31h-2.38v3.97
			c0,1.12,0.51,1.58,1.29,1.58c0.33,0,0.68-0.09,0.94-0.19l0.46,2.14c-0.53,0.17-1.24,0.36-2.21,0.36
			C545.36,380.9,544.38,379.35,544.38,377.05z"/>
		<path class="st23" d="M550.57,375.7c0-3.22,2.3-5.21,4.68-5.21c2.83,0,4.23,2.05,4.23,4.76c0,0.53-0.07,1.06-0.12,1.3h-5.94
			c0.26,1.44,1.25,2.1,2.57,2.1c0.75,0,1.43-0.23,2.15-0.65l0.97,1.77c-1.02,0.7-2.34,1.12-3.52,1.12
			C552.76,380.9,550.57,378.98,550.57,375.7z M556.97,374.61c0-1.09-0.48-1.88-1.65-1.88c-0.93,0-1.73,0.62-1.93,1.88H556.97z"/>
		<path class="st23" d="M560.13,379.51l1.32-1.83c0.9,0.68,1.73,1.04,2.56,1.04c0.88,0,1.25-0.33,1.25-0.85c0-0.65-0.98-0.95-2-1.35
			c-1.22-0.47-2.63-1.28-2.63-2.92c0-1.85,1.5-3.11,3.79-3.11c1.52,0,2.65,0.61,3.5,1.26l-1.32,1.77c-0.71-0.51-1.4-0.85-2.09-0.85
			c-0.76,0-1.13,0.3-1.13,0.79c0,0.63,0.93,0.88,1.96,1.25c1.26,0.46,2.67,1.17,2.67,2.99c0,1.8-1.42,3.2-4.08,3.2
			C562.63,380.9,561.13,380.33,560.13,379.51z"/>
		<path class="st23" d="M569.76,377.05v-4.01h-1.36v-2.19l1.52-0.11l0.34-2.64h2.43v2.64h2.38v2.31h-2.38v3.97
			c0,1.12,0.51,1.58,1.29,1.58c0.33,0,0.68-0.09,0.94-0.19l0.46,2.14c-0.53,0.17-1.24,0.36-2.21,0.36
			C570.74,380.9,569.76,379.35,569.76,377.05z"/>
		<path class="st23" d="M575.95,375.7c0-3.3,2.32-5.21,4.83-5.21s4.83,1.91,4.83,5.21c0,3.29-2.32,5.2-4.83,5.2
			S575.95,378.99,575.95,375.7z M582.6,375.7c0-1.72-0.6-2.83-1.82-2.83s-1.82,1.12-1.82,2.83c0,1.72,0.6,2.83,1.82,2.83
			S582.6,377.42,582.6,375.7z"/>
		<path class="st23" d="M586.25,379.51l1.32-1.83c0.9,0.68,1.73,1.04,2.56,1.04c0.88,0,1.25-0.33,1.25-0.85c0-0.65-0.98-0.95-2-1.35
			c-1.22-0.47-2.63-1.28-2.63-2.92c0-1.85,1.5-3.11,3.79-3.11c1.52,0,2.65,0.61,3.5,1.26l-1.32,1.77c-0.71-0.51-1.4-0.85-2.09-0.85
			c-0.76,0-1.13,0.3-1.13,0.79c0,0.63,0.93,0.88,1.96,1.25c1.26,0.46,2.67,1.17,2.67,2.99c0,1.8-1.42,3.2-4.08,3.2
			C588.75,380.9,587.25,380.33,586.25,379.51z"/>
		<path class="st23" d="M595.88,377.05v-4.01h-1.36v-2.19l1.52-0.11l0.34-2.64h2.43v2.64h2.38v2.31h-2.38v3.97
			c0,1.12,0.51,1.58,1.29,1.58c0.33,0,0.68-0.09,0.94-0.19l0.46,2.14c-0.53,0.17-1.24,0.36-2.21,0.36
			C596.86,380.9,595.88,379.35,595.88,377.05z"/>
		<path class="st23" d="M602.07,375.7c0-3.22,2.3-5.21,4.68-5.21c2.83,0,4.23,2.05,4.23,4.76c0,0.53-0.07,1.06-0.12,1.3h-5.94
			c0.26,1.44,1.25,2.1,2.57,2.1c0.75,0,1.43-0.23,2.15-0.65l0.97,1.77c-1.02,0.7-2.34,1.12-3.52,1.12
			C604.26,380.9,602.07,378.98,602.07,375.7z M608.46,374.61c0-1.09-0.48-1.88-1.65-1.88c-0.93,0-1.73,0.62-1.93,1.88H608.46z"/>
		<path class="st23" d="M612.5,370.73h2.4l0.21,1.73h0.07c0.72-1.32,1.81-1.97,2.82-1.97c0.57,0,0.9,0.07,1.18,0.2l-0.49,2.54
			c-0.35-0.09-0.65-0.16-1.07-0.16c-0.75,0-1.66,0.48-2.19,1.84v5.75h-2.94V370.73z"/>
		<path class="st23" d="M619.39,375.7c0-3.3,2.32-5.21,4.83-5.21s4.83,1.91,4.83,5.21c0,3.29-2.32,5.2-4.83,5.2
			S619.39,378.99,619.39,375.7z M626.04,375.7c0-1.72-0.6-2.83-1.82-2.83s-1.82,1.12-1.82,2.83c0,1.72,0.6,2.83,1.82,2.83
			S626.04,377.42,626.04,375.7z"/>
		<path class="st23" d="M630.56,370.73h2.4l0.21,1.26h0.07c0.84-0.8,1.84-1.5,3.19-1.5c2.16,0,3.08,1.52,3.08,4v6.16h-2.94v-5.78
			c0-1.43-0.38-1.88-1.23-1.88c-0.74,0-1.19,0.34-1.84,0.96v6.7h-2.94V370.73z"/>
		<path class="st23" d="M640.93,375.7c0-3.22,2.3-5.21,4.68-5.21c2.83,0,4.23,2.05,4.23,4.76c0,0.53-0.07,1.06-0.12,1.3h-5.94
			c0.26,1.44,1.25,2.1,2.57,2.1c0.75,0,1.43-0.23,2.15-0.65l0.97,1.77c-1.02,0.7-2.34,1.12-3.52,1.12
			C643.12,380.9,640.93,378.98,640.93,375.7z M647.32,374.61c0-1.09-0.48-1.88-1.65-1.88c-0.93,0-1.73,0.62-1.93,1.88H647.32z"/>
	</g>
</g>
<g>
	<g>
		<path class="st4" d="M412.76,119.94h2.34v-7.52h-1.86v-0.85c0.93-0.16,1.61-0.41,2.17-0.75h1.01v9.11h2.11v1.1h-5.76V119.94z"/>
		<path class="st4" d="M424.84,111.96h-5.08v-1.13h6.58v0.81c-2.42,3.09-2.92,5.42-3.09,9.4h-1.36
			C422.06,117.19,422.83,114.76,424.84,111.96z"/>
		<path class="st4" d="M427.36,122.98c0.9-0.4,1.45-1.1,1.44-1.98l-0.14-1.18l0.64,0.96c-0.17,0.21-0.41,0.27-0.67,0.27
			c-0.51,0-0.95-0.32-0.95-0.92c0-0.57,0.45-0.92,0.98-0.92c0.7,0,1.12,0.58,1.12,1.55c0,1.38-0.81,2.46-2.1,3L427.36,122.98z"/>
		<path class="st4" d="M430.83,120.26c3.07-3.06,4.8-4.9,4.8-6.56c0-1.17-0.63-1.99-1.94-1.99c-0.85,0-1.59,0.54-2.17,1.22
			l-0.76-0.74c0.85-0.94,1.77-1.55,3.1-1.55c1.89,0,3.06,1.19,3.06,3.01c0,1.92-1.76,3.82-4.17,6.35c0.55-0.04,1.19-0.09,1.72-0.09
			h2.95v1.13h-6.59V120.26z"/>
		<path class="st4" d="M438.45,115.9c0-3.42,1.23-5.26,3.27-5.26c2.04,0,3.27,1.84,3.27,5.26c0,3.42-1.23,5.33-3.27,5.33
			C439.68,121.23,438.45,119.32,438.45,115.9z M443.71,115.9c0-2.99-0.81-4.2-1.99-4.2s-1.99,1.21-1.99,4.2
			c0,2.99,0.81,4.27,1.99,4.27S443.71,118.89,443.71,115.9z"/>
	</g>
</g>
<g>
	<g>
		<path class="st4" d="M411.15,199.28h2.34v-7.52h-1.86v-0.85c0.93-0.16,1.61-0.41,2.17-0.75h1.01v9.11h2.11v1.1h-5.76V199.28z"/>
		<path class="st4" d="M423.23,191.3h-5.08v-1.13h6.58v0.81c-2.42,3.09-2.92,5.42-3.09,9.4h-1.36
			C420.45,196.53,421.22,194.1,423.23,191.3z"/>
		<path class="st4" d="M425.75,202.33c0.9-0.4,1.45-1.1,1.44-1.98l-0.14-1.18l0.64,0.96c-0.17,0.21-0.41,0.27-0.67,0.27
			c-0.51,0-0.95-0.32-0.95-0.92c0-0.57,0.45-0.92,0.98-0.92c0.7,0,1.12,0.58,1.12,1.55c0,1.38-0.81,2.46-2.1,3L425.75,202.33z"/>
		<path class="st4" d="M429.22,199.6c3.07-3.06,4.8-4.9,4.8-6.56c0-1.17-0.63-1.99-1.94-1.99c-0.85,0-1.59,0.54-2.17,1.22
			l-0.76-0.74c0.85-0.94,1.77-1.55,3.1-1.55c1.89,0,3.06,1.19,3.06,3.01c0,1.92-1.76,3.82-4.17,6.35c0.55-0.04,1.19-0.09,1.72-0.09
			h2.95v1.13h-6.59V199.6z"/>
		<path class="st4" d="M436.84,195.24c0-3.42,1.23-5.26,3.27-5.26c2.04,0,3.27,1.84,3.27,5.26c0,3.42-1.23,5.33-3.27,5.33
			C438.07,200.57,436.84,198.66,436.84,195.24z M442.1,195.24c0-2.99-0.81-4.2-1.99-4.2s-1.99,1.21-1.99,4.2
			c0,2.99,0.81,4.27,1.99,4.27S442.1,198.23,442.1,195.24z"/>
	</g>
</g>
<polygon class="st4" points="499.61,133.48 499.61,123.3 519.33,128.3 519.33,128.48 "/>
<linearGradient id="SVGID_21_" gradientUnits="userSpaceOnUse" x1="-55.4854" y1="-356.0622" x2="-55.4854" y2="-444.3153" gradientTransform="matrix(-6.123234e-17 1 -1 -6.123234e-17 233.2976 183.911)">
	<stop  offset="0" style="stop-color:#FFFFFF"/>
	<stop  offset="0.7266" style="stop-color:#6D6F72"/>
</linearGradient>
<line class="st24" x1="589.36" y1="128.43" x2="677.61" y2="128.43"/>
<polygon class="st4" points="675.86,133.48 675.86,123.3 695.58,128.3 695.58,128.48 "/>
<polygon class="st4" points="459.82,214.78 459.82,204.61 479.53,209.61 479.53,209.78 "/>
<g>
	<g>
		<path class="st2" d="M506.65,167.7l0.66-0.86c0.61,0.64,1.41,1.2,2.61,1.2c1.24,0,2.12-0.73,2.12-1.87c0-1.21-0.84-2.03-3.26-2.03
			v-1.01c2.16,0,2.9-0.83,2.9-1.9c0-0.99-0.68-1.62-1.76-1.62c-0.85,0-1.58,0.43-2.18,1.03l-0.71-0.84
			c0.79-0.73,1.73-1.27,2.93-1.27c1.78,0,3.05,0.94,3.05,2.59c0,1.23-0.75,2.02-1.86,2.43v0.06c1.23,0.29,2.22,1.19,2.22,2.59
			c0,1.82-1.5,2.92-3.37,2.92C508.37,169.14,507.34,168.46,506.65,167.7z"/>
		<path class="st2" d="M519.11,168.15h-0.04l-0.12,0.8h-1.05v-11.4h1.32v3.12l-0.04,1.4c0.71-0.61,1.58-1.08,2.44-1.08
			c2.01,0,3.09,1.56,3.09,3.96c0,2.66-1.59,4.21-3.37,4.21C520.61,169.14,519.8,168.77,519.11,168.15z M523.34,164.95
			c0-1.72-0.59-2.87-2.05-2.87c-0.66,0-1.34,0.36-2.08,1.06v4.08c0.68,0.59,1.38,0.81,1.89,0.81
			C522.39,168.03,523.34,166.87,523.34,164.95z"/>
		<path class="st2" d="M525.76,165.07c0-2.53,1.71-4.09,3.5-4.09c1.98,0,3.1,1.43,3.1,3.65c0,0.28-0.02,0.56-0.06,0.75h-5.24
			c0.09,1.65,1.1,2.72,2.59,2.72c0.75,0,1.36-0.24,1.94-0.62l0.47,0.86c-0.68,0.45-1.51,0.81-2.57,0.81
			C527.41,169.14,525.76,167.63,525.76,165.07z M531.2,164.43c0-1.56-0.7-2.41-1.92-2.41c-1.09,0-2.07,0.88-2.23,2.41H531.2z"/>
		<path class="st2" d="M534.11,166.54v-4.3h-1.16v-1l1.22-0.08l0.16-2.18h1.1v2.18h2.11v1.07h-2.11v4.33c0,0.95,0.31,1.5,1.2,1.5
			c0.28,0,0.63-0.1,0.89-0.21l0.25,0.99c-0.44,0.15-0.96,0.29-1.44,0.29C534.67,169.14,534.11,168.09,534.11,166.54z"/>
		<path class="st2" d="M538.4,166.93c0-1.69,1.46-2.54,4.78-2.9c0-1-0.33-1.97-1.61-1.97c-0.9,0-1.71,0.43-2.32,0.83l-0.52-0.9
			c0.72-0.47,1.81-1.02,3.06-1.02c1.9,0,2.7,1.26,2.7,3.2v4.77h-1.09l-0.11-0.93h-0.04c-0.74,0.62-1.61,1.12-2.57,1.12
			C539.38,169.14,538.4,168.33,538.4,166.93z M543.18,167.05v-2.16c-2.61,0.31-3.49,0.95-3.49,1.95c0,0.88,0.6,1.24,1.36,1.24
			C541.81,168.08,542.43,167.72,543.18,167.05z"/>
	</g>
</g>
<linearGradient id="SVGID_22_" gradientUnits="userSpaceOnUse" x1="-141.6049" y1="8.5647" x2="-141.6049" y2="-27.4376" gradientTransform="matrix(-1 0 0 -1 182.8044 231.2284)">
	<stop  offset="0" style="stop-color:#FFFFFF"/>
	<stop  offset="0.7266" style="stop-color:#6D6F72"/>
</linearGradient>
<line class="st25" x1="324.41" y1="222.66" x2="324.41" y2="258.67"/>
<polygon class="st4" points="319.36,251.91 329.54,251.91 324.54,271.63 324.36,271.63 "/>
<linearGradient id="SVGID_23_" gradientUnits="userSpaceOnUse" x1="-141.6049" y1="-81.513" x2="-141.6049" y2="-117.5153" gradientTransform="matrix(-1 0 0 -1 182.8044 231.2284)">
	<stop  offset="0" style="stop-color:#FFFFFF"/>
	<stop  offset="0.7266" style="stop-color:#6D6F72"/>
</linearGradient>
<line class="st26" x1="324.41" y1="312.74" x2="324.41" y2="348.74"/>
<polygon class="st4" points="319.36,341.99 329.54,341.99 324.54,361.71 324.36,361.71 "/>
<g>
	<g>
		<path class="st19" d="M36.97,121.22h4.48c2.87,0,5.18,1.03,5.18,4.19c0,3.06-2.34,4.42-5.1,4.42h-1.61v4.42h-2.95V121.22z
			 M41.35,127.49c1.62,0,2.39-0.72,2.39-2.08c0-1.36-0.87-1.85-2.47-1.85h-1.36v3.93H41.35z"/>
		<path class="st19" d="M48.14,124.33h2.4l0.21,1.73h0.07c0.72-1.32,1.81-1.97,2.82-1.97c0.57,0,0.9,0.07,1.18,0.2l-0.49,2.54
			c-0.35-0.09-0.65-0.16-1.07-0.16c-0.75,0-1.66,0.48-2.19,1.84v5.75h-2.94V124.33z"/>
		<path class="st19" d="M55.03,129.3c0-3.22,2.3-5.21,4.68-5.21c2.83,0,4.23,2.05,4.23,4.76c0,0.53-0.07,1.06-0.12,1.3h-5.94
			c0.26,1.44,1.25,2.1,2.57,2.1c0.75,0,1.43-0.23,2.15-0.65l0.97,1.77c-1.02,0.7-2.34,1.12-3.52,1.12
			C57.22,134.5,55.03,132.59,55.03,129.3z M61.42,128.21c0-1.09-0.48-1.88-1.65-1.88c-0.93,0-1.73,0.62-1.93,1.88H61.42z"/>
		<path class="st19" d="M64.85,135.96c0-0.82,0.49-1.49,1.41-2v-0.08c-0.51-0.35-0.91-0.87-0.91-1.69c0-0.72,0.48-1.41,1.11-1.86
			v-0.08c-0.7-0.49-1.33-1.41-1.33-2.57c0-2.38,1.97-3.59,4.1-3.59c0.55,0,1.09,0.09,1.54,0.24h3.63v2.14h-1.6
			c0.19,0.3,0.34,0.79,0.34,1.31c0,2.28-1.74,3.33-3.91,3.33c-0.36,0-0.77-0.06-1.21-0.19c-0.24,0.21-0.35,0.39-0.35,0.74
			c0,0.49,0.4,0.73,1.48,0.73h1.61c2.43,0,3.79,0.75,3.79,2.52c0,2.06-2.15,3.56-5.55,3.56C66.7,138.48,64.85,137.73,64.85,135.96z
			 M71.75,135.42c0-0.63-0.54-0.77-1.51-0.77H69.2c-0.68,0-1.07-0.04-1.39-0.13c-0.37,0.31-0.54,0.62-0.54,0.97
			c0,0.75,0.87,1.14,2.2,1.14C70.8,136.63,71.75,136.1,71.75,135.42z M70.59,127.69c0-1.06-0.57-1.61-1.35-1.61
			c-0.78,0-1.35,0.55-1.35,1.61c0,1.09,0.58,1.65,1.35,1.65C70.01,129.34,70.59,128.77,70.59,127.69z"/>
		<path class="st19" d="M75.64,124.33h2.4l0.21,1.26h0.07c0.84-0.8,1.84-1.5,3.19-1.5c2.16,0,3.08,1.52,3.08,4v6.16h-2.94v-5.78
			c0-1.43-0.38-1.88-1.23-1.88c-0.74,0-1.19,0.34-1.84,0.96v6.7h-2.94V124.33z"/>
		<path class="st19" d="M86.01,129.3c0-3.22,2.3-5.21,4.68-5.21c2.83,0,4.23,2.05,4.23,4.76c0,0.53-0.07,1.06-0.12,1.3h-5.94
			c0.26,1.44,1.25,2.1,2.57,2.1c0.75,0,1.43-0.23,2.15-0.65l0.97,1.77c-1.02,0.7-2.34,1.12-3.52,1.12
			C88.2,134.5,86.01,132.59,86.01,129.3z M92.4,128.21c0-1.09-0.48-1.88-1.65-1.88c-0.93,0-1.73,0.62-1.93,1.88H92.4z"/>
		<path class="st19" d="M96.44,124.33h2.4l0.21,1.26h0.07c0.84-0.8,1.84-1.5,3.19-1.5c2.16,0,3.08,1.52,3.08,4v6.16h-2.94v-5.78
			c0-1.43-0.38-1.88-1.23-1.88c-0.74,0-1.19,0.34-1.84,0.96v6.7h-2.94V124.33z"/>
		<path class="st19" d="M106.81,129.3c0-3.3,2.32-5.21,4.83-5.21s4.83,1.91,4.83,5.21c0,3.29-2.32,5.2-4.83,5.2
			S106.81,132.59,106.81,129.3z M113.46,129.3c0-1.72-0.6-2.83-1.82-2.83s-1.82,1.12-1.82,2.83c0,1.72,0.6,2.83,1.82,2.83
			S113.46,131.02,113.46,129.3z"/>
		<path class="st19" d="M117.98,131.17v-10.93h2.94v11.05c0,0.63,0.29,0.83,0.53,0.83c0.11,0,0.19,0,0.36-0.04l0.35,2.17
			c-0.32,0.14-0.81,0.25-1.48,0.25C118.67,134.5,117.98,133.18,117.98,131.17z"/>
		<path class="st19" d="M122.63,129.3c0-3.3,2.32-5.21,4.83-5.21c2.51,0,4.83,1.91,4.83,5.21c0,3.29-2.32,5.2-4.83,5.2
			C124.95,134.5,122.63,132.59,122.63,129.3z M129.28,129.3c0-1.72-0.6-2.83-1.82-2.83c-1.22,0-1.82,1.12-1.82,2.83
			c0,1.72,0.6,2.83,1.82,2.83C128.68,132.13,129.28,131.02,129.28,129.3z"/>
		<path class="st19" d="M133.8,124.33h2.4l0.21,1.26h0.07c0.84-0.8,1.84-1.5,3.19-1.5c2.16,0,3.08,1.52,3.08,4v6.16h-2.94v-5.78
			c0-1.43-0.38-1.88-1.23-1.88c-0.74,0-1.19,0.34-1.84,0.96v6.7h-2.94V124.33z"/>
		<path class="st19" d="M144.17,129.3c0-3.22,2.3-5.21,4.68-5.21c2.83,0,4.23,2.05,4.23,4.76c0,0.53-0.07,1.06-0.12,1.3h-5.94
			c0.26,1.44,1.25,2.1,2.57,2.1c0.75,0,1.43-0.23,2.15-0.65l0.97,1.77c-1.02,0.7-2.34,1.12-3.52,1.12
			C146.36,134.5,144.17,132.59,144.17,129.3z M150.56,128.21c0-1.09-0.48-1.88-1.65-1.88c-0.93,0-1.73,0.62-1.93,1.88H150.56z"/>
	</g>
</g>
</svg>
