<?xml version="1.0" encoding="UTF-8"?>
<svg width="28px" height="40px" viewBox="0 0 28 40" version="1.1" xmlns="http://www.w3.org/2000/svg" xmlns:xlink="http://www.w3.org/1999/xlink">
    <!-- Generator: sketchtool 52.2 (67145) - http://www.bohemiancoding.com/sketch -->
    <title>5665E7F7-4294-4E98-8CA4-69C481243300</title>
    <desc>Created with sketchtool.</desc>
    <g id="Main_nav" stroke="none" stroke-width="1" fill="none" fill-rule="evenodd">
        <g id="Grupe-Analiza" transform="translate(-193.000000, -1307.000000)" fill="#EE3131">
            <g id="anemije" transform="translate(193.000000, 1307.000000)">
                <path d="M14,39.8837209 C17.6531133,39.8800874 21.1549333,38.4302326 23.7360667,35.8557209 C26.3172933,33.2793953 27.7665267,29.7892093 27.7665267,26.1482791 C27.7665267,19.1352558 21.5173933,5.41432558 14.87486,0.450604651 C14.35714,0.0636139535 13.64258,0.0636139535 13.12486,0.450604651 C6.48932667,5.41432558 0.233193333,19.1352558 0.233193333,26.1482791 C0.233193333,29.7892558 1.68242667,33.2794419 4.26365333,35.8557209 C6.84488,38.4302326 10.3466533,39.8800465 13.99972,39.8837209 L14,39.8837209 Z M14,3.48837209 C19.6074667,8.44465116 24.85,20.2037209 24.85,26.1409302 C24.85,30.0035814 22.7828067,33.5734884 19.425,35.5069767 C16.0671933,37.4382791 11.9326667,37.4382791 8.575,35.5069767 C5.21719333,33.5738605 3.15,30.0037209 3.15,26.1409302 C3.15,20.2106977 8.39253333,8.44465116 14,3.48837209 Z" id="Fill-1"></path>
                <path d="M8.8956,24.6223256 L12.5414333,24.6223256 L15.4581,24.6223256 L19.1039333,24.6223256 C19.90968,24.6223256 20.5622667,23.971907 20.5622667,23.1688372 C20.5622667,22.3657674 19.90968,21.7153488 19.1039333,21.7153488 L15.4581,21.7153488 L12.5414333,21.7153488 L8.8956,21.7153488 C8.08985333,21.7153488 7.43726667,22.3657674 7.43726667,23.1688372 C7.43726667,23.971907 8.08985333,24.6223256 8.8956,24.6223256 Z" id="Fill-2"></path>
            </g>
        </g>
        <g id="Page"></g>
    </g>
</svg>