<?xml version="1.0" encoding="UTF-8"?>
<svg width="35px" height="40px" viewBox="0 0 35 40" version="1.1" xmlns="http://www.w3.org/2000/svg" xmlns:xlink="http://www.w3.org/1999/xlink">
    <!-- Generator: sketchtool 52.6 (67491) - http://www.bohemiancoding.com/sketch -->
    <title>C7B79D30-DB38-4382-8809-E51EF536AEB0</title>
    <desc>Created with sketchtool.</desc>
    <g id="Main_nav" stroke="none" stroke-width="1" fill="none" fill-rule="evenodd">
        <g id="Grupe-Analiza" transform="translate(-189.000000, -1380.000000)" fill="#3868D9">
            <g id="antiTela" transform="translate(189.000000, 1380.000000)">
                <path d="M5.30627451,0.531556863 C5.08415294,0.252745098 4.46070588,0.405945098 3.87705882,0.850184314 C3.29494118,1.29441961 3.00235294,1.7386549 3.21070588,2.01594902 L14.020902,15.9069294 L14.020902,38.998302 C14.020902,39.3307178 14.6183137,39.6095178 15.3536078,39.6095178 C16.088902,39.6095178 16.672549,39.4701178 16.672549,39.1239098 L16.672549,15.1427333 L5.30627451,0.531556863 Z" id="Fill-1"></path>
                <path d="M12.9396078,16.5443137 L2.28235294,2.80666667 C2.00508627,2.48803922 1.38007765,2.7239451 0.949646275,3.05636078 C0.519175686,3.38877647 0.10250902,3.80545882 0.338430588,4.18075294 L10.9956863,17.9184 C11.4123529,18.4315765 11.8703922,17.9873333 12.3008235,17.6549176 C12.7312941,17.322502 13.2582353,16.9747608 12.9396078,16.5443294 L12.9396078,16.5443137 Z" id="Fill-2"></path>
                <path d="M21.5701961,16.5443137 L32.227451,2.80666667 C32.5047176,2.48803922 33.1297255,2.7239451 33.5601569,3.05636078 C33.9906275,3.38877647 34.4072941,3.80545882 34.1713725,4.18075294 L23.5141176,17.9184 C23.097451,18.4315765 22.6394118,17.9873333 22.2089804,17.6549176 C21.7647451,17.322502 21.2515686,16.9747608 21.5701961,16.5443294 L21.5701961,16.5443137 Z" id="Fill-3"></path>
                <path d="M29.2035294,0.531556863 C29.4118627,0.268078431 30.0506667,0.405945098 30.6189804,0.863972549 C31.201098,1.30820784 31.4936863,1.75244314 31.2853333,2.02973725 L20.4751373,15.9207176 L20.4751373,39.0120902 C20.4751373,39.344506 19.8777255,39.623306 19.1424314,39.623306 C18.4071373,39.623306 17.8234902,39.483906 17.8234902,39.137698 L17.8234902,15.1424039 L29.2035294,0.531556863 Z" id="Fill-4"></path>
            </g>
        </g>
        <g id="Page"></g>
    </g>
</svg>