<?xml version="1.0" encoding="UTF-8"?>
<svg width="34px" height="40px" viewBox="0 0 34 40" version="1.1" xmlns="http://www.w3.org/2000/svg" xmlns:xlink="http://www.w3.org/1999/xlink">
    <!-- Generator: sketchtool 52.6 (67491) - http://www.bohemiancoding.com/sketch -->
    <title>3424162A-E88E-40D6-AD78-C3FD834DD5BA</title>
    <desc>Created with sketchtool.</desc>
    <g id="Main_nav" stroke="none" stroke-width="1" fill="none" fill-rule="evenodd">
        <g id="Grupe-Analiza" transform="translate(-190.000000, -3852.000000)" fill="#DAC100">
            <g id="artritis" transform="translate(190.000000, 3852.000000)">
                <path d="M20,4.70723404 C17.0029787,4.70723404 14.127234,5.89740426 12.0080851,8.01838298 C9.88706383,10.1377447 8.69693617,13.0132766 8.69693617,16.0102979 C8.69693617,19.0073191 9.88710638,21.8830638 12.0080851,24.0022128 C14.1274468,26.123234 17.0029787,27.3133617 20,27.3133617 C22.9970213,27.3133617 25.872766,26.1231915 27.9919149,24.0022128 C30.1129362,21.8828511 31.3030638,19.0073191 31.3030638,16.0102979 C31.2997404,13.0132766 30.1079149,10.1409362 27.9885532,8.02178723 C25.8691915,5.90242553 22.9970638,4.7106383 20.0000426,4.7072766 L20,4.70723404 Z M23.3244681,6.61880851 L23.3244681,10.0862128 C23.3244681,10.4103489 23.5588426,10.6879574 23.8796596,10.7411489 C24.9035745,10.909034 25.7895745,11.5473191 26.271617,12.4665532 C26.7536596,13.3857872 26.7752766,14.4778723 26.3297957,15.4153617 L24.6542638,13.7398298 L24.6542638,12.0210638 L23.3244766,12.0210638 L23.3244766,13.3508511 L21.9946894,13.3508511 L21.9946894,14.6806383 L23.7134553,14.6806383 L25.5136681,16.4808511 L25.8876723,16.1068468 C25.2244383,16.9296553 24.2104809,17.3867617 23.1549489,17.3368894 C22.1010766,17.2853617 21.1336723,16.7334851 20.5535447,15.8508468 C20.4238894,15.6763106 20.2177745,15.5732553 20.0000128,15.5732553 C19.7822511,15.5732553 19.5761447,15.6763149 19.4464809,15.8508468 C18.8281404,16.7866766 17.7809064,17.3485064 16.660566,17.3451872 C15.5402255,17.3418638 14.4963532,16.7733574 13.8846511,15.8342085 C13.2729489,14.8934 13.1765234,13.7098681 13.6270043,12.682634 C14.0791319,11.657017 15.0166213,10.9273149 16.1220255,10.7411447 C16.4411745,10.6879532 16.6755574,10.4103617 16.6755574,10.0862085 L16.6755574,6.61880426 C18.8231745,5.84254894 21.176834,5.84254894 23.3244936,6.61880426 L23.3244681,6.61880851 Z M13.5304255,23.5902979 C13.9360085,22.3885106 14.9915319,21.5224681 16.2498298,21.3579149 C17.5081277,21.195017 18.7481702,21.7634979 19.4479574,22.8223404 C19.5776128,22.9968766 19.7837277,23.0999319 20.0014894,23.0999319 C20.2192426,23.0999319 20.4253574,22.9968723 20.5550213,22.8223404 C21.2514894,21.7701277 22.4831915,21.2033191 23.733234,21.3579149 C24.9848936,21.5125021 26.0420851,22.3602553 26.4626383,23.5487234 L26.5507362,23.5171404 C24.7538426,25.0979064 22.4466936,25.9739064 20.054566,25.9872255 C17.6609489,26.0005234 15.3456298,25.1494383 13.5303106,23.5902894 L13.5304255,23.5902979 Z M27.4831915,22.5862979 C26.8149787,21.2365532 25.5350638,20.2940851 24.0490213,20.056383 C22.5613191,19.8203447 21.052,20.319017 19.9998298,21.3961277 C18.9459574,20.3206809 17.4383404,19.822 15.9522979,20.0547234 C14.4645957,20.2890979 13.1830213,21.2265957 12.5114894,22.5730213 C10.4935319,20.2841277 9.63914894,17.1972766 10.1926809,14.1968511 C10.7462128,11.1964255 12.6444681,8.61514894 15.3454468,7.1972766 L15.3454468,9.56097872 C13.9641277,9.96988936 12.8504255,10.9971489 12.3285106,12.3402128 C11.8082128,13.6849787 11.9395489,15.1942553 12.6842298,16.4276596 C13.4289106,17.6610213 14.7021872,18.4805106 16.1333787,18.6467234 C17.5662298,18.8129489 18.9924426,18.305966 19.9997191,17.2737021 C21.0070383,18.3059574 22.4332511,18.8129362 23.8660596,18.6467234 C25.2972511,18.4805021 26.5705277,17.6610213 27.3152085,16.4276596 C28.0598894,15.1942979 28.1912085,13.6849787 27.6709277,12.3402128 C27.1489702,10.9971489 26.0352681,9.96987234 24.6539915,9.56097872 L24.6539915,7.1972766 C27.3568,8.61680851 29.2565447,11.1999149 29.8084596,14.2019574 C30.3603745,17.204 29.5026085,20.2938723 27.4830128,22.5828085 L27.4831915,22.5862979 Z" id="Fill-1"></path>
                <path d="M24.6544681,2.86238298 L24.6544681,0.718085106 C24.6544681,0.541889362 24.5846553,0.372340426 24.4599872,0.247659574 C24.3353191,0.122978723 24.1657702,0.0531787234 23.9895617,0.0531787234 L16.0108383,0.0531787234 C15.6434851,0.0531787234 15.3459447,0.350719149 15.3459447,0.71807234 L15.3459447,2.86237021 C11.2518596,4.30185957 8.06211489,7.56662553 6.71913617,11.6938596 C5.37615745,15.8210936 6.03428511,20.338966 8.49773191,23.9113064 L0.247944681,32.1627957 C0.123276596,32.2874638 0.0534638298,32.4570128 0.0534638298,32.6332213 L0.0534638298,37.9523706 C0.0534638298,38.2216515 0.214702128,38.4643281 0.464034043,38.5673919 C0.543821277,38.600637 0.630255319,38.61726 0.718357447,38.61726 C0.894553191,38.61726 1.06410213,38.5474472 1.18878298,38.4227791 L12.0998468,27.513417 C13.1055064,28.2015872 14.1959319,28.7551191 15.3461872,29.159034 L15.3461872,39.2820132 C15.3461872,39.4582089 15.416,39.6277579 15.5406681,39.7524387 C15.6653362,39.8771196 15.8348851,39.9469196 16.0110936,39.9469196 L23.989817,39.9469196 C24.1660128,39.9469196 24.3355617,39.8771068 24.4602426,39.7524387 C24.5849234,39.6277706 24.6547234,39.4582217 24.6547234,39.2820132 L24.6547234,29.159034 C28.3066383,27.8724809 31.2589787,25.1264383 32.8045106,21.5760553 C34.350383,18.0272043 34.350383,13.9947787 32.8045106,10.4458426 C31.2586383,6.89528936 28.3066383,4.14924681 24.6547234,2.86286383 L24.6544681,2.86238298 Z M16.6757447,1.38297872 L23.3246809,1.38297872 L23.3246809,2.46510638 C21.1438298,1.90825532 18.8565957,1.90825532 16.6757447,2.46510638 L16.6757447,1.38297872 Z M1.38297872,36.346383 L1.38297872,32.9088936 L9.31191489,24.9782553 C9.83553191,25.5999149 10.4106383,26.1750638 11.0323404,26.6986809 L1.38297872,36.346383 Z M23.3242553,38.6169791 L16.6753191,38.6169791 L16.6753191,29.5561277 C18.8561702,30.1129787 21.1434043,30.1129787 23.3242553,29.5561277 L23.3242553,38.6169791 Z M19.9997872,28.6433617 C17.2371489,28.6433617 14.5525532,27.7308085 12.3619149,26.0502553 L9.96165957,23.65 C7.65114894,20.6048085 6.8466383,16.6751064 7.77417021,12.9670213 C8.70170213,9.25859574 11.2598723,6.17 14.730766,4.56957447 C18.2016596,2.96914894 22.210766,3.02702128 25.6333191,4.73081277 C29.0558723,6.43294043 31.5226809,9.59464255 32.3405532,13.3295362 C33.1567234,17.0628979 32.2374936,20.9657064 29.8388936,23.9427277 C27.4419574,26.9197915 23.8231489,28.6486851 20.0001702,28.6435787 L19.9997872,28.6433617 Z" id="Fill-2"></path>
            </g>
        </g>
        <g id="Page"></g>
    </g>
</svg>