<?xml version="1.0" encoding="UTF-8"?>
<svg width="10px" height="17px" viewBox="0 0 10 17" version="1.1" xmlns="http://www.w3.org/2000/svg" xmlns:xlink="http://www.w3.org/1999/xlink">
    <!-- Generator: sketchtool 52.5 (67469) - http://www.bohemiancoding.com/sketch -->
    <title>4C91E60F-22C3-4BBF-A643-33711481E67A</title>
    <desc>Created with sketchtool.</desc>
    <g id="Main_nav" stroke="none" stroke-width="1" fill="none" fill-rule="evenodd">
        <g id="Osnovni-Podaci" transform="translate(-158.000000, -225.000000)" fill="#000000">
            <path d="M162.856433,229.006811 C162.541829,229.038076 162.243947,229.171882 162.004709,229.386979 L155.5736,235.149523 C155.249411,235.420894 155.044841,235.817306 155.00656,236.248761 C154.96828,236.680215 155.098672,237.110389 155.367835,237.439302 C155.63819,237.769432 156.02338,237.96952 156.437298,237.997053 C156.851217,238.023314 157.257938,237.873247 157.564182,237.580613 L163,232.708381 L168.435818,237.580613 C168.742062,237.873241 169.148783,238.023304 169.562702,237.997053 C169.97662,237.970791 170.361813,237.769451 170.632165,237.440551 C170.901325,237.110421 171.03172,236.681464 170.99344,236.248761 C170.95516,235.817306 170.750598,235.420907 170.4264,235.149523 L163.995291,229.386979 C163.680687,229.104355 163.269157,228.966793 162.856433,229.006811 Z" id="back" transform="translate(163.000000, 233.500000) rotate(-90.000000) translate(-163.000000, -233.500000) "></path>
        </g>
        <g id="Page"></g>
    </g>
</svg>