<?xml version="1.0" encoding="UTF-8"?>
<svg width="40px" height="40px" viewBox="0 0 40 40" version="1.1" xmlns="http://www.w3.org/2000/svg" xmlns:xlink="http://www.w3.org/1999/xlink">
    <!-- Generator: sketchtool 52.6 (67491) - http://www.bohemiancoding.com/sketch -->
    <title>1CA66E18-2C5F-41FD-9760-4EE48B651C4D</title>
    <desc>Created with sketchtool.</desc>
    <g id="Main_nav" stroke="none" stroke-width="1" fill="none" fill-rule="evenodd">
        <g id="Grupe-Analiza" transform="translate(-187.000000, -1474.000000)" fill="#1EC07B">
            <g id="bakterije" transform="translate(187.000000, 1474.000000)">
                <path d="M1.66666667,21.6666667 L5.09116667,21.6666667 C5.41994167,24.4889167 6.543,27.1615 8.33333333,29.36525 C8.30078333,29.3847833 8.27148333,29.4043167 8.24218333,29.4238417 L5.5176,32.158175 C5.16278333,32.4609083 4.95445,32.8971083 4.93491667,33.3593417 C4.91864167,33.8248333 5.094425,34.2740917 5.4232,34.6028417 C5.751975,34.9316167 6.20119167,35.1074 6.6667,35.091125 C7.12894167,35.0716 7.56511667,34.8600083 7.86786667,34.5084417 L10.6022,31.7838583 L10.5989417,31.7838583 C10.6217333,31.7545667 10.6412583,31.7220083 10.6575417,31.6927083 C12.8612917,33.4700417 15.5207917,34.583375 18.3332917,34.908875 L18.3332917,35.000025 L18.3332917,38.3333583 C18.3332917,39.2546083 19.0787333,40.000025 19.9999583,40.000025 C20.9211833,40.000025 21.666625,39.2545833 21.666625,38.3333583 L21.666625,35.000025 L21.666625,34.908875 C24.488875,34.5801 27.1614583,33.4570417 29.3652083,31.6667083 C29.3847333,31.6992667 29.4042667,31.7285583 29.4238,31.7578583 L32.1581333,34.4824417 C32.8189417,35.04885 33.8053,35.0130417 34.4204667,34.39455 C35.0357,33.7793167 35.0747667,32.7962167 34.5083583,32.1322167 L31.783775,29.3978833 L31.783775,29.4011417 C31.754475,29.3783583 31.721925,29.358825 31.692625,29.34255 C33.4699583,27.1388 34.5832917,24.4793 34.9087917,21.6668 L38.3332917,21.6668 C39.2545417,21.6668 39.9999583,20.9213583 39.9999583,20.0001333 C39.9999583,19.0789083 39.2545167,18.3334667 38.3332917,18.3334667 L34.9087917,18.3334667 C34.5800167,15.5112167 33.4569583,12.8386333 31.666625,10.6348833 C31.699175,10.61535 31.728475,10.5958167 31.757775,10.5762833 L34.4823583,7.84195 C35.0487667,7.18114167 35.0129583,6.19478333 34.3944667,5.57961667 C33.7792333,4.96438333 32.7961333,4.92531667 32.1321333,5.491725 L29.3978,8.21630833 L29.4010583,8.21630833 C29.3782667,8.24560833 29.3587333,8.27815833 29.3424583,8.30745833 C27.1387083,6.530125 24.4792083,5.41679167 21.6667083,5.09129167 L21.6667083,5.00014167 L21.6667083,1.66680833 C21.6667083,0.745558333 20.9212667,0.000141666667 20.0000417,0.000141666667 C19.0788167,0.000141666667 18.333375,0.745583333 18.333375,1.66680833 L18.333375,5.00014167 L18.333375,5.09129167 C15.511125,5.42006667 12.8385417,6.543125 10.6347917,8.33345833 C10.6152583,8.30090833 10.5957333,8.27161667 10.5762,8.24230833 L7.84186667,5.517725 C7.18105833,4.95131667 6.1947,4.987125 5.57953333,5.60561667 C4.9643,6.22085 4.92523333,7.20395 5.49164167,7.86795 L8.216225,10.6022833 L8.216225,10.5990333 C8.245525,10.6218167 8.278075,10.64135 8.307375,10.657625 C6.53004167,12.861375 5.41670833,15.520875 5.09120833,18.333375 L1.66670833,18.333375 C0.745458333,18.333375 4.16666667e-05,19.0788167 4.16666667e-05,20.0000417 C4.16666667e-05,20.9212667 0.745483333,21.6667083 1.66670833,21.6667083 L1.66666667,21.6666667 Z M20,8.33333333 C24.7200833,8.33333333 28.9716667,11.1751667 30.7783333,15.5338333 C32.585,19.8958333 31.585625,24.9121667 28.249,28.2488333 C24.9124167,31.5854167 19.8965,32.58475 15.534,30.7781667 C11.17525,28.9715 8.3335,24.72025 8.3335,19.9998333 C8.3335,13.55775 13.5580833,8.33316667 20.0001667,8.33316667 L20,8.33333333 Z" id="Fill-1"></path>
                <path d="M16.6666667,26.6666667 C18.6881667,26.6666667 20.5110833,25.44925 21.2858333,23.58075 C22.060575,21.71225 21.6308833,19.5605833 20.2018333,18.1315 C18.7728333,16.7025 16.6210833,16.27275 14.7525833,17.0475 C12.8840833,17.8222417 11.6666667,19.6451667 11.6666667,21.6666667 C11.6666667,24.4270833 13.90625,26.6666667 16.6666667,26.6666667 Z M16.6666667,20 C17.3404917,20 17.94925,20.4069 18.2064167,21.0286667 C18.4635833,21.6504333 18.32035,22.3698333 17.8450917,22.8450833 C17.3698333,23.3203417 16.650425,23.463575 16.028675,23.2064083 C15.406925,22.9492417 15.0000083,22.3404917 15.0000083,21.6666583 C15.0000083,20.7454083 15.74545,19.9999917 16.666675,19.9999917 L16.6666667,20 Z" id="Fill-2"></path>
                <path d="M28.3333333,19.1666667 C28.3333333,22.5 23.3333333,22.5 23.3333333,19.1666667 C23.3333333,15.8333333 28.3333333,15.8333333 28.3333333,19.1666667" id="Fill-3"></path>
                <path d="M23.3333333,13.3333333 C23.3333333,15.5566667 20,15.5566667 20,13.3333333 C20,11.11 23.3333333,11.11 23.3333333,13.3333333" id="Fill-4"></path>
            </g>
        </g>
        <g id="Page"></g>
    </g>
</svg>