<?xml version="1.0" encoding="UTF-8"?>
<svg width="55px" height="66px" viewBox="0 0 55 66" version="1.1" xmlns="http://www.w3.org/2000/svg" xmlns:xlink="http://www.w3.org/1999/xlink">
    <!-- Generator: sketchtool 52.5 (67469) - http://www.bohemiancoding.com/sketch -->
    <title>88DEA547-F8AC-483A-A2CF-0113086B22D5</title>
    <desc>Created with sketchtool.</desc>
    <g id="Main_nav" stroke="none" stroke-width="1" fill="none" fill-rule="evenodd">
        <g id="Checkout" transform="translate(-262.000000, -1432.000000)" fill="#1D88E5">
            <g id="besplantoTumacenje" transform="translate(262.000000, 1432.000000)">
                <path d="M28.0518333,34.7181818 C28.2344517,34.5361672 28.3275483,34.3541525 28.3275483,34.2613636 C30.5260817,30.0571745 37.311615,17.5409045 37.311615,17.5409045 C37.9525667,16.4452718 37.4942333,15.0748173 36.3949483,14.4360027 L28.051815,9.96064636 C27.500385,9.68584282 26.859415,9.59661709 26.311615,9.77863173 C25.760185,9.96064636 25.2123483,10.3282388 24.936615,10.8742645 L15.9525483,27.5947235 C15.76993,27.8695271 15.6768333,28.2335564 15.6768333,28.6011854 L15.4011183,39.2011945 C15.4011183,40.0220419 15.8594517,40.8464708 16.5935183,41.303289 C16.958755,41.4853036 17.3275667,41.5780925 17.692785,41.5780925 C18.1511183,41.5780925 18.6094517,41.3960779 18.9746517,41.1212744 C18.9746517,41.1212744 24.4746517,37.1919071 27.682985,35.0006416 C27.8656033,34.9007081 27.9587,34.8114915 28.0517967,34.7187026 L28.0518333,34.7181818 Z M27.86564,15.075 L32.17324,17.3590909 L25.3913733,30.0568091 L21.2663733,27.8655436 L21.083755,27.7727547 L27.86564,15.075 Z" id="Fill-1"></path>
                <path d="M54.7240833,2.8341 C54.7240833,1.55647091 53.7142833,0.550009091 52.4324167,0.550009091 L2.56758333,0.550009091 C1.28571667,0.550009091 0.275916667,1.55647091 0.275916667,2.8341 L0.275916667,62.9522864 C0.275916667,63.8659227 0.827346667,64.6867336 1.65091667,65.0543809 C1.92663167,65.1471698 2.20234667,65.2363955 2.56758333,65.2363955 C3.208535,65.2363955 3.75998333,64.961592 4.21831667,64.5975627 L16.8692333,51.9884673 L52.4368167,51.9884673 C53.7186833,51.9884673 54.7284833,50.9820055 54.7284833,49.7043764 C54.7284833,48.4267473 53.7186833,47.4202855 52.4368167,47.4202855 L15.8599833,47.4167223 C15.2190317,47.4167223 14.6675833,47.6915258 14.20925,48.0555551 L4.86016667,57.4669233 L4.86016667,5.11829141 L50.0527408,5.11829141 L50.0527408,37.9160096 L30.0684908,37.9160096 C28.7866242,37.9160096 27.7768242,38.9224714 27.7768242,40.2001005 C27.7768242,41.4777296 28.7866242,42.4841914 30.0684908,42.4841914 L52.4333333,42.4841914 C53.7151908,42.4841914 54.725,41.4777296 54.725,40.2001005 L54.725,40.1073116 L54.725,2.83368886 L54.7240833,2.8341 Z" id="Fill-2"></path>
            </g>
        </g>
        <g id="Page"></g>
    </g>
</svg>