<?xml version="1.0" encoding="UTF-8"?>
<svg width="24px" height="40px" viewBox="0 0 24 40" version="1.1" xmlns="http://www.w3.org/2000/svg" xmlns:xlink="http://www.w3.org/1999/xlink">
    <!-- Generator: sketchtool 52.2 (67145) - http://www.bohemiancoding.com/sketch -->
    <title>5F341FA4-7EF9-4FEF-8C14-466964D8F0AF</title>
    <desc>Created with sketchtool.</desc>
    <g id="Main_nav" stroke="none" stroke-width="1" fill="none" fill-rule="evenodd">
        <g id="Grupe-Analiza" transform="translate(-194.000000, -1571.000000)" fill="#46D2EE">
            <g id="biohemija" transform="translate(194.000000, 1571.000000)">
                <path d="M6.62540882,2.93790869 L6.62540882,6.71484145 L6.62540882,11.2807684 L6.62540882,15.2293863 C6.62540882,15.8686236 6.60726399,15.3607627 6.62540882,16 C5.87778239,16.5955062 5.18520364,17.1428543 4.54767257,17.6420441 C3.6857235,18.3177971 2.95444878,19.1159086 2.30121635,19.9980906 C0.967483128,21.7970909 0.218045004,23.9832243 0.0365967106,26.211386 C-0.141232837,28.4030366 0.336004976,30.6275561 1.31588615,32.5892645 C2.23771409,34.4338978 3.66579484,35.9954752 5.35336617,37.1515445 C8.92812052,39.5897372 13.6732303,39.7906443 17.4968373,37.8364149 C19.3332,36.8958403 20.8955785,35.4438572 22.0333234,33.7234056 C23.1982902,31.9609679 23.8478992,29.884382 23.9785736,27.7728698 C24.2543926,23.2653869 21.84644,18.8510403 17.959563,16.6175485 C17.6184067,16.4227352 17.4200028,16.2168856 17.3643513,16 L17.3643513,11.8360801 L17.3643513,7.2701531 L17.3643513,3.32518211 C17.3643513,2.68594485 17.3788681,2.0467076 17.3643513,1.40747034 C17.3643513,0.664155985 16.7382943,-0.022584565 16.0033962,0.0102843489 C15.2630165,0.0431579383 14.6424411,0.613005784 14.6424411,1.38007179 L14.6424411,2.95076637 L14.6424411,6.72222877 L14.6424411,11.2881557 L14.6424411,15.2331267 C14.6424411,15.872364 14.6206682,16.5116012 14.6424411,17.1508385 C14.6424411,17.4850681 14.7513193,17.7717945 14.9327769,18.0092174 C15.1287559,18.2649123 15.3410634,18.3781441 15.6404531,18.5023446 C15.6803755,18.5206072 15.7221095,18.5352182 15.7584038,18.5534855 C15.6495255,18.5078244 15.5406519,18.4621679 15.4317783,18.4165067 C16.0578353,18.686808 16.662059,19.0100642 17.2282372,19.3935972 C17.3697771,19.4885663 17.5095006,19.5853683 17.6455961,19.6894688 C17.6927792,19.725994 17.7544744,19.7753067 17.8198023,19.8319226 C18.0738485,20.0419564 18.3133732,20.2666011 18.5456419,20.4985584 C18.7760942,20.7305063 18.9992905,20.9734043 19.2079793,21.2291086 C19.2624184,21.2930323 19.3168575,21.3606076 19.367664,21.4263595 C19.4493157,21.5414241 19.5491216,21.6784028 19.6434784,21.8208566 C20.024543,22.3907091 20.3511546,22.9933838 20.6197501,23.6289741 C20.574388,23.5193893 20.5290213,23.4098091 20.4836546,23.3002289 C20.8465744,24.1732422 21.0969833,25.0809479 21.2240343,26.0178756 C21.2058894,25.8936844 21.1913726,25.7767963 21.1732232,25.6526005 C21.3002463,26.6205736 21.3002463,27.5977108 21.1732232,28.5656839 C21.1913726,28.4414881 21.2058894,28.3246 21.2240343,28.2004089 C21.0933831,29.1355131 20.8429696,30.0541595 20.4800312,30.9253493 C20.5253979,30.8157692 20.57076,30.7061843 20.6161267,30.5966041 C20.4074473,31.0860844 20.1661062,31.5609303 19.884852,32.0175417 C19.7487565,32.2421865 19.609033,32.4558719 19.4529763,32.6658963 C19.4166866,32.7170371 19.3840203,32.7608655 19.3495424,32.8120063 C19.4910823,32.6293664 19.3277695,32.8394002 19.2914752,32.890541 C19.2461131,32.9453335 19.2043745,33.0001212 19.1608241,33.0512621 C18.8196771,33.4530623 18.4531479,33.8329625 18.0575479,34.1836265 C17.9668191,34.2603331 17.8760903,34.3388679 17.7853568,34.4155745 C17.7309177,34.4612356 17.6764786,34.5032405 17.6220441,34.5470735 C17.5186102,34.6383911 17.7998736,34.4009635 17.7817288,34.4228823 C17.7599559,34.4502809 17.7127729,34.4740232 17.687372,34.4959373 C17.4786925,34.6511787 17.270013,34.8027684 17.0522565,34.937919 C16.5478154,35.2630127 16.0179176,35.5442874 15.4644678,35.7817103 C15.5733461,35.7360539 15.6822197,35.6903927 15.7910979,35.6447316 C14.9237138,36.0100067 14.0164259,36.2620406 13.0837277,36.3935631 C13.2071228,36.3753005 13.3232571,36.3606895 13.4466476,36.3424222 C12.4849159,36.4702697 11.5086441,36.4702697 10.5432891,36.3424222 C10.6666841,36.3606848 10.7828185,36.3752958 10.9062089,36.3935631 C9.98981601,36.2657156 9.10069151,36.0191567 8.24780091,35.6630129 C8.35667918,35.708674 8.4655528,35.7543305 8.57442642,35.7999916 C8.08447887,35.5899579 7.60907133,35.3470505 7.15540414,35.0694414 C6.93220788,34.9324627 6.71627233,34.7918324 6.5057951,34.6347629 C6.44772793,34.5945815 6.39328879,34.5525766 6.33884966,34.5105717 C6.3170768,34.4923091 6.29348759,34.4740465 6.2662657,34.4557793 C6.15738743,34.373593 6.45135596,34.5872783 6.42595042,34.5799705 C6.31707215,34.5434453 6.1900537,34.393679 6.10295294,34.3151443 C5.70011079,33.971788 5.32266954,33.5992285 4.97788991,33.2010611 C4.89078915,33.1060919 4.81094447,33.0038102 4.7274764,32.9051894 C4.69118674,32.8595283 4.65489244,32.8102156 4.6149701,32.762731 C4.50609648,32.6074897 4.35366783,32.3883246 4.20849991,32.1600189 C3.88550243,31.6486104 3.6060414,31.1098501 3.37377272,30.5528085 C3.41913944,30.6623887 3.46450151,30.7719736 3.50986823,30.8815537 C3.15602083,30.0231748 2.91103312,29.1245864 2.78402861,28.2058932 C2.80217808,28.3300844 2.81669487,28.4469725 2.83483506,28.5711683 C2.70781196,27.6177828 2.70781196,26.6498097 2.83120702,25.6891303 C2.81306219,25.8133215 2.7985454,25.9302095 2.78039592,26.0544054 C2.90741902,25.1010199 3.16146057,24.1696093 3.53345744,23.2819616 C3.48809072,23.3915465 3.44272865,23.5011267 3.39736193,23.6107069 C3.66592027,22.9805869 3.9925272,22.3779122 4.36815211,21.8117066 C4.46250893,21.6692481 4.55868675,21.5340975 4.66211599,21.3952953 C4.6984103,21.3532904 4.74740505,21.2857151 4.80365588,21.2199633 C5.01233536,20.9679246 5.23553162,20.7268361 5.46599325,20.49306 C5.69644559,20.2611121 5.93777739,20.0401189 6.19183288,19.8318945 C6.25534443,19.7771021 6.32248401,19.7277894 6.3878119,19.6711735 C6.5021299,19.5889872 6.63822541,19.4885336 6.77976065,19.3935644 C7.34226894,19.0100268 7.94472745,18.6849424 8.57259614,18.416474 C8.46371788,18.4621305 8.35484426,18.5077916 8.24597063,18.5534528 C8.28589297,18.5351902 8.32218263,18.5205792 8.36392132,18.5023119 C8.65062913,18.3835958 8.87565567,18.2648843 9.07159753,18.0091847 C9.25305511,17.7717571 9.36193338,17.4886589 9.36193338,17.1782043 L9.36193338,15.6075097 L9.36193338,11.830577 L9.36193338,7.26465001 L9.36193338,3.31603211 C9.36193338,2.67679486 9.37645017,2.0375576 9.36193338,1.39832035 C9.36193338,0.65500599 8.73587638,-0.0317345599 8.00097828,0.00113435395 C7.24791676,0.0303563613 6.6255296,0.600162127 6.6255296,1.36727489 L6.62540882,2.93790869 Z" id="Fill-1"></path>
                <path d="M22.7365983,26.4203723 C22.7365983,32.0606615 17.9285658,36.6315789 11.9998781,36.6315789 C6.15699791,36.6315789 1.39866808,32.1895837 1.26315789,26.6638573 L1.77603345,26.4809492 C1.77603345,26.4809492 4.17911193,23.9115585 8.39164989,26.2370718 C12.600718,28.5625763 16.3590859,26.2370718 16.3590859,26.2370718 C16.3590859,26.2370718 19.8171744,24.2825921 22.2240041,25.9931945 L22.7331754,26.0593903 C22.7368421,26.1795853 22.7368421,26.2980412 22.7368421,26.4199754 L22.7365983,26.4203723 Z" id="Fill-2"></path>
                <path d="M21.265327,26.6754029 C21.265327,27.1814371 21.2326659,27.6798824 21.1655276,28.1821463 C21.1836721,28.0537502 21.1981886,27.9329091 21.2163377,27.8045179 C21.085689,28.7712466 20.8352799,29.7209609 20.4723481,30.6216137 C20.517714,30.5083276 20.5630752,30.3950367 20.6084411,30.2817506 C20.3997654,30.7877847 20.1584287,31.2786896 19.8771796,31.7507432 C19.7410865,31.9829853 19.6013655,32.2038973 19.4453116,32.4210246 C19.4090226,32.4738949 19.3763569,32.5192055 19.3418795,32.5720759 C19.3055905,32.6192813 19.1694975,32.8080931 19.323735,32.6003962 C19.4834169,32.3832593 19.3201071,32.6003962 19.2838134,32.6532666 C19.2384522,32.7099121 19.1967142,32.7665527 19.1531646,32.8194231 C18.8120238,33.234812 18.4455011,33.62756 18.0499082,33.9900833 C17.9591811,34.069384 17.8684539,34.1505747 17.7777221,34.2298755 C17.7232839,34.2770809 17.6688458,34.3205063 17.6144123,34.3658217 C17.5109802,34.4602276 17.7922386,34.2147704 17.7740941,34.2374305 C17.7523216,34.2657556 17.7051394,34.2903009 17.679739,34.3129562 C17.4710633,34.4734476 17.2623875,34.630164 17.0446349,34.7698853 C16.5402029,35.1059734 16.0103146,35.3967606 15.4568747,35.642213 C15.5657511,35.5950124 15.6746227,35.5478071 15.7834944,35.5006017 C14.9161258,35.8782301 14.0088542,36.1387877 13.0761728,36.2747581 C13.199561,36.2558779 13.3156933,36.2407727 13.4390861,36.2218877 C12.4773717,36.3540588 11.5011175,36.3540588 10.5357798,36.2218877 C10.659168,36.2407727 10.7753002,36.2558779 10.8986931,36.2747581 C9.98231667,36.1425869 9.09320814,35.8876896 8.24033286,35.5195013 C8.34920453,35.5667066 8.45808084,35.6139072 8.56695251,35.6611125 C8.07701375,35.4439756 7.60161476,35.1928533 7.14795572,34.9058557 C6.92476346,34.7642445 6.7088318,34.6188581 6.49835834,34.4564767 C6.44029222,34.4149412 6.38585406,34.3715109 6.33141591,34.3280855 C6.30964343,34.3092052 6.28605465,34.290325 6.25883325,34.27144 C6.14996158,34.1864742 6.44392019,34.4073862 6.4185151,34.3998312 C6.30964343,34.3620708 6.18262262,34.2072395 6.09552343,34.1260488 C5.69268851,33.7710805 5.31525404,33.3859213 4.9704806,32.9742882 C4.88338141,32.8761073 4.80353817,32.7703665 4.72007159,32.6684104 C4.68378259,32.6212099 4.64748893,32.5702246 4.60756731,32.5211341 C4.4805465,32.3606427 4.81624303,32.8137968 4.65837749,32.5872197 C4.49869564,32.3606427 4.34626974,32.1340656 4.20110442,31.8980388 C3.87811275,31.3693349 3.59865674,30.8123541 3.36639223,30.2364738 C3.41175814,30.3497599 3.45711939,30.4630509 3.5024853,30.576337 C3.14864426,29.6889284 2.90366094,28.7599504 2.77665871,27.8101878 C2.79480321,27.938579 2.80931975,28.0594201 2.82746889,28.1878162 C2.77303074,27.7724225 2.7403697,27.3570095 2.73311376,26.9416545 C2.4028615,27.3948086 2.0653533,27.8517329 1.73511962,28.304887 C2.11617742,28.1538357 2.54261041,28.0311046 2.84562269,27.7384323 C2.90368882,27.6817869 2.95812697,27.6213663 3.02344904,27.5647208 C3.0506658,27.5420656 3.0778872,27.5175203 3.10510395,27.4929702 C3.12324846,27.4778651 3.1413976,27.4646499 3.15591414,27.4514347 C3.28293495,27.3381438 2.9109494,27.6440264 2.94723841,27.6213663 C3.03796557,27.5609458 3.12506476,27.4854201 3.21942454,27.4231096 C3.44624477,27.2682831 3.68757688,27.1398871 3.93619281,27.026601 C3.82732115,27.0738015 3.71844484,27.1210069 3.60957317,27.1682122 C3.98155872,27.0077208 4.37167948,26.9000948 4.77089571,26.8377892 C4.64750287,26.8566694 4.53137062,26.8717745 4.40798242,26.8906547 C4.86162287,26.8302342 5.32068903,26.8302342 5.7725364,26.8906547 C5.64914356,26.8717697 5.53301131,26.8566646 5.40962311,26.8377892 C5.99934269,26.922755 6.56732232,27.1021266 7.1153272,27.3438233 C7.00645554,27.296618 6.89757923,27.2494174 6.78870756,27.2022121 C7.33308911,27.4476693 7.83208618,27.7837477 8.36736297,28.0462146 C8.95708255,28.3388772 9.56858855,28.5899995 10.2000693,28.7485913 C11.2162265,29.0034887 12.2777682,29.0884593 13.3174771,28.9525131 C14.6021785,28.7863566 15.8615167,28.4143835 16.9828897,27.7252026 C17.2405593,27.5647112 17.5181665,27.43254 17.7940038,27.3060339 L17.4673842,27.4476452 C18.0879485,27.1738628 18.7375923,26.971831 19.4089761,26.8717649 C19.2855879,26.8906451 19.1694557,26.9057502 19.0460628,26.9246353 C19.4960753,26.8642147 19.9478995,26.8528847 20.3979352,26.9095301 C20.274547,26.8906451 20.1584147,26.8755399 20.0350219,26.8566597 C20.3797907,26.9095301 20.715464,26.998271 21.0366393,27.1398822 C20.9277677,27.0926769 20.8188914,27.0454763 20.7100197,26.998271 C20.8697015,27.0700216 21.0184948,27.1493223 21.1636602,27.2437282 C21.3632636,27.3721195 21.5302014,27.5307258 21.7769778,27.5835914 C21.9402876,27.6175767 22.1036021,27.6307919 22.2669166,27.655342 C21.9366643,27.2021879 21.5991561,26.7452636 21.2689224,26.2921095 C21.2652945,26.4148405 21.2652945,26.5470069 21.2652945,26.6754029 C21.2689224,27.4155304 21.8913402,28.125496 22.6262251,28.0915155 C23.36111,28.0575253 23.9907791,27.4684105 23.9871558,26.6754029 C23.9871558,26.5432318 23.9835278,26.4148405 23.9780835,26.2826694 C23.9690113,25.9616864 23.8746515,25.6784639 23.6877529,25.4235859 C23.5244431,25.206449 23.2558849,24.9553267 22.9800894,24.9137815 C22.8131469,24.8911214 22.6443928,24.8665762 22.4756573,24.8420309 C22.5845336,24.8892314 22.6934053,24.9364368 22.802277,24.9836422 C21.3869035,23.9036128 19.4906961,23.8545514 17.8522558,24.3039352 C17.0756097,24.5154071 16.297152,24.8326391 15.6058399,25.2574681 C15.3372864,25.4236246 15.0614584,25.5633459 14.774751,25.691742 C14.8836274,25.6445366 14.992499,25.5973361 15.1013707,25.5501307 C14.4263636,25.8427933 13.7186536,26.0448058 12.9964968,26.1505659 C13.119885,26.1316809 13.2360173,26.1165757 13.3594101,26.0977003 C12.6880263,26.1883312 12.0130192,26.1921062 11.341589,26.1071404 C11.4649772,26.1260207 11.5811094,26.1411258 11.7045023,26.1600108 C11.0149554,26.0618299 10.3526299,25.8730133 9.71209085,25.5935562 C9.82096716,25.6407567 9.92983883,25.687962 10.0387105,25.7351674 C9.5633115,25.5236955 9.12233411,25.2404923 8.65961675,24.9950399 C8.18421776,24.7401425 7.67973925,24.5192257 7.17168386,24.3493135 C6.40957756,24.0944161 5.57486537,23.9622449 4.77280957,24.0094503 C3.63870843,24.0812009 2.49554898,24.4399443 1.57917259,25.1517853 C1.35235236,25.3254968 1.09829215,25.5143086 0.907788801,25.7370912 C1.10739227,25.6143602 1.30699575,25.497299 1.50661316,25.3745679 C1.33967072,25.4406535 1.17091662,25.5067391 0.998511318,25.5728247 C0.445071448,25.7899616 -0.0176459047,26.2752014 0.000517179869,26.9360572 C0.0640275869,29.4435098 0.831606042,31.9432285 2.26871946,33.9694919 C3.75665235,36.0615412 5.75268708,37.6287051 8.11528165,38.4859499 C10.4197636,39.3261822 13.0290696,39.3733585 15.3735475,38.6558815 C17.6326915,37.9610471 19.728507,36.5600639 21.2201097,34.6530465 C22.8133049,32.6138289 23.7641493,30.1875815 23.963711,27.5630581 C23.9854835,27.2647304 23.996372,26.9682782 24,26.6718309 C24,25.9317034 23.3739542,25.2217378 22.6390693,25.2557183 C21.887833,25.2915888 21.270892,25.8825935 21.265457,26.6756011 L21.265327,26.6754029 Z" id="Fill-3"></path>
                <path d="M18.7110147,0 L16.6574063,0 C15.874339,0 15.1231835,0.581069016 15.1591355,1.26315789 C15.1950926,1.95033442 15.818391,2.52631579 16.6574063,2.52631579 L18.7110147,2.52631579 C19.494082,2.52631579 20.2452375,1.94524677 20.2092856,1.26315789 C20.1693344,0.582750524 19.55003,0 18.7110147,0 Z" id="Fill-4"></path>
                <path d="M8.59980888,0 L6.55808586,0 C5.77191518,0 5.01778282,0.581069016 5.05387725,1.26315789 C5.08997682,1.95033442 5.71574547,2.52631579 6.55808586,2.52631579 L8.59980888,2.52631579 C9.38597955,2.52631579 10.1401119,1.94524677 10.1040175,1.26315789 C10.0639029,0.582750524 9.44214927,0 8.59980888,0 Z" id="Fill-5"></path>
            </g>
        </g>
        <g id="Page"></g>
    </g>
</svg>