<svg xmlns="http://www.w3.org/2000/svg" width="18.984" height="20.908" viewBox="0 0 18.984 20.908">
  <path id="icon_krvniPritisak" d="M10.107,3.463h2.07V1.969a1.017,1.017,0,0,0-.308-.747,1.006,1.006,0,0,0-.737-.308.984.984,0,0,0-.718.308,1.017,1.017,0,0,0-.308.747ZM17,5.426,18.418,6.9l1.016-1.016a1.065,1.065,0,0,0,.342-.771.951.951,0,0,0-.288-.7.962.962,0,0,0-.708-.288,1.1,1.1,0,0,0-.791.322Zm-5.859,8.457a1.542,1.542,0,0,0,1.543-1.543,1.522,1.522,0,0,0-.85-1.377v-4.4a.666.666,0,0,0-.2-.5.691.691,0,0,0-.5-.2.676.676,0,0,0-.684.693v4.395a1.671,1.671,0,0,0-.62.576,1.466,1.466,0,0,0-.239.811,1.55,1.55,0,0,0,1.553,1.543Zm0,7.939a9.111,9.111,0,0,0,3.672-.747A9.726,9.726,0,0,0,19.893,16a9.43,9.43,0,0,0,0-7.334A9.731,9.731,0,0,0,14.8,3.58a9.406,9.406,0,0,0-7.324,0A9.731,9.731,0,0,0,2.393,8.663,9.4,9.4,0,0,0,2.4,16,9.758,9.758,0,0,0,7.48,21.075,9.087,9.087,0,0,0,11.143,21.822Zm0-1.748a7.577,7.577,0,0,1-3.008-.6,7.725,7.725,0,0,1-4.121-4.126,7.916,7.916,0,0,1,0-6.025A7.755,7.755,0,0,1,8.13,5.187a7.542,7.542,0,0,1,3-.6,7.591,7.591,0,0,1,3.022.6,7.8,7.8,0,0,1,4.131,4.136,7.577,7.577,0,0,1,.6,3.008,7.432,7.432,0,0,1-.6,3.018,7.873,7.873,0,0,1-1.66,2.466,7.707,7.707,0,0,1-2.461,1.66A7.626,7.626,0,0,1,11.143,20.074Z" transform="translate(-1.65 -0.914)" fill="#2680eb"/>
</svg>
