<svg xmlns="http://www.w3.org/2000/svg" width="15.82" height="15.283" viewBox="0 0 15.82 15.283">
  <path id="icon_BMI" d="M3.135,20.143H17.412a.752.752,0,0,0,.557-.205.765.765,0,0,0,.205-.566V15.748a.765.765,0,0,0-.205-.566.752.752,0,0,0-.557-.205H3.135a.779.779,0,0,0-.576.205.765.765,0,0,0-.205.566v3.623a.765.765,0,0,0,.205.566A.779.779,0,0,0,3.135,20.143Zm0-7.891H17.412a.742.742,0,0,0,.557-.21.782.782,0,0,0,.205-.571V9.977a.7.7,0,0,0-.762-.771H3.135a.79.79,0,0,0-.576.2.762.762,0,0,0-.205.571v1.494a.782.782,0,0,0,.205.571A.769.769,0,0,0,3.135,12.252ZM2.9,6.422H17.646a.511.511,0,0,0,.386-.146.538.538,0,0,0,.142-.391V5.4a.538.538,0,0,0-.142-.391.511.511,0,0,0-.386-.146H2.9a.541.541,0,0,0-.4.146.528.528,0,0,0-.146.391v.488a.528.528,0,0,0,.146.391A.541.541,0,0,0,2.9,6.422Z" transform="translate(-2.354 -4.859)" fill="#2680eb"/>
</svg>
