<?xml version="1.0" encoding="UTF-8"?>
<svg width="40px" height="40px" viewBox="0 0 40 40" version="1.1" xmlns="http://www.w3.org/2000/svg" xmlns:xlink="http://www.w3.org/1999/xlink">
    <!-- Generator: sketchtool 52.6 (67491) - http://www.bohemiancoding.com/sketch -->
    <title>3E7B4CE0-3824-486C-B05E-ACAC48003B03</title>
    <desc>Created with sketchtool.</desc>
    <g id="Main_nav" stroke="none" stroke-width="1" fill="none" fill-rule="evenodd">
        <g id="Grupe-Analiza" transform="translate(-188.000000, -1647.000000)" fill="#FAD400">
            <g id="bris" transform="translate(188.000000, 1647.000000)">
                <g id="Group-6">
                    <path d="M32.3027199,0.721711129 C33.3424133,1.76140455 33.4422349,3.3509226 31.3613148,5.43050602 C30.2417326,6.55008815 28.4187996,7.28107775 26.973726,7.71877511 L7.71826571,26.9742354 C7.28056834,28.4209209 6.54953944,30.2423207 5.42999662,31.3618242 C3.34903717,33.4427844 1.76109172,33.3444961 0.721201728,32.3032301 C-0.318491692,31.2635359 -0.418313268,29.6740178 1.66260687,27.5944344 C2.782189,26.4748523 4.60512206,25.7438627 6.05019566,25.3061653 L25.3040833,6.05227768 C25.7417807,4.60559215 26.4728096,2.78419238 27.5923524,1.66468888 C29.6748451,-0.417803867 31.2627906,-0.319515588 32.3023267,0.721750444 L32.3027199,0.721711129 Z" id="Fill-1"></path>
                    <path d="M38.9075042,7.32649545 C39.9471976,8.36618887 40.0470192,9.95570693 37.9660991,12.0352903 C36.8465169,13.1548725 35.0235839,13.8858621 33.5785103,14.3235594 L14.32305,33.5790197 C13.8853527,35.0257052 13.1543238,36.847105 12.0347809,37.9666085 C9.95382149,40.0475687 8.36587605,39.9492804 7.32598605,38.9080144 C6.28629263,37.8683202 6.18647106,36.2788021 8.26739119,34.1992187 C9.38697333,33.0796366 11.2099064,32.348647 12.65498,31.9109496 L31.9088676,12.657062 C32.346565,11.2103765 33.0775939,9.38897671 34.1971367,8.26947321 C36.2796295,6.18698046 37.8675749,6.28526874 38.9071111,7.32653477 L38.9075042,7.32649545 Z" id="Fill-1"></path>
                </g>
            </g>
        </g>
        <g id="Page"></g>
    </g>
</svg>