<?xml version="1.0" encoding="UTF-8"?>
<svg width="40px" height="39px" viewBox="0 0 40 39" version="1.1" xmlns="http://www.w3.org/2000/svg" xmlns:xlink="http://www.w3.org/1999/xlink">
    <!-- Generator: sketchtool 52.6 (67491) - http://www.bohemiancoding.com/sketch -->
    <title>B3A90189-3AD8-4B29-9EF1-6BCE3F514AA2</title>
    <desc>Created with sketchtool.</desc>
    <g id="Main_nav" stroke="none" stroke-width="1" fill="none" fill-rule="evenodd">
        <g id="Grupe-Analiza" transform="translate(-188.000000, -4824.000000)" fill="#FF9600">
            <g id="Celikalija" transform="translate(188.000000, 4823.000000)">
                <g id="Group" transform="translate(0.000000, 0.797250)">
                    <path d="M19.990235,30.904125 C19.6460049,30.9094117 19.3708963,31.1921288 19.375,31.536375 L19.375,34.019375 C19.375,34.364553 19.654822,34.644375 20,34.644375 C20.345178,34.644375 20.625,34.364553 20.625,34.019375 L20.625,31.536375 C20.6270128,31.3676449 20.5607001,31.2052731 20.4411448,31.0861915 C20.3215895,30.96711 20.1589557,30.9014423 19.990235,30.904125 Z" id="Shape"></path>
                    <path d="M19.9975588,6.526625 C19.8080735,6.52783536 19.6293733,6.614962 19.5117188,6.7635 C19.5117188,6.7635 19.0604138,7.32925 18.6083988,8.06475 C18.1563825,8.80025 17.65625,9.669125 17.65625,10.589125 C17.65625,11.509125 18.1563863,12.3805 18.6083988,13.116 C19.06041,13.851625 19.5117188,14.41725 19.5117188,14.41725 C19.6302928,14.5657292 19.8099846,14.6521887 20,14.6521887 C20.1900154,14.6521887 20.3697072,14.5657292 20.4882813,14.41725 C20.4882813,14.41725 20.93959,13.851625 21.3916013,13.116 C21.8436138,12.3805 22.34375,11.509125 22.34375,10.589125 C22.34375,9.669125 21.8436175,8.80025 21.3916013,8.06475 C20.9395863,7.32925 20.4882813,6.7635 20.4882813,6.7635 C20.369561,6.61362417 20.1887581,6.5263494 19.9975588,6.526625 Z M20.0000588,8.247875 C20.1372625,8.442 20.1639538,8.453375 20.3272075,8.719 C20.73466,9.382125 21.0938088,10.228 21.0938088,10.589125 C21.0938088,10.95025 20.7346638,11.798625 20.3272075,12.46175 C20.1639525,12.727375 20.1372638,12.73875 20.0000588,12.932875 C19.8628538,12.73875 19.836165,12.727375 19.67291,12.46175 C19.2654538,11.798625 18.9063088,10.95025 18.9063088,10.589125 C18.9063088,10.228 19.2654575,9.382125 19.67291,8.719 C19.8361638,8.453375 19.862855,8.442 20.0000588,8.247875 Z" id="Shape"></path>
                    <path d="M19.990235,4.651625 C19.8244602,4.65416178 19.6664888,4.72247486 19.5510989,4.84152487 C19.435709,4.96057489 19.3723606,5.12060176 19.375,5.286375 L19.375,7.144375 C19.375,7.48955297 19.654822,7.769375 20,7.769375 C20.345178,7.769375 20.625,7.48955297 20.625,7.144375 L20.625,5.286375 C20.6276951,5.11721441 20.5616835,4.95419034 20.4420523,4.83456198 C20.3224212,4.71493361 20.1593955,4.64892593 19.990235,4.651625 Z" id="Shape"></path>
                    <path d="M23.740235,5.279125 C23.3960049,5.28441177 23.1208963,5.56712879 23.125,5.911375 L23.125,11.519375 C23.125,11.864553 23.404822,12.144375 23.75,12.144375 C24.095178,12.144375 24.375,11.864553 24.375,11.519375 L24.375,5.911375 C24.3770128,5.74264493 24.3107001,5.58027314 24.1911448,5.46119155 C24.0715895,5.34210997 23.9089557,5.27644235 23.740235,5.279125 Z" id="Shape"></path>
                    <path d="M20,0.276625 C9.30689788,0.276625 0.625004987,8.9585 0.625,19.651625 C0.625004987,30.34475 9.30689788,39.026625 20,39.026625 C30.6931213,39.026625 39.374995,30.34475 39.375,19.651625 C39.374995,8.9585 30.6931213,0.276625 20,0.276625 Z M20,1.526625 C30.0175713,1.526625 38.124995,9.634125 38.125,19.651625 C38.124995,29.66925 30.0175713,37.776625 20,37.776625 C9.982447,37.776625 1.87500463,29.66925 1.875,19.651625 C1.87500462,9.634125 9.982447,1.526625 20,1.526625 Z" id="Shape" fill-rule="nonzero"></path>
                    <path d="M25.9252925,18.716625 C25.9057741,18.715709 25.8862234,18.715709 25.866705,18.716625 C25.866705,18.716625 25.130075,18.799125 24.2675838,19.00475 C23.4050937,19.21075 22.4090775,19.4815 21.7456112,20.144875 C21.0821387,20.808375 20.8114113,21.804375 20.605475,22.666875 C20.3995388,23.529375 20.3173888,24.268375 20.3173888,24.268375 C20.2936586,24.477116 20.3764097,24.6838111 20.5376352,24.8185044 C20.6988607,24.9531977 20.9169797,24.9978598 21.11817,24.937375 C21.11817,24.937375 21.8466625,24.717125 22.69776,24.363625 C23.5488587,24.01025 24.5229612,23.564375 25.1464912,22.886625 C25.6767575,22.310375 25.9633275,21.493 26.1914125,20.782125 C26.4194975,20.07125 26.5478575,19.468625 26.5478575,19.468625 C26.5873566,19.2823208 26.5397387,19.0881732 26.4185194,18.9412878 C26.2973001,18.7944025 26.1157131,18.7108149 25.9252987,18.71425 L25.9252925,18.716625 Z M25.0756887,20.130125 C25.0382463,20.2615 25.0495088,20.255125 25.0024463,20.401125 C24.7954113,21.0465 24.45797,21.7925 24.22852,22.04175 C23.9056838,22.39275 23.0042625,22.88425 22.2168025,23.21125 C21.96122,23.3175 21.9556488,23.3075 21.7431688,23.384625 C21.7797063,23.188875 21.7667438,23.18825 21.8212938,22.95975 C22.007465,22.18 22.3611025,21.299375 22.6294,21.031 C22.8977038,20.76275 23.7783925,20.409125 24.55811,20.223 C24.83635,20.15675 24.8506812,20.1705 25.0756887,20.1305 L25.0756887,20.130125 Z" id="Shape"></path>
                    <path d="M25.9252925,24.341625 C25.9057741,24.340709 25.8862234,24.340709 25.866705,24.341625 C25.866705,24.341625 25.130075,24.424125 24.2675838,24.62975 C23.4050937,24.83575 22.4090775,25.1065 21.7456112,25.769875 C21.0821387,26.433375 20.8114112,27.429375 20.605475,28.291875 C20.3995387,29.154375 20.3173887,29.893375 20.3173887,29.893375 C20.2936586,30.102116 20.3764097,30.3088111 20.5376352,30.4435044 C20.6988607,30.5781977 20.9169797,30.6228598 21.11817,30.562375 C21.11817,30.562375 21.8466625,30.342125 22.69776,29.988625 C23.5488588,29.63525 24.5229613,29.189375 25.1464913,28.511625 C25.6767575,27.935375 25.9633275,27.118 26.1914125,26.407125 C26.4194975,25.69625 26.5478575,25.093625 26.5478575,25.093625 C26.5873566,24.9073208 26.5397387,24.7131732 26.4185194,24.5662878 C26.2973001,24.4194025 26.1157131,24.3358149 25.9252988,24.33925 L25.9252925,24.341625 Z M25.0756887,25.755125 C25.0382463,25.8865 25.0495088,25.880125 25.0024463,26.026125 C24.7954113,26.6715 24.45797,27.4175 24.22852,27.66675 C23.9056838,28.01775 23.0042625,28.50925 22.2168025,28.83625 C21.96122,28.9425 21.9556488,28.9325 21.7431688,29.009625 C21.7797063,28.813875 21.7667438,28.81325 21.8212938,28.58475 C22.007465,27.805 22.3611025,26.924375 22.6294,26.656 C22.8977037,26.38775 23.7783925,26.034125 24.55811,25.848 C24.83635,25.78175 24.8506813,25.7955 25.0756887,25.7555 L25.0756887,25.755125 Z" id="Shape"></path>
                    <path d="M25.9252925,13.091625 C25.9057741,13.090709 25.8862234,13.090709 25.866705,13.091625 C25.866705,13.091625 25.130075,13.174125 24.2675838,13.37975 C23.4050937,13.58575 22.4090775,13.8565 21.7456112,14.519875 C21.0821387,15.183375 20.8114112,16.179375 20.605475,17.041875 C20.3995387,17.904375 20.3173887,18.643375 20.3173887,18.643375 C20.2936586,18.852116 20.3764097,19.0588111 20.5376352,19.1935044 C20.6988607,19.3281977 20.9169797,19.3728598 21.11817,19.312375 C21.11817,19.312375 21.8466625,19.092125 22.69776,18.738625 C23.5488588,18.38525 24.5229613,17.939375 25.1464913,17.261625 C25.6767575,16.685375 25.9633275,15.868 26.1914125,15.157125 C26.4194975,14.44625 26.5478575,13.843625 26.5478575,13.843625 C26.5873566,13.6573208 26.5397387,13.4631732 26.4185194,13.3162878 C26.2973001,13.1694025 26.1157131,13.0858149 25.9252988,13.08925 L25.9252925,13.091625 Z M25.0756887,14.505125 C25.0382463,14.6365 25.0495088,14.630125 25.0024463,14.776125 C24.7954113,15.4215 24.45797,16.1675 24.22852,16.41675 C23.9056838,16.76775 23.0042625,17.25925 22.2168025,17.58625 C21.96122,17.6925 21.9556488,17.6825 21.7431688,17.759625 C21.7797063,17.563875 21.7667438,17.56325 21.8212938,17.33475 C22.007465,16.555 22.3611025,15.674375 22.6294,15.406 C22.8977037,15.13775 23.7783925,14.784125 24.55811,14.598 C24.83635,14.53175 24.8506813,14.5455 25.0756887,14.5055 L25.0756887,14.505125 Z" id="Shape"></path>
                    <path d="M14.0698238,18.714125 C13.8797181,18.7120229 13.6989955,18.7965817 13.578791,18.9438756 C13.4585866,19.0911694 13.4119764,19.2851754 13.4521487,19.471 C13.4521487,19.471 13.5805087,20.073625 13.8085937,20.7845 C14.0366787,21.495375 14.3232475,22.31275 14.853515,22.889 C15.477045,23.56675 16.4511475,24.012625 17.3022462,24.366 C18.1533437,24.7195 18.8818362,24.93975 18.8818362,24.93975 C19.0830265,25.0002348 19.3011455,24.9555727 19.462371,24.8208794 C19.6235965,24.6861861 19.7063477,24.479491 19.6826175,24.27075 C19.6826175,24.27075 19.6004675,23.53175 19.3945312,22.66925 C19.188595,21.80675 18.9178675,20.81075 18.254395,20.14725 C17.5909287,19.483875 16.5949125,19.213125 15.7324225,19.007125 C14.8699312,18.801125 14.1333012,18.719 14.1333012,18.719 C14.1121566,18.7179247 14.0909709,18.7179247 14.0698262,18.719 L14.0698238,18.714125 Z M14.9243163,20.130125 C15.1493238,20.170125 15.163655,20.156375 15.441895,20.222625 C16.2216125,20.40875 17.1023025,20.762375 17.370605,21.030625 C17.6389025,21.299 17.99254,22.179625 18.1787113,22.959375 C18.2332613,23.187875 18.2202988,23.1885 18.2568363,23.38425 C18.0443563,23.30675 18.038785,23.31675 17.7832025,23.210875 C16.9957425,22.883875 16.09432,22.392375 15.771485,22.041375 C15.542035,21.792125 15.2045938,21.046125 14.9975588,20.40075 C14.9504963,20.254125 14.9617588,20.261125 14.9243163,20.12975 L14.9243163,20.130125 Z" id="Shape"></path>
                    <path d="M14.0698238,24.339125 C13.8797181,24.3370229 13.6989955,24.4215817 13.578791,24.5688756 C13.4585866,24.7161694 13.4119764,24.9101754 13.4521488,25.096 C13.4521488,25.096 13.5805088,25.698625 13.8085938,26.4095 C14.0366788,27.120375 14.3232475,27.93775 14.853515,28.514 C15.477045,29.19175 16.4511475,29.637625 17.3022463,29.991 C18.1533438,30.3445 18.8818363,30.56475 18.8818363,30.56475 C19.0830265,30.6252348 19.3011455,30.5805727 19.462371,30.4458794 C19.6235965,30.3111861 19.7063477,30.104491 19.6826175,29.89575 C19.6826175,29.89575 19.6004675,29.15675 19.3945313,28.29425 C19.188595,27.43175 18.9178675,26.43575 18.254395,25.77225 C17.5909288,25.108875 16.5949125,24.838125 15.7324225,24.632125 C14.8699313,24.426125 14.1333013,24.344 14.1333013,24.344 C14.1121566,24.3429247 14.0909709,24.3429247 14.0698263,24.344 L14.0698238,24.339125 Z M14.9243163,25.755125 C15.1493238,25.795125 15.163655,25.781375 15.441895,25.847625 C16.2216125,26.03375 17.1023025,26.387375 17.370605,26.655625 C17.6389025,26.924 17.99254,27.804625 18.1787113,28.584375 C18.2332613,28.812875 18.2202988,28.8135 18.2568363,29.00925 C18.0443563,28.93175 18.038785,28.94175 17.7832025,28.835875 C16.9957425,28.508875 16.09432,28.017375 15.771485,27.666375 C15.542035,27.417125 15.2045938,26.671125 14.9975588,26.02575 C14.9504963,25.879125 14.9617588,25.886125 14.9243163,25.75475 L14.9243163,25.755125 Z" id="Shape"></path>
                    <path d="M14.0698238,13.089125 C13.8797181,13.0870229 13.6989955,13.1715817 13.578791,13.3188756 C13.4585866,13.4661694 13.4119764,13.6601754 13.4521488,13.846 C13.4521488,13.846 13.5805088,14.448625 13.8085938,15.1595 C14.0366788,15.870375 14.3232475,16.68775 14.853515,17.264 C15.477045,17.94175 16.4511475,18.387625 17.3022463,18.741 C18.1533438,19.0945 18.8818363,19.31475 18.8818363,19.31475 C19.0830265,19.3752348 19.3011455,19.3305727 19.462371,19.1958794 C19.6235965,19.0611861 19.7063477,18.854491 19.6826175,18.64575 C19.6826175,18.64575 19.6004675,17.90675 19.3945313,17.04425 C19.188595,16.18175 18.9178675,15.18575 18.254395,14.52225 C17.5909288,13.858875 16.5949125,13.588125 15.7324225,13.382125 C14.8699313,13.176125 14.1333013,13.094 14.1333013,13.094 C14.1121566,13.0929247 14.0909709,13.0929247 14.0698263,13.094 L14.0698238,13.089125 Z M14.9243163,14.505125 C15.1493238,14.545125 15.163655,14.531375 15.441895,14.597625 C16.2216125,14.78375 17.1023025,15.137375 17.370605,15.405625 C17.6389025,15.674 17.99254,16.554625 18.1787113,17.334375 C18.2332613,17.562875 18.2202988,17.5635 18.2568363,17.75925 C18.0443563,17.68175 18.038785,17.69175 17.7832025,17.585875 C16.9957425,17.258875 16.09432,16.767375 15.771485,16.416375 C15.542035,16.167125 15.2045938,15.421125 14.9975588,14.77575 C14.9504963,14.629125 14.9617588,14.636125 14.9243163,14.50475 L14.9243163,14.505125 Z" id="Shape"></path>
                    <path d="M16.240235,5.279125 C15.8960049,5.28441177 15.6208963,5.56712879 15.625,5.911375 L15.625,11.519375 C15.625,11.864553 15.904822,12.144375 16.25,12.144375 C16.595178,12.144375 16.875,11.864553 16.875,11.519375 L16.875,5.911375 C16.8770128,5.74264493 16.8107001,5.58027314 16.6911448,5.46119155 C16.5715895,5.34210997 16.4089557,5.27644235 16.240235,5.279125 Z" id="Shape"></path>
                    <path d="M14.052735,7.486125 C13.7084556,7.4914117 13.4333269,7.77420526 13.4375,8.1185 L13.4375,11.519375 C13.4375,11.864553 13.717322,12.144375 14.0625,12.144375 C14.407678,12.144375 14.6875,11.864553 14.6875,11.519375 L14.6875,8.1185 C14.6895468,7.94974839 14.6232491,7.78734401 14.5036901,7.66823512 C14.384131,7.54912622 14.2214777,7.4834416 14.052735,7.486125 Z" id="Shape"></path>
                    <path d="M33.24707,5.7625 C33.0845293,5.76764642 32.9303934,5.83593705 32.8173825,5.952875 L27.4291987,11.338625 C27.2666031,11.4955323 27.2013492,11.7279776 27.2585284,11.9465818 C27.3157076,12.165186 27.4864168,12.3359117 27.7050155,12.3931119 C27.9236142,12.4503121 28.1560658,12.3850806 28.3129887,12.2225 L33.7011725,6.83675 C33.8869754,6.65721276 33.9431666,6.38186046 33.8425673,6.14387703 C33.7419679,5.90589361 33.5053133,5.75433185 33.24707,5.7625 Z M12.1166993,26.892875 C11.9541586,26.8980214 11.8000227,26.9663121 11.6870117,27.08325 L6.29882812,32.469 C6.136225,32.6259056 6.07096538,32.8583544 6.12814348,33.0769632 C6.18532159,33.295572 6.35603424,33.4663012 6.57463747,33.5235006 C6.7932407,33.5806999 7.02569588,33.5154629 7.18261725,33.352875 L12.5708012,27.967125 C12.7566041,27.7875878 12.8127953,27.5122357 12.7121961,27.2742523 C12.6115969,27.0362689 12.3749425,26.8847071 12.1166992,26.892875 Z" id="Shape"></path>
                    <path d="M25.927735,7.486125 C25.5834556,7.4914117 25.3083269,7.77420526 25.3125,8.1185 L25.3125,11.519375 C25.3125,11.864553 25.592322,12.144375 25.9375,12.144375 C26.282678,12.144375 26.5625,11.864553 26.5625,11.519375 L26.5625,8.1185 C26.5645468,7.94974839 26.4982491,7.78734401 26.3786901,7.66823512 C26.259131,7.54912622 26.0964777,7.4834416 25.927735,7.486125 Z" id="Shape"></path>
                </g>
            </g>
        </g>
        <g id="Page"></g>
    </g>
</svg>