<svg xmlns="http://www.w3.org/2000/svg" width="12.266" height="19.951" viewBox="0 0 12.266 19.951">
  <path id="icon_mobilni" d="M3.477,19.82a2.367,2.367,0,0,0,.718,1.8,2.627,2.627,0,0,0,1.89.684h7.09a2.565,2.565,0,0,0,1.86-.684,2.4,2.4,0,0,0,.708-1.807V4.84a2.4,2.4,0,0,0-.708-1.8,2.555,2.555,0,0,0-1.86-.688H6.084a2.616,2.616,0,0,0-1.89.688,2.383,2.383,0,0,0-.718,1.8Zm1.689-.85V5.689h8.906V18.971Zm4.453,2.354a.8.8,0,0,1-.586-.244.811.811,0,0,1-.244-.6A.832.832,0,0,1,10.21,19.9a.807.807,0,0,1,.239.586.819.819,0,0,1-.239.6A.794.794,0,0,1,9.619,21.324ZM7.793,4.078A.376.376,0,0,1,7.9,3.8a.363.363,0,0,1,.269-.1h2.91a.351.351,0,0,1,.259.1.376.376,0,0,1,.1.278.363.363,0,0,1-.1.269.351.351,0,0,1-.259.1H8.164a.352.352,0,0,1-.371-.371Z" transform="translate(-3.477 -2.35)" fill="#1d88e5"/>
</svg>
