<svg xmlns="http://www.w3.org/2000/svg" width="32.644" height="32.644" viewBox="0 0 32.644 32.644">
  <g id="covidIcon" transform="translate(-0.529 -280.596)">
    <path id="Path_1258" data-name="Path 1258" d="M15.219,280.6a1.632,1.632,0,0,0,0,3.264v1.761a11.472,11.472,0,0,0-3.42,1.058.544.544,0,1,0,.48.977,10.336,10.336,0,0,1,3.484-1,.557.557,0,0,0,.543-.639v-2.7a.544.544,0,0,0-.544-.544h-.544a.544.544,0,0,1,0-1.088h3.264a.544.544,0,0,1,0,1.088h-.544a.544.544,0,0,0-.544.544V286a.561.561,0,0,0,.527.636,10.337,10.337,0,0,1,5.466,2.277.544.544,0,0,0,.729-.036l1.967-1.967a.544.544,0,0,0,0-.769l-.385-.385a.544.544,0,0,1,.769-.769l2.308,2.308a.544.544,0,1,1-.769.769l-.385-.385a.544.544,0,0,0-.769,0l-1.967,1.967a.544.544,0,0,0-.037.729,10.336,10.336,0,0,1,2.276,5.5.544.544,0,0,0,.541.49h2.786A.544.544,0,0,0,31,295.83v-.544a.544.544,0,1,1,1.088,0v3.264a.544.544,0,1,1-1.088,0v-.544a.544.544,0,0,0-.544-.544H27.678a.544.544,0,0,0-.541.489,10.339,10.339,0,0,1-2.287,5.5.544.544,0,0,0,.036.729l1.967,1.967a.544.544,0,0,0,.769,0l.385-.385a.544.544,0,1,1,.769.769l-2.308,2.308a.544.544,0,0,1-.769-.769l.385-.385a.544.544,0,0,0,0-.769l-1.967-1.967a.544.544,0,1,0-.769.769L24.93,307.3a1.632,1.632,0,0,0,2.308,2.308l2.308-2.308A1.632,1.632,0,1,0,27.238,305L26,303.752a11.546,11.546,0,0,0,2.166-5.2h1.747a1.632,1.632,0,1,0,3.264,0v-3.264a1.632,1.632,0,1,0-3.264,0H28.147a11.54,11.54,0,0,0-2.149-5.2l1.24-1.244a1.632,1.632,0,1,0,2.308-2.308l-2.308-2.308a1.632,1.632,0,0,0-2.308,2.308l-1.242,1.24a11.544,11.544,0,0,0-5.2-2.159V283.86a1.632,1.632,0,0,0,0-3.264Zm-7.6,3.152a1.628,1.628,0,0,0-1.154.475l-2.308,2.308a1.632,1.632,0,0,0,2.308,2.308l1.24,1.244a11.537,11.537,0,0,0-2.16,5.2H3.794a1.632,1.632,0,1,0-3.264,0v3.264a1.632,1.632,0,1,0,3.264,0H5.556a11.384,11.384,0,0,0,2.152,5.2L6.464,305A1.632,1.632,0,0,0,4.156,307.3l2.308,2.308A1.632,1.632,0,0,0,8.772,307.3l1.246-1.242a11.291,11.291,0,0,0,5.2,2.166v1.747a1.632,1.632,0,0,0,0,3.264h3.264a1.632,1.632,0,0,0,0-3.264v-1.762a11.474,11.474,0,0,0,3.446-1.071.544.544,0,1,0-.483-.974,10.338,10.338,0,0,1-3.561,1.024.544.544,0,0,0-.49.541v2.786a.544.544,0,0,0,.544.544h.544a.544.544,0,0,1,0,1.088H15.219a.544.544,0,0,1,0-1.088h.544a.544.544,0,0,0,.544-.544v-2.775a.544.544,0,0,0-.489-.541,10.34,10.34,0,0,1-5.5-2.287.544.544,0,0,0-.729.036L7.618,306.92a.544.544,0,0,0,0,.769l.385.385a.544.544,0,0,1-.769.769l-2.308-2.308a.544.544,0,1,1,.769-.769l.385.385a.544.544,0,0,0,.769,0l1.967-1.967a.544.544,0,0,0,.037-.729,10.336,10.336,0,0,1-2.276-5.5.544.544,0,0,0-.541-.49H3.249a.544.544,0,0,0-.544.544v.544a.531.531,0,0,1-.544.544.531.531,0,0,1-.544-.544v-3.264a.531.531,0,0,1,.544-.544.531.531,0,0,1,.544.544v.544a.544.544,0,0,0,.544.544H6.024a.544.544,0,0,0,.541-.489,10.34,10.34,0,0,1,2.287-5.5.544.544,0,0,0-.036-.729l-1.967-1.967a.544.544,0,0,0-.769,0l-.385.385a.544.544,0,0,1-.769-.769l2.308-2.308a.544.544,0,0,1,.769.769l-.385.385a.544.544,0,0,0,0,.769l1.967,1.967a.544.544,0,1,0,.769-.769l-1.582-1.582a1.629,1.629,0,0,0-1.154-2.783Zm9.233,5.009a.544.544,0,1,0,.544.544A.544.544,0,0,0,16.851,288.757Zm-3.807,1.089A3.263,3.263,0,1,0,16.3,293.11a3.273,3.273,0,0,0-3.261-3.264Zm0,1.088a2.177,2.177,0,1,1-2.176,2.176A2.169,2.169,0,0,1,13.044,290.934Zm7.615,0a2.177,2.177,0,1,0,2.177,2.176A2.185,2.185,0,0,0,20.658,290.934Zm0,1.088a1.089,1.089,0,1,1-1.088,1.088A1.08,1.08,0,0,1,20.658,292.022ZM9.234,296.374a.544.544,0,1,0,.544.544.544.544,0,0,0-.544-.544Zm7.617,0a.544.544,0,1,0,.544.544.544.544,0,0,0-.544-.544Zm7.617,0a.544.544,0,1,0,.544.544.544.544,0,0,0-.544-.544Zm-3.809,1.086a3.265,3.265,0,1,0,3.265,3.265A3.274,3.274,0,0,0,20.658,297.46Zm-7.615,1.089a2.177,2.177,0,1,0,2.177,2.176A2.185,2.185,0,0,0,13.044,298.549Zm7.615,0a2.177,2.177,0,1,1-2.176,2.176A2.169,2.169,0,0,1,20.658,298.549Zm-7.615,1.088a1.088,1.088,0,1,1-1.088,1.088A1.081,1.081,0,0,1,13.044,299.637Zm3.807,4.354a.544.544,0,1,0,.544.544.544.544,0,0,0-.544-.544Z" transform="translate(0 0)" fill="#8000ff"/>
  </g>
</svg>
