<svg xmlns="http://www.w3.org/2000/svg" width="12.324" height="20.684" viewBox="0 0 12.324 20.684">
  <path id="icon_bolestan" d="M7.324,23.395a4.883,4.883,0,0,0,3.5-1.44,5.052,5.052,0,0,0,1.06-1.572,4.814,4.814,0,0,0,.386-1.929,4.705,4.705,0,0,0-.425-1.982,5.164,5.164,0,0,0-1.255-1.68.734.734,0,0,1-.19-.249.868.868,0,0,1-.044-.308l.01-8.193a3.779,3.779,0,0,0-.386-1.748A2.856,2.856,0,0,0,8.906,3.126a2.988,2.988,0,0,0-1.582-.415,3.025,3.025,0,0,0-1.6.415A2.856,2.856,0,0,0,4.653,4.293a3.779,3.779,0,0,0-.386,1.748l.01,8.193a.868.868,0,0,1-.044.308.734.734,0,0,1-.19.249,5.107,5.107,0,0,0-1.26,1.675,4.692,4.692,0,0,0-.43,1.987,4.814,4.814,0,0,0,.386,1.929,4.993,4.993,0,0,0,2.651,2.632A4.9,4.9,0,0,0,7.324,23.395Zm0-1.475a3.339,3.339,0,0,1-1.748-.474,3.592,3.592,0,0,1-1.26-1.26A3.407,3.407,0,0,1,5.371,15.6a1.009,1.009,0,0,0,.308-.3.865.865,0,0,0,.093-.439V6.109A2.1,2.1,0,0,1,6.2,4.723a1.39,1.39,0,0,1,1.123-.518,1.352,1.352,0,0,1,1.1.518,2.136,2.136,0,0,1,.42,1.387v8.75a.865.865,0,0,0,.093.439,1.009,1.009,0,0,0,.308.3,3.281,3.281,0,0,1,1.128,1.226,3.4,3.4,0,0,1,.4,1.616,3.366,3.366,0,0,1-.464,1.743,3.564,3.564,0,0,1-1.25,1.26A3.3,3.3,0,0,1,7.324,21.92Zm-.01-1.25a2.126,2.126,0,0,0,1.118-.3,2.287,2.287,0,0,0,.8-.806,2.171,2.171,0,0,0,.3-1.128A2.059,2.059,0,0,0,9.2,17.281a2.439,2.439,0,0,0-.85-.8.826.826,0,0,1-.312-.249.885.885,0,0,1-.088-.464v-4.8a.813.813,0,0,0-.186-.566.584.584,0,0,0-.449-.205.565.565,0,0,0-.449.205.843.843,0,0,0-.176.566v4.8a.885.885,0,0,1-.088.464.826.826,0,0,1-.312.249,2.389,2.389,0,0,0-.869.8,2.059,2.059,0,0,0-.332,1.152,2.144,2.144,0,0,0,.3,1.128,2.328,2.328,0,0,0,.806.806A2.126,2.126,0,0,0,7.314,20.67ZM12.1,6.217h2.021a.53.53,0,0,0,.405-.161.544.544,0,0,0,.151-.386.561.561,0,0,0-.151-.391.522.522,0,0,0-.405-.166H12.1a.525.525,0,0,0-.4.166.551.551,0,0,0-.156.391.542.542,0,0,0,.557.547Zm0,2.578h2.021a.522.522,0,0,0,.405-.166.561.561,0,0,0,.151-.391.544.544,0,0,0-.151-.386.53.53,0,0,0-.405-.161H12.1a.542.542,0,0,0-.557.547.551.551,0,0,0,.156.391A.525.525,0,0,0,12.1,8.795Zm0,2.578h2.021a.53.53,0,0,0,.405-.161.567.567,0,0,0,0-.771.53.53,0,0,0-.405-.161H12.1a.547.547,0,1,0,0,1.094Zm0,2.588h2.021a.522.522,0,0,0,.405-.166.549.549,0,0,0,.151-.381.561.561,0,0,0-.151-.391.522.522,0,0,0-.405-.166H12.1a.525.525,0,0,0-.4.166.551.551,0,0,0-.156.391.54.54,0,0,0,.156.381A.525.525,0,0,0,12.1,13.961Z" transform="translate(-2.354 -2.711)" fill="#1d89e6"/>
</svg>
