<?xml version="1.0" encoding="UTF-8"?>
<svg width="12px" height="16px" viewBox="0 0 12 16" version="1.1" xmlns="http://www.w3.org/2000/svg" xmlns:xlink="http://www.w3.org/1999/xlink">
    <!-- Generator: sketchtool 52.5 (67469) - http://www.bohemiancoding.com/sketch -->
    <title>9448016E-9DF9-4372-9F0C-22876A2D0B7D</title>
    <desc>Created with sketchtool.</desc>
    <g id="Main_nav" stroke="none" stroke-width="1" fill="none" fill-rule="evenodd">
        <g id="Results" transform="translate(-182.000000, -475.000000)">
            <g id="detail_mv" transform="translate(182.000000, 475.000000)" fill="#005AFA">
                <path d="M9.6804,0.6664 L2.2476,0.6664 C1.15384,0.6664 0.264,1.55624 0.264,2.65 L0.264,15.3336 L7.9976,15.3336 C10.0194,15.3336 11.664,13.68828 11.664,11.6664 L11.664,2.65 C11.664,1.55624 10.77416,0.6664 9.6804,0.6664 Z M10.664,11.6664 C10.664,13.13672 9.4679,14.3336 7.9976,14.3336 L1.264,14.3336 L1.264,2.65 C1.264,2.10782 1.7054,1.6664 2.2476,1.6664 L9.6812,1.6664 C10.22338,1.6664 10.6648,2.1078 10.6648,2.65 L10.664,11.6664 Z" id="Fill-1"></path>
                <polygon id="Fill-2" points="2.314 5.3 9.614 5.3 9.614 4.3 2.314 4.3"></polygon>
                <polygon id="Fill-3" points="2.314 8.5 9.614 8.5 9.614 7.5 2.314 7.5"></polygon>
                <path d="M2.314,11.7 L8.857,11.7 C9.27496,11.7 9.61404,11.36094 9.61404,10.94296 L9.61404,10.7 L2.314,10.7 L2.314,11.7 Z" id="Fill-4"></path>
            </g>
            <g id="Page"></g>
        </g>
        <g id="Page"></g>
    </g>
</svg>