<?xml version="1.0" encoding="UTF-8"?>
<svg width="22px" height="40px" viewBox="0 0 22 40" version="1.1" xmlns="http://www.w3.org/2000/svg" xmlns:xlink="http://www.w3.org/1999/xlink">
    <!-- Generator: sketchtool 52.3 (67297) - http://www.bohemiancoding.com/sketch -->
    <title>5DED4F34-37F9-4ACF-9169-33C3B45F2CF5</title>
    <desc>Created with sketchtool.</desc>
    <g id="Main_nav" stroke="none" stroke-width="1" fill="none" fill-rule="evenodd">
        <g id="Home" transform="translate(-574.000000, -567.000000)" fill="#015AFA">
            <g id="dijabetes" transform="translate(574.000000, 567.000000)">
                <path d="M6.502,0.9025 C4.3184,0.9025 2.80865,1.35758 1.8848,2.2931 C0.92775,3.26185 0.9434,4.42005 0.94925,5.00015 L0.93167,36.30115 C0.93167,36.586305 1.214875,39.09805 11.00017,39.09805 C20.785465,39.09805 21.06867,36.5883 21.06867,36.30115 L21.06867,6.98265 C21.06867,4.53345 14.95167,0.90265 6.50217,0.90265 L6.502,0.9025 Z M3.36725,3.756 C3.857485,3.259905 4.97075,2.9845 6.502,2.9845 C14.2675,2.9845 18.713,6.10365 18.9865,6.9806 L18.9865,14.4436 L11,14.445555 C10.3301,14.445555 9.78515,13.900655 9.78515,13.230705 C9.78515,11.412355 8.3047,9.931855 6.4863,9.931855 L3.0312,9.931855 L3.035105,5.002155 C3.035105,4.998245 3.033155,4.896685 3.033155,4.890825 C3.027295,4.459185 3.04878,4.078325 3.36714,3.756075 L3.36725,3.756 Z M11.00025,37.012 C6.35765,37.012 3.76375,36.2952 3.01375,35.9163 L3.027425,12.0118 L6.484475,12.0118 C7.154375,12.0118 7.699325,12.5567 7.699325,13.22665 C7.699325,15.045 9.179775,16.5255 10.998175,16.5255 L18.984675,16.5255 L18.984675,35.914 C18.238575,36.29681 15.642875,37.01165 11.000175,37.01165 L11.00025,37.012 Z" id="Fill-1"></path>
                <path d="M13.258,23.4705 C11.4377,23.4705 9.95915,24.95095 9.95915,26.76935 C9.95915,28.58965 11.4396,30.07015 13.258,30.07015 C15.0764,30.07015 16.55685,28.5897 16.55685,26.76935 C16.55685,24.951 15.0764,23.4705 13.258,23.4705 Z M13.258,27.9861 C12.5881,27.9861 12.0412,27.4392 12.0412,26.7693 C12.0412,26.0994 12.5861,25.55445 13.25605,25.55445 C13.92595,25.55445 14.4709,26.09935 14.4709,26.7693 C14.47285,27.4392 13.92795,27.9861 13.258,27.9861 Z" id="Fill-2"></path>
                <path d="M6.4865,21.215 C5.91035,21.215 5.4455,21.681795 5.4455,22.256 L5.4455,31.2855 C5.4455,31.86165 5.912295,32.3265 6.4865,32.3265 C7.06265,32.3265 7.5275,31.859705 7.5275,31.2855 L7.5275,22.256 C7.5275,21.67985 7.060705,21.215 6.4865,21.215 Z" id="Fill-3"></path>
                <path d="M15.51,21.041 C15.79125,21.041 16.051,20.925765 16.25025,20.738265 C16.447515,20.541 16.552985,20.27147 16.552985,19.999965 C16.552985,19.718715 16.447515,19.458965 16.25025,19.259715 C15.865485,18.87495 15.16625,18.87495 14.7815,19.259715 C14.58228,19.458935 14.469,19.7187 14.469,19.999965 C14.469,20.27145 14.58228,20.540965 14.7815,20.740215 C14.969,20.92576 15.23853,21.040995 15.51,21.040995 L15.51,21.041 Z" id="Fill-4"></path>
            </g>
        </g>
        <g id="Page"></g>
    </g>
</svg>