<?xml version="1.0" encoding="utf-8"?>
<!-- Generator: Adobe Illustrator 19.0.0, SVG Export Plug-In . SVG Version: 6.00 Build 0)  -->
<svg version="1.1" id="Layer_1" xmlns="http://www.w3.org/2000/svg" xmlns:xlink="http://www.w3.org/1999/xlink" x="0px" y="0px"
	 width="294.3px" height="170.3px" viewBox="0 0 294.3 170.3" style="enable-background:new 0 0 294.3 170.3;" xml:space="preserve"
	>
<style type="text/css">
	.st0{fill:#FFFFFF;stroke:#E0E1E0;stroke-width:3;}
	.st1{fill:#245DA9;}
	.st2{fill:#ED3538;}
</style>
<path id="XMLID_70_" class="st0" d="M7.9,1.5h278.7c3.4,0,6.2,2.8,6.2,6.3v154.6c0,3.5-2.8,6.5-6.2,6.5H7.9c-3.6,0-6.4-3-6.4-6.5
	V7.8C1.5,4.3,4.3,1.5,7.9,1.5z"/>
<g id="_2287414035056">
	<path id="XMLID_78_" class="st1" d="M55.7,92.2h2.6c2.3,0,3.9-0.3,4.9-1c0.8-0.8,1.3-2.1,1.3-3.8c0-2-0.5-3.3-1.3-3.9
		c-1-0.8-2.6-1.1-4.8-1.1h-2.8V92.2z M46.2,97.2v-20h11.5c2.9,0,5.1,0,6.6,0.3c1.5,0.2,2.8,0.5,3.8,0.8c2,0.8,3.6,2,4.6,3.4
		c1,1.6,1.5,3.4,1.5,5.6s-0.5,3.9-1.8,5.6c-1.3,1.6-3.1,2.6-5.7,3.4c-0.8,0.3-2.1,0.5-3.6,0.7s-3.6,0.2-6.9,0.2H46.2z M77.7,81v-4.3
		h8.7V81H77.7z M77.7,97.2V82.5h8.7v14.7H77.7z M90.6,97.2V82.5h7.9v2.3c1-1,2.1-1.6,3.3-2c1.3-0.5,2.8-0.7,4.3-0.7
		c1.3,0,2.6,0.2,3.6,0.5c1.1,0.2,2,0.7,2.6,1.3c0.7,0.5,1.1,1.1,1.5,2c0.3,0.7,0.3,2,0.3,3.6v7.7h-8.5v-7.7c0-1.1-0.3-1.8-0.8-2.1
		c-0.3-0.5-1.1-0.7-2.1-0.7c-1.1,0-2,0.2-2.6,0.7c-0.5,0.5-0.7,1.1-0.7,2.1v7.7H90.6z M132.6,90.7c-0.7,0.2-1.8,0.5-3.1,0.7
		c-2.3,0.3-3.3,0.8-3.3,1.6c0,0.3,0.2,0.7,0.7,1c0.3,0.2,1,0.3,1.8,0.3c1.3,0,2.5-0.3,3.1-0.8c0.7-0.3,1-1,1-2.1c0-0.2,0-0.3,0-0.5
		C132.7,90.8,132.7,90.7,132.6,90.7z M133.4,97.2l-0.5-1.3c-1,0.5-2.3,1-3.4,1.3c-1.3,0.5-2.8,0.5-4.4,0.5c-2.5,0-4.4-0.3-5.7-1.1
		c-1.3-0.8-2-2-2-3.4s0.7-2.6,2-3.4c1.3-0.5,3.8-1,7.5-1.5c0.5,0,1,0,1.8,0c2.8-0.2,4.1-0.7,4.1-1.3s-0.2-0.8-0.7-1.1
		c-0.5-0.2-1.3-0.2-2.5-0.2c-0.8,0-1.5,0.2-2,0.3c-0.7,0.2-0.8,0.7-0.8,1.1h-8.5c0-1.6,1-2.9,2.9-3.8c2-1,4.9-1.3,8.7-1.3
		c1.8,0,3.4,0,4.9,0.3c1.5,0.3,2.8,0.5,3.6,1c1,0.3,1.8,1,2.1,1.5c0.5,0.7,0.7,1.5,0.7,2.6v8.2c0,0.3,0.2,0.5,0.2,0.7
		c0.3,0.3,0.5,0.5,0.8,0.7v0.3H133.4z M165,89.5h9c-0.2,2.6-1.6,4.6-4.1,6.1s-5.7,2.1-10,2.1c-4.8,0-8.5-0.8-11.1-2.8
		c-2.8-1.8-3.9-4.4-3.9-7.5c0-3.3,1.1-5.9,3.8-7.9c2.8-1.8,6.4-2.8,11.1-2.8c4.3,0,7.5,0.7,10,2.1c2.5,1.3,3.8,3.4,4.1,6.1h-9
		c-0.2-1.1-0.7-1.8-1.5-2.3c-0.8-0.7-2-0.8-3.6-0.8c-1.8,0-3.1,0.3-4.1,1.3s-1.5,2.3-1.5,4.3c0,1.6,0.5,3.1,1.5,3.9
		c1,1,2.5,1.5,4.4,1.5c1.5,0,2.6-0.3,3.4-1C164.4,91.3,164.9,90.5,165,89.5z M191.7,90.7c-0.8,0.2-2,0.5-3.4,0.7
		c-2.1,0.3-3.3,0.8-3.3,1.6c0,0.3,0.3,0.7,0.8,1c0.3,0.2,1,0.3,1.8,0.3c1.5,0,2.5-0.3,3.1-0.8c0.7-0.3,1-1,1-2.1c0-0.2,0-0.3,0-0.5
		V90.7z M192.5,97.2l-0.7-1.3c-1,0.5-2.3,1-3.6,1.3c-1.3,0.5-2.8,0.5-4.3,0.5c-2.5,0-4.4-0.3-5.7-1.1c-1.3-0.8-2-2-2-3.4
		s0.7-2.6,2-3.4c1.3-0.5,3.8-1,7.5-1.5c0.3,0,1.1,0,1.8,0c2.8-0.2,4.1-0.7,4.1-1.3s-0.3-0.8-0.7-1.1c-0.5-0.2-1.3-0.2-2.5-0.2
		c-1,0-1.6,0.2-2,0.3c-0.5,0.2-0.8,0.7-1,1.1h-8.4c0-1.6,1-2.9,2.9-3.8c2-1,4.8-1.3,8.7-1.3c1.8,0,3.4,0,4.9,0.3
		c1.5,0.3,2.8,0.5,3.6,1c1,0.3,1.6,1,2.1,1.5c0.3,0.7,0.7,1.5,0.7,2.6v8.2c0,0.3,0,0.5,0.2,0.7c0.2,0.3,0.5,0.5,0.8,0.7v0.3H192.5z
		 M204.7,97.2V82.5h8v2.8c0.5-1.1,1.3-1.8,2.5-2.5c1-0.5,2.5-0.7,4.3-0.7h0.7v5.9c-0.2-0.2-0.5-0.2-0.8-0.2c-0.3,0-0.7,0-0.8,0
		c-1.8,0-3.1,0.3-3.9,0.8c-0.8,0.5-1.3,1.3-1.3,2.5v6.1H204.7z M245.8,97.2h-7.7v-1.8c-1,0.8-2,1.5-3.1,1.8
		c-1.3,0.3-2.6,0.5-4.1,0.5c-2.8,0-4.9-0.7-6.7-2.1c-1.6-1.3-2.6-3.3-2.6-5.7c0-2.3,1-4.1,2.6-5.6c1.8-1.5,3.9-2.3,6.7-2.3
		c1.3,0,2.5,0.3,3.6,0.7c1,0.2,2,0.8,2.8,1.5v-6.9h8.5V97.2z M233.8,93.5c1.1,0,2-0.3,2.6-1c0.7-0.7,1-1.3,1-2.5c0-1.1-0.3-2-1-2.5
		c-0.5-0.7-1.5-1-2.6-1s-2.1,0.3-2.6,1c-0.7,0.5-1,1.3-1,2.5c0,1.1,0.3,1.8,1,2.5C231.9,93.1,232.7,93.5,233.8,93.5z"/>
	<path id="XMLID_75_" class="st1" d="M93.6,131h103.5c18,0,33.6-11.1,40-26.9h-4.9c-6.1,13.3-19.5,22.6-35.1,22.6H93.6
		c-15.6,0-29-9.3-35.1-22.6h-4.9C60,119.8,75.6,131,93.6,131z M237.1,72.2c-6.4-15.7-22-26.9-40-26.9H93.6c-18,0-33.6,11.1-40,26.9
		h4.9C64.6,58.9,78,49.6,93.6,49.6h103.5c15.6,0,29,9.3,35.1,22.6H237.1z"/>
	<path id="XMLID_72_" class="st2" d="M145.7,33.3c24.6,0,45.5,16.4,52.4,38.8H93.3C100.1,49.7,120.9,33.3,145.7,33.3z M198.1,104.1
		c-6.9,22.4-27.9,38.8-52.4,38.8c-24.7,0-45.5-16.4-52.4-38.8H198.1z"/>
</g>
</svg>
