<svg xmlns="http://www.w3.org/2000/svg" width="18" height="15.709" viewBox="0 0 18 15.709">
  <path id="Exclusion_1" data-name="Exclusion 1" d="M13.5,15.709h-9L0,7.854,4.5,0h9L18,7.854l-4.5,7.855ZM5.21,5.523a.413.413,0,0,0-.412.413.434.434,0,0,0,.412.433h.846a.244.244,0,0,1,.186.066c.1.107.095.338.084.63-.006.163-.013.348,0,.542a3.3,3.3,0,0,0,2.7,5.2,3.2,3.2,0,0,0,2.043-.723l-.289-.722a2.53,2.53,0,0,1-1.754.7,2.5,2.5,0,0,1-2.49-1.974A2.493,2.493,0,0,1,7.872,7.215l-.145-.742a3.121,3.121,0,0,0-.578.31V6.617A1.1,1.1,0,0,0,6.056,5.523Zm5.8,5.324h0l.578,1.423a.843.843,0,0,0,.767.521.831.831,0,0,0,.327-.067.855.855,0,0,0,.465-.468.811.811,0,0,0-.011-.625L12.307,9.65a.772.772,0,0,0-.753-.5H11.5l-1.155.062L10.08,7.793l1.258-.144a.675.675,0,0,0,.454-.249.666.666,0,0,0,.145-.494.675.675,0,0,0-.669-.6.687.687,0,0,0-.074,0l-1.341.166L9.791,6.1a.84.84,0,0,0-.822-.694.827.827,0,0,0-.148.013.841.841,0,0,0-.546.351.82.82,0,0,0-.135.618l.7,3.858a.847.847,0,0,0,.825.681h.042l1.3-.082ZM8.573,2.9A1.011,1.011,0,1,0,9.584,3.914,1.012,1.012,0,0,0,8.573,2.9Z" fill="#00ffce"/>
</svg>
