<?xml version="1.0" encoding="UTF-8"?>
<svg width="94px" height="94px" viewBox="0 0 94 94" version="1.1" xmlns="http://www.w3.org/2000/svg" xmlns:xlink="http://www.w3.org/1999/xlink">
    <!-- Generator: sketchtool 53.2 (72643) - https://sketchapp.com -->
    <title>F391D691-60CD-4AF4-BC30-DEC291B3F960</title>
    <desc>Created with sketchtool.</desc>
    <g id="Main_nav" stroke="none" stroke-width="1" fill="none" fill-rule="evenodd">
        <g id="ProslediLekaru" transform="translate(-682.000000, -285.000000)" fill="#55D159">
            <g id="doca" transform="translate(682.000000, 285.000000)">
                <path d="M47,0 C21.086,0 0,21.086 0,47 C0,72.914 21.086,93.995998 47,93.995998 C72.914,93.995998 94,72.914 94,47 C94,21.086 72.914,0 47,0 Z M66.809,51.109 C67.14494,51.67541 67.44181,52.3004 67.69181,52.9801 C68.09415,54.0778 68.34415,55.2496 68.43009,56.3903 C68.44181,56.39421 68.45353,56.39811 68.46525,56.40202 C70.35975,56.99186 71.41835,59.00752 70.82855,60.90592 C70.23871,62.80042 68.22305,63.85902 66.32465,63.26922 C64.43015,62.67547 63.37155,60.66372 63.96135,58.76532 C64.39885,57.36692 65.60585,56.42552 66.96915,56.26142 C66.7504,54.11692 65.89885,51.83952 64.44965,50.39812 C64.03559,50.29656 63.62153,50.18718 63.19575,50.10515 C62.48091,49.97234 61.75825,49.87077 61.01995,49.80046 C61.01995,49.83171 61.00823,49.86296 61.00432,49.89421 C61.00432,49.90202 61.00041,49.90984 61.00041,49.91374 C60.9926,49.98796 60.98479,50.06608 60.97698,50.1403 C60.97307,50.14811 60.97307,50.15593 60.97307,50.15983 C60.90276,50.88249 60.64885,51.57393 60.23869,52.23013 C58.21139,56.52313 52.65669,64.01513 49.21869,68.48813 L48.57025,59.18343 C49.46088,58.7264 50.22645,57.99203 50.75385,57.12873 C51.18744,56.41779 51.44916,55.62483 51.44916,54.82013 C51.44916,54.82013 49.03896,55.88653 46.57416,55.88653 C44.11326,55.88653 41.69916,54.82013 41.69916,54.82013 C41.69916,55.56232 41.92963,56.29673 42.30072,56.96463 C42.82025,57.89432 43.63272,58.69513 44.57802,59.18343 L43.91005,68.73423 C40.67565,64.13653 35.18345,56.03923 33.48805,51.76523 C33.23414,51.25742 33.07399,50.73403 33.01149,50.19493 C32.99977,50.09728 32.98415,50.00743 32.98024,49.90977 C32.98024,49.87852 32.96852,49.84337 32.96852,49.80821 C32.6443,49.83946 32.32008,49.87462 31.99586,49.91759 C31.9568,49.9254 31.91383,49.92931 31.87477,49.93322 C31.09743,50.0426 30.33567,50.19884 29.58567,50.38244 C28.00367,52.06994 26.93337,54.43714 26.75757,56.37854 C27.39429,56.62463 27.89427,57.18713 28.11307,57.89024 C30.10917,58.70274 31.94897,60.69884 33.35137,63.62464 C33.53887,64.01526 33.492,64.44886 33.28106,64.78484 C34.17168,66.95284 34.69126,69.33564 34.69126,71.38644 C34.69126,74.82394 34.45688,76.29264 32.09356,76.70284 C31.91778,76.92159 31.65215,77.05831 31.35137,77.05831 L29.30057,77.05831 C28.77323,77.05831 28.33963,76.62862 28.33963,76.09737 L28.33963,76.08956 C28.34354,75.56222 28.77322,75.13644 29.30057,75.13644 L31.35137,75.13644 C31.53887,75.13644 31.71465,75.19112 31.86309,75.28097 C32.49981,75.1755 32.74981,74.988 32.89039,74.738 C33.19508,74.21066 33.25367,73.1482 33.25367,71.3786 C33.25367,69.4919 32.76539,67.2888 31.93337,65.2848 C31.62087,65.19105 31.34353,64.9723 31.19118,64.65199 C29.75758,61.65589 27.84738,59.86679 26.08178,59.86679 C24.27708,59.86679 22.27708,61.80039 20.85128,64.90199 C20.68331,65.26918 20.34737,65.51137 19.98019,65.58168 C19.22238,67.50358 18.78099,69.58558 18.78099,71.37858 C18.78099,73.11298 18.84349,74.22628 19.17552,74.75748 C19.33177,75.00748 19.5974,75.19498 20.29272,75.29654 C20.44506,75.19107 20.63256,75.13248 20.83178,75.13248 L22.87868,75.13248 C23.40602,75.13248 23.83571,75.56217 23.83962,76.08951 L23.83962,76.09341 C23.83962,76.62075 23.40993,77.05435 22.87868,77.05435 L20.83178,77.05435 C20.54272,77.05435 20.2849,76.92544 20.10912,76.72622 C19.15209,76.5856 18.41772,76.26138 17.95292,75.51922 C17.43339,74.68719 17.33964,73.47232 17.33964,71.37862 C17.33964,69.37472 17.83573,67.06222 18.69124,64.93722 C18.53499,64.62472 18.51546,64.24581 18.67171,63.90602 C19.49202,62.10912 20.53111,60.57792 21.66781,59.48022 C22.37484,58.79663 23.12481,58.28492 23.89831,57.94502 C24.10925,57.19502 24.6405,56.59732 25.32021,56.35122 C25.44912,54.66372 26.13271,52.76142 27.19911,51.10902 C18.58971,54.24962 12.37511,62.35502 12.03511,71.97602 C6.984309,64.93692 3.999909,56.31202 3.999909,46.99902 C3.999909,23.28802 23.28891,3.99902 46.99991,3.99902 C70.71091,3.99902 89.99991,23.28802 89.99991,46.99902 C89.99991,56.31152 87.01551,64.93702 81.96471,71.98302 C81.62096,62.36582 75.41391,54.25302 66.80871,51.10802 L66.809,51.109 Z" id="Fill-1"></path>
                <path d="M47,8.457 C38.1484,8.457 30.816,15.3047 29.523,24.242 C29.39019,25.16387 29.31987,26.1053 29.31987,27.0662 C29.31987,27.45682 29.3355,27.83964 29.35503,28.2264 C29.39018,28.7889 29.44096,29.3436 29.51909,29.8905 C29.53081,30.05847 29.54643,30.22253 29.55815,30.3905 C30.67145,43.0035 38.05425,52.7455 46.99215,52.7455 C56.05075,52.7455 63.50415,42.7455 64.46915,29.8935 C64.60196,28.97162 64.66837,28.0263 64.66837,27.0615 C64.66837,26.0967 64.60196,25.1553 64.46915,24.2295 C63.18005,15.3037 55.85195,8.4565 47.00015,8.4565 L47,8.457 Z M62.34,29.984 C61.75797,37.7418 58.4845,44.316 53.9064,47.668 C51.8244,49.1914 49.4767,50.0508 46.9923,50.0508 C46.50402,50.0508 46.01964,50.01955 45.5431,49.94924 C45.06654,49.88674 44.59779,49.78908 44.1329,49.66018 C39.961,48.51958 36.379,44.92578 34.1209,39.94138 C32.8631,37.17188 32.0154,33.97658 31.699,30.53118 C32.3865,30.70306 33.2302,31.03899 34.1521,31.67958 C34.15601,31.67958 33.97241,30.60538 33.85132,29.10538 C33.68335,27.03898 33.62866,24.16788 34.29663,22.13658 C34.65601,21.05068 35.22241,20.20298 36.09353,19.86318 C36.09353,19.86318 48.31253,25.80458 56.52753,19.86318 C56.52753,19.86318 60.25803,25.76938 60.27753,29.27728 C60.28144,29.77728 60.20722,30.2304 60.03534,30.60928 L62.51584,27.75768 C62.50412,28.51159 62.44553,29.25378 62.34006,29.98428 L62.34,29.984 Z" id="Fill-2"></path>
                <path d="M66.031,59.445 C65.80053,60.195 66.2185,60.9919 66.96459,61.2223 C67.7185,61.45668 68.51149,61.03871 68.74189,60.28871 C68.90986,59.75355 68.73798,59.18711 68.35517,58.83171 C68.20283,58.68718 68.01923,58.5739 67.80439,58.5114 C67.51533,58.42156 67.21455,58.42937 66.94501,58.51921 C66.52704,58.65593 66.17548,58.98796 66.03095,59.44499 L66.031,59.445 Z" id="Fill-3"></path>
            </g>
        </g>
        <g id="Page"></g>
    </g>
</svg>