<?xml version="1.0" encoding="UTF-8"?>
<svg width="31px" height="38px" viewBox="0 0 31 38" version="1.1" xmlns="http://www.w3.org/2000/svg" xmlns:xlink="http://www.w3.org/1999/xlink">
    <!-- Generator: sketchtool 52.6 (67491) - http://www.bohemiancoding.com/sketch -->
    <title>46EA16B2-D3C8-42BD-8055-D5950DDB2C93</title>
    <desc>Created with sketchtool.</desc>
    <g id="Main_nav" stroke="none" stroke-width="1" fill="none" fill-rule="evenodd">
        <g id="Grupe-Analiza" transform="translate(-191.000000, -4883.000000)">
            <g id="elektro" transform="translate(192.000000, 4884.000000)">
                <path d="M0,2.01740506 L8.125,2.01740506 L8.125,0 L0,0 L0,2.01740506 Z M0,6.32120253 L8.125,6.32120253 L8.125,4.30379747 L0,4.30379747 L0,6.32120253 Z M0,10.625 L8.125,10.625 L8.125,8.60759494 L0,8.60759494 L0,10.625 Z" id="Fill-1" fill="#1D88E5"></path>
                <g id="Group-5" stroke="#1D88E5">
                    <path d="M10.6397606,2.05656601 L18.618484,2.05656601 L18.618484,0.107830056 L10.6397606,0.107830056 L10.6397606,2.05656601 Z M10.6397606,6.21386938 L18.618484,6.21386938 L18.618484,4.26513343 L10.6397606,4.26513343 L10.6397606,6.21386938 Z M10.6397606,10.3711728 L18.618484,10.3711728 L18.618484,8.4224368 L10.6397606,8.4224368 L10.6397606,10.3711728 Z" id="Stroke-2"></path>
                    <path d="M0,14.7343926 L7.9787234,14.7343926 L7.9787234,12.7856566 L0,12.7856566 L0,14.7343926 Z M0,18.8916959 L7.9787234,18.8916959 L7.9787234,16.94296 L0,16.94296 L0,18.8916959 Z M0,23.0489993 L7.9787234,23.0489993 L7.9787234,21.1002633 L0,21.1002633 L0,23.0489993 Z" id="Stroke-4"></path>
                </g>
                <path d="M10.625,15.1424051 L18.75,15.1424051 L18.75,13.125 L10.625,13.125 L10.625,15.1424051 Z M10.625,19.4462025 L18.75,19.4462025 L18.75,17.4287975 L10.625,17.4287975 L10.625,19.4462025 Z M10.625,23.75 L18.75,23.75 L18.75,21.7325949 L10.625,21.7325949 L10.625,23.75 Z" id="Stroke-6" stroke="#1D88E5"></path>
                <path d="M0,27.6424051 L8.125,27.6424051 L8.125,25.625 L0,25.625 L0,27.6424051 Z M0,31.9462025 L8.125,31.9462025 L8.125,29.9287975 L0,29.9287975 L0,31.9462025 Z M0,36.25 L8.125,36.25 L8.125,34.2325949 L0,34.2325949 L0,36.25 Z" id="Stroke-7" stroke="#1D88E5"></path>
                <path d="M10.625,27.6424051 L18.75,27.6424051 L18.75,25.625 L10.625,25.625 L10.625,27.6424051 Z M10.625,31.9462025 L18.75,31.9462025 L18.75,29.9287975 L10.625,29.9287975 L10.625,31.9462025 Z M10.625,36.25 L18.75,36.25 L18.75,34.2325949 L10.625,34.2325949 L10.625,36.25 Z" id="Fill-9" fill="#1D88E5"></path>
                <path d="M21.25,2.01740506 L29.375,2.01740506 L29.375,0 L21.25,0 L21.25,2.01740506 Z M21.25,6.32120253 L29.375,6.32120253 L29.375,4.30379747 L21.25,4.30379747 L21.25,6.32120253 Z M21.25,10.625 L29.375,10.625 L29.375,8.60759494 L21.25,8.60759494 L21.25,10.625 Z" id="Fill-10" fill="#1D88E5"></path>
                <path d="M21.25,15.1424051 L29.375,15.1424051 L29.375,13.125 L21.25,13.125 L21.25,15.1424051 Z M21.25,19.4462025 L29.375,19.4462025 L29.375,17.4287975 L21.25,17.4287975 L21.25,19.4462025 Z M21.25,23.75 L29.375,23.75 L29.375,21.7325949 L21.25,21.7325949 L21.25,23.75 Z" id="Stroke-13" stroke="#1D88E5"></path>
                <path d="M21.25,27.6424051 L29.375,27.6424051 L29.375,25.625 L21.25,25.625 L21.25,27.6424051 Z M21.25,31.9462025 L29.375,31.9462025 L29.375,29.9287975 L21.25,29.9287975 L21.25,31.9462025 Z M21.25,36.25 L29.375,36.25 L29.375,34.2325949 L21.25,34.2325949 L21.25,36.25 Z" id="Fill-16" fill="#1D88E5"></path>
            </g>
        </g>
        <g id="Page"></g>
    </g>
</svg>