<svg width="82" height="82" viewBox="0 0 82 82" fill="none" xmlns="http://www.w3.org/2000/svg">
<path d="M79.15 27.8397L69.7 20.6797V19.4697C69.7 17.6131 68.9625 15.8327 67.6497 14.5199C66.337 13.2072 64.5565 12.4697 62.7 12.4697H58.87L45.23 2.12966C44.013 1.20664 42.5274 0.707031 41 0.707031C39.4725 0.707031 37.987 1.20664 36.77 2.12966L23.27 12.3697L23.34 12.4697H19.34C17.4835 12.4697 15.703 13.2072 14.3902 14.5199C13.0775 15.8327 12.34 17.6131 12.34 19.4697V20.6797L2.84999 27.8397C1.98883 28.4928 1.29061 29.3364 0.810033 30.3045C0.329457 31.2726 0.0795817 32.3388 0.0799871 33.4197V74.2797C0.0799871 76.1362 0.817485 77.9166 2.13024 79.2294C3.44299 80.5422 5.22347 81.2797 7.07999 81.2797H74.92C76.7765 81.2797 78.557 80.5422 79.8697 79.2294C81.1825 77.9166 81.92 76.1362 81.92 74.2797V33.4197C81.9204 32.3388 81.6705 31.2726 81.1899 30.3045C80.7094 29.3364 80.0111 28.4928 79.15 27.8397ZM77.73 75.3197L50 55.4797L77.94 35.4797V74.2797C77.9323 74.636 77.8612 74.9882 77.73 75.3197ZM4.07999 74.3197V35.4997L32 55.4797L4.26999 75.3197C4.14559 74.987 4.08126 74.6348 4.07999 74.2797V74.3197ZM39.42 55.1097C39.8799 54.7777 40.4328 54.5991 41 54.5991C41.5672 54.5991 42.12 54.7777 42.58 55.1097L73.58 77.2797H8.40999L39.42 55.1097ZM76.74 30.9997C76.8248 31.0711 76.905 31.148 76.98 31.2297L69.7 36.4697V25.6897L76.74 30.9997ZM39.19 5.31966C39.7111 4.92544 40.3466 4.71212 41 4.71212C41.6534 4.71212 42.2889 4.92544 42.81 5.31966L52.25 12.4697H29.75L39.19 5.31966ZM19.3 16.4697H62.7C63.4956 16.4697 64.2587 16.7857 64.8213 17.3483C65.3839 17.9109 65.7 18.674 65.7 19.4697V39.3297L46.54 52.9997L44.9 51.8497C43.7626 51.0354 42.3988 50.5976 41 50.5976C39.6012 50.5976 38.2374 51.0354 37.1 51.8497L35.46 52.9997L16.3 39.3297V19.4697C16.3 18.674 16.6161 17.9109 17.1787 17.3483C17.7413 16.7857 18.5043 16.4697 19.3 16.4697ZM12.3 25.6897V36.4697L4.99999 31.2597C5.07502 31.178 5.15518 31.1011 5.23999 31.0297L12.3 25.6897Z" fill="black"/>
</svg>
