<svg xmlns="http://www.w3.org/2000/svg" width="18.633" height="14.859" viewBox="0 0 18.633 14.859">
  <path id="icon_email" d="M4.85,17.521H17.327a2.242,2.242,0,0,0,1.691-.622,2.563,2.563,0,0,0,.6-1.85v-6.2a3.243,3.243,0,0,1-.647.18,3.529,3.529,0,0,1-.679.049v5.952a1.143,1.143,0,0,1-.3.864,1.18,1.18,0,0,1-.851.291H4.834a1.177,1.177,0,0,1-.856-.291,1.164,1.164,0,0,1-.3-.872v-8.5a1.153,1.153,0,0,1,.3-.864,1.177,1.177,0,0,1,.856-.291h9.734a3.28,3.28,0,0,1,.221-1.343H4.646a2.234,2.234,0,0,0-1.691.626,2.566,2.566,0,0,0-.6,1.846v8.547a2.491,2.491,0,0,0,.63,1.85A2.552,2.552,0,0,0,4.85,17.521ZM11,12.863a2.036,2.036,0,0,0,.827-.18,2.747,2.747,0,0,0,.819-.589L16.3,8.507a3.259,3.259,0,0,1-.491-.377,3.682,3.682,0,0,1-.418-.458L11.907,11.1a1.772,1.772,0,0,1-.467.352,1.011,1.011,0,0,1-.442.106.986.986,0,0,1-.438-.106,1.926,1.926,0,0,1-.471-.352L3.942,5.028l-.876.892,6.279,6.173a2.867,2.867,0,0,0,.823.589A2.026,2.026,0,0,0,11,12.863Zm7.049,3.668.876-.884-5.469-5.42-.876.884Zm-14.007-.1,5.223-5.166-.876-.876L3.172,15.556ZM18.309,8.016a2.556,2.556,0,0,0,1.343-.364,2.8,2.8,0,0,0,.97-.97,2.556,2.556,0,0,0,.364-1.343A2.556,2.556,0,0,0,20.622,4a2.8,2.8,0,0,0-.97-.97,2.656,2.656,0,0,0-2.685,0A2.8,2.8,0,0,0,16,4a2.556,2.556,0,0,0-.364,1.343A2.556,2.556,0,0,0,16,6.682a2.8,2.8,0,0,0,.97.97A2.556,2.556,0,0,0,18.309,8.016Z" transform="translate(-2.354 -2.662)" fill="#1d88e5"/>
</svg>
