<?xml version="1.0" encoding="UTF-8"?>
<svg width="36px" height="40px" viewBox="0 0 36 40" version="1.1" xmlns="http://www.w3.org/2000/svg" xmlns:xlink="http://www.w3.org/1999/xlink">
    <!-- Generator: sketchtool 52.3 (67297) - http://www.bohemiancoding.com/sketch -->
    <title>09DA0D57-66E8-4B7E-B3FB-1FF0A6AB474B</title>
    <desc>Created with sketchtool.</desc>
    <g id="Main_nav" stroke="none" stroke-width="1" fill="none" fill-rule="evenodd">
        <g id="Home" transform="translate(-947.000000, -567.000000)" fill="#3CE0F8">
            <path d="M965.66514,571.33829 C965.454609,571.331347 965.245801,571.385166 965.066318,571.494541 L951.754404,579.225772 C951.49728,579.37161 951.309187,579.614667 951.231523,579.899382 C951.153868,580.185845 951.191834,580.491392 951.340239,580.746595 C951.48692,581.003542 951.730239,581.191047 952.014957,581.265715 C952.299692,581.340369 952.603397,581.296964 952.85534,581.145922 L966.165486,573.414691 L966.167214,573.414691 C966.59863,573.171629 966.817811,572.668146 966.700432,572.183783 C966.583089,571.701153 966.160278,571.353903 965.665007,571.338303 L965.66514,571.33829 Z M965.568502,603.399676 C965.357971,603.406623 965.149163,603.3528 964.96968,603.243424 L951.657767,595.512193 C951.400642,595.36636 951.212549,595.125036 951.134885,594.838583 C951.057222,594.55213 951.095197,594.248307 951.243601,593.99137 C951.390283,593.734424 951.633602,593.548656 951.918319,593.472251 C952.203055,593.397596 952.50676,593.441001 952.758702,593.592044 L966.068849,601.323275 L966.070576,601.325013 C966.501993,601.566336 966.721174,602.069824 966.603795,602.554187 C966.486451,603.036817 966.06364,603.384067 965.56837,603.399667 L965.568502,603.399676 Z M976.372918,595.324884 C976.262475,595.144326 976.207254,594.934251 976.212431,594.72243 L976.229691,579.258635 C976.221059,577.762078 978.462716,577.779456 978.433382,579.275999 L978.416122,594.73979 C978.423027,595.863052 976.956199,596.283237 976.37465,595.324866 L976.372918,595.324884 Z M965.000825,567 C962.997301,567 960.995544,568.4462 956.013417,571.340334 C946.052786,577.12709 947.02601,575.427197 947.02601,587.000133 C947.02601,598.573068 946.052742,596.873619 956.013417,602.659931 C965.975816,608.44669 964.024068,608.44669 973.986466,602.659931 C983.948865,596.873175 982.973875,598.573068 982.973875,587.000133 C982.973875,575.427197 983.947142,577.126646 973.986466,571.340334 C969.006371,568.4462 967.004261,567 965.000825,567 Z M965.000825,569.222257 C965.946482,569.222257 967.848178,570.340318 972.883804,573.264008 C977.91912,576.189387 979.831551,577.286648 980.304247,578.111195 C980.776943,578.935741 980.766738,581.14942 980.766738,587.000221 C980.766738,592.849201 980.777093,595.064791 980.304247,595.889248 C979.831401,596.713705 977.917662,597.811145 972.883804,600.736434 C967.848487,603.661813 965.946659,604.778187 965.000825,604.778187 C964.054992,604.778187 962.153473,603.661858 957.117847,600.736434 C952.082221,597.811011 950.1701,596.713794 949.697404,595.889248 C949.224708,595.064702 949.234913,592.84929 949.234913,587.000221 C949.234913,581.151153 949.224558,578.935652 949.697404,578.111195 C950.17025,577.286737 952.083988,576.189298 957.117847,573.264008 C962.153163,570.33863 964.053224,569.222257 965.000825,569.222257 Z" id="enzimi"></path>
        </g>
        <g id="Page"></g>
    </g>
</svg>
