<?xml version="1.0" encoding="utf-8"?>
<!-- Generator: Adobe Illustrator 23.0.1, SVG Export Plug-In . SVG Version: 6.00 Build 0)  -->
<svg version="1.1" id="Layer_1" xmlns="http://www.w3.org/2000/svg" xmlns:xlink="http://www.w3.org/1999/xlink" x="0px" y="0px"
	 viewBox="0 0 472.88 587.45" style="enable-background:new 0 0 472.88 587.45;" xml:space="preserve">
<style type="text/css">
	.st0{fill:#FDE8E9;}
	.st1{fill:#E6D0CE;}
	.st2{fill-rule:evenodd;clip-rule:evenodd;fill:#FFCACA;}
	.st3{fill-rule:evenodd;clip-rule:evenodd;fill:#FF8E8E;}
	.st4{fill-rule:evenodd;clip-rule:evenodd;fill:#FFE3E3;}
	.st5{fill-rule:evenodd;clip-rule:evenodd;fill:#EEA779;}
	.st6{fill:none;stroke:#E6D0CE;stroke-miterlimit:10;}
	.st7{fill:none;}
	.st8{fill:none;stroke:#E6D0CE;stroke-width:2;stroke-miterlimit:10;}
	.st9{fill:#CF8564;stroke:#BC6348;stroke-width:2;stroke-miterlimit:10;}
	.st10{fill:#CF8564;stroke:#BC6348;stroke-miterlimit:10;}
	.st11{fill-rule:evenodd;clip-rule:evenodd;fill:#FFBD66;stroke:#FF9F2C;stroke-miterlimit:10;}
	
		.st12{fill-rule:evenodd;clip-rule:evenodd;fill:none;stroke:#CF8564;stroke-linecap:round;stroke-linejoin:round;stroke-miterlimit:10;}
	
		.st13{fill-rule:evenodd;clip-rule:evenodd;fill:none;stroke:#FF8E8E;stroke-width:3;stroke-linecap:round;stroke-linejoin:round;stroke-miterlimit:10;}
	.st14{fill:#808184;}
	.st15{fill:none;stroke:url(#SVGID_1_);stroke-width:1.5;stroke-miterlimit:10;}
	.st16{fill:none;stroke:url(#SVGID_2_);stroke-width:1.5;stroke-miterlimit:10;}
	.st17{fill:none;stroke:url(#SVGID_3_);stroke-width:1.5;stroke-miterlimit:10;}
	.st18{fill:none;stroke:url(#SVGID_4_);stroke-width:1.5;stroke-miterlimit:10;}
	.st19{fill:none;stroke:url(#SVGID_5_);stroke-width:1.5;stroke-miterlimit:10;}
	.st20{fill:none;stroke:url(#SVGID_6_);stroke-width:1.5;stroke-miterlimit:10;}
	.st21{fill:none;stroke:url(#SVGID_7_);stroke-width:1.5;stroke-miterlimit:10;}
</style>
<g>
	<path class="st0" d="M290.15,410.5c-2.5,0-4.95-1.15-6.55-3.09c-1.67-2.01-2.3-4.64-1.78-7.41c5.5-29.45,5.19-59.34-0.92-88.86
		c-0.49,0.14-0.97,0.32-1.43,0.52c-2.48,1.14-4.28,3.08-4.93,5.33c-0.24,0.83-0.4,1.8-0.58,2.83c-0.51,2.98-1.2,7.04-4.58,9.61
		c-1.03,0.78-2.06,1.24-2.98,1.64c-0.52,0.23-0.97,0.42-1.27,0.62c-1.91,1.22-1.96,4.93-1.18,8.07c0.21,0.86,0.46,1.71,0.71,2.58
		c1.12,3.88,2.36,8.18,1.2,12.72c-1.37,5.34-6.08,9.68-11.73,10.81c-1.03,0.2-2.09,0.31-3.16,0.31c-4.2,0-8.35-1.55-11.69-4.38
		c-2.39-2.03-4.09-4.42-5.73-6.73c-0.88-1.25-1.72-2.42-2.63-3.49c-6.27-7.35-16.41-10.09-28.06-12.68l-0.98-0.22l1.74-7.81
		l0.98,0.22c10.08,2.24,23.89,5.31,32.41,15.3c1.13,1.33,2.11,2.71,3.06,4.04c1.42,2,2.76,3.89,4.38,5.26
		c1.86,1.58,4.25,2.48,6.55,2.48c0.54,0,1.07-0.05,1.57-0.15c2.65-0.53,4.93-2.56,5.54-4.95c0.62-2.42-0.22-5.34-1.12-8.43
		c-0.28-0.99-0.56-1.97-0.81-2.94c-1.44-5.76-0.97-13.18,4.64-16.76c0.82-0.52,1.63-0.88,2.33-1.19c0.57-0.25,1.11-0.49,1.38-0.69
		c0.87-0.66,1.19-2.56,1.53-4.57c0.2-1.21,0.41-2.45,0.78-3.72c1.3-4.5,4.68-8.29,9.29-10.39c1.52-0.69,3.1-1.17,4.73-1.42
		c3.51-22.16,3.14-44.66-1.1-66.9c-0.51-2.69,0.15-5.31,1.86-7.37c1.7-2.06,4.24-3.29,6.79-3.29c2.86,0,5.31,1.49,6.91,4.18
		c2.07,3.5,6.43,5.17,11.05,6.94c3.8,1.46,7.73,2.96,10.45,5.62c1.62,1.58,2.97,3.44,4.02,5.52c0.76,1.5,1.06,3.14,1.35,4.72
		c0.28,1.5,0.54,2.93,1.16,4.09c1.11,2.09,3.21,3.54,5.43,5.06c1.7,1.17,3.46,2.39,4.81,3.95c3.45,4.02,4.78,8.8,4.18,15.04
		c-0.08,0.88-0.22,1.72-0.35,2.53c-0.36,2.21-0.67,4.12,0.09,6.24c0.44,1.22,1.21,2.38,2.03,3.61c0.72,1.08,1.46,2.19,1.99,3.39
		c1.29,2.93,1.86,5.48,1.79,8.02c-0.06,1.97-0.72,3.63-1.35,5.24c-0.47,1.19-0.92,2.32-1.1,3.52c-0.4,2.64,0.42,5.25,1.3,8
		c0.83,2.62,1.69,5.32,1.53,8.23c-0.17,2.97-1.35,5.37-2.5,7.68c-1.2,2.44-2.34,4.74-2.2,7.55c0.06,1.21,0.18,2.41,0.29,3.57
		c0.43,4.38,0.83,8.51-1.76,12.94c-0.54,0.92-1.27,1.71-1.97,2.47c-0.9,0.97-1.75,1.89-2.1,2.95c-0.32,0.98-0.22,2.31-0.12,3.71
		c0.1,1.29,0.2,2.63-0.04,3.84c-0.55,2.88-1.55,5.04-3.15,6.82c-0.34,0.38-1.79,1.5-3.15,2.41c-0.05,0.51-0.14,1.1-0.29,1.8
		c-0.46,2.27-1.55,4.36-3.15,6.05c-1.68,1.78-3.75,2.55-5.75,3.31c-1.29,0.48-2.51,0.94-3.57,1.65c-0.23,1.71-2.02,4.69-2.04,4.73
		c-1.26,1.99-3.1,3.65-5.32,4.81c-2.33,1.21-4.81,1.56-7.14,1.83c-1.08,0.11-2.15,0.2-3.23,0.27c-0.07,0.02-0.14,0.04-0.21,0.06
		C294.63,409.54,292.46,410.5,290.15,410.5z"/>
	<path class="st1" d="M288.41,226.41c2.25,0,4.51,1.1,6.05,3.69c4.05,6.85,15.89,7.12,21.66,12.77c1.56,1.52,2.85,3.32,3.83,5.25
		c1.39,2.75,1.14,6.24,2.52,8.84c2.13,4.02,7.4,5.76,10.36,9.2c3.58,4.17,4.46,8.93,3.94,14.29c-0.31,3.25-1.35,6.01-0.2,9.2
		c0.89,2.47,2.96,4.63,4.04,7.07c1.06,2.41,1.78,4.92,1.7,7.59c-0.09,3.2-1.99,5.66-2.44,8.64c-0.84,5.49,3.14,10.62,2.82,16.33
		c-0.33,5.84-4.98,9.51-4.7,15.34c0.27,5.67,1.77,10.64-1.34,15.96c-1.16,1.98-3.44,3.43-4.16,5.61c-0.71,2.17,0.27,5.33-0.19,7.68
		c-0.46,2.37-1.27,4.51-2.91,6.34c-0.26,0.3-1.87,1.55-3.37,2.52c-0.02,0.5-0.1,1.19-0.3,2.17c-0.42,2.08-1.43,4.02-2.9,5.57
		c-2.8,2.96-7.03,2.94-9.9,5.38c0.13-0.11,0.22-0.16,0.28-0.16c0.53,0-1.38,3.87-1.85,4.61c-1.21,1.91-2.95,3.42-4.94,4.45
		c-2.14,1.11-4.43,1.46-6.79,1.72c-1.09,0.11-2.19,0.2-3.29,0.27c-0.23,0.07-0.41,0.11-0.57,0.15c-1.61,1.82-3.64,2.62-5.61,2.62
		c-4.31,0-8.38-3.84-7.35-9.32c5.58-29.89,5.15-60.51-1.14-90.25c-0.88,0.16-1.75,0.43-2.61,0.82c-2.75,1.26-4.75,3.43-5.48,5.96
		c-0.25,0.88-0.42,1.88-0.6,2.94c-0.5,2.96-1.13,6.65-4.2,8.98c-0.94,0.72-1.92,1.15-2.79,1.52c-0.53,0.23-1.02,0.45-1.39,0.68
		c-2.48,1.58-2.42,5.92-1.61,9.16c0.22,0.89,0.48,1.79,0.74,2.69c1.06,3.68,2.26,7.85,1.17,12.12c-1.27,4.97-5.68,9.02-10.96,10.07
		c-0.97,0.19-1.97,0.29-2.96,0.29c-3.91,0-7.87-1.46-11.04-4.14c-2.29-1.94-3.96-4.28-5.56-6.55c-0.9-1.27-1.75-2.46-2.68-3.56
		c-6.47-7.58-16.78-10.38-28.6-13.01l1.3-5.86c9.95,2.21,23.57,5.24,31.86,14.97c1.1,1.29,2.07,2.66,3.01,3.98
		c1.46,2.05,2.83,3.99,4.55,5.44c2.06,1.75,4.69,2.72,7.19,2.72c0.6,0,1.19-0.06,1.76-0.17c3.02-0.6,5.61-2.94,6.32-5.68
		c0.69-2.69-0.19-5.73-1.12-8.96c-0.28-0.97-0.56-1.94-0.8-2.9c-1.35-5.42-0.96-12.38,4.2-15.67c0.76-0.49,1.54-0.82,2.22-1.12
		c0.61-0.27,1.19-0.52,1.57-0.81c1.19-0.9,1.52-2.89,1.91-5.2c0.2-1.18,0.41-2.4,0.75-3.6c1.22-4.22,4.4-7.78,8.75-9.76
		c1.68-0.77,3.44-1.25,5.18-1.44c3.66-22.54,3.29-45.55-0.99-67.97C279.72,230.52,284.05,226.41,288.41,226.41 M288.41,224.41
		c-2.84,0-5.67,1.36-7.56,3.65c-1.9,2.3-2.64,5.21-2.07,8.2c4.17,21.88,4.58,44.03,1.21,65.85c-1.46,0.29-2.89,0.75-4.26,1.38
		c-4.88,2.23-8.46,6.25-9.84,11.03c-0.38,1.32-0.59,2.59-0.8,3.82c-0.27,1.57-0.6,3.52-1.15,3.94c-0.18,0.14-0.73,0.38-1.13,0.55
		c-0.75,0.33-1.63,0.71-2.52,1.28c-6.05,3.86-6.59,11.75-5.07,17.84c0.26,1.03,0.56,2.06,0.82,2.97c0.85,2.96,1.66,5.75,1.11,7.91
		c-0.51,1.99-2.52,3.76-4.77,4.21c-0.44,0.09-0.9,0.13-1.37,0.13c-2.07,0-4.22-0.82-5.9-2.24c-1.52-1.29-2.83-3.13-4.21-5.07
		c-0.96-1.35-1.95-2.75-3.12-4.12c-8.73-10.24-22.73-13.35-32.95-15.63l-1.95-0.43l-0.43,1.95l-1.3,5.86l-0.43,1.95l1.95,0.43
		c11.46,2.55,21.45,5.24,27.51,12.35c0.87,1.02,1.7,2.19,2.57,3.42c1.68,2.37,3.41,4.81,5.9,6.92c3.51,2.98,7.89,4.61,12.33,4.61
		c1.13,0,2.26-0.11,3.35-0.33c6.02-1.2,11.04-5.84,12.5-11.54c1.23-4.8-0.11-9.44-1.19-13.17l-0.03-0.09
		c-0.25-0.88-0.49-1.7-0.7-2.53c-0.8-3.2-0.48-6.21,0.75-6.99c0.23-0.15,0.67-0.34,1.1-0.53c0.95-0.42,2.09-0.92,3.22-1.77
		c3.7-2.81,4.43-7.1,4.96-10.23c0.17-1.01,0.33-1.95,0.55-2.73c0.57-1.97,2.17-3.68,4.39-4.7c0.09-0.04,0.17-0.08,0.26-0.11
		c5.86,29.03,6.1,58.41,0.69,87.35c-0.57,3.07,0.14,5.99,2,8.23c1.79,2.16,4.53,3.45,7.32,3.45c2.48,0,4.81-0.99,6.64-2.8
		c1.01-0.07,2.02-0.15,3.03-0.25c2.46-0.28,5.04-0.65,7.52-1.94c2.38-1.23,4.36-3.02,5.71-5.16c0.3-0.48,0.89-1.63,1.34-2.63
		c0.37-0.82,0.64-1.48,0.79-2.04c0.88-0.52,1.91-0.9,2.98-1.31c2.01-0.75,4.29-1.61,6.13-3.55c1.73-1.83,2.9-4.09,3.4-6.54
		c0.11-0.53,0.19-1.01,0.25-1.43c1.26-0.87,2.56-1.88,2.95-2.32c1.72-1.92,2.79-4.24,3.38-7.3c0.26-1.34,0.15-2.75,0.05-4.1
		c-0.09-1.25-0.19-2.53,0.07-3.33c0.28-0.86,1.06-1.7,1.88-2.58c0.74-0.8,1.51-1.63,2.1-2.64c2.76-4.71,2.32-9.2,1.89-13.54
		c-0.11-1.15-0.23-2.33-0.29-3.52c-0.12-2.55,0.91-4.64,2.1-7.06c1.13-2.29,2.42-4.89,2.6-8.07c0.18-3.09-0.71-5.88-1.57-8.59
		c-0.84-2.64-1.63-5.14-1.27-7.55c0.17-1.09,0.59-2.16,1.04-3.3c0.64-1.61,1.36-3.43,1.42-5.58c0.08-2.66-0.54-5.42-1.87-8.45
		c-0.56-1.28-1.33-2.43-2.07-3.54c-0.78-1.18-1.52-2.29-1.92-3.39c-0.67-1.87-0.4-3.58-0.05-5.74c0.13-0.83,0.27-1.68,0.36-2.59
		c0.63-6.53-0.77-11.55-4.41-15.79c-1.43-1.66-3.24-2.91-5-4.12c-2.12-1.46-4.12-2.83-5.11-4.71c-0.55-1.03-0.8-2.38-1.06-3.81
		c-0.3-1.66-0.62-3.37-1.44-4.99c-1.1-2.18-2.52-4.12-4.22-5.78c-2.87-2.81-6.9-4.35-10.79-5.84c-4.45-1.71-8.66-3.32-10.55-6.51
		C294.42,226.12,291.59,224.41,288.41,224.41L288.41,224.41z"/>
</g>
<g>
	<path class="st2" d="M235.31,389.1c0.12-0.32,0.63-1.3,0.12-1.53c-0.18-0.08-0.45,0.03-0.79,0.69c-0.26,0.5-0.58,0.95-0.94,1.35
		c-0.4,0.45-1.08,0.79-1.13,1.43c-0.04,0.45,0.24,0.54,0.66,0.58c0.42,0.03,0.91-0.63,1.18-0.93
		C234.81,390.25,235.1,389.66,235.31,389.1L235.31,389.1z M239.63,401.28c0.15-0.3,0.76-1.23,0.28-1.51
		c-0.17-0.1-0.45-0.01-0.86,0.6c-0.31,0.47-0.67,0.89-1.07,1.25c-0.45,0.41-1.15,0.67-1.27,1.31c-0.08,0.45,0.19,0.57,0.6,0.64
		c0.41,0.08,0.97-0.53,1.27-0.81C239.02,402.37,239.36,401.81,239.63,401.28L239.63,401.28z M239.03,397.49
		c0.12-0.31,0.63-1.3,0.12-1.53c-0.18-0.08-0.45,0.04-0.79,0.69c-0.26,0.5-0.58,0.95-0.94,1.35c-0.4,0.45-1.07,0.79-1.13,1.43
		c-0.04,0.45,0.24,0.54,0.66,0.58c0.42,0.03,0.91-0.63,1.18-0.93C238.53,398.64,238.82,398.05,239.03,397.49L239.03,397.49z
		 M237.86,391.94c-0.18-0.08-0.45,0.03-0.79,0.69c-0.26,0.5-0.58,0.95-0.94,1.35c-0.4,0.45-1.08,0.79-1.13,1.43
		c-0.04,0.45,0.24,0.54,0.66,0.58c0.42,0.03,0.91-0.63,1.18-0.93c0.39-0.43,0.68-1.02,0.89-1.58
		C237.86,393.15,238.37,392.17,237.86,391.94z"/>
	<g>
		<path class="st2" d="M195.99,406.24c0.89,4.93,1.05,11.09,4.25,14.93c3.9,4.68,6.52,2.51,11.63-0.5c1.68-0.99,3.14-3.87,5.73-5.53
			c3.13-2.01,7.37-2.83,8.61-4.13c0.71-0.75,1.44-1.7,2.03-2.54c0.96-1.37,1.83-1.72,2.77-2.92c0.9-1.15,1.48-2.81,0.54-3.64
			c-0.37-0.33-0.71-0.16-0.27-0.64c0.2-0.22,0.44-0.47,0.59-0.79c0.75-1.65,0.83-2.79-0.06-2.91c-0.41-0.05-0.5-0.1-0.33-0.32
			c0.42-0.56,0.82-1.7,0.87-2.57c0.02-0.42-0.16-1.21-0.53-1.3c-0.67-0.16-0.95-0.03-0.42-1.29c0.1-0.25,0.23-0.49,0.24-0.64
			c0.11-0.93-0.02-1.63-0.83-2.09c-1.55-0.86-1.46-0.01-1.15-2.08c0.24-1.62,0.4-3.78-1.64-4.12c-3.28-0.54-4.81,2.69-7,4.59
			c-1.39,1.2-2.5,2.18-3.49,3.01l0,0l0,0c-0.57,0.48-1.1,0.91-1.62,1.31l0.01-0.2c-1.89,1.45-3.84,3.39-5.53,4.98
			c-2.06,1.92-4.41,3.08-6.62,4.77c-2.2-0.21-4.96,1.77-7.79,2.76C195.97,404.99,195.98,405.61,195.99,406.24z"/>
		<path class="st3" d="M148.31,322.59c-0.58,4.04,0.21,6.02,1.92,10.05c1.9,4.47,4.14,7.95,6.56,12.07
			c1.24,2.11,1.43,4.81,2.21,7.12c0.56,1.66,1.52,5.5,2.42,6.84c0.24,0.36,1.23,2.91,1.36,2.92l12.87-13.62
			C174,339.9,158.12,312.19,148.31,322.59z"/>
		<path class="st2" d="M120.48,330.07c2.25,14.71,9.92,63.06,34.2,51.91c11.65-5.35,17.89-11.79,27.99-18.76
			c3.75-2.58,8.4-7.02,12.25-8.8c2.26-1.04,4.91-0.15,6.66,0.08c4.56,0.6,8.71-2.71,12.31-6.08c3.23-3.03-0.75-10.7-5.86-15.2
			c-2.87-2.52-7.52-2.71-10.02-1.87c-1.69,0.58-3.79,1.11-5.6,1.73c-2.17,0.75-2.53,3.85-4.49,5.75c-1.48,1.43-4.53,1.64-6.21,2.68
			c-3.61,2.24-7.38,5.02-11.09,6.94c-2.53,1.31-5.05,1.96-7.57,2.7l-11.95,3.34L136.39,325L120.48,330.07z"/>
		<path class="st4" d="M204.25,351.34c-2.82-1.05-5.97-1.3-9.57-0.44c1.09-1.47,2.21-2.81,3.32-3.81c1.85-1.66,4.65-1.59,6.4-1.88
			c4.54-0.77,7.54-5.16,9.98-9.44c2.2-3.85-3.88-9.98-10.1-12.77c-3.49-1.56-7.99-0.37-10.14,1.17c-1.45,1.05-3.3,2.18-4.85,3.31
			c-1.86,1.35-1.29,4.42-2.6,6.81c-0.99,1.8-3.85,2.9-5.15,4.39c-2.8,3.2-5.59,6.96-8.57,9.9c-2.03,2-4.25,3.36-6.45,4.82
			c2.57-2.74-3.1-16.79-11.04-30.36c-0.16-0.27-0.35-0.53-0.52-0.79c0.87,1.07,2.29,2.06,3.8,2.95c0.61,0.52,1.16,0.99,1.59,1.41
			c6.29,6.1,12.71,5.61,20.16,1.51c1.16,0.03,2.69,0.71,3.28,0.4c0.98-0.52,1.3-2.25,0.71-3.18c0.52,0.14,1.17,0.22,2.04,0.23
			c2.35,0.05,1.12-3.13,1.69-4.33c1.57-3.31,7.71,2.47,8.9-3.65c0.63-3.23-1.37-7.99,2.15-10.2c0.96-0.6,2.08-0.74,3.05-1.09
			c2.81-1.03,6.58-6.16,7.8-8.76c5.11-10.89,4.51-28.21-0.29-38.82c-7.05-15.59-22.54-27.11-39.56-28.12
			c-13.76-0.82-26.57,7.27-34.53,18.57c-9,12.78-8.56,25.5-7.89,39.51c0.38,8.01-1.78,10.54-6.71,16.08
			c-34.89,39.14-27.75,93.32,15.61,129.04c16.63,13.7,40.16,17.21,53.82,4.46c2.31-2.16,8.97-11.08,11.8-22.04
			c0.54-2.08,0.88-4.11,1.11-6.09c2.19,4.92,3.18,12.15,7.61,15.92c4.8,4.09,7.1,1.56,11.81-2.17c1.55-1.23,2.55-4.29,4.91-6.31
			c2.86-2.44,7.05-3.87,8.1-5.34c0.6-0.84,1.19-1.89,1.64-2.81c0.75-1.5,1.58-1.97,2.33-3.3c0.72-1.27,1.03-3.01-0.08-3.69
			c-0.44-0.27-0.75-0.06-0.39-0.6c0.16-0.24,0.37-0.53,0.46-0.87c0.49-1.75,0.38-2.89-0.56-2.88c-0.43,0.01-0.53-0.03-0.4-0.27
			c0.33-0.61,0.55-1.81,0.45-2.67c-0.05-0.42-0.37-1.18-0.76-1.21c-0.71-0.06-0.97,0.1-0.65-1.22c0.06-0.27,0.15-0.52,0.14-0.67
			c-0.05-0.94-0.3-1.61-1.21-1.95c-1.31-0.49-1.62-0.63-1.23-2.05c0.43-1.58-0.55-3.66-2.69-3.7c-3.45-0.07-4.46,3.36-6.37,5.56
			c-1.9,2.18-3.2,3.72-4.49,5.02C220.11,378.52,217.32,354.9,204.25,351.34z"/>
		<path class="st2" d="M204.9,250.14c-8.05-11.03-20.8-18.79-34.59-19.61c-13.76-0.82-26.57,7.27-34.53,18.57
			c-8.26,11.72-8.6,25.23-7.92,39.57c0.38,8.01-1.78,10.54-6.71,16.08c-34.89,39.14-27.75,93.32,15.61,129.04
			c1.63,1.34,3.32,2.58,5.06,3.72c-0.09-0.08-0.19-0.15-0.28-0.23c-43.37-35.72-49.86-90.68-14.98-129.82
			c4.11-4.61,7.22-9.12,6.93-15.46c-0.6-12.76,1.02-22.93,10.08-34.62c19.44-24.92,51.04-18.42,65.36,8.81
			c3.23,6.14,4.23,15.02,3.79,23.32c2.09-10.21,0.9-22.57-2.84-30.86C208.51,255.65,206.84,252.8,204.9,250.14z"/>
		<path class="st2" d="M160.91,286.7c-0.45,2.18-1.84,3.97-3.36,4.63c-1.23,0.85-0.27,1.16-0.06,1.9c0.66,2.45-2.45,3.8-3.88,0.17
			c-1.14-2.89-1.44-6.4,0.08-8.97C156.35,279.93,162.16,280.64,160.91,286.7z"/>
		<path class="st3" d="M153.97,320.57c-4.22-1.8-10.42-2.81-15,0.27l0.93,0.4c8.23-3.02,17.36,3.52,18.4,7.03
			c-0.1-0.51-0.15-0.94-0.16-1.33c2.14,2.55,4.39,4.46,5.65,4.97c0.2-0.26,0.42-0.49,0.68-0.71c0.3-0.25,0.59-0.54,1.01-0.84
			c4.76,1.7,9.9,0.72,15.06-2.12c1.16,0.03,2.69,0.71,3.28,0.4c0.98-0.52,1.3-2.25,0.71-3.18c0.52,0.14,1.17,0.22,2.04,0.24
			c2.35,0.05,1.12-3.13,1.69-4.33c1.31-2.75,5.79,0.79,7.93-1.48c-2.43,0.34-6.47-1.82-7.75-2.4c-0.78-0.35-1.26,1.85-1.35,2.58
			c-0.1,0.78,0.14,2.15-0.11,3.14c-0.52,2.04-2.82,0.76-4.04,0.34c-0.9-0.31-1.56,0.12-1.61,0.26c-0.07,0.19,0.44,0.47,1.06,1.06
			c0.83,0.8,1.72,1.93,0.25,2.7c-0.59,0.31-2.1-0.6-3.27-0.63c-4.95,2.72-9.51,3.42-13.86,1.78c-2.1-0.91-4.68-2.71-6.9-4.91l0,0
			c-0.18-0.37-0.57-0.81-1.13-1.25c-1.56-1.98-2.94-4.31-3.72-6.6c-0.02-0.12-0.05-0.25-0.06-0.37l-0.07-0.05
			c-0.39-1.27-0.58-2.52-0.5-3.68l-0.66-0.72c-0.75,2.55-0.16,5.76,0.96,8.77C153.59,320.14,153.78,320.35,153.97,320.57z"/>
		<path class="st2" d="M154.87,299.49c-1.59,0.27-3.47-1.27-4.23-2.33c-4.17-5.86-2.35-16.64,5.3-20.06
			c2.82-1.26,5.48-0.58,7.79,1.79c2.49,2.56,2.73,4.65,2.15,7.59c-0.65,3.29-5.03,1.57-3.23-1.19c1.46-2.23-0.63-5.02-2.54-5.96
			c-0.52-0.26-1.06-0.51-1.73-0.58c-8.42-0.84-10.83,17.33-4.45,19.61c0.4,0.14,0.7,0.1,0.99,0
			C158.15,297.25,156.84,299.15,154.87,299.49z"/>
		<path class="st2" d="M196.38,307.98c-0.09-2.1,2.37-3.05,2.65-3.27c2.92-2.36-3.81-3.53-9.49-2.91
			C191.31,305.31,193.29,306.48,196.38,307.98z"/>
		<path class="st3" d="M189.21,301.7c1.58,3.5,2.76,4.92,5.91,6.62c1.18,0.64,1.96-0.97,0.64-1.52c-2.69-1.12-4.25-2.36-6.21-5
			L189.21,301.7z"/>
		<path class="st2" d="M197.61,350.44c-0.94,0.07-1.92,0.23-2.93,0.47c1.09-1.47,2.2-2.81,3.32-3.81c1.85-1.66,4.65-1.59,6.4-1.88
			c4.54-0.77,7.54-5.15,9.98-9.44c1.03-1.8,0.25-4.09-1.5-6.3c-1.32,5.33-2.8,8.77-8.44,11.22c-1.3,0.57-2.5,1.54-3.91,1.78
			c-5.79,1.02-5.09,2.49-8.05,7.65c-2.48,4.31-7.87,9.65-9.13,11.5c-3.33,4.9-12.55,16.38-18.11,19.5
			c-4.33,2.43-6.77,3.12-11.57,1.75c-13.31-3.79-17.81-12.89-17.81-12.89l6.18,9.6l8.08,8.93l7.53,2.94l7.03-1.51l9.12-7.65
			l17.54-23.34L197.61,350.44z"/>
		<path class="st2" d="M203.06,413.05c0.18-0.99,0.31-1.96,0.43-2.92c2.19,4.92,3.18,12.15,7.6,15.91c4.8,4.09,7.1,1.56,11.81-2.17
			c1.55-1.22,2.55-4.29,4.91-6.31c2.86-2.44,7.05-3.87,8.1-5.34c0.6-0.84,1.19-1.89,1.64-2.81c0.75-1.5,1.58-1.97,2.33-3.3
			c0.65-1.15,0.96-2.67,0.21-3.46c-0.21,0.47-0.4,0.96-0.7,1.37c-1.9,2.64-3.46,4.92-6.04,6.37c-4.03,2.27-7.49,1.28-11.41,5.33
			c-1.03,1.06-2.41,1.87-3.68,2.47c-1.54,0.71-4.06,0.75-5.18-0.04c-4.12-2.87-6.46-9.47-7.98-14.42l-0.45,0.04l-0.03,0.15l0.05,0.2
			l-0.1,0.17c0.18,0.65-0.51,2.67-0.72,3.42C203.31,409.59,203.17,411.18,203.06,413.05z"/>
		<path class="st2" d="M221.65,401.47c-1.84-10.22-6.27-36.89-19.13-38.9c-10.36-1.62-15.56,7.41-21.37,13.73l-2.03-1.32l12.7-16.64
			l8.25-3.41l8.28,0.16l6.93,10.03l4.35,17.68l3.07,17.96L221.65,401.47z"/>
		<path class="st5" d="M202.33,416.41c0.02-0.09,0.05-0.18,0.07-0.26c0.54-2.07,0.88-4.11,1.11-6.09c2.19,4.92,3.18,12.15,7.6,15.92
			c4.8,4.09,7.1,1.56,11.81-2.17c1.55-1.23,2.55-4.29,4.91-6.31c2.03-1.74,4.74-2.96,6.52-4.05c-6.53,2.38-7.83,3.85-11.91,8.8
			c-1.16,1.4-2.69,2.25-4.57,2.44c-0.86,0.09-1.82,0.02-2.9-0.23c-2.64-0.62-4.31-3.11-6.26-7.62c-2.32-5.38-3.71-10.64-5.28-16.85
			c0.36,3.34-0.33,6.92-0.67,10.26c-0.16,1.62-1.09,3.13-0.65,4.75l-0.1,0.17C202.11,415.56,202.22,415.98,202.33,416.41z"/>
		<path class="st2" d="M166.44,409.99c-15.49-4.71-29.05-18.62-30.42-38.9c9.73,13.22,12.14,21.38,29,17.82L166.44,409.99z"/>
		<path class="st2" d="M171.77,349.79c-2.19,1.01-7.55,5.21-7.71,10.09l-0.47,0.56c-1.58-4.61,1.97-10.43,3.66-12.14
			C169.62,347.66,170.93,348.41,171.77,349.79z"/>
		<path class="st3" d="M206.76,253.26c-7.7-12.08-20.85-20.18-35.43-21.05c-13.76-0.82-25.62,7.55-33.58,18.85
			c-4.66,6.61-6.87,13.09-7.82,19.74c-0.58,5.8-0.32,11.75-0.03,17.93c0.38,8.07-1.79,10.62-6.76,16.19
			c-33.53,37.61-28.53,89.01,9.93,124.9c0.4,0.34,0.8,0.67,1.2,1c16.63,13.7,39.18,15.19,52.85,2.44
			c2.31-2.16,9.94-9.05,12.77-20.01c0.17-0.67,0.32-1.33,0.46-1.99c1.86-10.73,1.74-21.37,0.85-32.86l1.8,2.94
			c1.49,12.86,0.45,22.37,5.7,34.55c1.95,4.52,3.42,6.4,6.06,7.02c1.08,0.25,2.04,0.32,2.9,0.23c1.88-0.19,3.19-0.8,4.35-2.2
			c4.08-4.94,5.96-5.16,12.49-7.54c-1.75,1.19-4.63,2.4-6.67,4.09c-2.39,1.98-3.38,5.15-4.93,6.38c-4.71,3.72-7.07,6.32-11.86,2.23
			c-1.08-0.92-1.92-2.15-2.66-3.39c-2.92,1.57-5.02,1.92-7.75-1.11c-3.23,8.37-8.12,14.79-10.03,16.57
			c-11.33,10.57-29.43,9.96-44.77,1.64c0.43,0.26,0.87,0.51,1.31,0.76c-3.64-1.85-7.14-4.13-10.38-6.8
			c-43.37-35.72-50.5-89.9-15.61-129.04c4.93-5.54,7.09-8.07,6.71-16.08c-0.56-11.85-0.97-22.78,4.37-33.6
			c0.02-0.05,0.05-0.1,0.08-0.15c0.06-0.13,0.13-0.26,0.2-0.39c0.92-1.81,2.01-3.62,3.28-5.43c7.96-11.3,20.77-19.39,34.53-18.57
			C185.55,231.44,199.16,240.25,206.76,253.26L206.76,253.26z M189.07,358.99c-7.61,9.63-11.68,17.62-21.25,26.16
			c-11.31,10.09-21.71-0.41-29.77-13.83c-6.16-10.25,6.88,28.77,25.54,21.63c-0.71,1.81-1.48,3.41-2.49,4.91
			c-1.39,2.05-1.33,3.83,0.89,1.29c1.13-1.29,2.28-2.8,3.41-4.47c-0.8,7.33,0.16,15.64,1.89,20.71l0.72-0.34
			c-2.07-7.91-0.17-19.99,3.58-27.81c7.9-7.49,12.1-14.73,18.56-23.72c8.14-11.33,15.68-8.11,21.67,0.82
			c6.91,10.3,7.78,22.37,9.37,34.38c1.1,8.36,1.93,2.13,1.3-2.11l-1.8-12.07c0.05,0.17,0.11,0.35,0.16,0.52
			c-0.3-2.04-0.62-4.11-1-6.17l0-0.02l0,0c-2.16-11.86-5.85-23.31-13.67-26.9c-3.69-1.69-7.25-2.39-11.2-1.51
			C192.94,353.23,191.19,356.31,189.07,358.99z"/>
	</g>
</g>
<path class="st6" d="M287.26,242.16c-0.65,4.53,0.33,9.28,2.72,13.18c1.14,1.86,2.65,3.75,2.51,5.93c-0.14,2.1-1.78,3.74-2.97,5.48
	c-4.74,6.9-1.9,24.52,0.04,32.44c-1.55-6.3,0.35-13.34,4.87-18c1.97-2.03,4.51-3.81,5.27-6.54c0.42-1.5,0.23-3.11,0.51-4.64
	c0.28-1.53,1.29-3.15,2.85-3.28"/>
<path class="st6" d="M302.8,293.64c-2.57-1.45-5.95,0.27-7.52,2.77c-1.57,2.49-1.92,5.54-2.66,8.39c-0.74,2.86-2.14,5.85-4.84,7.04
	c5.61,1.97,9.75,7.54,10.03,13.47c0.08,1.6-0.1,3.25,0.34,4.79c0.57,1.96,2.18,3.59,4.14,4.17"/>
<path class="st6" d="M294.46,386.27c7.7-12.12-0.81-21.09-0.88-33.49c-0.06-10.82-2.05-20.93-1.97-32.06"/>
<path class="st6" d="M292.36,323.02c0.49-4.23-1.37-8.66-4.74-11.27c-3.41-2.64,3.37-15.4,5.83-18.94c2.21-3.2,6.02-5.63,6.47-9.5"
	/>
<path class="st7" d="M294.78,268.88c-1.89,4.79-3.77,9.58-5.66,14.38"/>
<path class="st6" d="M301.66,319.91c1.01,3.21-0.9,7.05-4.07,8.18"/>
<path class="st6" d="M304.56,390.93c-4.21-2.11-7.05-6.72-7.04-11.44"/>
<path class="st6" d="M294.59,348.95c-0.4,3.4,3.18,5.71,5.28,8.41c3.25,4.16,3.12,9.94,2.85,15.22"/>
<path class="st6" d="M297.72,329.89c-0.31,3.05-0.61,6.1-0.92,9.14"/>
<path class="st8" d="M293.19,301.08c2.27-0.98,5.1-0.51,6.92,1.17"/>
<path class="st6" d="M295.51,364.27c-1.52,4.07-3.2,8.07-5.05,12"/>
<path class="st9" d="M339.32,153.36c-5.9,1.35-12.28-3.75-18.17-4.43c-2.94-0.34-5.8-0.16-8.58,0.91c-1.91,0.74-3.43,2.36-4.4,2.03
	c-1.31-0.44-3.33-3.97-4.6-4.95c-1.89-1.46-4.02-2.51-6.29-3.24c-4.36-1.41-10.58-2.31-15.1-1.19c-5.1,1.26-5.91,5.87-8.89,9.37
	c-3.4,3.99-6.16,7.24-7.13,12.58c-1.14,6.29-1.19,12.86-1.68,19.22c-0.48,6.31-1.75,13.02-0.79,19.29c0.35,2.3,2.65,4.05,4.7,4.7
	c6.28,1.99,11.97-3.16,16.06-8.23c5.03-4.26,10.15-3.53,17.18-4.08c3-0.23,5.59-1.05,8.02-2.83c1.16-0.85,2.15-2.59,3.45-3.18
	c1.62-0.74,4.09-0.42,5.81-0.52c5.58-0.33,11.36-1.55,14.8-6.39c2.1-2.96,2.09-6.66,3.93-9.71c1.96-3.25,5.33-5.73,8.23-8.09
	C351.44,160.08,345.32,151.99,339.32,153.36z"/>
<path class="st10" d="M144.56,363.1c-2.38,0.55-4.95-1.51-7.32-1.79c-1.18-0.14-2.34-0.06-3.46,0.37c-0.77,0.3-1.38,0.95-1.77,0.82
	c-0.53-0.18-1.34-1.6-1.86-2c-0.76-0.59-1.62-1.01-2.54-1.31c-1.76-0.57-4.26-0.93-6.09-0.48c-2.05,0.51-2.38,2.37-3.59,3.78
	c-1.37,1.61-2.48,2.92-2.87,5.07c-0.46,2.53-0.48,5.19-0.68,7.75c-0.2,2.54-0.7,5.25-0.32,7.77c0.14,0.93,1.07,1.63,1.9,1.9
	c2.53,0.8,4.82-1.27,6.47-3.32c2.03-1.72,4.09-1.42,6.93-1.64c1.21-0.09,2.25-0.42,3.23-1.14c0.47-0.34,0.87-1.04,1.39-1.28
	c0.65-0.3,1.65-0.17,2.34-0.21c2.25-0.13,4.58-0.63,5.96-2.58c0.85-1.19,0.84-2.68,1.58-3.91c0.79-1.31,2.15-2.31,3.32-3.26
	C149.45,365.81,146.98,362.54,144.56,363.1z"/>
<path class="st11" d="M163.24,408.82c-1.01,0-1.8,0.33-2.4,0.84c-0.51-0.28-1.12-0.45-1.85-0.45c-1.25,0-2.18,0.5-2.79,1.24
	c-0.37-0.2-0.78-0.36-1.25-0.42c1.42-1.37,1.51-3.88,0.26-5.39c0.08-0.12,0.18-0.23,0.25-0.36c0.96-1.81,0.47-4.13-1.36-5.19
	c-2.17-1.26-4.86-1.62-7.25-0.81c-1.38,0.47-2.52,1.68-2.76,3.09c-1.15,0.84-1.63,2.34-1.44,3.73c-0.06,0.08-0.12,0.16-0.18,0.24
	c-0.02,0-0.05,0-0.07,0c-1.8,0-2.94,1.03-3.41,2.34c-0.15-0.01-0.29-0.02-0.45-0.02c-1.85,0-3,1.09-3.45,2.44
	c-0.53-0.32-1.18-0.51-1.96-0.51c-1.22,0-2.14,0.48-2.75,1.19c-0.59-0.92-1.6-1.58-3.04-1.58c-4.88,0-4.89,7.58,0,7.58
	c1.22,0,2.14-0.48,2.75-1.19c0.59,0.92,1.6,1.58,3.04,1.58c1.85,0,3-1.09,3.45-2.44c0.53,0.32,1.18,0.51,1.96,0.51
	c1.8,0,2.94-1.03,3.41-2.34c0.15,0.01,0.29,0.02,0.45,0.02c1.42,0,2.42-0.64,3.01-1.55c0.02,0,0.05,0,0.07,0
	c0.87,0,1.59-0.25,2.15-0.64c-0.14,1.88,0.92,3.87,3.2,4.09c0.38,1.48,1.55,2.72,3.53,2.72c1.24,0,2.16-0.5,2.77-1.23
	c0.51,0.29,1.13,0.46,1.86,0.46c1.01,0,1.8-0.33,2.4-0.84c0.51,0.28,1.12,0.45,1.85,0.45C168.12,416.41,168.13,408.82,163.24,408.82
	z"/>
<path class="st12" d="M134.92,412.93c3.88-1.78,7.76-3.57,11.63-5.35c2.05-0.94,4.29-2.09,5.05-4.21c-0.67-0.46-1.67,0.05-1.99,0.8
	c-0.32,0.75-0.16,1.61,0.01,2.41c0.52,2.33,1.3,4.81,3.24,6.2c1.87,1.34,4.35,1.34,6.64,1.29c1.06-0.02,2.32-0.17,2.8-1.11"/>
<path class="st13" d="M158.24,182.99c-49.76,28.05-86.45,78.3-97.99,134.25c-4.04,19.6-5.13,39.67-6.21,59.65
	c-0.22,3.98-0.42,8.05,0.58,11.91c0.92,3.55,2.83,6.76,4.71,9.91c20.06,33.58,41.4,68.49,74.84,88.78
	c6.44,3.91,13.3,7.24,18.99,12.18s10.21,11.9,10.02,19.43"/>
<path class="st13" d="M384.97,167.53c-3.86,42.48-10.4,84.72-19.55,126.38c-2.52,11.47-5.26,23.01-5.3,34.76
	c-0.11,33.36,21.04,62.59,31.43,94.29c10.99,33.53,9.6,70.96-3.84,103.58"/>
<path class="st13" d="M156.6,182.58c-9.59,4.24-35.99,4.58-43.24-15.65c-6.31-17.59-2.4-33.76,6.13-50.39s35.08-35.48,52.64-45.02"
	/>
<g>
	<g>
		<path class="st14" d="M80.11,358.13h1.99v-5.85h-1.65v-1.01c0.89-0.16,1.5-0.39,2.06-0.73h1.2v7.6h1.75v1.32h-5.36V358.13z"/>
		<path class="st14" d="M86.53,355.26c0-3.46,1.68-4.9,3.5-4.9c1.07,0,1.85,0.45,2.38,1.01l-0.87,0.98
			c-0.33-0.39-0.89-0.67-1.42-0.67c-1.16,0-2.1,0.9-2.1,3.58c0,2.2,0.7,3.12,1.71,3.12c0.74,0,1.33-0.6,1.33-1.69
			c0-1.05-0.52-1.59-1.41-1.59c-0.52,0-1.14,0.3-1.65,1.11l-0.07-1.13c0.51-0.71,1.34-1.14,2.01-1.14c1.54,0,2.6,0.9,2.6,2.76
			c0,1.78-1.28,2.92-2.8,2.92C88.01,359.61,86.53,358.26,86.53,355.26z"/>
		<path class="st14" d="M95.87,354.83c0-2.96,1.65-4.71,4.04-4.71c2.39,0,4.04,1.76,4.04,4.71c0,2.96-1.65,4.78-4.04,4.78
			C97.52,359.61,95.87,357.79,95.87,354.83z M102.28,354.83c0-2.06-0.93-3.3-2.37-3.3c-1.44,0-2.37,1.24-2.37,3.3
			c0,2.06,0.93,3.37,2.37,3.37C101.35,358.2,102.28,356.88,102.28,354.83z"/>
		<path class="st14" d="M105.44,350.28h1.63v3.68h3.7v-3.68h1.63v9.16h-1.63v-4.06h-3.7v4.06h-1.63V350.28z"/>
		<path class="st14" d="M116.25,355.33h3.33v1.18h-3.33V355.33z"/>
		<path class="st14" d="M123.43,350.28h2.44c2.81,0,4.47,1.51,4.47,4.54s-1.66,4.62-4.38,4.62h-2.53V350.28z M125.77,358.13
			c1.84,0,2.9-1.05,2.9-3.3s-1.06-3.23-2.9-3.23h-0.71v6.53H125.77z"/>
		<path class="st14" d="M131.83,350.28h1.63v3.68h3.7v-3.68h1.62v9.16h-1.62v-4.06h-3.7v4.06h-1.63V350.28z"/>
		<path class="st14" d="M140.76,350.28h5.51v1.37h-3.89V354h3.29v1.37h-3.29v2.71h4.03v1.37h-5.65V350.28z"/>
		<path class="st14" d="M149.74,350.28h1.9l2.99,9.16h-1.72l-1.4-4.87c-0.29-0.97-0.56-2.01-0.83-3.02h-0.06
			c-0.25,1.01-0.52,2.05-0.81,3.02l-1.41,4.87h-1.66L149.74,350.28z M148.51,355.69h4.31v1.27h-4.31V355.69z"/>
	</g>
</g>
<g>
	<g>
		<path class="st14" d="M252.9,117.11c0-2.29,1.62-3.61,3.45-3.61c0.87,0,1.51,0.34,2.01,0.77l-0.78,1.05
			c-0.36-0.32-0.71-0.5-1.14-0.5c-1.11,0-1.88,0.92-1.88,2.3s0.76,2.29,1.83,2.29c0.54,0,1.03-0.26,1.42-0.59l0.66,1.06
			c-0.64,0.57-1.46,0.85-2.25,0.85C254.35,120.72,252.9,119.39,252.9,117.11z"/>
		<path class="st14" d="M259.62,111.39h5.51v1.37h-3.89v2.35h3.29v1.37h-3.29v2.71h4.03v1.37h-5.65V111.39z"/>
		<path class="st14" d="M265.97,119.46l0.77-1.03c0.54,0.54,1.22,0.98,2.11,0.98c0.97,0,1.65-0.5,1.65-1.34
			c0-0.92-0.59-1.51-2.62-1.51v-1.18c1.74,0,2.31-0.61,2.31-1.42c0-0.75-0.5-1.19-1.32-1.19c-0.69,0-1.24,0.33-1.78,0.84l-0.83-1
			c0.76-0.67,1.61-1.13,2.68-1.13c1.7,0,2.87,0.85,2.87,2.36c0,0.99-0.59,1.67-1.55,2.05v0.06c1.05,0.27,1.85,1.03,1.85,2.22
			c0,1.63-1.42,2.57-3.13,2.57C267.55,120.72,266.6,120.16,265.97,119.46z"/>
		<path class="st14" d="M275.99,116.65c0-2.47,0.68-4.48,1.85-6.38l1.01,0.44c-1.05,1.8-1.54,3.89-1.54,5.94s0.49,4.15,1.54,5.94
			l-1.01,0.44C276.67,121.14,275.99,119.12,275.99,116.65z"/>
		<path class="st14" d="M279.68,118.27c0-1.12,0.76-1.84,1.6-2.29v-0.06c-0.68-0.49-1.22-1.14-1.22-2.08c0-1.45,1.14-2.38,2.69-2.38
			c1.6,0,2.62,0.98,2.62,2.41c0,0.89-0.62,1.64-1.2,2.05v0.06c0.82,0.47,1.54,1.12,1.54,2.31c0,1.37-1.21,2.43-3.01,2.43
			C280.96,120.72,279.68,119.7,279.68,118.27z M284.2,118.24c0-0.97-0.94-1.32-2.14-1.82c-0.55,0.41-0.96,0.99-0.96,1.68
			c0,0.88,0.72,1.47,1.64,1.47C283.59,119.57,284.2,119.07,284.2,118.24z M284.03,113.98c0-0.78-0.48-1.36-1.31-1.36
			c-0.69,0-1.22,0.45-1.22,1.23c0,0.89,0.8,1.29,1.79,1.68C283.76,115.05,284.03,114.54,284.03,113.98z"/>
		<path class="st14" d="M286.5,116.05c0-3.01,1.18-4.59,3.03-4.59c1.85,0,3.03,1.59,3.03,4.59c0,3.01-1.18,4.66-3.03,4.66
			C287.67,120.72,286.5,119.07,286.5,116.05z M291.01,116.05c0-2.52-0.62-3.32-1.48-3.32c-0.86,0-1.48,0.8-1.48,3.32
			s0.62,3.4,1.48,3.4C290.39,119.45,291.01,118.58,291.01,116.05z"/>
		<path class="st14" d="M293.36,116.43h3.33v1.18h-3.33V116.43z"/>
		<path class="st14" d="M297.58,119.71l0.87-0.98c0.33,0.39,0.89,0.67,1.42,0.67c1.17,0,2.1-0.9,2.1-3.58c0-2.2-0.7-3.12-1.71-3.12
			c-0.74,0-1.33,0.6-1.33,1.69c0,1.05,0.52,1.59,1.41,1.59c0.52,0,1.14-0.3,1.65-1.11l0.07,1.13c-0.51,0.71-1.34,1.14-2.01,1.14
			c-1.54,0-2.6-0.9-2.6-2.76c0-1.78,1.28-2.92,2.8-2.92c1.74,0,3.23,1.36,3.23,4.35c0,3.46-1.68,4.9-3.5,4.9
			C298.89,120.72,298.11,120.26,297.58,119.71z"/>
		<path class="st14" d="M304.32,116.05c0-3.01,1.18-4.59,3.03-4.59c1.85,0,3.03,1.59,3.03,4.59c0,3.01-1.18,4.66-3.03,4.66
			C305.5,120.72,304.32,119.07,304.32,116.05z M308.83,116.05c0-2.52-0.62-3.32-1.48-3.32c-0.86,0-1.48,0.8-1.48,3.32
			s0.62,3.4,1.48,3.4C308.21,119.45,308.83,118.58,308.83,116.05z"/>
		<path class="st14" d="M311,114.1c0-1.83,0.9-2.89,2.19-2.89s2.19,1.05,2.19,2.89c0,1.84-0.9,2.91-2.19,2.91S311,115.95,311,114.1z
			 M314.22,114.1c0-1.38-0.44-1.95-1.03-1.95s-1.03,0.57-1.03,1.95s0.44,1.98,1.03,1.98S314.22,115.48,314.22,114.1z M318.48,111.22
			h0.99l-5,9.5h-0.99L318.48,111.22z M317.58,117.8c0-1.83,0.9-2.89,2.19-2.89s2.19,1.05,2.19,2.89c0,1.84-0.9,2.91-2.19,2.91
			S317.58,119.65,317.58,117.8z M320.79,117.8c0-1.38-0.44-1.95-1.03-1.95s-1.03,0.57-1.03,1.95s0.44,1.98,1.03,1.98
			S320.79,119.18,320.79,117.8z"/>
		<path class="st14" d="M322.61,122.6c1.05-1.8,1.54-3.89,1.54-5.94s-0.49-4.15-1.54-5.94l1.01-0.44c1.17,1.9,1.85,3.92,1.85,6.38
			s-0.68,4.48-1.85,6.38L322.61,122.6z"/>
	</g>
</g>
<g>
	<g>
		<path class="st14" d="M289.15,211.86v-4.31h1.61v4.11c0,1.13,0.33,1.56,1.07,1.56c0.6,0,1-0.28,1.52-0.95v-4.71h1.61v6.88h-1.32
			l-0.12-1.01h-0.04c-0.6,0.72-1.27,1.18-2.21,1.18C289.8,214.6,289.15,213.6,289.15,211.86z"/>
		<path class="st14" d="M296.81,205.27h5.51v1.37h-3.89v2.35h3.29v1.37h-3.29v2.71h4.03v1.37h-5.65V205.27z"/>
		<path class="st14" d="M303.16,213.33l0.77-1.03c0.54,0.54,1.22,0.98,2.11,0.98c0.97,0,1.65-0.5,1.65-1.34
			c0-0.92-0.59-1.51-2.62-1.51v-1.18c1.74,0,2.31-0.61,2.31-1.42c0-0.75-0.5-1.19-1.32-1.19c-0.69,0-1.24,0.33-1.78,0.84l-0.83-1
			c0.76-0.67,1.61-1.13,2.68-1.13c1.7,0,2.87,0.85,2.87,2.36c0,0.99-0.59,1.67-1.55,2.05v0.06c1.05,0.27,1.85,1.03,1.85,2.22
			c0,1.63-1.42,2.57-3.13,2.57C304.74,214.6,303.79,214.04,303.16,213.33z"/>
		<path class="st14" d="M313.18,210.53c0-2.47,0.68-4.48,1.85-6.38l1.01,0.44c-1.05,1.8-1.54,3.89-1.54,5.94s0.49,4.15,1.54,5.94
			l-1.01,0.44C313.86,215.02,313.18,213,313.18,210.53z"/>
		<path class="st14" d="M317.33,213.11h1.99v-5.85h-1.65v-1.01c0.89-0.16,1.5-0.39,2.06-0.73h1.2v7.6h1.75v1.32h-5.36V213.11z"/>
		<path class="st14" d="M323.45,213.36l0.75-1.03c0.53,0.51,1.18,0.95,2.08,0.95c1,0,1.72-0.63,1.72-1.71
			c0-1.06-0.66-1.66-1.64-1.66c-0.57,0-0.89,0.15-1.42,0.5l-0.77-0.49l0.27-4.4h4.76v1.37h-3.36l-0.19,2.15
			c0.38-0.19,0.72-0.29,1.18-0.29c1.53,0,2.8,0.87,2.8,2.78c0,1.96-1.49,3.07-3.14,3.07C325.05,214.6,324.11,214.02,323.45,213.36z"
			/>
		<path class="st14" d="M330.37,207.98c0-1.83,0.9-2.89,2.19-2.89s2.19,1.05,2.19,2.89c0,1.84-0.9,2.91-2.19,2.91
			S330.37,209.83,330.37,207.98z M333.58,207.98c0-1.38-0.44-1.95-1.03-1.95s-1.03,0.57-1.03,1.95s0.44,1.98,1.03,1.98
			S333.58,209.36,333.58,207.98z M337.85,205.1h0.99l-5,9.5h-0.99L337.85,205.1z M336.94,211.68c0-1.83,0.9-2.89,2.19-2.89
			s2.19,1.05,2.19,2.89c0,1.84-0.9,2.91-2.19,2.91S336.94,213.53,336.94,211.68z M340.16,211.68c0-1.38-0.44-1.95-1.03-1.95
			s-1.03,0.57-1.03,1.95s0.44,1.98,1.03,1.98S340.16,213.06,340.16,211.68z"/>
		<path class="st14" d="M341.98,216.48c1.05-1.8,1.54-3.89,1.54-5.94s-0.49-4.15-1.54-5.94l1.01-0.44c1.17,1.9,1.85,3.92,1.85,6.38
			s-0.68,4.48-1.85,6.38L341.98,216.48z"/>
	</g>
</g>
<g>
	<g>
		<path class="st14" d="M99.32,407.53h2.44c2.81,0,4.47,1.51,4.47,4.54s-1.66,4.62-4.38,4.62h-2.53V407.53z M101.66,415.37
			c1.84,0,2.9-1.05,2.9-3.3s-1.06-3.23-2.9-3.23h-0.71v6.53H101.66z"/>
		<path class="st14" d="M107.72,407.53h1.63v3.68h3.7v-3.68h1.62v9.16h-1.62v-4.06h-3.7v4.06h-1.63V407.53z"/>
		<path class="st14" d="M116.65,407.53h5.51v1.37h-3.89v2.35h3.29v1.37h-3.29v2.71h4.03v1.37h-5.65V407.53z"/>
		<path class="st14" d="M125.63,407.53h1.9l2.99,9.16h-1.72l-1.4-4.87c-0.29-0.97-0.56-2.01-0.83-3.02h-0.06
			c-0.25,1.01-0.52,2.05-0.81,3.02l-1.41,4.87h-1.66L125.63,407.53z M124.41,412.93h4.31v1.27h-4.31V412.93z"/>
	</g>
</g>
<g>
	<g>
		<path class="st14" d="M285.73,304.12c0-2.24,1.55-3.61,3.17-3.61c1.86,0,2.84,1.34,2.84,3.27c0,0.31-0.03,0.62-0.07,0.78h-4.37
			c0.13,1.22,0.92,1.92,2.03,1.92c0.59,0,1.09-0.18,1.6-0.5l0.55,1c-0.66,0.44-1.48,0.75-2.36,0.75
			C287.22,307.72,285.73,306.39,285.73,304.12z M290.34,303.46c0-1.06-0.47-1.7-1.41-1.7c-0.8,0-1.51,0.6-1.65,1.7H290.34z"/>
		<path class="st14" d="M292.24,306.77l0.75-1.03c0.61,0.48,1.2,0.77,1.9,0.77c0.75,0,1.1-0.35,1.1-0.82c0-0.58-0.75-0.83-1.48-1.11
			c-0.9-0.34-1.93-0.86-1.93-2.01c0-1.19,0.96-2.06,2.5-2.06c0.96,0,1.73,0.39,2.29,0.82l-0.74,0.99c-0.48-0.35-0.97-0.6-1.51-0.6
			c-0.69,0-1.02,0.33-1.02,0.76c0,0.54,0.69,0.75,1.44,1.03c0.93,0.35,1.97,0.8,1.97,2.08c0,1.18-0.94,2.13-2.67,2.13
			C293.91,307.72,292.92,307.32,292.24,306.77z"/>
		<path class="st14" d="M298.85,305.24v-3.28h-0.98v-1.21l1.06-0.07l0.19-1.88h1.34v1.88h1.75v1.28h-1.75v3.28
			c0,0.81,0.31,1.21,0.98,1.21c0.24,0,0.52-0.08,0.72-0.16l0.27,1.19c-0.38,0.12-0.85,0.25-1.41,0.25
			C299.44,307.72,298.85,306.72,298.85,305.24z"/>
		<path class="st14" d="M303.31,300.68h1.32l0.12,1.23h0.04c0.49-0.9,1.22-1.4,1.96-1.4c0.35,0,0.57,0.04,0.78,0.14l-0.28,1.4
			c-0.24-0.07-0.42-0.11-0.71-0.11c-0.55,0-1.21,0.38-1.62,1.42v4.2h-1.61V300.68z"/>
		<path class="st14" d="M308,298.56c0-0.54,0.43-0.91,1-0.91c0.57,0,1,0.37,1,0.91c0,0.53-0.43,0.91-1,0.91
			C308.43,299.47,308,299.09,308,298.56z M308.19,300.68h1.61v6.88h-1.61V300.68z"/>
		<path class="st14" d="M311.05,304.12c0-2.29,1.56-3.61,3.27-3.61c1.71,0,3.27,1.32,3.27,3.61c0,2.28-1.56,3.6-3.27,3.6
			C312.61,307.72,311.05,306.4,311.05,304.12z M315.94,304.12c0-1.38-0.61-2.3-1.61-2.3c-1.01,0-1.61,0.92-1.61,2.3
			s0.6,2.29,1.61,2.29C315.33,306.41,315.94,305.5,315.94,304.12z"/>
		<path class="st14" d="M318.84,305.79v-8.12h1.61v8.21c0,0.4,0.18,0.54,0.35,0.54c0.07,0,0.13,0,0.25-0.03l0.2,1.2
			c-0.2,0.08-0.47,0.14-0.85,0.14C319.26,307.72,318.84,306.98,318.84,305.79z"/>
	</g>
</g>
<g>
	<g>
		<path class="st14" d="M352.89,362.89c0-2.29,1.62-3.61,3.45-3.61c0.87,0,1.51,0.34,2.01,0.77l-0.78,1.05
			c-0.36-0.32-0.71-0.5-1.14-0.5c-1.11,0-1.88,0.92-1.88,2.3s0.76,2.29,1.83,2.29c0.54,0,1.03-0.26,1.42-0.59l0.66,1.06
			c-0.64,0.57-1.46,0.85-2.25,0.85C354.33,366.49,352.89,365.17,352.89,362.89z"/>
		<path class="st14" d="M359.46,356.43h1.61v2.56l-0.07,1.33c0.58-0.54,1.26-1.04,2.2-1.04c1.47,0,2.12,1,2.12,2.73v4.31h-1.61
			v-4.11c0-1.13-0.32-1.56-1.07-1.56c-0.61,0-1,0.3-1.57,0.86v4.81h-1.61V356.43z"/>
		<path class="st14" d="M366.47,362.89c0-2.29,1.56-3.61,3.27-3.61s3.27,1.32,3.27,3.61c0,2.28-1.56,3.6-3.27,3.6
			S366.47,365.17,366.47,362.89z M371.36,362.89c0-1.38-0.61-2.3-1.61-2.3c-1.01,0-1.61,0.92-1.61,2.3s0.6,2.29,1.61,2.29
			C370.75,365.18,371.36,364.27,371.36,362.89z"/>
		<path class="st14" d="M374.26,364.56v-8.12h1.61v8.21c0,0.4,0.18,0.54,0.35,0.54c0.07,0,0.13,0,0.25-0.03l0.2,1.2
			c-0.2,0.08-0.47,0.14-0.85,0.14C374.68,366.49,374.26,365.76,374.26,364.56z"/>
		<path class="st14" d="M377.25,362.89c0-2.24,1.55-3.61,3.17-3.61c1.86,0,2.84,1.34,2.84,3.27c0,0.31-0.03,0.62-0.07,0.78h-4.37
			c0.13,1.22,0.92,1.92,2.03,1.92c0.59,0,1.09-0.18,1.6-0.5l0.55,1c-0.66,0.44-1.48,0.75-2.36,0.75
			C378.74,366.49,377.25,365.16,377.25,362.89z M381.87,362.23c0-1.06-0.47-1.7-1.41-1.7c-0.8,0-1.51,0.6-1.65,1.7H381.87z"/>
		<path class="st14" d="M383.77,365.54l0.75-1.03c0.61,0.48,1.2,0.77,1.9,0.77c0.75,0,1.1-0.35,1.1-0.82c0-0.58-0.75-0.83-1.48-1.11
			c-0.9-0.34-1.93-0.86-1.93-2.01c0-1.19,0.96-2.06,2.5-2.06c0.96,0,1.73,0.39,2.29,0.82l-0.74,0.99c-0.48-0.35-0.97-0.6-1.51-0.6
			c-0.69,0-1.02,0.33-1.02,0.76c0,0.54,0.69,0.75,1.44,1.03c0.93,0.35,1.97,0.8,1.97,2.08c0,1.18-0.94,2.13-2.67,2.13
			C385.43,366.49,384.44,366.09,383.77,365.54z"/>
		<path class="st14" d="M390.38,364.01v-3.28h-0.98v-1.21l1.06-0.07l0.19-1.88h1.34v1.88h1.75v1.28h-1.75V364
			c0,0.81,0.31,1.21,0.98,1.21c0.24,0,0.52-0.08,0.72-0.16l0.27,1.19c-0.38,0.12-0.85,0.25-1.41,0.25
			C390.97,366.49,390.38,365.49,390.38,364.01z"/>
		<path class="st14" d="M394.39,362.89c0-2.24,1.55-3.61,3.17-3.61c1.86,0,2.84,1.34,2.84,3.27c0,0.31-0.03,0.62-0.07,0.78h-4.37
			c0.13,1.22,0.92,1.92,2.03,1.92c0.59,0,1.09-0.18,1.6-0.5l0.55,1c-0.66,0.44-1.48,0.75-2.36,0.75
			C395.88,366.49,394.39,365.16,394.39,362.89z M399,362.23c0-1.06-0.47-1.7-1.41-1.7c-0.8,0-1.51,0.6-1.65,1.7H399z"/>
		<path class="st14" d="M401.59,359.45h1.32l0.12,1.23h0.04c0.49-0.9,1.22-1.4,1.96-1.4c0.35,0,0.57,0.04,0.78,0.14l-0.28,1.4
			c-0.24-0.07-0.42-0.11-0.71-0.11c-0.55,0-1.21,0.38-1.62,1.42v4.2h-1.61V359.45z"/>
		<path class="st14" d="M406.03,362.21h3.33v1.18h-3.33V362.21z"/>
	</g>
</g>
<g>
	<g>
		<path class="st14" d="M353.48,380.06h2.89c2.03,0,3.54,0.71,3.54,2.82c0,2.04-1.51,2.97-3.49,2.97h-1.32v3.37h-1.63V380.06z
			 M356.29,384.56c1.37,0,2.02-0.54,2.02-1.67c0-1.14-0.71-1.52-2.07-1.52h-1.13v3.19H356.29z"/>
		<path class="st14" d="M361.14,382.34h1.32l0.12,1.23h0.04c0.49-0.9,1.22-1.4,1.96-1.4c0.35,0,0.57,0.04,0.78,0.14l-0.28,1.4
			c-0.24-0.07-0.42-0.11-0.71-0.11c-0.55,0-1.21,0.38-1.63,1.42v4.2h-1.61V382.34z"/>
		<path class="st14" d="M365.56,385.79c0-2.29,1.56-3.61,3.27-3.61c1.71,0,3.27,1.32,3.27,3.61c0,2.28-1.56,3.6-3.27,3.6
			C367.12,389.39,365.56,388.07,365.56,385.79z M370.45,385.79c0-1.38-0.61-2.3-1.61-2.3c-1.01,0-1.61,0.92-1.61,2.3
			s0.6,2.29,1.61,2.29C369.84,388.08,370.45,387.17,370.45,385.79z"/>
		<path class="st14" d="M372.88,390.47c0-0.58,0.36-1.09,0.99-1.47v-0.06c-0.35-0.23-0.62-0.59-0.62-1.15c0-0.53,0.36-1,0.76-1.28
			v-0.06c-0.47-0.35-0.91-1-0.91-1.82c0-1.58,1.28-2.47,2.72-2.47c0.38,0,0.74,0.07,1.02,0.17h2.46v1.2h-1.25
			c0.22,0.26,0.39,0.68,0.39,1.15c0,1.53-1.16,2.35-2.62,2.35c-0.29,0-0.62-0.06-0.93-0.18c-0.21,0.18-0.34,0.35-0.34,0.66
			c0,0.39,0.28,0.62,1.12,0.62h1.22c1.64,0,2.52,0.51,2.52,1.7c0,1.36-1.42,2.43-3.67,2.43
			C374.1,392.27,372.88,391.68,372.88,390.47z M377.86,390.1c0-0.53-0.43-0.69-1.21-0.69h-0.94c-0.37,0-0.67-0.03-0.93-0.1
			c-0.37,0.28-0.53,0.59-0.53,0.91c0,0.63,0.67,0.99,1.75,0.99C377.1,391.22,377.86,390.7,377.86,390.1z M377.02,384.65
			c0-0.86-0.52-1.36-1.19-1.36s-1.19,0.49-1.19,1.36c0,0.87,0.53,1.38,1.19,1.38S377.02,385.52,377.02,384.65z"/>
		<path class="st14" d="M379.83,385.79c0-2.24,1.55-3.61,3.17-3.61c1.86,0,2.84,1.34,2.84,3.27c0,0.31-0.03,0.62-0.07,0.78h-4.37
			c0.13,1.22,0.92,1.92,2.03,1.92c0.59,0,1.09-0.18,1.6-0.5l0.55,1c-0.66,0.44-1.48,0.75-2.36,0.75
			C381.32,389.39,379.83,388.06,379.83,385.79z M384.44,385.13c0-1.06-0.47-1.7-1.41-1.7c-0.8,0-1.51,0.6-1.65,1.7H384.44z"/>
		<path class="st14" d="M386.34,388.43l0.75-1.03c0.61,0.48,1.2,0.77,1.9,0.77c0.75,0,1.1-0.35,1.1-0.82c0-0.58-0.75-0.83-1.48-1.11
			c-0.9-0.34-1.93-0.86-1.93-2.01c0-1.19,0.96-2.06,2.5-2.06c0.96,0,1.73,0.39,2.29,0.82l-0.74,0.99c-0.48-0.35-0.97-0.6-1.51-0.6
			c-0.69,0-1.02,0.33-1.02,0.76c0,0.54,0.69,0.75,1.44,1.03c0.93,0.35,1.97,0.8,1.97,2.08c0,1.18-0.94,2.13-2.67,2.13
			C388.01,389.39,387.02,388.99,386.34,388.43z"/>
		<path class="st14" d="M392.95,386.9v-3.28h-0.98v-1.21l1.06-0.07l0.19-1.88h1.34v1.88h1.75v1.28h-1.75v3.28
			c0,0.81,0.31,1.21,0.98,1.21c0.24,0,0.52-0.08,0.72-0.16l0.27,1.19c-0.38,0.12-0.85,0.25-1.41,0.25
			C393.54,389.39,392.95,388.39,392.95,386.9z"/>
		<path class="st14" d="M396.96,385.79c0-2.24,1.55-3.61,3.17-3.61c1.86,0,2.84,1.34,2.84,3.27c0,0.31-0.03,0.62-0.07,0.78h-4.37
			c0.13,1.22,0.92,1.92,2.03,1.92c0.59,0,1.09-0.18,1.6-0.5l0.55,1c-0.66,0.44-1.48,0.75-2.36,0.75
			C398.45,389.39,396.96,388.06,396.96,385.79z M401.58,385.13c0-1.06-0.47-1.7-1.41-1.7c-0.8,0-1.51,0.6-1.65,1.7H401.58z"/>
		<path class="st14" d="M404.16,382.34h1.32l0.12,1.23h0.04c0.49-0.9,1.22-1.4,1.96-1.4c0.35,0,0.57,0.04,0.78,0.14l-0.28,1.4
			c-0.24-0.07-0.42-0.11-0.71-0.11c-0.55,0-1.21,0.38-1.62,1.42v4.2h-1.61V382.34z"/>
		<path class="st14" d="M408.58,385.79c0-2.29,1.56-3.61,3.27-3.61s3.27,1.32,3.27,3.61c0,2.28-1.56,3.6-3.27,3.6
			S408.58,388.07,408.58,385.79z M413.47,385.79c0-1.38-0.61-2.3-1.61-2.3c-1.01,0-1.61,0.92-1.61,2.3s0.6,2.29,1.61,2.29
			C412.86,388.08,413.47,387.17,413.47,385.79z"/>
		<path class="st14" d="M416.37,382.34h1.32l0.12,0.93h0.04c0.62-0.6,1.32-1.1,2.26-1.1c1.47,0,2.12,1,2.12,2.73v4.31h-1.61v-4.11
			c0-1.13-0.32-1.56-1.07-1.56c-0.61,0-1,0.3-1.57,0.86v4.81h-1.61V382.34z"/>
		<path class="st14" d="M423.41,385.79c0-2.24,1.55-3.61,3.17-3.61c1.86,0,2.84,1.34,2.84,3.27c0,0.31-0.03,0.62-0.07,0.78h-4.37
			c0.13,1.22,0.92,1.92,2.03,1.92c0.59,0,1.09-0.18,1.6-0.5l0.55,1c-0.66,0.44-1.48,0.75-2.36,0.75
			C424.9,389.39,423.41,388.06,423.41,385.79z M428.02,385.13c0-1.06-0.47-1.7-1.41-1.7c-0.8,0-1.51,0.6-1.65,1.7H428.02z"/>
	</g>
</g>
<g>
	<g>
		<path class="st14" d="M310.77,394.76v-2.89c0-2.03,0.71-3.54,2.82-3.54c2.04,0,2.97,1.51,2.97,3.49v1.32h3.37v1.63H310.77z
			 M315.26,391.95c0-1.37-0.54-2.02-1.67-2.02c-1.14,0-1.52,0.71-1.52,2.07v1.13h3.19V391.95z"/>
		<path class="st14" d="M313.05,387.1v-1.32l1.23-0.12v-0.04c-0.9-0.49-1.4-1.22-1.4-1.96c0-0.35,0.04-0.57,0.14-0.78l1.4,0.28
			c-0.07,0.24-0.11,0.42-0.11,0.71c0,0.55,0.38,1.21,1.42,1.62h4.2v1.61H313.05z"/>
		<path class="st14" d="M316.5,382.68c-2.29,0-3.61-1.56-3.61-3.27s1.32-3.27,3.61-3.27c2.28,0,3.6,1.56,3.6,3.27
			S318.78,382.68,316.5,382.68z M316.5,377.8c-1.38,0-2.3,0.61-2.3,1.61c0,1.01,0.92,1.61,2.3,1.61s2.29-0.6,2.29-1.61
			C318.78,378.4,317.87,377.8,316.5,377.8z"/>
		<path class="st14" d="M321.18,375.36c-0.58,0-1.09-0.36-1.47-0.99h-0.06c-0.23,0.35-0.59,0.62-1.15,0.62c-0.53,0-1-0.36-1.28-0.76
			h-0.06c-0.35,0.47-1,0.91-1.82,0.91c-1.58,0-2.47-1.28-2.47-2.72c0-0.38,0.07-0.74,0.17-1.02v-2.46h1.2v1.25
			c0.26-0.22,0.68-0.39,1.15-0.39c1.53,0,2.35,1.16,2.35,2.62c0,0.29-0.06,0.62-0.18,0.93c0.18,0.21,0.35,0.34,0.66,0.34
			c0.39,0,0.62-0.28,0.62-1.12v-1.22c0-1.64,0.51-2.52,1.7-2.52c1.36,0,2.43,1.42,2.43,3.67
			C322.97,374.14,322.38,375.36,321.18,375.36z M315.35,371.23c-0.86,0-1.36,0.52-1.36,1.19s0.49,1.19,1.36,1.19
			c0.87,0,1.38-0.53,1.38-1.19S316.23,371.23,315.35,371.23z M320.81,370.39c-0.53,0-0.69,0.43-0.69,1.21v0.94
			c0,0.37-0.03,0.67-0.1,0.93c0.28,0.37,0.59,0.53,0.91,0.53c0.63,0,0.99-0.67,0.99-1.75C321.93,371.14,321.4,370.39,320.81,370.39z
			"/>
		<path class="st14" d="M316.5,368.42c-2.24,0-3.61-1.55-3.61-3.17c0-1.86,1.34-2.84,3.27-2.84c0.31,0,0.62,0.03,0.78,0.07v4.37
			c1.22-0.13,1.92-0.92,1.92-2.03c0-0.59-0.18-1.09-0.5-1.6l1-0.55c0.44,0.66,0.75,1.48,0.75,2.36
			C320.1,366.93,318.77,368.42,316.5,368.42z M315.83,363.8c-1.06,0-1.7,0.47-1.7,1.41c0,0.8,0.6,1.51,1.7,1.65V363.8z"/>
		<path class="st14" d="M319.14,361.9l-1.03-0.75c0.48-0.61,0.77-1.2,0.77-1.9c0-0.75-0.35-1.1-0.82-1.1
			c-0.58,0-0.83,0.75-1.11,1.48c-0.34,0.9-0.86,1.93-2.01,1.93c-1.19,0-2.06-0.96-2.06-2.5c0-0.96,0.39-1.73,0.82-2.29l0.99,0.74
			c-0.35,0.48-0.6,0.97-0.6,1.51c0,0.69,0.33,1.02,0.76,1.02c0.54,0,0.75-0.69,1.03-1.44c0.35-0.93,0.8-1.97,2.08-1.97
			c1.18,0,2.13,0.94,2.13,2.67C320.1,360.23,319.7,361.23,319.14,361.9z"/>
		<path class="st14" d="M317.61,355.29h-3.28v0.98h-1.21l-0.07-1.06l-1.88-0.19v-1.34h1.88v-1.75h1.28v1.75h3.28
			c0.81,0,1.21-0.31,1.21-0.98c0-0.24-0.08-0.52-0.16-0.72l1.19-0.27c0.12,0.38,0.25,0.85,0.25,1.41
			C320.1,354.7,319.1,355.29,317.61,355.29z"/>
		<path class="st14" d="M316.5,351.28c-2.24,0-3.61-1.55-3.61-3.17c0-1.86,1.34-2.84,3.27-2.84c0.31,0,0.62,0.03,0.78,0.07v4.37
			c1.22-0.13,1.92-0.92,1.92-2.03c0-0.59-0.18-1.09-0.5-1.6l1-0.55c0.44,0.66,0.75,1.48,0.75,2.36
			C320.1,349.79,318.77,351.28,316.5,351.28z M315.83,346.66c-1.06,0-1.7,0.47-1.7,1.41c0,0.8,0.6,1.51,1.7,1.65V346.66z"/>
		<path class="st14" d="M313.05,344.08v-1.32l1.23-0.12v-0.04c-0.9-0.49-1.4-1.22-1.4-1.96c0-0.35,0.04-0.57,0.14-0.78l1.4,0.28
			c-0.07,0.24-0.11,0.42-0.11,0.71c0,0.55,0.38,1.21,1.42,1.63h4.2v1.61H313.05z"/>
		<path class="st14" d="M316.5,339.66c-2.29,0-3.61-1.56-3.61-3.27c0-1.71,1.32-3.27,3.61-3.27c2.28,0,3.6,1.56,3.6,3.27
			C320.1,338.1,318.78,339.66,316.5,339.66z M316.5,334.78c-1.38,0-2.3,0.61-2.3,1.61c0,1.01,0.92,1.61,2.3,1.61s2.29-0.6,2.29-1.61
			C318.78,335.38,317.87,334.78,316.5,334.78z"/>
		<path class="st14" d="M313.05,331.87v-1.32l0.93-0.12v-0.04c-0.6-0.62-1.1-1.32-1.1-2.26c0-1.47,1-2.12,2.73-2.12h4.31v1.61h-4.11
			c-1.13,0-1.56,0.32-1.56,1.07c0,0.61,0.3,1,0.86,1.57h4.81v1.61H313.05z"/>
		<path class="st14" d="M316.5,324.84c-2.24,0-3.61-1.55-3.61-3.17c0-1.86,1.34-2.84,3.27-2.84c0.31,0,0.62,0.03,0.78,0.07v4.37
			c1.22-0.13,1.92-0.92,1.92-2.03c0-0.59-0.18-1.09-0.5-1.6l1-0.55c0.44,0.66,0.75,1.48,0.75,2.36
			C320.1,323.35,318.77,324.84,316.5,324.84z M315.83,320.22c-1.06,0-1.7,0.47-1.7,1.41c0,0.8,0.6,1.51,1.7,1.65V320.22z"/>
	</g>
</g>
<g>
	
		<linearGradient id="SVGID_1_" gradientUnits="userSpaceOnUse" x1="-1390.2466" y1="-1477.2236" x2="-1390.2466" y2="-1498.3744" gradientTransform="matrix(1 0 0 1 1519.3979 1882.8497)">
		<stop  offset="0" style="stop-color:#FFFFFF"/>
		<stop  offset="0.7266" style="stop-color:#808184"/>
	</linearGradient>
	<line class="st15" x1="129.15" y1="405.63" x2="129.15" y2="384.48"/>
	<polygon class="st14" points="131.78,392.28 126.52,392.28 129.1,382.09 129.2,382.09 	"/>
</g>
<g>
	
		<linearGradient id="SVGID_2_" gradientUnits="userSpaceOnUse" x1="-790.1887" y1="-551.9985" x2="-790.1887" y2="-573.1492" gradientTransform="matrix(6.123234e-17 1 -1 6.123234e-17 -229.1046 1176.1915)">
		<stop  offset="0" style="stop-color:#FFFFFF"/>
		<stop  offset="0.7266" style="stop-color:#808184"/>
	</linearGradient>
	<line class="st16" x1="322.89" y1="386" x2="344.04" y2="386"/>
	<polygon class="st14" points="336.24,388.63 336.24,383.37 346.43,385.96 346.43,386.05 	"/>
</g>
<g>
	
		<linearGradient id="SVGID_3_" gradientUnits="userSpaceOnUse" x1="-1291.7876" y1="-1540.353" x2="-1291.7876" y2="-1654.4591" gradientTransform="matrix(1 0 0 1 1519.3979 1882.8497)">
		<stop  offset="0" style="stop-color:#FFFFFF"/>
		<stop  offset="0.7266" style="stop-color:#808184"/>
	</linearGradient>
	<polyline class="st17" points="129.15,342.5 129.15,313.49 326.07,313.49 326.07,228.39 	"/>
</g>
<g>
	
		<linearGradient id="SVGID_4_" gradientUnits="userSpaceOnUse" x1="-1271.3712" y1="-1496.0978" x2="-1271.3712" y2="-1497.5978" gradientTransform="matrix(1 0 0 1 1519.3979 1882.8497)">
		<stop  offset="0" style="stop-color:#FFFFFF"/>
		<stop  offset="0.7266" style="stop-color:#808184"/>
	</linearGradient>
	<line class="st18" x1="191.36" y1="386" x2="304.7" y2="386"/>
</g>
<g>
	
		<linearGradient id="SVGID_5_" gradientUnits="userSpaceOnUse" x1="-1183.4065" y1="-1518.9954" x2="-1183.4065" y2="-1520.4954" gradientTransform="matrix(1 0 0 1 1519.3979 1882.8497)">
		<stop  offset="0" style="stop-color:#FFFFFF"/>
		<stop  offset="0.7266" style="stop-color:#808184"/>
	</linearGradient>
	<line class="st19" x1="325.31" y1="363.1" x2="346.68" y2="363.1"/>
</g>
<g>
	
		<linearGradient id="SVGID_6_" gradientUnits="userSpaceOnUse" x1="-1239.1229" y1="-1733.3333" x2="-1239.1229" y2="-1754.4839" gradientTransform="matrix(1 0 0 1 1519.3979 1882.8497)">
		<stop  offset="0" style="stop-color:#FFFFFF"/>
		<stop  offset="0.7266" style="stop-color:#808184"/>
	</linearGradient>
	<line class="st20" x1="280.28" y1="149.52" x2="280.28" y2="128.37"/>
	<polygon class="st14" points="282.91,136.17 277.64,136.17 280.23,125.98 280.32,125.98 	"/>
</g>
<g>
	
		<linearGradient id="SVGID_7_" gradientUnits="userSpaceOnUse" x1="-1225.3844" y1="-1733.3333" x2="-1225.3844" y2="-1754.4839" gradientTransform="matrix(1 0 0 1 1519.3979 1882.8497)">
		<stop  offset="0" style="stop-color:#FFFFFF"/>
		<stop  offset="0.7266" style="stop-color:#808184"/>
	</linearGradient>
	<line class="st21" x1="294.01" y1="149.52" x2="294.01" y2="128.37"/>
	<polygon class="st14" points="296.64,136.17 291.38,136.17 293.97,125.98 294.06,125.98 	"/>
</g>
<g>
	<polygon class="st14" points="328.7,231.58 323.44,231.58 326.02,221.38 326.11,221.38 	"/>
</g>
</svg>
