<svg xmlns="http://www.w3.org/2000/svg" xmlns:xlink="http://www.w3.org/1999/xlink" width="18.048" height="16.5" viewBox="0 0 18.048 16.5">
  <defs>
    <clipPath id="clip-path">
      <rect width="18.048" height="16.5" fill="none"/>
    </clipPath>
  </defs>
  <g id="Repeat_Grid_5" data-name="Repeat Grid 5" clip-path="url(#clip-path)">
    <g transform="translate(-523.75 -516.75)">
      <path id="icon_vezba" d="M67.1,59.548h2.581V58.516a.516.516,0,0,1,1.032,0v1.032H72A1.548,1.548,0,0,1,73.548,61.1V72.452A1.548,1.548,0,0,1,72,74H57.548A1.548,1.548,0,0,1,56,72.452V61.1a1.548,1.548,0,0,1,1.548-1.548h1.29V58.516a.516.516,0,0,1,1.032,0v1.032h2.581V58.516a.516.516,0,0,1,1.032,0v1.032h2.581V58.516a.516.516,0,0,1,1.032,0Zm0,1.032v1.032a.516.516,0,1,1-1.032,0V60.581H63.484v1.032a.516.516,0,1,1-1.032,0V60.581H59.871v1.032a.516.516,0,1,1-1.032,0V60.581h-1.29a.516.516,0,0,0-.516.516V72.452a.516.516,0,0,0,.516.516H72a.516.516,0,0,0,.516-.516V61.1A.516.516,0,0,0,72,60.581H70.71v1.032a.516.516,0,1,1-1.032,0V60.581Zm-7,3.323h9.355a1.032,1.032,0,0,1,1.032,1.032V67a1.032,1.032,0,0,1-1.032,1.032H60.1A1.032,1.032,0,0,1,59.065,67V64.935A1.032,1.032,0,0,1,60.1,63.9Zm0,1.032V67h9.355V64.935Z" transform="translate(468 459)" fill="#1d88e5" stroke="#1d88e6" stroke-width="0.5"/>
    </g>
  </g>
</svg>
