<svg xmlns="http://www.w3.org/2000/svg" width="27.266" height="13.31" viewBox="0 0 27.266 13.31">
  <path id="icon_oboljenja" d="M11.535,17.078h8.888q1.787,0,1.787-1.179a3.126,3.126,0,0,0-.435-1.509,5.427,5.427,0,0,0-1.246-1.483,6.547,6.547,0,0,0-1.959-1.13,7.264,7.264,0,0,0-2.59-.435,7.241,7.241,0,0,0-2.582.435,6.6,6.6,0,0,0-1.963,1.13,5.34,5.34,0,0,0-1.246,1.483A3.146,3.146,0,0,0,9.755,15.9Q9.755,17.078,11.535,17.078Zm-.27-1.164a.334.334,0,0,1-.191-.041.17.17,0,0,1-.056-.146,1.966,1.966,0,0,1,.327-.965A4.025,4.025,0,0,1,12.3,13.7a5.506,5.506,0,0,1,1.561-.852,6.087,6.087,0,0,1,2.113-.342,6.111,6.111,0,0,1,2.121.342,5.449,5.449,0,0,1,1.558.852,4.05,4.05,0,0,1,.957,1.062,1.966,1.966,0,0,1,.327.965.17.17,0,0,1-.056.146.317.317,0,0,1-.184.041ZM15.986,10.4a2.812,2.812,0,0,0,1.55-.45,3.315,3.315,0,0,0,1.122-1.212,3.445,3.445,0,0,0,.42-1.693,3.319,3.319,0,0,0-.417-1.652,3.215,3.215,0,0,0-1.115-1.179,2.891,2.891,0,0,0-1.561-.435,2.847,2.847,0,0,0-1.55.443,3.33,3.33,0,0,0-1.543,2.838,3.516,3.516,0,0,0,.424,1.685A3.254,3.254,0,0,0,14.436,9.95,2.829,2.829,0,0,0,15.986,10.4Zm0-1.156a1.612,1.612,0,0,1-.927-.289,2.081,2.081,0,0,1-.679-.784,2.39,2.39,0,0,1-.255-1.111,2.191,2.191,0,0,1,.248-1.074,2.048,2.048,0,0,1,.679-.762,1.708,1.708,0,0,1,1.873,0,2.006,2.006,0,0,1,.672.754,2.257,2.257,0,0,1,.251,1.07,2.413,2.413,0,0,1-.255,1.115,2.118,2.118,0,0,1-.676.792A1.593,1.593,0,0,1,15.986,9.241ZM3.84,17.085H9.388a1.124,1.124,0,0,1-.443-.477,1.194,1.194,0,0,1-.135-.664H3.727a.224.224,0,0,1-.15-.045.178.178,0,0,1-.053-.143,2.434,2.434,0,0,1,.338-1.227,3.629,3.629,0,0,1,.927-1.051,4.85,4.85,0,0,1,2.977-1.01,4.947,4.947,0,0,1,.822.068,4.609,4.609,0,0,1,.773.2,4.209,4.209,0,0,1,.687.312,3.727,3.727,0,0,1,.394-.447,3.454,3.454,0,0,1,.484-.387,5.575,5.575,0,0,0-.972-.48,6.105,6.105,0,0,0-1.066-.3,6.2,6.2,0,0,0-1.122-.1A5.942,5.942,0,0,0,5.66,11.7a5.686,5.686,0,0,0-1.723,1.006,4.859,4.859,0,0,0-1.164,1.445,3.616,3.616,0,0,0-.42,1.693,1.141,1.141,0,0,0,.372.927A1.7,1.7,0,0,0,3.84,17.085Zm3.934-6.524a2.439,2.439,0,0,0,1.351-.4,2.855,2.855,0,0,0,.976-1.07,3.087,3.087,0,0,0,.36-1.483A2.91,2.91,0,0,0,10.1,6.17a2.857,2.857,0,0,0-.972-1.04,2.544,2.544,0,0,0-2.7,0A2.88,2.88,0,0,0,5.45,6.181a2.931,2.931,0,0,0-.364,1.445,3.015,3.015,0,0,0,.368,1.479,2.929,2.929,0,0,0,.972,1.062A2.414,2.414,0,0,0,7.774,10.562Zm0-1.141A1.314,1.314,0,0,1,7,9.177a1.77,1.77,0,0,1-.559-.649,1.927,1.927,0,0,1-.21-.9,1.856,1.856,0,0,1,.206-.875A1.685,1.685,0,0,1,7,6.121a1.36,1.36,0,0,1,.773-.236,1.394,1.394,0,0,1,.777.233,1.651,1.651,0,0,1,.563.623,1.834,1.834,0,0,1,.206.871,1.966,1.966,0,0,1-.21.912,1.749,1.749,0,0,1-.563.653A1.331,1.331,0,0,1,7.774,9.421Zm20.344,7.665a1.732,1.732,0,0,0,1.126-.312,1.136,1.136,0,0,0,.375-.927,3.59,3.59,0,0,0-.424-1.693,4.912,4.912,0,0,0-1.167-1.445A5.675,5.675,0,0,0,26.3,11.7a5.951,5.951,0,0,0-2.1-.368,6.22,6.22,0,0,0-1.119.1,6.085,6.085,0,0,0-1.07.3,5.337,5.337,0,0,0-.965.48,3.454,3.454,0,0,1,.484.387,2.913,2.913,0,0,1,.379.447,4.814,4.814,0,0,1,.7-.312,4.629,4.629,0,0,1,.769-.2,4.88,4.88,0,0,1,.818-.068,4.85,4.85,0,0,1,2.977,1.01,3.629,3.629,0,0,1,.927,1.051,2.434,2.434,0,0,1,.338,1.227.186.186,0,0,1-.049.143.222.222,0,0,1-.154.045H23.156a1.13,1.13,0,0,1-.131.664,1.147,1.147,0,0,1-.447.477Zm-3.926-6.524a2.432,2.432,0,0,0,1.351-.394,2.886,2.886,0,0,0,.972-1.062,3.1,3.1,0,0,0,.372-1.479,2.931,2.931,0,0,0-.364-1.445,2.857,2.857,0,0,0-.98-1.047,2.538,2.538,0,0,0-2.7,0,2.846,2.846,0,0,0-.976,1.04A2.91,2.91,0,0,0,21.5,7.611a3.061,3.061,0,0,0,.364,1.483,2.909,2.909,0,0,0,.972,1.07A2.415,2.415,0,0,0,24.192,10.562Zm0-1.141a1.319,1.319,0,0,1-.766-.244,1.78,1.78,0,0,1-.567-.653,1.938,1.938,0,0,1-.214-.912,1.807,1.807,0,0,1,.21-.871,1.706,1.706,0,0,1,.559-.623,1.37,1.37,0,0,1,.777-.233,1.343,1.343,0,0,1,.769.236,1.762,1.762,0,0,1,.563.631,1.8,1.8,0,0,1,.214.875,1.9,1.9,0,0,1-.214.9,1.8,1.8,0,0,1-.563.649A1.314,1.314,0,0,1,24.192,9.421Z" transform="translate(-2.354 -3.775)" fill="#2680eb"/>
</svg>
