<?xml version="1.0" encoding="UTF-8"?>
<svg width="25px" height="38px" viewBox="0 0 25 38" version="1.1" xmlns="http://www.w3.org/2000/svg" xmlns:xlink="http://www.w3.org/1999/xlink">
    <!-- Generator: sketchtool 52.2 (67145) - http://www.bohemiancoding.com/sketch -->
    <title>C4D18060-A047-4A8D-86E9-69BCC1806768</title>
    <desc>Created with sketchtool.</desc>
    <g id="Main_nav" stroke="none" stroke-width="1" fill="none" fill-rule="evenodd">
        <g id="Grupe-Analiza" transform="translate(-194.000000, -2007.000000)" fill="#7E5E0D">
            <g id="feces" transform="translate(194.000000, 2007.000000)">
                <path d="M3.47655385,6.2397387 C3.47655385,6.80040142 3.33683077,7.07257183 3.10546154,7.33883456 C2.87258846,7.60510485 2.5,7.84920615 2.05526923,8.14061444 C1.61053846,8.43202272 1.09373077,8.77819077 0.680576923,9.33143101 C0.268923077,9.88467124 0,10.63616 0,11.5858594 L0,33.5401316 C0,35.5386354 1.46484615,37.2575845 3.38042308,37.2575845 L20.9223462,37.2575845 C22.8394231,37.2575845 24.3012692,35.5386354 24.3012692,33.5401316 L24.3012692,11.5858594 C24.3012692,10.6391138 24.0233231,9.88910201 23.5996538,9.34324639 C23.1744615,8.79886769 22.6471154,8.4645529 22.1934231,8.17905231 C21.7396923,7.89354793 21.3595769,7.65391148 21.1221923,7.38613396 C20.8848115,7.11838296 20.7405808,6.84175527 20.7405808,6.26780024 L19.3178115,6.26780024 C19.3178115,7.12725586 19.6197962,7.8225458 20.0494654,8.30625704 C20.4806577,8.79144521 20.9899654,9.08436828 21.4271577,9.35801562 C21.86435,9.63168568 22.2279269,9.88167953 22.4713115,10.1952795 C22.7147,10.5074102 22.8799654,10.8875778 22.8799654,11.5843446 L22.8799654,33.5386168 C22.8799654,34.8832985 21.9635038,35.8551896 20.92235,35.8551896 L3.38042692,35.8551896 C2.34077308,35.8551896 1.42127308,34.8818215 1.42127308,33.5386168 L1.42127308,11.5843446 C1.42127308,10.8757624 1.58653846,10.4807801 1.82692692,10.1597955 C2.06580769,9.83878817 2.41888846,9.58288663 2.84404231,9.30329373 C3.26773462,9.02518533 3.76500385,8.73081562 4.18419615,8.25005822 C4.60335,7.76930083 4.89935,7.08438722 4.89935,6.23970083 L3.47655385,6.2397387 Z" id="Fill-1"></path>
                <path d="M5.31232308,0 L18.9900154,0 C21.0934,0 22.7865923,0.454134911 22.7865923,1.01775148 L22.7865923,6.13623669 C22.7865923,6.69985325 21.0934,7.15398817 18.9900154,7.15398817 L5.31232308,7.15398817 C3.20893846,7.15398817 1.51574615,6.69985325 1.51574615,6.13623669 L1.51574615,1.01775148 C1.51574615,0.454134911 3.20893846,0 5.31232308,0 Z" id="Fill-2"></path>
                <path d="M18.3892462,31.9794783 C18.3892462,35.3714795 15.5962846,35.3995793 12.1496308,35.3995793 C8.70463077,35.3995793 5.91001538,35.3714727 5.91001538,31.9794783 C5.91001538,31.1318381 6.30063077,30.1673316 6.88509231,29.1969174 C7.46951538,28.2279801 8.24928462,27.2531351 9.02901538,26.3847801 C9.80874615,25.5164251 10.7177077,24.4010452 11.2390538,23.7960369 C12.7609769,22.1569931 13.5918231,22.8670523 13.5918231,22.8670523 C13.5918231,22.8670523 12.2486692,23.1111347 13.1230538,24.2087801 C13.6203615,24.8330263 14.4872462,25.516463 15.2669769,26.384818 C16.0467077,27.253173 16.8264769,28.228018 17.4109,29.1969553 C17.9953231,30.1658925 18.3859769,31.1303991 18.3859769,31.9795162 L18.3892462,31.9794783 Z" id="Fill-3"></path>
            </g>
        </g>
        <g id="Page"></g>
    </g>
</svg>