<svg xmlns="http://www.w3.org/2000/svg" width="273.922" height="267.607" viewBox="0 0 273.922 267.607">
  <g id="flask" transform="translate(6.896 1)" style="isolation: isolate">
    <g id="Layer_2" data-name="Layer 2" transform="translate(-6.896 3)">
      <g id="Layer_1" data-name="Layer 1">
        <path id="Path_1885" data-name="Path 1885" d="M262.993,61.152a69.1,69.1,0,0,0-77.6-48.629,73.143,73.143,0,0,0-8.25,1.9,67.969,67.969,0,0,0-10.89,4.231c-1.249.613-2.475,1.249-3.677,1.945a64.376,64.376,0,0,0-6.058,3.866,69.347,69.347,0,0,0-24.291,31.375c-.318.825-.625,1.662-.908,2.5a69.423,69.423,0,0,0-2.357,8.745c-.13.66-.259,1.32-.377,1.992a67.984,67.984,0,0,0-.978,11.786v2.263c-.153-.248-.306-.5-.471-.743-.295-.471-.613-.931-.931-1.391a68.772,68.772,0,0,0-10.195-11.857,68.055,68.055,0,0,0-7.567-6.188,67.286,67.286,0,0,0-13.047-7.072c-1.037-.436-2.074-.837-3.135-1.179A68.985,68.985,0,0,0,80.474,51.64h0a67.9,67.9,0,0,0-18.6-.672,71.057,71.057,0,0,0-12.3,2.451,69.09,69.09,0,0,0,8.191,134.456h.059a64.163,64.163,0,0,0,6.742.8q0,.424,0,.849a69.1,69.1,0,0,0,138.1,2.876c0-1.509,0-3.017,0-4.538a68.273,68.273,0,0,0-1.532-12.151c-.354-1.65-.778-3.288-1.261-4.938a68.914,68.914,0,0,0-4.879-12.175c0-.071-.071-.141-.094-.2a68.205,68.205,0,0,0-5.61-9c1.179.13,2.357.224,3.536.295a70.218,70.218,0,0,0,9.04-.106c1.721-.106,3.418-.318,5.15-.578l.46-.071a70.525,70.525,0,0,0,8.769-1.968,69.666,69.666,0,0,0,10.607-4.078,68.878,68.878,0,0,0,16.948-11.6,67.012,67.012,0,0,0,5.292-5.539,69.055,69.055,0,0,0,13.9-64.588ZM139.239,121.426l-1.014-.083V117.36c.754,1.179,1.544,2.428,2.357,3.536.141.236.306.448.471.672l-1.85-.141Z" transform="translate(8.118 -1.467)" fill="#e8f5ff" style="mix-blend-mode: multiply;isolation: isolate"/>
        <path id="Path_1886" data-name="Path 1886" d="M100.357,228.35H73.414c-29.135,0-47.345-31.551-32.777-56.785l13.306-23.042L86.662,91.855A37.892,37.892,0,0,0,91.73,72.927V11.462A8.451,8.451,0,0,1,100.18,3h40.9a8.462,8.462,0,0,1,8.462,8.462V72.927a37.89,37.89,0,0,0,5.067,18.926l42.632,73.8,3.394,5.893c14.568,25.234-3.642,56.785-32.777,56.785H140.3" transform="translate(14.47 -3)" fill="#c9e8ff" stroke="#0389ec" stroke-linecap="round" stroke-miterlimit="10" stroke-width="8"/>
        <path id="Path_1887" data-name="Path 1887" d="M51.15,126.47h71.989a29.311,29.311,0,0,1,20.719,8.579h0a29.312,29.312,0,0,0,20.732,8.545h31.445" transform="translate(17.264 19.053)" fill="none" stroke="#0389ec" stroke-miterlimit="10" stroke-width="6"/>
        <circle id="Ellipse_33" data-name="Ellipse 33" cx="12.517" cy="12.517" r="12.517" transform="translate(141.747 108.043)" fill="#00e7ca"/>
        <circle id="Ellipse_34" data-name="Ellipse 34" cx="8.792" cy="8.792" r="8.792" transform="translate(129.1 78.012)" fill="#ff9600"/>
        <circle id="Ellipse_35" data-name="Ellipse 35" cx="4.16" cy="4.16" r="4.16" transform="translate(130.939 221.189)" fill="#0389ec"/>
        <line id="Line_5" data-name="Line 5" y2="43.385" transform="translate(101.485 145.523)" fill="none" stroke="#0389ec" stroke-miterlimit="10" stroke-width="6"/>
        <line id="Line_6" data-name="Line 6" y2="8.25" transform="translate(101.485 195.389)" fill="none" stroke="#0389ec" stroke-miterlimit="10" stroke-width="6"/>
        <line id="Line_7" data-name="Line 7" y2="24.326" transform="translate(84.195 145.523)" fill="none" stroke="#0389ec" stroke-miterlimit="10" stroke-width="6"/>
        <path id="Path_1888" data-name="Path 1888" d="M33.936,66.883H32.892a6.309,6.309,0,0,1-6.309-6.309V59.529a6.309,6.309,0,0,0-6.309-6.309h0a6.309,6.309,0,0,0-6.248,6.309v1.045a6.309,6.309,0,0,1-6.35,6.309H6.609A6.309,6.309,0,0,0,.3,73.254h0A6.309,6.309,0,0,0,6.609,79.4H7.675a6.309,6.309,0,0,1,6.35,6.391v1.045a6.309,6.309,0,0,0,6.309,6.309h0a6.309,6.309,0,0,0,6.309-6.309V85.791A6.309,6.309,0,0,1,32.892,79.4h1.045a6.309,6.309,0,0,0,6.309-6.145h0a6.309,6.309,0,0,0-6.309-6.371Z" transform="translate(-0.3 -2.507)" fill="#0389ec"/>
        <path id="Path_1889" data-name="Path 1889" d="M204.933,114.021h-.6a3.63,3.63,0,0,1-3.63-3.63v-.6a3.63,3.63,0,0,0-3.63-3.63h0a3.63,3.63,0,0,0-3.63,3.63v.6a3.63,3.63,0,0,1-3.63,3.63h-.6a3.63,3.63,0,0,0-3.63,3.63h0a3.63,3.63,0,0,0,3.63,3.63h.6a3.63,3.63,0,0,1,3.63,3.63v.6a3.63,3.63,0,0,0,3.63,3.63h0a3.63,3.63,0,0,0,3.63-3.63v-.6a3.63,3.63,0,0,1,3.63-3.63h.6a3.63,3.63,0,0,0,3.63-3.63h0a3.63,3.63,0,0,0-3.63-3.63Z" transform="translate(41.274 15.425)" fill="#0389ec"/>
        <path id="Path_1890" data-name="Path 1890" d="M202.058,19.186h-.424a2.546,2.546,0,0,1-2.546-2.546v-.424a2.546,2.546,0,0,0-2.546-2.546h0A2.546,2.546,0,0,0,194,16.216v.424a2.546,2.546,0,0,1-2.546,2.546h-.424a2.546,2.546,0,0,0-2.546,2.546h0a2.546,2.546,0,0,0,2.546,2.546h.424A2.546,2.546,0,0,1,194,26.823v.424a2.546,2.546,0,0,0,2.546,2.546h0a2.546,2.546,0,0,0,2.546-2.546v-.424a2.546,2.546,0,0,1,2.546-2.546h.424a2.546,2.546,0,0,0,2.546-2.546h0a2.546,2.546,0,0,0-2.546-2.546Z" transform="translate(41.792 -1.094)" fill="#0389ec"/>
        <path id="Path_1891" data-name="Path 1891" d="M204.933,114.021h-.6a3.63,3.63,0,0,1-3.63-3.63v-.6a3.63,3.63,0,0,0-3.63-3.63h0a3.63,3.63,0,0,0-3.63,3.63v.6a3.63,3.63,0,0,1-3.63,3.63h-.6a3.63,3.63,0,0,0-3.63,3.63h0a3.63,3.63,0,0,0,3.63,3.63h.6a3.63,3.63,0,0,1,3.63,3.63v.6a3.63,3.63,0,0,0,3.63,3.63h0a3.63,3.63,0,0,0,3.63-3.63v-.6a3.63,3.63,0,0,1,3.63-3.63h.6a3.63,3.63,0,0,0,3.63-3.63h0a3.63,3.63,0,0,0-3.63-3.63Z" transform="translate(-79.463 134.464)" fill="#0389ec"/>
      </g>
    </g>
  </g>
</svg>
