<svg xmlns="http://www.w3.org/2000/svg" width="322.317" height="314.809" viewBox="0 0 322.317 314.809">
  <g id="folder" transform="translate(0 0.002)">
    <g id="Layer_1" data-name="Layer 1" transform="translate(0 -0.002)">
      <path id="Path_1906" data-name="Path 1906" d="M216.485,94.919a78.769,78.769,0,0,0-23.764,12.85A94.514,94.514,0,1,0,71.77,184.992a78.922,78.922,0,1,0,138.98,57.371,78.908,78.908,0,1,0,5.736-147.431Z" transform="translate(1.806 0.002)" fill="#e8f5ff" style="mix-blend-mode: multiply;isolation: isolate"/>
      <path id="Path_1907" data-name="Path 1907" d="M53.86,73.974V54.887C53.86,45.573,62.408,38,72.9,38h138.6c10.511,0,19.031,7.546,19.031,16.859V214.4c0,9.314-8.52,16.859-19.031,16.859H72.9c-10.511,0-19.045-7.546-19.045-16.859V195.315" transform="translate(21.122 14.905)" fill="#b5dfff"/>
      <path id="Path_1908" data-name="Path 1908" d="M31.16,69.662V48.111A19.045,19.045,0,0,1,50.2,29.08h138.6A19.031,19.031,0,0,1,207.84,48.111V228.188a19.031,19.031,0,0,1-19.031,19.031H50.2A19.045,19.045,0,0,1,31.16,228.188V206.637" transform="translate(12.22 11.407)" fill="#c9e8ff" stroke="#0389ec" stroke-miterlimit="10" stroke-width="6"/>
      <path id="Path_1909" data-name="Path 1909" d="M190.322,109v77.572c0,9.314-8.52,16.859-19.031,16.859H157.23" transform="translate(61.66 42.749)" fill="none" stroke="#0389ec" stroke-linecap="round" stroke-miterlimit="10" stroke-width="6"/>
      <path id="Path_1910" data-name="Path 1910" d="M157.23,38h14.033c10.511,0,19.059,7.559,19.059,16.873V94.132" transform="translate(61.66 14.905)" fill="none" stroke="#0389ec" stroke-linecap="round" stroke-miterlimit="10" stroke-width="6"/>
      <line id="Line_11" data-name="Line 11" y1="92.426" transform="translate(43.38 103.343)" fill="none" stroke="#0389ec" stroke-miterlimit="10" stroke-width="6"/>
      <rect id="Rectangle_402" data-name="Rectangle 402" width="63.775" height="22.275" rx="8" transform="translate(11.499 81.069)" fill="#c9e8ff" stroke="#0389ec" stroke-miterlimit="10" stroke-width="6"/>
      <rect id="Rectangle_403" data-name="Rectangle 403" width="63.775" height="22.275" rx="8" transform="translate(11.499 195.755)" fill="#c9e8ff" stroke="#0389ec" stroke-miterlimit="10" stroke-width="6"/>
      <path id="Path_1911" data-name="Path 1911" d="M19.379,14.816h-.6a3.634,3.634,0,0,1-3.647-3.62v-.613A3.634,3.634,0,0,0,11.5,6.95h0a3.634,3.634,0,0,0-3.634,3.634V11.2a3.634,3.634,0,0,1-3.689,3.62H3.634A3.634,3.634,0,0,0,0,18.449H0a3.634,3.634,0,0,0,3.634,3.634h.543A3.634,3.634,0,0,1,7.81,25.716v.6a3.634,3.634,0,0,0,3.634,3.634h0a3.634,3.634,0,0,0,3.634-3.634v-.6a3.634,3.634,0,0,1,3.634-3.634h.6a3.634,3.634,0,0,0,3.634-3.634h0a3.634,3.634,0,0,0-3.565-3.634Z" transform="translate(0 2.728)" fill="#0088ec"/>
      <path id="Path_1912" data-name="Path 1912" d="M197.279,17.216h-.6a3.634,3.634,0,0,1-3.634-3.634v-.6a3.634,3.634,0,0,0-3.634-3.634h0a3.634,3.634,0,0,0-3.634,3.634v.6a3.634,3.634,0,0,1-3.647,3.634h-.6a3.634,3.634,0,0,0-3.634,3.634h0a3.634,3.634,0,0,0,3.634,3.634h.6a3.634,3.634,0,0,1,3.634,3.634v.6a3.634,3.634,0,0,0,3.634,3.634h0a3.634,3.634,0,0,0,3.634-3.634v-.6a3.634,3.634,0,0,1,3.634-3.634h.6a3.634,3.634,0,0,0,3.634-3.634h0A3.634,3.634,0,0,0,197.279,17.216Z" transform="translate(69.767 3.67)" fill="#0088ec"/>
      <path id="Path_1913" data-name="Path 1913" d="M135.835,203.656h-.6a3.633,3.633,0,0,1-3.634-3.634v-.6a3.634,3.634,0,0,0-3.634-3.634h0a3.634,3.634,0,0,0-3.634,3.634v.6a3.634,3.634,0,0,1-3.634,3.634h-.6a3.634,3.634,0,0,0-3.634,3.634h0a3.634,3.634,0,0,0,3.634,3.634h.6a3.634,3.634,0,0,1,3.634,3.634v.6a3.634,3.634,0,0,0,3.634,3.634h0a3.634,3.634,0,0,0,3.634-3.634v-.6a3.634,3.634,0,0,1,3.634-3.634h.6a3.634,3.634,0,0,0,3.634-3.634h0a3.634,3.634,0,0,0-3.634-3.634Z" transform="translate(45.676 76.785)" fill="#0088ec"/>
      <circle id="Ellipse_40" data-name="Ellipse 40" cx="4.441" cy="4.441" r="4.441" transform="translate(247.24 134.537) rotate(-86.1)" fill="#0088ec"/>
      <circle id="Ellipse_41" data-name="Ellipse 41" cx="41.946" cy="41.946" r="41.946" transform="translate(89.753 78.284)" fill="#007fe2" stroke="#8cf" stroke-miterlimit="10" stroke-width="6"/>
      <circle id="Ellipse_42" data-name="Ellipse 42" cx="4.733" cy="4.733" r="4.733" transform="translate(119.866 101.882)" fill="#ff9600"/>
      <circle id="Ellipse_43" data-name="Ellipse 43" cx="10.942" cy="10.942" r="10.942" transform="translate(133.676 115.497)" fill="#00e7ca"/>
      <circle id="Ellipse_44" data-name="Ellipse 44" cx="5.875" cy="5.875" r="5.875" transform="translate(110.413 125.632)" fill="#fff"/>
      <line id="Line_12" data-name="Line 12" x2="79.938" transform="translate(93.707 188.279)" fill="none" stroke="#0389ec" stroke-linecap="round" stroke-miterlimit="10" stroke-width="6"/>
      <line id="Line_13" data-name="Line 13" x2="26.159" transform="translate(93.707 207.074)" fill="none" stroke="#0389ec" stroke-linecap="round" stroke-miterlimit="10" stroke-width="6"/>
      <line id="Line_14" data-name="Line 14" x2="45.83" transform="translate(141.737 207.074)" fill="none" stroke="#0389ec" stroke-linecap="round" stroke-miterlimit="10" stroke-width="6"/>
      <line id="Line_15" data-name="Line 15" x2="114.84" transform="translate(43.38 64.154)" fill="none" stroke="#0389ec" stroke-linecap="round" stroke-miterlimit="10" stroke-width="6"/>
      <line id="Line_16" data-name="Line 16" x2="8.353" transform="translate(177.237 64.154)" fill="none" stroke="#0389ec" stroke-linecap="round" stroke-miterlimit="10" stroke-width="6"/>
    </g>
  </g>
</svg>
