<svg xmlns="http://www.w3.org/2000/svg" width="19.01" height="20.156" viewBox="0 0 19.01 20.156">
  <path id="icon_ishrana" d="M13.822,17.93l-2.237,3.4A2.012,2.012,0,0,1,10.3,22.2a1.941,1.941,0,0,1-.378.038,1.859,1.859,0,0,1-1.051-.322,1.917,1.917,0,0,1-.446-2.756l3.08-3.995a.637.637,0,1,1,1.005.782L9.43,19.938a.656.656,0,0,0,.156.942.631.631,0,0,0,.473.09.744.744,0,0,0,.473-.317l2.237-3.417a.631.631,0,1,1,1.051.692ZM22.613,2.582a3.217,3.217,0,0,0-3.2-.139A7.371,7.371,0,0,0,16.4,4.975a6.66,6.66,0,0,0-1.367,4.731,1.739,1.739,0,0,1-.074.841.631.631,0,1,0,1.194.406A3,3,0,0,0,16.276,9.5a5.459,5.459,0,0,1,1.15-3.785,6.1,6.1,0,0,1,2.483-2.1,2.122,2.122,0,0,1,1.978,0,2.108,2.108,0,0,1,.65,1.869,6.1,6.1,0,0,1-1.184,3.034,5.429,5.429,0,0,1-3.208,2.323,3.009,3.009,0,0,0-1.327.57,3.272,3.272,0,0,0-.3.259.631.631,0,0,0,.881.9,1.956,1.956,0,0,1,.183-.158,1.739,1.739,0,0,1,.759-.334,6.676,6.676,0,0,0,4.031-2.836,7.374,7.374,0,0,0,1.415-3.684,3.221,3.221,0,0,0-1.175-2.979Zm-9.087,7.735a2.819,2.819,0,0,0-.3-2.733L9.472,2.349a.631.631,0,1,0-1.026.734l3.747,5.239a1.554,1.554,0,0,1,.16,1.524,1.161,1.161,0,0,0,.132,1.182L19.423,20a.6.6,0,1,1-.973.7l-6.287-9.44a1.161,1.161,0,0,0-1.079-.5,1.552,1.552,0,0,1-1.4-.631L5.934,4.886a.631.631,0,1,0-1.026.734L8.661,10.86a2.822,2.822,0,0,0,2.494,1.163L17.4,21.41a1.844,1.844,0,0,0,1.215.8,1.893,1.893,0,0,0,.341.032,1.861,1.861,0,0,0,1.472-3Zm-2.9-.841a.631.631,0,0,0,.511-1L7.721,3.583a.631.631,0,0,0-1.034.723L10.113,9.2a.631.631,0,0,0,.517.269Z" transform="translate(-4.79 -2.085)" fill="#2680eb"/>
</svg>
