<svg xmlns="http://www.w3.org/2000/svg" width="22.538" height="19.302" viewBox="0 0 22.538 19.302">
  <path id="icon_ishrana" d="M23.32,17.047a4.427,4.427,0,0,0,1.2-1.934,3.753,3.753,0,0,0,0-2.085A4.388,4.388,0,0,0,23.33,11.1L16.445,4.215a4.511,4.511,0,0,0-1.929-1.191,3.632,3.632,0,0,0-2.075,0,4.545,4.545,0,0,0-1.934,1.2,4.474,4.474,0,0,0-1.2,1.929,3.694,3.694,0,0,0,0,2.085,4.463,4.463,0,0,0,1.187,1.934l6.885,6.885A4.424,4.424,0,0,0,19.3,18.238a3.718,3.718,0,0,0,2.075,0A4.607,4.607,0,0,0,23.32,17.047Zm-1.2-1.211a2.537,2.537,0,0,1-1.172.7,2.356,2.356,0,0,1-1.274-.029,2.914,2.914,0,0,1-1.206-.747l-6.68-6.689a2.62,2.62,0,0,1-.85-1.831,2.446,2.446,0,0,1,.762-1.8,2.577,2.577,0,0,1,1.172-.7,2.313,2.313,0,0,1,1.279.029,2.885,2.885,0,0,1,1.2.752l6.68,6.689a2.606,2.606,0,0,1,.859,1.831A2.432,2.432,0,0,1,22.119,15.836Zm-2.3-6.9L18.6,7.721,13.994,12.33l1.211,1.211ZM7.275,22.174a5.008,5.008,0,0,0,2-.4,5.2,5.2,0,0,0,1.641-1.108,5.116,5.116,0,0,0,1.5-3.647,5,5,0,0,0-.4-1.982A5.16,5.16,0,0,0,9.272,12.3a5.062,5.062,0,0,0-2-.4,5.051,5.051,0,0,0-2,.4,5.145,5.145,0,0,0-1.636,1.1,5.213,5.213,0,0,0-1.108,1.636,4.949,4.949,0,0,0-.4,1.982,5.043,5.043,0,0,0,.4,2,5.208,5.208,0,0,0,2.744,2.754A5,5,0,0,0,7.275,22.174Zm0-1.68a3.357,3.357,0,0,1-1.753-.469,3.525,3.525,0,0,1-1.25-1.255,3.385,3.385,0,0,1-.464-1.753,3.322,3.322,0,0,1,.464-1.729,3.525,3.525,0,0,1,1.255-1.25,3.365,3.365,0,0,1,1.748-.469,3.321,3.321,0,0,1,1.733.469,3.578,3.578,0,0,1,1.255,1.25,3.3,3.3,0,0,1,.469,1.729,3.359,3.359,0,0,1-.464,1.748,3.577,3.577,0,0,1-1.25,1.255A3.313,3.313,0,0,1,7.275,20.494Zm4.248-2.627v-1.68h-8.5v1.68Z" transform="translate(-2.129 -2.872)" fill="#2680eb"/>
</svg>
