<svg xmlns="http://www.w3.org/2000/svg" width="16.9" height="23.376" viewBox="0 0 16.9 23.376">
  <path id="icon_pol" d="M-918.4,952h-4.1a.651.651,0,0,0-.652.652.637.637,0,0,0,.652.652h2.539l-3.005,3.005a6.712,6.712,0,0,0-4.356-1.584A6.785,6.785,0,0,0-934.1,961.5a6.8,6.8,0,0,0,6.15,6.756v2.749h-2.26a.651.651,0,0,0-.652.652.637.637,0,0,0,.652.652h2.26v1.91a.651.651,0,0,0,.652.652.637.637,0,0,0,.652-.652v-1.91h2.26a.651.651,0,0,0,.652-.652.637.637,0,0,0-.652-.652h-2.26V968.26a6.8,6.8,0,0,0,6.15-6.756,6.9,6.9,0,0,0-1.514-4.286l3.005-3.005v2.539a.651.651,0,0,0,.652.652.637.637,0,0,0,.652-.652v-4.1A.725.725,0,0,0-918.4,952Zm-3.4,9.481a5.508,5.508,0,0,1-5.5,5.5,5.508,5.508,0,0,1-5.5-5.5,5.508,5.508,0,0,1,5.5-5.5A5.508,5.508,0,0,1-921.8,961.481Z" transform="translate(934.35 -951.75)" fill="#2680eb" stroke="#2680eb" stroke-width="0.5"/>
</svg>
