<?xml version="1.0" encoding="UTF-8"?>
<svg width="8px" height="10px" viewBox="0 0 8 10" version="1.1" xmlns="http://www.w3.org/2000/svg" xmlns:xlink="http://www.w3.org/1999/xlink">
    <!-- Generator: sketchtool 52.5 (67469) - http://www.bohemiancoding.com/sketch -->
    <title>4F33E36B-D1BC-415D-8435-0D991173377B</title>
    <desc>Created with sketchtool.</desc>
    <g id="Main_nav" stroke="none" stroke-width="1" fill="none" fill-rule="evenodd">
        <g id="Results" transform="translate(-1042.000000, -509.000000)">
            <path d="M1045.9999,509 C1043.79267,509 1042,510.711571 1042,512.814236 C1041.99951,513.641842 1042.28214,514.446097 1042.80234,515.100284 L1045.69925,518.853392 C1045.77027,518.946038 1045.88146,519 1046,519 C1046.11854,519 1046.22973,518.946035 1046.30075,518.853392 L1049.19766,515.100284 C1049.71786,514.446023 1050.00049,513.641781 1050,512.814236 C1050,510.711571 1048.2072,509 1046.0001,509 L1045.9999,509 Z M1045.9999,514.782787 L1045.9999,514.782309 C1045.46452,514.782309 1044.95117,514.57505 1044.57251,514.205901 C1044.19388,513.836752 1043.98079,513.336264 1043.98079,512.814271 C1043.98079,512.292279 1044.19386,511.791339 1044.57251,511.422153 C1044.95115,511.053004 1045.46449,510.845745 1045.9999,510.845745 C1046.53531,510.845745 1047.04863,511.053004 1047.42729,511.422153 C1047.80592,511.791302 1048.01901,512.292267 1048.01901,512.814271 C1048.01901,513.336276 1047.80594,513.836727 1047.42729,514.205901 C1047.04865,514.57505 1046.53531,514.782309 1045.9999,514.782309 L1045.9999,514.782787 Z" id="gradMarker" fill="#000000"></path>
            <g id="Page"></g>
        </g>
        <g id="Page"></g>
    </g>
</svg>