<?xml version="1.0" encoding="UTF-8"?>
<svg width="40px" height="38px" viewBox="0 0 40 38" version="1.1" xmlns="http://www.w3.org/2000/svg" xmlns:xlink="http://www.w3.org/1999/xlink">
    <!-- Generator: sketchtool 52.6 (67491) - http://www.bohemiancoding.com/sketch -->
    <title>93266432-D0BA-4327-809F-D267923F4437</title>
    <desc>Created with sketchtool.</desc>
    <g id="Main_nav" stroke="none" stroke-width="1" fill="none" fill-rule="evenodd">
        <g id="Grupe-Analiza" transform="translate(-187.000000, -1838.000000)" fill="#D24DDA">
            <g id="Group-11" transform="translate(187.000000, 1838.000000)">
                <path d="M17,24 C17,25.3333333 15,25.3333333 15,24 C15,22.6666667 17,22.6666667 17,24" id="Fill-1"></path>
                <path d="M16,21 C16,22.3333333 14,22.3333333 14,21 C14,19.6666667 16,19.6666667 16,21" id="Fill-2"></path>
                <path d="M12,22 C12,23.3333333 10,23.3333333 10,22 C10,20.6666667 12,20.6666667 12,22" id="Fill-3"></path>
                <path d="M21,19 C21,20.3333333 19,20.3333333 19,19 C19,17.6666667 21,17.6666667 21,19" id="Fill-4"></path>
                <path d="M22,24 C22,25.3333333 20,25.3333333 20,24 C20,22.6666667 22,22.6666667 22,24" id="Fill-5"></path>
                <path d="M24,16 C24,17.3333333 22,17.3333333 22,16 C22,14.6666667 24,14.6666667 24,16" id="Fill-6"></path>
                <path d="M24,19 C24,20.3333333 22,20.3333333 22,19 C22,17.6666667 24,17.6666667 24,19" id="Fill-7"></path>
                <path d="M15,28 L5,28 C2.1672,28 0,30.1672 0,33 C0,35.8328 2.1672,38 5,38 L15,38 C17.8328,38 20,35.8328 20,33 C20,30.1672 17.8328,28 15,28 Z M10,36.3328004 L5,36.3328004 C3.1672,36.3328004 1.6672,34.8328004 1.6672,33 C1.6672,31.1672 3.1672,29.6672 5,29.6672 L10,29.6672 L10,36.3328004 Z" id="Fill-8"></path>
                <path d="M39.1671996,28.0868463 L36.6671862,28.0868463 L36.6671862,9.91319119 L33.3343684,8.26046396 L33.3328044,0.825570563 C33.3328044,0.370198212 32.9593664,0 32.5,0 C32.0406336,0 31.6671956,0.370194247 31.6671956,0.825570563 L31.6671956,8.26046396 L28.3343778,9.91319119 L28.3343778,28.0868463 L25.8328044,28.0868463 C25.373442,28.0868463 25,28.4570406 25,28.9124169 C25,29.3677893 25.373438,29.7379875 25.8328044,29.7379875 L30.0000267,29.7379875 L30.0000267,36.3473099 L27.6031339,36.3473099 C27.1437714,36.3473099 26.7703294,36.7175042 26.7703294,37.1728805 C26.7703294,37.6282529 27.1437674,37.9984512 27.6031339,37.9984512 L37.4999867,38 C37.9593491,38 38.3327911,37.6298057 38.3327911,37.1744293 C38.3327911,36.719057 37.9593531,36.3488587 37.4999867,36.3488587 L34.9999733,36.3488587 L34.9999733,29.7395379 L39.1671956,29.7395379 C39.626558,29.7395379 40,29.3693436 40,28.9139673 C40,28.4570485 39.626562,28.0868503 39.1671956,28.0868503 L39.1671996,28.0868463 Z M33.3327684,36.3473107 L31.6655595,36.3473107 L31.6655595,29.7379875 L33.3327684,29.7379875 L33.3327684,36.3473107 Z M34.9999773,14.8697868 L34.1671729,14.8697868 C33.7078104,14.8697868 33.3343684,15.239981 33.3343684,15.6953574 C33.3343684,16.1507337 33.7078064,16.5209279 34.1671729,16.5209279 L34.9999773,16.5209279 L34.9999773,18.1736552 L34.1671729,18.1736552 C33.7078104,18.1736552 33.3343684,18.5438494 33.3343684,18.9992257 C33.3343684,19.4545981 33.7078064,19.8247963 34.1671729,19.8247963 L34.9999773,19.8247963 L34.9999773,21.4775235 L34.1671729,21.4775235 C33.7078104,21.4775235 33.3343684,21.8477178 33.3343684,22.3030941 C33.3343684,22.7584664 33.7078064,23.1286646 34.1671729,23.1286646 L34.9999773,23.1286646 L34.9999773,24.7813919 L34.1671729,24.7829423 C33.7078104,24.7829423 33.3343684,25.1531365 33.3343684,25.6085129 C33.3343684,26.0638892 33.7078064,26.4340834 34.1671729,26.4340834 L34.9999773,26.4340834 L34.9999773,28.0868107 L29.9999507,28.0868107 L29.9999507,13.2170239 L34.9999773,13.2170239 L34.9999773,14.8697868 Z" id="Fill-9"></path>
                <path d="M0.00117276896,13.1990324 C0.00117276896,14.0839325 0.76284032,14.799355 1.70138183,14.799355 L6.80037733,14.799355 L6.80037733,16.3996775 C6.80037733,17.2845775 7.56204488,18 8.50058638,18 C9.43912789,18 10.2007954,17.2845775 10.2007954,16.3996775 L10.2007954,14.799355 L15.2997909,14.799355 C16.2383324,14.799355 17,14.0839325 17,13.1990324 C17,12.3141324 16.2383324,11.5987099 15.2997909,11.5987099 L12.602096,11.5987099 L16.4996458,7.93013947 C17.1641061,7.30471592 17.1641061,6.29384041 16.4996458,5.66841686 C15.8351855,5.04299331 14.7612146,5.04299331 14.0967543,5.66841686 L10.1992046,9.3369873 L10.1992046,3.60032252 C10.1992046,2.71542249 9.43753701,2 8.4989955,2 C7.56045399,2 6.79878644,2.71542249 6.79878644,3.60032252 L6.79878644,9.3369873 L2.90123666,5.66841686 C2.23677636,5.04299331 1.16280553,5.04299331 0.498345226,5.66841686 C-0.166115075,6.29384041 -0.166115075,7.30471592 0.498345226,7.93013947 L4.39589501,11.5987099 L1.70138183,11.5987099 C0.76284032,11.5987099 0.00117276896,12.3141324 0.00117276896,13.1990324 Z" id="Fill-10"></path>
            </g>
        </g>
        <g id="Page"></g>
    </g>
</svg>