<svg xmlns="http://www.w3.org/2000/svg" width="18.065" height="18.06" viewBox="0 0 18.065 18.06">
  <g id="icon_ginekolog" transform="translate(-16.959 -969.33)">
    <path id="Path_1094" data-name="Path 1094" d="M34.164,969.331a1,1,0,0,0-.564.256l-1.606,1.606-1.606-1.606a.819.819,0,1,0-1.162,1.153l1.606,1.614-1.9,1.9A7.349,7.349,0,1,0,30.1,975.4l1.9-1.9,1.606,1.606a.82.82,0,1,0,1.162-1.153l-1.606-1.606,1.606-1.614a.82.82,0,0,0-.6-1.41Zm-9.824,4.938a5.741,5.741,0,1,1-5.741,5.741A5.728,5.728,0,0,1,24.34,974.268Z" transform="translate(0 0)" fill="#2680eb"/>
  </g>
</svg>
