<svg xmlns="http://www.w3.org/2000/svg" width="1440" height="300" viewBox="0 0 1440 300">
  <g id="Group_186" data-name="Group 186" transform="translate(0 66)">
    <g id="Group_108" data-name="Group 108" transform="translate(0 -558.625)">
      <rect id="Rectangle_130" data-name="Rectangle 130" width="1440" height="300" transform="translate(0 492.625)" fill="#0389ec"/>
      <path id="Path_991" data-name="Path 991" d="M1108.061,40a3.519,3.519,0,0,0-2.418,6.064l-2.354,4.791c-.1,0-.23-.028-.345-.028a3.1,3.1,0,0,0-1.42.325l-3.621-2.9a3.389,3.389,0,0,0,.461-1.76,3.5,3.5,0,1,0-7,0,3.354,3.354,0,0,0,1.024,2.464l-2.073,3.3a4.13,4.13,0,0,0-.806-.108A3.519,3.519,0,1,0,1093,55.675a3.643,3.643,0,0,0-.832-2.3l2.15-3.438a4.078,4.078,0,0,0,.576.054,3.348,3.348,0,0,0,1.395-.3l3.634,2.9a3.507,3.507,0,1,0,5.361-.894l2.316-4.71a2.961,2.961,0,0,0,.486.028,3.506,3.506,0,1,0-.026-7.012Z" transform="translate(105.91 534.881)" fill="#fff" fill-rule="evenodd" opacity="0.2"/>
      <path id="Path_992" data-name="Path 992" d="M327.062,40a3.526,3.526,0,0,0-2.425,6.064l-2.343,4.791c-.107,0-.242-.028-.351-.028a3.161,3.161,0,0,0-1.428.325l-3.609-2.9a3.512,3.512,0,1,0-6.546-1.76,3.373,3.373,0,0,0,1.024,2.464l-2.074,3.3a4.143,4.143,0,0,0-.807-.108,3.519,3.519,0,1,0,3.5,3.519,3.645,3.645,0,0,0-.834-2.3l2.155-3.438a3.917,3.917,0,0,0,.566.054,3.408,3.408,0,0,0,1.4-.3l3.637,2.9a3.46,3.46,0,0,0-.458,1.732,3.5,3.5,0,1,0,5.818-2.626l2.317-4.71a2.876,2.876,0,0,0,.485.028A3.506,3.506,0,1,0,327.062,40Z" transform="translate(-138.058 522.085)" fill="#fff" fill-rule="evenodd" opacity="0.2"/>
      <path id="Path_993" data-name="Path 993" d="M1021.926,109.328h-5.374c.038.443.1.879.1,1.333h0a13.327,13.327,0,1,1-13.321-13.328,12.89,12.89,0,0,1,1.331.111V92.066c.435-.036.883-.066,1.331-.066a15.993,15.993,0,0,1,16,16c0,.452-.026.892-.064,1.333Zm-17.262-9.238a10.665,10.665,0,1,0,9.328,10.57,11.594,11.594,0,0,0-.09-1.332H1006a1.328,1.328,0,0,1-1.331-1.333Zm16,6.572-1.7-1.69h.013a13.287,13.287,0,0,0-11.645-10.191v11.88h11.913a12.573,12.573,0,0,0-.269-1.689Z" transform="translate(79.067 587.809)" fill="#fff" fill-rule="evenodd" opacity="0.2"/>
      <path id="Path_994" data-name="Path 994" d="M424.924,114.328h-5.372c.04.443.106.879.106,1.333h0a13.329,13.329,0,1,1-13.328-13.328,12.864,12.864,0,0,1,1.332.111V97.066c.44-.036.88-.066,1.333-.066a15.994,15.994,0,0,1,16,16c0,.452-.027.892-.067,1.333Zm-17.262-9.239a10.664,10.664,0,1,0,9.331,10.571,10.78,10.78,0,0,0-.093-1.332H409A1.334,1.334,0,0,1,407.662,113Zm16,6.572-1.693-1.69h0a13.284,13.284,0,0,0-11.637-10.191v11.88h11.916a14.217,14.217,0,0,0-.279-1.689Z" transform="translate(-113.452 576.411)" fill="#44afd5" fill-rule="evenodd"/>
      <path id="Path_995" data-name="Path 995" d="M893.83,35.1l-11.495,6.637a2.9,2.9,0,1,0,2.9,5.03l.914-.528,9.715,16.825a5.582,5.582,0,0,0,9.666-5.58l-9.7-16.8.914-.528a2.921,2.921,0,1,0-2.92-5.059Zm9.641,23.575a3.2,3.2,0,0,1-5.541,3.2l-4.172-7.227,5.511-3.182,4.173,7.227Zm-7.889-20.539-1.945,1.123a1.2,1.2,0,0,0-.448,1.607l4.957,8.586-5.541,3.2-4.957-8.586a1.194,1.194,0,0,0-1.615-.416l-1.946,1.123a.567.567,0,1,1-.567-.982l11.495-6.637a.567.567,0,1,1,.567.982Z" transform="translate(48.545 533.399)" fill="#00ff83" fill-rule="evenodd" opacity="0.8"/>
      <g id="Group_99" data-name="Group 99" transform="translate(401.276 654.382)" opacity="0.2">
        <path id="Path_996" data-name="Path 996" d="M493.815,96.05a1.4,1.4,0,0,0,1.135-1.621,1.743,1.743,0,0,0-.035-.2l1.789-1.589a1.385,1.385,0,0,0,1.7-.3l2.077.942a1.615,1.615,0,0,0,.038.22,1.394,1.394,0,1,0,2.5-1.065l1.825-3.13h0a1.886,1.886,0,0,0,.754.015,1.925,1.925,0,1,0-1.779-.607l-1.775,3.155a1.41,1.41,0,0,0-1.071.37l-2.22-.927-.022-.121a1.4,1.4,0,1,0-2.746.484l.017.1-1.846,1.644a1.4,1.4,0,1,0-.343,2.64Z" transform="translate(-487.006 -81.186)" fill="#fff" fill-rule="evenodd"/>
        <path id="Path_997" data-name="Path 997" d="M493.722,100.047l2.029-.358-.8-4.531-2.029.358Z" transform="translate(-486.789 -78.487)" fill="#fff" fill-rule="evenodd"/>
        <path id="Path_998" data-name="Path 998" d="M500.254,98.9l2.031-.358-.8-4.531-2.029.358Z" transform="translate(-484.963 -78.809)" fill="#fff" fill-rule="evenodd"/>
        <path id="Path_999" data-name="Path 999" d="M503.668,99.167l2.031-.358-1.5-8.48-2.029.358Z" transform="translate(-484.203 -79.837)" fill="#fff" fill-rule="evenodd"/>
        <path id="Path_1000" data-name="Path 1000" d="M497.077,99.974l2.029-.358-1.212-6.869-2.029.358Z" transform="translate(-485.967 -79.161)" fill="#fff" fill-rule="evenodd"/>
        <path id="Path_1001" data-name="Path 1001" d="M514.466,93.1A13.268,13.268,0,1,1,499.1,82.333,13.265,13.265,0,0,1,514.466,93.1" transform="translate(-488.13 -82.129)" fill="none" stroke="#fff" stroke-width="2"/>
      </g>
      <g id="Group_100" data-name="Group 100" transform="translate(1281.648 703.008)" opacity="0.2">
        <path id="Path_1002" data-name="Path 1002" d="M1161.814,124.051a1.41,1.41,0,0,0,.909-.576,1.438,1.438,0,0,0,.23-1.045c-.013-.067-.026-.134-.038-.2l1.791-1.589a1.4,1.4,0,0,0,1.7-.3l2.073.942a.664.664,0,0,0,.038.22,1.4,1.4,0,0,0,2.738-.484,1.228,1.228,0,0,0-.243-.582l1.83-3.13h-.013a1.925,1.925,0,1,0-1.19-2.942,1.938,1.938,0,0,0,.166,2.351l-1.766,3.154a1.416,1.416,0,0,0-1.075.371l-2.226-.928-.013-.12a1.4,1.4,0,0,0-.55-.992,1.386,1.386,0,0,0-1.088-.269,1.394,1.394,0,0,0-1.113,1.745l.013.1-1.843,1.643a1.4,1.4,0,0,0-1.267.036,1.376,1.376,0,0,0-.717,1.051,1.393,1.393,0,0,0,1.638,1.553Z" transform="translate(-1155.005 -109.186)" fill="#fff" fill-rule="evenodd"/>
        <path id="Path_1003" data-name="Path 1003" d="M1161.726,128.047l2.022-.358-.793-4.531-2.035.358Z" transform="translate(-1154.79 -106.487)" fill="#fff" fill-rule="evenodd"/>
        <path id="Path_1004" data-name="Path 1004" d="M1168.253,126.9l2.035-.357-.806-4.531-2.022.357Z" transform="translate(-1152.961 -106.808)" fill="#fff" fill-rule="evenodd"/>
        <path id="Path_1005" data-name="Path 1005" d="M1171.667,127.167l2.035-.358-1.5-8.48-2.035.357Z" transform="translate(-1152.203 -107.837)" fill="#fff" fill-rule="evenodd"/>
        <path id="Path_1006" data-name="Path 1006" d="M1165.073,127.974l2.035-.357-1.216-6.869-2.022.357Z" transform="translate(-1153.965 -107.161)" fill="#fff" fill-rule="evenodd"/>
        <path id="Path_1007" data-name="Path 1007" d="M1182.465,121.1a13.267,13.267,0,1,1-15.368-10.762,13.261,13.261,0,0,1,15.368,10.762" transform="translate(-1156.129 -110.13)" fill="none" stroke="#fff" stroke-width="2"/>
      </g>
      <path id="Path_1008" data-name="Path 1008" d="M434.608,26a.921.921,0,0,0,.095,1.839h.609v8.517l-6.95,13.431A3.562,3.562,0,0,0,428,51.446a3.987,3.987,0,0,0,3.96,3.985h17.671a3.987,3.987,0,0,0,3.96-3.985,3.562,3.562,0,0,0-.362-1.657l-6.95-13.431V30.6a.921.921,0,0,0-.264-.659.909.909,0,0,0-1.3,0,.921.921,0,0,0-.264.659v5.988a.93.93,0,0,0,.1.422l4.827,9.331a8.615,8.615,0,0,1-4.018,1.734,8.737,8.737,0,0,1-5.054-1.849c-1.538-.989-3.231-2.136-5.609-2.136a8.589,8.589,0,0,0-1.39.125l3.722-7.2a.93.93,0,0,0,.1-.422V27.84h9.749a.911.911,0,0,0,.655-.265.923.923,0,0,0,0-1.31A.911.911,0,0,0,446.89,26H434.7c-.032,0-.063,0-.095,0Zm4.969,10.73a1.533,1.533,0,1,0,1.524,1.533A1.528,1.528,0,0,0,439.577,36.731Zm2.742,5.212a1.226,1.226,0,1,0,1.219,1.226A1.222,1.222,0,0,0,442.319,41.942ZM434.7,45.928c1.8,0,3.058.836,4.617,1.839a10.694,10.694,0,0,0,6.046,2.146A8.9,8.9,0,0,0,450.241,48l1.37,2.644a1.814,1.814,0,0,1,.152.8,2.125,2.125,0,0,1-2.132,2.146H431.96a2.126,2.126,0,0,1-2.133-2.146,1.832,1.832,0,0,1,.152-.8l2.191-4.234a6.974,6.974,0,0,1,2.532-.479Z" transform="translate(-103.666 518.17)" fill="#fff" fill-rule="evenodd" opacity="0.2"/>
      <g id="Group_101" data-name="Group 101" transform="translate(734.547 521.783)" opacity="0.2">
        <path id="Path_1009" data-name="Path 1009" d="M731.106,18.84h28.782a1.535,1.535,0,0,0,1.536-1.536l0-17.264A1.534,1.534,0,0,0,759.886-1.5H731.874c-.85,0-2.306.687-2.306,1.536V17.3a1.539,1.539,0,0,0,1.538,1.537ZM731.682.676a1,1,0,0,1,.211-.06h27.419V16.727l-27.632,0Z" transform="translate(-728.299 1.496)" fill="#fff" fill-rule="evenodd"/>
        <path id="Path_1010" data-name="Path 1010" d="M754.481,4.282c0-.006,0-.012,0-.02h0a1.219,1.219,0,0,0-.052-.2c-.009-.025-.024-.049-.035-.073a.855.855,0,0,0-.056-.111.64.64,0,0,0-.052-.07.781.781,0,0,0-.072-.093c-.023-.024-.049-.043-.072-.066a1.071,1.071,0,0,0-.082-.072,1.049,1.049,0,0,0-.377-.175c-.019,0-.038,0-.056-.009a.946.946,0,0,0-.147-.02,1.084,1.084,0,0,0-.184.011h-.027l-2.214.345c-.015,0-.028.009-.044.011a.919.919,0,0,0-.11.028c-.032.011-.064.021-.1.034a.983.983,0,0,0-.088.043,1.124,1.124,0,0,0-.1.058c-.011.009-.026.013-.037.022s-.024.024-.038.034a1.064,1.064,0,0,0-.082.076c-.024.024-.045.049-.067.075s-.04.054-.059.082a.694.694,0,0,0-.054.088c-.014.03-.028.06-.041.091s-.024.063-.035.1a.859.859,0,0,0-.024.1c-.006.034-.011.067-.015.1s0,.066,0,.1a1.083,1.083,0,0,0,.005.112c0,.017,0,.033,0,.051s.009.03.012.046c.006.031.014.061.023.091a1.017,1.017,0,0,0,.037.1.56.56,0,0,0,.035.075.967.967,0,0,0,.068.111.368.368,0,0,0,.026.042l.055.073L745.2,9.508l-4.5-3.236-.014-.007a1.1,1.1,0,0,0-.106-.061c-.026-.013-.051-.03-.078-.042a.968.968,0,0,0-.092-.03,1.021,1.021,0,0,0-.1-.033c-.026-.006-.052-.006-.078-.01a1.1,1.1,0,0,0-.123-.013c-.027,0-.054,0-.081.006a1.058,1.058,0,0,0-.12.01.776.776,0,0,0-.079.021,1.077,1.077,0,0,0-.118.034c-.024.009-.046.022-.069.033a1.035,1.035,0,0,0-.119.061l-.013.007-5.624,3.7a1.055,1.055,0,0,0,.581,1.937,1.038,1.038,0,0,0,.578-.174l5.016-3.3,4.546,3.272a1.032,1.032,0,0,0,.154.091l.027.01a.962.962,0,0,0,.177.061c.017,0,.033.009.051.012a1.1,1.1,0,0,0,.208.024h0a1.078,1.078,0,0,0,.218-.025l.052-.013a1.09,1.09,0,0,0,.177-.063c.013-.006.024-.009.035-.015a.956.956,0,0,0,.163-.1l5.838-4.5a.99.99,0,0,0,.079.073.49.49,0,0,0,.058.051,1.015,1.015,0,0,0,.136.087c.022.012.04.025.06.036l.009,0a.874.874,0,0,0,.133.045.68.68,0,0,0,.082.027,1,1,0,0,0,.23.027h0a1.1,1.1,0,0,0,.27-.037l.033-.007a1.036,1.036,0,0,0,.234-.1.453.453,0,0,0,.044-.028c.018-.012.036-.021.054-.034a.987.987,0,0,0,.141-.13l.014-.012a1.1,1.1,0,0,0,.15-.229.156.156,0,0,1,.018-.026l.946-2.032h0l0,0a.3.3,0,0,1,.012-.033.93.93,0,0,0,.056-.162,1.064,1.064,0,0,0,.017-.108.792.792,0,0,0,.014-.1c-.006-.064-.01-.127-.018-.19Z" transform="translate(-727.225 2.855)" fill="#fff" fill-rule="evenodd"/>
        <path id="Path_1011" data-name="Path 1011" d="M761.875,15.524H729.632a1.056,1.056,0,1,0,0,2.111h32.245a1.056,1.056,0,1,0,0-2.111Z" transform="translate(-728.576 6.254)" fill="#fff" fill-rule="evenodd"/>
      </g>
      <g id="Group_102" data-name="Group 102" transform="translate(106.258 702.208)" opacity="0.2">
        <path id="Path_1012" data-name="Path 1012" d="M260.106,139.839h28.782a1.534,1.534,0,0,0,1.536-1.536l0-17.263a1.533,1.533,0,0,0-1.536-1.536H260.874c-.85,0-2.306.686-2.306,1.536V138.3a1.539,1.539,0,0,0,1.538,1.537Zm.576-18.163a.968.968,0,0,1,.211-.06h27.419v16.11l-27.632,0Z" transform="translate(-257.299 -119.505)" fill="#fff" fill-rule="evenodd"/>
        <path id="Path_1013" data-name="Path 1013" d="M283.481,125.283c0-.006,0-.013,0-.02h0a1.24,1.24,0,0,0-.052-.2c-.009-.026-.024-.05-.035-.073a.824.824,0,0,0-.056-.111.664.664,0,0,0-.052-.07.815.815,0,0,0-.072-.093c-.023-.024-.049-.044-.072-.065s-.051-.05-.082-.073a1.062,1.062,0,0,0-.377-.175c-.019,0-.038,0-.056-.009a.924.924,0,0,0-.147-.019,1.111,1.111,0,0,0-.184.01h-.023s0,0,0,0l-2.214.344c-.015,0-.028.009-.044.01a.823.823,0,0,0-.11.029.963.963,0,0,0-.1.035.8.8,0,0,0-.088.044c-.035.018-.065.037-.1.058-.012.009-.026.014-.037.023s-.024.024-.038.035a1.224,1.224,0,0,0-.148.151c-.021.027-.04.054-.059.083a.625.625,0,0,0-.054.088c-.014.029-.028.06-.041.091s-.024.063-.035.1a.9.9,0,0,0-.024.1c-.006.035-.012.067-.015.1s0,.067,0,.1,0,.074.005.113c0,.017,0,.032,0,.05s.009.031.012.047.014.061.023.091a1.026,1.026,0,0,0,.037.1.566.566,0,0,0,.035.076.993.993,0,0,0,.068.111.356.356,0,0,0,.026.041l.055.074-5.226,4.03-4.5-3.236a.076.076,0,0,0-.014-.008.988.988,0,0,0-.106-.061c-.026-.014-.051-.031-.078-.042s-.06-.02-.092-.029a.9.9,0,0,0-.1-.033c-.026-.006-.052-.006-.078-.01a.977.977,0,0,0-.123-.014c-.027,0-.054.005-.081.006a.93.93,0,0,0-.12.01c-.027,0-.052.014-.079.02s-.079.02-.118.035-.046.023-.069.033a.949.949,0,0,0-.119.061.066.066,0,0,1-.013.008l-5.624,3.7a1.055,1.055,0,0,0,.581,1.937,1.044,1.044,0,0,0,.578-.174l5.016-3.3,4.546,3.272a1.051,1.051,0,0,0,.154.091.25.25,0,0,0,.027.012,1,1,0,0,0,.177.061c.017,0,.033.009.051.012a1.055,1.055,0,0,0,.209.024h0a1.05,1.05,0,0,0,.217-.026l.052-.014a1,1,0,0,0,.177-.063c.013-.006.024-.009.035-.015a.98.98,0,0,0,.162-.1l5.838-4.5a1.077,1.077,0,0,0,.079.074.549.549,0,0,0,.058.051,1.116,1.116,0,0,0,.136.087c.022.012.04.026.06.036l.009,0a.739.739,0,0,0,.133.045.555.555,0,0,0,.082.027.938.938,0,0,0,.23.028h0a1.074,1.074,0,0,0,.27-.038c.01,0,.022,0,.033-.008a.954.954,0,0,0,.234-.1.509.509,0,0,0,.044-.028.636.636,0,0,0,.054-.035.91.91,0,0,0,.141-.131l.014-.012a1.1,1.1,0,0,0,.15-.229.153.153,0,0,1,.018-.026l.946-2.032h0l0,0c0-.01.006-.022.012-.033a.928.928,0,0,0,.056-.161,1.046,1.046,0,0,0,.017-.107.824.824,0,0,0,.014-.1c-.006-.065-.01-.128-.018-.191Z" transform="translate(-256.225 -118.145)" fill="#fff" fill-rule="evenodd"/>
        <path id="Path_1014" data-name="Path 1014" d="M290.875,136.524H258.632a1.056,1.056,0,1,0,0,2.111h32.245a1.056,1.056,0,1,0,0-2.111Z" transform="translate(-257.576 -114.746)" fill="#fff" fill-rule="evenodd"/>
      </g>
      <path id="Path_1015" data-name="Path 1015" d="M694.05,138l-2.417-.851a.656.656,0,0,0-.836.383.633.633,0,0,0,.393.816l1.052.371-9.546,4.09-1.712-3.547-6.143,2.749a.632.632,0,0,0-.324.839.659.659,0,0,0,.866.321l4.971-2.225,1.7,3.528,10.769-4.613-.394,1.071a.634.634,0,0,0,.392.816.658.658,0,0,0,.834-.385l.87-2.362a.776.776,0,0,0-.48-1Zm-8.159-10.179a.635.635,0,0,0,.393.816.657.657,0,0,0,.836-.385l.914-2.481a.652.652,0,0,0-.4-.839l-2.539-.893a.655.655,0,0,0-.834.383.635.635,0,0,0,.393.816l1.061.374-15.321,6.628a.633.633,0,0,0-.333.842h0a.659.659,0,0,0,.86.322l15.368-6.648Zm9.257,2.518-2.539-.894a.655.655,0,0,0-.833.384.632.632,0,0,0,.392.815l1.083.381-8.991,4-1.378-2.575-10.353,4.472a.632.632,0,0,0-.333.843h0a.658.658,0,0,0,.859.322l9.237-3.991,1.385,2.587,10.119-4.5-.385,1.044a.633.633,0,0,0,.394.815.655.655,0,0,0,.833-.384l.915-2.481a.653.653,0,0,0-.4-.839Z" transform="translate(-10.408 596.756)" fill="#fff" fill-rule="evenodd" opacity="0.2"/>
      <path id="Path_1016" data-name="Path 1016" d="M865.847,165.693l.009-.01c.015-.014.028-.029.042-.042l.014-.017.033-.038a.14.14,0,0,0,.015-.023l.028-.036a.182.182,0,0,1,.017-.027l.022-.035c.005-.01.012-.019.017-.029a.211.211,0,0,0,.018-.033c.006-.01.01-.02.015-.029s.011-.023.015-.035.009-.022.014-.032.009-.023.013-.035a.284.284,0,0,0,.011-.035c0-.012.008-.022.012-.035s.006-.022.01-.035.006-.023.009-.035a.181.181,0,0,0,.005-.036l.008-.035,0-.036a.173.173,0,0,0,0-.037c0-.012,0-.023,0-.035s0-.024,0-.037a.319.319,0,0,0,0-.036v-.038l0-.035c0-.012,0-.024,0-.037s0-.023-.005-.036,0-.022-.005-.035,0,0,0,0,0,0,0,0l-.248-1.367,5.633-4.726.022-.02c.017-.015.035-.031.05-.047a.435.435,0,0,0,.033-.037l.037-.041c.013-.015.024-.031.036-.046l.027-.037a.6.6,0,0,0,.033-.052c.008-.013.015-.024.023-.038l.027-.054c.006-.015.014-.029.019-.045l.019-.05c.006-.017.013-.035.018-.051a.467.467,0,0,0,.013-.046c.005-.019.009-.04.014-.059s.005-.029.008-.044a.483.483,0,0,0,.009-.061l0-.046c0-.02,0-.04,0-.06s0-.036,0-.054,0-.035,0-.051-.005-.046-.009-.069a.25.25,0,0,0,0-.029l-1.287-7.144,1.2-1.011.055-.05a.1.1,0,0,0,.015-.017.3.3,0,0,0,.035-.036l.019-.023c.009-.012.019-.022.028-.032a.312.312,0,0,0,.018-.027.277.277,0,0,0,.024-.032l.018-.027.022-.032c.006-.01.01-.019.017-.029a.276.276,0,0,1,.019-.033c.005-.01.009-.02.014-.029l.015-.036a.331.331,0,0,1,.013-.031c0-.013.01-.024.014-.036a.139.139,0,0,0,.009-.031l.011-.037c0-.01.006-.02.009-.031a.349.349,0,0,1,.01-.038.3.3,0,0,1,.006-.032l.008-.038,0-.033c0-.012,0-.026.005-.037s0-.023,0-.033,0-.026,0-.038a.3.3,0,0,0,0-.033v-.038c0-.012,0-.023,0-.035s0-.024,0-.038,0-.023-.005-.035a.339.339,0,0,0,0-.035.006.006,0,0,0,0,0v0l-1.282-7.117a1.1,1.1,0,0,0-.7-.838l-6.784-2.5h0s0,0,0,0l-.027-.009-.041-.014a.236.236,0,0,0-.032-.008l-.038-.01-.035-.006-.037-.008-.036-.005-.035,0-.037,0h-.073a.287.287,0,0,1-.033,0l-.04,0-.032,0-.038.006-.032,0a.311.311,0,0,0-.037.008l-.033.006-.037.01-.032.01c-.012,0-.023.008-.036.012l-.032.012c-.011,0-.022.01-.033.015l-.033.013-.032.017-.032.017a.264.264,0,0,0-.032.018.229.229,0,0,0-.031.018l-.033.023c-.009.006-.018.012-.027.019l-.041.032c-.005.005-.011.008-.017.013l-1.2,1.01-6.81-2.507a.123.123,0,0,0-.029-.008l-.064-.02c-.017-.005-.035-.008-.051-.012a.328.328,0,0,0-.051-.012l-.06-.009-.045-.005-.064,0h-.042a.518.518,0,0,0-.061.005.309.309,0,0,0-.047,0c-.018,0-.036.005-.055.008l-.052.01a.3.3,0,0,1-.046.012l-.059.017-.041.017c-.019.008-.038.014-.059.024l-.041.02c-.018.008-.036.018-.054.027l-.045.028-.044.027c-.019.013-.036.027-.055.041l-.024.019-5.634,4.727-1.308-.481s0,0,0,0h0l-.04-.013-.027-.009a.453.453,0,0,0-.045-.012l-.026-.006-.046-.009a.191.191,0,0,0-.027,0l-.045-.006c-.01,0-.018,0-.026,0l-.045,0h-.1a.239.239,0,0,0-.044,0h-.027l-.043.006-.027,0-.044.009-.027.006-.043.013-.026.006-.042.015-.026.009a.412.412,0,0,0-.042.018l-.026.01-.042.022c-.006,0-.014.006-.022.012s-.028.017-.044.026l-.019.012c-.017.01-.032.022-.046.032a.079.079,0,0,0-.014.01l-.051.038-.008.006-5.529,4.64a1.1,1.1,0,0,0-.376,1.039l1.281,7.118a1.1,1.1,0,0,0,.71.841c.013.005.028.008.041.013l1.373.505L844,162.436a1.1,1.1,0,0,0,.784.864l6.635,2.44.269,1.493a1.1,1.1,0,0,0,.71.839l.042.014,6.741,2.481a1.1,1.1,0,0,0,1.089-.191l5.527-4.636c.018-.017.037-.032.054-.05Zm-2.189-2.5-4.384-1.617-.829-4.6,4.386,1.615Zm-7.387-5.85.832,4.619-3.584,3.007-.832-4.619Zm6.055-16.333.832,4.619-3.583,3.007-.833-4.619Zm2.25,6.306,4.4,1.623-3.582,3-4.406-1.62Zm4.31-5.054.83,4.6-4.385-1.616-.829-4.6Zm-25.029,11.189,3.583-3.007,4.4,1.623-3.58,3Zm4.338-5.079-.828-4.6,4.385,1.616.829,4.6Zm-3-4.233.832,4.619-3.584,3.007-.83-4.619Zm.864,17.276-.928-5.148,2.97,1.093a1.1,1.1,0,0,0,1.089-.191l5.528-4.636.055-.05a.136.136,0,0,1,.019-.019l.032-.033.022-.024c.008-.012.018-.02.027-.032a.184.184,0,0,1,.019-.024c.008-.01.017-.022.023-.032s.012-.019.018-.028l.022-.033c.005-.01.012-.019.017-.028a.245.245,0,0,1,.02-.035c0-.009.009-.018.013-.027a.261.261,0,0,0,.018-.038c.005-.009.008-.018.012-.026s.01-.026.014-.04a.23.23,0,0,0,.009-.027c.005-.014.01-.027.014-.041s0-.018.006-.026.006-.029.01-.044a.145.145,0,0,0,.005-.026c0-.015.005-.029.009-.045s0-.017,0-.026.005-.029.006-.045,0-.018,0-.026,0-.031,0-.047v-.026c0-.015,0-.032,0-.047s0-.018,0-.027a.3.3,0,0,0,0-.046c0-.009,0-.018,0-.028s0-.027-.006-.04V151.5s0,0,0,0l-1.285-7.116a1.1,1.1,0,0,0-.7-.837l-3.1-1.141,4.179-3.506,5.028,1.853-2.379,2a1.1,1.1,0,0,0-.377,1.039l1.281,7.118a1.1,1.1,0,0,0,.71.841l.044.014,6.74,2.48a1.1,1.1,0,0,0,1.09-.191l2.376-1.994.951,5.273-4.177,3.5-.585-3.245a1.1,1.1,0,0,0-.7-.838l-6.785-2.5h-.005s0,0,0,0l-.027-.009-.041-.014-.029-.008-.041-.01-.032-.006a.2.2,0,0,0-.04-.008l-.033,0-.038,0-.033,0-.037,0h-.07l-.035,0-.037,0c-.012,0-.023,0-.035,0a.292.292,0,0,0-.036.006c-.013,0-.023.006-.035.008l-.036.008-.035.009-.036.01-.032.012c-.013.005-.024.008-.036.013l-.031.013-.035.015-.031.015a.278.278,0,0,0-.033.018.283.283,0,0,0-.033.019l-.029.017c-.013.008-.024.018-.037.026l-.023.017c-.017.012-.032.024-.049.037l-.01.008-5.528,4.64a1.1,1.1,0,0,0-.377,1.039l.559,3.108Zm8.883,5.241,3.582-3.007,4.4,1.623-3.58,3Z" transform="translate(36.932 600.262)" fill="#fff" fill-rule="evenodd" opacity="0.2"/>
      <path id="Path_1027" data-name="Path 1027" d="M865.847,165.693l.009-.01c.015-.014.028-.029.042-.042l.014-.017.033-.038a.14.14,0,0,0,.015-.023l.028-.036a.182.182,0,0,1,.017-.027l.022-.035c.005-.01.012-.019.017-.029a.211.211,0,0,0,.018-.033c.006-.01.01-.02.015-.029s.011-.023.015-.035.009-.022.014-.032.009-.023.013-.035a.284.284,0,0,0,.011-.035c0-.012.008-.022.012-.035s.006-.022.01-.035.006-.023.009-.035a.181.181,0,0,0,.005-.036l.008-.035,0-.036a.173.173,0,0,0,0-.037c0-.012,0-.023,0-.035s0-.024,0-.037a.319.319,0,0,0,0-.036v-.038l0-.035c0-.012,0-.024,0-.037s0-.023-.005-.036,0-.022-.005-.035,0,0,0,0,0,0,0,0l-.248-1.367,5.633-4.726.022-.02c.017-.015.035-.031.05-.047a.435.435,0,0,0,.033-.037l.037-.041c.013-.015.024-.031.036-.046l.027-.037a.6.6,0,0,0,.033-.052c.008-.013.015-.024.023-.038l.027-.054c.006-.015.014-.029.019-.045l.019-.05c.006-.017.013-.035.018-.051a.467.467,0,0,0,.013-.046c.005-.019.009-.04.014-.059s.005-.029.008-.044a.483.483,0,0,0,.009-.061l0-.046c0-.02,0-.04,0-.06s0-.036,0-.054,0-.035,0-.051-.005-.046-.009-.069a.25.25,0,0,0,0-.029l-1.287-7.144,1.2-1.011.055-.05a.1.1,0,0,0,.015-.017.3.3,0,0,0,.035-.036l.019-.023c.009-.012.019-.022.028-.032a.312.312,0,0,0,.018-.027.277.277,0,0,0,.024-.032l.018-.027.022-.032c.006-.01.01-.019.017-.029a.276.276,0,0,1,.019-.033c.005-.01.009-.02.014-.029l.015-.036a.331.331,0,0,1,.013-.031c0-.013.01-.024.014-.036a.139.139,0,0,0,.009-.031l.011-.037c0-.01.006-.02.009-.031a.349.349,0,0,1,.01-.038.3.3,0,0,1,.006-.032l.008-.038,0-.033c0-.012,0-.026.005-.037s0-.023,0-.033,0-.026,0-.038a.3.3,0,0,0,0-.033v-.038c0-.012,0-.023,0-.035s0-.024,0-.038,0-.023-.005-.035a.339.339,0,0,0,0-.035.006.006,0,0,0,0,0v0l-1.282-7.117a1.1,1.1,0,0,0-.7-.838l-6.784-2.5h0s0,0,0,0l-.027-.009-.041-.014a.236.236,0,0,0-.032-.008l-.038-.01-.035-.006-.037-.008-.036-.005-.035,0-.037,0h-.073a.287.287,0,0,1-.033,0l-.04,0-.032,0-.038.006-.032,0a.311.311,0,0,0-.037.008l-.033.006-.037.01-.032.01c-.012,0-.023.008-.036.012l-.032.012c-.011,0-.022.01-.033.015l-.033.013-.032.017-.032.017a.264.264,0,0,0-.032.018.229.229,0,0,0-.031.018l-.033.023c-.009.006-.018.012-.027.019l-.041.032c-.005.005-.011.008-.017.013l-1.2,1.01-6.81-2.507a.123.123,0,0,0-.029-.008l-.064-.02c-.017-.005-.035-.008-.051-.012a.328.328,0,0,0-.051-.012l-.06-.009-.045-.005-.064,0h-.042a.518.518,0,0,0-.061.005.309.309,0,0,0-.047,0c-.018,0-.036.005-.055.008l-.052.01a.3.3,0,0,1-.046.012l-.059.017-.041.017c-.019.008-.038.014-.059.024l-.041.02c-.018.008-.036.018-.054.027l-.045.028-.044.027c-.019.013-.036.027-.055.041l-.024.019-5.634,4.727-1.308-.481s0,0,0,0h0l-.04-.013-.027-.009a.453.453,0,0,0-.045-.012l-.026-.006-.046-.009a.191.191,0,0,0-.027,0l-.045-.006c-.01,0-.018,0-.026,0l-.045,0h-.1a.239.239,0,0,0-.044,0h-.027l-.043.006-.027,0-.044.009-.027.006-.043.013-.026.006-.042.015-.026.009a.412.412,0,0,0-.042.018l-.026.01-.042.022c-.006,0-.014.006-.022.012s-.028.017-.044.026l-.019.012c-.017.01-.032.022-.046.032a.079.079,0,0,0-.014.01l-.051.038-.008.006-5.529,4.64a1.1,1.1,0,0,0-.376,1.039l1.281,7.118a1.1,1.1,0,0,0,.71.841c.013.005.028.008.041.013l1.373.505L844,162.436a1.1,1.1,0,0,0,.784.864l6.635,2.44.269,1.493a1.1,1.1,0,0,0,.71.839l.042.014,6.741,2.481a1.1,1.1,0,0,0,1.089-.191l5.527-4.636c.018-.017.037-.032.054-.05Zm-2.189-2.5-4.384-1.617-.829-4.6,4.386,1.615Zm-7.387-5.85.832,4.619-3.584,3.007-.832-4.619Zm6.055-16.333.832,4.619-3.583,3.007-.833-4.619Zm2.25,6.306,4.4,1.623-3.582,3-4.406-1.62Zm4.31-5.054.83,4.6-4.385-1.616-.829-4.6Zm-25.029,11.189,3.583-3.007,4.4,1.623-3.58,3Zm4.338-5.079-.828-4.6,4.385,1.616.829,4.6Zm-3-4.233.832,4.619-3.584,3.007-.83-4.619Zm.864,17.276-.928-5.148,2.97,1.093a1.1,1.1,0,0,0,1.089-.191l5.528-4.636.055-.05a.136.136,0,0,1,.019-.019l.032-.033.022-.024c.008-.012.018-.02.027-.032a.184.184,0,0,1,.019-.024c.008-.01.017-.022.023-.032s.012-.019.018-.028l.022-.033c.005-.01.012-.019.017-.028a.245.245,0,0,1,.02-.035c0-.009.009-.018.013-.027a.261.261,0,0,0,.018-.038c.005-.009.008-.018.012-.026s.01-.026.014-.04a.23.23,0,0,0,.009-.027c.005-.014.01-.027.014-.041s0-.018.006-.026.006-.029.01-.044a.145.145,0,0,0,.005-.026c0-.015.005-.029.009-.045s0-.017,0-.026.005-.029.006-.045,0-.018,0-.026,0-.031,0-.047v-.026c0-.015,0-.032,0-.047s0-.018,0-.027a.3.3,0,0,0,0-.046c0-.009,0-.018,0-.028s0-.027-.006-.04V151.5s0,0,0,0l-1.285-7.116a1.1,1.1,0,0,0-.7-.837l-3.1-1.141,4.179-3.506,5.028,1.853-2.379,2a1.1,1.1,0,0,0-.377,1.039l1.281,7.118a1.1,1.1,0,0,0,.71.841l.044.014,6.74,2.48a1.1,1.1,0,0,0,1.09-.191l2.376-1.994.951,5.273-4.177,3.5-.585-3.245a1.1,1.1,0,0,0-.7-.838l-6.785-2.5h-.005s0,0,0,0l-.027-.009-.041-.014-.029-.008-.041-.01-.032-.006a.2.2,0,0,0-.04-.008l-.033,0-.038,0-.033,0-.037,0h-.07l-.035,0-.037,0c-.012,0-.023,0-.035,0a.292.292,0,0,0-.036.006c-.013,0-.023.006-.035.008l-.036.008-.035.009-.036.01-.032.012c-.013.005-.024.008-.036.013l-.031.013-.035.015-.031.015a.278.278,0,0,0-.033.018.283.283,0,0,0-.033.019l-.029.017c-.013.008-.024.018-.037.026l-.023.017c-.017.012-.032.024-.049.037l-.01.008-5.528,4.64a1.1,1.1,0,0,0-.377,1.039l.559,3.108Zm8.883,5.241,3.582-3.007,4.4,1.623-3.58,3Z" transform="translate(-346.952 577.229)" fill="#fff" fill-rule="evenodd" opacity="0.2"/>
      <g id="Group_106" data-name="Group 106" transform="translate(785.16 692.771)" opacity="0.2">
        <path id="Path_996-2" data-name="Path 996" d="M493.815,96.05a1.4,1.4,0,0,0,1.135-1.621,1.743,1.743,0,0,0-.035-.2l1.789-1.589a1.385,1.385,0,0,0,1.7-.3l2.077.942a1.615,1.615,0,0,0,.038.22,1.394,1.394,0,1,0,2.5-1.065l1.825-3.13h0a1.886,1.886,0,0,0,.754.015,1.925,1.925,0,1,0-1.779-.607l-1.775,3.155a1.41,1.41,0,0,0-1.071.37l-2.22-.927-.022-.121a1.4,1.4,0,1,0-2.746.484l.017.1-1.846,1.644a1.4,1.4,0,1,0-.343,2.64Z" transform="translate(-487.006 -81.186)" fill="#fff" fill-rule="evenodd"/>
        <path id="Path_997-2" data-name="Path 997" d="M493.722,100.047l2.029-.358-.8-4.531-2.029.358Z" transform="translate(-486.789 -78.487)" fill="#fff" fill-rule="evenodd"/>
        <path id="Path_998-2" data-name="Path 998" d="M500.254,98.9l2.031-.358-.8-4.531-2.029.358Z" transform="translate(-484.963 -78.809)" fill="#fff" fill-rule="evenodd"/>
        <path id="Path_999-2" data-name="Path 999" d="M503.668,99.167l2.031-.358-1.5-8.48-2.029.358Z" transform="translate(-484.203 -79.837)" fill="#fff" fill-rule="evenodd"/>
        <path id="Path_1000-2" data-name="Path 1000" d="M497.077,99.974l2.029-.358-1.212-6.869-2.029.358Z" transform="translate(-485.967 -79.161)" fill="#fff" fill-rule="evenodd"/>
        <path id="Path_1001-2" data-name="Path 1001" d="M514.466,93.1A13.268,13.268,0,1,1,499.1,82.333,13.265,13.265,0,0,1,514.466,93.1" transform="translate(-488.13 -82.129)" fill="none" stroke="#fff" stroke-width="2"/>
      </g>
      <g id="Group_107" data-name="Group 107" transform="translate(552.842 562.731)" opacity="0.2">
        <path id="Path_1012-2" data-name="Path 1012" d="M260.106,139.839h28.782a1.534,1.534,0,0,0,1.536-1.536l0-17.263a1.533,1.533,0,0,0-1.536-1.536H260.874c-.85,0-2.306.686-2.306,1.536V138.3a1.539,1.539,0,0,0,1.538,1.537Zm.576-18.163a.968.968,0,0,1,.211-.06h27.419v16.11l-27.632,0Z" transform="translate(-257.299 -119.505)" fill="#fff" fill-rule="evenodd"/>
        <path id="Path_1013-2" data-name="Path 1013" d="M283.481,125.283c0-.006,0-.013,0-.02h0a1.24,1.24,0,0,0-.052-.2c-.009-.026-.024-.05-.035-.073a.824.824,0,0,0-.056-.111.664.664,0,0,0-.052-.07.815.815,0,0,0-.072-.093c-.023-.024-.049-.044-.072-.065s-.051-.05-.082-.073a1.062,1.062,0,0,0-.377-.175c-.019,0-.038,0-.056-.009a.924.924,0,0,0-.147-.019,1.111,1.111,0,0,0-.184.01h-.023s0,0,0,0l-2.214.344c-.015,0-.028.009-.044.01a.823.823,0,0,0-.11.029.963.963,0,0,0-.1.035.8.8,0,0,0-.088.044c-.035.018-.065.037-.1.058-.012.009-.026.014-.037.023s-.024.024-.038.035a1.224,1.224,0,0,0-.148.151c-.021.027-.04.054-.059.083a.625.625,0,0,0-.054.088c-.014.029-.028.06-.041.091s-.024.063-.035.1a.9.9,0,0,0-.024.1c-.006.035-.012.067-.015.1s0,.067,0,.1,0,.074.005.113c0,.017,0,.032,0,.05s.009.031.012.047.014.061.023.091a1.026,1.026,0,0,0,.037.1.566.566,0,0,0,.035.076.993.993,0,0,0,.068.111.356.356,0,0,0,.026.041l.055.074-5.226,4.03-4.5-3.236a.076.076,0,0,0-.014-.008.988.988,0,0,0-.106-.061c-.026-.014-.051-.031-.078-.042s-.06-.02-.092-.029a.9.9,0,0,0-.1-.033c-.026-.006-.052-.006-.078-.01a.977.977,0,0,0-.123-.014c-.027,0-.054.005-.081.006a.93.93,0,0,0-.12.01c-.027,0-.052.014-.079.02s-.079.02-.118.035-.046.023-.069.033a.949.949,0,0,0-.119.061.066.066,0,0,1-.013.008l-5.624,3.7a1.055,1.055,0,0,0,.581,1.937,1.044,1.044,0,0,0,.578-.174l5.016-3.3,4.546,3.272a1.051,1.051,0,0,0,.154.091.25.25,0,0,0,.027.012,1,1,0,0,0,.177.061c.017,0,.033.009.051.012a1.055,1.055,0,0,0,.209.024h0a1.05,1.05,0,0,0,.217-.026l.052-.014a1,1,0,0,0,.177-.063c.013-.006.024-.009.035-.015a.98.98,0,0,0,.162-.1l5.838-4.5a1.077,1.077,0,0,0,.079.074.549.549,0,0,0,.058.051,1.116,1.116,0,0,0,.136.087c.022.012.04.026.06.036l.009,0a.739.739,0,0,0,.133.045.555.555,0,0,0,.082.027.938.938,0,0,0,.23.028h0a1.074,1.074,0,0,0,.27-.038c.01,0,.022,0,.033-.008a.954.954,0,0,0,.234-.1.509.509,0,0,0,.044-.028.636.636,0,0,0,.054-.035.91.91,0,0,0,.141-.131l.014-.012a1.1,1.1,0,0,0,.15-.229.153.153,0,0,1,.018-.026l.946-2.032h0l0,0c0-.01.006-.022.012-.033a.928.928,0,0,0,.056-.161,1.046,1.046,0,0,0,.017-.107.824.824,0,0,0,.014-.1c-.006-.065-.01-.128-.018-.191Z" transform="translate(-256.225 -118.145)" fill="#fff" fill-rule="evenodd"/>
        <path id="Path_1014-2" data-name="Path 1014" d="M290.875,136.524H258.632a1.056,1.056,0,1,0,0,2.111h32.245a1.056,1.056,0,1,0,0-2.111Z" transform="translate(-257.576 -114.746)" fill="#fff" fill-rule="evenodd"/>
      </g>
    </g>
    <g id="Group_105" data-name="Group 105" transform="translate(-79.285 -566.005)">
      <path id="Path_1017" data-name="Path 1017" d="M658.951,42.844A3.051,3.051,0,1,0,655.9,45.9a3.051,3.051,0,0,0,3.051-3.051" transform="translate(43.847 567.404)" fill="#fff" fill-rule="evenodd"/>
      <path id="Path_1018" data-name="Path 1018" d="M659.912,34.366a7.628,7.628,0,1,0-7.626,7.627,7.626,7.626,0,0,0,7.626-7.627" transform="translate(39.511 560.495)" fill="#ff9600" fill-rule="evenodd"/>
      <path id="Path_1019" data-name="Path 1019" d="M651.985,45.023a5.231,5.231,0,1,0-5.23,5.232,5.229,5.229,0,0,0,5.23-5.232" transform="translate(37.853 567.405)" fill="#00e7ca" fill-rule="evenodd"/>
      <g id="Group_103" data-name="Group 103" transform="translate(570 620.684)">
        <path id="Path_1020" data-name="Path 1020" d="M579.079,48.612a8.4,8.4,0,0,1,6.259,2.613,10.006,10.006,0,0,1,2.818,6.465v54.333a6.616,6.616,0,0,0,1.789,4.677,5.909,5.909,0,0,0,4.537,1.927,8.948,8.948,0,0,1,6.261,2.474,8.418,8.418,0,0,1,.551,12.038,9.513,9.513,0,0,1-5.848,3.1h-1.925a21.185,21.185,0,0,1-9.078-1.994,25.547,25.547,0,0,1-7.5-5.3,24.451,24.451,0,0,1-5.089-7.7A23.451,23.451,0,0,1,570,112.023V57.138a9.807,9.807,0,0,1,2.889-5.913,8.883,8.883,0,0,1,6.19-2.613" transform="translate(-570 -48.612)" fill="#fff" fill-rule="evenodd"/>
      </g>
      <path id="Path_1021" data-name="Path 1021" d="M626.405,110.978a15.439,15.439,0,0,0,5.982-1.17,14.861,14.861,0,0,0,4.884-3.232,15.851,15.851,0,0,0,3.3-4.883,15.066,15.066,0,0,0,1.237-6.12,14.427,14.427,0,0,0-1.237-5.848,16.043,16.043,0,0,0-8.322-8.322,14.393,14.393,0,0,0-5.846-1.237,13.91,13.91,0,0,0-5.777,1.237,16.337,16.337,0,0,0-4.884,3.37,16.086,16.086,0,0,0-3.369,4.952,14.426,14.426,0,0,0-1.239,5.848,14.036,14.036,0,0,0,1.306,5.981,16.224,16.224,0,0,0,3.439,4.885,16.956,16.956,0,0,0,4.883,3.3,13.611,13.611,0,0,0,5.641,1.238m3.988-48.557A32.167,32.167,0,0,1,642.017,66a32.794,32.794,0,0,1,9.354,7.359,34.824,34.824,0,0,1,6.19,10.179,32.26,32.26,0,0,1,2.269,12.037v24.345a8.411,8.411,0,0,1-2.751,6.327,8.815,8.815,0,0,1-13.895-1.786,7.572,7.572,0,0,0-1.236.619c-.367.228-.736.433-1.1.616a36.683,36.683,0,0,1-6.742,2.34,33.543,33.543,0,0,1-7.565.824,31.78,31.78,0,0,1-18.432-5.571,34.328,34.328,0,0,1-12.1-14.373,36.656,36.656,0,0,1-2.133-6.465,31.685,31.685,0,0,1,0-13.756,36.661,36.661,0,0,1,2.133-6.465,33.7,33.7,0,0,1,12.1-14.442,32.074,32.074,0,0,1,18.432-5.5h2a13.581,13.581,0,0,1,1.857.137" transform="translate(12.234 579.307)" fill="#fff" fill-rule="evenodd"/>
      <path id="Path_1022" data-name="Path 1022" d="M694.224,105.919a15.4,15.4,0,0,1-30.8,0v-.031c0-8.507,7.964-11.592,15.4-6.472,11.624,7.994,15.395-2.035,15.395,6.472Zm15.555-13A31.828,31.828,0,0,0,693.62,76.129a35.4,35.4,0,0,0-9.911-3.025,34.891,34.891,0,0,0-10.243,0,31.959,31.959,0,0,0-9.98,3.226V60.512a10.737,10.737,0,0,0-.081-1.27h3.367a2.859,2.859,0,0,0,2.852-2.863V54.312a2.851,2.851,0,0,0-2.852-2.853H641.467a2.852,2.852,0,0,0-2.863,2.853v2.067a2.861,2.861,0,0,0,2.863,2.863H645.5a5.345,5.345,0,0,0-.032.585v46.081a30.523,30.523,0,0,0,2.753,12.793,35.251,35.251,0,0,0,7.36,10.6,35.852,35.852,0,0,0,10.656,7.218A31.031,31.031,0,0,0,678.9,139.2a31.888,31.888,0,0,0,12.783-2.61,33.762,33.762,0,0,0,10.594-7.157,34.638,34.638,0,0,0,7.218-10.587,31.48,31.48,0,0,0,2.693-12.934,33.191,33.191,0,0,0-2.41-12.994Z" transform="translate(36.308 573.578)" fill="#fff" fill-rule="evenodd"/>
      <path id="Path_1023" data-name="Path 1023" d="M725.163,66.349a31.066,31.066,0,0,1,22.81,9.391,8.031,8.031,0,0,1,2.08,6.04,8.289,8.289,0,0,1-2.618,5.77,9.118,9.118,0,0,1-6.17,2.415,7.726,7.726,0,0,1-6.174-2.415,14.31,14.31,0,0,0-9.928-3.758,13.748,13.748,0,0,0-5.839,1.274,16.728,16.728,0,0,0-4.829,3.354,15.858,15.858,0,0,0-3.286,4.764A13.551,13.551,0,0,0,710,98.819a14.311,14.311,0,0,0,1.21,5.837,15.066,15.066,0,0,0,3.354,4.831,16.77,16.77,0,0,0,4.829,3.287,12.529,12.529,0,0,0,5.771,1.073,14.291,14.291,0,0,0,9.928-3.624,8.438,8.438,0,0,1,12.344,0,7.582,7.582,0,0,1,1.881,2.55,8.319,8.319,0,0,1,.737,3.085,8.553,8.553,0,0,1-.469,3.155,8.183,8.183,0,0,1-1.61,2.75,32.918,32.918,0,0,1-10.332,7.112,31.369,31.369,0,0,1-12.479,2.415,30.78,30.78,0,0,1-12.613-2.617A33.656,33.656,0,0,1,695.172,111.3a30.76,30.76,0,0,1,0-24.823,33.254,33.254,0,0,1,7.114-10.33,35.732,35.732,0,0,1,10.4-7.112,29.812,29.812,0,0,1,12.479-2.684" transform="translate(64.862 581.459)" fill="#fff" fill-rule="evenodd"/>
      <path id="Path_1024" data-name="Path 1024" d="M743.219,66.26a9.053,9.053,0,0,1,8.854,8.99V98.867a14.337,14.337,0,0,0,1.208,5.837,15.161,15.161,0,0,0,7.984,7.984A14.364,14.364,0,0,0,767.1,113.9a15.034,15.034,0,0,0,5.638-1.073,15.778,15.778,0,0,0,4.762-2.954,13.535,13.535,0,0,0,3.288-4.56A13.912,13.912,0,0,0,782,99.538V75.117a7.657,7.657,0,0,1,1.343-4.563,9.717,9.717,0,0,1,.6-.8q.335-.4.739-.805a7.794,7.794,0,0,1,6.039-2.684,8.638,8.638,0,0,1,6.307,2.684,8.5,8.5,0,0,1,2.684,5.77V98.867a31.485,31.485,0,0,1-2.551,12.614,32.786,32.786,0,0,1-17.31,17.31,31.822,31.822,0,0,1-12.748,2.548,28.386,28.386,0,0,1-12.342-2.213,33.393,33.393,0,0,1-17.579-17.042A29.028,29.028,0,0,1,734.5,99.806V75.117a8.575,8.575,0,0,1,2.482-6.1,8.687,8.687,0,0,1,6.239-2.753" transform="translate(87.059 581.412)" fill="#fff" fill-rule="evenodd"/>
      <path id="Path_1025" data-name="Path 1025" d="M826.28,108.839l-9.1,9.1a4.026,4.026,0,0,1-5.695,0l-9.1-9.1a4.025,4.025,0,0,1,0-5.695l9.1-9.1a4.026,4.026,0,0,1,5.695,0l9.1,9.1a4.025,4.025,0,0,1,0,5.695M844.515,93.3a30.954,30.954,0,0,0-15.759-16.37,34.094,34.094,0,0,0-19.661-2.943,30.562,30.562,0,0,0-9.729,3.146V61.695a9,9,0,0,0-.67-3.408,8.216,8.216,0,0,0-1.937-2.9,11.018,11.018,0,0,0-2.883-1.937,6.72,6.72,0,0,0-3.366-.612,6.541,6.541,0,0,0-3.146.539,9.455,9.455,0,0,0-2.751,1.821,9.7,9.7,0,0,0-2.011,2.68,6.754,6.754,0,0,0-.815,3.146v44.96a29.809,29.809,0,0,0,2.695,12.48,34.035,34.035,0,0,0,7.178,10.326,34.457,34.457,0,0,0,10.4,7.05,30.26,30.26,0,0,0,12.336,2.607,31.05,31.05,0,0,0,12.482-2.549,32.618,32.618,0,0,0,10.325-6.975,33.788,33.788,0,0,0,7.05-10.328,30.709,30.709,0,0,0,2.621-12.611,32.229,32.229,0,0,0-2.36-12.685" transform="translate(112.086 574.298)" fill="#fff" fill-rule="evenodd"/>
      <g id="Group_104" data-name="Group 104" transform="translate(963.112 647.807)">
        <path id="Path_1026" data-name="Path 1026" d="M871.747,89.964a17.783,17.783,0,0,0-5.366-4.494,14.933,14.933,0,0,0-13.754,0,18.047,18.047,0,0,0-5.3,4.494ZM859.537,66.348a29.528,29.528,0,0,1,12.346,2.684,35.283,35.283,0,0,1,17.575,17.509,29.037,29.037,0,0,1,2.685,12.278,8.589,8.589,0,0,1-2.616,6.172,8.278,8.278,0,0,1-6.508,2.549H847.326a14.105,14.105,0,0,0,12.211,6.308,13.931,13.931,0,0,0,3.623-.4,16.05,16.05,0,0,0,2.616-.938q1.14-.535,2.282-.939a7.8,7.8,0,0,1,2.616-.4,9,9,0,0,1,4.9,1.609,9.123,9.123,0,0,1,3.088,3.689,8.618,8.618,0,0,1,.67,4.765,8.386,8.386,0,0,1-2.349,4.695,20.809,20.809,0,0,1-8.05,4.094,42.1,42.1,0,0,1-9.393,1.274,27.31,27.31,0,0,1-12.346-2.347,34.126,34.126,0,0,1-10.4-7.112,33.612,33.612,0,0,1-7.111-10.534,31.088,31.088,0,0,1-2.618-12.479,29.863,29.863,0,0,1,2.618-12.211,34.763,34.763,0,0,1,7.045-10.4,34.26,34.26,0,0,1,10.332-7.179,29.812,29.812,0,0,1,12.479-2.684Z" transform="translate(-827.064 -66.348)" fill="#fff" fill-rule="evenodd"/>
      </g>
    </g>
  </g>
</svg>
