<svg xmlns="http://www.w3.org/2000/svg" width="23.409" height="23.409" viewBox="0 0 23.409 23.409">
  <path id="icon_visinaTezina" d="M25.244,9.781a2.562,2.562,0,0,0-.654-1.9,2.606,2.606,0,0,0-1.914-.649H4.922a2.606,2.606,0,0,0-1.914.649,2.562,2.562,0,0,0-.654,1.9l.01,5.117a2.562,2.562,0,0,0,.654,1.9,2.606,2.606,0,0,0,1.914.649H22.686a2.588,2.588,0,0,0,1.909-.649,2.574,2.574,0,0,0,.649-1.9Zm-1.631.273v4.57a1.079,1.079,0,0,1-1.182,1.191H5.156a1.155,1.155,0,0,1-.854-.308,1.2,1.2,0,0,1-.308-.884v-4.57A1.21,1.21,0,0,1,4.3,9.161a1.169,1.169,0,0,1,.864-.308H22.441a1.169,1.169,0,0,1,.864.308A1.21,1.21,0,0,1,23.613,10.055ZM6.016,8.326h-.8v4.961a.362.362,0,0,0,.112.273.4.4,0,0,0,.679-.283Zm1.641,0h-.8v3.379a.381.381,0,0,0,.117.288.349.349,0,0,0,.273.1.43.43,0,0,0,.293-.117.383.383,0,0,0,.107-.283Zm1.631,0h-.8v3.379a.381.381,0,0,0,.117.288.362.362,0,0,0,.283.1.417.417,0,0,0,.283-.117.383.383,0,0,0,.107-.283Zm1.631,0h-.791v3.379a.39.39,0,0,0,.112.288.347.347,0,0,0,.278.1.417.417,0,0,0,.283-.117.383.383,0,0,0,.107-.283Zm1.641,0h-.791v3.379a.381.381,0,0,0,.117.288.349.349,0,0,0,.273.1.417.417,0,0,0,.283-.117.383.383,0,0,0,.107-.283Zm1.65,0h-.8v4.961a.348.348,0,0,0,.122.273.4.4,0,0,0,.269.107.377.377,0,0,0,.4-.391Zm1.631,0h-.8v3.379a.374.374,0,0,0,.122.288.364.364,0,0,0,.278.1.417.417,0,0,0,.283-.117.383.383,0,0,0,.107-.283Zm1.641,0h-.8v3.379a.384.384,0,0,0,.41.391.406.406,0,0,0,.273-.117.383.383,0,0,0,.107-.283Zm1.631,0H18.32v3.379a.381.381,0,0,0,.117.288.362.362,0,0,0,.283.1A.425.425,0,0,0,19,11.979a.374.374,0,0,0,.112-.283Zm1.641,0h-.781v3.379a.39.39,0,0,0,.112.288.347.347,0,0,0,.278.1.417.417,0,0,0,.283-.117.383.383,0,0,0,.107-.283Zm1.641,0H21.6v4.961a.355.355,0,0,0,.117.273.4.4,0,0,0,.283.107.374.374,0,0,0,.283-.112.387.387,0,0,0,.107-.278Z" transform="translate(10.673 -6.778) rotate(45)" fill="#1d88e5"/>
</svg>
