<?xml version="1.0" encoding="UTF-8"?>
<svg width="30px" height="28px" viewBox="0 0 30 28" version="1.1" xmlns="http://www.w3.org/2000/svg" xmlns:xlink="http://www.w3.org/1999/xlink">
    <!-- Generator: sketchtool 52.6 (67491) - http://www.bohemiancoding.com/sketch -->
    <title>8A047D15-7F9E-4B42-8D75-BCAEB9C3C89E</title>
    <desc>Created with sketchtool.</desc>
    <g id="Main_nav" stroke="none" stroke-width="1" fill="none" fill-rule="evenodd">
        <g id="Grupe-Analiza" transform="translate(-192.000000, -4947.000000)" fill="#55D159" fill-rule="nonzero">
            <g id="heliko" transform="translate(192.000000, 4947.000000)">
                <path d="M1.70658683,25.3918829 C1.88622754,26.5624307 0.179640719,26.742515 0.0898203593,25.5719672 C-0.269461078,22.9607452 0.898203593,21.0698603 3.32335329,19.8092703 C3.50299401,16.6577955 6.37724551,15.2171213 9.25149701,13.8664892 C12.3053892,12.425815 15.2694611,10.8950987 13.3832335,6.93324462 C12.2155689,4.59214904 12.3952096,2.34109559 14.1916168,0.360168552 C15,-0.45021069 16.257485,0.720337104 15.4491018,1.53071635 C14.1017964,2.97139055 14.011976,4.41206476 14.9101796,6.21290752 C17.5149701,11.7054779 13.8323353,13.5963628 9.97005988,15.3972056 C7.36526946,16.6577955 4.94011976,17.648259 5.02994012,20.889776 C2.8742515,21.8802395 1.43712575,22.870703 1.70658683,25.3918829 Z M23.5329341,12.6058993 C25.8682635,12.6058993 25.8682635,16.3876691 23.5329341,16.3876691 C21.1077844,16.3876691 21.1077844,12.6058993 23.5329341,12.6058993 Z M20.2095808,18.0984697 C22.1856287,18.0984697 22.1856287,21.2499446 20.2095808,21.2499446 C18.1437126,21.2499446 18.1437126,18.0984697 20.2095808,18.0984697 Z M14.2814371,15.9374584 C16.257485,15.9374584 16.257485,19.0889332 14.2814371,19.0889332 C12.2155689,19.0889332 12.2155689,15.9374584 14.2814371,15.9374584 Z M10.1497006,18.8188068 C11.9461078,18.8188068 11.9461078,21.6101131 10.1497006,21.6101131 C8.35329341,21.6101131 8.35329341,18.8188068 10.1497006,18.8188068 Z M17.0658683,0.900421379 C17.3353293,-0.180084276 18.9520958,0.270126414 18.6826347,1.35063207 C18.3233533,2.52117986 18.0538922,3.78176979 18.4131737,4.77223331 C19.6706587,3.3315591 20.9281437,2.611222 22.6347305,2.88134841 C28.2934132,3.60168552 31.7065868,11.2552672 29.011976,16.4777112 C25.3293413,23.8611666 12.9341317,29.353737 7.7245509,24.3113772 C5.74850299,22.4204923 5.74850299,25.8420936 5.92814371,27.0126414 C6.10778443,28.093147 4.4011976,28.3632735 4.22155689,27.2827678 C3.59281437,22.6906188 6.28742515,20.6196496 8.89221557,23.1408295 C13.2035928,27.1927257 24.251497,22.2404081 27.4850299,15.7573741 C29.7305389,11.2552672 26.8562874,5.13240186 22.3652695,4.5021069 C20.4790419,4.23198048 19.5808383,6.48303393 18.6826347,6.84320248 C17.0658683,7.56353959 16.5269461,4.95231759 16.5269461,3.51164338 C16.5269461,2.79130628 16.7065868,1.8908849 17.0658683,0.900421379 Z" id="Shape"></path>
            </g>
        </g>
        <g id="Page"></g>
    </g>
</svg>