<?xml version="1.0" encoding="UTF-8"?>
<svg width="40px" height="34px" viewBox="0 0 40 34" version="1.1" xmlns="http://www.w3.org/2000/svg" xmlns:xlink="http://www.w3.org/1999/xlink">
    <!-- Generator: sketchtool 52.3 (67297) - http://www.bohemiancoding.com/sketch -->
    <title>23A2A893-511A-4DD2-A3B8-8DB89F24096A</title>
    <desc>Created with sketchtool.</desc>
    <g id="Main_nav" stroke="none" stroke-width="1" fill="none" fill-rule="evenodd">
        <g id="Home" transform="translate(-185.000000, -810.000000)" fill="#EE3131">
            <g id="hematologija" transform="translate(185.000000, 810.000000)">
                <path d="M11.6945658,0.000119337339 C11.4122633,0.0153830483 11.1365322,0.144052671 10.9417367,0.349052014 C5.34823529,6.46402738 0,13.7307597 0,20.7462606 C0,27.7204477 5.22582633,33.4998895 11.7647059,33.4998895 C18.3035854,33.4998895 23.5294118,27.7204477 23.5294118,20.7462606 C23.5294118,13.7329929 18.1810084,6.46626055 12.5876751,0.351285183 C12.3622745,0.111392572 12.0252661,-0.0194543901 11.6947899,0.00235250647 L11.6945658,0.000119337339 Z M11.7645938,2.84612591 C16.8722689,8.60770226 21.2884034,15.2201161 21.2884034,20.7460931 C21.2884034,26.6193279 16.9751261,31.2665528 11.7645938,31.2665528 C6.55406162,31.2665528 2.24078431,26.6192162 2.24078431,20.7460931 C2.24078431,15.2198927 6.65691877,8.60770226 11.7645938,2.84612591 Z M5.53210084,18.9668156 C5.02658824,19.0191555 4.58672269,19.4575042 4.53422969,19.9612458 C4.11406162,23.4396858 6.34840336,27.1604248 9.54123249,28.8939223 C10.0598768,29.1774287 10.7886275,28.9658918 11.0731092,28.4490303 C11.357591,27.9321689 11.1453277,27.2059367 10.6266779,26.9224359 C8.30264426,25.6619236 6.48847059,22.4560977 6.75765826,20.2229285 C6.84519328,19.5577791 6.20180952,18.8991617 5.53216807,18.9667709 L5.53210084,18.9668156 Z" id="Fill-1-Copy-7"></path>
                <path d="M34.082577,1.17247346 C33.9414258,1.18010532 33.8035602,1.24444013 33.7061625,1.3469398 C30.9094118,4.40442748 28.2352941,8.03779366 28.2352941,11.5455441 C28.2352941,15.0326377 30.8482073,17.9223585 34.1176471,17.9223585 C37.3870868,17.9223585 40,15.0326377 40,11.5455441 C40,8.03891024 37.3257983,4.40554407 34.5291317,1.34805638 C34.4164314,1.22811008 34.2479272,1.1626866 34.0826891,1.17359005 L34.082577,1.17247346 Z M31.0013445,10.6558216 C30.7485882,10.6819915 30.5286555,10.9011659 30.502409,11.1530367 C30.2923249,12.8922567 31.4094958,14.7526262 33.0059104,15.6193749 C33.2652325,15.7611281 33.6296078,15.6553597 33.7718487,15.396929 C33.9140896,15.1384983 33.807958,14.7753822 33.5486331,14.6336318 C32.3866162,14.0033756 31.4795294,12.4004626 31.6141232,11.2838781 C31.6578908,10.9513033 31.3361989,10.6219946 31.0013782,10.6557992 L31.0013445,10.6558216 Z" id="Fill-1-Copy-8"></path>
            </g>
        </g>
        <g id="Page"></g>
    </g>
</svg>