<?xml version="1.0" encoding="UTF-8"?>
<svg width="40px" height="40px" viewBox="0 0 40 40" version="1.1" xmlns="http://www.w3.org/2000/svg" xmlns:xlink="http://www.w3.org/1999/xlink">
    <!-- Generator: sketchtool 52.6 (67491) - http://www.bohemiancoding.com/sketch -->
    <title>F9E69211-2294-43A8-B1BC-64D4BD53F39D</title>
    <desc>Created with sketchtool.</desc>
    <g id="Main_nav" stroke="none" stroke-width="1" fill="none" fill-rule="evenodd">
        <g id="Grupe-Analiza" transform="translate(-187.000000, -4997.000000)" fill="#D13C3C" fill-rule="nonzero">
            <g id="hepatitisi" transform="translate(187.000000, 4997.000000)">
                <path d="M29.1928571,16.0764286 C29.1435714,15.9892857 29.0742857,15.92 28.9964286,15.8621429 L29,15.8571429 L20.4285714,9.42857143 L20.425,9.43357143 C20.3907143,9.40785714 20.3585714,9.38071429 20.3192857,9.36071429 C20.0764286,9.24 19.7878571,9.265 19.5714286,9.42857143 L11,15.8571429 L11.0035714,15.8614286 C10.9264286,15.9192857 10.8564286,15.9885714 10.8071429,16.0757143 C10.745,16.1857143 10.7157143,16.3071429 10.7157143,16.4285714 L10.7142857,16.4285714 L10.7142857,23.5714286 C10.7142857,23.805 10.8335714,24.0028571 11.0071429,24.1328571 L11,24.1428571 L19.5714286,30.5714286 C19.6985714,30.6671429 19.8492857,30.7142857 20,30.7142857 C20.1507143,30.7142857 20.3014286,30.6671429 20.4285714,30.5714286 L29,24.1428571 L28.9928571,24.1328571 C29.1664286,24.0028571 29.2857143,23.805 29.2857143,23.5714286 L29.2857143,16.4285714 L29.2842857,16.4285714 C29.2842857,16.3071429 29.255,16.1857143 29.1928571,16.0764286 Z M23.0242857,22.8571429 L16.9757143,22.8571429 L20,17.8171429 L23.0242857,22.8571429 Z M22.9514286,24.2857143 L20,28.7121429 L17.0485714,24.2857143 L22.9514286,24.2857143 Z M21.2614286,17.1428571 L27.31,17.1428571 L24.2857143,22.1828571 L21.2614286,17.1428571 Z M20.7142857,15.7142857 L20.7142857,11.4285714 L26.4285714,15.7142857 L20.7142857,15.7142857 Z M15.7142857,22.1828571 L12.69,17.1428571 L18.7385714,17.1428571 L15.7142857,22.1828571 Z M12.1428571,19.0071429 L14.4528571,22.8571429 L12.1428571,22.8571429 L12.1428571,19.0071429 Z M15.3321429,24.2857143 L17.0928571,26.9264286 L13.5714286,24.2857143 L15.3321429,24.2857143 Z M24.6678571,24.2857143 L26.4285714,24.2857143 L22.9071429,26.9264286 L24.6678571,24.2857143 Z M25.5471429,22.8571429 L27.8571429,19.0071429 L27.8571429,22.8571429 L25.5471429,22.8571429 Z M19.2857143,15.7142857 L13.5714286,15.7142857 L19.2857143,11.4285714 L19.2857143,15.7142857 Z" id="Shape"></path>
                <path d="M37.6214286,17.1914286 C37.1828571,14.4242857 36.0957143,11.7985714 34.4471429,9.52785714 C34.7885714,9.04857143 34.9792857,8.48 34.9792857,7.87857143 C34.9792857,7.11571429 34.6821429,6.39857143 34.1421429,5.85857143 C33.1778571,4.89428571 31.5771429,4.79714286 30.4764286,5.55642857 C28.2042857,3.90642857 25.5771429,2.81714286 22.8085714,2.37928571 C22.5792857,1.03071429 21.4114286,0 20,0 C18.5885714,0 17.4207143,1.03071429 17.1914286,2.37785714 C14.4228571,2.81642857 11.7964286,3.905 9.52357143,5.555 C8.42285714,4.79642857 6.82214286,4.89285714 5.85785714,5.85714286 C5.31785714,6.39714286 5.02071429,7.11428571 5.02071429,7.87714286 C5.02071429,8.47857143 5.21142857,9.04714286 5.55285714,9.52642857 C3.90428571,11.7978571 2.81714286,14.4235714 2.37857143,17.19 C1.03142857,17.4207143 0,18.5878571 0,20 C0,21.4121429 1.03142857,22.5792857 2.37857143,22.8085714 C2.81714286,25.5757143 3.90428571,28.2014286 5.55285714,30.4721429 C5.21142857,30.9514286 5.02071429,31.52 5.02071429,32.1214286 C5.02071429,32.8842857 5.31785714,33.6014286 5.85785714,34.1414286 C6.39714286,34.6814286 7.115,34.9785714 7.87785714,34.9785714 C8.47857143,34.9785714 9.04785714,34.7885714 9.52714286,34.4464286 C11.7985714,36.095 14.4242857,37.1828571 17.1907143,37.6214286 C17.4207143,38.9692857 18.5885714,40 20,40 C21.4114286,40 22.5792857,38.9692857 22.8085714,37.6221429 C25.5757143,37.1835714 28.2007143,36.0957143 30.4721429,34.4471429 C30.9521429,34.7885714 31.5207143,34.9792857 32.1214286,34.9792857 C32.8842857,34.9792857 33.6021429,34.6821429 34.1414286,34.1421429 C34.6814286,33.6021429 34.9785714,32.885 34.9785714,32.1221429 C34.9785714,31.5207143 34.7878571,30.9521429 34.4464286,30.4728571 C36.095,28.2014286 37.1821429,25.5757143 37.6207143,22.8092857 C38.9685714,22.5792857 40,21.4121429 40,20 C40,18.5878571 38.9685714,17.4207143 37.6214286,17.1914286 Z M33.1321429,6.86785714 C33.4021429,7.13785714 33.5507143,7.49642857 33.5507143,7.87785714 C33.5507143,8.25928571 33.4021429,8.61785714 33.1321429,8.88785714 C33.1135714,8.90642857 33.0914286,8.91928571 33.0721429,8.93642857 C33.0685714,8.94 33.0628571,8.94071429 33.0592857,8.94357143 C32.9907143,9.00428571 32.9171429,9.05642857 32.8407143,9.10142857 C32.8314286,9.10642857 32.8214286,9.11071429 32.8121429,9.11571429 C32.7521429,9.14928571 32.69,9.18642857 32.6264286,9.21071429 C32.5514286,9.23857143 32.4757143,9.28571429 32.3985714,9.28571429 C32.3985714,9.28571429 32.3978571,9.28571429 32.3978571,9.28571429 C31.9428571,9.28571429 31.4492857,9.23428571 31.1114286,8.89714286 C31.0457143,8.83142857 30.9878571,8.75571429 30.9371429,8.68071429 C30.5864286,8.15571429 30.6214286,7.43714286 31.0557143,6.94285714 C31.06,6.93785714 31.0607143,6.93 31.065,6.925 C31.0814286,6.90714286 31.0935714,6.88571429 31.1114286,6.86857143 C31.6514286,6.32857143 32.5921429,6.32785714 33.1321429,6.86785714 Z M20,1.42857143 C20.7878571,1.42857143 21.4285714,2.06928571 21.4285714,2.85714286 C21.4285714,2.88214286 21.4228571,2.905 21.4214286,2.92928571 C21.4207143,2.93571429 21.4171429,2.94071429 21.4164286,2.94714286 C21.3807143,3.50857143 21.0228571,3.97928571 20.5321429,4.18071429 C20.5121429,4.18857143 20.49,4.19285714 20.4692857,4.2 C20.4064286,4.22214286 20.3435714,4.24428571 20.2771429,4.25785714 C20.1878571,4.27571429 20.095,4.28571429 20,4.28571429 C19.905,4.28571429 19.8121429,4.27571429 19.7221429,4.25785714 C19.6557143,4.24428571 19.5928571,4.22285714 19.53,4.2 C19.5092857,4.19285714 19.4871429,4.18857143 19.4671429,4.18071429 C18.9771429,3.97928571 18.6192857,3.50928571 18.5828571,2.94714286 C18.5821429,2.94071429 18.5785714,2.93571429 18.5778571,2.92928571 C18.5771429,2.905 18.5714286,2.88214286 18.5714286,2.85714286 C18.5714286,2.06928571 19.2121429,1.42857143 20,1.42857143 Z M6.86785714,6.86785714 C7.13785714,6.59785714 7.49642857,6.44928571 7.87785714,6.44928571 C8.25928571,6.44928571 8.61857143,6.59785714 8.88857143,6.86785714 C8.90571429,6.885 8.91857143,6.90571429 8.935,6.92428571 C8.93928571,6.92928571 8.94,6.93571429 8.94428571,6.94071429 C9.37857143,7.43428571 9.41428571,8.15142857 9.06285714,8.67642857 C9.01214286,8.75142857 8.95428571,8.82285714 8.88857143,8.88857143 C8.55142857,9.22571429 8.05857143,9.35214286 7.60428571,9.26857143 C7.6,9.26785714 7.595,9.26642857 7.59071429,9.265 C7.51785714,9.25071429 7.44642857,9.22928571 7.37642857,9.20357143 C7.31071429,9.17857143 7.24571429,9.14928571 7.18285714,9.11428571 C7.17571429,9.11071429 7.16857143,9.10714286 7.16142857,9.10357143 C7.08428571,9.05857143 7.01071429,9.00571429 6.94142857,8.945 C6.93785714,8.94142857 6.93214286,8.94071429 6.92857143,8.93785714 C6.90928571,8.92071429 6.88714286,8.90785714 6.86857143,8.88928571 C6.59857143,8.61928571 6.45,8.26071429 6.45,7.87928571 C6.45,7.49785714 6.59785714,7.13785714 6.86785714,6.86785714 Z M1.42857143,20 C1.42857143,19.2121429 2.06928571,18.5714286 2.85714286,18.5714286 C2.88142857,18.5714286 2.90428571,18.5771429 2.92857143,18.5785714 C2.93571429,18.5792857 2.94142857,18.5835714 2.94785714,18.5835714 C3.41642857,18.6135714 3.82214286,18.8671429 4.06,19.2364286 C4.06,19.2364286 4.06,19.2364286 4.06,19.2364286 C4.10642857,19.3092857 4.14642857,19.3857143 4.18,19.4664286 C4.19,19.4907143 4.195,19.5171429 4.20357143,19.5421429 C4.22428571,19.6014286 4.245,19.66 4.25785714,19.7221429 C4.27571429,19.8121429 4.28571429,19.905 4.28571429,20 C4.28571429,20.095 4.27571429,20.1878571 4.25785714,20.2778571 C4.245,20.34 4.22428571,20.3992857 4.20357143,20.4585714 C4.195,20.4828571 4.19,20.5092857 4.18071429,20.5328571 C4.14785714,20.6135714 4.10785714,20.6907143 4.06071429,20.7628571 C4.06071429,20.7628571 4.06071429,20.7628571 4.06071429,20.7628571 C3.82285714,21.1314286 3.41714286,21.3857143 2.94857143,21.4157143 C2.94142857,21.4164286 2.93571429,21.4207143 2.92857143,21.4214286 C2.90428571,21.4228571 2.88142857,21.4285714 2.85714286,21.4285714 C2.06928571,21.4285714 1.42857143,20.7878571 1.42857143,20 Z M6.86785714,33.1321429 C6.59785714,32.8621429 6.44928571,32.5035714 6.44928571,32.1221429 C6.44928571,31.7407143 6.59785714,31.3821429 6.86785714,31.1121429 C6.885,31.095 6.90571429,31.0821429 6.92357143,31.0664286 C6.92857143,31.0621429 6.93571429,31.0607143 6.94071429,31.0564286 C7.50571429,30.5607143 8.36071429,30.585 8.88857143,31.1121429 C8.95428571,31.1778571 9.01214286,31.2492857 9.06285714,31.3242857 C9.41428571,31.8492857 9.37857143,32.5657143 8.94428571,33.06 C8.94,33.065 8.93928571,33.0714286 8.935,33.0764286 C8.91857143,33.0942857 8.90642857,33.115 8.88857143,33.1328571 C8.34857143,33.6721429 7.40785714,33.6721429 6.86785714,33.1321429 Z M20,38.5714286 C19.2121429,38.5714286 18.5714286,37.9307143 18.5714286,37.1428571 C18.5714286,37.1178571 18.5771429,37.095 18.5785714,37.0707143 C18.5792857,37.0642857 18.5828571,37.0592857 18.5835714,37.0528571 C18.6192857,36.4914286 18.9771429,36.0207143 19.4671429,35.8192857 C19.4885714,35.8107143 19.5114286,35.8064286 19.5328571,35.7985714 C19.595,35.7764286 19.6564286,35.755 19.7221429,35.7421429 C19.8121429,35.7242857 19.905,35.7142857 20,35.7142857 C20.095,35.7142857 20.1878571,35.7242857 20.2778571,35.7421429 C20.3428571,35.755 20.405,35.7771429 20.4671429,35.7985714 C20.4885714,35.8064286 20.5121429,35.8107143 20.5328571,35.8192857 C21.0228571,36.0207143 21.3807143,36.4907143 21.4164286,37.0528571 C21.4171429,37.0592857 21.4207143,37.0642857 21.4214286,37.0707143 C21.4228571,37.095 21.4285714,37.1178571 21.4285714,37.1428571 C21.4285714,37.9307143 20.7878571,38.5714286 20,38.5714286 Z M33.1321429,33.1321429 C32.5921429,33.6721429 31.6514286,33.6721429 31.1114286,33.1321429 C31.0942857,33.115 31.0814286,33.0942857 31.065,33.0757143 C31.0607143,33.0707143 31.06,33.0642857 31.0557143,33.0592857 C30.6214286,32.5657143 30.5857143,31.8485714 30.9371429,31.3235714 C30.9878571,31.2485714 31.0457143,31.1771429 31.1114286,31.1114286 C31.4485714,30.7742857 31.9414286,30.6478571 32.3957143,30.7314286 C32.3992857,30.7321429 32.4028571,30.7335714 32.4064286,30.7342857 C32.4807143,30.7485714 32.5528571,30.7707143 32.6242857,30.7964286 C32.6892857,30.8214286 32.7528571,30.85 32.8142857,30.8842857 C32.8221429,30.8885714 32.8307143,30.8921429 32.8392857,30.8971429 C32.9157143,30.9421429 32.99,30.995 33.0585714,31.0557143 C33.0621429,31.0592857 33.0678571,31.06 33.0714286,31.0635714 C33.0907143,31.0807143 33.1128571,31.0935714 33.1314286,31.1121429 C33.4014286,31.3821429 33.55,31.7407143 33.55,32.1221429 C33.55,32.5035714 33.4021429,32.8621429 33.1321429,33.1321429 Z M33.3592857,29.5564286 C33.3164286,29.5357143 33.2714286,29.5235714 33.2285714,29.505 C33.2135714,29.4992857 33.1992857,29.4935714 33.1842857,29.4878571 C32.3292857,29.1421429 31.3507143,29.2271429 30.5692857,29.7335714 C30.5557143,29.7421429 30.5414286,29.75 30.5285714,29.7585714 C30.3792857,29.8592857 30.2342857,29.97 30.1028571,30.1021429 C29.9807143,30.2242857 29.875,30.3571429 29.7792857,30.4957143 C29.7407143,30.5507143 29.71,30.6085714 29.6757143,30.6664286 C29.6257143,30.7507143 29.5792857,30.835 29.5385714,30.9228571 C29.5035714,30.9985714 29.4721429,31.075 29.4442857,31.1535714 C29.4185714,31.2257143 29.3978571,31.2985714 29.3778571,31.3721429 C29.3535714,31.4628571 29.3278571,31.5521429 29.3128571,31.645 C29.305,31.6921429 29.3042857,31.74 29.2992857,31.7871429 C29.2864286,31.8985714 29.2664286,32.0085714 29.2664286,32.1228571 C29.2664286,32.23 29.2857143,32.3328571 29.2971429,32.4371429 C29.3014286,32.4728571 29.3021429,32.5085714 29.3078571,32.5442857 C29.3257143,32.6657143 29.3535714,32.7828571 29.3871429,32.9 C29.3964286,32.9314286 29.4057143,32.9628571 29.4157143,32.9942857 C29.455,33.1164286 29.4992857,33.235 29.555,33.3507143 C29.5564286,33.3535714 29.5571429,33.3571429 29.5585714,33.36 C27.5164286,34.8228571 25.165,35.7964286 22.6914286,36.205 C22.6885714,36.1957143 22.6835714,36.1878571 22.68,36.1792857 C22.6392857,36.0678571 22.5921429,35.9607143 22.5385714,35.8557143 C22.5185714,35.8157143 22.4964286,35.7771429 22.4742857,35.7378571 C22.4178571,35.6392857 22.36,35.5435714 22.2935714,35.4535714 C22.2671429,35.4171429 22.2357143,35.3842857 22.2078571,35.3492857 C22.0871429,35.2007143 21.9528571,35.0664286 21.805,34.945 C21.7535714,34.9021429 21.7042857,34.8557143 21.65,34.8171429 C21.5842857,34.7707143 21.5142857,34.7321429 21.4442857,34.6907143 C21.3671429,34.645 21.2892857,34.6007143 21.2071429,34.5621429 C21.1407143,34.5314286 21.0735714,34.5035714 21.005,34.4778571 C20.905,34.44 20.8028571,34.4092857 20.6978571,34.3821429 C20.6392857,34.3671429 20.5814286,34.35 20.5214286,34.3392857 C20.35,34.3064286 20.1778571,34.2857143 20,34.2857143 C19.8221429,34.2857143 19.65,34.3064286 19.4807143,34.3385714 C19.4207143,34.35 19.3635714,34.3671429 19.3042857,34.3814286 C19.1992857,34.4078571 19.0971429,34.4385714 18.9971429,34.4771429 C18.9285714,34.5028571 18.8614286,34.5307143 18.795,34.5614286 C18.7135714,34.6 18.635,34.6442857 18.5578571,34.69 C18.4885714,34.7307143 18.4178571,34.7692857 18.3521429,34.8164286 C18.2971429,34.8557143 18.2485714,34.9014286 18.1971429,34.9442857 C18.0492857,35.0657143 17.9157143,35.2 17.7942857,35.3485714 C17.7657143,35.3835714 17.735,35.4164286 17.7085714,35.4528571 C17.6414286,35.5435714 17.5835714,35.6392857 17.5278571,35.7371429 C17.5057143,35.7757143 17.4842857,35.815 17.4635714,35.855 C17.41,35.96 17.3621429,36.0664286 17.3221429,36.1785714 C17.3185714,36.1878571 17.3135714,36.1957143 17.3107143,36.2042857 C14.8371429,35.7957143 12.4864286,34.8214286 10.4435714,33.3592857 C10.445,33.3564286 10.4457143,33.3528571 10.4471429,33.35 C10.5021429,33.2342857 10.5471429,33.1157143 10.5864286,32.9935714 C10.5964286,32.9621429 10.6057143,32.9307143 10.615,32.8992857 C10.6478571,32.7821429 10.6757143,32.665 10.6942857,32.5435714 C10.7,32.5071429 10.7007143,32.4714286 10.705,32.435 C10.7164286,32.3307143 10.7357143,32.2278571 10.7357143,32.1214286 C10.7357143,32.0078571 10.7157143,31.8971429 10.7028571,31.7857143 C10.6971429,31.7385714 10.6964286,31.6907143 10.6892857,31.6435714 C10.6735714,31.5507143 10.6485714,31.4607143 10.6242857,31.3707143 C10.6042857,31.2971429 10.5835714,31.2242857 10.5578571,31.1514286 C10.5292857,31.0728571 10.4985714,30.9964286 10.4635714,30.9207143 C10.4228571,30.8328571 10.3757143,30.7478571 10.3264286,30.6635714 C10.2921429,30.6064286 10.2614286,30.5485714 10.2235714,30.4935714 C10.1278571,30.3557143 10.0228571,30.2228571 9.9,30.1 C9.76857143,29.9685714 9.62428571,29.8578571 9.475,29.7571429 C9.46071429,29.7478571 9.44571429,29.74 9.43142857,29.7307143 C8.65071429,29.2264286 7.67357143,29.1421429 6.82,29.4857143 C6.80428571,29.4914286 6.78857143,29.4978571 6.77285714,29.5042857 C6.73,29.5221429 6.685,29.5342857 6.64285714,29.555 C5.18,27.5128571 4.20571429,25.1621429 3.79785714,22.6878571 C3.80642857,22.685 3.81428571,22.68 3.82285714,22.6771429 C3.935,22.6364286 4.04142857,22.5892857 4.14642857,22.5357143 C4.18714286,22.515 4.22642857,22.4935714 4.26571429,22.4707143 C4.36357143,22.415 4.45785714,22.3578571 4.54785714,22.2914286 C4.58642857,22.2628571 4.62071429,22.2307143 4.65785714,22.2007143 C4.8,22.0842857 4.92928571,21.9557143 5.04714286,21.8142857 C5.09357143,21.7585714 5.14357143,21.7057143 5.18571429,21.6457143 C5.23142857,21.5814286 5.26928571,21.5121429 5.31,21.4435714 C5.35642857,21.365 5.40142857,21.2857143 5.44071429,21.2028571 C5.47142857,21.1371429 5.49857143,21.0707143 5.52428571,21.0028571 C5.56285714,20.9021429 5.59357143,20.7992857 5.62071429,20.6935714 C5.63571429,20.635 5.65214286,20.5785714 5.66357143,20.5185714 C5.69357143,20.3507143 5.71428571,20.1778571 5.71428571,20 C5.71428571,19.8221429 5.69357143,19.6492857 5.66142857,19.48 C5.65,19.42 5.63357143,19.3635714 5.61857143,19.305 C5.59142857,19.1992857 5.56071429,19.0964286 5.52214286,18.9957143 C5.49642857,18.9278571 5.46928571,18.8614286 5.43857143,18.7957143 C5.39928571,18.7128571 5.355,18.6335714 5.30785714,18.555 C5.26714286,18.4864286 5.23,18.4171429 5.18357143,18.3528571 C5.14142857,18.2935714 5.09142857,18.2407143 5.045,18.1842857 C4.92785714,18.0428571 4.79785714,17.9142857 4.65571429,17.7978571 C4.61857143,17.7678571 4.58428571,17.735 4.54571429,17.7071429 C4.45571429,17.6407143 4.36071429,17.5835714 4.26357143,17.5278571 C4.22428571,17.5057143 4.185,17.4835714 4.14428571,17.4628571 C4.03928571,17.4092857 3.93285714,17.3614286 3.82071429,17.3214286 C3.81214286,17.3185714 3.80428571,17.3135714 3.79571429,17.3107143 C4.20357143,14.8364286 5.17785714,12.4857143 6.64071429,10.4435714 C6.64357143,10.445 6.64642857,10.4457143 6.64857143,10.4464286 C6.76285714,10.5014286 6.88,10.545 7,10.5842857 C7.03642857,10.5964286 7.07214286,10.6071429 7.10857143,10.6171429 C7.22,10.6485714 7.33214286,10.675 7.44714286,10.6928571 C7.49785714,10.7007143 7.54928571,10.7028571 7.6,10.7078571 C7.69214286,10.7171429 7.78285714,10.735 7.87642857,10.735 C7.96,10.735 8.04,10.7178571 8.12214286,10.7107143 C8.20285714,10.7042857 8.28285714,10.7007143 8.36285714,10.6871429 C8.44642857,10.6728571 8.52714286,10.65 8.60928571,10.6278571 C8.69214286,10.6064286 8.77428571,10.5828571 8.855,10.5535714 C8.92785714,10.5271429 8.99928571,10.4978571 9.07,10.465 C9.16285714,10.4221429 9.25285714,10.3728571 9.34142857,10.3192857 C9.395,10.2871429 9.44928571,10.2578571 9.50071429,10.2221429 C9.63928571,10.1264286 9.77285714,10.02 9.89642857,9.89714286 C10.0185714,9.775 10.1242857,9.64214286 10.22,9.50357143 C10.2578571,9.44857143 10.2892857,9.39071429 10.3228571,9.33357143 C10.3728571,9.24928571 10.42,9.165 10.46,9.07642857 C10.495,9.00071429 10.5257143,8.92428571 10.5542857,8.84571429 C10.58,8.77357143 10.6007143,8.70071429 10.6207143,8.62642857 C10.645,8.53571429 10.6707143,8.44642857 10.6857143,8.35357143 C10.6935714,8.30642857 10.6942857,8.25857143 10.6992857,8.21142857 C10.7121429,8.1 10.7321429,7.99 10.7321429,7.87571429 C10.7321429,7.76928571 10.7128571,7.66642857 10.7014286,7.56214286 C10.6971429,7.52571429 10.6964286,7.48928571 10.6907143,7.45357143 C10.6728571,7.33214286 10.645,7.215 10.6114286,7.09785714 C10.6021429,7.06642857 10.5928571,7.035 10.5828571,7.00357143 C10.5435714,6.88142857 10.4992857,6.76285714 10.4435714,6.64714286 C10.4421429,6.64428571 10.4414286,6.64071429 10.44,6.63785714 C12.4821429,5.175 14.8335714,4.20142857 17.3071429,3.79285714 C17.31,3.80214286 17.315,3.81 17.3185714,3.81857143 C17.3592857,3.93 17.4064286,4.03714286 17.46,4.14214286 C17.48,4.18214286 17.5021429,4.22071429 17.5242857,4.26 C17.5807143,4.35857143 17.6385714,4.45428571 17.705,4.54428571 C17.7314286,4.58071429 17.7628571,4.61357143 17.7907143,4.64857143 C17.9114286,4.79714286 18.0457143,4.93142857 18.1935714,5.05285714 C18.245,5.09571429 18.2942857,5.14214286 18.3485714,5.18071429 C18.4142857,5.22714286 18.4842857,5.26571429 18.5542857,5.30714286 C18.6314286,5.35285714 18.7092857,5.39714286 18.7914286,5.43571429 C18.8578571,5.46642857 18.925,5.49428571 18.9935714,5.52 C19.0935714,5.55785714 19.1957143,5.58857143 19.3007143,5.61571429 C19.3592857,5.63071429 19.4171429,5.64785714 19.4771429,5.65857143 C19.65,5.69357143 19.8221429,5.71428571 20,5.71428571 C20.1778571,5.71428571 20.35,5.69357143 20.5192857,5.66142857 C20.5792857,5.65 20.6364286,5.63285714 20.6957143,5.61857143 C20.8007143,5.59214286 20.9028571,5.56142857 21.0028571,5.52285714 C21.0714286,5.49714286 21.1385714,5.46928571 21.205,5.43857143 C21.2864286,5.4 21.365,5.35571429 21.4421429,5.31 C21.5114286,5.26928571 21.5821429,5.23071429 21.6478571,5.18357143 C21.7028571,5.14428571 21.7514286,5.09857143 21.8028571,5.05571429 C21.9507143,4.93428571 22.0842857,4.8 22.2057143,4.65142857 C22.2342857,4.61642857 22.265,4.58357143 22.2914286,4.54714286 C22.3585714,4.45642857 22.4164286,4.36071429 22.4721429,4.26285714 C22.4942857,4.22428571 22.5157143,4.185 22.5364286,4.145 C22.59,4.04 22.6378571,3.93357143 22.6778571,3.82142857 C22.6814286,3.81214286 22.6864286,3.80428571 22.6892857,3.79571429 C25.1628571,4.20428571 27.5135714,5.17857143 29.5564286,6.64071429 C29.555,6.64357143 29.5542857,6.64714286 29.5528571,6.65 C29.4978571,6.76571429 29.4528571,6.88428571 29.4135714,7.00642857 C29.4035714,7.03785714 29.3942857,7.06928571 29.385,7.10071429 C29.3521429,7.21785714 29.3235714,7.335 29.3057143,7.45642857 C29.3,7.49214286 29.2992857,7.52785714 29.295,7.56357143 C29.2835714,7.66785714 29.2642857,7.77142857 29.2642857,7.87785714 C29.2642857,7.99142857 29.2842857,8.10214286 29.2971429,8.21357143 C29.3028571,8.26071429 29.3035714,8.30857143 29.3107143,8.35571429 C29.3264286,8.44857143 29.3514286,8.53857143 29.3757143,8.62857143 C29.3957143,8.70214286 29.4164286,8.775 29.4421429,8.84714286 C29.4707143,8.92571429 29.5014286,9.00214286 29.5364286,9.07785714 C29.5764286,9.16571429 29.6235714,9.25 29.6735714,9.33428571 C29.7078571,9.39142857 29.7385714,9.45 29.7771429,9.505 C29.8728571,9.64285714 29.9778571,9.77571429 30.1007143,9.89857143 C30.2235714,10.0214286 30.3564286,10.1271429 30.495,10.2228571 C30.5485714,10.2607143 30.6064286,10.2907143 30.6621429,10.3242857 C30.7471429,10.375 30.8335714,10.4228571 30.9221429,10.4635714 C30.9971429,10.4985714 31.0721429,10.5285714 31.1492857,10.5571429 C31.2235714,10.5835714 31.2978571,10.605 31.3735714,10.625 C31.4621429,10.6492857 31.55,10.6735714 31.6414286,10.6892857 C31.6935714,10.6978571 31.7457143,10.6985714 31.7985714,10.7042857 C31.9057143,10.7164286 32.0114286,10.7357143 32.1207143,10.7357143 C32.2257143,10.7357143 32.3271429,10.7164286 32.43,10.7057143 C32.4678571,10.7014286 32.505,10.7007143 32.5421429,10.695 C32.6635714,10.6771429 32.7807143,10.6492857 32.8971429,10.6164286 C32.9285714,10.6071429 32.96,10.5978571 32.9907143,10.5878571 C33.1135714,10.5485714 33.2328571,10.5035714 33.3485714,10.4478571 C33.3514286,10.4464286 33.3542857,10.4457143 33.3564286,10.445 C34.8192857,12.4871429 35.7935714,14.8378571 36.2014286,17.3121429 C36.1928571,17.315 36.185,17.32 36.1764286,17.3228571 C36.0642857,17.3635714 35.9578571,17.4107143 35.8528571,17.4642857 C35.8121429,17.485 35.7728571,17.5064286 35.7335714,17.5292857 C35.6357143,17.585 35.5407143,17.6421429 35.4507143,17.7085714 C35.4121429,17.7364286 35.3778571,17.7692857 35.3414286,17.7992857 C35.1992857,17.9157143 35.0692857,18.0442857 34.9514286,18.1857143 C34.905,18.2414286 34.855,18.2942857 34.8128571,18.3542857 C34.7671429,18.4185714 34.7292857,18.4878571 34.6885714,18.5564286 C34.6421429,18.635 34.5971429,18.7142857 34.5578571,18.7971429 C34.5271429,18.8628571 34.5,18.9292857 34.4742857,18.9971429 C34.4357143,19.0978571 34.405,19.2007143 34.3785714,19.3057143 C34.3635714,19.3642857 34.3464286,19.4214286 34.3357143,19.4814286 C34.3064286,19.6492857 34.2857143,19.8221429 34.2857143,20 C34.2857143,20.1778571 34.3064286,20.3507143 34.3385714,20.5192857 C34.35,20.5792857 34.3664286,20.6364286 34.3814286,20.695 C34.4085714,20.8 34.4392857,20.9035714 34.4771429,21.0035714 C34.5028571,21.0721429 34.53,21.1378571 34.5607143,21.2035714 C34.6,21.2864286 34.6442857,21.3657143 34.6914286,21.4442857 C34.7321429,21.5128571 34.7692857,21.5821429 34.8157143,21.6464286 C34.8578571,21.7057143 34.9078571,21.7585714 34.9542857,21.815 C35.0721429,21.9564286 35.2014286,22.085 35.3442857,22.2014286 C35.3814286,22.2314286 35.4157143,22.2635714 35.4535714,22.2921429 C35.5435714,22.3585714 35.6385714,22.4157143 35.7364286,22.4714286 C35.7757143,22.4935714 35.815,22.5157143 35.8557143,22.5364286 C35.9607143,22.59 36.0671429,22.6378571 36.1792857,22.6778571 C36.1878571,22.6807143 36.1957143,22.6857143 36.2042857,22.6885714 C35.7957143,25.1635714 34.8214286,27.5142857 33.3592857,29.5564286 Z M37.1428571,21.4285714 C37.1185714,21.4285714 37.0957143,21.4228571 37.0714286,21.4214286 C37.0642857,21.4207143 37.0585714,21.4164286 37.0521429,21.4164286 C36.5835714,21.3864286 36.1778571,21.1328571 35.94,20.7635714 C35.94,20.7635714 35.94,20.7635714 35.94,20.7635714 C35.8928571,20.6907143 35.8528571,20.6142857 35.82,20.5335714 C35.81,20.5092857 35.805,20.4835714 35.7971429,20.4592857 C35.7764286,20.4 35.7557143,20.3407143 35.7428571,20.2785714 C35.7242857,20.1878571 35.7142857,20.095 35.7142857,20 C35.7142857,19.905 35.7242857,19.8121429 35.7421429,19.7221429 C35.755,19.66 35.7757143,19.6014286 35.7964286,19.5421429 C35.805,19.5171429 35.81,19.4907143 35.82,19.4664286 C35.8528571,19.3857143 35.8928571,19.3092857 35.94,19.2364286 C35.94,19.2364286 35.94,19.2364286 35.94,19.2364286 C36.1778571,18.8678571 36.5835714,18.6135714 37.0521429,18.5835714 C37.0592857,18.5828571 37.065,18.5785714 37.0714286,18.5785714 C37.0957143,18.5771429 37.1185714,18.5714286 37.1428571,18.5714286 C37.9307143,18.5714286 38.5714286,19.2121429 38.5714286,20 C38.5714286,20.7878571 37.9307143,21.4285714 37.1428571,21.4285714 Z" id="Shape"></path>
            </g>
        </g>
        <g id="Page"></g>
    </g>
</svg>