<?xml version="1.0" encoding="UTF-8"?>
<svg width="40px" height="35px" viewBox="0 0 40 35" version="1.1" xmlns="http://www.w3.org/2000/svg" xmlns:xlink="http://www.w3.org/1999/xlink">
    <!-- Generator: sketchtool 52.3 (67297) - http://www.bohemiancoding.com/sketch -->
    <title>A660BAFE-2D93-4E4E-A1B3-55C28D6878E9</title>
    <desc>Created with sketchtool.</desc>
    <g id="Main_nav" stroke="none" stroke-width="1" fill="none" fill-rule="evenodd">
        <g id="Home" transform="translate(-565.000000, -810.000000)" fill="#AFAFAF">
            <path d="M582.055811,810.016678 C580.199017,810.216371 578.640169,811.308402 577.388477,812.798026 C575.466289,812.688285 573.749399,812.871789 572.372314,813.632785 C570.969742,814.408179 570.00502,815.710679 569.419964,817.277678 C567.394197,818.288738 566.031577,819.702785 565.421126,821.339926 C564.79249,823.029249 564.939649,824.806675 565.392057,826.483424 C564.754351,830.317191 565.957067,833.425857 568.431615,834.998197 C570.768026,836.482434 573.894744,836.577769 577.141646,835.645832 C578.538776,837.009495 580.073996,837.849689 581.692796,838.036767 C583.244342,838.216669 584.757748,837.759714 586.258458,837.056287 C587.602892,838.063755 589.098159,838.502712 590.417152,838.612463 L594.73575,844.446796 C595.1518,845.013511 596.032975,845.1736 596.625241,844.792213 L598.020557,843.885469 C598.523801,843.558041 598.767284,842.885186 598.587428,842.314878 L597.1776,837.892797 C598.805469,837.450229 600.402455,836.608258 601.597916,835.242799 C603.040487,833.594881 603.654566,831.130165 602.993233,828.240955 C604.286784,826.965443 605.12616,825.340875 604.984442,823.572291 C604.833646,821.683271 603.489221,819.945407 601.232715,818.688087 C600.402409,815.789803 598.803609,813.589723 596.434687,812.508336 C594.069207,811.428883 591.167832,811.461306 587.797678,812.234881 C585.937256,810.943157 584.05502,809.851131 582.054555,810.016655 L582.055811,810.016678 Z M585.298852,813.733509 C584.408594,814.588072 583.750934,815.071979 583.16225,815.678302 C581.379966,816.16944 580.171762,816.739747 578.451197,816.397922 L577.898884,819.107285 C579.292387,819.384338 580.487847,819.271 581.548892,819.035323 C581.421714,819.67757 581.318158,820.422382 581.214598,821.354319 L583.992533,821.656559 C584.137879,820.337847 584.290489,818.841038 584.980883,817.810173 C585.391482,817.337043 586.385269,816.646208 587.947744,815.014456 C591.198041,814.201297 593.625287,814.275032 595.275016,815.028848 C596.957396,815.797057 598.082021,817.250666 598.721541,819.92779 C598.816013,820.323579 599.095807,820.670807 599.462826,820.8507 C601.526732,821.849187 602.138997,822.892624 602.211693,823.790342 C602.260747,824.398415 602.033646,825.091046 601.528546,825.763919 C600.184112,824.409238 599.317481,823.792184 598.939582,823.35857 C598.151089,822.243147 598.080207,820.654595 597.951233,819.512184 L595.173298,819.814424 C595.30229,820.962224 595.424017,821.832952 595.594799,822.566988 C593.959675,822.496827 592.157391,822.631751 590.709331,822.912405 L591.261644,825.636184 C593.185646,825.254788 595.585683,825.233197 597.164298,825.521045 C597.93828,826.310808 598.821236,826.911696 600.232925,828.431902 C600.948768,830.880406 600.443673,832.357411 599.491639,833.445983 C598.506918,834.572182 596.820911,835.268406 595.216669,835.462715 C594.406362,835.559865 593.810469,836.477368 594.053905,837.249169 L594.940489,840.059302 L592.293388,836.471979 C592.035398,836.126561 591.608427,835.910652 591.174251,835.910652 C590.336689,835.910652 589.281132,835.701965 588.352735,835.162248 C588.861467,834.376077 589.304759,833.825574 589.878839,833.433364 C590.732726,832.850483 592.102601,832.409684 594.851282,832.107467 L594.546056,829.354903 C591.61552,829.676934 589.742447,830.166266 588.294573,831.155772 C587.066416,831.994124 586.306991,833.105954 585.531195,834.412047 C584.157692,835.131667 583.018556,835.406942 582.012021,835.28996 C580.98372,835.171224 579.962673,834.644121 578.76898,833.345167 C578.6091,832.116402 578.34566,831.101749 577.998672,830.232817 C578.292996,828.709019 579.597473,827.919256 580.587636,827.26439 L579.032416,824.97418 C577.835141,825.78195 576.881303,826.444001 576.138204,827.480253 C575.135343,826.541132 573.978021,825.886312 572.706237,824.988549 L571.092879,827.249975 C572.784328,828.446363 573.956161,829.113802 574.670191,829.957542 C575.24069,830.632165 575.658541,831.513717 575.920162,833.156247 C573.425662,833.773301 571.287293,833.519654 569.944487,832.666905 C568.391128,831.679241 567.524497,829.934146 568.156714,826.674141 C568.1985,826.460056 568.189416,826.235175 568.127645,826.026506 C567.711595,824.617847 567.65347,823.335104 568.040438,822.295259 C568.42742,821.255414 569.239527,820.310904 571.094507,819.513911 C571.468773,819.353794 571.76491,819.022773 571.879372,818.635998 C572.275438,817.295685 572.855024,816.545485 573.739794,816.057939 C574.624565,815.568598 575.950859,815.345504 577.883977,815.554182 C578.369082,815.606354 578.875954,815.383274 579.163018,814.992856 C580.189505,813.604001 581.272364,812.889769 582.34792,812.77463 C583.441663,812.691873 584.624379,813.265768 585.300271,813.74074 L585.298852,813.733509 Z" id="hipofiza"></path>
        </g>
        <g id="Page"></g>
    </g>
</svg>