<?xml version="1.0" encoding="UTF-8"?>
<svg width="18px" height="16px" viewBox="0 0 18 16" version="1.1" xmlns="http://www.w3.org/2000/svg" xmlns:xlink="http://www.w3.org/1999/xlink">
    <!-- Generator: sketchtool 52.2 (67145) - http://www.bohemiancoding.com/sketch -->
    <title>5A5A0B42-10D3-4454-A3BF-2778EC1DE684</title>
    <desc>Created with sketchtool.</desc>
    <g id="Main_nav" stroke="none" stroke-width="1" fill="none" fill-rule="evenodd">
        <g id="Results" transform="translate(-662.000000, -296.000000)">
            <g id="hospital-alt" transform="translate(662.000000, 296.000000)" fill="#55D159" fill-rule="nonzero">
                <path d="M17,3 L13,3 L13,1 C13,0.446875 12.553125,0 12,0 L6,0 C5.446875,0 5,0.446875 5,1 L5,3 L1,3 C0.446875,3 0,3.446875 0,4 L0,15.5 C0,15.775 0.225,16 0.5,16 L17.5,16 C17.775,16 18,15.775 18,15.5 L18,4 C18,3.446875 17.553125,3 17,3 Z M5,13.625 C5,13.83125 4.83125,14 4.625,14 L3.375,14 C3.16875,14 3,13.83125 3,13.625 L3,12.375 C3,12.16875 3.16875,12 3.375,12 L4.625,12 C4.83125,12 5,12.16875 5,12.375 L5,13.625 Z M5,9.625 C5,9.83125 4.83125,10 4.625,10 L3.375,10 C3.16875,10 3,9.83125 3,9.625 L3,8.375 C3,8.16875 3.16875,8 3.375,8 L4.625,8 C4.83125,8 5,8.16875 5,8.375 L5,9.625 Z M10,13.625 C10,13.83125 9.83125,14 9.625,14 L8.375,14 C8.16875,14 8,13.83125 8,13.625 L8,12.375 C8,12.16875 8.16875,12 8.375,12 L9.625,12 C9.83125,12 10,12.16875 10,12.375 L10,13.625 Z M10,9.625 C10,9.83125 9.83125,10 9.625,10 L8.375,10 C8.16875,10 8,9.83125 8,9.625 L8,8.375 C8,8.16875 8.16875,8 8.375,8 L9.625,8 C9.83125,8 10,8.16875 10,8.375 L10,9.625 Z M10.5,4.3125 C10.5,4.415625 10.415625,4.5 10.3125,4.5 L9.5,4.5 L9.5,5.3125 C9.5,5.415625 9.415625,5.5 9.3125,5.5 L8.6875,5.5 C8.584375,5.5 8.5,5.415625 8.5,5.3125 L8.5,4.5 L7.6875,4.5 C7.584375,4.5 7.5,4.415625 7.5,4.3125 L7.5,3.6875 C7.5,3.584375 7.584375,3.5 7.6875,3.5 L8.5,3.5 L8.5,2.6875 C8.5,2.584375 8.584375,2.5 8.6875,2.5 L9.3125,2.5 C9.415625,2.5 9.5,2.584375 9.5,2.6875 L9.5,3.5 L10.3125,3.5 C10.415625,3.5 10.5,3.584375 10.5,3.6875 L10.5,4.3125 Z M15,13.625 C15,13.83125 14.83125,14 14.625,14 L13.375,14 C13.16875,14 13,13.83125 13,13.625 L13,12.375 C13,12.16875 13.16875,12 13.375,12 L14.625,12 C14.83125,12 15,12.16875 15,12.375 L15,13.625 Z M15,9.625 C15,9.83125 14.83125,10 14.625,10 L13.375,10 C13.16875,10 13,9.83125 13,9.625 L13,8.375 C13,8.16875 13.16875,8 13.375,8 L14.625,8 C14.83125,8 15,8.16875 15,8.375 L15,9.625 Z" id="Shape"></path>
            </g>
            <g id="Page"></g>
            <g id="Page"></g>
        </g>
        <g id="Page"></g>
    </g>
</svg>