<svg xmlns="http://www.w3.org/2000/svg" width="29.223" height="29.223" viewBox="0 0 29.223 29.223">
  <path id="icon_cenovnik" d="M16.262,32.061a14.025,14.025,0,0,0,5.652-1.15,14.972,14.972,0,0,0,7.817-7.817,14.05,14.05,0,0,0,1.142-5.645A14.05,14.05,0,0,0,29.731,11.8,14.979,14.979,0,0,0,21.9,3.98a14.1,14.1,0,0,0-5.652-1.142A14.03,14.03,0,0,0,10.625,3.98,14.979,14.979,0,0,0,2.793,11.8,14.05,14.05,0,0,0,1.65,17.45,13.971,13.971,0,0,0,2.8,23.094a15.021,15.021,0,0,0,7.824,7.817A13.988,13.988,0,0,0,16.262,32.061Zm0-2.691a11.664,11.664,0,0,1-4.63-.925,11.891,11.891,0,0,1-6.344-6.351,12.185,12.185,0,0,1,0-9.275,11.938,11.938,0,0,1,6.336-6.366,11.61,11.61,0,0,1,4.623-.925,11.685,11.685,0,0,1,4.653.925,12.013,12.013,0,0,1,6.359,6.366,11.664,11.664,0,0,1,.925,4.63,11.441,11.441,0,0,1-.917,4.645,12.119,12.119,0,0,1-2.556,3.8,11.863,11.863,0,0,1-3.788,2.556A11.739,11.739,0,0,1,16.262,29.37Zm0-3.863a.637.637,0,0,0,.458-.18.617.617,0,0,0,.188-.466v-.992a5.027,5.027,0,0,0,2.841-1.1A3.163,3.163,0,0,0,20.892,20.2a3.008,3.008,0,0,0-.94-2.315,5.522,5.522,0,0,0-2.789-1.218l-.256-.045V12.88a2.527,2.527,0,0,1,1.21.556,2.321,2.321,0,0,1,.7,1.1.963.963,0,0,0,.947.707.89.89,0,0,0,.646-.248.851.851,0,0,0,.256-.639,1.761,1.761,0,0,0-.015-.233,1.066,1.066,0,0,0-.06-.233,3.266,3.266,0,0,0-1.285-1.864,4.941,4.941,0,0,0-2.4-.9v-.962a.63.63,0,0,0-.646-.661.585.585,0,0,0-.661.661v.962a4.676,4.676,0,0,0-2.721,1.135,3.134,3.134,0,0,0-1.052,2.428,2.846,2.846,0,0,0,.909,2.2,5.956,5.956,0,0,0,2.683,1.255l.18.03V22.14a2.769,2.769,0,0,1-1.451-.6,2.167,2.167,0,0,1-.7-1.127,1.217,1.217,0,0,0-.376-.549.909.909,0,0,0-1.488.729,1.111,1.111,0,0,0,.023.218q.023.113.053.248a3.353,3.353,0,0,0,1.383,1.917,5.207,5.207,0,0,0,2.556.879v1.007A.578.578,0,0,0,16.262,25.507ZM15.6,16.292l-.105-.03a3.186,3.186,0,0,1-1.323-.684,1.367,1.367,0,0,1-.421-1.015,1.428,1.428,0,0,1,.5-1.067A2.574,2.574,0,0,1,15.6,12.88Zm1.308,2.225.286.06a2.888,2.888,0,0,1,1.368.7,1.514,1.514,0,0,1,.391,1.06,1.6,1.6,0,0,1-.5,1.2,2.587,2.587,0,0,1-1.541.609Z" transform="translate(-1.65 -2.838)" fill="#0f89ed"/>
</svg>
