<svg xmlns="http://www.w3.org/2000/svg" width="31.347" height="31.329" viewBox="0 0 31.347 31.329">
  <path id="icon_cestaPitanja" d="M2.354,12.7h3.07V9.381a2.57,2.57,0,0,1,.652-1.91,2.519,2.519,0,0,1,1.848-.643h3.32V3.775H7.8a5.588,5.588,0,0,0-4.07,1.348A5.4,5.4,0,0,0,2.354,9.149ZM13.635,6.828h8.783V3.775H13.635ZM30.648,12.7H33.7V9.149a5.405,5.405,0,0,0-1.375-4.017,5.565,5.565,0,0,0-4.07-1.357H24.828V6.828h3.3a2.551,2.551,0,0,1,1.857.643,2.549,2.549,0,0,1,.66,1.91Zm0,11.068H33.7V15.093H30.648ZM24.828,35.1h3.427a5.565,5.565,0,0,0,4.07-1.357A5.405,5.405,0,0,0,33.7,29.731v-3.57H30.648V29.5a2.28,2.28,0,0,1-2.517,2.553h-3.3Zm-11.193,0h8.783V32.052H13.635ZM7.8,35.1h3.445V32.052H7.923a2.519,2.519,0,0,1-1.848-.643,2.57,2.57,0,0,1-.652-1.91V26.161H2.354v3.57a5.4,5.4,0,0,0,1.375,4.025A5.588,5.588,0,0,0,7.8,35.1ZM2.354,23.769h3.07V15.093H2.354Zm15.3,4.177a1.93,1.93,0,0,0,1.339-.518,1.664,1.664,0,0,0,.571-1.285,1.684,1.684,0,0,0-.571-1.3,1.93,1.93,0,0,0-1.339-.518,1.894,1.894,0,0,0-1.357.527,1.717,1.717,0,0,0-.553,1.294,1.684,1.684,0,0,0,.562,1.276A1.9,1.9,0,0,0,17.652,27.946Zm.036-5.105a1.506,1.506,0,0,0,1.053-.357,1.2,1.2,0,0,0,.411-.875v-.089a.337.337,0,0,1,.018-.107,1.808,1.808,0,0,1,.455-1.178A6.347,6.347,0,0,1,20.9,19.181a9.13,9.13,0,0,0,2.008-1.687,3.507,3.507,0,0,0,.759-2.365,3.788,3.788,0,0,0-.75-2.383,4.707,4.707,0,0,0-1.99-1.482,7.108,7.108,0,0,0-2.722-.509,6.666,6.666,0,0,0-3.57.866,3.758,3.758,0,0,0-1.749,2.044,1.943,1.943,0,0,0-.125.428,2.712,2.712,0,0,0-.036.446,1.136,1.136,0,0,0,.393.919,1.372,1.372,0,0,0,.91.33,1.27,1.27,0,0,0,1-.33q.286-.33.7-.794a3.153,3.153,0,0,1,.991-1.026,2.506,2.506,0,0,1,1.366-.366,2.536,2.536,0,0,1,1.714.553,1.837,1.837,0,0,1,.643,1.464,1.809,1.809,0,0,1-.536,1.348,13.545,13.545,0,0,1-1.624,1.294A7.028,7.028,0,0,0,16.768,19.3a2.988,2.988,0,0,0-.6,1.937v.2Q16.17,22.84,17.688,22.84Z" transform="translate(-2.354 -3.775)" fill="#0f89ed"/>
</svg>
