<svg xmlns="http://www.w3.org/2000/svg" width="32" height="31.968" viewBox="0 0 32 31.968">
  <path id="icon_grupeAnaliza" d="M5.974,9.708A3.472,3.472,0,0,0,7.8,9.218,3.814,3.814,0,0,0,9.112,7.906a3.442,3.442,0,0,0,.5-1.818,3.471,3.471,0,0,0-.5-1.834A3.747,3.747,0,0,0,7.8,2.949a3.515,3.515,0,0,0-1.826-.482,3.528,3.528,0,0,0-1.818.482,3.662,3.662,0,0,0-1.312,1.3,3.513,3.513,0,0,0-.49,1.834,3.484,3.484,0,0,0,.49,1.818A3.726,3.726,0,0,0,4.156,9.218,3.484,3.484,0,0,0,5.974,9.708Zm0-2.34H30.733V4.728H5.974Zm24.759,2.34a3.5,3.5,0,0,0,1.81-.49,3.706,3.706,0,0,0,1.32-1.312,3.484,3.484,0,0,0,.49-1.818,3.513,3.513,0,0,0-.49-1.834,3.642,3.642,0,0,0-1.32-1.3,3.684,3.684,0,0,0-3.644,0,3.6,3.6,0,0,0-1.3,1.3,3.557,3.557,0,0,0-.482,1.834,3.528,3.528,0,0,0,.482,1.818,3.662,3.662,0,0,0,1.3,1.312A3.513,3.513,0,0,0,30.733,9.708ZM29.452,30.815h2.625V6.087H29.452Zm1.281,3.621a3.54,3.54,0,0,0,1.81-.482,3.642,3.642,0,0,0,1.32-1.3,3.632,3.632,0,0,0,0-3.644,3.685,3.685,0,0,0-1.32-1.32,3.632,3.632,0,0,0-3.644,0,3.642,3.642,0,0,0-1.3,1.32,3.684,3.684,0,0,0,0,3.644,3.6,3.6,0,0,0,1.3,1.3A3.557,3.557,0,0,0,30.733,34.435ZM5.974,32.174H30.733v-2.64H5.974Zm0,2.261A3.515,3.515,0,0,0,7.8,33.953a3.747,3.747,0,0,0,1.312-1.3,3.582,3.582,0,0,0,0-3.644A3.792,3.792,0,0,0,7.8,27.684a3.472,3.472,0,0,0-1.826-.49,3.484,3.484,0,0,0-1.818.49A3.706,3.706,0,0,0,2.844,29a3.632,3.632,0,0,0,0,3.644,3.662,3.662,0,0,0,1.312,1.3A3.528,3.528,0,0,0,5.974,34.435Zm-1.36-3.621H7.271V6.087H4.614ZM15.65,26.577h9.059A1.707,1.707,0,0,0,26.591,24.7V15.811a1.87,1.87,0,0,0-.5-1.383,1.914,1.914,0,0,0-1.415-.5H15.65a1.727,1.727,0,0,0-1.881,1.881V24.7a1.864,1.864,0,0,0,.5,1.391A1.887,1.887,0,0,0,15.65,26.577Zm.617-2.024a.419.419,0,0,1-.474-.474V16.427a.419.419,0,0,1,.474-.474h7.779q.522,0,.522.474v7.652a.419.419,0,0,1-.474.474Zm-4.206-1.565h2.53V20.965H12.678a.426.426,0,0,1-.474-.49V12.838a.419.419,0,0,1,.474-.474H20.52a.419.419,0,0,1,.474.474v2.1h2.024V12.19a1.838,1.838,0,0,0-.49-1.36,1.882,1.882,0,0,0-1.391-.49H12.061a1.86,1.86,0,0,0-1.375.49,1.838,1.838,0,0,0-.49,1.36v8.9a1.91,1.91,0,0,0,.49,1.4A1.843,1.843,0,0,0,12.061,22.989Z" transform="translate(-2.354 -2.467)" fill="#0f89ed"/>
</svg>
