<svg xmlns="http://www.w3.org/2000/svg" width="32.234" height="25.084" viewBox="0 0 32.234 25.084">
  <path id="icon_tumacenje" d="M11.767,22.615a9.371,9.371,0,0,0,3.727-.747,9.65,9.65,0,0,0,3.073-2.082,9.9,9.9,0,0,0,2.082-3.073,9.629,9.629,0,0,0,0-7.467,9.7,9.7,0,0,0-2.082-3.073A9.852,9.852,0,0,0,15.494,4.1a9.3,9.3,0,0,0-3.727-.753,9.333,9.333,0,0,0-3.74.753A9.852,9.852,0,0,0,4.954,6.174,9.7,9.7,0,0,0,2.872,9.247a9.629,9.629,0,0,0,0,7.467,9.9,9.9,0,0,0,2.082,3.073,9.65,9.65,0,0,0,3.073,2.082A9.4,9.4,0,0,0,11.767,22.615Zm0-2.326a7.13,7.13,0,0,1-2.835-.568A7.307,7.307,0,0,1,6.6,18.141,7.555,7.555,0,0,1,5.02,15.809a7.228,7.228,0,0,1,0-5.65A7.453,7.453,0,0,1,6.6,7.826,7.547,7.547,0,0,1,8.932,6.24a6.99,6.99,0,0,1,2.835-.582,6.912,6.912,0,0,1,2.815.582,7.652,7.652,0,0,1,2.333,1.586A7.4,7.4,0,0,1,18.5,10.159a7.228,7.228,0,0,1,0,5.65,7.5,7.5,0,0,1-1.586,2.333,7.405,7.405,0,0,1-2.333,1.579A7.05,7.05,0,0,1,11.767,20.289ZM30.323,3.927H14.067L17,6.187H30.23a1.865,1.865,0,0,1,1.368.476,1.9,1.9,0,0,1,.482,1.414V22.972a1.9,1.9,0,0,1-.482,1.414,1.865,1.865,0,0,1-1.368.476H27.494a3.138,3.138,0,0,1,.562,1.057,2.983,2.983,0,0,1,.112,1.2h2.154a4.116,4.116,0,0,0,3.02-1,4.018,4.018,0,0,0,1.011-2.974V7.905a4.018,4.018,0,0,0-1.011-2.974A4.116,4.116,0,0,0,30.323,3.927ZM8.912,24.862a1.865,1.865,0,0,1-1.368-.476,1.9,1.9,0,0,1-.482-1.414V19.694L4.789,18.465v4.679a4,4,0,0,0,1.018,2.98,4.137,4.137,0,0,0,3.013,1H21.2l-2.273-2.26ZM25.234,28.43a1.486,1.486,0,0,0,1.13-.469,1.6,1.6,0,0,0,.443-1.143,1.672,1.672,0,0,0-.112-.608,1.611,1.611,0,0,0-.337-.529l-7.771-7.8-2.326,2.26,7.824,7.824a1.383,1.383,0,0,0,.522.35A1.761,1.761,0,0,0,25.234,28.43ZM26.186,15.9a2.853,2.853,0,0,0,2.1-.879,3.023,3.023,0,0,0,0-4.249,2.864,2.864,0,0,0-2.1-.872,2.978,2.978,0,0,0-3,3,2.989,2.989,0,0,0,3,3ZM7.908,12.227h7.665a.834.834,0,0,0,.628-.271.9.9,0,0,0,.258-.641.876.876,0,0,0-.258-.634.844.844,0,0,0-.628-.264H7.908a.838.838,0,0,0-.634.264.888.888,0,0,0-.251.634.9.9,0,0,0,.251.648A.838.838,0,0,0,7.908,12.227Zm0,3.3h5.538a.892.892,0,0,0,.648-.258.9.9,0,0,0,0-1.275.881.881,0,0,0-.648-.264H7.908A.838.838,0,0,0,7.273,14a.935.935,0,0,0,0,1.275A.848.848,0,0,0,7.908,15.531Z" transform="translate(-2.119 -3.346)" fill="#55d159"/>
</svg>
