<svg xmlns="http://www.w3.org/2000/svg" width="32" height="25.105" viewBox="0 0 32 25.105">
  <path id="icon_korisnici" d="M24.884,21.757a9.989,9.989,0,0,0,1.223-.072,4.36,4.36,0,0,0,.966-.215.815.815,0,0,0,.587-.744.6.6,0,0,0-.165-.429.559.559,0,0,0-.422-.172,1.519,1.519,0,0,0-.215.014,2.132,2.132,0,0,0-.215.043,5.391,5.391,0,0,0-.644.136,3.846,3.846,0,0,1-.958.093,4.656,4.656,0,0,1-2.224-.5,3.437,3.437,0,0,1-1.43-1.4,4.435,4.435,0,0,1-.494-2.16,4.583,4.583,0,0,1,.494-2.167,3.654,3.654,0,0,1,1.38-1.466,3.971,3.971,0,0,1,2.074-.529,4.3,4.3,0,0,1,2.038.465,3.44,3.44,0,0,1,1.373,1.287,3.64,3.64,0,0,1,.494,1.91,3.648,3.648,0,0,1-.272,1.545.83.83,0,0,1-.744.572.48.48,0,0,1-.544-.544V14.146a.711.711,0,0,0-.193-.515.656.656,0,0,0-.494-.2.626.626,0,0,0-.644.472V14a1.7,1.7,0,0,0-.579-.422,1.933,1.933,0,0,0-.794-.15,2.154,2.154,0,0,0-1.738.823,3.181,3.181,0,0,0-.679,2.1,3.2,3.2,0,0,0,.679,2.117,2.206,2.206,0,0,0,1.781.815,1.861,1.861,0,0,0,1.559-.772,1.643,1.643,0,0,0,1.516.772,2.119,2.119,0,0,0,1.8-.958,4.31,4.31,0,0,0,.687-2.561,4.866,4.866,0,0,0-.665-2.553,4.555,4.555,0,0,0-1.852-1.724,5.855,5.855,0,0,0-2.732-.615,5.663,5.663,0,0,0-2.832.687,4.853,4.853,0,0,0-1.9,1.917,5.822,5.822,0,0,0-.679,2.861,5.741,5.741,0,0,0,.679,2.847,4.817,4.817,0,0,0,1.9,1.9A5.812,5.812,0,0,0,24.884,21.757Zm-.157-3.862a.968.968,0,0,1-.83-.415,1.947,1.947,0,0,1-.3-1.159,1.913,1.913,0,0,1,.3-1.152.988.988,0,0,1,.844-.408,1.012,1.012,0,0,1,.844.408,1.8,1.8,0,0,1,.315,1.123,1.914,1.914,0,0,1-.322,1.173A1.013,1.013,0,0,1,24.726,17.894Zm-12.431-.5a1.94,1.94,0,0,1-1.481-.658,2.294,2.294,0,0,1-.608-1.616,2.206,2.206,0,0,1,.608-1.574A1.96,1.96,0,0,1,12.3,12.9a1.922,1.922,0,0,1,1.459.644,2.221,2.221,0,0,1,.6,1.574,2.309,2.309,0,0,1-.6,1.616A1.9,1.9,0,0,1,12.3,17.394ZM8.29,20.6a2.961,2.961,0,0,1,.758-1.109,4,4,0,0,1,1.373-.837,5.253,5.253,0,0,1,1.874-.315,5.2,5.2,0,0,1,1.867.315,4.012,4.012,0,0,1,1.366.837,2.961,2.961,0,0,1,.758,1.109Zm.329,1.3h7.338a1.663,1.663,0,0,0,1.9-1.86V12.616a1.669,1.669,0,0,0-1.9-1.874H8.619a1.669,1.669,0,0,0-1.9,1.874V20.04A1.663,1.663,0,0,0,8.619,21.9Zm-1.9,6.981H29.991a4.455,4.455,0,0,0,3.269-1.087,4.349,4.349,0,0,0,1.094-3.219V8.081a4.349,4.349,0,0,0-1.094-3.219,4.455,4.455,0,0,0-3.269-1.087H6.717a4.478,4.478,0,0,0-3.262,1.08,4.327,4.327,0,0,0-1.1,3.226V24.575a4.327,4.327,0,0,0,1.1,3.226A4.478,4.478,0,0,0,6.717,28.88Zm.1-2.446a2.019,2.019,0,0,1-1.481-.515,2.06,2.06,0,0,1-.522-1.531V8.267a2.06,2.06,0,0,1,.522-1.531,2.019,2.019,0,0,1,1.481-.515H29.89a2.019,2.019,0,0,1,1.481.515,2.06,2.06,0,0,1,.522,1.531V24.389a2.06,2.06,0,0,1-.522,1.531,2.019,2.019,0,0,1-1.481.515Z" transform="translate(-2.354 -3.775)" fill="#0f89ed"/>
</svg>
