<svg xmlns="http://www.w3.org/2000/svg" width="19.416" height="25.734" viewBox="0 0 19.416 25.734">
  <path id="icon_urednici" d="M11.131,25.373h7.72a1.9,1.9,0,0,0,.954-.2,1.116,1.116,0,0,0,.483-.517,1.662,1.662,0,0,0,.138-.672,3.5,3.5,0,0,0-.712-1.695A4.81,4.81,0,0,0,18,20.881a5.491,5.491,0,0,0-2.55-.563,5.81,5.81,0,0,0-2.108.362,5.012,5.012,0,0,0-1.591.959,4.622,4.622,0,0,0-1.011,1.287,2.919,2.919,0,0,0-.356,1.344,1.317,1.317,0,0,0,.218.827A.654.654,0,0,0,11.131,25.373ZM8.546,19.18A1.925,1.925,0,0,0,10,18.508a2.341,2.341,0,0,0,.62-1.649,2.211,2.211,0,0,0-.62-1.6,1.963,1.963,0,0,0-1.459-.643,2,2,0,0,0-1.482.649,2.208,2.208,0,0,0-.632,1.6,2.351,2.351,0,0,0,.638,1.643A1.962,1.962,0,0,0,8.546,19.18Zm6.9-.149a2.222,2.222,0,0,0,1.677-.764,2.666,2.666,0,0,0,.712-1.89,2.638,2.638,0,0,0-.327-1.31,2.5,2.5,0,0,0-.873-.925,2.259,2.259,0,0,0-2.39.006,2.6,2.6,0,0,0-.879.931,2.8,2.8,0,0,0,.379,3.188A2.246,2.246,0,0,0,15.451,19.031ZM8.534,20.295a4.709,4.709,0,0,0-2.3.546,4.377,4.377,0,0,0-1.557,1.379,3.236,3.236,0,0,0-.6,1.695,1.685,1.685,0,0,0,.316,1.034,1.3,1.3,0,0,0,1.109.425H9.327a2.835,2.835,0,0,1-.218-1.114,4.1,4.1,0,0,1,.437-1.838,5.317,5.317,0,0,1,1.206-1.585,3.556,3.556,0,0,0-.994-.4A5.091,5.091,0,0,0,8.534,20.295ZM5.858,27.108H18.564a3.12,3.12,0,0,0,2.361-.879,3.6,3.6,0,0,0,.844-2.591V11.15a3.479,3.479,0,0,0-.885-2.585,3.582,3.582,0,0,0-2.619-.873H5.858a3.6,3.6,0,0,0-2.619.867,3.475,3.475,0,0,0-.885,2.591V23.638a3.5,3.5,0,0,0,.885,2.591A3.567,3.567,0,0,0,5.858,27.108Zm.08-1.988a1.635,1.635,0,0,1-1.189-.408,1.634,1.634,0,0,1-.419-1.224V11.3a1.634,1.634,0,0,1,.419-1.224,1.635,1.635,0,0,1,1.189-.408H18.173a1.652,1.652,0,0,1,1.2.408,1.634,1.634,0,0,1,.419,1.224V23.489a1.724,1.724,0,0,1-.385,1.224,1.239,1.239,0,0,1-.936.408ZM4.686,5.911H19.1a2.116,2.116,0,0,0-.534-1.172,1.7,1.7,0,0,0-1.258-.414H6.478a1.7,1.7,0,0,0-1.258.414A2.116,2.116,0,0,0,4.686,5.911Zm1.907-3.09H17.254a1.507,1.507,0,0,0-.46-1.08,1.724,1.724,0,0,0-1.183-.368H8.259a1.743,1.743,0,0,0-1.195.368A1.546,1.546,0,0,0,6.593,2.821Z" transform="translate(-2.354 -1.373)" fill="#0f89ed"/>
</svg>
