<svg xmlns="http://www.w3.org/2000/svg" width="32" height="29.445" viewBox="0 0 32 29.445">
  <path id="icon_analize" d="M2.354,27.556A5.117,5.117,0,0,0,2.837,29.9a3.185,3.185,0,0,0,1.451,1.429,5.327,5.327,0,0,0,2.4.484H29.951a4.514,4.514,0,0,0,3.3-1.09,4.383,4.383,0,0,0,1.1-3.255V6.728a4.413,4.413,0,0,0-1.1-3.255,4.477,4.477,0,0,0-3.3-1.1H12.9a4.478,4.478,0,0,0-3.3,1.1A4.413,4.413,0,0,0,8.5,6.728v6.264H5.385a3.121,3.121,0,0,0-2.223.758,2.738,2.738,0,0,0-.808,2.1Zm2.483-.072V16.3a.785.785,0,0,1,.224-.592.845.845,0,0,1,.613-.217H8.5V27.484a1.789,1.789,0,0,1-1.819,1.848A1.779,1.779,0,0,1,5.363,28.8,1.8,1.8,0,0,1,4.836,27.484Zm5.716,1.848a4,4,0,0,0,.433-1.891V6.9a2.049,2.049,0,0,1,.52-1.523,2.05,2.05,0,0,1,1.5-.512H29.85a2.05,2.05,0,0,1,1.5.512,2.049,2.049,0,0,1,.52,1.523V27.282a1.815,1.815,0,0,1-2.021,2.05Zm4.705-4.258h3.464a1.551,1.551,0,0,0,1.689-1.689v-3.2a1.551,1.551,0,0,0-1.689-1.689H15.257a1.683,1.683,0,0,0-1.234.447,1.662,1.662,0,0,0-.455,1.241v3.2a1.662,1.662,0,0,0,.455,1.241A1.683,1.683,0,0,0,15.257,25.074Zm-.779-14.362H28.392a.863.863,0,0,0,.88-.88.835.835,0,0,0-.253-.613.852.852,0,0,0-.628-.253H14.478a.877.877,0,0,0-.635.253.824.824,0,0,0-.26.613.84.84,0,0,0,.26.628A.877.877,0,0,0,14.478,10.712Zm0,4.778H28.392a.84.84,0,0,0,.628-.26.859.859,0,0,0,.253-.621.877.877,0,0,0-.253-.635.84.84,0,0,0-.628-.26H14.478a.887.887,0,0,0-.895.895.847.847,0,0,0,.26.621A.864.864,0,0,0,14.478,15.49Zm8.372,4.763h5.528A.877.877,0,0,0,29.013,20a.88.88,0,0,0,0-1.249.864.864,0,0,0-.635-.26H22.85a.864.864,0,0,0-.635.26.88.88,0,0,0,0,1.249A.877.877,0,0,0,22.85,20.253Zm0,4.821h5.528a.877.877,0,0,0,.635-.253.824.824,0,0,0,.26-.613.887.887,0,0,0-.895-.895H22.85a.887.887,0,0,0-.895.895.824.824,0,0,0,.26.613A.877.877,0,0,0,22.85,25.074Z" transform="translate(-2.354 -2.369)" fill="#0f89ed"/>
</svg>
