<svg xmlns="http://www.w3.org/2000/svg" width="20.302" height="30.496" viewBox="0 0 20.302 30.496">
  <g id="icon_laboratorije" transform="translate(-838.236 -764)">
    <path id="Path_1185" data-name="Path 1185" d="M29.607,20.049v-9.5h1.184a.61.61,0,1,0,0-1.22H21.983a.61.61,0,1,0,0,1.22h1.184v9.5a10.151,10.151,0,1,0,6.439,0ZM26.387,38.6a8.928,8.928,0,0,1-2.443-17.515.61.61,0,0,0,.443-.587V10.545h4V20.5a.61.61,0,0,0,.443.587A8.928,8.928,0,0,1,26.387,38.6Z" transform="translate(822 754.675)" fill="#0f89ed"/>
    <path id="Path_1186" data-name="Path 1186" d="M31.578,32.556a.963.963,0,0,1-.7-.3,2.172,2.172,0,0,0-2.928,0,.973.973,0,0,1-.7.3.984.984,0,0,1-.7-.3,2.165,2.165,0,0,0-2.921,0,.973.973,0,0,1-.7.3,1,1,0,0,1-.714-.3A2.21,2.21,0,0,0,21,31.708a.614.614,0,0,0-.6.329,7.708,7.708,0,1,0,14.571,3.5,7.744,7.744,0,0,0-.854-3.5.624.624,0,0,0-.6-.329,2.169,2.169,0,0,0-1.22.549A1.012,1.012,0,0,1,31.578,32.556Z" transform="translate(821.132 748.804)" fill="#0f89ed"/>
  </g>
</svg>
