<?xml version="1.0" encoding="UTF-8"?>
<svg width="20px" height="16px" viewBox="0 0 20 16" version="1.1" xmlns="http://www.w3.org/2000/svg" xmlns:xlink="http://www.w3.org/1999/xlink">
    <!-- Generator: sketchtool 52.5 (67469) - http://www.bohemiancoding.com/sketch -->
    <title>DA88442D-E508-4696-8DFD-1DEF686B9624</title>
    <desc>Created with sketchtool.</desc>
    <g id="Main_nav" stroke="none" stroke-width="1" fill="none" fill-rule="evenodd">
        <g id="Home" transform="translate(-720.000000, -189.000000)" fill="#FFFFFF" opacity="0.200000003">
            <path d="M738.794507,199.94114 L736.905595,199.275772 C736.639969,199.182417 736.348299,199.316509 736.252809,199.575356 C736.157321,199.834203 736.295345,200.120208 736.560101,200.212719 L737.382156,200.502961 L729.922064,203.699116 L728.584381,200.927275 L723.78321,203.075289 C723.528874,203.189013 723.416028,203.48181 723.529741,203.731315 C723.645193,203.98423 723.949012,204.096251 724.206838,203.981667 L728.092219,202.242716 L729.423836,205 L737.839717,201.394738 L737.531558,202.231548 C737.43607,202.490395 737.573225,202.7764 737.837984,202.869758 C738.102743,202.962264 738.394413,202.828172 738.489903,202.569327 L739.170467,200.722592 C739.287655,200.405192 739.119251,200.054682 738.794596,199.940945 L738.794507,199.94114 Z M732.419317,191.986491 C732.323829,192.245338 732.460984,192.530496 732.725743,192.623854 C732.991369,192.717209 733.283039,192.583117 733.378529,192.323422 L734.092938,190.384177 C734.19103,190.117682 734.049535,189.824051 733.776956,189.728151 L731.79342,189.029694 C731.528662,188.936338 731.236125,189.070431 731.140635,189.329278 C731.046016,189.588125 731.183171,189.87413 731.447927,189.967488 L732.276937,190.259446 L720.303678,195.438995 C720.045852,195.550173 719.92954,195.845516 720.044119,196.096715 L720.044119,196.097565 C720.158703,196.347917 720.459057,196.460807 720.715994,196.349633 L732.725699,191.154876 L732.419317,191.986491 Z M739.652962,193.953742 L737.669426,193.255285 C737.404667,193.161929 737.112997,193.296022 737.017507,193.554869 C736.922017,193.813716 737.059174,194.098874 737.323933,194.192232 L738.170299,194.490121 L731.144212,197.616752 L730.066932,195.604528 L721.975721,199.100289 C721.717029,199.212314 721.600717,199.507657 721.716163,199.758857 L721.716163,199.759706 C721.830746,200.010058 722.130234,200.122948 722.387171,200.011775 L729.605927,196.892965 L730.688407,198.914531 L738.595615,195.395958 L738.295256,196.211541 C738.199768,196.470388 738.336923,196.755546 738.602549,196.848904 C738.867308,196.942259 739.158978,196.808167 739.254468,196.54932 L739.968877,194.610074 C740.066969,194.343579 739.925474,194.049948 739.652895,193.954048 L739.652962,193.953742 Z" id="ikonica_9"></path>
        </g>
        <g id="Page"></g>
    </g>
</svg>