<?xml version="1.0" encoding="UTF-8"?>
<svg width="20px" height="29px" viewBox="0 0 20 29" version="1.1" xmlns="http://www.w3.org/2000/svg" xmlns:xlink="http://www.w3.org/1999/xlink">
    <!-- Generator: sketchtool 52.5 (67469) - http://www.bohemiancoding.com/sketch -->
    <title>7AF01FC2-1A26-4E0E-A64E-35A63C53CD8B</title>
    <desc>Created with sketchtool.</desc>
    <g id="Main_nav" stroke="none" stroke-width="1" fill="none" fill-rule="evenodd">
        <g id="Home" transform="translate(-637.000000, -467.000000)" fill="#FFFFFF" opacity="0.200000003">
            <g id="ikonica_16" transform="translate(649.000000, 481.000000) rotate(10.000000) translate(-649.000000, -481.000000) translate(634.000000, 466.000000)">
                <path d="M11.9403,1.8 C11.06022,1.8 10.33482,2.52306 10.33482,3.40194 C10.33482,4.24569 11.0028,4.94763 11.83365,5.00271 L11.862948,10.65231 C10.111008,15.32211 7.669848,19.28211 6.237948,22.23981 C5.517258,23.72925 5.016858,24.95037 5.080128,26.04951 C5.111769,26.59911 5.329737,27.1370103 5.750448,27.5120103 C6.171138,27.8870103 6.740688,28.0944303 7.439118,28.1928603 L7.440288,28.1940324 C7.468413,28.1975481 7.496538,28.1998917 7.524663,28.1998917 L22.477863,28.1998917 C22.505988,28.1998917 22.534113,28.1975481 22.561065,28.1940324 C23.259495,28.0955964 23.829045,27.8881824 24.249735,27.5131824 C24.670425,27.1381824 24.887235,26.599113 24.918885,26.049513 C24.982167,24.950283 24.481785,23.729193 23.761065,22.239813 C22.329045,19.281993 19.889265,15.322113 18.138465,10.652313 L18.16542,5.002713 C18.99627,4.946463 19.66425,4.245693 19.66425,3.401943 C19.66425,2.523033 18.93885,1.800003 18.05877,1.800003 L11.939367,1.800003 L11.9403,1.8 Z M11.9403,3 L18.0597,3 C18.287043,3 18.46518,3.179298 18.46518,3.40194 C18.46518,3.629283 18.288228,3.80742 18.0597,3.80742 L17.56869,3.80742 C17.23821,3.80742 16.96986,4.073436 16.96869,4.40391 L16.938222,10.75791 C16.938222,10.830567 16.951113,10.902051 16.975722,10.970019 C18.780402,15.820419 21.290622,19.891419 22.680522,22.763619 C23.375442,24.200349 23.756292,25.351119 23.719962,25.981719 C23.701212,26.296959 23.623869,26.462199 23.44926,26.619219 C23.278167,26.771562 22.96176,26.921559 22.43091,27.0012393 L7.56921,27.0012393 C7.03836,26.921553 6.72078,26.771553 6.54969,26.619219 C6.373908,26.462187 6.296565,26.296959 6.277815,25.981719 C6.241488,25.351239 6.622335,24.200469 7.317255,22.763619 C8.708265,19.891359 11.219655,15.820119 13.024155,10.970019 L13.025328,10.970019 C13.051107,10.902051 13.064001,10.829394 13.064001,10.75791 L13.031187,4.40391 L13.030014,4.40391 C13.028841,4.07343 12.760482,3.80742 12.430014,3.80742 L11.939004,3.80742 C11.711661,3.80742 11.533524,3.629295 11.533524,3.40194 C11.533524,3.179283 11.711649,3 11.939004,3 L11.9403,3 Z" id="Fill-1"></path>
                <path d="M12.7431,15.7407 C12.49935,15.7407 12.27903,15.888357 12.18762,16.11453 C11.20677,18.53328 9.88371,20.71053 9.18162,22.35603 C8.83005,23.17869 8.56755,23.87127 8.78436,24.58611 C8.893344,24.94353 9.1863,25.26813 9.54372,25.42284 C9.89529,25.575183 10.28787,25.611513 10.75074,25.586901 L19.19514,25.586901 L19.19397,25.586901 L19.208031,25.586901 C19.697871,25.575183 20.106861,25.507215 20.460771,25.332603 C20.814681,25.157994 21.099441,24.836913 21.211941,24.474783 C21.436941,23.751723 21.165066,23.050953 20.802951,22.243533 C20.077551,20.628693 18.720531,18.525033 17.745651,16.115733 C17.653074,15.88839 17.433921,15.740733 17.189001,15.740733 L12.7431,15.7407 Z M13.14387,16.9407 L16.78827,16.9407 C17.79843,19.32078 19.08867,21.3564 19.70859,22.7343 C20.03436,23.4597 20.10702,23.98587 20.06601,24.11829 C20.044917,24.185088 20.046087,24.197976 19.928901,24.256572 C19.812885,24.313995 19.565631,24.377274 19.183581,24.386649 L10.739181,24.386649 L10.705197,24.386649 C10.341927,24.407742 10.113387,24.36204 10.020837,24.321024 C9.92826,24.281181 9.949353,24.294072 9.931773,24.236649 C9.896616,24.121806 9.96693,23.569839 10.284513,22.825719 C10.888023,21.411279 12.139593,19.317219 13.143873,16.939419 L13.14387,16.9407 Z" id="Fill-2"></path>
                <path d="M14.4444,4.2621 C14.11275,4.266786 13.84791,4.539834 13.85259,4.87029 L13.85259,9.87549 C13.850247,10.037208 13.912356,10.1919 14.024856,10.30674 C14.137356,10.421583 14.292042,10.486038 14.452596,10.486038 C14.614314,10.486038 14.767836,10.421586 14.880336,10.30674 C14.994009,10.191897 15.056118,10.037208 15.052602,9.87549 L15.052602,4.87029 C15.054945,4.708572 14.991666,4.55271 14.87682,4.43787 C14.761977,4.323027 14.606118,4.259745 14.4444,4.262088 L14.4444,4.2621 Z" id="Fill-3"></path>
            </g>
        </g>
        <g id="Page"></g>
    </g>
</svg>