<?xml version="1.0" encoding="UTF-8"?>
<svg width="21px" height="25px" viewBox="0 0 21 25" version="1.1" xmlns="http://www.w3.org/2000/svg" xmlns:xlink="http://www.w3.org/1999/xlink">
    <!-- Generator: sketchtool 52.5 (67469) - http://www.bohemiancoding.com/sketch -->
    <title>ECBBB385-719E-464B-8BF3-67F614330BD6</title>
    <desc>Created with sketchtool.</desc>
    <g id="Main_nav" stroke="none" stroke-width="1" fill="none" fill-rule="evenodd">
        <g id="Home" transform="translate(-968.000000, -125.000000)" fill="#00FF83" opacity="0.800000012">
            <path d="M985.686497,127.000157 L975.313715,127.000157 C974.036853,127.000157 973,128.01713 973,129.269513 C973,130.521896 974.036853,131.53887 975.313715,131.53887 L976.138644,131.53887 L976.138644,146.721217 C976.138644,149.095548 978.106388,151 980.5,151 C982.893612,151 984.861356,149.095443 984.861356,146.722261 L984.861356,131.565217 L985.686285,131.565217 C986.963147,131.565217 988,130.548243 988,129.295861 C988,128.017 986.963147,127 985.686285,127 L985.686497,127.000157 Z M982.999681,146.722417 C982.999681,148.07873 981.882825,149.174174 980.5,149.174174 C979.117175,149.174174 978.000319,148.07873 978.000319,146.722417 L978.000319,140.200678 L982.973669,140.200678 L982.973669,146.722417 L982.999681,146.722417 Z M985.686497,129.739287 L983.930678,129.739287 C983.425763,129.739287 982.999787,130.157096 982.999787,130.65233 L982.999787,138.399896 L978.000372,138.399896 L978.000372,130.65233 C978.000372,130.157096 977.574397,129.739287 977.069482,129.739287 L975.313662,129.739287 C975.047694,129.739287 974.861728,129.530388 974.861728,129.296017 C974.861728,129.035148 975.074711,128.852748 975.313662,128.852748 L985.686444,128.852748 C985.952413,128.852748 986.138378,129.061647 986.138378,129.296017 C986.138378,129.530393 985.952408,129.739287 985.686444,129.739287 L985.686497,129.739287 Z" id="ikonica_6" transform="translate(980.500000, 139.000000) rotate(-30.000000) translate(-980.500000, -139.000000) "></path>
        </g>
        <g id="Page"></g>
    </g>
</svg>