<?xml version="1.0" encoding="UTF-8"?>
<svg width="20px" height="15px" viewBox="0 0 20 15" version="1.1" xmlns="http://www.w3.org/2000/svg" xmlns:xlink="http://www.w3.org/1999/xlink">
    <!-- Generator: sketchtool 52.5 (67469) - http://www.bohemiancoding.com/sketch -->
    <title>EF5B9301-3BC0-4F81-913A-D0237F6CCC20</title>
    <desc>Created with sketchtool.</desc>
    <g id="Main_nav" stroke="none" stroke-width="1" fill="none" fill-rule="evenodd">
        <g id="Home" transform="translate(-1120.000000, -163.000000)" fill="#FFFFFF" opacity="0.200000003">
            <path d="M1137.24096,163 C1135.7254,163 1134.50423,164.227212 1134.50423,165.750267 C1134.50423,166.532866 1134.82001,167.23118 1135.3463,167.738584 L1133.51497,171.482967 C1133.43109,171.482967 1133.32583,171.461481 1133.24113,171.461481 C1132.84148,171.461481 1132.46238,171.545774 1132.12522,171.715182 L1129.3047,169.452559 C1129.53661,169.050935 1129.66241,168.584828 1129.66241,168.077425 C1129.66241,166.554369 1128.44124,165.327158 1126.92569,165.327158 C1125.41013,165.327158 1124.18896,166.554369 1124.18896,168.077425 C1124.18896,168.839376 1124.48335,169.516196 1124.9891,170.002951 L1123.36828,172.583759 C1123.15776,172.541612 1122.94724,172.499465 1122.73673,172.499465 C1121.22117,172.499465 1120,173.726677 1120,175.249733 C1120,176.772788 1121.22117,178 1122.73673,178 C1124.25228,178 1125.47345,176.772788 1125.47345,175.249733 C1125.47345,174.572913 1125.221,173.938236 1124.82051,173.451481 L1126.50465,170.764893 C1126.65185,170.786379 1126.79904,170.80704 1126.94708,170.80704 C1127.34672,170.80704 1127.70528,170.722746 1128.0416,170.573986 L1130.88358,172.837456 C1130.65168,173.23908 1130.52587,173.705187 1130.52587,174.191096 C1130.52587,175.714151 1131.74704,176.941363 1133.2626,176.941363 C1134.77816,176.941363 1135.99933,175.714151 1135.99933,174.191096 C1135.99933,173.366354 1135.64162,172.646546 1135.07339,172.139142 L1136.88417,168.458439 C1137.01081,168.479924 1137.13663,168.479924 1137.26327,168.479924 C1138.77883,168.479924 1140,167.252713 1140,165.729657 C1139.99918,164.205776 1138.75664,163.000123 1137.24117,163.000123 L1137.24096,163 Z" id="ikonica_7"></path>
        </g>
        <g id="Page"></g>
    </g>
</svg>