<?xml version="1.0" encoding="UTF-8"?>
<svg width="28px" height="20px" viewBox="0 0 28 20" version="1.1" xmlns="http://www.w3.org/2000/svg" xmlns:xlink="http://www.w3.org/1999/xlink">
    <!-- Generator: sketchtool 52.5 (67469) - http://www.bohemiancoding.com/sketch -->
    <title>92949A34-53A3-4CAD-B543-DB2E547E36AF</title>
    <desc>Created with sketchtool.</desc>
    <g id="Main_nav" stroke="none" stroke-width="1" fill="none" fill-rule="evenodd">
        <g id="Home" transform="translate(-615.000000, -26.000000)" fill="#FFFFFF" opacity="0.200000003">
            <g id="ikonica_1" transform="translate(614.000000, 25.000000)">
                <path d="M3.7698,17.3964 L26.2629,17.3964 C26.92617,17.3964 27.4629,16.85967 27.4629,16.1964 L27.461727,2.7045 C27.461727,2.04123 26.924997,1.5045 26.261727,1.5045 L4.369827,1.5045 C3.706557,1.5045 2.5686573,2.04123 2.5686573,2.7045 L2.5686573,16.1952 C2.5698291,16.85847 3.106557,17.39637 3.769827,17.39637 L3.7698,17.3964 Z M4.2198,3.2016 C4.280736,3.178161 4.341675,3.160584 4.385034,3.154725 L25.812834,3.154725 L25.812834,15.745425 L4.219737,15.746595 L4.2198,3.2016 Z" id="Fill-1"></path>
                <path d="M22.8762,7.0827 C22.875027,7.078011 22.8762,7.073325 22.875027,7.067466 L22.875027,7.066293 C22.866825,7.012386 22.852761,6.959652 22.834011,6.908091 C22.826979,6.888171 22.815261,6.869418 22.807059,6.850668 C22.792995,6.821373 22.781277,6.790902 22.7637,6.76395 C22.751982,6.74403 22.736745,6.727623 22.722684,6.708873 C22.705104,6.684264 22.687527,6.658482 22.666434,6.636216 C22.648854,6.617466 22.628934,6.602232 22.610184,6.584652 C22.589091,6.565902 22.570341,6.545979 22.546902,6.528402 C22.459011,6.46395 22.358229,6.417075 22.251588,6.391293 C22.236354,6.387777 22.22112,6.387777 22.207056,6.384261 C22.169556,6.377232 22.132056,6.3702 22.092213,6.369027 C22.044165,6.366684 21.99612,6.371373 21.948072,6.377232 C21.942213,6.378402 21.937524,6.377232 21.931665,6.378402 L21.930492,6.378402 C21.929322,6.378402 21.928149,6.378402 21.926979,6.379575 L20.197299,6.649107 C20.185578,6.65145 20.175033,6.656139 20.163315,6.657309 C20.134017,6.663171 20.105892,6.6702 20.077767,6.679575 C20.051985,6.68778 20.027376,6.695982 20.002767,6.70653 C19.979328,6.717075 19.955892,6.727623 19.933626,6.740514 C19.906671,6.754575 19.882065,6.769809 19.857453,6.786216 C19.848078,6.793245 19.83753,6.796761 19.828155,6.803793 C19.817607,6.811995 19.809405,6.822543 19.798857,6.830745 C19.776594,6.849495 19.754325,6.869418 19.734405,6.890511 C19.715655,6.909261 19.699248,6.929184 19.682841,6.949104 C19.666437,6.9702 19.6512,6.991293 19.635966,7.013556 C19.620732,7.035822 19.606671,7.059258 19.59495,7.082697 C19.583232,7.106136 19.572687,7.129572 19.562136,7.154181 C19.552761,7.178793 19.543386,7.203399 19.535184,7.229181 C19.526982,7.254963 19.521123,7.280745 19.516434,7.307697 C19.511748,7.334652 19.507059,7.360431 19.504716,7.387383 C19.502373,7.413165 19.5012,7.438947 19.5012,7.464726 C19.5012,7.494024 19.502373,7.523319 19.505886,7.552617 C19.507059,7.565508 19.505886,7.578399 19.508232,7.59246 C19.510575,7.605351 19.515261,7.615899 19.517607,7.628787 C19.522293,7.653396 19.528152,7.676835 19.535184,7.700271 C19.543386,7.728396 19.553934,7.755348 19.564482,7.782303 C19.572684,7.802226 19.580886,7.822146 19.591434,7.840896 C19.606668,7.871364 19.625418,7.899489 19.644168,7.927614 C19.6512,7.938162 19.655886,7.94988 19.664091,7.960428 L19.70745,8.017851 L15.62355,11.166651 L12.10905,8.637741 C12.105534,8.635398 12.102018,8.634225 12.098502,8.631882 C12.07155,8.613132 12.043425,8.599068 12.0153,8.583834 C11.99538,8.573289 11.975457,8.560398 11.954364,8.55102 C11.930928,8.541645 11.907489,8.534616 11.88288,8.527584 C11.854755,8.518209 11.827803,8.507661 11.800848,8.501802 C11.780925,8.497116 11.759832,8.497116 11.739909,8.4936 C11.708268,8.488911 11.675457,8.484225 11.643816,8.483052 C11.622723,8.483052 11.60163,8.486568 11.580534,8.487741 C11.548893,8.490084 11.517252,8.490084 11.486784,8.495943 C11.465691,8.499459 11.445768,8.506491 11.424675,8.51235 C11.393034,8.520552 11.362566,8.527584 11.332098,8.539302 C11.313348,8.546334 11.296941,8.556879 11.278191,8.565084 C11.24655,8.580318 11.214909,8.594379 11.185614,8.613132 C11.182098,8.615475 11.178582,8.616648 11.175069,8.618991 L6.780669,11.507661 C6.399819,11.758443 6.294339,12.269391 6.543951,12.650241 C6.702153,12.891648 6.965811,13.021731 7.234191,13.021731 C7.39005,13.021731 7.547091,12.978372 7.686531,12.885795 L11.606331,10.308855 L15.159531,12.865875 C15.198204,12.894 15.238047,12.917439 15.279063,12.937359 C15.286092,12.940875 15.293124,12.943218 15.300156,12.945561 C15.345858,12.966654 15.391563,12.981888 15.438438,12.993609 C15.451329,12.997125 15.464217,13.000641 15.478281,13.002984 C15.532188,13.013532 15.587265,13.021734 15.641172,13.021734 L15.642342,13.021734 L15.643515,13.021734 C15.699765,13.021734 15.757188,13.013532 15.813438,13.001814 C15.827499,12.998298 15.841563,12.994782 15.854454,12.991266 C15.901329,12.979548 15.947031,12.961968 15.992736,12.942048 C16.002111,12.937362 16.011486,12.935016 16.019688,12.93033 C16.063047,12.908064 16.106406,12.882282 16.146249,12.850644 L20.708349,9.337344 C20.727099,9.358437 20.749365,9.376017 20.770458,9.394767 C20.785692,9.408828 20.798583,9.422892 20.81499,9.43461 C20.847804,9.460389 20.884131,9.481485 20.921631,9.502578 C20.938038,9.511953 20.952099,9.522498 20.968506,9.530703 C20.970852,9.531873 20.973195,9.533046 20.975538,9.534219 C21.009522,9.550623 21.044679,9.558828 21.079836,9.569376 C21.100929,9.576405 21.120852,9.58578 21.143118,9.590469 C21.202884,9.60453 21.26382,9.611562 21.323586,9.611562 L21.324759,9.611562 C21.395073,9.611562 21.466557,9.599844 21.535695,9.582264 C21.543897,9.579921 21.552102,9.578751 21.561477,9.576405 C21.624759,9.557655 21.685695,9.52953 21.744291,9.494373 C21.756009,9.487344 21.767727,9.480312 21.778275,9.472107 C21.792336,9.462732 21.8064,9.455703 21.820461,9.445155 C21.861477,9.414687 21.897804,9.37953 21.930618,9.343203 C21.934131,9.339687 21.937647,9.337344 21.941163,9.333828 C21.989211,9.278751 22.026711,9.217812 22.058349,9.15453 C22.061865,9.147498 22.067724,9.141639 22.072413,9.134607 L22.811853,7.546707 L22.811853,7.545537 L22.813023,7.543191 C22.816539,7.534989 22.818885,7.525614 22.822398,7.517412 C22.839978,7.476396 22.856382,7.43421 22.86693,7.390848 C22.873962,7.362723 22.875135,7.334598 22.879821,7.306473 C22.883337,7.281864 22.889196,7.257255 22.890369,7.231473 C22.88568,7.181082 22.882167,7.131864 22.876305,7.082646 L22.8762,7.0827 Z" id="Fill-2"></path>
                <path d="M27.5988,18.5238 L2.4012015,18.5238 C1.9453515,18.5238 1.5762015,18.89295 1.5762015,19.3488 C1.5762015,19.80465 1.9453515,20.1738 2.4012015,20.1738 L27.600003,20.1738 C28.055853,20.1738 28.425003,19.80465 28.425003,19.3488 C28.42383,18.89412 28.054683,18.5238 27.598833,18.5238 L27.5988,18.5238 Z" id="Fill-3"></path>
            </g>
        </g>
        <g id="Page"></g>
    </g>
</svg>