<?xml version="1.0" encoding="UTF-8"?>
<svg width="25px" height="25px" viewBox="0 0 25 25" version="1.1" xmlns="http://www.w3.org/2000/svg" xmlns:xlink="http://www.w3.org/1999/xlink">
    <!-- Generator: sketchtool 52.5 (67469) - http://www.bohemiancoding.com/sketch -->
    <title>E313C3F5-A75C-4BE2-A983-DBD3A261C303</title>
    <desc>Created with sketchtool.</desc>
    <g id="Main_nav" stroke="none" stroke-width="1" fill="none" fill-rule="evenodd">
        <g id="Home" transform="translate(-498.000000, -430.000000)" fill="#4AB9D2" opacity="0.900000036">
            <path d="M518.749978,443.542022 C518.781228,443.88772 518.832985,444.228544 518.832985,444.584018 C518.832985,447.345779 517.736311,449.995019 515.782238,451.949261 C513.829114,453.902379 511.179741,455 508.416993,455 C505.654245,455 503.004997,453.902354 501.050748,451.949261 C499.097624,449.995169 498,447.345779 498,444.58304 C498,441.820301 499.097649,439.171061 501.050748,437.217819 C503.004847,435.263727 505.654245,434.167081 508.416993,434.167081 C508.765618,434.177824 509.113292,434.207121 509.458017,434.253996 L509.458017,430.051762 C509.801767,430.023442 510.145517,430 510.500016,430 C513.815514,430 516.995012,431.317375 519.33876,433.661241 C521.682508,436.005106 523,439.184719 523,442.499956 C523,442.852505 522.9795,443.197228 522.94825,443.541952 L518.749978,443.542022 Z M509.457985,436.3223 C507.205061,436.038126 504.933488,436.685574 503.169989,438.116243 C501.40534,439.545938 500.300741,441.633729 500.112491,443.89647 C499.923039,446.159162 500.666191,448.401453 502.16914,450.104446 C503.672064,451.806589 505.803887,452.822186 508.073386,452.915935 C510.341934,453.009685 512.550882,452.173738 514.188631,450.600519 C515.827305,449.027275 516.752129,446.854534 516.750129,444.583043 C516.747199,444.235394 516.722784,443.886745 516.676887,443.542022 L510.500141,443.542022 C509.924942,443.542022 509.458142,443.075224 509.458142,442.500026 L509.457985,436.3223 Z M521.957976,441.45803 L520.634727,440.136735 C520.14058,438.026393 518.998005,436.123976 517.367206,434.695232 C515.736358,433.267512 513.699209,432.385666 511.541961,432.173741 L511.541961,441.45803 L520.854454,441.457955 C520.807579,441.013632 520.735314,440.573183 520.635704,440.13766 L521.957976,441.45803 Z" id="ikonica_15"></path>
        </g>
        <g id="Page"></g>
    </g>
</svg>