<?xml version="1.0" encoding="UTF-8"?>
<svg width="21px" height="25px" viewBox="0 0 21 25" version="1.1" xmlns="http://www.w3.org/2000/svg" xmlns:xlink="http://www.w3.org/1999/xlink">
    <!-- Generator: sketchtool 52.5 (67469) - http://www.bohemiancoding.com/sketch -->
    <title>9FAE007A-BD00-4FE1-8133-FDF178AF2FB9</title>
    <desc>Created with sketchtool.</desc>
    <g id="Main_nav" stroke="none" stroke-width="1" fill="none" fill-rule="evenodd">
        <g id="Home" transform="translate(-991.000000, -411.000000)" fill="#FFFFFF" opacity="0.200000003">
            <path d="M1008.6865,413.000157 L998.313715,413.000157 C997.036853,413.000157 996,414.01713 996,415.269513 C996,416.521896 997.036853,417.53887 998.313715,417.53887 L999.138644,417.53887 L999.138644,432.721217 C999.138644,435.095548 1001.10639,437 1003.5,437 C1005.89361,437 1007.86136,435.095443 1007.86136,432.722261 L1007.86136,417.565217 L1008.68628,417.565217 C1009.96315,417.565217 1011,416.548243 1011,415.295861 C1011,414.017 1009.96315,413 1008.68628,413 L1008.6865,413.000157 Z M1005.99968,432.722417 C1005.99968,434.07873 1004.88282,435.174174 1003.5,435.174174 C1002.11718,435.174174 1001.00032,434.07873 1001.00032,432.722417 L1001.00032,426.200678 L1005.97367,426.200678 L1005.97367,432.722417 L1005.99968,432.722417 Z M1008.6865,415.739287 L1006.93068,415.739287 C1006.42576,415.739287 1005.99979,416.157096 1005.99979,416.65233 L1005.99979,424.399896 L1001.00037,424.399896 L1001.00037,416.65233 C1001.00037,416.157096 1000.5744,415.739287 1000.06948,415.739287 L998.313662,415.739287 C998.047694,415.739287 997.861728,415.530388 997.861728,415.296017 C997.861728,415.035148 998.074711,414.852748 998.313662,414.852748 L1008.68644,414.852748 C1008.95241,414.852748 1009.13838,415.061647 1009.13838,415.296017 C1009.13838,415.530393 1008.95241,415.739287 1008.68644,415.739287 L1008.6865,415.739287 Z" id="ikonica_13" transform="translate(1003.500000, 425.000000) rotate(-30.000000) translate(-1003.500000, -425.000000) "></path>
        </g>
        <g id="Page"></g>
    </g>
</svg>