<?xml version="1.0" encoding="UTF-8"?>
<svg width="21px" height="21px" viewBox="0 0 21 21" version="1.1" xmlns="http://www.w3.org/2000/svg" xmlns:xlink="http://www.w3.org/1999/xlink">
    <!-- Generator: sketchtool 52.5 (67469) - http://www.bohemiancoding.com/sketch -->
    <title>B8CAE47B-5A7C-461E-B243-129BDF719F5D</title>
    <desc>Created with sketchtool.</desc>
    <g id="Main_nav" stroke="none" stroke-width="1" fill="none" fill-rule="evenodd">
        <g id="Home" transform="translate(-874.000000, -42.000000)" fill="#FFFFFF" opacity="0.200000003">
            <path d="M877,54.7297664 L877,58.6852567 C877,59.0616961 877.119512,59.3699161 877.359338,59.6099167 C877.626439,59.8699722 877.944874,60 878.313822,60 L882.277012,60 C882.646781,60 882.951582,59.8699702 883.190593,59.6099167 C883.457694,59.3699161 883.591635,59.0616961 883.591635,58.6852567 L883.591635,54.7297664 C883.591635,54.3733818 883.457686,54.0651618 883.190593,53.8051063 C882.951561,53.5378179 882.646781,53.4037833 882.277012,53.4037833 L878.313822,53.4037833 C877.944854,53.4037833 877.626419,53.5378261 877.359338,53.8051063 C877.119506,54.0443056 877,54.3525256 877,54.7297664 Z M883.591696,46.3147433 C883.591696,45.9655917 883.457747,45.6573717 883.190654,45.3900833 C882.951623,45.1300278 882.646843,45 882.277074,45 L878.313883,45 C877.944915,45 877.62648,45.1300298 877.3594,45.3900833 C877.119567,45.6300839 877.000062,45.9383039 877.000062,46.3147433 L877.000062,50.2702336 C877.000062,50.6474744 877.119573,50.9556944 877.3594,51.1948937 C877.626501,51.4621821 877.944936,51.5962167 878.313883,51.5962167 L882.277074,51.5962167 C882.646843,51.5962167 882.951643,51.4621739 883.190654,51.1948937 C883.457756,50.9556944 883.591696,50.6474744 883.591696,50.2702336 L883.591696,46.3147433 Z M892,58.6852567 L892,54.7297664 C892,54.3733818 891.866051,54.0651618 891.599759,53.8051063 C891.359927,53.5378179 891.051923,53.4037833 890.675747,53.4037833 L886.723029,53.4037833 C886.35326,53.4037833 886.034825,53.5378261 885.767744,53.8051063 C885.528713,54.0443056 885.408406,54.3525256 885.408406,54.7297664 L885.408406,58.6852567 C885.408406,59.0616961 885.528721,59.3699161 885.767744,59.6099167 C886.034846,59.8699722 886.353281,60 886.723029,60 L890.675747,60 C891.051923,60 891.359927,59.8699702 891.599759,59.6099167 C891.866059,59.3699161 892,59.0616961 892,58.6852567 Z M892,50.2702336 L892,46.3147433 C892,45.9655917 891.866051,45.6573717 891.599759,45.3900833 C891.359927,45.1300278 891.051923,45 890.675747,45 L886.723029,45 C886.35326,45 886.034825,45.1300298 885.767744,45.3900833 C885.528713,45.6300839 885.408406,45.9383039 885.408406,46.3147433 L885.408406,50.2702336 C885.408406,50.6474744 885.528721,50.9556944 885.767744,51.1948937 C886.034846,51.4621821 886.353281,51.5962167 886.723029,51.5962167 L890.675747,51.5962167 C891.051923,51.5962167 891.359927,51.4621739 891.599759,51.1948937 C891.866059,50.9556944 892,50.6474744 892,50.2702336 Z" id="ikonica_5" transform="translate(884.500000, 52.500000) rotate(50.000000) translate(-884.500000, -52.500000) "></path>
        </g>
        <g id="Page"></g>
    </g>
</svg>