<?xml version="1.0" encoding="UTF-8"?>
<svg width="23px" height="25px" viewBox="0 0 23 25" version="1.1" xmlns="http://www.w3.org/2000/svg" xmlns:xlink="http://www.w3.org/1999/xlink">
    <!-- Generator: sketchtool 52.5 (67469) - http://www.bohemiancoding.com/sketch -->
    <title>5B882B29-CFFE-46BE-8A3B-9A33483135EE</title>
    <desc>Created with sketchtool.</desc>
    <g id="Main_nav" stroke="none" stroke-width="1" fill="none" fill-rule="evenodd">
        <g id="Home" transform="translate(-720.000000, -107.000000)" fill="#00E7CA" opacity="0.800000012">
            <g id="ikonica_4" transform="translate(720.000000, 107.000000)">
                <path d="M0.5,12.5 L0.5,18.5 C0.5,19.030275 0.7109375,19.53905 1.08595,19.91405 C1.4609625,20.28905 1.96975,20.5 2.5,20.5 L4.5,20.5 C5.030275,20.5 5.53905,20.2890625 5.91405,19.91405 C6.28905,19.5390375 6.5,19.03025 6.5,18.5 L6.5,12.5 C6.5,11.969725 6.2890625,11.46095 5.91405,11.08595 C5.5390375,10.71095 5.03025,10.5 4.5,10.5 L2.5,10.5 C1.3955,10.5 0.5,11.3955 0.5,12.5 Z M2.5,12.5 L4.5,12.5 L4.5,18.5 L2.5,18.5 L2.5,12.5 Z" id="Fill-1"></path>
                <path d="M14.5,2.5 C14.5,1.969725 14.2890625,1.46095 13.91405,1.08595 C13.5390375,0.71095 13.03025,0.5 12.5,0.5 L10.5,0.5 C9.3955,0.5 8.5,1.3955 8.5,2.5 L8.5,18.5 C8.5,19.030275 8.7109375,19.53905 9.08595,19.91405 C9.4609625,20.28905 9.96975,20.5 10.5,20.5 L12.5,20.5 C13.030275,20.5 13.53905,20.2890625 13.91405,19.91405 C14.28905,19.5390375 14.5,19.03025 14.5,18.5 L14.5,2.5 Z M10.5,18.5 L10.5,2.5 L12.5,2.5 L12.5,18.5 L10.5,18.5 Z" id="Fill-2"></path>
                <path d="M22.5,7.5 C22.5,6.969725 22.2890625,6.46095 21.91405,6.08595 C21.5390375,5.71095 21.03025,5.5 20.5,5.5 L18.5,5.5 C17.3955,5.5 16.5,6.3955 16.5,7.5 L16.5,18.5 C16.5,19.030275 16.7109375,19.53905 17.08595,19.91405 C17.4609625,20.28905 17.96975,20.5 18.5,20.5 L20.5,20.5 C21.030275,20.5 21.53905,20.2890625 21.91405,19.91405 C22.28905,19.5390375 22.5,19.03025 22.5,18.5 L22.5,7.5 Z M18.5,18.5 L18.5,7.5 L20.5,7.5 L20.5,18.5 L18.5,18.5 Z" id="Fill-3"></path>
                <path d="M1.5,24.5 L5.5,24.5 C6.052725,24.5 6.5,24.052725 6.5,23.5 C6.5,22.947275 6.052725,22.5 5.5,22.5 L1.5,22.5 C0.947275,22.5 0.5,22.947275 0.5,23.5 C0.5,24.052725 0.947275,24.5 1.5,24.5 Z" id="Fill-4"></path>
                <path d="M9.5,22.5 C8.947275,22.5 8.5,22.947275 8.5,23.5 C8.5,24.052725 8.947275,24.5 9.5,24.5 L13.5,24.5 C14.052725,24.5 14.5,24.052725 14.5,23.5 C14.5,22.947275 14.052725,22.5 13.5,22.5 L9.5,22.5 Z" id="Fill-5"></path>
                <path d="M21.5,22.5 L17.5,22.5 C16.947275,22.5 16.5,22.947275 16.5,23.5 C16.5,24.052725 16.947275,24.5 17.5,24.5 L21.5,24.5 C22.052725,24.5 22.5,24.052725 22.5,23.5 C22.5,22.947275 22.052725,22.5 21.5,22.5 Z" id="Fill-6"></path>
            </g>
        </g>
        <g id="Page"></g>
    </g>
</svg>