<?xml version="1.0" encoding="UTF-8"?>
<svg width="23px" height="23px" viewBox="0 0 23 23" version="1.1" xmlns="http://www.w3.org/2000/svg" xmlns:xlink="http://www.w3.org/1999/xlink">
    <!-- Generator: sketchtool 52.5 (67469) - http://www.bohemiancoding.com/sketch -->
    <title>A6F998B5-5362-46AD-AAD7-528C1B220EC3</title>
    <desc>Created with sketchtool.</desc>
    <g id="Main_nav" stroke="none" stroke-width="1" fill="none" fill-rule="evenodd">
        <g id="Home" transform="translate(-265.000000, -269.000000)" opacity="0.200000003">
            <g id="ikonica_10" transform="translate(276.500000, 280.500000) rotate(-10.000000) translate(-276.500000, -280.500000) translate(259.000000, 263.000000)">
                <path d="M12.3116,17.85 C12.601442,17.85 12.878985,17.735158 13.08405,17.530079 C13.290494,17.325 13.4053395,17.046099 13.4053395,16.756264 C13.408073,16.70431 13.408073,16.650991 13.4053395,16.599037 L14.9981195,15.618757 C15.3918695,15.9318425 15.9496995,15.9318425 16.3448145,15.618757 L17.8145345,16.625007 C17.8104325,16.6837965 17.8104325,16.7412175 17.8145345,16.800007 C17.86512,17.363297 18.3381695,17.796702 18.9041895,17.796702 C19.4702095,17.796702 19.9432695,17.363297 19.9938445,16.800007 C19.9938445,16.633211 19.9541965,16.46778 19.8803675,16.318757 L21.7096775,14.157227 L21.708309,14.157227 C21.891513,14.2337895 22.088374,14.272069 22.286614,14.270704 C22.971564,14.266602 23.567684,13.800374 23.735824,13.137299 C23.9039885,12.472859 23.6032055,11.778319 23.002994,11.447464 C22.404179,11.1179705 21.656299,11.234181 21.184639,11.7304705 C20.712944,12.2281355 20.637764,12.9814405 21.00007,13.5625105 L19.20632,15.7500105 C18.908274,15.6720795 18.59109,15.722665 18.33132,15.8894645 L16.74813,14.8750245 L16.74813,14.7793205 C16.7754755,14.4730705 16.672936,14.1695505 16.4651235,13.9426105 C16.2586795,13.717025 15.9647285,13.5871505 15.6584785,13.5871505 C15.35086,13.5871505 15.0582985,13.717032 14.8504685,13.9426105 C14.6440245,14.1695645 14.541485,14.4730705 14.568827,14.7793205 L14.568827,14.8586165 L12.924107,15.8730565 C12.6383635,15.6707145 12.273317,15.617392 11.941097,15.7281355 C11.6102385,15.840244 11.351837,16.1041055 11.247922,16.4390555 C11.142649,16.7726475 11.2055405,17.1363255 11.413353,17.4166055 C11.622534,17.698247 11.952038,17.8622955 12.302038,17.8582005 L12.3116,17.85 Z" id="Fill-1" fill="#FFFFFF"></path>
                <polygon id="Fill-2" fill="#FFFFFF" points="11.4982 23.02055 13.10876 23.02055 13.10876 19.425 11.4982 19.425"></polygon>
                <polygon id="Fill-3" fill="#FFFFFF" points="18.13035 23.02055 19.74091 23.02055 19.74091 19.425 18.13035 19.425"></polygon>
                <polygon id="Fill-4" fill="#FFFFFF" points="21.44555 23.00445 23.05611 23.00445 23.05611 16.275 21.44555 16.275"></polygon>
                <polygon id="Fill-5" fill="#FFFFFF" points="14.8134 23.0125 16.42396 23.0125 16.42396 17.5616 14.8134 17.5616"></polygon>
                <path d="M27.86875,17.5 C27.86875,23.2271375 23.2271375,27.86875 17.5,27.86875 C11.7728625,27.86875 7.13125,23.2271375 7.13125,17.5 C7.13125,11.7728625 11.7728625,7.13125 17.5,7.13125 C23.2271375,7.13125 27.86875,11.7728625 27.86875,17.5" id="Stroke-6" stroke="#FFFFFF" stroke-width="2"></path>
            </g>
        </g>
        <g id="Page"></g>
    </g>
</svg>