<?xml version="1.0" encoding="UTF-8"?>
<svg width="27px" height="28px" viewBox="0 0 27 28" version="1.1" xmlns="http://www.w3.org/2000/svg" xmlns:xlink="http://www.w3.org/1999/xlink">
    <!-- Generator: sketchtool 52.5 (67469) - http://www.bohemiancoding.com/sketch -->
    <title>FF76E07C-5635-48C8-9F53-81B50F4E6C7B</title>
    <desc>Created with sketchtool.</desc>
    <g id="Main_nav" stroke="none" stroke-width="1" fill="none" fill-rule="evenodd">
        <g id="Home" transform="translate(-839.000000, -151.000000)" fill="#FFFFFF" opacity="0.200000003">
            <path d="M865.998065,165.440715 C865.998065,165.437559 865.997013,165.434402 865.997013,165.430195 C865.995964,165.414412 865.993862,165.398631 865.99281,165.383901 C865.991758,165.377588 865.990708,165.372328 865.989656,165.367067 C865.987554,165.354441 865.985453,165.340764 865.983348,165.32814 C865.982299,165.320774 865.980194,165.314463 865.978093,165.307097 C865.974939,165.295523 865.972837,165.28395 865.969683,165.272376 C865.967582,165.265013 865.964428,165.256596 865.962326,165.249229 C865.959172,165.239762 865.956018,165.229242 865.952865,165.218719 C865.949711,165.210302 865.946557,165.201885 865.943406,165.193468 C865.940252,165.184001 865.937098,165.174531 865.932892,165.166114 C865.929738,165.157698 865.925535,165.149281 865.922381,165.141917 C865.918178,165.1335 865.915024,165.12403 865.909768,165.115613 C865.905562,165.107197 865.901359,165.099833 865.897153,165.091416 C865.89295,165.082999 865.888744,165.074582 865.883488,165.066166 C865.879282,165.057749 865.874027,165.050385 865.868771,165.041968 C865.863516,165.033552 865.859312,165.026185 865.854054,165.017768 C865.848799,165.010405 865.843543,165.003041 865.838288,164.994624 C865.833032,164.987258 865.827777,164.978841 865.821469,164.971477 C865.816214,164.964111 865.809906,164.956747 865.803598,164.950434 C865.797293,164.94307 865.792038,164.935706 865.78573,164.92834 C865.779422,164.922027 865.773115,164.914663 865.76681,164.90835 C865.760502,164.900986 865.754194,164.893622 865.746837,164.887309 C865.740529,164.880996 865.733172,164.874682 865.726865,164.868372 C865.719505,164.862059 865.7132,164.854692 865.70584,164.848382 C865.699535,164.842068 865.692175,164.836808 865.684818,164.830495 C865.677458,164.824182 865.670101,164.817871 865.661692,164.811558 C865.654334,164.806297 865.646975,164.801037 865.639617,164.795774 C865.631208,164.790514 865.623851,164.784204 865.615442,164.778941 C865.608082,164.773681 865.599672,164.769474 865.591263,164.764213 C865.583906,164.758953 865.576546,164.754743 865.568137,164.749483 C865.567087,164.74843 865.566035,164.74843 865.566035,164.74843 C865.564986,164.74738 865.563933,164.74738 865.563933,164.74738 L864.621038,164.208704 L864.621038,158.463184 C864.621038,158.455817 864.619986,158.4474 864.619986,158.440037 C864.618936,158.42215 864.618936,158.404266 864.616832,158.386379 C864.615782,158.372702 864.613678,158.360076 864.611576,158.347452 C864.609475,158.333775 864.607373,158.319045 864.605269,158.305368 C864.602117,158.289584 864.598964,158.274857 864.59581,158.260127 C864.592656,158.248554 864.590554,158.23698 864.5874,158.225407 C864.583194,158.209623 864.577939,158.193843 864.572683,158.179113 C864.56848,158.168592 864.565326,158.158069 864.56112,158.146499 C864.554812,158.131769 864.548508,158.117038 864.5422,158.103361 C864.536944,158.091788 864.531689,158.080215 864.525381,158.069694 C864.519073,158.057068 864.511716,158.044444 864.505409,158.03287 C864.498051,158.020244 864.490692,158.00762 864.483334,157.996046 C864.477027,157.985526 864.46967,157.976056 864.46231,157.965536 C864.452851,157.952909 864.443389,157.940285 864.433928,157.927661 C864.426571,157.919245 864.419214,157.909775 864.411854,157.901358 C864.401343,157.888734 864.390832,157.876107 864.379269,157.864534 L864.354041,157.839284 C864.342477,157.828763 864.330917,157.818243 864.319351,157.80772 C864.30884,157.798253 864.297277,157.789836 864.285714,157.781419 C864.275203,157.773002 864.264692,157.765636 864.254178,157.757219 C864.239464,157.746699 864.224744,157.737229 864.208977,157.727759 C864.202672,157.723552 864.196365,157.719342 864.189005,157.715135 L859.265303,154.897589 L859.265303,153.668734 C859.265303,153.649797 859.264253,153.63086 859.263201,153.61087 C859.263201,153.604556 859.262149,153.599296 859.261099,153.592983 C859.260047,153.579306 859.258998,153.566682 859.256893,153.554055 C859.255844,153.546692 859.253739,153.539325 859.25269,153.530908 C859.250588,153.520388 859.249536,153.508815 859.247434,153.498294 C859.24533,153.489878 859.243228,153.481461 859.241127,153.474097 C859.239025,153.463577 859.236921,153.454107 859.23377,153.443586 C859.231665,153.43517 859.228511,153.427806 859.22641,153.419389 C859.223256,153.409919 859.221154,153.399399 859.218,153.389929 C859.214846,153.381512 859.211693,153.374146 859.208541,153.365729 C859.205388,153.356262 859.201182,153.346792 859.198028,153.337322 C859.194874,153.328905 859.190671,153.321541 859.187517,153.314175 C859.183313,153.304708 859.179107,153.296291 859.174904,153.286821 C859.170698,153.279457 859.166495,153.272093 859.162289,153.263677 C859.157033,153.25526 859.152827,153.24579 859.147572,153.237373 C859.143368,153.230009 859.139162,153.222643 859.133907,153.216332 C859.128651,153.207916 859.123396,153.199499 859.11814,153.191082 C859.113934,153.183716 859.108679,153.177402 859.103423,153.170039 C859.097116,153.161622 859.09186,153.153205 859.085553,153.144788 C859.080297,153.138475 859.075042,153.131111 859.069786,153.124798 C859.063478,153.117434 859.057173,153.109017 859.050866,153.101651 C859.04561,153.09534 859.039303,153.089027 859.032995,153.082714 C859.026687,153.07535 859.01933,153.067984 859.013022,153.06062 C859.006717,153.054307 859.00041,153.047996 858.994102,153.042733 C858.986745,153.036423 858.979385,153.029056 858.972028,153.022746 C858.96572,153.016432 858.958363,153.011172 858.952055,153.005912 C858.944698,152.999599 858.936289,152.993285 858.928929,152.986972 C858.921572,152.981712 858.914215,152.976452 858.906855,152.971192 C858.898445,152.964878 858.891088,152.959618 858.882679,152.953305 C858.875319,152.948045 858.86691,152.943838 858.859553,152.938577 C858.852195,152.933315 858.844836,152.929108 858.836426,152.923847 C858.835377,152.922794 858.834325,152.922794 858.834325,152.922794 C858.833272,152.921744 858.832223,152.921744 858.832223,152.921744 L853.927357,150.113625 C853.662462,149.962125 853.337654,149.962125 853.072753,150.113625 L848.167888,152.918512 C848.166836,152.919562 848.165786,152.919562 848.164734,152.920615 C848.163684,152.920615 848.163684,152.921666 848.162632,152.921666 C848.156325,152.925875 848.150017,152.929032 848.143712,152.933239 C848.13425,152.938499 848.124789,152.944813 848.11533,152.951126 C848.10797,152.955333 848.101663,152.960596 848.094305,152.965856 C848.085896,152.972167 848.077487,152.97848 848.069077,152.98374 C848.06172,152.989 848.055412,152.995314 848.048055,153.000574 C848.040695,153.006887 848.032286,153.0132 848.024929,153.019514 C848.017569,153.025824 848.011264,153.032137 848.003904,153.038451 C847.997599,153.044764 847.990239,153.051075 847.983932,153.057388 C847.977627,153.064752 847.970267,153.071065 847.963962,153.078431 C847.957654,153.084742 847.951347,153.091055 847.946091,153.098419 C847.939783,153.105785 847.933476,153.114202 847.927171,153.121566 C847.921915,153.127879 847.916657,153.135243 847.910352,153.141556 C847.904044,153.149973 847.897737,153.15839 847.892481,153.166806 C847.887226,153.17312 847.88302,153.180483 847.877764,153.186797 C847.872509,153.195214 847.867253,153.20363 847.861998,153.2131 C847.857792,153.220464 847.852536,153.227828 847.848333,153.234141 C847.843077,153.242558 847.838871,153.252028 847.834668,153.260445 C847.830462,153.267808 847.826259,153.275172 847.822053,153.283589 C847.817849,153.292006 847.813643,153.301476 847.80944,153.310943 C847.805234,153.31936 847.80208,153.326726 847.798926,153.335143 C847.794723,153.34356 847.791569,153.353027 847.788415,153.362497 C847.785261,153.370914 847.782108,153.37933 847.778956,153.387747 C847.775803,153.396164 847.773698,153.405631 847.770547,153.415101 C847.767393,153.423518 847.765289,153.432985 847.762138,153.441402 C847.760033,153.450872 847.757932,153.459289 847.75583,153.468756 C847.753728,153.478226 847.751624,153.486643 847.749522,153.49611 C847.747421,153.50558 847.746369,153.51505 847.744267,153.524517 C847.742165,153.533987 847.741113,153.542404 847.740061,153.551871 C847.739011,153.562394 847.737959,153.572914 847.73691,153.583435 C847.735858,153.591852 847.734805,153.600268 847.734805,153.608685 C847.733756,153.622365 847.733756,153.636039 847.733756,153.649716 C847.733756,153.654979 847.732704,153.660239 847.732704,153.665499 L847.732704,154.894354 L842.811154,157.7119 C842.803797,157.716107 842.797489,157.720317 842.791182,157.725577 C842.776465,157.735047 842.761748,157.743464 842.747033,157.753984 C842.735471,157.761348 842.724959,157.769765 842.714449,157.778181 C842.702886,157.785548 842.692374,157.793965 842.681863,157.803432 C842.669249,157.813955 842.657687,157.824475 842.646124,157.834996 C842.637715,157.843412 842.629306,157.850779 842.620896,157.859196 C842.609334,157.87182 842.597771,157.883393 842.587259,157.89602 C842.579901,157.904436 842.572543,157.912853 842.566236,157.92127 C842.556775,157.933894 842.546263,157.94652 842.537854,157.960197 C842.530496,157.969665 842.523138,157.980188 842.516831,157.990708 C842.509472,158.003332 842.501063,158.014905 842.493705,158.027532 C842.486347,158.040156 842.48004,158.051729 842.473733,158.064356 C842.468477,158.075929 842.463221,158.0875 842.456914,158.098023 C842.450607,158.112751 842.4443,158.12643 842.437993,158.14116 C842.433788,158.151681 842.429584,158.162201 842.42643,158.173774 C842.421174,158.189555 842.415918,158.204285 842.411714,158.221119 C842.40856,158.232692 842.405407,158.244266 842.403304,158.255839 C842.3991,158.27162 842.395946,158.28635 842.392793,158.302133 C842.389639,158.31581 842.388588,158.329487 842.386486,158.343164 C842.384383,158.356841 842.382281,158.369465 842.38123,158.383144 C842.379127,158.401029 842.379127,158.417865 842.378076,158.435749 C842.378076,158.444166 842.377025,158.451529 842.377025,158.459946 L842.377025,164.207621 L841.432031,164.748398 C841.43098,164.748398 841.43098,164.749451 841.429929,164.749451 C841.428877,164.750501 841.427826,164.750501 841.426775,164.751555 C841.417314,164.756815 841.408905,164.763128 841.399445,164.768388 C841.393138,164.772598 841.386831,164.775752 841.380524,164.779962 C841.371064,164.786275 841.360552,164.793639 841.35109,164.801002 C841.345835,164.805212 841.339527,164.809419 841.334272,164.813629 C841.324811,164.820993 841.315351,164.828359 841.30589,164.836776 C841.300634,164.840983 841.295378,164.845193 841.290122,164.850453 C841.281713,164.857816 841.272252,164.866233 841.263843,164.87465 C841.258587,164.87991 841.253332,164.88412 841.249127,164.888327 C841.241769,164.895694 841.23441,164.905161 841.226001,164.913578 C841.221796,164.918838 841.216541,164.923047 841.212336,164.928308 C841.204978,164.936724 841.197619,164.946194 841.18921,164.955662 C841.185005,164.960922 841.180801,164.966182 841.176596,164.971442 C841.169238,164.980912 841.162931,164.990382 841.156624,164.999849 C841.152419,165.005112 841.148215,165.011423 841.14401,165.016683 C841.137703,165.026153 841.131396,165.036673 841.12614,165.046143 C841.121935,165.052456 841.118782,165.057717 841.115629,165.06403 C841.109321,165.07455 841.105117,165.08402 841.09881,165.09454 C841.095656,165.100854 841.092503,165.107167 841.089349,165.113478 C841.084093,165.124001 841.079889,165.134521 841.074633,165.146092 C841.071479,165.152405 841.068326,165.158718 841.066224,165.165032 C841.062019,165.175552 841.057814,165.186072 841.05361,165.197646 C841.051507,165.203956 841.048354,165.211323 841.046251,165.217633 C841.042047,165.229207 841.038893,165.24078 841.03574,165.252354 C841.033637,165.258667 841.031535,165.26498 841.029433,165.272344 C841.026279,165.283917 841.023126,165.296544 841.021023,165.308115 C841.019972,165.314428 841.01787,165.320741 841.016819,165.327052 C841.013665,165.339678 841.012614,165.352302 841.010512,165.365979 C841.009461,165.372293 841.008409,165.377553 841.007358,165.383866 C841.005256,165.398596 841.004205,165.413326 841.003154,165.427003 C841.003154,165.431213 841.002102,165.43542 841.002102,165.44068 C841.001051,165.457514 841,165.474348 841,165.491181 L841,165.498548 L841,171.138756 C841,171.448064 841.165033,171.733185 841.433088,171.886789 L846.337953,174.695984 C846.470401,174.771735 846.617574,174.809612 846.765767,174.809612 C846.915033,174.809612 847.064305,174.770685 847.197805,174.69283 C847.207264,174.68757 847.216725,174.680205 847.226187,174.674944 L848.218489,174.106803 L853.072764,176.886372 C853.207313,176.963176 853.354484,177 853.499528,177 C853.671918,177 853.841149,176.948446 853.984121,176.850601 L858.777311,174.103622 L859.806398,174.692799 C859.938846,174.76855 860.086019,174.806427 860.234212,174.806427 C860.383478,174.806427 860.53275,174.7675 860.66625,174.689645 C860.675709,174.683332 860.686223,174.677019 860.695684,174.671759 L865.566912,171.882762 C865.834959,171.729156 866,171.444038 866,171.13473 L866,165.497484 C866,165.478546 866,165.459609 865.997896,165.440669 L865.998065,165.440715 Z M863.40484,165.497529 L860.234586,167.310309 L857.065408,165.496479 L860.235662,163.682649 L863.40484,165.497529 Z M856.191644,166.98204 L859.374546,168.804274 L859.374546,172.460269 L856.191644,170.638035 L856.191644,166.98204 Z M849.45583,155.152173 L852.638732,156.974407 L852.638732,160.630402 L849.45583,158.808168 L849.45583,155.152173 Z M854.360695,156.973356 L857.543597,155.152173 L857.543597,158.806013 L854.360695,160.629297 L854.360695,156.973356 Z M853.499794,151.853778 L856.670048,153.667608 L853.499794,155.480388 L850.32954,153.666558 L853.499794,151.853778 Z M847.624827,172.458141 L847.624827,168.803223 L850.807729,166.98204 L850.807729,170.634803 L847.624827,172.458141 Z M846.763926,167.310282 L843.594749,165.496452 L846.765003,163.682622 L849.935257,165.496452 L846.763926,167.310282 Z M842.721253,166.982013 L845.904155,168.804247 L845.904155,172.460242 L842.721253,170.636958 L842.721253,166.982013 Z M853.49678,175.143226 L849.950057,173.11266 L852.095502,171.883805 C852.363548,171.730199 852.528589,171.44508 852.528589,171.135772 L852.529639,165.497449 C852.529639,165.478511 852.528589,165.458521 852.527537,165.439584 C852.526485,165.43222 852.525436,165.424854 852.525436,165.418543 C852.524383,165.40697 852.523334,165.394343 852.522282,165.382773 C852.52123,165.374356 852.519128,165.365939 852.518076,165.357522 C852.515974,165.346999 852.514925,165.336479 852.51282,165.325958 C852.510719,165.317542 852.508617,165.310175 852.507565,165.301758 C852.505463,165.291238 852.503361,165.280718 852.500208,165.271248 C852.498106,165.262831 852.494952,165.255467 852.492848,165.24705 C852.489697,165.23758 852.486543,165.22706 852.483389,165.21654 C852.480235,165.209173 852.477081,165.200757 852.47498,165.193393 C852.470774,165.183923 852.46762,165.173403 852.464469,165.163933 C852.461315,165.156569 852.458161,165.149203 852.455007,165.141839 C852.450801,165.132369 852.446598,165.121849 852.441342,165.112381 C852.438188,165.105018 852.433982,165.098704 852.430831,165.092391 C852.425573,165.082921 852.42137,165.073454 852.415062,165.063984 C852.410859,165.057671 852.407705,165.05136 852.403499,165.045047 C852.397194,165.035577 852.391936,165.02611 852.385631,165.01664 C852.381425,165.010326 852.377221,165.005066 852.373015,164.999806 C852.366708,164.990336 852.35935,164.980869 852.353043,164.971399 C852.348839,164.966139 852.344633,164.960879 852.339378,164.955616 C852.332021,164.946149 852.324661,164.937732 852.317304,164.928262 C852.3131,164.923002 852.307842,164.918795 852.303639,164.913534 C852.29523,164.905118 852.287872,164.895648 852.279463,164.887231 C852.274205,164.881971 852.270002,164.877761 852.264746,164.873554 C852.256337,164.865137 852.247927,164.85672 852.238466,164.848303 C852.23321,164.844094 852.227955,164.839887 852.222699,164.835677 C852.213238,164.828313 852.203779,164.819896 852.194318,164.812533 C852.189062,164.808323 852.182754,164.804116 852.177499,164.799906 C852.168037,164.792542 852.158579,164.785176 852.148065,164.778865 C852.141757,164.774656 852.135449,164.771499 852.129144,164.767292 C852.119683,164.762032 852.111274,164.755718 852.101815,164.750458 C852.100763,164.749405 852.09971,164.749405 852.098661,164.748355 C852.097609,164.748355 852.097609,164.747302 852.096557,164.747302 L847.191694,161.942415 C846.926798,161.790912 846.601991,161.790912 846.33709,161.942415 L844.099156,163.222821 L844.099156,158.959738 L847.734143,156.880771 L847.734143,159.307965 C847.734143,159.617273 847.899176,159.902394 848.167231,160.055998 L853.072097,162.865194 C853.204544,162.940945 853.351717,162.97882 853.49991,162.97882 C853.649176,162.97882 853.798448,162.939892 853.931948,162.862037 C853.942459,162.855724 853.951918,162.849411 853.962432,162.8431 L858.832581,160.054104 C859.100627,159.900498 859.265668,159.61538 859.265668,159.306072 L859.265668,156.882029 L862.900659,158.962046 L862.900659,163.222975 L860.663774,161.942568 C860.398879,161.791066 860.074071,161.791066 859.80917,161.942568 L854.903497,164.748533 C854.902445,164.749583 854.901393,164.749583 854.900344,164.750636 C854.899291,164.750636 854.899291,164.751689 854.898239,164.751689 C854.891934,164.754843 854.886679,164.759053 854.880371,164.76326 C854.87091,164.769573 854.860399,164.774833 854.850937,164.781147 C854.844629,164.785356 854.837272,164.790617 854.830965,164.794824 C854.822555,164.801137 854.813094,164.80745 854.804684,164.813761 C854.798379,164.819024 854.79102,164.824284 854.784712,164.829544 C854.776303,164.835857 854.767893,164.842168 854.760536,164.849534 C854.754228,164.854795 854.747923,164.861108 854.741616,164.867418 C854.734256,164.873732 854.726899,164.881095 854.719541,164.888462 C854.713234,164.894775 854.706926,164.901086 854.701671,164.907399 C854.695363,164.914763 854.688006,164.922129 854.681698,164.928442 C854.67539,164.934753 854.670135,164.942119 854.664879,164.949483 C854.658572,164.956847 854.652267,164.964213 854.647011,164.971577 C854.641753,164.978943 854.636498,164.986307 854.631242,164.993671 C854.625987,165.001037 854.619679,165.009454 854.614423,165.016818 C854.609168,165.024181 854.604965,165.032598 854.599706,165.039964 C854.594451,165.048381 854.589195,165.055745 854.584992,165.064162 C854.580786,165.073632 854.577632,165.080995 854.572377,165.089412 C854.568173,165.097829 854.562918,165.106246 854.558712,165.114663 C854.554509,165.123079 854.551355,165.131496 854.547149,165.139913 C854.542945,165.14833 854.538739,165.156747 854.535585,165.166217 C854.532432,165.174633 854.529281,165.18305 854.526127,165.191467 C854.522973,165.200934 854.518767,165.209351 854.515613,165.218821 C854.512462,165.227238 854.510357,165.235655 854.508256,165.244072 C854.505102,165.253539 854.501948,165.263009 854.499846,165.272479 C854.497745,165.280895 854.495643,165.290363 854.493539,165.298779 C854.491437,165.308249 854.488283,165.317719 854.487234,165.327187 C854.485129,165.336657 854.48408,165.347177 854.481976,165.356647 C854.480926,165.365064 854.478824,165.37348 854.477772,165.38295 C854.475671,165.394524 854.475671,165.406097 854.474618,165.417671 C854.473566,165.425034 854.472517,165.432401 854.472517,165.439765 C854.471465,165.455545 854.471465,165.471328 854.470415,165.488162 L854.470415,165.497632 L854.470415,171.137841 C854.470415,171.447148 854.635448,171.73227 854.903503,171.885873 L857.044723,173.112627 L853.49678,175.143226 Z M861.096671,172.458249 L861.096671,168.803331 L864.279573,166.982148 L864.279573,170.634911 L861.096671,172.458249 Z" id="ikonica_8" transform="translate(853.500000, 163.500000) rotate(50.000000) translate(-853.500000, -163.500000) "></path>
        </g>
        <g id="Page"></g>
    </g>
</svg>