<?xml version="1.0" encoding="UTF-8"?>
<svg width="23px" height="16px" viewBox="0 0 23 16" version="1.1" xmlns="http://www.w3.org/2000/svg" xmlns:xlink="http://www.w3.org/1999/xlink">
    <!-- Generator: sketchtool 52.5 (67469) - http://www.bohemiancoding.com/sketch -->
    <title>9FBDB377-C8A7-4302-AC32-B0C4A9F98442</title>
    <desc>Created with sketchtool.</desc>
    <g id="Main_nav" stroke="none" stroke-width="1" fill="none" fill-rule="evenodd">
        <g id="Home" transform="translate(-816.000000, -487.000000)" fill="#FFFFFF" opacity="0.200000003">
            <g id="ikonica_17" transform="translate(815.000000, 486.000000)">
                <path d="M3.1415,14.497 L21.88575,14.497 C22.438475,14.497 22.88575,14.049725 22.88575,13.497 L22.8847725,2.25375 C22.8847725,1.701025 22.4374975,1.25375 21.8847725,1.25375 L3.6415225,1.25375 C3.0887975,1.25375 2.14054775,1.701025 2.14054775,2.25375 L2.14054775,13.496 C2.14152425,14.048725 2.5887975,14.496975 3.1415225,14.496975 L3.1415,14.497 Z M3.5165,2.668 C3.56728,2.6484675 3.6180625,2.63382 3.654195,2.6289375 L21.510695,2.6289375 L21.510695,13.1211875 L3.5164475,13.1221625 L3.5165,2.668 Z" id="Fill-1"></path>
                <path d="M19.0635,5.90225 C19.0625225,5.8983425 19.0635,5.8944375 19.0625225,5.889555 L19.0625225,5.8885775 C19.0556875,5.843655 19.0439675,5.79971 19.0283425,5.7567425 C19.0224825,5.7401425 19.0127175,5.724515 19.0058825,5.70889 C18.9941625,5.6844775 18.9843975,5.659085 18.96975,5.636625 C18.959985,5.620025 18.9472875,5.6063525 18.93557,5.5907275 C18.92092,5.57022 18.9062725,5.548735 18.888695,5.53018 C18.874045,5.514555 18.857445,5.50186 18.84182,5.48721 C18.8242425,5.471585 18.8086175,5.4549825 18.789085,5.440335 C18.7158425,5.386625 18.6318575,5.3475625 18.54299,5.3260775 C18.530295,5.3231475 18.5176,5.3231475 18.50588,5.3202175 C18.47463,5.31436 18.44338,5.3085 18.4101775,5.3075225 C18.3701375,5.30557 18.3301,5.3094775 18.29006,5.31436 C18.2851775,5.315335 18.28127,5.31436 18.2763875,5.315335 L18.27541,5.315335 C18.274435,5.315335 18.2734575,5.315335 18.2724825,5.3163125 L16.8310825,5.5409225 C16.821315,5.542875 16.8125275,5.5467825 16.8027625,5.5477575 C16.7783475,5.5526425 16.75491,5.5585 16.7314725,5.5663125 C16.7099875,5.57315 16.68948,5.579985 16.6689725,5.588775 C16.64944,5.5975625 16.62991,5.6063525 16.611355,5.617095 C16.5888925,5.6288125 16.5683875,5.6415075 16.5478775,5.65518 C16.540065,5.6610375 16.531275,5.6639675 16.5234625,5.6698275 C16.5146725,5.6766625 16.5078375,5.6854525 16.4990475,5.6922875 C16.480495,5.7079125 16.4619375,5.724515 16.4453375,5.7420925 C16.4297125,5.7577175 16.41604,5.77432 16.4023675,5.79092 C16.3886975,5.8085 16.376,5.8260775 16.363305,5.84463 C16.35061,5.863185 16.3388925,5.882715 16.329125,5.9022475 C16.31936,5.92178 16.3105725,5.94131 16.30178,5.9618175 C16.2939675,5.9823275 16.286155,6.0028325 16.27932,6.0243175 C16.272485,6.0458025 16.2676025,6.0672875 16.263695,6.0897475 C16.25979,6.11221 16.2558825,6.1336925 16.25393,6.1561525 C16.2519775,6.1776375 16.251,6.1991225 16.251,6.220605 C16.251,6.24502 16.2519775,6.2694325 16.254905,6.2938475 C16.2558825,6.30459 16.254905,6.3153325 16.25686,6.32705 C16.2588125,6.3377925 16.2627175,6.3465825 16.2646725,6.3573225 C16.2685775,6.37783 16.27346,6.3973625 16.27932,6.4168925 C16.286155,6.44033 16.294945,6.46279 16.303735,6.4852525 C16.31057,6.501855 16.317405,6.518455 16.326195,6.53408 C16.33889,6.55947 16.354515,6.5829075 16.37014,6.606345 C16.376,6.615135 16.379905,6.6249 16.3867425,6.63369 L16.422875,6.6815425 L13.019625,9.3055425 L10.090875,7.1981175 C10.087945,7.196165 10.085015,7.1951875 10.082085,7.193235 C10.059625,7.17761 10.0361875,7.16589 10.01275,7.153195 C9.99615,7.1444075 9.9795475,7.133665 9.96197,7.12585 C9.94244,7.1180375 9.9229075,7.11218 9.9024,7.10632 C9.8789625,7.0985075 9.8565025,7.0897175 9.83404,7.084835 C9.8174375,7.08093 9.79986,7.08093 9.7832575,7.078 C9.75689,7.0740925 9.7295475,7.0701875 9.70318,7.06921 C9.6856025,7.06921 9.668025,7.07214 9.650445,7.0731175 C9.6240775,7.07507 9.59771,7.07507 9.57232,7.0799525 C9.5547425,7.0828825 9.53814,7.0887425 9.5205625,7.093625 C9.494195,7.10046 9.468805,7.10632 9.443415,7.116085 C9.42779,7.121945 9.4141175,7.1307325 9.3984925,7.13757 C9.372125,7.150265 9.3457575,7.1619825 9.321345,7.17761 C9.318415,7.1795625 9.315485,7.18054 9.3125575,7.1824925 L5.6505575,9.5897175 C5.3331825,9.7987025 5.2452825,10.2244925 5.4532925,10.5418675 C5.5851275,10.74304 5.8048425,10.8514425 6.0284925,10.8514425 C6.158375,10.8514425 6.2892425,10.81531 6.4054425,10.7381625 L9.6719425,8.5907125 L12.6329425,10.7215625 C12.66517,10.745 12.6983725,10.7645325 12.7325525,10.7811325 C12.73841,10.7840625 12.74427,10.786015 12.75013,10.7879675 C12.788215,10.805545 12.8263025,10.81824 12.865365,10.8280075 C12.8761075,10.8309375 12.8868475,10.8338675 12.8985675,10.83582 C12.94349,10.84461 12.9893875,10.851445 13.03431,10.851445 L13.035285,10.851445 L13.0362625,10.851445 C13.0831375,10.851445 13.13099,10.84461 13.177865,10.834845 C13.1895825,10.831915 13.2013025,10.828985 13.212045,10.826055 C13.2511075,10.81629 13.2891925,10.80164 13.32728,10.78504 C13.3350925,10.781135 13.342905,10.77918 13.34974,10.775275 C13.3858725,10.75672 13.422005,10.735235 13.4552075,10.70887 L17.2569575,7.78112 C17.2725825,7.7986975 17.2911375,7.8133475 17.308715,7.8289725 C17.32141,7.84069 17.3321525,7.85241 17.345825,7.862175 C17.37317,7.8836575 17.4034425,7.9012375 17.4346925,7.918815 C17.448365,7.9266275 17.4600825,7.935415 17.473755,7.9422525 C17.47571,7.9432275 17.4776625,7.944205 17.479615,7.9451825 C17.507935,7.9588525 17.5372325,7.96569 17.56653,7.97448 C17.5841075,7.9803375 17.60071,7.98815 17.619265,7.9920575 C17.66907,8.003775 17.71985,8.009635 17.769655,8.009635 L17.7706325,8.009635 C17.8292275,8.009635 17.8887975,7.99987 17.9464125,7.98522 C17.9532475,7.9832675 17.960085,7.9822925 17.9678975,7.9803375 C18.0206325,7.9647125 18.0714125,7.941275 18.1202425,7.9119775 C18.1300075,7.90612 18.1397725,7.90026 18.1485625,7.8934225 C18.16028,7.88561 18.172,7.8797525 18.1837175,7.8709625 C18.2178975,7.8455725 18.24817,7.816275 18.275515,7.7860025 C18.2784425,7.7830725 18.2813725,7.78112 18.2843025,7.77819 C18.3243425,7.7322925 18.3555925,7.68151 18.3819575,7.628775 C18.3848875,7.622915 18.38977,7.6180325 18.3936775,7.6121725 L19.0098775,6.2889225 L19.0098775,6.2879475 L19.0108525,6.2859925 C19.0137825,6.2791575 19.0157375,6.271345 19.018665,6.26451 C19.033315,6.23033 19.046985,6.195175 19.055775,6.15904 C19.061635,6.1356025 19.0626125,6.112165 19.0665175,6.0887275 C19.0694475,6.06822 19.07433,6.0477125 19.0753075,6.0262275 C19.0714,5.984235 19.0684725,5.94322 19.0635875,5.902205 L19.0635,5.90225 Z" id="Fill-2"></path>
                <path d="M22.999,15.4365 L2.00100125,15.4365 C1.62112625,15.4365 1.31350125,15.744125 1.31350125,16.124 C1.31350125,16.503875 1.62112625,16.8115 2.00100125,16.8115 L23.0000025,16.8115 C23.3798775,16.8115 23.6875025,16.503875 23.6875025,16.124 C23.686525,15.7451 23.3789025,15.4365 22.9990275,15.4365 L22.999,15.4365 Z" id="Fill-3"></path>
            </g>
        </g>
        <g id="Page"></g>
    </g>
</svg>