<?xml version="1.0" encoding="UTF-8"?>
<svg width="25px" height="25px" viewBox="0 0 25 25" version="1.1" xmlns="http://www.w3.org/2000/svg" xmlns:xlink="http://www.w3.org/1999/xlink">
    <!-- Generator: sketchtool 52.5 (67469) - http://www.bohemiancoding.com/sketch -->
    <title>23737BDA-B04C-4FAA-9FB9-1D426425BFF0</title>
    <desc>Created with sketchtool.</desc>
    <g id="Main_nav" stroke="none" stroke-width="1" fill="none" fill-rule="evenodd">
        <g id="Home" transform="translate(-993.000000, -238.000000)" fill="#FFFFFF" opacity="0.200000003">
            <path d="M1017.94823,251.542022 L1013.74998,251.542022 C1013.78123,251.88772 1013.83299,252.228544 1013.83299,252.584018 L1013.83299,252.58304 C1013.83299,255.345779 1012.73631,257.995019 1010.78224,259.949261 C1008.82911,261.902379 1006.17974,263 1003.41699,263 C1000.65424,263 998.004997,261.902354 996.050748,259.949261 C994.097624,257.995169 993,255.345779 993,252.58304 C993,249.820301 994.097649,247.171061 996.050748,245.217819 C998.004847,243.263727 1000.65424,242.167081 1003.41699,242.167081 C1003.76562,242.177824 1004.11329,242.207121 1004.45802,242.253996 L1004.45802,238.051762 C1004.80177,238.023442 1005.14552,238 1005.50002,238 C1008.81551,238 1011.99501,239.317375 1014.33876,241.661241 C1016.68251,244.005106 1018,247.184719 1018,250.499956 C1018,250.852505 1017.9795,251.197228 1017.94825,251.541952 L1017.94823,251.542022 Z M1004.45798,244.3223 C1002.20506,244.038126 999.933488,244.685574 998.169989,246.116243 C996.40534,247.545938 995.300741,249.633729 995.112491,251.89647 C994.923039,254.159162 995.666191,256.401453 997.16914,258.104446 C998.672064,259.806589 1000.80389,260.822186 1003.07339,260.915935 C1005.34193,261.009685 1007.55088,260.173738 1009.18863,258.600519 C1010.82731,257.027275 1011.75213,254.854534 1011.75013,252.583043 C1011.7472,252.235394 1011.72278,251.886745 1011.67689,251.542022 L1005.50014,251.542022 C1004.92494,251.542022 1004.45814,251.075224 1004.45814,250.500026 L1004.45798,244.3223 Z M1016.95798,249.45803 L1015.63473,248.136735 L1015.6357,248.13771 C1015.14058,246.026393 1013.99801,244.123976 1012.36721,242.695232 C1010.73636,241.267512 1008.69921,240.385666 1006.54196,240.173741 L1006.54196,249.45803 L1015.85445,249.457955 C1015.80758,249.013632 1015.73531,248.573183 1015.6357,248.13766 L1016.95798,249.45803 Z" id="ikonica_12"></path>
        </g>
        <g id="Page"></g>
    </g>
</svg>