<?xml version="1.0" encoding="UTF-8"?>
<svg width="20px" height="15px" viewBox="0 0 20 15" version="1.1" xmlns="http://www.w3.org/2000/svg" xmlns:xlink="http://www.w3.org/1999/xlink">
    <!-- Generator: sketchtool 52.5 (67469) - http://www.bohemiancoding.com/sketch -->
    <title>C213F8CE-A49E-4D01-B397-B89B87544174</title>
    <desc>Created with sketchtool.</desc>
    <g id="Main_nav" stroke="none" stroke-width="1" fill="none" fill-rule="evenodd">
        <g id="Home" transform="translate(-301.000000, -90.000000)" fill="#FFFFFF" opacity="0.200000003">
            <path d="M318.240958,90 C316.725401,90 315.504231,91.2272116 315.504231,92.7502673 C315.504231,93.5328664 315.820008,94.2311804 316.346301,94.7385836 L314.514968,98.4829667 C314.431089,98.4829667 314.32583,98.4614807 314.241127,98.4614807 C313.84148,98.4614807 313.46238,98.5457743 313.125216,98.7151823 L310.304703,96.4525586 C310.536609,96.0509349 310.662414,95.5848281 310.662414,95.077425 C310.662414,93.5543693 309.441244,92.3271577 307.925687,92.3271577 C306.41013,92.3271577 305.18896,93.5543693 305.18896,95.077425 C305.18896,95.8393759 305.483348,96.5161955 305.989095,97.0029505 L304.368279,99.583759 C304.157762,99.5416122 303.947244,99.4994655 303.736727,99.4994655 C302.22117,99.4994655 301,100.726677 301,102.249733 C301,103.772788 302.22117,105 303.736727,105 C305.252284,105 306.473454,103.772788 306.473454,102.249733 C306.473454,101.572913 306.221001,100.938236 305.820513,100.451481 L307.504652,97.764893 C307.65185,97.786379 307.79904,97.8070398 307.947076,97.8070398 C308.346722,97.8070398 308.705275,97.7227463 309.041598,97.5739864 L311.883584,99.8374564 C311.651678,100.23908 311.525872,100.705187 311.525872,101.191096 C311.525872,102.714151 312.747042,103.941363 314.262599,103.941363 C315.778157,103.941363 316.999326,102.714151 316.999326,101.191096 C316.999326,100.366354 316.641615,99.6465455 316.073386,99.1391424 L317.884173,95.4584385 C318.010812,95.4799245 318.136626,95.4799245 318.263273,95.4799245 C319.77883,95.4799245 321,94.2527129 321,92.7296572 C320.999177,91.2057764 319.756642,90.0001227 318.241169,90.0001227 L318.240958,90 Z" id="ikonica_2"></path>
        </g>
        <g id="Page"></g>
    </g>
</svg>