<?xml version="1.0" encoding="UTF-8"?>
<svg width="20px" height="20px" viewBox="0 0 20 20" version="1.1" xmlns="http://www.w3.org/2000/svg" xmlns:xlink="http://www.w3.org/1999/xlink">
    <!-- Generator: sketchtool 52.5 (67469) - http://www.bohemiancoding.com/sketch -->
    <title>6D70DF94-65BD-4508-9FB0-65C07A4D0794</title>
    <desc>Created with sketchtool.</desc>
    <g id="Main_nav" stroke="none" stroke-width="1" fill="none" fill-rule="evenodd">
        <g id="Home" transform="translate(-407.000000, -281.000000)" fill="#FFFFFF" opacity="0.200000003">
            <path d="M407,293.973022 L407,299.247009 C407,299.748928 407.159349,300.159888 407.479117,300.479889 C407.835252,300.82663 408.259832,301 408.751762,301 L414.036016,301 C414.529041,301 414.935442,300.826627 415.254124,300.479889 C415.610259,300.159888 415.788846,299.748928 415.788846,299.247009 L415.788846,293.973022 C415.788846,293.497842 415.610248,293.086882 415.254124,292.740142 C414.935415,292.383757 414.529041,292.205044 414.036016,292.205044 L408.751762,292.205044 C408.259805,292.205044 407.835225,292.383768 407.479117,292.740142 C407.159341,293.059074 407,293.470034 407,293.973022 Z M415.788928,282.752991 C415.788928,282.287456 415.61033,281.876496 415.254206,281.520111 C414.935497,281.17337 414.529123,281 414.036098,281 L408.751845,281 C408.259887,281 407.835307,281.173373 407.479199,281.520111 C407.159423,281.840112 407.000082,282.251072 407.000082,282.752991 L407.000082,288.026978 C407.000082,288.529966 407.159431,288.940926 407.479199,289.259858 C407.835334,289.616243 408.259914,289.794956 408.751845,289.794956 L414.036098,289.794956 C414.529123,289.794956 414.935524,289.616232 415.254206,289.259858 C415.610341,288.940926 415.788928,288.529966 415.788928,288.026978 L415.788928,282.752991 Z M427,299.247009 L427,293.973022 C427,293.497842 426.821401,293.086882 426.466345,292.740142 C426.146569,292.383757 425.735897,292.205044 425.234329,292.205044 L419.964039,292.205044 C419.471013,292.205044 419.046433,292.383768 418.690326,292.740142 C418.371617,293.059074 418.211209,293.470034 418.211209,293.973022 L418.211209,299.247009 C418.211209,299.748928 418.371628,300.159888 418.690326,300.479889 C419.046461,300.82663 419.471041,301 419.964039,301 L425.234329,301 C425.735897,301 426.146569,300.826627 426.466345,300.479889 C426.821412,300.159888 427,299.748928 427,299.247009 Z M427,288.026978 L427,282.752991 C427,282.287456 426.821401,281.876496 426.466345,281.520111 C426.146569,281.17337 425.735897,281 425.234329,281 L419.964039,281 C419.471013,281 419.046433,281.173373 418.690326,281.520111 C418.371617,281.840112 418.211209,282.251072 418.211209,282.752991 L418.211209,288.026978 C418.211209,288.529966 418.371628,288.940926 418.690326,289.259858 C419.046461,289.616243 419.471041,289.794956 419.964039,289.794956 L425.234329,289.794956 C425.735897,289.794956 426.146569,289.616232 426.466345,289.259858 C426.821412,288.940926 427,288.529966 427,288.026978 Z" id="ikonica_11"></path>
        </g>
        <g id="Page"></g>
    </g>
</svg>