<?xml version="1.0" encoding="UTF-8"?>
<svg width="21px" height="21px" viewBox="0 0 21 21" version="1.1" xmlns="http://www.w3.org/2000/svg" xmlns:xlink="http://www.w3.org/1999/xlink">
    <!-- Generator: sketchtool 52.5 (67469) - http://www.bohemiancoding.com/sketch -->
    <title>46B5C44B-185B-41A5-BD8E-DB902C2B8F0C</title>
    <desc>Created with sketchtool.</desc>
    <g id="Main_nav" stroke="none" stroke-width="1" fill="none" fill-rule="evenodd">
        <g id="Home" transform="translate(-900.000000, -432.000000)" fill="#FFFFFF" opacity="0.200000003">
            <path d="M903,444.729766 L903,448.685257 C903,449.061696 903.119512,449.369916 903.359338,449.609917 C903.626439,449.869972 903.944874,450 904.313822,450 L908.277012,450 C908.646781,450 908.951582,449.86997 909.190593,449.609917 C909.457694,449.369916 909.591635,449.061696 909.591635,448.685257 L909.591635,444.729766 C909.591635,444.373382 909.457686,444.065162 909.190593,443.805106 C908.951561,443.537818 908.646781,443.403783 908.277012,443.403783 L904.313822,443.403783 C903.944854,443.403783 903.626419,443.537826 903.359338,443.805106 C903.119506,444.044306 903,444.352526 903,444.729766 Z M909.591696,436.314743 C909.591696,435.965592 909.457747,435.657372 909.190654,435.390083 C908.951623,435.130028 908.646843,435 908.277074,435 L904.313883,435 C903.944915,435 903.62648,435.13003 903.3594,435.390083 C903.119567,435.630084 903.000062,435.938304 903.000062,436.314743 L903.000062,440.270234 C903.000062,440.647474 903.119573,440.955694 903.3594,441.194894 C903.626501,441.462182 903.944936,441.596217 904.313883,441.596217 L908.277074,441.596217 C908.646843,441.596217 908.951643,441.462174 909.190654,441.194894 C909.457756,440.955694 909.591696,440.647474 909.591696,440.270234 L909.591696,436.314743 Z M918,448.685257 L918,444.729766 C918,444.373382 917.866051,444.065162 917.599759,443.805106 C917.359927,443.537818 917.051923,443.403783 916.675747,443.403783 L912.723029,443.403783 C912.35326,443.403783 912.034825,443.537826 911.767744,443.805106 C911.528713,444.044306 911.408406,444.352526 911.408406,444.729766 L911.408406,448.685257 C911.408406,449.061696 911.528721,449.369916 911.767744,449.609917 C912.034846,449.869972 912.353281,450 912.723029,450 L916.675747,450 C917.051923,450 917.359927,449.86997 917.599759,449.609917 C917.866059,449.369916 918,449.061696 918,448.685257 Z M918,440.270234 L918,436.314743 C918,435.965592 917.866051,435.657372 917.599759,435.390083 C917.359927,435.130028 917.051923,435 916.675747,435 L912.723029,435 C912.35326,435 912.034825,435.13003 911.767744,435.390083 C911.528713,435.630084 911.408406,435.938304 911.408406,436.314743 L911.408406,440.270234 C911.408406,440.647474 911.528721,440.955694 911.767744,441.194894 C912.034846,441.462182 912.353281,441.596217 912.723029,441.596217 L916.675747,441.596217 C917.051923,441.596217 917.359927,441.462174 917.599759,441.194894 C917.866059,440.955694 918,440.647474 918,440.270234 Z" id="ikonica_14" transform="translate(910.500000, 442.500000) rotate(50.000000) translate(-910.500000, -442.500000) "></path>
        </g>
        <g id="Page"></g>
    </g>
</svg>