<?xml version="1.0" encoding="UTF-8"?>
<svg width="15px" height="21px" viewBox="0 0 15 21" version="1.1" xmlns="http://www.w3.org/2000/svg" xmlns:xlink="http://www.w3.org/1999/xlink">
    <!-- Generator: sketchtool 52.5 (67469) - http://www.bohemiancoding.com/sketch -->
    <title>06DDF69E-64D7-430B-9E8C-173E1E4FD620</title>
    <desc>Created with sketchtool.</desc>
    <g id="Main_nav" stroke="none" stroke-width="1" fill="none" fill-rule="evenodd">
        <g id="Home" transform="translate(-380.000000, -176.000000)" fill="#BBFC05" opacity="0.800000012">
            <path d="M387.552984,176.001884 C387.738215,176.014934 387.911169,176.097889 388.036855,176.233043 C391.597903,180.061154 395,184.605111 395,189.006377 C395,193.381633 391.666855,197 387.5,197 C383.333145,197 380,193.381633 380,189.006377 C380,184.605111 383.402097,180.061154 386.963145,176.233043 C387.113409,176.070859 387.330766,175.986028 387.552863,176.001884 L387.552984,176.001884 Z M387.50006,177.821329 C384.256673,181.423947 381.451673,185.563213 381.451673,189.006436 C381.451673,192.670379 384.188448,195.568366 387.50006,195.568366 C390.811673,195.568366 393.548448,192.670379 393.548448,189.006436 C393.548448,185.563213 390.743448,181.423947 387.50006,177.821329 Z M392.096835,187.679018 C392.466343,187.689271 392.769706,187.971704 392.799948,188.335211 C392.997466,190.391409 391.967351,192.64437 390.335109,193.756319 C390.177285,193.870034 389.97881,193.91664 389.786036,193.884017 C389.592299,193.851393 389.421246,193.743272 389.309714,193.584817 C389.198196,193.425429 389.156615,193.228754 389.19536,193.039532 C389.233163,192.850317 389.34657,192.68347 389.511014,192.578145 C390.556248,191.86602 391.492804,189.89181 391.355772,188.469422 C391.334036,188.264361 391.403024,188.060244 391.544784,187.908294 C391.686544,187.757295 391.887848,187.673405 392.096687,187.678999 L392.096835,187.679018 Z" id="ikonica_19"></path>
        </g>
        <g id="Page"></g>
    </g>
</svg>