<?xml version="1.0" encoding="UTF-8"?>
<svg width="20px" height="23px" viewBox="0 0 20 23" version="1.1" xmlns="http://www.w3.org/2000/svg" xmlns:xlink="http://www.w3.org/1999/xlink">
    <!-- Generator: sketchtool 52.5 (67469) - http://www.bohemiancoding.com/sketch -->
    <title>63F49815-F70D-40AE-9C83-EA3518390BF4</title>
    <desc>Created with sketchtool.</desc>
    <g id="Main_nav" stroke="none" stroke-width="1" fill="none" fill-rule="evenodd">
        <g id="Home" transform="translate(-600.000000, -134.000000)" fill="#FFFFFF" opacity="0.200000003">
            <path d="M605.16356,134.000583 C604.973826,134.010877 604.796179,134.096041 604.669702,134.237354 C604.542283,134.379604 604.47625,134.565841 604.486481,134.756762 C604.495781,134.947678 604.581348,135.126433 604.721786,135.253697 C604.863155,135.38191 605.048238,135.448355 605.237976,135.438061 L605.714167,135.438061 L605.714167,142.093811 L600.282738,152.590257 C600.063243,153.015127 600,153.468099 600,153.88547 C600,155.597144 601.394167,157 603.095238,157 L616.904762,157 C618.605833,157 620,155.597144 620,153.88547 C620,153.468075 619.936757,153.015127 619.717262,152.590257 L614.285833,142.093811 L614.285833,137.594274 C614.288624,137.401487 614.214219,137.216194 614.08029,137.079562 C613.946362,136.94199 613.763148,136.865251 613.571552,136.865251 C613.379957,136.865251 613.196743,136.94199 613.062814,137.079562 C612.928886,137.216196 612.854481,137.401508 612.857271,137.594274 L612.857271,142.273496 C612.858202,142.388606 612.886102,142.500909 612.939117,142.602917 L616.711498,149.89523 C615.643783,150.685099 614.262688,151.250338 613.571498,151.250338 C611.908545,151.250338 610.822212,150.57839 609.620545,149.805388 C608.418879,149.032385 607.095545,148.135808 605.238164,148.135808 C604.882879,148.135808 604.52295,148.172305 604.151855,148.233137 L607.06114,142.603025 C607.114155,142.501017 607.142055,142.388714 607.142986,142.273604 L607.142986,135.438168 L614.762033,135.438168 C614.953626,135.440976 615.137771,135.366108 615.273557,135.231344 C615.410276,135.096581 615.48654,134.912225 615.48654,134.719435 C615.48654,134.526646 615.410276,134.34229 615.273557,134.207527 C615.137769,134.072763 614.953605,133.997895 614.762033,134.000703 L605.238224,134.000703 C605.213112,133.999766 605.188931,133.999766 605.163819,134.000703 L605.16356,134.000583 Z M609.047369,142.385856 C608.389821,142.385856 607.856893,142.922106 607.856893,143.583752 C607.856893,144.245398 608.389821,144.781648 609.047369,144.781648 C609.704917,144.781648 610.237845,144.245398 610.237845,143.583752 C610.237845,142.922106 609.704917,142.385856 609.047369,142.385856 Z M611.190226,146.458703 C610.663821,146.458703 610.237845,146.887334 610.237845,147.41702 C610.237845,147.946706 610.663821,148.375337 611.190226,148.375337 C611.716631,148.375337 612.142607,147.946706 612.142607,147.41702 C612.142607,146.887334 611.716631,146.458703 611.190226,146.458703 Z M605.237845,149.573233 C606.644083,149.573233 607.628083,150.22647 608.846417,151.010708 C610.06475,151.794947 611.511893,152.687763 613.571179,152.687763 C614.797917,152.687763 616.179988,152.059802 617.380702,151.190393 L618.452131,153.256764 C618.526536,153.400885 618.571179,153.620804 618.571179,153.885659 C618.571179,154.820569 617.833631,155.562714 616.904512,155.562714 L603.094988,155.562714 C602.165869,155.562714 601.428321,154.820569 601.428321,153.885659 C601.428321,153.620804 601.472964,153.400895 601.547369,153.256764 L603.258679,149.947695 C604.009226,149.669736 604.61656,149.573353 605.237845,149.573353 L605.237845,149.573233 Z" id="ikonica_18"></path>
        </g>
        <g id="Page"></g>
    </g>
</svg>