<?xml version="1.0" encoding="utf-8"?>
<!-- Generator: Adobe Illustrator 28.2.0, SVG Export Plug-In . SVG Version: 6.00 Build 0)  -->
<svg version="1.1" id="Layer_1" xmlns="http://www.w3.org/2000/svg" xmlns:xlink="http://www.w3.org/1999/xlink" x="0px" y="0px"
	 viewBox="0 0 880.6 1129.2" style="enable-background:new 0 0 880.6 1129.2;" xml:space="preserve">
<style type="text/css">
	.st0{fill:#0B7DD1;}
	.st1{fill:#19355E;}
	.st2{fill:#EBEBEB;}
	.st3{fill:#152746;}
	.st4{fill:#FFFFFF;}
	.st5{fill:#A9E4EF;}
	.st6{fill:#FFB79A;}
	.st7{fill:#FB9B7F;}
	.st8{fill:#FF6F6F;}
	.st9{fill:#FB4D3D;}
	.st10{fill:#90B9D1;}
	.st11{fill:none;stroke:#EBEBEB;stroke-width:1.6875;stroke-miterlimit:10;}
</style>
<g>
	<path class="st0" d="M-0.2,1129.2C28.8,945.9,154.6,864.6,278,816.9c123.4-47.6,291.1,28.6,366.9-208.6s235.8-240.5,235.8-240.5
		v761.4H-0.2z"/>
	<g>
		<g>
			<path class="st1" d="M645,1128.7l79.4-0.1c-2.3-10.5-5.9-18.9-5.9-18.9l-80.9-9.1C640.8,1124.5,645,1128.7,645,1128.7z"/>
			<path class="st2" d="M718.5,1109.7c-1.8,4.1-42.7,13.1-71.8-2.8c-3.2-1.8-6.3-3.8-9.1-6.2c-0.6-4.3-1.2-10-1.9-17.1
				c-0.4-3.9-0.9-8.3-1.4-13.1c-0.3-3.1-0.7-6.4-1.1-9.8c-1-9.5-2.2-13.8-3.7-25.7c-2.5-20.3-12.6-50.4-16.8-77l46.3-21
				c0.8,44.7,3.1,60.7,9.8,81.9c3.6,11.3,11.1,25,19.4,38.7c7.4,12.2,15.4,24.6,21.8,35.5c0,0,0,0,0,0c0.6,0.9,1.1,1.8,1.6,2.8
				C715.2,1102,717.7,1106.9,718.5,1109.7z"/>
			<path class="st1" d="M718.5,1109.7c-1.1,8.5-42.5,19.3-71.6,3.4c-3.2-1.8-6.5-10.1-9.3-12.4c-0.6-4.3-1.2-10-1.9-17.1
				c-0.4-3.9-0.9-8.3-1.4-13.1c4.6,2.9,10.4,4.4,10.4,4.4c3.3-15.3,8.3-20,26.9-21c7.5-0.4,12.1-0.1,16.7,3.8
				c5.6,4.8,11.2,14.8,21.8,35.5c0,0,0,0,0,0C712.6,1098,715.4,1103.5,718.5,1109.7z"/>
			<polygon class="st1" points="441.6,1111 444.1,1129 276.3,1129.2 279.8,1114.7 			"/>
			<path class="st2" d="M441.6,1111c0,0-50.5,3.7-96.6,5.1c-26.8,0.8-49.6,1.1-62.7-1c15.3-5,29.3-11.5,44.2-18.6
				c38.4-18.4,51.4-31.6,47.3-63.1c-3.2-24.4-9.9-60.8-9.9-60.8l56.2-7.2c0,0,4,38.3,6.9,68.3C428.9,1053.8,438.6,1103.9,441.6,1111
				z"/>
			<g>
				<g>
					<path class="st1" d="M373.3,486.1c-7.5,34.6-13.4,53-22.5,114.5l189-0.3c-0.5-63.9-9.1-104.2-9.1-104.2L373.3,486.1z"/>
					<path class="st1" d="M427.9,560c6.8,57.2,120.5,358.6,151.6,469.7c33.2,6.6,89.1-12.4,89.1-12.4
						c-14.1-198.3-60.4-232.4-64.6-254.5c-4.2-22.1-35.9-185.5-73-269.5L427.9,560z"/>
					<path class="st1" d="M373.3,486.1c-35,67.1-29.2,243.6-26.3,333.4c2.9,89.8,15.8,212.4,15.8,212.4s42.4,15.2,80.4,2.8
						C447.7,837,455,588.5,455,588.5L373.3,486.1z"/>
				</g>
				<g>
					<g>
						<path class="st3" d="M436.1,552.8C436.1,552.8,436.1,552.8,436.1,552.8C436.1,552.8,436.1,552.8,436.1,552.8
							C436.1,552.8,436.1,552.8,436.1,552.8C436.1,552.8,436.1,552.8,436.1,552.8z"/>
						<path class="st3" d="M355.6,548.4c7-4.1,13.5-11,18-18.1c3.5-5.6,5.8-11.6,7.2-18c3.5-0.1,6.9-0.4,10.3-0.4
							c6.4-0.1,12.8-0.2,19.2-0.4c2.6-0.1,5.1-0.1,7.7-0.2c1.1,9.4,2.4,18.8,4.7,27.9c0.1,0.6,0.5,1,0.9,1.2c-0.1,1.8,1,3.5,2.7,4.3
							c1.9,0.9,4.1,0.7,5.9-0.3c3.6-1.8,4.2-6.1,3.8-9.8c-1-8-2.2-15.9-3.6-23.8c5.5-0.1,10.9-0.3,16.4-0.5c4-0.1,7.9-0.2,11.9-0.4
							c-0.4,0.6-0.7,1.4-0.6,2.2c0.4,6.1,2.9,12.5,4.5,18.5c1.5,5.8,3.1,11.6,4.6,17.3c3.1,11.8,6.6,23.5,10.3,35
							c7.6,23.4,14,47.1,20.6,70.8c0.5,1.6,2.9,1,2.5-0.7c-5.8-23.9-11.9-47.7-16.8-71.8c-2.4-11.9-5.2-23.8-8.2-35.6
							c-1.5-5.8-3-11.6-4.5-17.4c-1.5-6-2.5-12.7-5.2-18.3c-0.1-0.1-0.2-0.3-0.2-0.4c10.6-0.3,21.3-0.7,31.9-1.1
							c-0.2,1.1,0,2.4,0.4,3.4c3.9,8.3,9.5,15.8,16.4,21.8c7,6.2,15.2,10.5,24,13.3c1.7,0.5,3.5-0.7,3.9-2.3
							c0.5-1.8-0.7-3.3-2.3-3.9c-14.9-5.7-27.3-18.3-33.8-32.7c6-0.2,12-0.5,18-0.8c3.9-0.2,4-6.1,0-6.2c-26-0.4-52-0.2-78.1-0.2
							c-12.8,0-25.6,0.1-38.4,0.2c-6.4,0.1-12.8,0.2-19.2,0.3c-6.7,0.1-13.8-0.4-20.4,0.6c-2.4,0.4-3.8,3.2-3.6,5.3
							c0.3,2.6,2.4,4,4.8,4.3c1,0.1,2.1,0.1,3.2,0.2c-1.7,5-4.3,9.8-7.3,14c-4.4,6-9.8,10.2-16.1,13.9
							C345.7,543.4,350.3,551.4,355.6,548.4z M423,511.1c1.6,0,3.1-0.1,4.7-0.1c0.2,5.9,0.5,11.8,0.9,17.7c0.1,1.6,0.2,3.3,0.4,4.9
							c0.1,1.1,0.3,2.5,0.1,3.6c0-0.1-0.2,0.5-0.3,0.8c0.2-0.1,0.2-0.1,0,0c0,0,0,0,0,0c0,0,0,0,0,0c0,0,0,0,0,0c0,0,0,0,0,0
							c0,0,0,0,0,0c0,0,0,0,0,0c0,0,0,0,0,0c-0.3-0.1-0.5-0.3-0.8-0.4c-0.5-0.2-0.9-0.3-1.4-0.3C426,528.6,424.6,519.8,423,511.1z"
							/>
					</g>
					<path class="st3" d="M392,582.6c0.2-10.1,1-20.2,1.6-30.3c0.3-5.1,0.7-10.2,1-15.3c0.3-5,0.3-10.6,2.4-15.3
						c1.2-2.6,5.4-2.5,6.2,0.3c1.4,4.9,0.6,10.3,0.1,15.2c-0.5,5.1-0.9,10.1-1.4,15.2c-0.9,10.3-1.6,20.8-3.1,31
						c-1.5,10.1-2.9,20.1-4.1,30.2c-1.3,10.5-2.9,21-3.8,31.5c0,0.4-0.7,0.3-0.7-0.1C391.7,624.4,391.5,603.4,392,582.6z"/>
					<path class="st3" d="M538.8,784.3c-6-19.9-11.3-39.9-17.3-59.7c-0.1-0.5,0.6-0.6,0.7-0.2c6.4,17.4,13.3,34.5,19.8,51.8
						c6.5,17.2,12.5,34.7,18.5,52.1c12,34.6,23.9,69.3,35.3,104.1c6.1,18.5,12.5,37,18.4,55.6c0.7-0.1,1.3-0.1,2-0.2
						c7-0.6,14-1,21-1.2c7.2-0.2,14.4,0.2,21.7-0.1c2-0.1,2.5,3.2,0.5,3.6c-6.9,1.2-13.6,3.1-20.5,4.3c-7.1,1.3-14.2,2.5-21.4,3.4
						c-7,0.9-14,1.5-21,2.3c-6.9,0.7-14.4,2.3-21.3,0.5c-2.9-0.8-3.7-5.1-0.9-6.5c6.1-3.1,13.5-3.2,20.2-4c4-0.4,8-0.9,11.9-1.3
						c-11.8-33.1-22.8-66.6-33.8-100C561.2,854,549.3,819.3,538.8,784.3z"/>
					<path class="st3" d="M368.4,1001.9c2.8-0.8,5.6,0,8.4,0.5c1.4,0.2,2.9,0.4,4.3,0.7c-0.5-39.8-1-79.6-1.4-119.4
						c-0.4-40.6-1.1-81.2-0.6-121.8c0.1-11.5,0.2-23.1,0.5-34.6c0.3-11.5,0.9-23.1,0.9-34.6c0-1.5,2.3-1.5,2.3,0
						c0.4,20.5,2,41,2.8,61.5c0.7,20.1,1.1,40.2,1.5,60.2c0.7,40.6,1.3,81.2,1.9,121.8c0.3,22.7,0.5,45.4,0.8,68.1
						c3.9,0.5,7.8,1,11.6,1.3c11,1,22.3,1.9,33.4,1.2c2.2-0.1,2.7,3.4,0.5,3.8c-11.5,2.1-22.8,3.9-34.5,3.9
						c-5.8,0-11.6-0.3-17.3-1.1c-5.4-0.7-12.6-0.9-17-4.4C363.9,1007,365.6,1002.7,368.4,1001.9z"/>
				</g>
			</g>
			<g>
				<path class="st4" d="M520.5,238.2c-31.4-7.1-83.7,14.4-83.7,14.4s-64.6,17.2-85.8,31.2c-21.2,14,8.6,148.9,8.8,197l175.8,5.1
					C547.8,377.9,573.6,250.3,520.5,238.2z"/>
			</g>
			<path class="st5" d="M410.4,488.4c0,0-0.1-89.5,1.8-120.7c2.5-40.3,6.6-84.7,6.6-84.7l37.8-2.9c-10.9,38.5-17.4,210.1-17.4,210.1
				L410.4,488.4z"/>
			<path class="st4" d="M412.4,453.3c0,0-7.8,144.5-11.9,173.8c-4.1,29.3-17.2,33.2-77.6,4.4c4.1-29.8,9.1-60.4,14.3-89.3
				c0.6-3,1.1-6,1.6-9c14.1-78.1,28.7-141.9,28.7-141.9L412.4,453.3z"/>
			<path class="st4" d="M430.1,434.7c0,0,27.8,179.2,46.3,210.9c18.5,31.7,128-18.8,128-18.8c-19-88-78.8-280.5-78.8-280.5
				L430.1,434.7z"/>
			<g>
				<path class="st5" d="M591.5,607.5c-2.2,0.9-4.4,1.8-6.6,2.7c-2.7-12.5-6.3-24.9-9.5-37.3c-4.4-16.9-8.8-33.8-13.6-50.6
					c-4.8-16.8-9.5-33.6-14.1-50.4c-4.6-16.9-9.9-33.5-14.6-50.3c-0.2-0.9-1.5-0.5-1.3,0.4c4,17,7.4,34.1,11.6,51.1
					c4.2,17,8.1,34,12,51c3.9,17,8.2,33.9,12.5,50.9c3.3,12.6,6.2,25.5,10,38c-14.2,5.5-28.7,10.3-43.7,13.7
					c-17.5,3.9-36.7,8.2-54.1,2.1c-1.8-0.6-3.5,1.7-2.5,3.2c5.1,8,14.9,8.8,23.5,8.2c10.6-0.7,21.2-2.7,31.5-5.1
					c16.1-3.7,32.2-8.9,47.3-16.1c0.7,2.1,1.4,4.2,2.2,6.3c1.2,3.4,5.9,2.1,5.4-1.4c-0.4-2.7-0.9-5.3-1.4-8c2.6-1.4,5.2-2.8,7.8-4.4
					C596.4,610,594.2,606.4,591.5,607.5z"/>
				<g>
					<path class="st5" d="M388.9,621.1c-9.1,0-18.4-1-27.2-3.5c-4.3-1.2-8.6-2.4-12.7-4.2c-2-0.8-4-1.8-5.9-2.7
						c-2.3-1.1-4.4-2.7-6.8-3.3c-4-1.1-7,4.1-4,7c3.4,3.4,9.1,5.2,13.6,6.9c4.6,1.8,9.4,3.3,14.3,4.2c9.8,1.8,19.6,2.1,29.4,0.4
						C392.4,625.5,391.7,621.1,388.9,621.1z"/>
				</g>
			</g>
			<path class="st5" d="M540.9,528.7c-4.5-2.3-10.3,1.2-14.6,2.7c-4.5,1.5-9,3-13.6,4.4c-4.5,1.4-9.1,2.6-13.7,3.8
				c-4.9,1.3-9.7,2.8-14.7,3.6c-2.6,0.4-2,4.7,0.6,4.5c5-0.4,10.1-0.3,15.1-0.8c5.1-0.5,10.1-1.4,15.1-2.4c5-1,9.9-2.3,14.8-3.9
				c4.6-1.5,11.1-2.7,12.9-7.7C543.3,531.5,542.3,529.4,540.9,528.7z"/>
			<polygon class="st5" points="438.9,206.8 476,217.8 488.3,238.2 414.4,259.1 406.4,234.8 			"/>
			<g>
				<path class="st4" d="M281.2,463.1c22.3-17.2,113.3-77.3,124.8-141c8.5-46.8-26.3-64.6-61.6-33.3c-35.2,31.3-118,109.5-118,109.5
					L281.2,463.1z"/>
				<path class="st6" d="M165.9,315.1l24.5,91c8.8,32.6,45.2,49.2,75.5,34.4l6.1-3L188.6,315L165.9,315.1z"/>
				<g>
					<path class="st7" d="M194.2,280.4l13.1-27c1.2-2.6,0.2-5.7-2.3-7l0,0c-2.1-1.1-4.6-0.7-6.3,0.9L179.1,267L194.2,280.4z"/>
					<path class="st6" d="M196.3,280.5c8.7,35.1,5.9,57.5-23.3,59.2l-13.7-43.4L196.3,280.5z"/>
					<path class="st1" d="M257.7,227.1l-30.1-0.8l-44.3,32.2c-2,1.5-2.4,4.3-1,6.3c1.5,2.1,4.4,2.4,6.4,0.8l40.3-33.5l28.7-3
						c0.5,0,0.8-0.4,0.9-0.9C258.7,227.7,258.3,227.2,257.7,227.1z"/>
					<g>
						<path class="st8" d="M253.6,237c-3.2-4.7-3.5-12.9-2.2-18.2c1.3-5.2,6.9-11.5,11.8-7.8c3.7,2.8,0.8,8.6,1.1,12.3
							c0.4,4.3,4.9,8.8,2.7,13.1C264.4,241.7,256.7,241.7,253.6,237z"/>
						<path class="st9" d="M255.9,228.9c-0.7-1-1.3-2.1-1.7-3.2c-0.4-1.2-0.7-2.3-0.7-3.6c0-1.3,0.2-2.6,0.5-3.9
							c0.1-0.4-0.5-0.7-0.7-0.3c-0.6,1.2-0.9,2.5-1,3.9c-0.1,0.7,0,1.4,0,2.1c0,0.7,0,1.5,0.1,2.2c0.2,1.4,0.6,2.8,1.2,4.1
							c0.3,0.6,0.6,1.2,1,1.8c0.6,0.9,1.3,1.7,2.5,1.5c0.5-0.1,0.9-0.6,1-1C258.3,230.9,256.7,230.1,255.9,228.9z"/>
						<path class="st9" d="M262.3,234.4c0-0.2-0.1-0.3-0.2-0.4c0,0,0,0,0,0c0,0,0,0,0,0c0,0,0-0.1-0.1-0.1c-0.1-0.1-0.2-0.1-0.2-0.2
							c-0.1,0-0.1-0.1-0.1-0.2c0,0,0,0-0.1,0c0,0,0,0,0,0c-0.1,0-0.1,0-0.2-0.1c-0.1-0.1-0.2-0.1-0.3-0.2c-0.1,0-0.3,0-0.4-0.1
							c-0.3,0-0.6,0.1-0.8,0.2l-0.4,0.3c-0.2,0.2-0.4,0.5-0.4,0.8l-0.1,0.3c-0.1,0.2-0.1,0.4,0,0.6c0,0.2,0.1,0.4,0.2,0.6
							c0.1,0.1,0.2,0.2,0.3,0.4c0.2,0.2,0.3,0.3,0.6,0.4c0.1,0.1,0.3,0.1,0.4,0.1c0.2,0,0.4,0,0.6,0l0.4-0.2
							c0.3-0.2,0.5-0.4,0.6-0.6c0-0.1,0.1-0.1,0.1-0.2c0.1-0.2,0.2-0.4,0.2-0.6C262.4,234.8,262.4,234.6,262.3,234.4z"/>
					</g>
					<path class="st3" d="M255.8,222.9l-30.1,0l-43.5,33.3c-2,1.5-2.3,4.3-0.8,6.3c1.6,2,4.5,2.3,6.4,0.7l39.5-34.6l28.6-3.7
						c0.5-0.1,0.8-0.4,0.9-0.9C256.8,223.4,256.4,222.9,255.8,222.9z"/>
					<path class="st6" d="M199.8,238.7l-23.8,4.3c-2.2,0.4-4,1.8-5.1,3.7l-12.7,34.3c-1.4,3.9-1.5,8.1-0.1,12l16.4,46.1
						c1.3-6.1,14.9-8,18.8-23.6c5.4-16.4-9.6-47.8-9.6-47.8l0.8-13.4l17.9-7.3c2-0.8,3.1-2.9,2.6-5.1
						C204.5,239.7,202.1,238.3,199.8,238.7z"/>
					<path class="st6" d="M182.8,263.4c12.6-0.2,18.1,6.8,14.7,13.3c2.9,6.7,1.4,11.1-3.7,14.8c8.5-1.5,10.1,6.6,8.1,10.3
						c-2,3.6-15.8,11.6-15.8,11.6l-19.7-33.6L182.8,263.4z"/>
					<path class="st7" d="M179.7,263.7c-1.6-0.2-2.9,0-4.4,0.5c-1.5,0.5-2.9,1.3-4.2,2.2c-2.5,1.8-4.9,3.7-6.8,6.2
						c-0.3,0.4,0.4,1,0.7,0.6c2-2.1,4.3-4.1,7-5.3c1.3-0.6,2.6-1.1,3.9-1.6c1.4-0.6,2.7-1.1,4-1.8
						C180.2,264.1,180.1,263.7,179.7,263.7z"/>
					<path class="st7" d="M193.6,274.3c-0.5,0-1.1-0.3-1.7-0.3c-0.5,0-1-0.1-1.5,0c-1,0-2,0.2-3,0.4c-2.1,0.4-4.1,1-6,2
						c-3.7,2-6.6,5.2-8.6,8.9c-0.3,0.5,0.5,1,0.8,0.5c2.1-3.4,5.2-5.9,8.7-7.7c1.7-0.9,3.5-1.7,5.3-2.1c0.9-0.2,1.8-0.4,2.8-0.5
						c0.5-0.1,1-0.1,1.5-0.2c0.5,0,1.1-0.3,1.6-0.2C194.1,275.2,194.1,274.2,193.6,274.3z"/>
					<path class="st7" d="M191.6,288.8c-0.5-0.1-1,0.1-1.5,0.2c-0.5,0.1-1,0.4-1.5,0.6c-1,0.4-1.8,1-2.6,1.6
						c-1.6,1.3-3.1,2.7-4.6,4.2c-0.4,0.5,0.2,1.1,0.7,0.7c1.6-1.3,3.3-2.4,5-3.4c0.9-0.5,1.8-1,2.6-1.6c0.7-0.5,1.7-1,2.2-1.8
						C192.2,289.2,191.9,288.9,191.6,288.8z"/>
					<path class="st7" d="M191.6,309.9c-2,0.9-3,3-3,5.2c0,2.6,1.4,5,1.4,7.7c0,2.2-0.7,4.3-1.9,6.1c-0.6,0.9-1.3,1.6-2.1,2.3
						c-0.9,0.7-2.3,1.1-2.8,2.2c-0.3,0.8,0.2,1.6,1,1.7c1.2,0.2,2.3-0.8,3.1-1.5c0.8-0.7,1.5-1.6,2.1-2.5c1.2-1.8,2.1-3.9,2.5-6.1
						c0.4-2.3,0-4.5-0.6-6.8c-0.6-2.1-1.7-5.7,0.8-7C192.9,310.7,192.4,309.5,191.6,309.9z"/>
				</g>
			</g>
			<g>
				<polygon class="st5" points="406.2,234.8 401,245.7 406.2,283 434.9,256.9 				"/>
			</g>
			<path class="st4" d="M281.2,463.1c-27.3,20.5-69.5,14.3-122.7-84.4l44.2-43.4L279.1,438L281.2,463.1z"/>
			<g>
				<path class="st1" d="M443.5,109.6c-18.8-17.1-36.8-30-58.6-12.6s-26.4,20.2-26.4,20.2s-16.3,28.3,2.5,52.7L443.5,109.6z"/>
				<path class="st1" d="M420.8,109.9c48.9-21.8,81,33.6,45.4,85L420.8,109.9z"/>
				<path class="st6" d="M469.8,256.3c0,12.9-34.9,35.3-34.9,35.3s-13.6-17.4-16-30.8L408,205.7l57-23.6l4.7,72.6
					C469.8,255.1,469.8,255.7,469.8,256.3z"/>
				<path class="st7" d="M456.6,203.6c0,24-15.1,46.9-39.7,46.9l-7.3-35.8l-0.4-4.5L456.6,203.6z"/>
				<path class="st6" d="M365.4,213.2c7.2,13.4,19.6,24.7,34.5,27.7c20.7,4.3,41.8-7.7,54.9-24.2c7.5-9.4,12.7-20.8,15.2-32.5
					c5.6-25.5-1.5-53-25.6-67.8c-16.4-10.1-45.3-11.8-65.3-2.1c-7.8,3.8-14.3,9.3-18,16.7C349.2,154.8,353.3,190.5,365.4,213.2z"/>
				<g>
					<path class="st6" d="M471.5,160.2c6.2-3.4,14.7-4,20.4,0.2c4.7,3.5,6.5,9.5,6.8,15.1c0.4,7.2-1.4,14.7-5.8,20.6
						c-4.4,6-11.6,10.2-19.3,10.7c-7.7,0.4-15.8-3.3-19.4-9.7C447.2,184.7,460.3,166.3,471.5,160.2z"/>
				</g>
				<path class="st1" d="M371.9,117.1c12.9,11,42.6,16,59.4,13.5c2.6,8.3,11.5,18,16.7,19.8c2.3,15.5,4.8,24.6,8,34.5
					c6.3-5.8,16.4-25.4,16.4-25.4C468.3,112.7,407.7,89.8,371.9,117.1z"/>
				<path class="st7" d="M474.5,176.7c-5.2,4-7.5,11.3-3.1,12.6c2.4,0.7,3.3-2.4,4.4-5.7c2.6-7.5,7.5-8.1,7.6-9.2
					C483.4,173.2,479.2,173.2,474.5,176.7z"/>
				<g>
					<path class="st1" d="M366.4,184.1c-0.3,3.2,1.3,6.1,3.6,6.4c2.3,0.3,4.4-2,4.7-5.2c0.3-3.2-1.3-6.1-3.6-6.4
						C368.8,178.6,366.7,180.9,366.4,184.1z"/>
					<path class="st1" d="M381,197.5c1.7-8,3.9-15.8,6.1-23.7c0.2-0.8,1.4-0.6,1.2,0.2c-1.3,6.5-2.6,13-4.2,19.4
						c-0.8,3.1-2,6.6-1.6,9.8c0.4,2.7,2.5,4.5,4.8,5.7c0.6,0.3,0.6,1.3-0.1,1.5c-2.4,0.8-4.9-1-6-3.1
						C379.9,204.3,380.3,200.7,381,197.5z"/>
					<path class="st1" d="M434,158.1c-2-6-18.8-6.6-22-1.1C406.4,166.5,437.5,168.4,434,158.1z"/>
					<path class="st1" d="M372.9,158c-2.1-5.1-16.7-4.6-19.1,0.3C349.4,166.9,376.5,166.7,372.9,158z"/>
					<path class="st1" d="M423.6,186.8c-3-1.2-5.9-1.7-9-2.2c-1.3-0.2-2.6-0.3-3.8-0.4c3.9-2.4,8.2-4.4,12.6-5.6
						c1.3-0.4,1-2.4-0.4-2.2c-6,1.1-14.6,3.3-18.8,8c-0.1,0.1-0.2,0.2-0.2,0.3c-0.1,0.1-0.2,0.3-0.2,0.5c0,0.1-0.1,0.2-0.1,0.3
						c0,0,0,0,0,0c0,0,0,0,0,0.1c0,0.3,0,0.6,0.2,1c0,0,0.1,0,0.1,0.1c0.2,0.2,0.4,0.4,0.6,0.5c0.1,0.1,0.3,0.1,0.4,0.1
						c0,0,0,0,0.1,0c6.1,0,12.1,0.7,18.2,1.4C424.3,188.6,424.6,187.1,423.6,186.8z"/>
					<path class="st1" d="M417.4,209.5c-1.2,1.7-2.9,3.6-4.6,4.9c-1.7,1.3-4.8,2.9-6.9,2.9c-0.8,0-0.8,1.1-0.1,1.4
						c2.9,1.1,6,0.6,8.9-1.4c2.5-1.7,3.9-4.4,3.9-7.4C418.6,209.3,417.7,209,417.4,209.5z"/>
				</g>
				<path class="st1" d="M392.5,124.2c0.7,2.9,0.4,5.8,0,8.8c-0.4,2.9-0.7,5.9,0.1,8.8c0.8,2.8,2.8,5.6,6.1,6.8
					c-0.3-1.5,0.8-3.4,1.9-4.7s2.5-2.4,3.7-3.7c3.7-3.9,5.1-9.1,3.6-13.7L392.5,124.2z"/>
				<path class="st1" d="M381,113.8c-2.3-3.5-7.4-4.1-11.4-2.8c-4,1.3-7.3,4.1-11,6.2c-3.7,2.1-8.2,3.6-12.1,2
					c2.5,8,12.1,14.2,20.3,12.7c7.1-1.3,13.1-7,20.3-7.2L381,113.8z"/>
			</g>
			<polygon class="st5" points="469.8,229.8 445.5,259 467.8,283.7 488.3,238.2 			"/>
			<polygon class="st5" points="401,245.7 422.7,290.9 434.1,318.6 463.9,273.6 445.5,259 448.2,277.8 434.9,286 419.6,263.8 			"/>
			<g>
				<path class="st10" d="M444.1,302.6c0-0.4,0-0.8-0.2-1.1c-0.1-0.4-0.3-0.7-0.6-1c-0.2-0.2-0.4-0.3-0.6-0.5
					c-0.3-0.2-0.7-0.3-1.1-0.4c-0.2-0.1-0.5-0.1-0.7,0c-0.4,0-0.7,0.1-1.1,0.3c-0.2,0.2-0.4,0.3-0.6,0.5c-0.4,0.4-0.6,0.8-0.8,1.3
					c-0.1,0.4-0.2,0.8-0.3,1.2c-0.1,0.2-0.1,0.4-0.1,0.6c0,0.1,0,0.2-0.1,0.3c-0.2,0.5-0.2,1.1,0,1.6c0,0,0,0,0,0c0,0.1,0,0.1,0,0.2
					c0.1,0.3,0.2,0.5,0.3,0.8c0.2,0.4,0.5,0.7,0.8,1c0.2,0.2,0.4,0.4,0.7,0.4c0.4,0.2,0.8,0.3,1.2,0.3c0.3,0,0.5-0.1,0.8-0.1
					c0.3-0.1,0.5-0.2,0.8-0.3c0.4-0.2,0.7-0.5,1-0.8c0.3-0.3,0.5-0.7,0.6-1.1C444.4,304.7,444.2,303.7,444.1,302.6z"/>
				<path class="st10" d="M440.9,349.5c0-0.4,0-0.8-0.2-1.1c-0.1-0.4-0.3-0.7-0.6-1c-0.3-0.3-0.6-0.5-1-0.7
					c-0.3-0.2-0.7-0.3-1.1-0.3c-0.3,0-0.5,0.1-0.8,0.1c-0.5,0.1-1,0.4-1.4,0.7c-0.2,0.2-0.3,0.4-0.5,0.6c-0.3,0.5-0.4,0.9-0.4,1.5
					c-0.1,0.8-0.1,1.6-0.2,2.4c0,0.4,0,0.8,0.2,1.2c0.1,0.4,0.3,0.8,0.6,1.1c0.3,0.3,0.6,0.6,1,0.7c0.4,0.2,0.8,0.3,1.2,0.3
					c0.3,0,0.5-0.1,0.8-0.1c0.6-0.1,1-0.4,1.5-0.8c0.2-0.2,0.4-0.4,0.5-0.7c0.3-0.5,0.4-1,0.5-1.5
					C440.9,351.1,440.9,350.3,440.9,349.5z"/>
			</g>
			<path class="st10" d="M433.1,295.5c-5.2,47.5-8.3,95.5-9.1,143.3c-0.2,13.5-0.3,27,0.1,40.5c0.1,3.5,5.4,3.5,5.4,0
				c0.2-47.8-0.1-95.6,2.4-143.4c0.7-13.5,1.5-26.9,2.4-40.4C434.5,294.6,433.2,294.7,433.1,295.5z"/>
			<g>
				<path class="st6" d="M383.8,307c31,51.9,109.3,155.8,109.3,155.8l-1.4,0.2c-49.4,8.5-85.3-23.2-100.5-70.9l-43-72.2L383.8,307z"
					/>
				<g>
					<path class="st6" d="M368.6,281.1c0,0-5.3-7.6-9.5-13.7c-3.2-4.6-9-6.5-14.2-4.7l-19.8,6.8l7.9,14.4l13.6-2.3L368.6,281.1z"/>
					<path class="st7" d="M340.8,281.8l-37.3,0.1c-2.2,0-4-1.8-4-3.9l0-7.5c0-2.2,1.8-4,3.9-4l37.3-0.1c2.2,0,4,1.8,4,3.9l0,7.5
						C344.8,280.1,343,281.8,340.8,281.8z"/>
					
						<rect x="328.2" y="249" transform="matrix(0.9662 -0.2578 0.2578 0.9662 -61.568 95.3337)" class="st1" width="9.2" height="66.9"/>
					<path class="st6" d="M359.1,267.4c0,0,14.5,17.9,24.7,39.6l-8.6,20.4l-49.8-27.5l-23.3-17.3c-3.8-2.6-4.9-7.8-2.5-11.7l0,0
						c2.4-4,7.4-5.4,11.5-3.4l15.3,7.1L359.1,267.4z"/>
					<path class="st6" d="M306.5,283.2c-2.9,1.5-4.6,4.5-4.3,7.5c0.5,4.8,4,6.8,7.4,6.9c-2.3,1.5-3.7,4.4-3.2,7
						c0.5,2.6,2.6,5,5.4,6.1c-1.6,2.3-0.9,6,1.4,8.1c2.3,2.1,5.6,3.1,8.8,3.8c0,0,24.9,5,53.3,4.9L306.5,283.2z"/>
					<g>
						<path class="st5" d="M333.5,212.4c5,18.6,1.1,36.1-8.6,41.8c-11.2,0.1-23.4-13.2-28.5-31.8c-5-18.6-1.1-36.2,8.6-41.8
							C316.3,180.5,328.5,193.8,333.5,212.4z"/>
						<g>
							<path class="st4" d="M316.9,192.2c-0.5-0.5-1.1-0.9-1.7-1.1c-0.7-0.1-1.5,0.1-1.7,0.8c-0.2,0.4-0.1,0.8,0,1.3
								c1.2,6.1,3.2,12,5.7,17.7c0.9,1.9,2.2,4.8,4.4,5.2c1.9,0.4,3.4-1.3,3.8-3c1-4.3-2.4-10.5-4.7-14
								C321.2,196.5,319.2,194.2,316.9,192.2z"/>
							<path class="st4" d="M322.8,222.6c-0.3,1.4,0.2,3,1.2,4.1c1.2,1.5,3.4,2.2,5.1,1.3c0.8-0.4,1.4-1.1,1.7-1.9
								c0.7-1.5,0.5-3.4-0.5-4.7C328.2,218.5,323.6,218.8,322.8,222.6z"/>
						</g>
						<path class="st1" d="M308.3,179.3l-6.7,1.8c-12.1,3.3-17.4,22.6-11.8,43.1c5.5,20.5,19.8,34.5,31.9,31.3l6.7-1.8
							c12.1-3.3,17.4-22.6,11.8-43.1C334.7,190,320.4,176,308.3,179.3z M325,254.1c-11.2,0.1-23.4-13.2-28.5-31.8
							c-5-18.6-1.1-36.2,8.6-41.8c11.2,0,23.4,13.2,28.5,31.8C338.6,230.9,334.7,248.5,325,254.1z"/>
					</g>
					<path class="st1" d="M343.5,270c-1.2-0.1-2.2,0.5-3.2,0.9c-1.2,0.5-2.5,0.8-3.7,1.2c-2.6,0.8-5.3,1.4-8,1.9
						c-5.2,0.9-10.8,1.5-16,1.2c-0.3,0-0.4,0.5-0.1,0.5c5.5,1.6,10.7,2.3,16.5,1.6c2.7-0.4,5.4-1,8-1.9c1.4-0.5,2.8-1,4.1-1.7
						c1.2-0.5,2.5-1,3.3-2.1C344.7,271,344.3,270.1,343.5,270z"/>
					<g>
						<path class="st7" d="M329.1,289.1c-1.7-0.3-3.2-0.2-4.9-0.2c-1.8,0-3.5-0.2-5.2-0.4c-1.7-0.3-3.3-0.6-5-0.9
							c-1.7-0.3-3.4-0.7-5-1.3c-0.6-0.2-0.9,0.7-0.4,1c1.6,0.8,3.2,1.7,4.8,2.4c1.7,0.7,3.5,1.1,5.3,1.4c1.8,0.3,3.6,0.4,5.3,0.5
							c1.9,0,3.6,0,5.3-0.7C330,290.4,329.8,289.3,329.1,289.1z"/>
						<path class="st7" d="M322.2,300.1c-0.7-0.3-1.3-0.6-2-0.7c-0.6-0.1-1.3-0.1-1.9-0.2c-1.4-0.2-2.7-0.3-4.1-0.6
							c-0.7-0.2-0.9,0.8-0.3,1c1.3,0.4,2.7,0.9,4,1.2c0.7,0.1,1.3,0.3,2,0.4c0.8,0.1,1.4-0.1,2.2-0.3
							C322.4,300.8,322.6,300.2,322.2,300.1z"/>
						<path class="st7" d="M318.2,310.9c-0.3-0.1-0.5-0.3-0.8-0.4c-0.4-0.2-0.8-0.2-1.2-0.3c-0.7-0.1-1.4-0.1-2.1-0.1
							c-0.4,0-0.7,0.3-0.7,0.6c0,0.3,0.2,0.7,0.5,0.8c0.7,0.1,1.4,0.3,2.1,0.4c0.4,0,0.8,0.1,1.2,0c0.3-0.1,0.6-0.2,0.9-0.2
							C318.4,311.6,318.5,311,318.2,310.9z"/>
					</g>
				</g>
				<g>
					<path class="st4" d="M493.2,462.8c55.3-51.3,64.1-170,50.5-201.6c-9.9-23.1-34.3-21-50.8,22.3c-16.5,43.3-23.6,74.8-54.8,135.6
						L493.2,462.8z"/>
					<path class="st4" d="M493.2,462.8c-58.5,62.2-105.4-7.4-144.8-97.6l44.4-43.7l67.4,78.5L493.2,462.8z"/>
					<path class="st5" d="M363.8,370.8c-3.2,5.3,5,17.5,10.1,16C382.4,384.3,369,362.2,363.8,370.8z"/>
				</g>
				<path class="st5" d="M548.1,297.1c-1,16.6-2.7,33.1-5.2,49.5c-2.4,16.2-6,32.3-11.3,47.8c-9,26.2-24,50.9-45.3,68.9
					c-5.7,4.8-11.8,9-18.4,12.6c-3.2,1.8-6.5,3.3-9.9,4.7c-3.5,1.4-11.1,4.5-11.1,4.5c-8.2-3.4-16.1-7.2-23.5-12.3
					c-7.8-5.4-14.9-11.8-21.3-18.7c-14.1-15.3-24.9-33.5-34.6-51.9c-5.7-10.8-11-21.8-16.1-32.9c-0.1-0.1-0.2-0.2-0.3-0.3
					c0.2-0.1,0.3-0.2,0.5-0.3c14.9-15,29.8-30.1,43.2-46.4c0.6-0.8-0.3-1.7-1.1-1.1c-16.3,13.5-31.2,28.6-46.1,43.6
					c-2.1,2.2,0.3,5.2,2.7,4.7c0,0.1-0.1,0.2,0,0.3c8.2,20.8,15.9,41.8,27.4,61c10.4,17.4,23.8,33.2,40.3,45.2
					c5.1,3.7,22.8,15.5,30.2,14.6c5.7-0.7,14.7-4.8,20.4-7.6c6.1-3.1,11.9-6.8,17.3-11c11.2-8.5,20.7-18.9,28.9-30.3
					c18.2-25.7,27.2-56.8,31.5-87.7c2.6-18.9,3.3-37.9,3.9-56.9C550.2,295.8,548.2,295.8,548.1,297.1z"/>
				<path class="st5" d="M465.7,368.4c2.9-7.7,5.6-15.4,8.2-23.2c5-15.3,9.4-30.9,13.3-46.6c2.2-9,4.1-18,6-27.1
					c0.2-1-1.3-1.3-1.5-0.3c-8.4,31.3-19,62.1-30.3,92.4c-1.5,4.2-3.1,8.3-4.7,12.4c-1.4,3.6-3.2,7.3-4.3,11
					c-8.9-10.6-17.7-21.2-26.7-31.7c-4.7-5.5-9.5-11-14.2-16.5c-4.9-5.6-10.1-11-15-16.6c-0.9-1-2.6,0.5-1.8,1.5
					c4.5,5.7,8.8,11.7,13.4,17.4c4.6,5.7,9.2,11.4,13.8,17.1c9.2,11.4,18.5,22.6,27.9,33.8c0.1,0.9,0.5,1.8,1.6,2.4c0,0,0,0,0,0
					c2.5,5.1,5.1,10.1,7.6,15.2c2.7,5.4,5.4,10.7,7.2,16.4c0.3,0.9,1.6,0.4,1.3-0.4c-1.5-6-2.6-12.1-4.4-18
					c-0.8-2.7-1.8-5.3-2.8-7.9c4.5,3,8.8,6.2,12.7,9.8c6.6,5.9,12.9,12.8,17.3,20.5c0.6,1,1.9,0,1.4-0.9
					c-4.4-8.4-9.1-16.2-15.6-23.1c-5.7-6.1-12.3-11.3-19.4-15.5c2.1-3.3,3.3-7.3,4.7-10.9C462.9,376,464.3,372.2,465.7,368.4z"/>
			</g>
			<path class="st5" d="M272,434.8c-1.1-4.4-3-8.7-4.8-12.9c-1.8-4.2-3.9-8.3-6.2-12.3c-2.2-3.9-4.7-7.7-7.3-11.3
				c-2.8-3.7-6-7-9.2-10.5c-1-1.1-2.6,0.5-1.6,1.6c2.8,3.5,5.1,7.3,7.5,11.1c2.4,3.7,4.6,7.4,6.6,11.3c2,3.8,3.8,7.7,5.4,11.6
				c1.7,4.2,2.8,8.5,4.3,12.7C267.9,439.5,272.9,438.3,272,434.8z"/>
			<path class="st5" d="M248.1,411.7c-0.7-2.6-1.3-5.2-2.2-7.7c-0.4-1.2-0.8-2.4-1.3-3.6c-0.5-1.5-0.9-2.9-2.4-3.7
				c-1.1-0.7-2.7,0-3,1.3c-0.4,1.5,0.3,2.7,0.9,4c0.6,1.3,1.1,2.5,1.6,3.8c1,2.4,2,4.8,2.8,7.2c1.8,5,3.5,10.1,4.6,15.4
				c0.3,1.2,2,0.7,1.9-0.5C250.2,422.4,249.5,417,248.1,411.7z"/>
			<path class="st5" d="M201.6,336.6c-7.1,5.7-13.3,12.3-20.1,18.3c-3.3,3-6.6,6-9.7,9.2c-3.3,3.3-10.2,9.3-12.7,13.2
				c-1.9,2.9,2,6.9,4.9,4.9c3.9-2.7,10.5-8.9,13.7-12.3c3.2-3.3,6.2-6.8,9.1-10.3c5.8-7,12.2-13.5,17.7-20.8
				C205.8,337,203.1,335.4,201.6,336.6z"/>
			<path class="st5" d="M174,383.3c-3.2,5.3,5,17.5,10.1,16C192.5,396.8,179.1,374.7,174,383.3z"/>
			<path class="st1" d="M441.6,1111l-10.1-46.6c-13.2,0.9-16.6,19.7-31.6,20.6c-15,0.9-26.5-20.5-36-20.5
				c-13.7,22.7-77.4,31.3-84.1,50.2C302.3,1126.7,428.8,1122.9,441.6,1111z"/>
		</g>
		<path class="st5" d="M375.6,547.8c-4.8-0.2-9.6-0.1-14.3-0.7c-4.6-0.6-9.2-1.4-13.7-2.4c-3.5-0.8-7-1.7-10.4-2.7
			c0.6-3,1.1-6,1.6-9c3.6,1.4,7.2,2.6,10.9,3.8c4.4,1.4,9,2.5,13.5,3.6c4.3,1,8.6,2.3,13,2.9C378.7,543.8,378.1,547.9,375.6,547.8z"
			/>
		<g>
			<path class="st11" d="M378.8,189.2c2,11.4-3.4,22-12.2,23.5c-8.8,1.6-17.5-6.4-19.6-17.9c-2-11.4,3.4-22,12.2-23.5
				C368,169.8,376.7,177.8,378.8,189.2z"/>
			<path class="st11" d="M428.8,184.1c2,11.4-3.4,22-12.2,23.5c-8.8,1.6-17.5-6.4-19.6-17.9c-2-11.4,3.4-22,12.2-23.5
				C418,164.7,426.8,172.7,428.8,184.1z"/>
			<path class="st11" d="M377.3,184c9.7-2.9,19.3,1,19.3,1"/>
			<line class="st11" x1="428.8" y1="184.1" x2="452.2" y2="173.7"/>
		</g>
	</g>
</g>
</svg>
