<?xml version="1.0" encoding="utf-8"?>
<!-- Generator: Adobe Illustrator 28.2.0, SVG Export Plug-In . SVG Version: 6.00 Build 0)  -->
<svg version="1.1" id="Layer_1" xmlns="http://www.w3.org/2000/svg" xmlns:xlink="http://www.w3.org/1999/xlink" x="0px" y="0px"
	 viewBox="0 0 695.1 695.1" style="enable-background:new 0 0 695.1 695.1;" xml:space="preserve">
<style type="text/css">
	.st0{fill:#1D7ACE;}
	.st1{clip-path:url(#SVGID_00000036244362742421075000000000819536995034800532_);}
	.st2{fill:#19355E;}
	.st3{fill:#152746;}
	.st4{fill:#FFFFFF;}
	.st5{fill:#A9E4EF;}
	.st6{fill:#1D88E5;}
	.st7{fill:#FFB79A;}
	.st8{fill:#FB9B7F;}
	.st9{fill:#FB4D3D;}
	.st10{fill:#FF6F6F;}
	.st11{opacity:0.7;fill:#A9E4EF;}
	.st12{fill-rule:evenodd;clip-rule:evenodd;fill:#FFFFFF;}
	.st13{fill-rule:evenodd;clip-rule:evenodd;fill:#A9E4EF;}
	.st14{fill-rule:evenodd;clip-rule:evenodd;fill:#00E7CA;}
</style>
<path class="st0" d="M538.6,579.5c-64.5,23.2-134.6,30.7-202.5,21.6c-42.2-5.7-83.6-17.6-126.2-18.6c-35.4-0.9-72.6,5.5-104.8-9.3
	c-37.8-17.4-58-59.8-64.8-100.9c-6.4-38.5-3.2-79.8,16-113.8c40.1-70.7,135.7-91.2,184.2-156.4c14.3-19.2,23.8-41.6,37.1-61.5
	C322.4,73.2,412.1,39.2,490.3,60c35.3,9.4,69.7,31.1,83.3,65c17.4,43.6-3.4,94.9,12.1,139.2c10.8,30.9,37.4,53.2,54.9,80.8
	c28.1,44.2,31.1,103.4,7.5,150.2C624.5,542.2,573.4,567,538.6,579.5z"/>
<g>
	<defs>
		<path id="SVGID_1_" d="M538.6,579.5c-64.5,23.2-134.6,30.7-202.5,21.6c-42.2-5.7-83.6-17.6-126.2-18.6
			c-35.4-0.9-72.6,5.5-104.8-9.3c-37.8-17.4-58-59.8-64.8-100.9c-6.4-38.5-3.2-79.8,16-113.8C96.4,287.8,140.5,236,189,170.8
			c14.3-19.2,27.6-62.8,40.9-82.7c44.8-67.4,182.2-48.8,260.4-28c35.3,9.4,69.7,31.1,83.3,65c17.4,43.6-3.4,94.9,12.1,139.2
			c10.8,30.9,37.4,53.2,54.9,80.8c28.1,44.2,31.1,103.4,7.5,150.2C624.5,542.2,573.4,567,538.6,579.5z"/>
	</defs>
	<clipPath id="SVGID_00000141442845717395300570000017204890347666979764_">
		<use xlink:href="#SVGID_1_"  style="overflow:visible;"/>
	</clipPath>
	<g style="clip-path:url(#SVGID_00000141442845717395300570000017204890347666979764_);">
		<path class="st2" d="M199.3,253.5c-23.3,24.9-91.3,84.4-73,183.2s134.5,90.4,171.2,60.9s43.3-69.4,104.7-76.6
			s59.5-71.9,13.1-116.4S199.3,253.5,199.3,253.5z"/>
		<g>
			<path class="st3" d="M405.7,674.6H174.3c0,0,13.8-120.4,54.9-189.2h137.3C366.5,485.4,416.7,535.1,405.7,674.6z"/>
		</g>
		<g>
			<path class="st2" d="M350.1,495c-17.5,1.2-35,2.3-52.6,2.5c-17.5,0.2-35.1-0.1-52.6-0.9c-1.6-0.1-1.6,2.3,0,2.4
				c17.5,1.2,35.1,1.8,52.6,1.9c2.4,0,4.7,0,7.1,0c0,0.1,0,0.1,0,0.2c0.8,10.1,1.7,20.1,2.5,30.2c0.5,6.2,0.3,20.4,10.4,18.3
				c0.9-0.2,1.6-1.1,1.6-2c-1.1-15.5-1.5-31.1-1.4-46.7c10.9-0.2,21.7-0.5,32.5-1.3C353,499.4,353,494.8,350.1,495z M314.8,545.4
				c-2.6-1.1-2.8-6.5-2.9-8.7c-0.3-3.8-0.7-7.7-1-11.5c-0.7-8-1.4-16-2.2-23.9c0-0.1,0-0.1-0.1-0.2c2,0,3.9,0,5.9-0.1
				C314,515.7,314.1,530.6,314.8,545.4z"/>
			<path class="st2" d="M332.8,673.6c-0.8-8.5-1.8-36-3-44.4c-2.4-16.9-5.2-33.7-9.8-50.1c-2.8-10-5.3-12.1-6,1.2
				c-0.7,12.9-0.8,25.9-1,38.9c-0.1,12.2,0.1,43.4,0.2,55.6h19.7C332.9,674.3,332.8,673.9,332.8,673.6z"/>
		</g>
		<path class="st4" d="M411.2,627.4c0,0-33.8,16.6-48.9,9.4c-24.5-11.6-22.9-32.5-30.5-151.4l32-77.5c-4.3,39.6,13.6,66,28.7,106.6
			c0.5,1.3,1,2.7,1.5,4.1c1,2.9,2,5.8,3,8.8l0.9,2.7C405.7,555.3,411.7,586.1,411.2,627.4z"/>
		<path class="st4" d="M288.9,485.4c7.6,71.3,0.7,135.7-16.9,148c-20.7,14.5-95.7-5.8-95.7-5.8c24.4-148.5,70.9-192.3,70.9-192.3
			L288.9,485.4z"/>
		<path class="st2" d="M328.7,143.6c0.5,28.2,10.7,56.2,28.7,78c8.3,10.1,18.4,19.5,21.4,32.2c2.6,11.3-1.1,23.3-7.7,32.8
			c-6.6,9.5-15.7,16.9-25,23.8l-26.8,3.3L299,148.1L328.7,143.6z"/>
		<path class="st2" d="M286.7,97.4c-127.9,3.3-49.9,122.3-87.4,156.1c-26.5,24-18.2,57.1-18.2,57.1c20.5-31.8,119.7,13.1,114.8-57.4
			L251,190.8L286.7,97.4z"/>
		<g>
			<path class="st4" d="M343.6,234.1c66.3,0.2,174.6,2.6,174.6,2.6l4.2,88.7c-93.3,19-152.8,26.1-152.8,26.1L343.6,234.1z"/>
			<path class="st4" d="M363.3,239.3c1.4-7.6-49.1-4.8-49.1-4.8l-42.7-3c0,0-87.9,29.2-90.7,42.3c-2.3,10.4-0.3,115.8,45.3,211.8
				h143c-19.6-105.2,21.1-98.2,22.7-133.8C393.5,315.6,354,290.7,363.3,239.3z"/>
			<path class="st5" d="M360.8,294.4c-8.4-18-18.7-35-28-52.5c-0.4-0.8-1.5-0.1-1.2,0.7c8.5,18,16.1,36.4,25.5,53.9
				C358.5,298.9,361.9,296.8,360.8,294.4z"/>
			<path class="st5" d="M353.5,341.6c-2.2,7.9-3,16.3-4.3,24.4c-1.3,8-2.5,16-3.7,24.1c-2.4,16.2-4.7,32.5-7.2,48.7
				c-1.4,9.2-2.6,18.5-3.9,27.7c-0.2,1.4,1.9,2,2.1,0.6c6-32.4,12.1-64.9,17.5-97.4c1.5-9,3.6-18.2,4.1-27.4
				C358.4,339.4,354.3,339,353.5,341.6z"/>
			<path class="st5" d="M272.4,440.3c-1.9-10.8-4.2-21.5-6.8-32.1c-5.2-21.2-11.6-42-19.4-62.3c-3.9-10.3-8.1-20.5-12.6-30.5
				c8.7-1.1,17.4-2.3,26.2-3.4c2.3-0.3,2.6-3.1,0.5-3.9c-5.3-2.1-10.3-5.1-15.3-7.8c-4.3-2.4-8.5-4.9-12.6-7.6
				c6.5-13.7,10.9-28,13.8-42.8c0.3-1.4-1.8-2-2.2-0.6c-3.7,15-9.6,29.4-16.7,43.1c-0.6,1.2-0.2,2.5,0.9,3.2
				c4.7,3.3,9.6,6.4,14.7,9.1c2.8,1.5,5.7,2.7,8.6,4c-7.3,0.6-14.5,1.1-21.8,1.9c-2.1,0.2-3.2,2-2.3,4
				c17.9,39.3,31.3,80.2,39.1,122.7c2.2,12,3.5,24.1,6,36.1c0.5,2.3,4.2,1.8,4.1-0.5C276.3,461.7,274.3,450.9,272.4,440.3z"/>
			<path class="st5" d="M393.6,343.3c-1.3-12.5-6.4-24.4-13-35c-3.8-6.1-7.8-12.1-11.6-18.3c-3.8-6.1-7-12.5-9.9-19
				c-0.2-0.3-0.7-0.1-0.6,0.3c3.4,12.1,10.4,23,16.3,34c6,11.3,12,23,13.9,35.8c0.9,6.2,0.8,12.6-0.7,18.7
				c-1.5,5.7-4.3,10.9-7.4,15.8c-3.2,5.2-6.8,10.1-9.7,15.5c-2.9,5.3-5.2,11-6.9,16.9c-3.8,13-4.8,27.4-1.1,40.4
				c0.4,1.4,2.6,1.1,2.5-0.4c-0.9-12.5-0.7-25,2.6-37.2c1.6-6.1,3.8-12.1,6.8-17.7c2.8-5.4,6.2-10.5,9.4-15.6c3.2-5,6-10.3,7.9-16
				C393.8,355.6,394.2,349.4,393.6,343.3z"/>
		</g>
		<path class="st5" d="M331.8,485.4h-42.9c-3.8-50.7-18.5-108.8-22.1-147.6c-3.5-38.5-2.3-90.6-2.3-90.6l56-6.8
			c0,0,4.9,28.8,20.5,84.6C351.6,362.5,325.4,380.6,331.8,485.4z"/>
		<path class="st6" d="M339.7,371.5c-0.3,1.2-0.5,2.5-0.8,3.8c-16.8,4.3-33.6,8.2-50.6,11.4c-4.6,0.9-9.3,1.7-13.9,2.4
			c-0.3-1.6-0.5-3.1-0.8-4.7C295.9,381.2,318,376.9,339.7,371.5z"/>
		<path class="st7" d="M322.8,183.1l-1,22.3l-1.1,25.7l-0.3,13.4c-0.3,14.8-12.1,26.9-26.9,27.5l0,0c-14.9,0.6-27.7-10.6-29.1-25.5
			l-7.2-79.2L322.8,183.1z"/>
		<path class="st8" d="M322.3,200.7l-1.6,30.4c-29.9,3.1-44.2-15-50.8-33.6C282.4,194.2,322.3,200.7,322.3,200.7z"/>
		<path class="st2" d="M345.3,137c-0.5-44.2-45.3-58.1-76.9-33.4c-23.2,5.5-50,40.3-21.9,80L345.3,137z"/>
		<path class="st7" d="M328.8,108c-5.7-5-12.9-7.4-20.8-7.9c-19.9-1.3-43.5,9.9-53.9,23.9c-15.1,20.5-11.7,45.9,1.7,65.3
			c6.1,9,14.3,16.7,23.7,22c16.6,9.4,38.3,12.2,54.1,1.6c11.4-7.6,18-21.2,19.4-34.9C355.6,155,346.9,123.7,328.8,108z"/>
		<path class="st2" d="M278.4,106c22.4-3.1,49.7,4.4,66.4,24.2C332.2,86.5,294.3,92.8,278.4,106z"/>
		<path class="st2" d="M285.8,101.4c11.3,36.1-14.6,76.8-30.3,84.2C208.5,164.7,239.9,112.2,285.8,101.4z"/>
		<path class="st2" d="M338,149.3c1.1,2.7,0.5,5.6-1.5,6.5c-1.9,0.9-4.4-0.5-5.5-3.2c-1.1-2.7-0.5-5.6,1.5-6.5
			C334.4,145.2,336.9,146.6,338,149.3z"/>
		<path class="st2" d="M308.1,160.6c1.1,2.7,0.5,5.6-1.5,6.5c-1.9,0.9-4.4-0.5-5.5-3.2c-1.1-2.7-0.5-5.6,1.5-6.5
			C304.5,156.5,307,157.9,308.1,160.6z"/>
		<path class="st2" d="M329,164c-4.2-6.1-8.6-11.9-13.2-17.7c-0.4-0.6-1.4,0-1,0.6c3.3,5,6.6,9.9,10.1,14.8c1.7,2.4,3.9,4.8,4.6,7.7
			c0.6,2.4-0.6,4.6-2,6.4c-0.4,0.5-0.1,1.3,0.6,1.2c2.3-0.2,3.8-2.5,3.9-4.7C332.2,169.2,330.6,166.4,329,164z"/>
		<path class="st7" d="M245.8,175.4c-6.5-0.9-13.8,1.4-17,7c-2.7,4.7-2,10.7-0.2,15.8c2.3,6.6,6.6,12.7,12.4,16.5
			c5.9,3.8,13.4,5.2,20.1,3c6.6-2.2,12-8.3,12.7-15.3C275.2,189.1,257.4,177.1,245.8,175.4z"/>
		<path class="st8" d="M259,197.3c-6.1-4.7-12.8-4.7-20-3.1c-1.1,0.2-0.9,2,0.2,1.9c5.9-0.5,12.5,3.1,16.5,6.4
			c0.6,0.5,1.7,0.5,2.3,0.4c0.7-0.2,1.5-0.7,1.9-1.4C260.8,199.9,260.3,198.3,259,197.3z"/>
		<path class="st2" d="M338.6,121.4c-2.7-4.1-15.5,0.4-16.3,5.3C321.2,132.9,343.3,128.4,338.6,121.4z"/>
		<path class="st2" d="M293.3,139.2c-3.6-4.5-17.8,2.1-18.3,7.8C274.2,157,297.7,144.7,293.3,139.2z"/>
		<path class="st2" d="M325.2,182.8c-2,0.9-4.6,1.5-6.8,1.7c-2.2,0.2-5.8-0.1-7.7-1.3c-0.7-0.4-1.3,0.5-0.8,1.2
			c1.9,2.6,5,3.9,8.7,3.8c3.2-0.1,5.9-1.7,7.5-4.3C326.4,183.4,325.8,182.6,325.2,182.8z"/>
		<g>
			<path class="st8" d="M428.9,110.3l-34.9-3.3c-3.3-0.3-5.8-3.2-5.6-6.5l0,0c0.1-2.7,2.1-5.1,4.7-5.7l31.6-7.7L428.9,110.3z"/>
			<path class="st7" d="M500.9,125.1c14,16.4,21.5,27.7,30.9,42.9l-35.2,26.5l-20.3-55.9L500.9,125.1z"/>
			<path class="st7" d="M427.6,112.4c31.9,25,53.9,40.8,73.3,12.7L465.8,85L427.6,112.4z"/>
			<g>
				<path class="st4" d="M367.3,183c-1.2-0.6-2.1-1.8-2.1-3.2c0-0.7,0.1-1.3,0.4-1.8c0.9-1.8,0.9-3.9-0.2-5.5c0,0,0,0,0,0
					c-0.5-0.7-0.6-1.5-0.4-2.2c0.1-0.7,0.6-1.4,1.3-1.9c1.5-1,1.8-3.1,0.5-4.4l-0.2-0.2c-0.6-0.7-0.9-1.6-0.7-2.6l5.4-26.6l5-24.4
					l12.8,2.6l-7.7,37.6l-2.7,13.4c-0.2,0.9-0.8,1.7-1.7,2.1l-0.2,0.1c-1.7,0.8-2.1,2.8-1.1,4.4c0.8,1.4,0.5,3.1-0.9,4l0,0
					c-1.7,1.1-2.4,3.1-2.3,5.1c0,0.3,0,0.6-0.1,1C371.9,182.6,369.5,184,367.3,183z"/>
				<g>
					<path class="st9" d="M379.2,150.7l-2.5,12.6c-0.1,0.3-0.3,0.5-0.5,0.7l-0.2,0.1c-1.3,0.6-2.2,1.7-2.6,3c-0.4,1.4-0.2,3,0.6,4.3
						c0.3,0.4,0.1,1-0.3,1.3c-2.2,1.5-3.4,4.1-3.2,6.9c0,0.1,0,0.3,0,0.4c-0.1,0.5-0.4,0.9-0.8,1.1c-0.3,0.1-0.8,0.3-1.4,0
						c-0.2-0.1-0.5-0.3-0.6-0.5c-0.2-0.2-0.3-0.5-0.3-0.8c0-0.3,0.1-0.6,0.2-0.8c1.3-2.5,1.2-5.4-0.3-7.6c-0.2-0.3-0.2-0.5-0.1-0.7
						c0-0.2,0.1-0.4,0.4-0.6c2.3-1.5,2.9-4.6,1.4-6.9c-0.1-0.2-0.3-0.4-0.5-0.6l-0.2-0.2c0,0-0.1-0.1-0.1-0.1
						c-0.1-0.2-0.2-0.5-0.1-0.7l4.3-21.4c0.9,1.4,1.8,2.8,2.6,4c0.4,0.5,0.7,1.1,1.1,1.6l1.3,1.9
						C377.8,148.7,378.5,149.7,379.2,150.7"/>
				</g>
				<g>
					<path class="st10" d="M395.2,122.9l-28.9-5.8c-1.4-0.3-2.4-1.7-2.1-3.1l2.3-11.4c0.3-1.4,1.7-2.4,3.1-2.1l28.9,5.8
						c1.4,0.3,2.4,1.7,2.1,3.1l-2.3,11.4C398,122.3,396.6,123.2,395.2,122.9z"/>
					<path class="st10" d="M396.4,102.9l-23.5-4.7c-0.9-0.2-1.8,0.4-2,1.4l-0.6,3.2c-0.2,0.9,0.4,1.8,1.3,2l23.5,4.7
						c0.9,0.2,1.8-0.4,2-1.3l0.6-3.2C397.9,104,397.3,103.1,396.4,102.9z"/>
					<path class="st9" d="M396.4,102.9l-13.9-2.8c-0.9-0.2-1.8,0.4-2,1.4l-0.6,3.2c-0.2,0.9,0.4,1.8,1.3,2l13.9,2.8
						c0.9,0.2,1.8-0.4,2-1.3l0.6-3.2C397.9,104,397.3,103.1,396.4,102.9z"/>
					<path class="st9" d="M396.5,116.5l-28.9-5.8c-1.4-0.3-2.4-1.7-2.1-3.1l1-4.9c0.3-1.4,1.7-2.4,3.1-2.1l28.9,5.8
						c1.4,0.3,2.4,1.7,2.1,3.1l-1,4.9C399.3,115.8,397.9,116.8,396.5,116.5z"/>
					<g>
						<g>
							<path class="st10" d="M368.8,115.5c-0.2,0-0.3,0-0.5,0c-0.7-0.1-1.2-0.9-1.1-1.6l2-10c0.1-0.7,0.9-1.2,1.6-1.1
								c0.7,0.1,1.2,0.9,1.1,1.6l-2,10C369.8,115,369.3,115.4,368.8,115.5z"/>
						</g>
						<g>
							<path class="st10" d="M373,116.4c-0.2,0-0.3,0-0.5,0c-0.7-0.1-1.2-0.9-1.1-1.6l2-10c0.1-0.7,0.9-1.2,1.6-1.1
								c0.7,0.1,1.2,0.9,1.1,1.6l-2,10C374,115.9,373.6,116.3,373,116.4z"/>
						</g>
						<g>
							<path class="st10" d="M377.3,117.2c-0.2,0-0.3,0-0.5,0c-0.7-0.1-1.2-0.9-1.1-1.6l2-10c0.2-0.7,0.9-1.2,1.6-1.1
								c0.7,0.1,1.2,0.9,1.1,1.6l-2,10C378.3,116.7,377.9,117.1,377.3,117.2z"/>
						</g>
						<g>
							<path class="st10" d="M381.6,118.1c-0.2,0-0.3,0-0.5,0c-0.7-0.1-1.2-0.9-1.1-1.6l2-10c0.1-0.7,0.9-1.2,1.6-1.1
								c0.7,0.1,1.2,0.9,1.1,1.6l-2,10C382.6,117.6,382.1,118,381.6,118.1z"/>
						</g>
						<g>
							<path class="st10" d="M385.9,118.9c-0.2,0-0.3,0-0.5,0c-0.7-0.1-1.2-0.9-1.1-1.6l2-10c0.1-0.7,0.9-1.2,1.6-1.1
								c0.7,0.1,1.2,0.9,1.1,1.6l-2,10C386.9,118.4,386.4,118.9,385.9,118.9z"/>
						</g>
						<g>
							<path class="st10" d="M390.2,119.8c-0.2,0-0.3,0-0.5,0c-0.7-0.1-1.2-0.9-1.1-1.6l2-10c0.2-0.7,0.9-1.2,1.6-1.1
								c0.7,0.1,1.2,0.9,1.1,1.6l-2,10C391.1,119.3,390.7,119.7,390.2,119.8z"/>
						</g>
						<g>
							<path class="st10" d="M394.4,120.7c-0.2,0-0.3,0-0.5,0c-0.7-0.1-1.2-0.9-1.1-1.6l2-10c0.1-0.7,0.9-1.2,1.6-1.1
								c0.7,0.1,1.2,0.9,1.1,1.6l-2,10C395.4,120.2,395,120.6,394.4,120.7z"/>
						</g>
					</g>
				</g>
				<g>
					<path class="st5" d="M395.1,101.6l-0.2,1l-19.3-3.9l0.2-1c0.3-1.3,1.2-2.4,2.5-2.8l1.8-0.6c1.3-0.4,2.3-1.5,2.5-2.8l0,0
						c0.2-1.1-0.1-2.2-0.8-3.1c-1.5-1.9-2.2-4.4-1.6-7c1-5,6.1-8.1,11.1-6.5c0.3,0.1,0.6,0.2,0.8,0.3c3.3,1.5,5.4,4.9,5.1,8.6
						c-0.3,3-2,5.5-4.4,6.8c-1,0.5-1.6,1.4-1.9,2.5l0,0c-0.3,1.3,0.2,2.7,1.3,3.6l1.5,1.2C394.9,98.9,395.4,100.2,395.1,101.6z"/>
					<path class="st4" d="M395.1,101.6l-0.2,1l-15.6-3.1l0.2-1c0.3-1.3,1.2-2.4,2.5-2.8l1.8-0.6c1.3-0.4,2.3-1.5,2.5-2.8l0,0
						c0.2-1.1-0.1-2.2-0.8-3.1c-1.5-1.9-2.2-4.4-1.6-7c0.8-4,4.3-6.9,8.3-6.9c3.3,1.5,5.4,4.9,5.1,8.6c-0.3,3-2,5.5-4.4,6.8
						c-1,0.5-1.6,1.4-1.9,2.5l0,0c-0.3,1.3,0.2,2.7,1.3,3.6l1.5,1.2C394.9,98.9,395.4,100.2,395.1,101.6z"/>
				</g>
			</g>
			<path class="st7" d="M383.8,90.6l18.7-21.2c1.7-1.9,4.2-3,6.8-2.8l42,8.2c4.7,0.9,9,3.5,12.1,7.2l36.2,44.4
				c-6.9-2.4-17,10.1-35,4.4c-19.7-4.5-42-38.6-42-38.6l-13.9-7.3l-18.2,13.4c-2,1.5-4.8,1.4-6.7-0.5
				C381.9,95.9,382,92.6,383.8,90.6z"/>
			<path class="st7" d="M418.8,88.6c-7.8,12.4-4.2,22.2,4.4,22.8c4.9,7,10.3,8.1,17,5.3c-6.7,7.6,0.5,14.1,5.3,14.3
				c4.8,0.2,21.2-8.8,21.2-8.8l-21.6-40.1L418.8,88.6z"/>
			<path class="st8" d="M420.9,85.7c0.8-1.7,1.8-3,3.2-4.1c1.4-1.2,3-2.1,4.7-2.9c3.3-1.5,6.7-2.6,10.3-3.1c0.6-0.1,0.8,1,0.2,1.1
				c-3.3,0.7-6.7,1.8-9.6,3.7c-1.4,0.9-2.7,1.9-4,2.9c-1.4,1-2.8,2-4.3,2.9C421,86.4,420.7,86,420.9,85.7z"/>
			<path class="st8" d="M423.1,106c0.4-0.5,0.4-1.3,0.7-1.8c0.3-0.5,0.5-1,0.9-1.5c0.6-1,1.4-1.9,2.2-2.8c1.7-1.9,3.5-3.5,5.7-4.8
				c4.3-2.5,9.2-3.4,14.1-3.1c0.7,0,0.7,1.1,0,1.1c-4.6,0-9,1.6-12.9,4c-1.9,1.2-3.8,2.5-5.4,4c-0.8,0.8-1.5,1.6-2.2,2.5
				c-0.4,0.5-0.7,0.9-1.1,1.4c-0.3,0.5-1,0.9-1.1,1.4C423.7,107,422.7,106.5,423.1,106z"/>
			<path class="st8" d="M438.8,112.9c0.2-0.5,0.7-0.9,1.1-1.3c0.5-0.4,1-0.8,1.5-1.2c1-0.7,2.1-1.2,3.2-1.6c2.3-0.9,4.6-1.5,7-2
				c0.7-0.2,1,0.9,0.3,1.1c-2.2,0.8-4.4,1.8-6.4,3c-1.1,0.6-2.1,1.2-3.2,1.7c-1,0.4-2.1,1-3.1,1.1
				C438.8,113.6,438.7,113.2,438.8,112.9z"/>
			<path class="st8" d="M459.8,125.7c2.1-1.5,4.9-1.2,7,0.1c2.6,1.6,4.2,4.4,6.8,6c2.2,1.3,4.7,1.9,7.2,1.8c1.2-0.1,2.4-0.3,3.6-0.7
				c1.3-0.5,2.5-1.6,3.9-1.4c1,0.1,1.4,1.1,1.1,2c-0.5,1.3-2.2,1.8-3.4,2.2c-1.2,0.4-2.5,0.6-3.8,0.6c-2.6,0.1-5.2-0.2-7.6-1.2
				c-2.6-1-4.6-2.7-6.4-4.8c-1.7-1.9-4.7-5.2-7.5-3.5C459.9,127.4,459,126.3,459.8,125.7z"/>
		</g>
		<path class="st4" d="M514.4,138.6c-0.6-0.6-39.9,51.7-39.9,51.7l47.9,135.2c72.7-14.9,65.7-46.8,49.1-86.9
			C559.4,209.4,514.4,138.6,514.4,138.6z"/>
		<g>
			<path class="st5" d="M348.6,357.7l8.9,1.6c2.6,0.5,5.1-1.3,5.6-3.9l17.6-97.4l-18.3-3.3l-17.6,97.4
				C344.3,354.7,346,357.2,348.6,357.7z"/>
			<path class="st9" d="M353.6,355.4L353.6,355.4c3.5,0.6,6.8-1.7,7.5-5.2l14.3-79.3l-14.7,6.7l-12.3,70.3
				C347.8,351.4,350.1,354.8,353.6,355.4z"/>
			<path class="st5" d="M357,264.7l25.1,4.5c1.5,0.3,3-0.7,3.2-2.2l0.9-5.1c0.3-1.5-0.7-3-2.2-3.2L359,254c-1.5-0.3-3,0.7-3.2,2.2
				l-0.9,5.1C354.5,262.9,355.5,264.4,357,264.7z"/>
		</g>
		<g>
			<g>
				<g>
					<g>
						<g>
							<g>
								<g>
									<g>
										<g>
											<g>
												<g>
													<g>
														<g>
															<path class="st7" d="M354.7,331.3l-16.8-42.9l-45.3,46.3C292.5,334.8,312.8,367.8,354.7,331.3z"/>
														</g>
													</g>
												</g>
											</g>
										</g>
									</g>
								</g>
							</g>
						</g>
					</g>
				</g>
				<path class="st7" d="M381,288.6l-17,0l-3-13.6l21.1,3.8c2.7,0.5,4.5,3,4,5.7l0,0C385.6,287,383.5,288.7,381,288.6z"/>
				<polygon class="st7" points="365.6,287.9 344,307.1 337.8,288.4 360.9,275 				"/>
				<polygon class="st7" points="360.7,306.1 345,316.8 338.3,306 355.3,294.2 				"/>
				<path class="st7" d="M355,307.1l18.6-1.6c2.6-0.2,4.7-2.3,4.9-5l0,0c0.2-3-2.1-5.6-5.1-5.7l-18.1-0.7L355,307.1z"/>
				<path class="st8" d="M355,293.6c-5.9,1.1-11.7,3.1-16.6,6.5c-0.6,0.4-0.7,1.4-0.3,2c0.5,0.7,1.4,0.7,2,0.3
					c4.7-3,9.7-5.7,15.1-7.1C356.3,295,356.1,293.4,355,293.6z"/>
				<path class="st7" d="M348.1,320.7l21,0.3c3,0,5.5-2.1,6-5l0,0c0.5-3.3-1.8-6.5-5.1-6.9l-23.9-2.5L348.1,320.7z"/>
				<path class="st7" d="M346.4,331.9l20.3,0c2.9,0,5.3-2.1,5.8-4.9l0,0c0.5-3.2-1.8-6.2-5-6.6l-19.5-2.4L346.4,331.9z"/>
			</g>
			<polygon class="st7" points="292.5,334.8 255.2,376.4 286.4,423.2 321.1,344.7 			"/>
		</g>
		<path class="st4" d="M273.8,354.1l39.2,59.6c0,0-59.3,77.4-91,88.7c-37.1,13.2-47.7-60.9-47.7-60.9L273.8,354.1z"/>
		<path class="st4" d="M177.8,459.1c-17.4-88.3-12.5-174.4-7.5-182.6c2.3-3.7,18.6-11.2,26.9-15.5l35,177.3L177.8,459.1z"/>
		<path class="st5" d="M265.4,360.5c-6.2,5.3-12.6,10.4-19,15.4c-3.2,2.5-6.2,5-9.3,7.6c-2.5,2.1-5.2,4.1-7.5,6.3
			c-3-13.4-6.8-26.5-12.3-39.1c-6.1-13.8-13.6-27-22.8-39c-5.2-6.9-11-13.2-16.9-19.5c-0.7-0.8-1.8,0.4-1.2,1.2
			c9.3,11.5,17,24.5,24.2,37.4c7.2,12.9,13.2,26.3,18.7,40.1c2.9,7.3,5.4,14.8,7.4,22.4c-2.5,0.9-4.9,2.3-7.1,3.6
			c-2.8,1.7-5.5,3.6-7.9,5.8c-4.7,4.4-8.4,9.5-11.4,15.2c-0.6,1.1,1,2,1.7,1c3.3-5,7.7-9.5,12.4-13.2c2.3-1.8,4.6-3.5,7.1-4.9
			c0.5-0.3,1-0.5,1.4-0.8c-1.3,2.2-2.4,4.4-3.5,6.6c-2.5,4.9-4.7,10-6.7,15.2c-1.9,5.1-3.5,10.4-4.7,15.7
			c-1.2,5.5-1.7,10.9-2.2,16.5c-0.1,0.8,1.3,1,1.5,0.2c1-5.3,2.6-10.6,4.1-15.8c1.5-5.2,3.3-10.4,5.3-15.4c2-4.9,4.4-9.7,7-14.4
			c2.5-4.5,5.6-8.7,7.6-13.4c3-2.2,5.8-5.1,8.6-7.6c3-2.8,6.1-5.6,9-8.4c5.9-5.8,11.8-11.5,17.9-17
			C268.1,361.1,266.5,359.6,265.4,360.5z"/>
		<path class="st5" d="M529,293.5c-3.8-4.3-8-8.2-11.7-12.6c-3.7-4.4-7-8.9-10.2-13.6c-6.4-9.6-11.8-19.9-15.8-30.7
			c-0.3-0.8-1.5-0.5-1.3,0.3c-0.5-0.6-1.7-0.6-1.9,0.3c-1.5,8.5-1,17.1,1.2,25.4c1.1,4.1,2.7,8.1,4.5,12c1.8,3.7,4.1,8.3,7.3,10.9
			c1.8,1.4,4.2-0.3,3.2-2.5c-0.8-1.8-2.1-3.3-3.2-5c-1.1-1.7-2.1-3.4-3-5.1c-2-3.6-3.6-7.4-4.8-11.4c-2.4-7.7-3.4-15.7-3.2-23.7
			c3.2,11,7.6,21.6,13.4,31.5c2.9,5,6.3,9.8,9.8,14.4c3.6,4.6,7.5,9.6,12.1,13.3C527.9,298.9,531.1,295.9,529,293.5z"/>
		<path class="st5" d="M280.5,527.6c-21.1-2.4-42.4-4.8-63.2-9c-1-0.2-1.3,1.3-0.3,1.6c20.1,4.7,40.2,9.2,60.8,11.8
			c0.1,2.7,0.1,5.4,0.2,8.1c-10.8-1.3-21.6-3.2-32.4-4.8c-10.9-1.5-21.9-2.9-32.8-4.4c0.4-2.6,0.8-5.1,1-7.7
			c0.2-2.1-2.6-2.8-3.2-0.7c-0.9,3.2-1.5,6.4-2.1,9.7c-0.2,1,0.5,2.2,1.6,2.4c11.6,1.6,23.1,3.3,34.7,4.8
			c11.6,1.5,23.2,2.6,34.8,4.4c1.2,0.2,2.1-0.7,2.2-1.8c0.2-4.1,0.6-8.1,0.9-12.2C282.4,528.8,281.5,527.7,280.5,527.6z"/>
		<path class="st5" d="M282.2,448.6c-6,4.9-11,11.2-16,17c-5.3,6.1-10.9,12.1-16.5,17.9c-9.3,9.6-23,24.9-37.9,18.5
			c-1.1-0.5-2,1.4-0.9,1.9c6.6,3.3,14.3,2.9,21,0.1c7.5-3.2,13.3-9.1,19-14.7c6.2-6.1,12.2-12.5,18.1-19.1
			c5.6-6.3,11.5-12.8,15.1-20.5C284.4,448.7,282.9,448,282.2,448.6z"/>
		<path class="st5" d="M397.9,530.1c-13.8,1.5-27.6,3.5-41.4,5.6c-0.9,0.1-2.2-0.7-2.3-1.7c-0.8-4-1.4-8-2.3-12
			c-0.3-1.2,0.4-2.2,1.6-2.3c11.6-1.2,23.1-3.1,34.7-4.6c1.4-0.2,2.9-0.4,4.3-0.5c0.5,1.3,1,2.7,1.5,4.1c-1.9,0.3-3.7,0.5-5.6,0.7
			c-10.8,1.3-21.8,2.2-32.6,3.7c0.7,2.6,1.5,5.2,2.2,7.8c13-1.8,26-2.7,39-3.4L397.9,530.1z"/>
	</g>
</g>
<g>
	<g>
		<g>
			<path class="st5" d="M112.4,167.8l-26.5,32.8L44.1,194L29,154.6l26.5-32.8l41.7,6.6L112.4,167.8z M31.6,155l14.2,36.9l39,6.2
				l24.9-30.7l-14.2-36.9l-39-6.2L31.6,155z"/>
		</g>
	</g>
	<g>
		<g>
			<path class="st5" d="M167.6,211.9l-26.5,32.8l-41.7-6.6l-15.2-39.4l26.5-32.8l41.7,6.6L167.6,211.9z M86.9,199.2l14.2,36.9
				l39,6.2l24.9-30.7l-14.2-36.9l-39-6.2L86.9,199.2z"/>
		</g>
	</g>
	<g>
		<g>
			<path class="st5" d="M178.7,142l-26.5,32.8l-41.7-6.6l-15.2-39.4L121.8,96l41.7,6.6L178.7,142z M97.9,129.3l14.2,36.9l39,6.2
				l24.9-30.7l-14.2-36.9l-39-6.2L97.9,129.3z"/>
		</g>
	</g>
	<g>
		<path class="st11" d="M92.3,201.2c0.5-3.4-1.8-6.6-5.2-7.1c-3.4-0.5-6.6,1.8-7.1,5.2c-0.5,3.4,1.8,6.6,5.2,7.1
			C88.6,206.9,91.8,204.6,92.3,201.2z"/>
	</g>
	<g>
		<path class="st5" d="M105.5,236.6c0.5-3.4-1.8-6.6-5.2-7.1c-3.4-0.5-6.6,1.8-7.1,5.2c-0.5,3.4,1.8,6.6,5.2,7.1
			C101.7,242.3,104.9,240,105.5,236.6z"/>
	</g>
	<g>
		<path class="st5" d="M116.5,166.6c0.5-3.4-1.8-6.6-5.2-7.1c-3.4-0.5-6.6,1.8-7.1,5.2c-0.5,3.4,1.8,6.6,5.2,7.1
			C112.8,172.4,116,170,116.5,166.6z"/>
	</g>
	<g>
		<path class="st5" d="M103.1,130.1c0.5-3.4-1.8-6.6-5.2-7.1c-3.4-0.5-6.6,1.8-7.1,5.2c-0.5,3.4,1.8,6.6,5.2,7.1
			C99.4,135.8,102.6,133.5,103.1,130.1z"/>
	</g>
	<g>
		<path class="st5" d="M51.4,193.6c0.5-3.4-1.8-6.6-5.2-7.1c-3.4-0.5-6.6,1.8-7.1,5.2c-0.5,3.4,1.8,6.6,5.2,7.1
			C47.7,199.3,50.8,197,51.4,193.6z"/>
	</g>
	<g>
		<path class="st5" d="M36.1,155.7c0.5-3.4-1.8-6.6-5.2-7.1c-3.4-0.5-6.6,1.8-7.1,5.2c-0.5,3.4,1.8,6.6,5.2,7.1
			C32.4,161.4,35.5,159.1,36.1,155.7z"/>
	</g>
	<g>
		<path class="st11" d="M61.2,122.5c0.5-3.4-1.8-6.6-5.2-7.1c-3.4-0.5-6.6,1.8-7.1,5.2c-0.5,3.4,1.8,6.6,5.2,7.1
			C57.5,128.2,60.7,125.9,61.2,122.5z"/>
	</g>
	<g>
		<path class="st5" d="M169.4,104.3c0.5-3.4-1.8-6.6-5.2-7.1c-3.4-0.5-6.6,1.8-7.1,5.2c-0.5,3.4,1.8,6.6,5.2,7.1
			C165.7,110,168.9,107.7,169.4,104.3z"/>
	</g>
	<g>
		<path class="st11" d="M180.7,142.3c0.5-3.4-1.8-6.6-5.2-7.1c-3.4-0.5-6.6,1.8-7.1,5.2c-0.5,3.4,1.8,6.6,5.2,7.1
			C177,148,180.2,145.7,180.7,142.3z"/>
	</g>
	<g>
		<path class="st11" d="M169.7,212.2c0.5-3.4-1.8-6.6-5.2-7.1c-3.4-0.5-6.6,1.8-7.1,5.2c-0.5,3.4,1.8,6.6,5.2,7.1
			C166,218,169.2,215.6,169.7,212.2z"/>
	</g>
	<g>
		<path class="st5" d="M147.2,244.9c0.5-3.4-1.8-6.6-5.2-7.1c-3.4-0.5-6.6,1.8-7.1,5.2c-0.5,3.4,1.8,6.6,5.2,7.1
			C143.5,250.6,146.7,248.3,147.2,244.9z"/>
	</g>
	<g>
		<path class="st5" d="M128.7,97.9c0.5-3.4-1.8-6.6-5.2-7.1c-3.4-0.5-6.6,1.8-7.1,5.2c-0.5,3.4,1.8,6.6,5.2,7.1
			C125,103.6,128.2,101.3,128.7,97.9z"/>
	</g>
	<g>
		<path class="st5" d="M158.4,174.2c0.5-3.4-1.8-6.6-5.2-7.1c-3.4-0.5-6.6,1.8-7.1,5.2c-0.5,3.4,1.8,6.6,5.2,7.1
			C154.7,179.9,157.9,177.6,158.4,174.2z"/>
	</g>
</g>
<g>
	<g>
		<g>
			<path class="st5" d="M548.3,468.6l-24,2.5l-14.2-19.5l9.8-22.1l24-2.5l14.2,19.5L548.3,468.6z M520.8,430.7l-9.2,20.7l13.3,18.3
				l22.5-2.4l9.2-20.7l-13.3-18.3L520.8,430.7z"/>
		</g>
	</g>
	<g>
		<g>
			<path class="st5" d="M552.8,508.8l-24,2.5l-14.2-19.5l9.8-22.1l24-2.5l14.2,19.5L552.8,508.8z M525.3,471l-9.2,20.7l13.3,18.3
				l22.5-2.4l9.2-20.7l-13.3-18.3L525.3,471z"/>
		</g>
	</g>
	<g>
		<g>
			<path class="st5" d="M585.6,485l-24,2.5L547.3,468l9.8-22.1l24-2.5l14.2,19.5L585.6,485z M558,447.1l-9.2,20.7l13.3,18.3
				l22.5-2.4l9.2-20.7l-13.3-18.3L558,447.1z"/>
		</g>
	</g>
	<g>
		<path class="st11" d="M526.6,474c1.6-1.2,1.9-3.4,0.8-5c-1.2-1.6-3.4-1.9-5-0.8c-1.6,1.2-1.9,3.4-0.8,5
			C522.8,474.8,525.1,475.2,526.6,474z"/>
	</g>
	<g>
		<path class="st5" d="M517.7,493.6c1.6-1.2,1.9-3.4,0.8-5c-1.2-1.6-3.4-1.9-5-0.8c-1.6,1.2-1.9,3.4-0.8,5
			C513.8,494.4,516.1,494.8,517.7,493.6z"/>
	</g>
	<g>
		<path class="st5" d="M550.4,469.8c1.6-1.2,1.9-3.4,0.8-5c-1.2-1.6-3.4-1.9-5-0.8c-1.6,1.2-1.9,3.4-0.8,5
			C546.6,470.6,548.8,471,550.4,469.8z"/>
	</g>
	<g>
		<path class="st5" d="M559.8,449.6c1.6-1.2,1.9-3.4,0.8-5c-1.2-1.6-3.4-1.9-5-0.8c-1.6,1.2-1.9,3.4-0.8,5
			C556,450.4,558.2,450.7,559.8,449.6z"/>
	</g>
	<g>
		<path class="st5" d="M513.2,454.3c1.6-1.2,1.9-3.4,0.8-5c-1.2-1.6-3.4-1.9-5-0.8c-1.6,1.2-1.9,3.4-0.8,5
			C509.3,455.1,511.6,455.5,513.2,454.3z"/>
	</g>
	<g>
		<path class="st5" d="M522.3,432.8c1.6-1.2,1.9-3.4,0.8-5c-1.2-1.6-3.4-1.9-5-0.8c-1.6,1.2-1.9,3.4-0.8,5
			C518.5,433.6,520.7,434,522.3,432.8z"/>
	</g>
	<g>
		<path class="st11" d="M545.9,429.5c1.6-1.2,1.9-3.4,0.8-5c-1.2-1.6-3.4-1.9-5-0.8c-1.6,1.2-1.9,3.4-0.8,5
			C542.1,430.4,544.4,430.7,545.9,429.5z"/>
	</g>
	<g>
		<path class="st5" d="M597.1,466c1.6-1.2,1.9-3.4,0.8-5c-1.2-1.6-3.4-1.9-5-0.8c-1.6,1.2-1.9,3.4-0.8,5
			C593.3,466.8,595.5,467.1,597.1,466z"/>
	</g>
	<g>
		<path class="st11" d="M586.3,486c1.6-1.2,1.9-3.4,0.8-5c-1.2-1.6-3.4-1.9-5-0.8c-1.6,1.2-1.9,3.4-0.8,5
			C582.5,486.8,584.7,487.1,586.3,486z"/>
	</g>
	<g>
		<path class="st11" d="M553.5,509.8c1.6-1.2,1.9-3.4,0.8-5c-1.2-1.6-3.4-1.9-5-0.8c-1.6,1.2-1.9,3.4-0.8,5
			C549.7,510.6,551.9,511,553.5,509.8z"/>
	</g>
	<g>
		<path class="st5" d="M531.2,513.9c1.6-1.2,1.9-3.4,0.8-5c-1.2-1.6-3.4-1.9-5-0.8c-1.6,1.2-1.9,3.4-0.8,5
			C527.4,514.7,529.6,515.1,531.2,513.9z"/>
	</g>
	<g>
		<path class="st5" d="M583.2,446.9c1.6-1.2,1.9-3.4,0.8-5c-1.2-1.6-3.4-1.9-5-0.8c-1.6,1.2-1.9,3.4-0.8,5
			C579.4,447.7,581.6,448.1,583.2,446.9z"/>
	</g>
	<g>
		<path class="st5" d="M564.3,489.8c1.6-1.2,1.9-3.4,0.8-5c-1.2-1.6-3.4-1.9-5-0.8c-1.6,1.2-1.9,3.4-0.8,5
			C560.5,490.6,562.7,491,564.3,489.8z"/>
	</g>
</g>
<path class="st12" d="M562.8,378.7l-5.8,5.8c-1,1-2.6,1-3.7,0l-5.8-5.8c-1-1-1-2.6,0-3.7l5.8-5.8c1-1,2.6-1,3.7,0l5.8,5.8
	C563.8,376.1,563.8,377.7,562.8,378.7"/>
<path class="st13" d="M563.3,101.3l-11.1,11.1c-1.9,1.9-5,1.9-7,0l-11.1-11.1c-1.9-1.9-1.9-5,0-7l11.1-11.1c1.9-1.9,5-1.9,7,0
	l11.1,11.1C565.3,96.2,565.3,99.3,563.3,101.3"/>
<path class="st13" d="M473.7,521.8l-11.1,11.1c-1.9,1.9-5,1.9-7,0l-11.1-11.1c-1.9-1.9-1.9-5,0-7l11.1-11.1c1.9-1.9,5-1.9,7,0
	l11.1,11.1C475.6,516.8,475.6,519.9,473.7,521.8"/>
<path class="st14" d="M93.3,335.2l-11.4,11.4c-2,2-5.2,2-7.1,0l-11.4-11.4c-2-2-2-5.2,0-7.1l11.4-11.4c2-2,5.2-2,7.1,0l11.4,11.4
	C95.2,330.1,95.2,333.3,93.3,335.2"/>
</svg>
