<?xml version="1.0" encoding="utf-8"?>
<!-- Generator: Adobe Illustrator 28.2.0, SVG Export Plug-In . SVG Version: 6.00 Build 0)  -->
<svg version="1.1" id="Layer_1" xmlns="http://www.w3.org/2000/svg" xmlns:xlink="http://www.w3.org/1999/xlink" x="0px" y="0px"
	 viewBox="0 0 959.6 832.5" style="enable-background:new 0 0 959.6 832.5;" xml:space="preserve">
<style type="text/css">
	.st0{fill:#1D7ACE;}
	.st1{fill:#A9E4EF;}
	.st2{opacity:0.7;fill:#A9E4EF;}
	.st3{fill-rule:evenodd;clip-rule:evenodd;fill:#FFFFFF;}
	.st4{fill-rule:evenodd;clip-rule:evenodd;fill:#A9E4EF;}
	.st5{fill-rule:evenodd;clip-rule:evenodd;fill:#00E7CA;}
	.st6{fill:#19355E;}
	.st7{fill:#FDBEA6;}
	.st8{fill:#FF8E77;}
	.st9{fill:#FFFFFF;}
	.st10{opacity:0.46;fill:#FF8E77;}
	.st11{opacity:0.54;fill:#74CAF3;}
	.st12{fill:#74CAF3;}
	.st13{fill:#152746;}
	.st14{fill:#EFF7FE;}
	.st15{fill:#FF8970;}
	.st16{opacity:0.32;fill:#EFF7FE;}
	.st17{fill:#00E7CA;}
</style>
<path class="st0" d="M338,183.4c70.7-3.3,141.9,6.2,209.2,27.9c49.5,15.9,101.5,43.4,118.4,92.5c9.8,28.6,7.1,62.8,27,85.5
	c20.1,22.9,54.9,24.3,81.9,38.6c28,14.8,47.3,45,49,76.6c1.6,31.7-14.4,63.7-40.8,81.3c-61.7,41.3-159.9,2.1-210.5,56.4
	C550,666,545,701,529,729.4c-20.8,36.8-59.8,61-101,70.4c-41.2,9.4-84.4,5.4-125.7-3.9C247.9,783.7,191,758.1,167,707.8
	c-14.9-31-15.6-68.6-36.5-96c-10.4-13.7-24.9-23.5-37.4-35.3C46,532.1,30.9,459.7,47.9,397.2c17-62.5,62.5-114.8,117.6-148.9
	C220.6,214.3,282.9,186,338,183.4z"/>
<g>
	<g>
		<g>
			<path class="st1" d="M158.5,329.5l-32.4,40.1l-50.9-8l-18.5-48.1l32.4-40.1l50.9,8L158.5,329.5z M60,314l17.3,45l47.6,7.5
				l30.3-37.5L138,284l-47.6-7.5L60,314z"/>
		</g>
	</g>
	<g>
		<g>
			<path class="st1" d="M226,383.4l-32.4,40.1l-50.9-8l-18.5-48.1l32.4-40.1l50.9,8L226,383.4z M127.4,367.9l17.3,45l47.6,7.5
				l30.3-37.5l-17.3-45l-47.6-7.5L127.4,367.9z"/>
		</g>
	</g>
	<g>
		<g>
			<path class="st1" d="M239.4,298.1L207,338.1l-50.9-8L137.6,282L170,242l50.9,8L239.4,298.1z M140.9,282.5l17.3,45l47.6,7.5
				l30.3-37.5l-17.3-45l-47.6-7.5L140.9,282.5z"/>
		</g>
	</g>
	<g>
		<path class="st2" d="M134,370.4c0.7-4.1-2.2-8-6.3-8.7c-4.1-0.7-8,2.2-8.7,6.3c-0.7,4.1,2.2,8,6.3,8.7
			C129.5,377.3,133.4,374.5,134,370.4z"/>
	</g>
	<g>
		<path class="st1" d="M150.1,413.5c0.7-4.1-2.2-8-6.3-8.7c-4.1-0.7-8,2.2-8.7,6.3c-0.7,4.1,2.2,8,6.3,8.7
			C145.6,420.5,149.4,417.6,150.1,413.5z"/>
	</g>
	<g>
		<path class="st1" d="M163.6,328.2c0.7-4.1-2.2-8-6.3-8.7c-4.1-0.7-8,2.2-8.7,6.3c-0.7,4.1,2.2,8,6.3,8.7
			C159,335.1,162.9,332.3,163.6,328.2z"/>
	</g>
	<g>
		<path class="st1" d="M147.3,283.6c0.7-4.1-2.2-8-6.3-8.7c-4.1-0.7-8,2.2-8.7,6.3c-0.7,4.1,2.2,8,6.3,8.7
			C142.7,290.5,146.6,287.7,147.3,283.6z"/>
	</g>
	<g>
		<path class="st1" d="M84.1,361.1c0.7-4.1-2.2-8-6.3-8.7c-4.1-0.7-8,2.2-8.7,6.3c-0.7,4.1,2.2,8,6.3,8.7
			C79.6,368,83.4,365.2,84.1,361.1z"/>
	</g>
	<g>
		<path class="st1" d="M65.4,314.9c0.7-4.1-2.2-8-6.3-8.7c-4.1-0.7-8,2.2-8.7,6.3c-0.7,4.1,2.2,8,6.3,8.7
			C60.9,321.8,64.8,319,65.4,314.9z"/>
	</g>
	<g>
		<path class="st2" d="M96.1,274.3c0.7-4.1-2.2-8-6.3-8.7c-4.1-0.7-8,2.2-8.7,6.3c-0.7,4.1,2.2,8,6.3,8.7
			C91.6,281.3,95.5,278.4,96.1,274.3z"/>
	</g>
	<g>
		<path class="st1" d="M228.1,252.1c0.7-4.1-2.2-8-6.3-8.7c-4.1-0.7-8,2.2-8.7,6.3c-0.7,4.1,2.2,8,6.3,8.7
			C223.6,259.1,227.5,256.2,228.1,252.1z"/>
	</g>
	<g>
		<path class="st2" d="M242,298.5c0.7-4.1-2.2-8-6.3-8.7c-4.1-0.7-8,2.2-8.7,6.3c-0.7,4.1,2.2,8,6.3,8.7
			C237.4,305.5,241.3,302.6,242,298.5z"/>
	</g>
	<g>
		<path class="st2" d="M228.5,383.8c0.7-4.1-2.2-8-6.3-8.7c-4.1-0.7-8,2.2-8.7,6.3c-0.7,4.1,2.2,8,6.3,8.7
			C224,390.8,227.9,388,228.5,383.8z"/>
	</g>
	<g>
		<path class="st1" d="M201.1,423.7c0.7-4.1-2.2-8-6.3-8.7c-4.1-0.7-8,2.2-8.7,6.3c-0.7,4.1,2.2,8,6.3,8.7
			C196.5,430.7,200.4,427.8,201.1,423.7z"/>
	</g>
	<g>
		<path class="st1" d="M178.4,244.3c0.7-4.1-2.2-8-6.3-8.7c-4.1-0.7-8,2.2-8.7,6.3c-0.7,4.1,2.2,8,6.3,8.7
			C173.9,251.2,177.8,248.4,178.4,244.3z"/>
	</g>
	<g>
		<path class="st1" d="M214.7,337.4c0.7-4.1-2.2-8-6.3-8.7c-4.1-0.7-8,2.2-8.7,6.3c-0.7,4.1,2.2,8,6.3,8.7
			C210.1,344.4,214,341.6,214.7,337.4z"/>
	</g>
</g>
<g>
	<g>
		<g>
			<path class="st1" d="M655.7,250.9l-24,2.5l-14.2-19.5l9.8-22.1l24-2.5l14.2,19.5L655.7,250.9z M628.2,213.1l-9.2,20.7l13.3,18.3
				l22.5-2.4L664,229l-13.3-18.3L628.2,213.1z"/>
		</g>
	</g>
	<g>
		<g>
			<path class="st1" d="M660.2,291.2l-24,2.5l-14.2-19.5l9.8-22.1l24-2.5l14.2,19.5L660.2,291.2z M632.7,253.3l-9.2,20.7l13.3,18.3
				l22.5-2.4l9.2-20.7L655.2,251L632.7,253.3z"/>
		</g>
	</g>
	<g>
		<g>
			<path class="st1" d="M693,267.3l-24,2.5l-14.2-19.5l9.8-22.1l24-2.5l14.2,19.5L693,267.3z M665.4,229.5l-9.2,20.7l13.3,18.3
				l22.5-2.4l9.2-20.7l-13.3-18.3L665.4,229.5z"/>
		</g>
	</g>
	<g>
		<path class="st2" d="M634,256.4c1.6-1.2,1.9-3.4,0.8-5c-1.2-1.6-3.4-1.9-5-0.8c-1.6,1.2-1.9,3.4-0.8,5
			C630.2,257.2,632.4,257.5,634,256.4z"/>
	</g>
	<g>
		<path class="st1" d="M625.1,276c1.6-1.2,1.9-3.4,0.8-5s-3.4-1.9-5-0.8c-1.6,1.2-1.9,3.4-0.8,5C621.2,276.8,623.5,277.2,625.1,276z
			"/>
	</g>
	<g>
		<path class="st1" d="M657.8,252.1c1.6-1.2,1.9-3.4,0.8-5c-1.2-1.6-3.4-1.9-5-0.8c-1.6,1.2-1.9,3.4-0.8,5
			C654,253,656.2,253.3,657.8,252.1z"/>
	</g>
	<g>
		<path class="st1" d="M667.2,231.9c1.6-1.2,1.9-3.4,0.8-5c-1.2-1.6-3.4-1.9-5-0.8c-1.6,1.2-1.9,3.4-0.8,5
			C663.4,232.7,665.6,233.1,667.2,231.9z"/>
	</g>
	<g>
		<path class="st1" d="M620.6,236.7c1.6-1.2,1.9-3.4,0.8-5c-1.2-1.6-3.4-1.9-5-0.8c-1.6,1.2-1.9,3.4-0.8,5
			C616.7,237.5,619,237.9,620.6,236.7z"/>
	</g>
	<g>
		<path class="st1" d="M629.7,215.2c1.6-1.2,1.9-3.4,0.8-5c-1.2-1.6-3.4-1.9-5-0.8c-1.6,1.2-1.9,3.4-0.8,5
			C625.9,216,628.1,216.3,629.7,215.2z"/>
	</g>
	<g>
		<path class="st2" d="M653.3,211.9c1.6-1.2,1.9-3.4,0.8-5c-1.2-1.6-3.4-1.9-5-0.8c-1.6,1.2-1.9,3.4-0.8,5
			C649.5,212.7,651.7,213.1,653.3,211.9z"/>
	</g>
	<g>
		<path class="st1" d="M704.5,248.3c1.6-1.2,1.9-3.4,0.8-5c-1.2-1.6-3.4-1.9-5-0.8c-1.6,1.2-1.9,3.4-0.8,5
			C700.7,249.1,702.9,249.5,704.5,248.3z"/>
	</g>
	<g>
		<path class="st2" d="M693.7,268.3c1.6-1.2,1.9-3.4,0.8-5c-1.2-1.6-3.4-1.9-5-0.8c-1.6,1.2-1.9,3.4-0.8,5
			C689.9,269.1,692.1,269.5,693.7,268.3z"/>
	</g>
	<g>
		<path class="st2" d="M660.9,292.2c1.6-1.2,1.9-3.4,0.8-5c-1.2-1.6-3.4-1.9-5-0.8c-1.6,1.2-1.9,3.4-0.8,5
			C657.1,293,659.3,293.3,660.9,292.2z"/>
	</g>
	<g>
		<path class="st1" d="M638.6,296.3c1.6-1.2,1.9-3.4,0.8-5c-1.2-1.6-3.4-1.9-5-0.8c-1.6,1.2-1.9,3.4-0.8,5
			C634.8,297.1,637,297.5,638.6,296.3z"/>
	</g>
	<g>
		<path class="st1" d="M690.6,229.2c1.6-1.2,1.9-3.4,0.8-5c-1.2-1.6-3.4-1.9-5-0.8c-1.6,1.2-1.9,3.4-0.8,5
			C686.8,230.1,689,230.4,690.6,229.2z"/>
	</g>
	<g>
		<path class="st1" d="M671.7,272.2c1.6-1.2,1.9-3.4,0.8-5c-1.2-1.6-3.4-1.9-5-0.8c-1.6,1.2-1.9,3.4-0.8,5
			C667.9,273,670.1,273.3,671.7,272.2z"/>
	</g>
</g>
<path class="st3" d="M365.3,351.9l-5.8,5.8c-1,1-2.6,1-3.7,0l-5.8-5.8c-1-1-1-2.6,0-3.7l5.8-5.8c1-1,2.6-1,3.7,0l5.8,5.8
	C366.4,349.2,366.4,350.9,365.3,351.9"/>
<path class="st4" d="M183.2,558.6l-11.1,11.1c-1.9,1.9-5,1.9-7,0L154,558.6c-1.9-1.9-1.9-5,0-7l11.1-11.1c1.9-1.9,5-1.9,7,0
	l11.1,11.1C185.1,553.6,185.1,556.7,183.2,558.6"/>
<path class="st5" d="M564.3,56.6L552.9,68c-2,2-5.2,2-7.1,0l-11.4-11.4c-2-2-2-5.2,0-7.1l11.4-11.4c2-2,5.2-2,7.1,0l11.4,11.4
	C566.3,51.5,566.3,54.7,564.3,56.6"/>
<path class="st5" d="M326.9,287.4l-11.4,11.4c-2,2-5.2,2-7.1,0l-11.4-11.4c-2-2-2-5.2,0-7.1l11.4-11.4c2-2,5.2-2,7.1,0l11.4,11.4
	C328.9,282.2,328.9,285.4,326.9,287.4"/>
<g>
	<g>
		<g>
			<g>
				<path class="st6" d="M605.2,154.3c-6-19.3-25.7-30-44.5-24.6c-5.2-10-16.7-15.1-27.5-11.5c-6,2-10.7,6.2-13.4,11.5
					c-1.8-0.2-3.7-0.3-5.5-0.4l-52.8-1.2c-33-0.7-60.4,24.6-61.1,56.5l-0.6,25.1c-5.2,3.6-8.6,9.6-8.8,16.5
					c-0.2,11.3,8.5,20.7,19.5,21c6.7,0.2,12.7-3.1,16.4-8.2l3.5,0.1c0.7,0,1.4,0.1,2.1,0.1c17.2-13.4,29.4-41.6,29.4-41.6
					c2.2,8.6,14.2,13.4,29.8,15.9c8.5,8.7,22,10.5,32.5,3.6c0.6-0.4,1.2-0.8,1.8-1.3c1.3,0,2.5,0,3.8,0c4.2,13,16,22.5,30.1,22.8
					c17.9,0.4,32.8-14.2,33.2-32.6c0.1-3.5-0.4-6.9-1.3-10.1C604.2,186.8,610.1,170.2,605.2,154.3z"/>
				<g>
					<g>
						<g>
							<path class="st7" d="M459.2,186.5c0,0-0.2,26.3-16.9,39.6c-0.7-0.1-1.3-0.1-2-0.1l-11-0.2l-7.5-0.2l-9.7-0.2
								c-0.7,0-1.4,0-2,0.1c-11.7,0.8-21,10.3-21.3,22.2l-0.2,6.9c-0.3,12.6,9.7,23,22.3,23.3l9.5,0.2l-2.9,128.3
								c-0.5,22.1,17,40.4,39.1,40.9l23.3,0.5c22.1,0.5,40.4-17,40.9-39.1l0.8-35c26.1-8.3,45.3-32.5,46-61.4l0.2-8c0,0,0,0,0,0
								l1.5-67.8l0.8-35.2C538,203.9,464.5,207.6,459.2,186.5z"/>
						</g>
						<g>
							<path class="st6" d="M508.7,270.6c-0.1,2.4-2.1,4.2-4.5,4.1c-2.4-0.1-4.2-2.1-4.1-4.5c0.1-2.4,2.1-4.2,4.5-4.1
								C507,266.2,508.8,268.2,508.7,270.6z"/>
							<path class="st6" d="M560.3,276.7c-0.1,2.4-2.1,4.2-4.5,4.1s-4.2-2.1-4.1-4.5c0.1-2.4,2.1-4.2,4.5-4.1
								C558.5,272.4,560.4,274.3,560.3,276.7z"/>
							<path class="st8" d="M520.8,339.6c-0.3,0-0.5-0.1-0.7-0.3c-0.4-0.4-0.4-1.1,0-1.5c0.1-0.1,6.3-6.3,14.1-2.5
								c0.5,0.3,0.7,0.9,0.5,1.4c-0.3,0.5-0.9,0.7-1.4,0.5c-6.4-3.1-11.6,2.1-11.7,2.1C521.3,339.5,521.1,339.6,520.8,339.6z"/>
							<g>
								<g>
									<g>
										<path class="st6" d="M516.2,237.8c-1.9,1.4-4.7,1.7-7.3,2.2c-2.7,0.4-5.4,1-7.7,1.5c-2.3,0.5-5,1.2-7.6,2
											c-2.6,0.7-5.3,1.6-7.5,1.1c-2.2-0.4-3.5-2.6-1.9-6.1c1.6-3.4,6.6-7.9,14.3-9.6c7.7-1.7,14.1,0.1,16.9,2.5
											C518.3,233.9,518,236.5,516.2,237.8z"/>
									</g>
								</g>
							</g>
							<path class="st6" d="M406.3,260.3c-0.4,0-0.8-0.2-1-0.6c-0.2-0.5,0-1.1,0.5-1.4l7.9-3.4l-5.8-13.1c-0.2-0.5,0-1.1,0.5-1.4
								c0.5-0.2,1.1,0,1.4,0.5l6.7,15.1l-9.8,4.2C406.6,260.3,406.4,260.3,406.3,260.3z"/>
							<path class="st6" d="M525.6,293.2c-0.6,0-1.1,0-1.7-0.1c-2.5-0.2-5.3-0.8-8.2-1.7c-0.6-0.2-0.9-0.7-0.7-1.3
								c0.2-0.6,0.7-0.9,1.3-0.7c2.8,0.8,5.4,1.4,7.8,1.6c4.3,0.4,8.2-0.9,10.5-3.6c1.6-1.9,2.2-4.2,1.6-6.5l-6.9-29.1
								c-0.1-0.6,0.2-1.1,0.8-1.3c0.6-0.1,1.1,0.2,1.3,0.8l6.9,29.1c0.7,3,0,6-2.1,8.3C533.8,291.6,529.9,293.2,525.6,293.2z"/>
							<path class="st6" d="M510.4,311c-2.7,0-5.3-0.5-7.7-1.4c-9-3.4-12.7-11.8-12.8-12.1c-0.2-0.5,0-1.1,0.5-1.4
								c0.5-0.2,1.1,0,1.4,0.5c0,0.1,3.5,7.9,11.7,11c5.9,2.2,12.8,1.4,20.5-2.3c0.5-0.2,1.1,0,1.4,0.5c0.2,0.5,0,1.1-0.5,1.4
								C519.8,309.7,514.9,311,510.4,311z"/>
							<path class="st9" d="M504.3,287.8C504.3,287.8,504.3,287.8,504.3,287.8c-13,0-23.5-10.6-23.5-23.5l1,0l-1,0
								c0-6.3,2.5-12.2,6.9-16.6c4.4-4.4,10.3-6.9,16.6-6.9c0,0,0,0,0,0c6.3,0,12.2,2.5,16.6,6.9c4.4,4.4,6.9,10.3,6.9,16.6
								c0,6.3-2.5,12.2-6.9,16.6C516.5,285.4,510.6,287.8,504.3,287.8z M504.3,242.9c-5.7,0-11.1,2.2-15.1,6.3
								c-4,4-6.3,9.4-6.3,15.1c0,11.8,9.6,21.4,21.4,21.4c0,0,0,0,0,0c5.7,0,11.1-2.2,15.1-6.3c4-4,6.3-9.4,6.3-15.1
								c0-5.7-2.2-11.1-6.3-15.1C515.4,245.1,510.1,242.9,504.3,242.9C504.3,242.9,504.3,242.9,504.3,242.9z"/>
							<path class="st9" d="M562,295.2C562,295.2,562,295.2,562,295.2c-6.3,0-12.2-2.5-16.6-6.9c-4.4-4.4-6.9-10.3-6.9-16.6
								c0-6.3,2.5-12.2,6.9-16.6c4.4-4.4,10.3-6.9,16.6-6.9c0,0,0,0,0,0c13,0,23.5,10.6,23.5,23.5c0,6.3-2.5,12.2-6.9,16.6
								C574.2,292.7,568.3,295.2,562,295.2z M562,250.2c-5.7,0-11.1,2.2-15.1,6.3c-4,4-6.3,9.4-6.3,15.1c0,5.7,2.2,11.1,6.3,15.1
								c4,4,9.4,6.3,15.1,6.3c0,0,0,0,0,0c5.7,0,11.1-2.2,15.1-6.3c4-4,6.3-9.4,6.3-15.1C583.4,259.9,573.8,250.3,562,250.2
								C562,250.2,562,250.2,562,250.2z"/>
							<g>
								<path class="st6" d="M574.2,244c-1.9-0.8-4.4-0.6-6.8-0.6c-2.4,0.1-4.8,0.2-6.9,0.1c-2.1,0-4.5-0.1-6.9-0.3
									c-2.4-0.1-4.9-0.4-6.8,0.4c-1.8,0.7-2.6,2.9-0.5,5.7c2,2.7,7.2,5.6,14.2,5.7c7,0.1,12.2-2.7,14.2-5.3
									C576.8,247,576.1,244.8,574.2,244z"/>
							</g>
							
								<rect x="532.4" y="257.8" transform="matrix(9.786872e-02 -0.9952 0.9952 9.786872e-02 218.135 769.3585)" class="st9" width="2.1" height="13.1"/>
							<path class="st9" d="M485.6,253.3c-0.2,0-0.3,0-0.5-0.1l-53.6-28.4c-0.5-0.3-0.7-0.9-0.4-1.4c0.3-0.5,0.9-0.7,1.4-0.4
								l53.6,28.4c0.5,0.3,0.7,0.9,0.4,1.4C486.4,253.1,486,253.3,485.6,253.3z"/>
						</g>
						<path class="st10" d="M502.4,366.6l-12.5-0.3c-35.2-0.8-63.2-30-62.4-65.2l0.5-22.8l-7.5-0.2l-0.7,30.8
							c-0.7,29.7,18.3,55.2,45.1,64.2c0,0.1,0,0.3,0,0.4c0,11.2,12.6,20.3,28,20.3c15.3,0,27.7-8.9,28-20
							c26.4-8.2,45.9-32.5,46.5-61.6l0.2-8C566.9,339.4,537.7,367.3,502.4,366.6z"/>
					</g>
				</g>
			</g>
			<path class="st9" d="M521.9,383.1l-31.5,43.1l-70.5-43.1h-52.7c-37.2,0-68,22.3-74.2,51.7l-49.8,167.4l0.2,0l-29.1,98
				c-7.5,32.8,15.3,66.1,51.1,74.4l0,0c8.6,2,14.1,5.1,25.3,5.3l0,0l338.2-0.7l6.1-297.1C635,427.5,587.8,383.1,521.9,383.1z"/>
			<g>
				<path class="st11" d="M453.5,639c-0.4,0-0.7-0.2-0.9-0.6l-91.2-176.3c-0.6-1-0.8-2.3-0.4-3.5c0.3-1.2,1.1-2.2,2.2-2.8l18.8-10.5
					l-28-17c-1.1-0.6-1.7-1.7-1.8-3c-0.1-1.2,0.4-2.4,1.3-3.2l27.4-23.2c0.4-0.4,1.1-0.3,1.5,0.1c0.4,0.4,0.3,1.1-0.1,1.5
					l-27.4,23.2c-0.4,0.4-0.7,0.9-0.6,1.5c0,0.6,0.3,1.1,0.8,1.4l31.1,18.9l-21.9,12.3c-0.6,0.3-1,0.9-1.2,1.5
					c-0.2,0.7-0.1,1.3,0.3,1.9l91.2,176.3c0.3,0.5,0.1,1.1-0.4,1.4C453.9,638.9,453.7,639,453.5,639z"/>
				<path class="st11" d="M509.5,641.8c-0.1,0-0.3,0-0.4-0.1c-0.5-0.2-0.8-0.8-0.5-1.4l80.2-181.5c0.3-0.7,0.4-1.3,0.2-2
					c-0.2-0.6-0.7-1.2-1.3-1.5l-22.6-10.9l29.8-20.8c0.5-0.3,0.7-0.8,0.7-1.4c0-0.6-0.2-1.1-0.7-1.4l-28.7-21.5
					c-0.5-0.3-0.6-1-0.2-1.5c0.3-0.5,1-0.6,1.5-0.2l28.7,21.5c1,0.7,1.6,1.9,1.5,3.1c0,1.2-0.6,2.4-1.6,3.1l-26.9,18.7l19.4,9.3
					c1.1,0.5,2,1.5,2.4,2.7c0.4,1.2,0.3,2.4-0.3,3.5l-80.2,181.5C510.3,641.6,509.9,641.8,509.5,641.8z"/>
				<g>
					<path class="st12" d="M621.8,567.7h-57.4c-1.3,0-2.4-1.1-2.4-2.4v-10.6c0-1.3,1.1-2.4,2.4-2.4h57.4c1.3,0,2.4,1.1,2.4,2.4v10.6
						C624.3,566.6,623.2,567.7,621.8,567.7z M564.5,554.2c-0.2,0-0.4,0.2-0.4,0.4v10.6c0,0.2,0.2,0.4,0.4,0.4h57.4
						c0.2,0,0.4-0.2,0.4-0.4v-10.6c0-0.2-0.2-0.4-0.4-0.4H564.5z"/>
				</g>
				<g>
					<polygon class="st1" points="419.9,383.1 384.1,383.1 487.7,696 558.6,386 521.6,382.6 490.4,426.1 					"/>
					<g>
						<g>
							<polygon class="st6" points="463.9,461.6 448.3,577.7 487.9,700.6 514.9,577.7 498.2,462.8 							"/>
							<path class="st13" d="M462.7,422.1l-7.8,33.7c-0.5,2.1,0.1,4.4,1.5,6l21.4,23.8c2.8,3.1,7.7,2.9,10.3-0.4l19.2-25.3
								c1.1-1.5,1.6-3.4,1.2-5.3l-6.1-31.6c-0.6-3.1-3.3-5.3-6.4-5.4l-26.7-0.5C466.2,416.8,463.4,419,462.7,422.1z"/>
							<path class="st6" d="M462.7,415.5l-7.8,33.7c-0.5,2.1,0.1,4.4,1.5,6l21.4,23.8c2.8,3.1,7.7,2.9,10.3-0.4l19.2-25.3
								c1.1-1.5,1.6-3.4,1.2-5.3l-6.1-31.6c-0.6-3.1-3.3-5.3-6.4-5.4l-26.7-0.5C466.2,410.2,463.4,412.4,462.7,415.5z"/>
						</g>
						<path class="st9" d="M437.3,458.9c-0.2,0-0.4,0-0.6-0.1c-0.8-0.2-1.5-0.7-1.9-1.4l-35.7-60c-0.3-0.5-0.1-1.1,0.4-1.4
							c0.5-0.3,1.1-0.1,1.4,0.4l35.7,60c0.1,0.2,0.3,0.3,0.5,0.4c0.2,0,0.5,0,0.6-0.1l16-11.3c0.5-0.3,1.1-0.2,1.5,0.2
							c0.3,0.5,0.2,1.1-0.2,1.5l-16,11.3C438.5,458.7,437.9,458.9,437.3,458.9z"/>
						<path class="st9" d="M524.5,453.7c-0.7,0-1.3-0.2-1.8-0.7l-15.3-13.7c-0.4-0.4-0.5-1-0.1-1.5c0.4-0.4,1-0.5,1.5-0.1l15.3,13.7
							c0.3,0.2,0.5,0.2,0.6,0.2c0.1,0,0.4-0.1,0.5-0.4l19-53.4c0.2-0.5,0.8-0.8,1.3-0.6c0.5,0.2,0.8,0.8,0.6,1.3l-19,53.4
							c-0.3,0.9-1,1.5-1.9,1.8C525,453.6,524.7,453.7,524.5,453.7z"/>
					</g>
				</g>
			</g>
			<g>
				<path class="st14" d="M728.1,628.4L653.3,369L587.6,381l14,217.6c4.1,27,39.8,55.1,66.4,49.4l35.1-7.5"/>
				<path class="st9" d="M733.2,626.2l-74.8-259.4l-68.8,12l26.8,227.9c4.1,27,30.1,44.9,56.8,39.2l35.1-7.5"/>
				<g>
					<path class="st10" d="M577.4,301c-14.5-1.6-29.1,1.8-41.3,9.8c-1.2,0.8-2,1.4-2.2,1.7c-4,6.1,1.2,16.6,8.5,16.1
						c2.1-0.2,19.7-10.6,19.7-10.6s-11.6,3.8-17.3,12.3c-4.1,6.1-3.6,14.2,0.9,20l1.6,2.2l0.5-0.9c3.2-5.8,8.4-10.3,14.6-12.6
						l7.1-2.7c0,0-24.5,9.3-21.9,21.9c2.7,12.6,8,10.7,8,10.7s8.6-12.5,21.3-11.9c0,0-33.8,10.3-23.1,27.9
						c8.5,14,32.9,11.3,42.4,9.5c2.2-0.4,3.8-2.4,3.6-4.6l0,0c-0.2-2.5-1.7-4.7-3.9-5.8l-11.9-5.9l34.5,7.4
						c11.7,2.5,23.7-2.4,30.2-12.4l6.1-9.3l-9.2-23c-8.3-20.8-27.4-35.4-49.7-37.8L577.4,301z"/>
					<path class="st7" d="M581.1,304c-14.5-1.6-29.1,1.8-41.3,9.8c-1.2,0.8-2,1.4-2.2,1.7c-4,6.1,1.2,16.6,8.5,16.1
						c2.1-0.2,19.7-10.6,19.7-10.6s-11.6,3.8-17.3,12.3c-4.1,6.1-3.6,14.2,0.9,20l1.6,2.2l0.5-0.9c3.2-5.8,8.4-10.3,14.6-12.6
						l7.1-2.7c0,0-24.5,9.3-21.9,21.9c2.7,12.6,8,10.7,8,10.7s8.6-12.5,21.3-11.9c0,0-33.8,10.3-23.1,27.9
						c8.5,14,32.9,11.3,42.4,9.5c2.2-0.4,3.8-2.4,3.6-4.6l0,0c-0.2-2.5-1.7-4.7-3.9-5.8l-11.9-5.9l34.5,7.4
						c11.7,2.5,23.7-2.4,30.2-12.4l6.1-9.3l-9.2-23c-8.3-20.8-27.4-35.4-49.7-37.8L581.1,304z"/>
					<path class="st15" d="M587.4,360.9c-2.5-0.5-5.2-0.4-7.8,0c-2.6,0.4-5.1,1.2-7.5,2.4c-1.2,0.6-2.4,1.2-3.4,2
						c-0.5,0.4-1.1,0.7-1.6,1.1l-1.6,1.2c-0.5,0.4-1,0.8-1.5,1.3l-1.4,1.4c-0.9,1-1.8,2-2.7,3l-0.1,0.1c-0.4,0.5-1.2,0.5-1.7,0.1
						c-0.5-0.4-0.5-1.2-0.1-1.7c0,0,0,0,0,0c1-1,1.9-2.1,2.9-3.1l1.6-1.4c0.5-0.5,1-1,1.6-1.4l1.7-1.3c0.6-0.4,1.2-0.8,1.8-1.2
						c1.2-0.8,2.5-1.4,3.7-2c2.6-1.2,5.3-2,8.1-2.4c2.8-0.4,5.6-0.5,8.6,0.2c0.5,0.1,0.8,0.6,0.7,1.1
						C588.5,360.7,588,361,587.4,360.9L587.4,360.9z"/>
					<path class="st15" d="M576.2,339.4c-2.6,0.1-5.2,0.8-7.7,1.9c-2.4,1-4.7,2.4-6.8,4.1c-1,0.9-2,1.7-2.9,2.7
						c-0.4,0.5-0.9,1-1.3,1.5l-1.2,1.6c-0.4,0.5-0.8,1.1-1.1,1.6l-1.1,1.7c-0.7,1.2-1.3,2.4-1.9,3.5l-0.1,0.1
						c-0.3,0.6-1.1,0.8-1.6,0.5c-0.6-0.3-0.8-1.1-0.5-1.6c0,0,0,0,0,0c0.7-1.2,1.4-2.5,2.1-3.7l1.2-1.7c0.4-0.6,0.8-1.2,1.3-1.7
						l1.3-1.6c0.5-0.5,1-1,1.5-1.5c1-1,2.1-1.9,3.2-2.8c2.3-1.7,4.7-3.1,7.4-4.1c2.6-1,5.4-1.7,8.3-1.7c0.4,0,0.7,0.3,0.7,0.7
						C577,339.1,576.7,339.4,576.2,339.4L576.2,339.4z"/>
					<path class="st15" d="M572.3,320.9c-2.6-0.1-5.3,0.4-7.8,1.3c-2.5,0.8-4.9,2.1-7.1,3.6c-1,0.8-2.2,1.6-3.1,2.5
						c-0.5,0.5-1,0.9-1.4,1.4l-1.3,1.5c-0.5,0.5-0.9,1-1.3,1.5l-1.2,1.6c-0.7,1.1-1.4,2.3-2.1,3.4l-0.1,0.1
						c-0.4,0.6-1.1,0.7-1.7,0.4c-0.6-0.4-0.7-1.1-0.4-1.7c0,0,0,0,0,0c0.8-1.2,1.5-2.4,2.4-3.5l1.3-1.6c0.4-0.6,0.9-1.1,1.4-1.6
						l1.5-1.5c0.5-0.5,1.1-0.9,1.6-1.4c1-1,2.2-1.7,3.4-2.6c2.4-1.5,5-2.7,7.7-3.6c2.7-0.8,5.5-1.3,8.4-1.1c0.4,0,0.7,0.4,0.7,0.8
						C573.1,320.7,572.7,321,572.3,320.9L572.3,320.9z"/>
				</g>
			</g>
			<g>
				<g>
					<path class="st7" d="M470.7,691.6l36.8-6.5c6.5-1.2,13.2,1,17.8,5.8l27.2,28.3c5.5,5.7,5.1,14.9-0.9,20.1l-6.2,5.4l-11.6-23.2
						l16.5,33.1c1.8,3.7-0.5,8.1-4.6,8.7l0,0c-3.7,0.5-7.3-0.9-9.7-3.7l-24.8-29.8l23.6,37.4c1.7,2.7-0.7,6.1-3.8,5.4l0,0
						c-11.8-2.4-22.5-8.8-30.2-18.1l-6.7-8.1c0,0-20,23.3-53.5,17.4C440.7,763.8,402.9,718.3,470.7,691.6z"/>
					<g>
						<path class="st8" d="M547.2,743.2c0.3-0.5,0.4-1.1,0.1-1.7l-13-23.6c-0.4-0.8-1.4-1.1-2.2-0.6c-0.8,0.4-1.1,1.4-0.6,2.2
							l13,23.6c0.4,0.8,1.4,1.1,2.2,0.6C546.9,743.5,547.1,743.4,547.2,743.2z"/>
						<path class="st8" d="M517.7,730.4c0.4-0.6,0.4-1.3,0-1.9c-0.5-0.7-1.5-0.9-2.2-0.3c0,0-2.6,2-5.5,4.2
							c-0.7,0.6-0.8,1.6-0.3,2.2c0.5,0.7,1.6,0.8,2.2,0.3c2.9-2.2,5.4-4.2,5.4-4.2C517.4,730.7,517.6,730.5,517.7,730.4z"/>
						<path class="st8" d="M535.9,716.8c0.4-0.6,0.4-1.3,0-1.9c-0.5-0.7-1.5-0.9-2.2-0.3c0,0-2.6,2-5.5,4.2
							c-0.7,0.5-0.8,1.6-0.3,2.2c0.5,0.7,1.6,0.8,2.2,0.3c2.8-2.2,5.4-4.2,5.4-4.2C535.7,717.1,535.8,716.9,535.9,716.8z"/>
						<path class="st8" d="M497.3,748.1c0.4-0.6,0.4-1.4-0.1-2c-1.6-1.9-3-5-3-5c-0.3-0.8-1.3-1.2-2.1-0.8c-0.8,0.3-1.2,1.3-0.8,2.1
							c0.1,0.1,1.5,3.5,3.5,5.8c0.6,0.7,1.6,0.7,2.3,0.2C497.1,748.3,497.2,748.2,497.3,748.1z"/>
					</g>
				</g>
				<g>
					<g>
						<polyline class="st16" points="354.4,652.7 304.4,668.4 349,672.3 						"/>
					</g>
					<polygon class="st14" points="383.9,545.4 369.7,658.5 487.5,688.6 348.4,672 					"/>
				</g>
			</g>
		</g>
		<g>
			<g>
				<path class="st13" d="M853,558.6H630.7c-7.9,0-14.9,5.3-17,12.9l-51.2,184.4h-6.3H413.5c-2.7,0-4.3,3-2.8,5.2l11.8,17.5h133.7
					h254L870,581.4C873.4,570,864.9,558.6,853,558.6z"/>
				<path class="st6" d="M829.2,779.1h-254l57.5-207.2c2.1-7.6,9.1-12.9,17-12.9h222.3c11.9,0,20.5,11.4,17,22.8L829.2,779.1z"/>
			</g>
		</g>
	</g>
	<g>
		<g>
			<path class="st14" d="M680.8,590.3c-7.1,0-12.8-5.7-12.8-12.8c0-7.1,5.7-12.8,12.8-12.8c7.1,0,12.8,5.7,12.8,12.8
				C693.6,584.5,687.8,590.3,680.8,590.3z M680.8,566.8c-5.9,0-10.7,4.8-10.7,10.7s4.8,10.7,10.7,10.7c5.9,0,10.7-4.8,10.7-10.7
				S686.7,566.8,680.8,566.8z"/>
			<path class="st17" d="M679.9,578.5c-0.1,0-0.1,0-0.2,0c-0.6-0.1-0.9-0.6-0.8-1.2l44.2-246.2l192.7-1.3c0,0,0,0,0,0
				c0.6,0,1,0.5,1,1c0,0.6-0.5,1-1,1l-191,1.3L681,577.7C680.9,578.2,680.4,578.5,679.9,578.5z"/>
		</g>
		<g>
			<g>
				<path class="st17" d="M896.5,357.3h-63.6c-0.6,0-1-0.5-1-1c0-0.6,0.5-1,1-1h63.6c0.6,0,1,0.5,1,1
					C897.5,356.8,897,357.3,896.5,357.3z"/>
				<path class="st17" d="M812.4,357.3h-63.6c-0.6,0-1-0.5-1-1c0-0.6,0.5-1,1-1h63.6c0.6,0,1,0.5,1,1
					C813.5,356.8,813,357.3,812.4,357.3z"/>
			</g>
			<g>
				<path class="st17" d="M896.5,398.2h-63.6c-0.6,0-1-0.5-1-1c0-0.6,0.5-1,1-1h63.6c0.6,0,1,0.5,1,1
					C897.5,397.7,897,398.2,896.5,398.2z"/>
				<path class="st17" d="M812.4,398.2h-63.6c-0.6,0-1-0.5-1-1c0-0.6,0.5-1,1-1h63.6c0.6,0,1,0.5,1,1
					C813.5,397.7,813,398.2,812.4,398.2z"/>
			</g>
			<g>
				<path class="st17" d="M896.5,378.6H795.6c-0.6,0-1-0.5-1-1c0-0.6,0.5-1,1-1h100.9c0.6,0,1,0.5,1,1
					C897.5,378.1,897,378.6,896.5,378.6z"/>
				<path class="st17" d="M784,378.6h-35.1c-0.6,0-1-0.5-1-1c0-0.6,0.5-1,1-1H784c0.6,0,1,0.5,1,1C785,378.1,784.5,378.6,784,378.6z
					"/>
			</g>
		</g>
		<g>
			<g>
				<path class="st17" d="M896.5,417.7h-63.6c-0.6,0-1-0.5-1-1c0-0.6,0.5-1,1-1h63.6c0.6,0,1,0.5,1,1
					C897.5,417.2,897,417.7,896.5,417.7z"/>
				<path class="st17" d="M812.4,417.7h-63.6c-0.6,0-1-0.5-1-1c0-0.6,0.5-1,1-1h63.6c0.6,0,1,0.5,1,1
					C813.5,417.2,813,417.7,812.4,417.7z"/>
			</g>
			<g>
				<path class="st17" d="M896.5,458.5h-63.6c-0.6,0-1-0.5-1-1c0-0.6,0.5-1,1-1h63.6c0.6,0,1,0.5,1,1
					C897.5,458.1,897,458.5,896.5,458.5z"/>
				<path class="st17" d="M812.4,458.5h-63.6c-0.6,0-1-0.5-1-1c0-0.6,0.5-1,1-1h63.6c0.6,0,1,0.5,1,1
					C813.5,458.1,813,458.5,812.4,458.5z"/>
			</g>
			<g>
				<path class="st17" d="M896.5,439H795.6c-0.6,0-1-0.5-1-1s0.5-1,1-1h100.9c0.6,0,1,0.5,1,1S897,439,896.5,439z"/>
				<path class="st17" d="M784,439h-35.1c-0.6,0-1-0.5-1-1s0.5-1,1-1H784c0.6,0,1,0.5,1,1S784.5,439,784,439z"/>
				<path class="st17" d="M895.8,479.8h-35.1c-0.6,0-1-0.5-1-1c0-0.6,0.5-1,1-1h35.1c0.6,0,1,0.5,1,1
					C896.9,479.4,896.4,479.8,895.8,479.8z"/>
			</g>
		</g>
	</g>
</g>
</svg>
