<?xml version="1.0" encoding="utf-8"?>
<!-- Generator: Adobe Illustrator 28.2.0, SVG Export Plug-In . SVG Version: 6.00 Build 0)  -->
<svg version="1.1" id="Layer_1" xmlns="http://www.w3.org/2000/svg" xmlns:xlink="http://www.w3.org/1999/xlink" x="0px" y="0px"
	 viewBox="0 0 984.6 576.2" style="enable-background:new 0 0 984.6 576.2;" xml:space="preserve">
<style type="text/css">
	.st0{fill:#1D7ACE;}
	.st1{fill:#FF9600;}
	.st2{fill:#FF6F6F;}
	.st3{fill:#FFFFFF;}
	.st4{fill:#00E7CA;}
	.st5{fill:#19355E;}
	.st6{fill:#FFB79A;}
	.st7{fill:#C0DBF9;}
	.st8{fill:#FB9B7F;}
	.st9{fill-rule:evenodd;clip-rule:evenodd;fill:#FFFFFF;}
	.st10{fill-rule:evenodd;clip-rule:evenodd;fill:#A9E4EF;}
	.st11{fill-rule:evenodd;clip-rule:evenodd;fill:#00E7CA;}
</style>
<g>
	<g>
		<path class="st0" d="M506.8,489c-46.6,19.8-96.7,31.1-147.3,33.2c-37.2,1.6-78.9-3.9-102.4-32.7c-13.7-16.7-20.3-40.4-39.3-50.6
			c-19.2-10.4-42.9-2.7-64.5-5.6c-22.5-3-42.9-18.4-51.9-39.3c-9-20.8-6.1-46.3,7.2-64.7c31.2-43,106.7-41,127.3-90
			c9-21.5,3.7-46.3,7.4-69.3c4.8-29.8,25-55.8,50.3-72.3c25.3-16.5,55.3-24.6,85.3-28.6c39.5-5.3,84-2.2,112.7,25.5
			c17.7,17.1,27.5,42.2,48.3,55.4c10.4,6.6,22.6,9.6,33.9,14.4c42.6,18.1,70.7,63,74.8,109.1c4.1,46.1-13.5,92.5-42,129.1
			C578,439.2,543.1,473.6,506.8,489z"/>
		<path class="st0" d="M780.4,512.2c-56.7,20.4-118.3,27-178.1,19c-37.1-5-73.5-15.5-110.9-16.4c-31.1-0.8-63.9,4.8-92.2-8.1
			c-33.3-15.3-51-52.6-57-88.7c-5.6-33.9-2.8-70.2,14.1-100c35.2-62.2,119.3-80.2,161.9-137.5c12.6-16.9,21-36.5,32.6-54.1
			c39.4-59.3,118.3-89.2,187-70.9c31,8.3,61.3,27.3,73.2,57.2c15.3,38.3-3,83.5,10.6,122.4c9.5,27.2,32.9,46.8,48.3,71.1
			c24.7,38.9,27.3,90.9,6.6,132.1C855.9,479.4,811,501.2,780.4,512.2z"/>
	</g>
	<g>
		<g>
			<path class="st1" d="M192.5,209.2c-1.4-2.3-3.6-4.2-6.1-5.2c-2.6-1.1-5.9-1.2-7.8,0.9c-0.7,0.9-1.1,2-1.3,3.1
				c-0.8,3.9,0.4,8.3,3.3,11c3,2.7,7.8,3.3,11.1,1.1c1.6-1,2.4-3.2,2.5-5.1C194.2,212.9,193.5,210.9,192.5,209.2z M224.6,220.5
				c-1.8-2.7-5.8-3.4-8.7-2c-3,1.4-4.9,4.5-5.5,7.7c-0.4,2-0.3,4.1,0.4,6c0.8,1.9,2.3,3.5,4.2,4.1c2.9,0.3,6.6-1.2,8.6-4
				c1-1.4,1.5-3,1.9-4.7C225.9,225.1,225.9,222.5,224.6,220.5z M192.7,262.1c-2.4-0.5-5-0.2-7.3,0.8c-1.8,0.8-3.5,2.1-4.1,4
				c-0.6,1.8-0.1,3.8,1,5.2c1.1,1.5,2.8,2.5,4.6,3c3.9,1.2,8.5,0.1,11.5-2.7c1.3-1.2,1.5-4.2,0.4-6.3
				C197.5,263.9,195.1,262.5,192.7,262.1z M254.5,265.4c0.1-2.6-1.3-5.3-3.6-6.6c-2.5-1.4-5.8-1.1-8.2,0.7c-2.3,1.7-3.6,4.6-3.7,7.5
				c0,1.6,0.3,3.2,1.2,4.5c0.9,1.3,2.3,2.3,3.9,2.4c2,0.1,4.7-0.2,6.8-1.7C253,270.6,254.4,268,254.5,265.4z"/>
			<path d="M252,355.3c-4.1-20.6-10.1-40.7-17.9-60.1c1.2-5.8,3.9-11.2,6.6-16.4c0.7-1.4,1.4-2.8,2.1-4.2c1-2,1.9-4.1,2.8-6.1
				c1.4-3.2,2.9-6.5,4.6-9.6c0.1-0.2,0-0.4-0.2-0.5c-0.2-0.1-0.4,0-0.5,0.2c-1.7,3.1-3.2,6.4-4.7,9.6c-0.9,2-1.8,4.1-2.8,6.1
				c-0.7,1.4-1.4,2.8-2.1,4.2c-2.5,4.9-5.1,10-6.4,15.5c-3-7.4-6.3-14.7-9.8-21.8c0-0.1-0.1-0.2-0.1-0.2c-3.4-6.9-7-13.6-10.9-20.3
				c1.3-11.4,4.1-22.7,8.3-33.4c0.1-0.2,0-0.4-0.2-0.5c-0.2-0.1-0.4,0-0.5,0.2c-4.1,10.5-6.8,21.4-8.2,32.6
				c-9.4-16-20.1-31.3-32.1-45.6c-0.1-0.2-0.4-0.2-0.6-0.1c-0.2,0.1-0.2,0.4-0.1,0.6c17,20.3,31.5,42.6,43.2,66.2
				c-13.6-3-27.6-4.2-41.6-3.6c-0.2,0-0.4,0.2-0.4,0.4c0,0.2,0.1,0.3,0.3,0.4c0,0,0.1,0,0.1,0c14.1-0.6,28.2,0.7,42,3.7
				c3.7,7.5,7.1,15.1,10.2,22.8c0,0.1,0,0.2,0.1,0.3c7.8,19.3,13.8,39.4,17.8,59.9c0,0.2,0.1,0.3,0.3,0.3c0.1,0,0.1,0,0.2,0
				C251.9,355.7,252,355.5,252,355.3z"/>
		</g>
		<g>
			<path class="st2" d="M142.4,283.7c-7.9-9.8-23.9-7.8-36.1-6.2c-6.6,0.9-13.5,3-17.8,8.1c-1.8,2.1-3.2,4.8-3.1,7.7
				c0.2,3.7,2.9,6.9,6.2,8.5c3.3,1.6,7.1,1.9,10.8,1.7c5.3-0.2,10.6-1.2,15.3-3.5c6.2-3,11.2-8.1,17.3-11.4c-2.9,4.6-5.2,9.6-6.4,15
				c-1.1,5.3-1,11,0.8,16.1c0.6,1.6,1.3,3.2,2.5,4.4c1.2,1.2,2.8,2.1,4.5,2c2.3-0.2,4.1-1.9,5.3-3.8c1.5-2.4,2.4-5.2,3.1-8
				c1.6-6.5,2-13.3,1.2-20C145.6,290.5,144.8,286.7,142.4,283.7z M161.4,240.5c-0.6-2-1.8-4.1-3.8-4.6c-1.6-0.4-3.3,0.3-4.7,1.2
				c-3.5,2.3-6.1,5.8-8,9.6c-4.6,9-6.3,19.5-4.7,29.5c0.2,1.5,0.5,2.9,1.7,4.3c3.6-0.7,6.9-2.8,9.4-5.5c2.5-2.7,4.4-5.9,6.1-9.2
				c2-3.9,3.7-8,4.5-12.3C162.7,249.2,162.7,244.7,161.4,240.5z M101.1,255.5c0.1,0.1,0.2,0.2,0.3,0.2l-0.2,0.3
				c5.4-4.6,8.5-11.3,10.8-17.9c4.3-12.1,6.9-25.2,4.8-37.9c-0.5-3-1.3-6.1-3-8.6c-1.7-2.6-4.3-4.6-7.4-5c-2.7-0.3-5.5,0.8-7.6,2.5
				c-2.1,1.7-3.6,4.1-4.9,6.5c-3.3,6.5-4.8,13.9-4.9,21.2c-0.1,7.3,1.1,14.6,2.9,21.7c0.4,1.8,0.9,3.5,1.5,5.3
				c-5.7-5.2-12.6-9.1-19.8-11.7c-8.3-3-17.2-4.5-25.9-3.5c-5.9,0.7-12.3,3-14.9,8.4c-1.4,3-1.4,6.5-0.4,9.6c1,3.1,3,5.9,5.3,8.1
				c5.5,5.3,12.8,8.2,20.3,9.8c7.4,1.7,15.2,2.2,22.7,0.9c7.5-1.3,14.8-4.5,20.4-9.7C101.2,255.8,101.1,255.7,101.1,255.5z"/>
			<path d="M252.1,433.8c-24.6-48-58.9-107.3-110.4-151c1.3-13.4,5.5-26.7,12.2-38.4c0.1-0.2,0-0.4-0.1-0.5c-0.2-0.1-0.4,0-0.5,0.1
				c-6.6,11.7-10.8,24.9-12.2,38.2c-4.6-3.8-9.2-7.6-14.1-11.2c-9.4-7-17.5-12-25.4-15.6c-2-6.7-2.3-14.1-1.9-23
				c0.3-8.5,1-17.2,2-25.7c0.5-3.9,1-7.8,2.5-11.3c0.1-0.2,0-0.4-0.2-0.5c-0.2-0.1-0.4,0-0.5,0.2c-1.5,3.7-2,7.5-2.5,11.5
				c-1,8.5-1.7,17.2-2,25.7c-0.3,7.6-0.2,15.5,1.8,22.6c-2.4-1.1-4.8-2-7.2-2.9c-8.5-3-17.5-4.5-26.2-6c-9.1-1.6-18.4-3.2-27.2-6.4
				c-0.2-0.1-0.4,0-0.5,0.2c-0.1,0.2,0,0.4,0.2,0.5c8.8,3.2,18.2,4.8,27.3,6.4c8.7,1.5,17.7,3.1,26.1,6c2.6,0.9,5.2,2,7.9,3.2
				c0.1,0.1,0.2,0.1,0.3,0.1c0,0,0,0,0,0c7.7,3.6,15.8,8.6,25.2,15.5c4.7,3.5,9.2,7.1,13.7,10.8c-6.1,1.3-11.6,3.2-16.9,5l-1.8,0.6
				c-9.4,3.2-19.5,6.4-29.6,5.9c-0.2,0-0.4,0.2-0.4,0.4c0,0.2,0.2,0.4,0.4,0.4c10.3,0.4,20.4-2.7,29.9-6l1.8-0.6
				c5.3-1.8,10.8-3.7,16.8-5c-1.3,11.6-3.2,23.2-5.7,34.5c0,0.2,0.1,0.4,0.3,0.5c0,0,0.1,0,0.1,0c0.2,0,0.3-0.1,0.4-0.3
				c2.5-11.4,4.4-23,5.7-34.6c51.4,43.6,85.7,102.8,110.3,150.8c0.1,0.1,0.2,0.2,0.4,0.2c0.1,0,0.1,0,0.2,0
				C252.2,434.2,252.2,434,252.1,433.8z"/>
		</g>
		<g>
			<path class="st2" d="M906.1,235.8c1.9-8.1,2.5-17.2-2.4-24c-1.5-2-3.7-3.9-6.2-3.8c-1.7,0.1-3.3,1-4.7,2.1
				c-7,5.7-9.8,15.1-10.7,24c-1.3,12.5,0.3,25.3,4.8,37.1C896.5,261.6,902.9,249.1,906.1,235.8z M875.2,292.6
				c-2.9,5.5-4.7,11.7-4.3,17.9c0.1,2.5,0.9,5.3,3.2,6.3c2.9,1.2,5.9-1.3,7.8-3.9c7.5-10.2,9.8-24,6.2-36.2
				c-0.7,0.1-1.4,0.5-2.1,0.7C882,282.2,878.1,287.1,875.2,292.6z M899.8,274.5c-3.2-0.5-6.5-0.7-9.1,0.9
				c3.7,10.8,10.4,20.6,19.2,27.9c3.8,3.2,8.2,6,13.1,6.2c4.9,0.2,10.3-3,10.9-7.9c0.4-2.8-0.9-5.6-2.4-8.1
				C924.8,282.7,912.4,276.4,899.8,274.5z M867.3,273.2c5.8,0.8,11.6,0.7,17.4,0.5c0.5-1.7-0.6-3.6-1.7-5.2
				c-6-8-14.1-14.4-23.3-18.2c-3.3-1.4-7.2-2.4-10.3-0.6c-2.9,1.7-4.2,5.5-3.5,8.8c0.7,3.3,2.9,6.1,5.6,8.2
				C855.9,270.4,861.6,272.3,867.3,273.2z M943.6,234.4c-4.2-0.9-8.5,0.1-12.5,1.5c-17.7,6-32.9,19.2-41.3,35.9
				c20.5,2.1,42.2-3.5,56.9-17.8c3.1-3.1,6.1-7,5.5-11.4C951.7,238.4,947.7,235.3,943.6,234.4z"/>
			<path d="M890.9,275.1c-0.2-0.1-0.4-0.1-0.6,0.1c-0.1,0.2-0.1,0.4,0.1,0.6l33.3,25.2c0.1,0.1,0.3,0.1,0.4,0c0.1,0,0.1-0.1,0.1-0.1
				c0.1-0.2,0.1-0.4-0.1-0.6L890.9,275.1z M886.9,276.1c-1.7,10.9-4.5,21.7-8.2,32.2c-0.1,0.2,0,0.4,0.2,0.5c0.1,0,0.2,0,0.3,0
				c0.1,0,0.2-0.1,0.2-0.2c3.7-10.5,6.5-21.3,8.3-32.3c0-0.2-0.1-0.4-0.3-0.5C887.1,275.7,886.9,275.9,886.9,276.1z M884.6,274.8
				c0.1,0.1,0.3,0.1,0.4,0.1c0,0,0.1-0.1,0.1-0.1c0.1-0.2,0.1-0.4,0-0.6c-7.9-7-17.3-12.6-27.3-16c-0.2-0.1-0.4,0-0.5,0.2
				c-0.1,0.2,0,0.4,0.2,0.5C867.5,262.4,876.8,267.8,884.6,274.8z M897.8,222.3c-0.2,0-0.4,0.1-0.4,0.4c-1.7,16.9-4.9,33.8-9.7,50.1
				c-0.1,0.2,0.1,0.4,0.3,0.5c0.1,0,0.2,0,0.3,0c0.1,0,0.2-0.1,0.2-0.2c4.8-16.4,8-33.3,9.7-50.2C898.1,222.5,898,222.3,897.8,222.3
				z M941.8,246.7l-51.3,25.3c-0.2,0.1-0.3,0.3-0.2,0.5c0.1,0.2,0.3,0.3,0.5,0.2l51.3-25.3l0,0c0.2-0.1,0.3-0.3,0.2-0.5
				C942.2,246.7,942,246.6,941.8,246.7z M885.4,276.1c0.2-0.1,0.3-0.3,0.2-0.5c-0.1-0.2-0.3-0.3-0.5-0.2
				c-15,6.9-29.2,17.2-42.2,30.4c-13.6,13.9-22.7,28.3-26.9,42.7c-0.1,0.2,0.1,0.4,0.3,0.5c0.1,0,0.2,0,0.3,0c0.1,0,0.2-0.1,0.2-0.2
				c4.2-14.3,13.2-28.6,26.7-42.4C856.4,293.2,870.5,283,885.4,276.1z"/>
			<path class="st1" d="M891.7,277.3c-0.9,1.7-3.1,2.6-5,2.1c-1.9-0.5-3.3-2.2-3.6-4.2c-0.4-2.4,1-4.9,3.2-5.8c2.2-0.9,5,0,6.2,2.1
				C893.6,273.6,892.9,276.6,891.7,277.3z"/>
		</g>
	</g>
	<g>
		<g>
			<path class="st3" d="M685.6,395.7c3.1-0.6,6.3-1.1,9.4-1.6c-1.8,3.5-2.3,7.7-2.8,11.7c-0.6,5.9-1.3,11.9-1.9,17.8
				c-0.6,5.4-1.2,10.9-0.9,16.4c-6.5-2-13-3.9-19.5-5.9c-2.3-11.7-1.9-23.9,1.1-35.4c0.5-0.1,0.9-0.2,1.4-0.3
				C676.8,397.4,681.2,396.6,685.6,395.7z"/>
			<path class="st4" d="M695,394.1c-3.1,0.5-6.3,1-9.4,1.6c-15.3-25.2-30.6-50.4-44.7-76.3c-1.3-2.4-2.7-4.9-3.9-7.3
				c4.6,2.8,10,4.5,15.2,6c12.3,3.4,24.9,6.1,37.5,8.1c1.3,0.2,2.7,0.4,4,0.1c1.3-0.3,2.4-1.1,3.5-1.9c9.9-7.3,18.2-16.8,24.1-27.6
				c17.4,27,27.5,58.7,28.7,90.7c-2.4,0.2-4.8,0.5-7.3,0.7C726.8,389.9,710.8,391.6,695,394.1z"/>
			<path class="st5" d="M610.8,213.7c-10.7-11.2-19.8-24.7-22.2-40c-2.3-15.3,3.5-32.6,17-40.3c1.2-0.7,2.6-1.4,3.4-2.5
				c0.9-1.2,1.3-2.6,1.7-4.1c2.6-8.7,8.5-16.2,15.8-21.7c7.3-5.5,15.8-9.1,24.4-12c12.6-4.1,26-6.5,39.1-4.9
				c6.4,0.8,12.8,2.5,19.2,2.3c3.8-0.1,7.6-0.9,11.3-0.3c4.3,0.6,8.1,3,11.4,5.8c13.4,11.6,17.6,30.7,17.3,48.4
				c-0.2,12.1-2.8,25.4-11.6,33.3c-0.1-0.3-0.2-0.5-0.2-0.8c-3.8-12.3-8.3-24.5-10.6-36.4c-24.5,13.2-52.2,20.7-80,21.5
				c2.3,12,0.2,24.7-6,35.3c-3-2.5-6.8-4.2-10.8-4.5c-6.9-0.5-13.9,3.1-17.5,9c-2,3.3-3,7.3-2,11.1
				C610.8,213.2,610.8,213.4,610.8,213.7L610.8,213.7z"/>
			<path class="st3" d="M853.2,366c-10.7-20.5-24.3-39.6-41.2-55.3c-7.2-6.7-15.2-12.8-24.7-15.3c-8.4-2.2-17.2-1.2-25.8-1
				c-13.6,0.3-27.2-1.3-40.4-4.6c-2-0.5-4-1.1-5.9-1.9c2.2,2.9,4.2,5.9,6.2,9c17.4,27,27.5,58.7,28.7,90.7c-2.4,0.2-4.8,0.5-7.3,0.7
				c-15.9,1.6-31.9,3.3-47.7,5.8c-1.8,3.5-2.3,7.7-2.8,11.7c-0.6,5.9-1.3,11.9-1.9,17.8c-0.6,5.4-1.2,10.9-0.9,16.4
				c-6.5-2-13-3.9-19.5-5.9c-5.3-1.6-10.6-3.2-16-4.8c-4.1-8.3-8.3-16.8-12.8-25c9.8-2.7,19.8-4.7,29.9-5.8c0.5,0,0.9-0.1,1.4-0.1
				c4.4-1,8.7-1.9,13.1-2.7c-15.3-25.2-30.6-50.4-44.7-76.3c-1.3-2.4-2.7-4.9-3.9-7.3c-2.6-5.1-5-10.3-6.8-15.7
				c-25.2,13-57.1,14.4-77.1,34.6c-12.7,12.8-18.2,31.6-17.6,49.7c0.6,18,6.7,35.5,14.5,51.8c7,14.4,15.4,28,25,40.8
				c9.8,12.9,22,25.5,37.9,28.9c9.9,2.1,20.1,0.4,30.1-1.5c42.6-8.2,84.3-20.7,124.4-37.3c4.3,1.3,8.6,2.6,12.9,3.9
				c14.1,4.2,28.5,8.5,43.2,8.3c14.7-0.3,30.1-5.9,38.7-17.8c5.1-7.1,7.3-15.8,8.1-24.5C872.2,409.8,864,386.7,853.2,366z"/>
			<path class="st6" d="M654,429.3c5.3,1.6,10.6,3.2,16,4.8c-2.3-11.7-1.9-23.9,1.1-35.4c0-0.1,0-0.1,0-0.2
				c-10.1,1.1-20.1,3-29.9,5.8C645.6,412.6,649.8,421,654,429.3z M737.8,177.7c-0.1-0.3-0.2-0.5-0.2-0.8
				c-3.8-12.3-8.3-24.5-10.6-36.4c-24.5,13.2-52.2,20.7-80,21.5c2.3,12,0.2,24.7-6,35.3c-3-2.5-6.8-4.2-10.8-4.5
				c-6.9-0.5-13.9,3.1-17.5,9c-2,3.3-3,7.3-2,11.1c0.1,0.2,0.1,0.5,0.2,0.7c1.1,3.4,3.5,6.2,6.2,8.5c4.3,3.6,9.3,6.4,14.7,8
				c1.1,0.3,2.3,0.6,3.2,1.4c1,0.8,1.5,2,2,3.2c2.4,6.3,3.6,13.1,4.6,19.8c1.8,12.1,2.9,25-1.9,36.2c-3.1,2.2-6.3,4.1-9.6,5.8
				c1.8,5.4,4.1,10.6,6.8,15.7c4.6,2.8,10,4.5,15.2,6c12.3,3.4,24.9,6.1,37.5,8.1c1.3,0.2,2.7,0.4,4,0.1c1.3-0.3,2.4-1.1,3.5-1.9
				c9.9-7.3,18.2-16.8,24.1-27.6c-2-3-4-6-6.2-9c-1.9-0.8-3.8-1.8-5.3-3.2c-6.1-5.6-5.9-14.8-8.3-22.8c5.2-0.8,10.3-2.4,15.2-4.5
				c4.5-2,8.9-4.5,12.6-7.8c9.7-8.5,14.3-21.7,14.8-34.6C744.6,202.3,741.5,189.8,737.8,177.7z"/>
			<path class="st7" d="M786.7,385.3c4.5,0,8.9,0.1,13.4,0.3c12.1,0.7,24.3,2.7,35.8,6.4c-6.6-7-16.4-10.7-26-12.2
				c-2.4-0.4-4.8-0.7-7-1.8c1.2-4.2,6.8-6.3,7.5-10.6c-4.7,1.4-8.8,4.7-11.3,8.9c-2-1.9-2.5-4.8-3.2-7.5
				c-2.2-8.5-6.7-16.1-11.2-23.6c-1.2-1.9-2.5-4-4.6-4.8c1,8.8,3.8,17.3,5.1,26C786.1,372.7,786.2,379,786.7,385.3z M786.2,453.9
				c-26.4-3.6-66.6-13-96.8-20.6c-7.6-1.9-14.5-3.7-20.5-5.2c0.2,2,0.6,4.1,0.9,6.1c-5.3-1.6-10.6-3.2-16-4.8c-1-2-2-4-3-6.1
				c-3.2-6.3-6.4-12.7-9.8-18.9c-10.4-19.1-22.2-37.4-37.9-52c19,19.9,30.2,46.6,40.7,72.3c0.3,0.8,0.7,1.8,0.4,2.7
				c-0.2,0.7-0.8,1.3-1.4,1.8c-5.2,4.4-11.2,7.6-16.8,11.5c-5.6,3.9-10.8,8.7-13.3,15c4.2,1.2,8.5-1.5,12.2-3.8
				c8.7-5.5,17.9-10.1,27.6-13.7c-6.8,7.5-11.9,16.6-14.8,26.3c8.8-2.2,11-14.3,18.8-18.9c5.9-3.5,13.4-2,20.1-0.3
				c28.1,6.9,56.1,13.9,84.2,20.8c2.1-0.8,4.2-1.7,6.2-2.5c4.3,1.3,8.6,2.6,12.9,3.9c14.1,4.2,28.5,8.5,43.2,8.3
				c14.7-0.3,30.1-5.9,38.7-17.8c2.7-3.8,4.6-8,5.9-12.5C855.1,455.1,826.8,459.5,786.2,453.9z M755.1,345c7.1,4.2,14.5,8,22,11.5
				c-3.6,9.5-7.2,19.1-8.9,29.1l0.8-0.1c3.5-10.3,7.2-20.5,11.3-30.6c-6.7-3.8-13.6-7.2-20.7-10c4.4-6,9.1-11.9,13.9-17.7
				c-10.3-8.5-20.5-17-31-25.1c8.6,8.7,17.4,17.1,26.4,25.2C763.9,332.9,759.3,338.8,755.1,345z M639.2,353.9
				c-2,4.4-3.9,8.8-5.9,13.2c-0.3,0.7-0.6,1.4-0.5,2.1c0.1,0.7,0.7,1.3,1.2,1.8c7.1,7.5,14.3,15,22,21.8c2.9,2.5,6,5,9.5,6.4
				l1.1-0.2c-9.4-9.5-18.9-19-28.3-28.4c-0.6-0.6-1.3-1.3-1.4-2.2c-0.1-0.8,0.3-1.5,0.6-2.2c2.6-5.1,4.7-10.4,6.3-15.9
				c-8,0.7-16.2,0.7-24.2-0.1c-0.7-0.1-1.4-0.2-1.9-0.6c-0.6-0.5-0.7-1.4-0.7-2.2c-0.8-10.7-0.9-21.4-0.4-32.1
				c-1,12.5-1.9,24.9-2.5,37.3C622.3,354.4,630.8,354.8,639.2,353.9z"/>
			<path d="M722.1,202.4c0.2,0.2,0.4,0.4,0.4,0.6c0,0.1-0.1,0.3-0.1,0.5c-0.9,1.8-2,3.6-3.2,5.2c-0.1,0.2-0.1,0.4,0.1,0.6
				c0.1,0.1,0.2,0.1,0.2,0.1c0.1,0,0.2-0.1,0.3-0.2c1.3-1.6,2.4-3.4,3.3-5.3c0.1-0.2,0.2-0.5,0.2-0.9c0-0.5-0.4-0.9-0.6-1.1
				c-4-4-7.7-8.5-10.8-13.3c-0.1-0.2-0.4-0.2-0.6-0.1c-0.2,0.1-0.2,0.4-0.1,0.6C714.3,193.9,718,198.4,722.1,202.4z M708.7,222.7
				c0.9,0,1.8,0,2.7-0.1c0.2,0,0.4-0.2,0.4-0.4c0-0.2-0.2-0.4-0.4-0.4c-6.7,0.6-13.7-1.3-19.2-5.3c-0.2-0.1-0.4-0.1-0.6,0.1
				c-0.1,0.2-0.1,0.4,0.1,0.6C696.5,220.8,702.6,222.7,708.7,222.7z M855.2,400.2c-15.1-8.6-33.6-13.7-55.2-14.9
				c-17.5-1-35,0.5-50.2,1.9c-2.4,0.2-4.8,0.5-7.2,0.7c-16.3,1.7-32.2,3.3-47.8,5.8c-3.1,0.5-6.3,1-9.4,1.6c-4.7,0.9-9,1.7-13.1,2.7
				c-0.3,0.1-0.6,0.1-1,0.2l-0.1,0c0,0-0.1-0.1-0.1-0.1c-0.2-0.1-0.4,0.1-0.5,0.2c-0.1,0.1-0.2,0.2-0.2,0.4c0,0.1,0,0.1,0.1,0.2
				c-2.9,11.3-3.3,23.3-1.1,34.8c-8.5-2.7-14.2-4.5-15.2-4.8c-4.2-8.5-8.3-16.7-12.7-24.9c-9.7-18-23.6-40.8-44.3-57.6
				c-0.2-0.1-0.4-0.1-0.6,0.1c-0.1,0.2-0.1,0.4,0.1,0.6c20.6,16.7,34.4,39.4,44.1,57.3c4.4,8.2,8.6,16.5,12.8,25l0,0c0,0,0,0,0,0
				l0.7,1.4c0.1,0.1,0.2,0.2,0.4,0.2c0.1,0,0.1,0,0.2,0c0.2-0.1,0.3-0.3,0.2-0.5l-0.3-0.5c9.5,3,91.9,29.1,112.5,33.8
				c0,0,0.1,0,0.1,0c0.2,0,0.3-0.1,0.4-0.3c0-0.2-0.1-0.4-0.3-0.5c-12.7-2.9-49.4-14.1-77.6-22.9c0-0.1,0-0.1,0-0.2
				c-0.3-5.4,0.3-11,0.9-16.3l1.9-17.8c0.4-4.1,1-8.1,2.6-11.4c15.5-2.5,31.3-4.1,47.5-5.8c2.4-0.2,4.8-0.5,7.3-0.7
				c15.1-1.5,32.6-3,50-1.9c21.4,1.3,39.8,6.2,54.8,14.8c0.1,0,0.1,0.1,0.2,0.1c0.1,0,0.3-0.1,0.3-0.2
				C855.5,400.5,855.4,400.3,855.2,400.2z M691.8,405.8l-1.9,17.8c-0.6,5.3-1.2,10.9-0.9,16.3c-6.9-2.2-13.3-4.2-18.7-5.8
				c0,0,0,0,0,0c-2.3-11.5-1.9-23.6,1-35l0.2-0.1c0.3-0.1,0.6-0.1,0.9-0.2c4.2-0.9,8.5-1.8,13.1-2.7c2.9-0.5,5.8-1,8.6-1.5
				C692.8,397.9,692.3,401.8,691.8,405.8z"/>
			<path class="st5" d="M680.4,160.8c-2.3-1.1-5-1.1-7.5-0.6c-2.5,0.5-4.8,1.6-7.1,2.9c-2.9,1.6-5.9,3.8-6.4,7.1
				c-0.1,0.5-0.1,0.9,0.1,1.3c0.4,0.7,1.4,0.8,2.1,0.6s1.3-0.9,1.9-1.4c4.5-4.1,10.9-6,16.8-5c0.7,0.1,1.8,0,2.3-0.7
				c0.5-0.8,0.4-1.8-0.1-2.6C682,161.7,681.2,161.2,680.4,160.8z M732.1,153.6c-0.9-1.6-2.5-2.6-4.3-3.1c-1.7-0.5-3.6-0.4-5.4-0.2
				c-4.6,0.5-9.4,2.2-12,6c-0.5,0.6-0.8,1.3-0.9,2.1c-0.1,0.8,0.3,1.6,1,2c0.8,0.4,1.9,0,2.6-0.6c0.8-0.5,0.3-0.6,3.5-2.2
				c3.3-1.6,7.2-3,12.2-1.9c0.7,0.2,1.4,0.3,2.1,0.3c0.7-0.1,1.4-0.5,1.5-1.2C732.4,154.4,732.3,153.9,732.1,153.6z"/>
			<path class="st2" d="M741.8,381.1c-3.5-0.2-7.2-0.4-10.5-1.5c-3.5-1.2-6.3-3.4-7.6-6.1c-1.1-2.3-1.2-4.9-1.3-7.4
				c-0.3-13.1,1.8-26.1,6.3-38.4c0.2-0.6-0.1-1.3-0.7-1.5c-0.6-0.2-1.3,0.1-1.5,0.7c-4.5,12.6-6.7,25.9-6.4,39.3
				c0.1,2.6,0.2,5.7,1.5,8.4c1.6,3.3,4.8,5.9,9,7.3c3.6,1.2,7.4,1.4,11.1,1.6c0,0,0,0,0.1,0c0.6,0,1.2-0.5,1.2-1.1
				C743,381.7,742.5,381.2,741.8,381.1z M772.8,349.6c-2.9-10.9-7.4-21.2-13.5-30.8c-0.4-0.6-1.1-0.7-1.7-0.4
				c-0.6,0.4-0.7,1.1-0.4,1.7c5.9,9.3,10.3,19.5,13.2,30.1c2.5,9.4,2.2,16.1-0.9,21c-3,4.6-8.3,7.1-12.7,8.8
				c-0.6,0.2-0.9,0.9-0.7,1.6c0.2,0.5,0.6,0.8,1.1,0.8c0.1,0,0.3,0,0.4-0.1c4.7-1.8,10.5-4.6,13.8-9.8
				C776.2,365.3,774.5,356,772.8,349.6z"/>
			<path class="st2" d="M632.7,369.9c3.3-4.9,9.2-7.9,15.1-7.3c5.8,0.5,11.2,4.7,13,10.3c2.2,7.2-2.1,15.6-9,18.7
				c-6.6,2.9-15.2,0.9-19.2-5.1C629,381.2,630.1,373.8,632.7,369.9z"/>
			<path d="M639.9,383.4c-0.1,0-0.1-0.1-0.2-0.2c-2.7-2-3.3-5.8-2-8.8c0.9-2,2.7-3.6,4.7-4.5c2.9-1.3,6.5-1.4,9.1,0.4
				c1.7,1.1,2.8,2.9,3.2,4.9c0.5,2.8-0.6,5.8-2.8,7.7c-2.1,1.9-5.2,2.6-8,2.1C642.6,384.8,641,384.2,639.9,383.4z"/>
			<path class="st2" d="M739.5,311.5c-5-18.9-19.3-35.3-37.4-42.7c-1-0.4-2.2,0.1-2.6,1.1c-0.4,1,0.1,2.2,1.1,2.6
				c16.9,7,30.4,22.3,35,40c0.2,0.9,1,1.5,1.9,1.5c0.2,0,0.3,0,0.5-0.1C739.1,313.7,739.8,312.6,739.5,311.5z M644.4,271.7
				c-11.4,7.8-18.7,16.7-21.9,26.4c-1.8,5.5-2.4,11.7-2,19.7c0.9,18.5,6.6,36.3,16.3,51.4c0.4,0.6,1,0.9,1.7,0.9
				c0.4,0,0.7-0.1,1.1-0.3c0.9-0.6,1.2-1.8,0.6-2.8c-9.4-14.5-14.8-31.6-15.7-49.4c-0.4-7.5,0.2-13.3,1.8-18.3
				c2.9-8.9,9.7-17.1,20.3-24.4c0.9-0.6,1.1-1.9,0.5-2.8C646.5,271.3,645.3,271,644.4,271.7z"/>
			<path class="st5" d="M676,178.2c-2.3,0.4-3.7,3.7-3.1,7.4c0.6,3.7,3,6.4,5.3,6c2.3-0.4,3.7-3.7,3.1-7.4
				C680.7,180.5,678.3,177.8,676,178.2z M727.5,173.7c-0.6-3.7-3-6.4-5.3-6c-2.3,0.4-3.7,3.7-3.1,7.4c0.6,3.7,3,6.4,5.3,6
				C726.7,180.8,728.1,177.4,727.5,173.7z"/>
			<path d="M746.5,379.8c-0.1-0.1-0.1-0.2-0.3-0.3c-0.1-0.1-0.3-0.1-0.5-0.1c-1.4,0-2.6,0.6-4,0.8c-0.8,0.2-0.6,0.7-0.7,1.4
				c0,0.8-0.1,1.6-0.1,2.4c0,0.1,0,0.2,0.1,0.3c0,0,0.1,0.1,0.2,0.1c1.4,0.5,2.9,0.8,4.3,0.9c0.4,0,0.8,0,1-0.3
				c0.1-0.2,0.2-0.4,0.2-0.6c0.1-1.2,0.1-2.3,0-3.5C746.7,380.4,746.7,380.1,746.5,379.8z M758.8,381.8c-0.1-0.3-0.3-0.6-0.4-1
				c-0.2-0.5-0.3-1-0.4-1.5c0-0.1-0.1-0.2-0.1-0.3c-0.1-0.1-0.2-0.1-0.3-0.1l-4.6,0.2c-0.3,0-0.7,0.1-0.9,0.3
				c-0.2,0.2-0.1,0.5-0.1,0.8c0.2,0.8,0.5,1.6,0.7,2.4c0.1,0.5,0.2,0.9,0.3,1.4c0.1,0.3,0.1,0.7,0.4,0.9c0.3,0.3,0.8,0.2,1.2,0.1
				c1.2-0.4,2.1-1.2,3.2-1.7C758.3,383,759.1,382.6,758.8,381.8z"/>
			<path d="M725.9,327.2c1.6-6,4.5-12.1,9.8-15.3c3.6-2.1,8-2.7,12-1.8c4,0.9,7.7,3.3,10.3,6.5c0.8,1,1.6,2.5,0.8,3.5
				c-0.6,0.8-1.8,0.9-2.8,0.5c-0.9-0.4-1.6-1.2-2.4-1.9c-4.2-4-10.8-6.1-15.9-3.5c-3.9,2-6.2,6.1-7.5,10.2c-0.4,1.1-0.7,2.4-1.8,3
				C727.6,329,725.6,328.1,725.9,327.2z"/>
			<path class="st8" d="M624.8,202.8c-1.2,0.4-2.4,1-3.2,2c-0.8,1-1.3,2.3-0.9,3.6c0.1,0.3,0.2,0.6,0.4,0.7c0.4,0.3,0.9,0,1.3-0.2
				c1.5-0.9,3-1.9,4.7-2.3c1.7-0.4,3.7-0.2,4.9,1.1c1,1.1,1.2,2.8,1.8,4.2c0.6,1.4,2.3,2.7,4.1,2.3c-0.3-2.3-0.7-4.7-1.8-6.7
				C634.1,203.5,629.1,201.5,624.8,202.8z M651,423.3c1,2,2,4,3,6.1c5.3,1.6,10.6,3.2,16,4.8c-0.4-2-0.7-4-0.9-6.1
				C660.6,425.9,654.3,424.2,651,423.3z M701.6,261.8c-14.3,2.3-29.3-0.2-41.1-8.2c1.8,5,5.4,9.2,9.7,12.4
				c5.1,3.8,11.2,6.1,17.3,7.7c5.6,1.5,11.5,2.4,17.2,1.6C703.4,271,702.9,266.2,701.6,261.8z"/>
			<path d="M741.8,172.5c-0.5-7.7-7-14.4-14.4-14.9c-4.7-0.3-8.8,1.7-11.5,3.4c-2.1,1.4-3.8,2.9-5,4.6c-2.1,2.8-3.1,6.4-3,10
				c-4.8-0.1-9.6,0.9-14,2.9c-1.2-3.6-3.4-6.7-6.2-8.5c-1.7-1.1-3.6-1.9-5.9-2.3c-4.9-1-10.1-0.1-14.2,2.4c-4.3,2.6-7.3,7-8.2,11.7
				c-0.4,2.1-0.3,4.2,0.1,6.4c-0.1,0-0.1,0-0.2,0l-18.5,8.3c-0.2,0.1-0.3,0.3-0.2,0.5c0.1,0.1,0.2,0.2,0.4,0.2c0.1,0,0.1,0,0.2,0
				l18.5-8.3c0,0,0,0,0,0c0.4,1.6,0.9,3.2,1.7,4.7c1.2,2.3,2.6,4.1,4.4,5.5c2.7,2.1,6.3,3.3,10.1,3.3c1,0,1.9-0.1,2.9-0.2
				c4.1-0.7,8.3-2.7,12.1-5.9c4.3-3.5,4.9-11.3,3.2-17.1c4.3-2,9.1-3,13.8-2.9c0.3,3.3,1.5,6.6,3.6,9.1c3.1,3.7,8.1,5.8,13,5.8
				c2.2,0,4.4-0.4,6.5-1.3C737.7,187.1,742.3,179.6,741.8,172.5z M690.5,195.8c-3.7,3.1-7.8,5-11.7,5.7c-4.5,0.7-9.2-0.4-12.4-2.9
				c-1.6-1.3-3-3.1-4.2-5.2c-1.9-3.6-2.6-7.7-1.9-11.3c0.8-4.5,3.7-8.7,7.8-11.2c2.9-1.8,6.3-2.7,9.8-2.7c1.3,0,2.5,0.1,3.8,0.4
				c2.2,0.4,4.1,1.2,5.6,2.2c2.7,1.8,4.8,4.7,5.9,8.2C695,184.5,694.5,192.4,690.5,195.8z M730.8,189.2c-6.3,2.7-14.2,0.9-18.6-4.3
				c-4.4-5.2-4.7-13.5-0.6-18.9c1.2-1.6,2.8-3.1,4.8-4.4c2.3-1.5,5.9-3.3,10-3.3c0.3,0,0.6,0,0.9,0c7,0.5,13.2,6.8,13.7,14.1
				C741.5,179.3,737.1,186.5,730.8,189.2z"/>
		</g>
		<g>
			<path class="st3" d="M250.4,467.4c-1.2-1.7-1.7-3.8-2.1-5.9c-7.1-33.9-14.2-67.8-21.3-101.7c-0.6-3.1-1.3-6.2-1.9-9.3
				c-14.5,26.8-27,55.8-26.3,86.2c0.2,7.6,1.2,15.2,4.3,22.1c5.7,12.8,17.9,21.8,31.3,25.9c8.9,2.7,18.6,3.5,27.7,1.2
				c5.4-1.3,10.5-3.7,14.9-7.1c-6.3-2.2-12.5-4.5-18.8-6.7C255.2,471.1,252.2,469.9,250.4,467.4z M319.7,302.8
				c-4.1,2.2-8.1,4.5-12.1,7c-14.6,9.1-28,20.1-38.9,33.4c5.3,1.1,10.6,2.2,15.8,3.3c2.7,0.6,5.4,1.2,7.6,2.8
				c1.5,1.1,2.6,2.9,2.8,4.6c9.6,2.5,19.1,5.1,28.6,8c3-7.5,5.9-15.1,9-22.6c4.3-10.4,8.8-20.9,14.8-30.4c1.9-3.1,4-6,6.3-8.8
				c1.5-1.8,3.1-3.6,4.4-5.6c1.2-1.9,2.2-3.9,3-6C346.5,290.2,332.6,295.9,319.7,302.8z M516.5,359.3c-7.1-11.3-15.9-21.4-25.9-30.1
				c-15.5-13.5-33.9-23.6-53.6-29.3c-4.6,8.3-9.2,16.7-13.6,25.1c-6.3,12.1-12.3,24.4-17.4,37.1c-7.6,19.1-13.1,39.2-14.4,59.6
				c-0.5-0.2-0.9-0.3-1.4-0.5c-2,2.4-3.8,4.8-5.6,7.3c-8.7,11.9-15.7,25-20.9,38.8c-1.3,3.5-2.5,7-3.5,10.5
				c5.7,3.6,11.5,7.1,17.3,10.4c12.8,7.2,26,13.5,39.9,18.2c20.1,6.7,41.7,10,62.6,6.9c8.1-1.2,16.1-3.4,23.2-7.4
				c17.4-9.8,27.1-29.4,31.2-48.9C541.3,423.7,534.5,387.9,516.5,359.3z"/>
			<path class="st4" d="M377.4,488.1c-9.6-1.3-19.1-2.9-28.6-4.7c-1.6-8.8-3.6-17.6-5.9-26.3c1.9,0.4,3.7,0.8,5.5,1.3
				c5.7,1.6,11.3,4.4,15.1,8.8c-1.3,3.5-2.5,7-3.5,10.5C365.8,481.3,371.6,484.8,377.4,488.1z"/>
			<path class="st4" d="M423.3,324.9c-6.3,12.1-12.3,24.4-17.4,37.1c-7.6,19.1-13.1,39.2-14.4,59.6c-0.5-0.2-0.9-0.3-1.4-0.5
				c-2,2.4-3.8,4.8-5.6,7.3c-5.1-1.6-10.3-3.2-15.2-5.6c-11.7-5.7-22.1-15.4-34.7-17.4c-2.6-14.2-5.2-28.3-7.8-42.5
				c-1.1-0.3-2.2-0.7-3.3-1c3-7.5,5.9-15.1,9-22.6c4.3-10.4,8.8-20.9,14.8-30.4c2.9,7.1,7.2,13.9,13.8,17.7
				c4.5,2.5,9.6,3.5,14.7,4.2c9.4,1.4,19,2.1,28.4,0.7C410.9,330.5,417.5,328.4,423.3,324.9z"/>
			<path class="st5" d="M225.1,350.5c-0.5-2.2-0.9-4.4-1.4-6.6c-0.2-0.9-0.3-1.8,0.2-2.6c0.5-0.7,1.6-0.8,2.5-0.9c0.8,0,1.5,0,2.3,0
				c3.6,0.1,7.2,0.7,10.7,1.4c2.8,0.5,5.7,1,8.5,1.5c15.8,2.9,31.5,6.4,47,10.4c9.6,2.5,19.1,5.1,28.6,8c1.1,0.3,2.2,0.7,3.3,1
				c2.6,14.2,5.2,28.3,7.8,42.5c0.8,4.4,1.6,8.8,2.4,13.2c-13.7,0.8-27.3-2.9-41-4c-0.6,0-1.2-0.1-1.7,0.2c-1.4,0.8-0.7,3,0.4,4.2
				c0.2,0.2,0.4,0.4,0.5,0.6c-1.3,0.6-2.6,1.5-2.6,2.9c0,0.8,0.3,1.5,0.7,2.1c0.4,0.7,0.9,1.3,1.5,1.9c-0.9,0.8-1.7,1.8-1.8,3
				c-0.2,1.7,0.9,3.3,2,4.5c0.5,0.5,1,1,1.5,1.5c-0.9,1.9-0.5,4.4,0.8,6.2c1.5,2.1,3.8,3.4,6,4.6c7.8,4,16.3,6.9,24.9,8.6
				c4.8,0.9,9.8,1.5,14.6,2.4c2.3,8.7,4.2,17.5,5.9,26.3c1,5.4,1.9,10.7,2.6,16.2c0.1,0.8,0.2,1.6-0.1,2.3c-0.8,1.8-3.5,1.5-5.3,0.8
				c-23.1-7.8-46.1-15.7-69-23.8c-6.3-2.2-12.5-4.5-18.8-6.7c-2.9-1-6-2.2-7.8-4.7c-1.2-1.7-1.7-3.8-2.1-5.9
				c-7.1-33.9-14.2-67.8-21.3-101.7C226.4,356.7,225.7,353.6,225.1,350.5z"/>
			<path class="st7" d="M268.7,343.1c5.3,1.1,10.6,2.2,15.8,3.3c2.7,0.6,5.4,1.2,7.6,2.8c1.5,1.1,2.6,2.9,2.8,4.6
				c-15.5-4-31.2-7.5-47-10.4c0.1-1.2,0.8-2.4,1.8-2.9c1.8-0.9,3.9-0.5,5.9-0.1c0.6,0.1,1.1,0.2,1.7,0.4
				C261.1,341.5,264.9,342.3,268.7,343.1z"/>
			<path class="st5" d="M396.9,151.8c-10.3-2.8-21.4-3.2-31.6-0.1c-10.4,3.1-19.8,9.8-25.3,19.1c-3.5,5.9-5.3,12.6-7.1,19.3
				c-2.4,9.6-4.7,19.2-6.9,28.8c-1.4,6.2-2.9,12.5-2.8,18.9c0.2,12.9,7.4,25.5,18.4,32.3c6.6,4.1,14.3,6.1,22,7.3
				c-0.7,3.8-1.5,7.6-2.9,11.2c-14.5,1.8-28.4,7.4-41.3,14.3c-4.1,2.2-8.1,4.5-12.1,7c-17-15.1-26.7-39.7-18.7-60.9
				c6.3-16.8,22.2-28.5,28.8-45.2c4.4-11.2,4.3-23.7,7.3-35.3c4.8-18.6,17.9-34.9,35-43.5c17.2-8.6,38.1-9.3,55.8-2
				c1.3,0.5,2.6,1.1,4,1.1c1.5-0.1,2.9-0.8,4.2-1.5c13-6.7,29.3-5.3,42,1.9c12.7,7.2,21.9,19.7,26.7,33.5c4,11.4,5.3,23.8,10.8,34.7
				c4.1,8.2,10.4,15.1,15.2,22.9c12,19.5,13.9,44.4,6.7,66.1c-6.2,19-18.9,35.5-34.9,47.6c-15.5-13.5-33.9-23.6-53.6-29.3
				c-0.1,0-0.1,0-0.2,0c-3.3-18.5-4.1-37.7-2.4-56.6c7.4,1.8,15.5,2.8,22.4-0.2c7-3.1,12-11.6,8.7-18.5c-1.1-2.4-3-4.3-5.2-5.7
				c-8.9-6-22.2-4.2-29.1,4c1.2-7.6-0.4-15.7-4.4-22.2c-7.1-11.5-21.1-17.9-27.1-30.1c-2.8-5.7-3.7-12.3-2.3-18.5
				C397.2,151.9,397.1,151.9,396.9,151.8C397,151.9,397,151.8,396.9,151.8z"/>
			<path class="st4" d="M211.4,319.5c-2.5,3.6-4.9,7.3-7.4,10.9c-0.4,2.7-0.8,5.3-1.2,8c2.5-1.7,5.1-3.4,7.2-5.1
				c2-2.3,3.9-4.7,5.7-7.2c-0.1-0.1-0.2-0.2-0.3-0.3C213.8,323.9,212.2,321.9,211.4,319.5z M251,264.8c-3.8,5-7.6,10-11.4,15
				c-1.6,2.2-3.3,4.4-4.9,6.6c1.9,1.7,3.6,3.7,4.9,5.9c1.5-1.9,3-3.8,4.5-5.8c0.2-0.2,0.4-0.5,0.6-0.7c4.4-5.8,8.4-11.9,12.7-17.8
				C255.3,266.8,253.2,265.7,251,264.8z"/>
			<path class="st6" d="M334.7,405.3c0.8,4.4,1.6,8.8,2.4,13.2c-13.7,0.8-27.3-2.9-41-4c-0.6,0-1.2-0.1-1.7,0.2
				c-1.4,0.8-0.7,3,0.4,4.2c0.2,0.2,0.4,0.4,0.5,0.6c-1.3,0.6-2.6,1.5-2.6,2.9c0,0.8,0.3,1.5,0.7,2.1c0.4,0.7,0.9,1.3,1.5,1.9
				c-0.9,0.8-1.7,1.8-1.8,3c-0.2,1.7,0.9,3.3,2,4.5c0.5,0.5,1,1,1.5,1.5c-0.9,1.9-0.5,4.4,0.8,6.2c1.5,2.1,3.8,3.4,6,4.6
				c7.8,4,16.3,6.9,24.9,8.6c4.8,0.9,9.8,1.5,14.6,2.4c1.9,0.4,3.7,0.8,5.5,1.3c5.7,1.6,11.3,4.4,15.1,8.8
				c5.1-13.8,12.2-26.9,20.9-38.8c-5.1-1.6-10.3-3.2-15.2-5.6C357.6,417.1,347.3,407.3,334.7,405.3z M254,318.4
				c0.4-3.4,1.5-6.7,2.1-10.1c0.5-3.4,0.5-7.1-1.1-10.1c-1.7-3.1-4.9-5.1-7.5-7.6c-1.3-1.2-2.4-2.6-3.4-4c-1.5,1.9-3,3.9-4.5,5.8
				c-1.3-2.2-3-4.1-4.9-5.9c1.6-2.2,3.3-4.4,4.9-6.6c-0.6-0.9-1.2-1.7-1.8-2.6c-1.2-1.6-3-3.2-4.9-2.8c-1.2,0.3-2.1,1.3-2.6,2.4
				c-1,2-0.9,4.5,0.1,6.5c-0.5-0.3-1.1-0.5-1.7-0.6c-1.5-0.3-3.3,0.2-4.2,1.5c-1.1,1.7-0.3,4,0.6,5.7c0.2,0.5,0.5,0.9,0.8,1.4
				l-0.5,0.3c-2.2-1.2-5.2,0.6-5.9,3.1c-0.7,2.3-0.1,4.8,0.8,7.1l-0.3,0.1c-2.1,0.3-4.2,1.4-5.1,3.3c-0.7,1.5-0.6,3.2-0.1,4.9
				l-0.4,0.1c-2.8,1.3-3.9,4.9-3.3,7.9c0.1,0.5,0.3,1.1,0.4,1.6c0.8,2.4,2.4,4.4,4,6.4c0.1,0.1,0.2,0.2,0.3,0.3
				c2.1,2.5,4.4,4.9,7.4,6.2c1.4,0.6,3.2,0.8,4.2-0.2c0,0,0.1-0.1,0.1-0.1c0.3,2.7,0.8,6.1,1.3,8.3l0,0.1c3.6,0.1,7.2,0.7,10.7,1.4
				c2.8,0.5,5.7,1,8.5,1.5c0.1-1.2,0.8-2.4,1.8-2.9c1.8-0.9,3.9-0.5,5.9-0.1c0.6,0.1,1.1,0.2,1.7,0.4
				C256.4,334.3,253.2,324.8,254,318.4z M465.5,224.4c-1.1-2.4-3-4.3-5.2-5.7c-8.9-6-22.2-4.2-29.1,4c1.2-7.6-0.4-15.7-4.4-22.2
				c-7.1-11.5-21.1-17.9-27.1-30.1c-2.8-5.7-3.7-12.3-2.3-18.5c-0.1,0-0.2-0.1-0.4-0.1c0,0-0.1,0-0.1,0c0,0,0,0,0.1,0
				c-10.3-2.8-21.4-3.2-31.6-0.1c-10.4,3.1-19.8,9.8-25.3,19.1c-3.5,5.9-5.3,12.6-7.1,19.3c-2.4,9.6-4.7,19.2-6.9,28.8
				c-1.4,6.2-2.9,12.5-2.8,18.9c0.2,12.9,7.4,25.5,18.4,32.3c6.6,4.1,14.3,6.1,22,7.3c-0.7,3.8-1.5,7.6-2.9,11.2
				c-0.8,2.1-1.8,4.1-3,6c-1.3,2-2.9,3.8-4.4,5.6c-2.3,2.8-4.4,5.8-6.3,8.8c2.9,7.1,7.2,13.9,13.8,17.7c4.5,2.5,9.6,3.5,14.7,4.2
				c9.4,1.4,19,2.1,28.4,0.7c6.7-1,13.4-3.1,19.1-6.6c4.4-8.4,9-16.8,13.6-25.1c-0.1,0-0.1,0-0.2,0c-3.3-18.5-4.1-37.7-2.4-56.6
				c7.4,1.8,15.5,2.8,22.4-0.2C463.8,239.9,468.8,231.3,465.5,224.4z"/>
			<path class="st7" d="M255,470.9c-36.5,7.8-51-22.6-56.2-40.2c-0.1,2-0.1,4,0,5.9c0.2,7.6,1.2,15.2,4.3,22.1
				c5.7,12.8,17.9,21.8,31.3,25.9c8.9,2.7,18.6,3.5,27.7,1.2c5.4-1.3,10.5-3.7,14.9-7.1c-6.3-2.2-12.5-4.5-18.8-6.7
				C257.1,471.8,256,471.4,255,470.9z M455,499.7c-45.9-7.5-76.8-34.7-86.5-44.4c-1.8,3.9-3.5,7.8-4.9,11.8c-1.3,3.5-2.5,7-3.5,10.5
				c5.7,3.6,11.5,7.1,17.3,10.4c12.8,7.2,26,13.5,39.9,18.2c20.1,6.7,41.7,10,62.6,6.9c8.1-1.2,16.1-3.4,23.2-7.4
				c9.9-5.6,17.3-14.3,22.5-24.4C511.4,492.7,487.6,505.1,455,499.7z M426,436.6c1.6,0.7,3.3,1.4,4.9,2c5.5,2.1,11.2,4,17,5.1
				c4.9-12,9.2-24.2,12.7-36.7C460.1,408.3,447.6,437.3,426,436.6z M424.3,406.2c-4.8,7.7-9.6,15.4-14.3,23.1l3.4,1.6
				c1.2-1.1,2.3-2.4,3.2-3.6c3.1-4.2,6.1-8.3,9.2-12.5c1.9-2.6,3.9-5.4,4.6-8.6c0.7-3.5-0.2-7-1.1-10.4c-1.2-4.3-2.3-8.7-3.5-13
				c-0.4-1.6-0.8-3.3-0.3-4.8c0.5-1.4,1.8-2.4,3.1-3.3c5.6-4,11.2-8.1,16.8-12.1c1.2-0.9,2.5-1.9,3.2-3.3c0.6-1.4,0.5-3,0.3-4.5
				c-1.4-11.6-3.5-23.1-5.5-35.1c0.6,12.3,1.2,24.5,1.8,36.8c0.1,1.1,0.1,2.2-0.3,3.2c-0.5,1.3-1.7,2.1-2.9,2.8
				c-5.3,3.4-10.8,6.5-16.5,9.2c-0.8,0.4-1.5,0.7-2,1.4c-0.5,0.7-0.6,1.6-0.6,2.5c-0.3,7.2,2.1,14.3,3.5,21.4
				c0.3,1.5,0.6,3.1,0.3,4.7C426.1,403.3,425.2,404.8,424.3,406.2z M316,332.7c7-8.4,14.1-16.8,21.1-25.2
				c-8.1,7-16.4,14.6-24.5,22.3c-0.7,0.7-1.5,1.4-1.8,2.4c-0.3,1.1,0,2.3,0.4,3.4l2.2,6.7c0.6,1.9,1.2,3.8,1.2,5.7
				c0,3.5-2,6.6-3.2,9.9l1.4,0.3c1.5-2.1,2.9-4.1,4.4-6.2c0.5-0.7,1-1.4,1.2-2.3c0.3-1.1-0.1-2.3-0.4-3.5c-0.9-3.2-1.9-6.3-2.8-9.5
				c-0.2-0.7-0.4-1.4-0.3-2.1C314.9,334,315.4,333.4,316,332.7z"/>
			<path class="st8" d="M395.4,276.8c-8.9,2.4-18.3,2-27.4,0.9c-1.4-0.2-2.8-0.3-4.1-0.6c-0.7,3.8-1.5,7.6-2.9,11.2
				c-0.5,1.4-1.1,2.7-1.8,3.9c11.6,0.9,23.6-0.3,34.1-5.3c10.1-4.7,18.8-13.2,22.4-23.7C411,270.1,403.4,274.7,395.4,276.8z
				 M458.2,227.2c-0.9-2-2.7-3.4-4.8-4c-2.1-0.6-4.3-0.5-6.4,0c-3.9,0.9-7.7,3.4-9.1,7.2c0.1,0.1,0.7,0.7,1.3,0.8
				c0.6,0,1.2-0.3,1.8-0.6c1.6-0.9,3.1-2,4.7-2.7c1.7-0.7,3.6-1,5.3-0.4c1.5,0.5,2.6,1.6,3.9,2.6c0.7,0.5,1.4,0.9,2.2,0.7
				c0.7-0.2,1.1-0.8,1.3-1.5C458.7,228.6,458.5,227.9,458.2,227.2z"/>
			<path class="st5" d="M351.8,193.7c-0.9-0.5-2-0.3-2.9,0c-3.2,1.1-5.4,4.4-5.4,7.8c0,0.6,0.1,1.3,0.4,1.9c0.4,0.9,1.3,1.7,2.3,2
				c1,0.3,2.1,0.1,3-0.5c2.1-1.4,4.2-4.3,4.3-7.6C353.4,195.9,353,194.4,351.8,193.7z M395.5,200.1c-0.9-0.4-2-0.2-2.9,0.1
				c-3.1,1.3-5.3,4.6-5,8c0,0.6,0.2,1.3,0.4,1.8c0.5,0.9,1.3,1.6,2.3,1.9c1,0.3,2.1,0,3-0.6c2-1.5,4-4.5,4-7.8
				C397.2,202.2,396.7,200.7,395.5,200.1z"/>
			<path class="st5" d="M359.4,174.1c-1.8-0.9-3.8-1.2-5.8-1.3c-2-0.1-4.1,0.1-6.1,0.5c-1.3,0.3-2.7,0.6-3.8,1.4
				c-1.1,0.8-1.9,2.1-1.8,3.5c0,0.3,0.1,0.6,0.3,0.8c0.3,0.3,0.8,0.4,1.3,0.3c1.8-0.1,3.4-0.9,5.2-1.2c3.4-0.7,7.1,0,10,1.8
				c1.5,1,3,2.3,4.8,2c0.5-0.9,0.5-2.4,0.1-3.6C362.8,176.5,361.2,175,359.4,174.1z M408.9,188.9c-0.1-3.8-3.5-6.7-7-8
				c-4.6-1.7-9.8-1.6-14.2,0.5c-0.8,0.4-1.5,0.8-2.1,1.5c-0.5,0.7-0.7,1.7-0.3,2.4c0.4,0.7,1.6,1,1.9,0.7c4.3-1.2,9.2-1.6,13.1,0.7
				c1.8,1.1,3.3,2.7,5,3.9c0.8,0.6,1.9,1.1,2.8,0.6C408.7,190.6,408.9,189.7,408.9,188.9z"/>
			<path d="M348.6,458c-1.6-0.5-3.4-0.9-5.6-1.3c-2.4-0.5-4.9-0.8-7.3-1.2c-2.4-0.4-4.8-0.7-7.2-1.2c-8.6-1.6-17-4.5-24.8-8.5
				c-2.1-1.1-4.4-2.4-5.9-4.5c-1.1-1.6-1.5-3.6-0.9-5.3c3.4,3,7.7,5.4,13,7.2c3.1,1,6.3,1.8,9.6,2.3c0,0,0,0,0.1,0
				c0.2,0,0.4-0.1,0.4-0.3c0-0.2-0.1-0.4-0.3-0.5c-3.2-0.5-6.4-1.3-9.4-2.3c-5.4-1.8-9.8-4.3-13.2-7.4c-0.5-0.5-1-0.9-1.5-1.5
				c-1.5-1.6-2.1-3-1.9-4.2c0.1-0.8,0.6-1.6,1.4-2.5c1.3,1.3,2.8,2.4,4,3.2c7,4.8,15.2,7.9,23.6,9.1c0,0,0,0,0.1,0
				c0.2,0,0.4-0.1,0.4-0.3c0-0.2-0.1-0.4-0.3-0.5c-8.3-1.2-16.3-4.3-23.3-9c-1.2-0.8-2.8-2-4.1-3.4c-0.5-0.6-1-1.2-1.4-1.8
				c-0.5-0.7-0.7-1.3-0.7-1.9c0-0.9,0.8-1.7,2.1-2.4c2.4,2.4,5.6,3.9,8.4,5.2c7.7,3.4,15.8,5.7,24.1,6.8c0,0,0,0,0.1,0
				c0.2,0,0.4-0.1,0.4-0.3c0-0.2-0.1-0.4-0.3-0.5c-8.2-1.2-16.2-3.4-23.9-6.8c-2.8-1.2-6-2.8-8.4-5.2c-0.2-0.2-0.3-0.4-0.5-0.6
				c-0.6-0.7-1.2-1.9-1-2.7c0.1-0.4,0.2-0.6,0.6-0.8c0.4-0.2,0.9-0.2,1.4-0.1c5,0.4,10.1,1.2,15,1.9c8.5,1.3,17.3,2.6,26,2.1
				c0.8,0,1.6-0.1,2.3-0.2c0.2,0,0.4-0.2,0.4-0.4c0-0.2-0.2-0.4-0.4-0.4c-0.7,0.1-1.5,0.1-2.3,0.2c-8.6,0.5-17.4-0.8-25.8-2.1
				c-4.9-0.7-10.1-1.5-15.1-1.9c-0.6-0.1-1.3-0.1-1.9,0.2c-0.5,0.3-0.9,0.8-1,1.4c-0.2,1.2,0.5,2.6,1.2,3.4c0.1,0.1,0.1,0.1,0.2,0.2
				c-1.5,0.8-2.3,1.8-2.4,3c0,0.9,0.4,1.8,0.8,2.3c0.4,0.6,0.8,1.1,1.3,1.7c-0.7,0.7-1.5,1.7-1.7,3c-0.2,1.5,0.5,3.1,2.1,4.9
				c0.5,0.5,0.9,0.9,1.3,1.4c-0.8,1.9-0.4,4.4,0.9,6.3c1.5,2.2,4,3.6,6.2,4.7c7.9,4.1,16.3,6.9,25,8.6c2.4,0.5,4.9,0.8,7.3,1.2
				c2.4,0.4,4.9,0.7,7.3,1.2c2.1,0.4,3.9,0.8,5.5,1.3c6.4,1.8,11.6,4.8,15,8.6c0.1,0.1,0.2,0.1,0.3,0.1c0.1,0,0.2,0,0.3-0.1
				c0.2-0.1,0.2-0.4,0-0.6C360.4,463,355.1,459.9,348.6,458z M240,292.1c-1.3-2.1-3-4.1-5-5.9c-0.6-0.6-1.3-1.1-2-1.7
				c-0.7-0.6-1.6-1.2-2.5-1.6c-0.6-0.3-1.2-0.5-1.8-0.6c-0.2,0-0.4,0.1-0.5,0.3c0,0.2,0.1,0.4,0.3,0.5c0.5,0.1,1.1,0.3,1.6,0.5
				c0.9,0.4,1.7,1,2.4,1.6c0.7,0.5,1.3,1.1,1.9,1.6c2,1.8,3.6,3.7,4.8,5.8c0.8,1.3,1.4,2.7,1.9,4c0.6,1.7,1.2,4-0.3,5.2
				c-1.6,1.4-4.1,0.1-4.9-0.3c-0.1,0-0.1-0.1-0.2-0.1c-0.7-0.4-1.4-0.9-2.1-1.4c-0.9-0.7-1.8-1.5-2.6-2.4c-0.8-0.8-1.6-1.7-2.3-2.7
				c-1-1.2-1.8-2.5-2.6-3.8c-0.1-0.2-0.4-0.3-0.5-0.1c-0.2,0.1-0.3,0.4-0.1,0.5c0.8,1.3,1.7,2.6,2.7,3.9c0.8,1,1.6,1.9,2.4,2.7
				c0.9,0.9,1.8,1.8,2.7,2.5c0.6,0.5,1.2,0.9,1.9,1.3c0,0.1,0,0.1,0,0.2c1.4,3,2,6.4,1.7,9.7c-0.1,1.2-0.6,4.1-2.6,4.9
				c-0.9,0.3-1.9,0.2-3-0.3c-0.8-0.4-1.5-0.9-2.3-1.6c-1-1-2-2.1-3-3.2c-1.5-1.9-2.9-4.2-4-6.8c-0.4-0.9-0.8-1.9-1.2-2.8
				c0-0.1-0.1-0.2-0.1-0.3c-0.1-0.2-0.3-0.3-0.5-0.3c-0.2,0.1-0.3,0.3-0.3,0.5c0,0.1,0.1,0.3,0.1,0.4c0.4,0.9,0.8,1.9,1.2,2.8
				c1.2,2.6,2.6,4.9,4.1,6.9c0.9,1.2,2,2.3,3.1,3.3c0.8,0.7,1.6,1.3,2.4,1.7c0.6,1.4,0.9,3,0.9,4.5c0,1.2-0.2,2.1-0.8,2.6
				c-0.6,0.5-1.4,0.7-2.4,0.4c-0.8-0.2-1.6-0.6-2.1-0.9c-2-1.3-3.9-2.8-5.6-4.5c-1.8-1.9-3.4-4-4.6-6.3c-0.1-0.1-0.1-0.3-0.2-0.4
				l-0.1-0.1c-0.4-0.8-0.7-1.6-1-2.3c-0.1-0.2-0.3-0.3-0.5-0.3c-0.2,0.1-0.3,0.3-0.3,0.5c0.2,0.8,0.6,1.6,1,2.4l0.1,0.1
				c0.1,0.1,0.1,0.3,0.2,0.4c1.3,2.3,2.8,4.5,4.7,6.5c1.7,1.8,3.6,3.3,5.7,4.6c0.5,0.3,1.4,0.8,2.3,1c0.4,0.1,0.8,0.2,1.2,0.2
				c0.8,0,1.5-0.2,2-0.7c0.7-0.7,1-1.7,1-3.2c0-1.4-0.3-2.8-0.7-4.1c0.5,0.2,1,0.2,1.4,0.2c0.5,0,0.9-0.1,1.4-0.3
				c2.4-0.9,3-3.9,3.2-5.6c0.3-3.2-0.2-6.4-1.5-9.4c1,0.5,2,0.7,2.8,0.7c0.9,0,1.7-0.3,2.4-0.8c1.8-1.5,1.1-4.2,0.5-6.1
				C241.4,294.9,240.8,293.5,240,292.1z M474.8,443.6c-0.1-0.2-0.3-0.3-0.5-0.3c-7.7,2-16.4,2.1-25.8,0.2
				c5.6-13.8,10.5-28.2,14.4-42.6c0.1-0.2-0.1-0.4-0.3-0.5c-0.2-0.1-0.4,0.1-0.5,0.3c-3.9,14.5-8.7,28.9-14.4,42.7
				c-5.2-1.1-10.7-2.7-16.6-5.1c-5.9-2.3-11.8-5.1-17.5-7.7c-7.1-3.3-14.4-6.7-21.9-9.4c-0.4-0.2-0.9-0.3-1.3-0.5l-0.1,0
				c-0.2-0.1-0.4,0-0.5,0.2c-0.1,0.2,0,0.4,0.2,0.5l0.1,0c0.4,0.1,0.9,0.3,1.3,0.5c7.5,2.6,14.8,6.1,21.9,9.3
				c5.7,2.7,11.6,5.4,17.6,7.8c6.1,2.4,11.6,4.1,17,5.2c4.8,1,9.3,1.5,13.7,1.5c4.6,0,8.9-0.5,13-1.6
				C474.7,444,474.8,443.8,474.8,443.6z M357.1,226.2c0.1,0.1,0.2,0.2,0.3,0.2c0.1,0,0.2,0,0.2-0.1c0.2-0.1,0.2-0.4,0.1-0.6l-3-4.1
				c-0.4-0.6-0.8-1.1-0.8-1.6c0-0.8,0.8-1.5,1.4-2c3.3-2.9,6-6.3,8.1-10.2c0.1-0.2,0-0.4-0.2-0.5c-0.2-0.1-0.4,0-0.5,0.2
				c-2,3.8-4.7,7.1-7.9,9.9c-0.7,0.6-1.6,1.4-1.6,2.6c0,0.9,0.5,1.6,0.9,2.1L357.1,226.2z M372.9,239.1c-0.2-0.1-0.4,0-0.5,0.2
				c-0.9,1.6-2.6,3-4.7,3.6c-1.7,0.5-3.6,0.7-6.2,0.5c-3.3-0.2-6-1-8.1-2.2c-2.6-1.5-4.4-3.9-4.8-6.4c0-0.2-0.2-0.4-0.5-0.3
				c-0.2,0-0.4,0.2-0.3,0.5c0.4,2.8,2.4,5.4,5.2,7c2.2,1.3,5,2.1,8.4,2.3c0.7,0,1.3,0.1,1.9,0.1c1.8,0,3.2-0.2,4.6-0.6
				c2.3-0.7,4.2-2.2,5.1-4C373.2,239.5,373.1,239.3,372.9,239.1z"/>
			<path class="st2" d="M450.3,361.4c-0.7-0.1-1.3,0.3-1.4,1c-2.6,16.1-7.3,30.8-14,43.6c-2.2,4.1-4.7,8.2-8.6,10.3
				c-4,2.2-9.5,2.2-14.7,0c-0.6-0.3-1.3,0-1.6,0.6c-0.3,0.6,0,1.3,0.6,1.6c2.9,1.2,5.8,1.8,8.7,1.8c2.9,0,5.7-0.7,8.1-2
				c4.5-2.5,7.2-6.9,9.5-11.3c6.9-13,11.7-28,14.3-44.3C451.4,362.1,450.9,361.5,450.3,361.4z M401.6,410.6
				c-3.9-2.1-6.7-6.6-7.4-11.7c-0.6-4.3,0.1-9,2.2-14.6c4.9-13.3,14.7-24,24.5-33.7c0.5-0.5,0.5-1.2,0-1.7c-0.5-0.5-1.2-0.5-1.7,0
				c-10,9.8-20,20.8-25.1,34.5c-2.2,5.9-2.9,11-2.3,15.7c0.8,5.9,4,11,8.6,13.4c0.2,0.1,0.4,0.1,0.6,0.1c0.4,0,0.8-0.2,1.1-0.6
				C402.4,411.7,402.2,410.9,401.6,410.6z M441.7,338.3c-0.3,0.8,0.1,1.7,0.9,2.1c0.2,0.1,0.4,0.1,0.6,0.1c0.6,0,1.2-0.4,1.5-1
				c0.2-0.5,4.3-11.5,4.9-24.5c0.8-16.4-4.6-28.5-15.4-35.2c0.1,1.4,0.2,2.7,0.4,4.1C456,299.9,441.9,337.9,441.7,338.3z M312,344.3
				c-1.6-0.2-3.3-0.1-4.8,0.4c-4.1,1.4-7.1,5.8-6.9,10.1l18.6,5.8c2.6-3.5,2.7-8.7,0.1-12.3c-1-1.4-2.3-2.4-3.9-3.1
				c3.6-9.1,23-56.2,47.3-61.6c0.3-1.1,0.6-2.3,0.8-3.4C336,284.5,315.6,335,312,344.3z"/>
			<path d="M308.4,349.6c-2.5,0.9-4.2,3.6-4.1,6.2l0,0.5l10.9,3c1.7-2.1,1.8-5.2,0.2-7.4C314,349.7,310.9,348.7,308.4,349.6z
				 M448.9,343.1c-1.2-1.7-2.8-3.2-4.7-3.8c-1.2-0.4-2.4-0.4-3.7-0.4c-8.6,0.3-17.1,3.9-23.3,9.9c0,1,2.6,2.4,3.8,3.8
				c0.3,0.3,0.7,0.7,1.1,0.6c0.3,0,0.5-0.2,0.7-0.4c2.9-2.5,5.8-5.1,9.3-6.6c3.5-1.5,7.9-1.6,10.9,0.7c2.1,1.6,3.3,4.1,3.8,6.6
				c0.5,2.5,0.5,5.2,0.5,7.8c0,0.4,0,0.9,0.4,1.1c0.2,0.1,0.4,0.1,0.6,0.2c1.2,0.2,2.3,0.3,3.6,0.5S453.1,348.8,448.9,343.1z
				 M404.5,410.8c-0.2-0.1-0.5-0.1-0.7-0.1c-0.4-0.1-0.9-0.2-1.3-0.3c-0.3-0.1-0.7-0.3-1-0.1c-0.2,0.1-0.2,0.4-0.4,0.6
				c-0.1,0.2-0.2,0.3-0.3,0.4c-0.3,0.4-0.6,0.9-0.9,1.2c-0.1,0.1-0.1,0.1-0.2,0.2c0,0.1,0.1,0.3,0.2,0.4c0.5,0.6,1.2,1,1.7,1.5
				c0.2,0.3,0.5,0.6,0.8,0.6c0.3,0,0.6-0.2,0.8-0.5c0.8-0.9,1.4-2,1.8-3.1c0-0.1,0.1-0.3,0.1-0.4C405,411.1,404.8,410.9,404.5,410.8
				z M410.2,414.5c-0.2-0.3-0.5-0.6-0.9-0.6c-0.3,0-0.6,0.2-0.8,0.5c-0.8,0.9-1.4,2-1.8,3.1c0,0.1-0.1,0.3-0.1,0.4
				c0,0.2,0.2,0.4,0.5,0.5c0.2,0.1,0.5,0.1,0.7,0.1c0.4,0,0.9,0.1,1.3,0.3c0.3,0.1,0.7,0.3,1,0.1c0.2-0.1,0.2-0.4,0.4-0.6
				c0.1-0.2,0.2-0.3,0.3-0.4c0.3-0.4,0.5-0.9,0.9-1.2c0.1-0.1,0.1-0.1,0.2-0.2c0-0.1-0.1-0.3-0.2-0.4
				C411.4,415.4,410.8,415,410.2,414.5z"/>
		</g>
	</g>
</g>
<path class="st9" d="M584.7,252.2l-5.8,5.8c-1,1-2.6,1-3.7,0l-5.8-5.8c-1-1-1-2.6,0-3.7l5.8-5.8c1-1,2.6-1,3.7,0l5.8,5.8
	C585.7,249.6,585.7,251.2,584.7,252.2"/>
<path class="st10" d="M817.3,261.1l-11.1,11.1c-1.9,1.9-5,1.9-7,0l-11.1-11.1c-1.9-1.9-1.9-5,0-7l11.1-11.1c1.9-1.9,5-1.9,7,0
	l11.1,11.1C819.2,256.1,819.2,259.2,817.3,261.1"/>
<path class="st10" d="M566,190.6l-11.1,11.1c-1.9,1.9-5,1.9-7,0l-11.1-11.1c-1.9-1.9-1.9-5,0-7l11.1-11.1c1.9-1.9,5-1.9,7,0
	l11.1,11.1C568,185.6,568,188.7,566,190.6"/>
<path class="st11" d="M277.5,160.4l-11.4,11.4c-2,2-5.2,2-7.1,0l-11.4-11.4c-2-2-2-5.2,0-7.1l11.4-11.4c2-2,5.2-2,7.1,0l11.4,11.4
	C279.4,155.3,279.4,158.5,277.5,160.4"/>
</svg>
