<svg width="293" height="191" viewBox="0 0 293 191" fill="none" xmlns="http://www.w3.org/2000/svg">
<path d="M286.096 188.527L292.696 188.527L292.696 0.127441L286.096 0.127441L286.096 188.527Z" fill="#283983"/>
<path d="M255.8 22C255.2 22 254.7 21.4999 254.7 20.8999C254.7 20.2999 255.2 19.7998 255.8 19.7998H289.5C290.1 19.7998 290.6 20.2999 290.6 20.8999C290.6 21.4999 290.1 22 289.5 22H255.8Z" fill="#283983"/>
<path d="M255.8 21.2002H289.5C289.7 21.2002 289.8 21.0999 289.8 20.8999C289.8 20.6999 289.7 20.6001 289.5 20.6001H255.8C255.6 20.6001 255.5 20.6999 255.5 20.8999C255.5 21.0999 255.6 21.2002 255.8 21.2002Z" fill="#283983"/>
<path d="M255.8 141.3C255.2 141.3 254.7 140.8 254.7 140.2C254.7 139.6 255.2 139.1 255.8 139.1H289.5C290.1 139.1 290.6 139.6 290.6 140.2C290.6 140.8 290.1 141.3 289.5 141.3H255.8Z" fill="#283983"/>
<path d="M255.8 140.6H289.5C289.7 140.6 289.8 140.5 289.8 140.3C289.8 140.1 289.7 140 289.5 140H255.8C255.6 140 255.5 140.1 255.5 140.3C255.5 140.4 255.6 140.6 255.8 140.6Z" fill="#283983"/>
<path d="M242.474 188.529L269.173 188.529L269.173 160.829L242.474 160.829L242.474 188.529Z" fill="white"/>
<path d="M254.7 150H257V8.5C257 3.9 253.3 0.200195 248.7 0.200195H146.5C143.2 0.200195 140.6 2.8001 140.6 6.1001C140.6 9.4001 143.2 12 146.5 12H184.3C186.3 12 188 13.6002 188 15.7002C188 17.8002 186.4 19.3999 184.3 19.3999H172.5C167.5 19.3999 163.5 23.3999 163.5 28.3999V62.3999H165.8V28.3999C165.8 24.6999 168.8 21.7002 172.5 21.7002H184.3C187.6 21.7002 190.3 19.0002 190.3 15.7002C190.3 12.4002 187.6 9.7002 184.3 9.7002H146.5C144.5 9.7002 142.9 8.1001 142.9 6.1001C142.9 4.1001 144.5 2.5 146.5 2.5H248.7C252 2.5 254.7 5.2 254.7 8.5V150Z" fill="white"/>
<path d="M255.8 56C263.366 56 269.5 49.8661 269.5 42.2998C269.5 34.7335 263.366 28.6001 255.8 28.6001C248.234 28.6001 242.1 34.7335 242.1 42.2998C242.1 49.8661 248.234 56 255.8 56Z" fill="white"/>
<path d="M254.4 43.5C257.9 43.1 261.4 42.0999 264.9 41.8999C265.9 41.8999 267 41.9 268 42C268 42.1 268 42.1002 268 42.2002C268 48.9002 262.5 54.3999 255.8 54.3999C249.1 54.3999 243.6 48.9002 243.6 42.2002C243.6 41.8002 243.6 41.4 243.7 41C243.9 41.2 244.1 41.3 244.3 41.5C247.1 43.6 250.9 43.9 254.4 43.5Z" fill="#EE5A94"/>
<path opacity="0.77" d="M247.9 31.1001C246.6 33.2001 245.9 35.6002 245.9 38.2002C245.9 45.8002 252.1 51.8999 259.6 51.8999C262.5 51.8999 265.3 50.9999 267.5 49.3999C265.1 53.3999 260.7 56 255.8 56C248.2 56 242.1 49.7998 242.1 42.2998C242.1 37.5998 244.4 33.5001 247.9 31.1001Z" fill="#F2F2F2"/>
<path d="M255.8 93.2998C263.366 93.2998 269.5 87.1664 269.5 79.6001C269.5 72.0338 263.366 65.8999 255.8 65.8999C248.234 65.8999 242.1 72.0338 242.1 79.6001C242.1 87.1664 248.234 93.2998 255.8 93.2998Z" fill="white"/>
<path d="M257.2 80.8999C253.7 80.4999 250.2 79.4998 246.7 79.2998C245.7 79.2998 244.6 79.2999 243.6 79.3999C243.6 79.4999 243.6 79.5001 243.6 79.6001C243.6 86.3001 249.1 91.7998 255.8 91.7998C262.5 91.7998 268 86.3001 268 79.6001C268 79.2001 268 78.7999 267.9 78.3999C267.7 78.5999 267.5 78.6999 267.3 78.8999C264.5 80.9999 260.7 81.2999 257.2 80.8999Z" fill="#EE5A94"/>
<path opacity="0.77" d="M250.9 66.7998C248.8 69.1998 247.5 72.3999 247.5 75.8999C247.5 83.4999 253.7 89.6001 261.2 89.6001C262.9 89.6001 264.6 89.3002 266.1 88.7002C263.6 91.6002 259.9 93.3999 255.8 93.3999C248.2 93.3999 242.1 87.2002 242.1 79.7002C242.1 73.8002 245.7 68.7998 250.9 66.7998Z" fill="#F2F2F2"/>
<path d="M255.8 130.7C263.366 130.7 269.5 124.566 269.5 117C269.5 109.434 263.366 103.3 255.8 103.3C248.234 103.3 242.1 109.434 242.1 117C242.1 124.566 248.234 130.7 255.8 130.7Z" fill="white"/>
<path d="M254.4 118.2C257.9 117.8 261.4 116.8 264.9 116.6C265.9 116.6 267 116.6 268 116.7C268 116.8 268 116.8 268 116.9C268 123.6 262.5 129.1 255.8 129.1C249.1 129.1 243.6 123.6 243.6 116.9C243.6 116.5 243.6 116.1 243.7 115.7C243.9 115.9 244.1 116 244.3 116.2C247.1 118.3 250.9 118.6 254.4 118.2Z" fill="#EE5A94"/>
<path opacity="0.77" d="M249.4 104.8C247.7 107.1 246.7 109.9 246.7 113C246.7 120.6 252.9 126.7 260.4 126.7C262.7 126.7 264.9 126.1 266.8 125.1C264.3 128.5 260.3 130.7 255.8 130.7C248.2 130.7 242.1 124.5 242.1 117C242.1 111.7 245 107.1 249.4 104.8Z" fill="#F2F2F2"/>
<path d="M204.443 147.97C226.43 125.984 226.43 90.3374 204.444 68.3511C182.457 46.3648 146.81 46.3646 124.824 68.3509C102.838 90.3372 102.838 125.984 124.824 147.971C146.81 169.957 182.457 169.957 204.443 147.97Z" fill="white"/>
<path d="M155.292 66.8652L174.192 66.8652L174.192 41.2651L155.292 41.2651L155.292 66.8652Z" fill="white"/>
<path d="M154.3 43.7998H175.2C176.9 43.7998 178.3 42.4002 178.3 40.7002C178.3 39.0002 176.9 37.6001 175.2 37.6001H154.3C152.6 37.6001 151.2 39.0002 151.2 40.7002C151.2 42.4002 152.5 43.7998 154.3 43.7998Z" fill="white"/>
<path d="M158.7 113.6C173.8 111.9 188.5 107.6 203.7 106.9C208.1 106.7 212.5 106.9 216.9 107.4C216.9 107.7 216.9 108 216.9 108.2C216.9 137.1 193.5 160.5 164.6 160.5C135.7 160.5 112.3 137.1 112.3 108.2C112.3 106.4 112.4 104.7 112.6 102.9C113.4 103.6 114.2 104.3 115.1 104.9C127.3 114 143.7 115.3 158.7 113.6Z" fill="#EE5A94"/>
<path d="M158.7 113.6C173.8 111.9 188.5 107.6 203.7 106.9C208.1 106.7 212.5 106.9 216.9 107.4C216.9 107.7 216.9 108 216.9 108.2C216.9 137.1 193.5 160.5 164.6 160.5C135.7 160.5 112.3 137.1 112.3 108.2C112.3 106.4 112.4 104.7 112.6 102.9C113.4 103.6 114.2 104.3 115.1 104.9C127.3 114 143.7 115.3 158.7 113.6Z" fill="#EE5A94"/>
<path opacity="0.77" d="M128.9 64.7998C124.5 72.7998 122 81.9998 122 91.7998C122 122.9 147.2 148.1 178.3 148.1C191.9 148.1 204.4 143.3 214.1 135.2C204.5 152.6 186 164.5 164.7 164.5C133.6 164.5 108.4 139.3 108.4 108.2C108.4 90.8002 116.4 75.1998 128.9 64.7998Z" fill="#F2F2F2"/>
<path d="M106.747 145.001L226.247 145.001L226.247 136.901L106.747 136.901L106.747 145.001Z" fill="#283983"/>
<path d="M226.6 190.4L227 190.2C227.4 190 227.8 189.6 228 189.2C228.2 188.7 228.2 188.2 228 187.7L208.1 140.1C207.8 139.4 207.1 138.9 206.3 138.9H205.9L205.5 139.1C204.6 139.5 204.1 140.6 204.5 141.6L224.4 189.2C224.7 189.9 225.4 190.4 226.2 190.4H226.6Z" fill="#283983"/>
<path d="M226.2 188.8H226.3C226.4 188.7 226.5 188.6 226.5 188.4L206.6 140.8C206.5 140.7 206.4 140.6 206.2 140.6C206.1 140.7 206 140.8 206 141L225.9 188.6C226 188.7 226.1 188.8 226.2 188.8Z" fill="#283983"/>
<path d="M103.8 190.4C104.6 190.4 105.3 189.9 105.6 189.2L125.5 141.6C125.9 140.6 125.4 139.5 124.5 139.1L124.2 139H123.8C123 139 122.3 139.5 122 140.2L102.1 187.8C101.9 188.3 101.9 188.8 102.1 189.3C102.3 189.8 102.7 190.1 103.1 190.3L103.4 190.4H103.8Z" fill="#283983"/>
<path d="M103.8 188.8C103.9 188.8 104 188.7 104.1 188.6L124 141C124.1 140.9 124 140.7 123.8 140.6C123.7 140.5 123.5 140.6 123.4 140.8L103.5 188.4C103.4 188.5 103.5 188.7 103.7 188.8C103.7 188.8 103.7 188.8 103.8 188.8Z" fill="#283983"/>
<path d="M134.206 188.477L195.906 188.477L195.906 179.377L134.206 179.377L134.206 188.477Z" fill="#283983"/>
<path d="M158.8 76.5C160.899 76.5 162.6 74.7989 162.6 72.7002C162.6 70.6015 160.899 68.8999 158.8 68.8999C156.701 68.8999 155 70.6015 155 72.7002C155 74.7989 156.701 76.5 158.8 76.5Z" fill="#EE5A94"/>
<path d="M185.1 90.3999C186.978 90.3999 188.5 88.8778 188.5 87C188.5 85.1222 186.978 83.6001 185.1 83.6001C183.222 83.6001 181.7 85.1222 181.7 87C181.7 88.8778 183.222 90.3999 185.1 90.3999Z" fill="#EE5A94"/>
<path d="M188.5 125.9C190.378 125.9 191.9 124.378 191.9 122.5C191.9 120.622 190.378 119.1 188.5 119.1C186.622 119.1 185.1 120.622 185.1 122.5C185.1 124.378 186.622 125.9 188.5 125.9Z" fill="white"/>
<path d="M164.6 134.2C165.981 134.2 167.1 133.081 167.1 131.7C167.1 130.319 165.981 129.2 164.6 129.2C163.219 129.2 162.1 130.319 162.1 131.7C162.1 133.081 163.219 134.2 164.6 134.2Z" fill="white"/>
<path d="M145.5 125C146.881 125 148 123.881 148 122.5C148 121.119 146.881 120 145.5 120C144.119 120 143 121.119 143 122.5C143 123.881 144.119 125 145.5 125Z" fill="white"/>
<path d="M143.1 97.7002C144.978 97.7002 146.5 96.1776 146.5 94.2998C146.5 92.422 144.978 90.8999 143.1 90.8999C141.222 90.8999 139.7 92.422 139.7 94.2998C139.7 96.1776 141.222 97.7002 143.1 97.7002Z" fill="#EE5A94"/>
<path d="M76.8999 112.8V174.2C76.8999 177.7 73.9999 180.6 70.4999 180.6C66.9999 180.6 64.0999 177.7 64.0999 174.2V112.8H76.8999Z" fill="white"/>
<path d="M65.2 154.7V174C65.2 177 67.5999 179.4 70.5999 179.4C73.5999 179.4 75.9999 177 75.9999 174V154.7C72.2999 154.7 68.7 154.7 65.2 154.7Z" fill="#5DACDF"/>
<path opacity="0.22" d="M66.9 146.3C66.2 146.3 65.7 145.8 65.7 145.2V117.6C65.7 117 66.1999 116.5 66.7999 116.5C67.3999 116.5 67.9 117 67.9 117.6V145.2C68.1 145.8 67.6 146.3 66.9 146.3Z" fill="#F2F2F2"/>
<path opacity="0.22" d="M76.9 112.8V174.2C76.9 177.7 74 180.6 70.5 180.6C67 180.6 64.1 177.7 64.1 174.2V170.5C70.1 170.8 73.8 164.7 73.8 152.6C73.8 139.6 74.5 114.8 74.5 114.8L64 113.4L67 112.8H76.9Z" fill="#F2F2F2"/>
<path d="M77.4 113.4H63.5999C63.0999 113.4 62.7 113 62.7 112.5C62.7 112 63.0999 111.6 63.5999 111.6H77.4C77.9 111.6 78.2999 112 78.2999 112.5C78.2999 113 77.9 113.4 77.4 113.4Z" fill="#DCEBF8"/>
<path d="M52.8999 112.8V174.2C52.8999 177.7 49.9999 180.6 46.4999 180.6C42.9999 180.6 40.0999 177.7 40.0999 174.2V112.8H52.8999Z" fill="white"/>
<path d="M41.2 154.7V174C41.2 177 43.5999 179.4 46.5999 179.4C49.5999 179.4 51.9999 177 51.9999 174V154.7C48.2999 154.7 44.7 154.7 41.2 154.7Z" fill="#F9A546"/>
<path opacity="0.22" d="M52.9 112.8V174.2C52.9 177.7 50 180.6 46.5 180.6C43 180.6 40.1 177.7 40.1 174.2V170.5C46.1 170.8 49.8 164.7 49.8 152.6C49.8 139.6 50.5 114.8 50.5 114.8L40 113.4L43 112.8H52.9Z" fill="#F2F2F2"/>
<path d="M53.4 113.4H39.5999C39.0999 113.4 38.7 113 38.7 112.5C38.7 112 39.0999 111.6 39.5999 111.6H53.4C53.9 111.6 54.2999 112 54.2999 112.5C54.2999 113 53.9 113.4 53.4 113.4Z" fill="#DCEBF8"/>
<path opacity="0.22" d="M43.1 146.3C42.2 146.3 41.5 145.6 41.5 144.7V118C41.5 117.1 42.2 116.4 43.1 116.4C44 116.4 44.7 117.1 44.7 118V144.6C44.7 145.6 44 146.3 43.1 146.3Z" fill="#F2F2F2"/>
<path d="M28.8999 112.8V174.2C28.8999 177.7 25.9999 180.6 22.4999 180.6C18.9999 180.6 16.0999 177.7 16.0999 174.2V112.8H28.8999Z" fill="white"/>
<path d="M17.0999 154.7V174C17.0999 177 19.4999 179.4 22.4999 179.4C25.4999 179.4 27.8999 177 27.8999 174V154.7C24.2999 154.7 20.6999 154.7 17.0999 154.7Z" fill="#F06363"/>
<path opacity="0.22" d="M18.9 146.3C18.2 146.3 17.7 145.8 17.7 145.2V117.6C17.7 117 18.1999 116.5 18.7999 116.5C19.3999 116.5 19.9 117 19.9 117.6V145.2C20 145.8 19.5 146.3 18.9 146.3Z" fill="#F2F2F2"/>
<path opacity="0.22" d="M28.9 112.8V174.2C28.9 177.7 26 180.6 22.5 180.6C19 180.6 16.1 177.7 16.1 174.2V170.5C22.1 170.8 25.8 164.7 25.8 152.6C25.8 139.6 26.5 114.8 26.5 114.8L16 113.4L19 112.8H28.9Z" fill="#F2F2F2"/>
<path d="M29.4 113.4H15.5999C15.0999 113.4 14.7 113 14.7 112.5C14.7 112 15.0999 111.6 15.5999 111.6H29.4C29.9 111.6 30.2999 112 30.2999 112.5C30.2999 113 29.9 113.4 29.4 113.4Z" fill="#DCEBF8"/>
<path d="M92.9 182.8H0.199951V191H92.9V182.8Z" fill="#283983"/>
<path d="M9.8999 117.1H6.09985V183.8H9.8999V117.1Z" fill="#283983"/>
<path d="M86.9999 117.1H83.2V183.8H86.9999V117.1Z" fill="#283983"/>
<path d="M84.9999 117.1H7.8999V120.7H84.9999V117.1Z" fill="#283983"/>
</svg>
