<svg width="193" height="195" viewBox="0 0 193 195" fill="none" xmlns="http://www.w3.org/2000/svg">
<path d="M189.8 141.8C187.8 183.1 147.4 180.5 147.4 180.5C147.4 180.5 119.6 182.3 109 159.3C106.8 154.6 105.3 148.8 105 141.8C103 100.5 133.9 105.6 133.9 77.1001C133.9 48.6001 133.9 4.2002 133.9 4.2002H132C131 4.2002 130.1 3.3998 130.1 2.2998C130.1 1.2998 130.9 0.399902 132 0.399902H162.7C163.7 0.399902 164.6 1.1998 164.6 2.2998C164.6 3.2998 163.8 4.2002 162.7 4.2002H160.9C160.9 4.2002 160.9 48.6001 160.9 77.1001C160.9 105.7 191.8 100.5 189.8 141.8Z" fill="white"/>
<path d="M108.9 129.8C108.4 133 108.3 136.7 108.5 140.8C108.8 147.3 110.2 152.5 112.2 156.9C121.9 177.9 147.4 176.3 147.4 176.3C147.4 176.3 184.4 178.7 186.3 140.8C186.5 136.6 186.3 133 185.9 129.8H108.9Z" fill="#5DACDF"/>
<path d="M139.6 84.5C138.5 84.5 137.7 83.6001 137.7 82.6001V11.3999C137.7 10.2999 138.6 9.5 139.6 9.5C140.7 9.5 141.5 10.3999 141.5 11.3999V82.6001C141.6 83.7001 140.7 84.5 139.6 84.5Z" fill="#B9C5E5"/>
<path opacity="0.33" d="M189.8 141.8C187.8 183.1 147.4 180.5 147.4 180.5C147.4 180.5 119.6 182.3 109 159.3C164.6 168.3 175 134.3 163.6 116.8C153.8 99.7998 150.8 95.7999 150.8 70.8999C150.8 46.0999 150.4 4.1001 150.4 4.1001H160.9C160.9 4.1001 160.9 48.5 160.9 77C160.9 105.7 191.8 100.5 189.8 141.8Z" fill="#F2F2F2"/>
<path d="M41.9001 112.7C35.6001 112.7 27.1001 112.7 27.1001 112.7C27.1001 112.7 18.6001 112.7 12.3001 112.7C7.50007 112.7 0.600067 112.1 0.300067 104.2C0.200067 101.7 0.700066 98.4001 2.30007 94.1001C8.60007 76.6001 19.7001 48.9001 19.7001 41.1001C19.7001 33.3001 19.7001 20.1001 19.7001 20.1001H17.8001C17.2001 20.1001 16.6001 19.5999 16.6001 18.8999C16.6001 18.1999 17.1001 17.7002 17.8001 17.7002H36.4001C37.0001 17.7002 37.6001 18.1999 37.6001 18.8999C37.6001 19.5999 37.1001 20.1001 36.4001 20.1001H34.5001C34.5001 20.1001 34.5001 33.3001 34.5001 41.1001C34.5001 48.9001 45.7001 76.7001 51.9001 94.1001C58.3001 111.6 48.2001 112.7 41.9001 112.7Z" fill="white"/>
<path d="M45.7002 86.3999H29.4002C22.5002 86.3999 15.5002 86.7001 8.50018 86.6001C7.70018 88.8001 6.90019 90.9999 6.20019 92.8999C4.90019 96.4999 4.40018 99.1999 4.50018 101.4C4.80018 108 10.6002 108.6 14.6002 108.6C19.9002 108.6 27.0002 108.6 27.0002 108.6C27.0002 108.6 34.2002 108.6 39.4002 108.6C44.7002 108.6 53.2002 107.7 47.9002 93C47.4002 90.9 46.6002 88.6999 45.7002 86.3999Z" fill="#F06363"/>
<path opacity="0.33" d="M41.9001 112.7C35.6001 112.7 27.1001 112.7 27.1001 112.7C27.1001 112.7 18.6 112.7 12.3 112.7C7.50005 112.7 0.600049 112.1 0.300049 104.2C30.9 110.5 40.3001 84.4002 36.2001 73.2002C31.9001 61.4002 28.2001 49.5998 28.2001 43.7998C28.2001 37.9998 28.2001 20 28.2001 20H34.5001C34.5001 20 34.5001 33.2 34.5001 41C34.5001 48.8 45.7001 76.6 51.9001 94C58.3001 111.6 48.2001 112.7 41.9001 112.7Z" fill="#F2F2F2"/>
<path d="M22.5002 68.2998C23.7704 68.2998 24.8002 67.2703 24.8002 66C24.8002 64.7297 23.7704 63.7002 22.5002 63.7002C21.2299 63.7002 20.2002 64.7297 20.2002 66C20.2002 67.2703 21.2299 68.2998 22.5002 68.2998Z" fill="#F06363"/>
<path d="M31.0001 78.2002C31.9389 78.2002 32.7001 77.4389 32.7001 76.5C32.7001 75.5611 31.9389 74.7998 31.0001 74.7998C30.0612 74.7998 29.3 75.5611 29.3 76.5C29.3 77.4389 30.0612 78.2002 31.0001 78.2002Z" fill="#F06363"/>
<path d="M16.4002 95C17.3391 95 18.1002 94.2387 18.1002 93.2998C18.1002 92.3609 17.3391 91.6001 16.4002 91.6001C15.4613 91.6001 14.7002 92.3609 14.7002 93.2998C14.7002 94.2387 15.4613 95 16.4002 95Z" fill="white"/>
<path d="M29.3001 104.4C30.239 104.4 31.0001 103.639 31.0001 102.7C31.0001 101.761 30.239 101 29.3001 101C28.3612 101 27.6001 101.761 27.6001 102.7C27.6001 103.639 28.3612 104.4 29.3001 104.4Z" fill="white"/>
<path d="M38.5001 95C39.4389 95 40.2001 94.2387 40.2001 93.2998C40.2001 92.3609 39.4389 91.6001 38.5001 91.6001C37.5612 91.6001 36.8 92.3609 36.8 93.2998C36.8 94.2387 37.5612 95 38.5001 95Z" fill="white"/>
<path d="M29.3001 51.3999C30.239 51.3999 31.0001 50.6391 31.0001 49.7002C31.0001 48.7613 30.239 48 29.3001 48C28.3612 48 27.6001 48.7613 27.6001 49.7002C27.6001 50.6391 28.3612 51.3999 29.3001 51.3999Z" fill="#F06363"/>
<path d="M73.9 2.2998H69V186.5H73.9V2.2998Z" fill="#283983"/>
<path d="M91.2002 26.6001H14.7002V31.5H91.2002V26.6001Z" fill="#283983"/>
<path d="M186.5 163.2H46.2002V168.1H186.5V163.2Z" fill="#283983"/>
<path d="M78.7002 29C78.7002 33.1 75.4001 36.3999 71.3001 36.3999C67.2001 36.3999 63.9001 33.1 63.9001 29C63.9001 24.9 67.2001 21.6001 71.3001 21.6001C75.3001 21.6001 78.7002 24.9 78.7002 29Z" fill="#283983"/>
<path d="M75.1 29C75.1 31.1 73.4 32.7998 71.3 32.7998C69.2 32.7998 67.5 31.1 67.5 29C67.5 26.9 69.2 25.2002 71.3 25.2002C73.4 25.2002 75.1 26.9 75.1 29Z" fill="white"/>
<path d="M78.7002 165.6C78.7002 169.7 75.4001 173 71.3001 173C67.2001 173 63.9001 169.7 63.9001 165.6C63.9001 161.5 67.2001 158.2 71.3001 158.2C75.3001 158.3 78.7002 161.6 78.7002 165.6Z" fill="#283983"/>
<path d="M75.1 165.6C75.1 167.7 73.4 169.4 71.3 169.4C69.2 169.4 67.5 167.7 67.5 165.6C67.5 163.5 69.2 161.8 71.3 161.8C73.4 161.8 75.1 163.5 75.1 165.6Z" fill="white"/>
<path d="M183.6 186.5H52C47.3 186.5 43.5 190.3 43.5 195H192.1C192.1 190.3 188.3 186.5 183.6 186.5Z" fill="#283983"/>
<path d="M132.4 121.4C134.388 121.4 136 119.788 136 117.8C136 115.812 134.388 114.2 132.4 114.2C130.412 114.2 128.8 115.812 128.8 117.8C128.8 119.788 130.412 121.4 132.4 121.4Z" fill="#5DACDF"/>
<path d="M154.3 107C155.957 107 157.3 105.657 157.3 104C157.3 102.343 155.957 101 154.3 101C152.643 101 151.3 102.343 151.3 104C151.3 105.657 152.643 107 154.3 107Z" fill="#5DACDF"/>
<path d="M127.6 148.4C129.257 148.4 130.6 147.057 130.6 145.4C130.6 143.743 129.257 142.4 127.6 142.4C125.943 142.4 124.6 143.743 124.6 145.4C124.6 147.057 125.943 148.4 127.6 148.4Z" fill="white"/>
<path d="M151.3 158.7C152.736 158.7 153.9 157.536 153.9 156.1C153.9 154.664 152.736 153.5 151.3 153.5C149.864 153.5 148.7 154.664 148.7 156.1C148.7 157.536 149.864 158.7 151.3 158.7Z" fill="white"/>
<path d="M167.9 142.2C169.226 142.2 170.3 141.125 170.3 139.8C170.3 138.474 169.226 137.4 167.9 137.4C166.575 137.4 165.5 138.474 165.5 139.8C165.5 141.125 166.575 142.2 167.9 142.2Z" fill="white"/>
<path d="M147.4 70.1001C148.449 70.1001 149.3 69.2495 149.3 68.2002C149.3 67.1509 148.449 66.2998 147.4 66.2998C146.351 66.2998 145.5 67.1509 145.5 68.2002C145.5 69.2495 146.351 70.1001 147.4 70.1001Z" fill="#5DACDF"/>
</svg>
