<svg width="188" height="193" viewBox="0 0 188 193" fill="none" xmlns="http://www.w3.org/2000/svg">
<path d="M145.741 152.673L90.6425 118.757L86.8684 124.889L141.967 158.804L145.741 152.673Z" fill="#283983"/>
<path d="M128.419 120.196L93.181 98.2759L88.6913 105.493L123.929 127.414L128.419 120.196Z" fill="#283983"/>
<path d="M134.312 121.648L89.1401 93.5474L88.1895 95.0756L133.362 123.176L134.312 121.648Z" fill="#283983"/>
<path d="M136.162 118.677L90.9904 90.5771L89.1417 93.549L134.314 121.649L136.162 118.677Z" fill="#283983"/>
<path d="M162.4 147.3L173.9 186.5H85.4V182.5C85.4 182.5 136.5 176.1 144.1 175.5C151.7 174.9 146.5 160.6 146.5 160.6L162.4 147.3Z" fill="white"/>
<path d="M159.6 168.1C161.1 171.1 159.6 174.4 157.7 176.9C155.6 179.6 152.6 181.3 149.5 182.8C146.1 184.4 142.5 185.6 138.8 186.5H173.9L162.4 147.3L146.5 160.7C146.5 160.7 146.9 161.9 147.4 163.6C151.7 164.5 157.3 163.4 159.6 168.1Z" fill="#F2F2F2"/>
<path d="M151.8 64.3999C151.8 64.3999 175.9 79.2998 169.5 107.3C163.7 133.1 148.8 139 148.8 139L162.3 147.3C162.3 147.3 177.8 135.1 182.4 109.5C187.4 81.7 169.4 61.6 159.1 54L151.8 64.3999Z" fill="white"/>
<path d="M159.2 54L156.7 57.3999C166.9 66.6999 180.2 85.2 175.8 109.5C172.4 128.5 163 140.1 158.4 144.8L162.4 147.2C162.4 147.2 177.9 135 182.5 109.4C187.4 81.6999 169.4 61.5 159.2 54Z" fill="#F2F2F2"/>
<path d="M111.98 85.1381L105.111 80.3022L101.657 85.2084L108.526 90.0443L111.98 85.1381Z" fill="#283983"/>
<path d="M185.059 13.2352L170.504 2.98779L157.206 21.8767L171.761 32.1242L185.059 13.2352Z" fill="#283983"/>
<path d="M143.694 72.0566L129.139 61.8091L115.841 80.698L130.396 90.9455L143.694 72.0566Z" fill="#283983"/>
<path d="M178.979 25.8473L160.581 12.894L122.758 66.6167L141.156 79.5699L178.979 25.8473Z" fill="white"/>
<path d="M163.2 14.5C163.4 15.1 163.5 15.7999 163.6 16.3999C163.9 18.0999 164 19.8 164 21.5C164 25 163.4 28.6 162.6 32C159.8 43.9 154.3 55.7002 146 64.7002C142.5 68.5002 138.4 71.7 133.8 74L141.3 79.2002L179.1 25.5L163.2 14.5Z" fill="#F2F2F2"/>
<path d="M186.4 11.0999L171.9 0.899704C170.8 0.0997042 169.3 0.399802 168.6 1.4998C167.8 2.5998 168.1 4.09961 169.2 4.79961L183.7 14.9998C184.8 15.7998 186.3 15.4997 187 14.3997C187.8 13.3997 187.5 11.8999 186.4 11.0999Z" fill="white"/>
<path d="M130.5 90.7004L123.2 85.6003L115.9 80.5002C115.9 80.5002 105.5 73.4002 103.7 76.0002L121.3 88.4001L138.9 100.8C140.7 98.1 130.5 90.7004 130.5 90.7004Z" fill="#283983"/>
<path d="M137.6 102.9L102 77.8C101.6 77.5 101.5 77.0003 101.8 76.6003L102.3 75.9001C102.6 75.5001 103.1 75.4004 103.5 75.7004L139.1 100.8C139.5 101.1 139.6 101.6 139.3 102L138.8 102.7C138.6 103.1 138 103.2 137.6 102.9Z" fill="#283983"/>
<path d="M108.6 89.8L101.9 85.1003C101.5 84.8003 100.9 84.9 100.5 85.3C100.2 85.7 100.3 86.3004 100.7 86.7004L107.4 91.4001C107.8 91.7001 108.4 91.6004 108.8 91.2004C109.1 90.7004 109 90.1 108.6 89.8Z" fill="#283983"/>
<path d="M123.069 92.9252L116.2 88.0894L112.746 92.9956L119.614 97.8314L123.069 92.9252Z" fill="#283983"/>
<path d="M119.7 97.6001L113 92.9C112.6 92.6 112 92.7001 111.6 93.1001C111.3 93.5001 111.4 94.1 111.8 94.5L118.5 99.2002C118.9 99.5002 119.5 99.4 119.9 99C120.2 98.6 120.1 98.0001 119.7 97.6001Z" fill="#283983"/>
<path d="M134.204 100.862L127.335 96.0264L123.881 100.933L130.75 105.768L134.204 100.862Z" fill="#283983"/>
<path d="M130.8 105.5L124.1 100.8C123.7 100.5 123.1 100.6 122.7 101C122.3 101.4 122.5 102 122.9 102.4L129.6 107.1C130 107.4 130.6 107.3 131 106.9C131.3 106.4 131.2 105.8 130.8 105.5Z" fill="#283983"/>
<path d="M171.466 56.1728C172.497 49.2353 167.709 42.7753 160.771 41.7443C153.834 40.7132 147.374 45.5014 146.343 52.439C145.312 59.3765 150.1 65.8364 157.037 66.8674C163.975 67.8985 170.435 63.1104 171.466 56.1728Z" fill="#283983"/>
<path d="M169.206 55.5215C169.967 49.8842 166.013 44.6977 160.376 43.9371C154.739 43.1766 149.552 47.13 148.792 52.7674C148.031 58.4047 151.984 63.5911 157.622 64.3517C163.259 65.1123 168.445 61.1589 169.206 55.5215Z" fill="white"/>
<path d="M162.189 147.278L107.09 113.362L105.361 116.172L160.459 150.088L162.189 147.278Z" fill="white"/>
<path d="M132.9 133.1L121.8 151.1C120.3 153.6 121.3 156.8 124 157.9C132.7 161.4 150.8 166 160.6 150.1L132.9 133.1Z" fill="white"/>
<path d="M153.3 145.6C150.9 148.1 148 150.1 144.8 151.6C141.6 153.1 138.2 154.1 134.8 154.7C131.1 155.4 127.4 155.4 123.6 154.8C122.8 154.7 122 154.5 121.2 154.3C121.5 155.8 122.5 157.2 124.1 157.9C132.8 161.4 150.9 166 160.7 150.1L153.3 145.6Z" fill="#F2F2F2"/>
<path d="M173.9 186.4H85.4V192.8H173.9V186.4Z" fill="#283983"/>
<path d="M155.4 162.4C158.824 162.4 161.6 159.624 161.6 156.2C161.6 152.776 158.824 150 155.4 150C151.976 150 149.2 152.776 149.2 156.2C149.2 159.624 151.976 162.4 155.4 162.4Z" fill="#283983"/>
<path d="M159.5 156.2C159.5 158.5 157.7 160.3 155.4 160.3C153.1 160.3 151.3 158.5 151.3 156.2C151.3 153.9 153.1 152.1 155.4 152.1C157.6 152.1 159.5 154 159.5 156.2Z" fill="#283983"/>
<path d="M115.251 129.187L90.845 113.711L82.3839 127.054L106.79 142.53L115.251 129.187Z" fill="#283983"/>
<path d="M82.1999 127.2C82.1999 127.2 78.7999 132.5 90.9999 140.2C103.2 147.9 106.6 142.6 106.6 142.6L82.1999 127.2Z" fill="#283983"/>
<path d="M112.631 133.334L88.2252 117.858L85.7083 121.828L110.114 137.304L112.631 133.334Z" fill="#283983"/>
<path d="M65.3 184L44 149.2V119.5H22.9V149.2L1.69993 184.1C-0.700071 188 2.09993 193 6.69993 193H60.1999C64.7999 192.9 67.6 187.9 65.3 184ZM61.8 187.9C61.6 188.2 61.2 188.8 60.3 188.8H6.80003C5.90003 188.8 5.50003 188.2 5.30003 187.9C5.10003 187.6 4.90003 186.9 5.30003 186.1L27.1 150.3V123.6H39.9V150.3L61.8 186.1C62.2 186.9 62 187.6 61.8 187.9Z" fill="#FCFDFF"/>
<path d="M45.3 124.5H21.5C20.1 124.5 19 123.4 19 122C19 120.6 20.1 119.5 21.5 119.5H45.3C46.7 119.5 47.8 120.6 47.8 122C47.8 123.4 46.7 124.5 45.3 124.5Z" fill="#FCFDFF"/>
<path d="M27 124.5H22.9V125.3H27V124.5Z" fill="#E5E5E4"/>
<path d="M43.9 124.5H39.8V125.3H43.9V124.5Z" fill="#E5E5E4"/>
<path d="M49.4 166H17.4999L5.1999 186.4C4.6999 187.2 4.9999 187.8 5.1999 188.2C5.3999 188.5 5.7999 189.1 6.6999 189.1H60.1999C61.0999 189.1 61.4999 188.5 61.6999 188.2C61.8999 187.9 62.0999 187.2 61.6999 186.4L49.4 166Z" fill="#F9A546"/>
<path d="M61.7 186.3L54.3 174C52.4 175.5 50.3 176.7 48.1 177.8C43.7 180.1 39 181.8 34.3 183.2C29.4 184.6 24.4 185.7 19.4 186.4C14.7 187 9.8 187.3 5 187.2C5 187.6 5.09995 187.9 5.19995 188.1C5.39995 188.4 5.79995 189 6.69995 189H60.2C61.1 189 61.5 188.4 61.7 188.1C62 187.8 62.2 187.1 61.7 186.3Z" fill="#F49A42"/>
<path d="M32 142.6C32.8837 142.6 33.6 141.884 33.6 141C33.6 140.116 32.8837 139.4 32 139.4C31.1163 139.4 30.4 140.116 30.4 141C30.4 141.884 31.1163 142.6 32 142.6Z" fill="#F9A546"/>
<path d="M36.8 155.1C37.6837 155.1 38.4 154.384 38.4 153.5C38.4 152.616 37.6837 151.9 36.8 151.9C35.9164 151.9 35.2 152.616 35.2 153.5C35.2 154.384 35.9164 155.1 36.8 155.1Z" fill="#F9A546"/>
<path d="M41.1 171.9C41.9836 171.9 42.7 171.183 42.7 170.3C42.7 169.416 41.9836 168.7 41.1 168.7C40.2163 168.7 39.5 169.416 39.5 170.3C39.5 171.183 40.2163 171.9 41.1 171.9Z" fill="#FCFDFF"/>
<path d="M36.1 181.3C36.8732 181.3 37.5 180.673 37.5 179.9C37.5 179.127 36.8732 178.5 36.1 178.5C35.3268 178.5 34.7 179.127 34.7 179.9C34.7 180.673 35.3268 181.3 36.1 181.3Z" fill="#FCFDFF"/>
<path d="M21.8 179.3C23.1255 179.3 24.2 178.225 24.2 176.9C24.2 175.574 23.1255 174.5 21.8 174.5C20.4746 174.5 19.4 175.574 19.4 176.9C19.4 178.225 20.4746 179.3 21.8 179.3Z" fill="#FCFDFF"/>
<path d="M28.7 162.4C29.5836 162.4 30.3 161.683 30.3 160.8C30.3 159.916 29.5836 159.2 28.7 159.2C27.8163 159.2 27.1 159.916 27.1 160.8C27.1 161.683 27.8163 162.4 28.7 162.4Z" fill="#F9A546"/>
</svg>
