<svg id="Device" xmlns="http://www.w3.org/2000/svg" xmlns:xlink="http://www.w3.org/1999/xlink" width="400" height="440" viewBox="0 0 5577 4610">
  <defs>
    <radialGradient id="radial-gradient" cx="0.5" cy="0" r="1" gradientUnits="objectBoundingBox">
      <stop offset="0" stop-color="#2f2e32"/>
      <stop offset="1" stop-color="#101518"/>
    </radialGradient>
    <filter id="Mask" x="2769.379" y="81.379" width="28.241" height="28.241" filterUnits="userSpaceOnUse">
      <feOffset input="SourceAlpha"/>
      <feGaussianBlur stdDeviation="1" result="blur"/>
      <feFlood flood-opacity="0.4"/>
      <feComposite operator="in" in2="blur"/>
      <feComposite in="SourceGraphic"/>
    </filter>
    <linearGradient id="linear-gradient" x1="0.5" x2="0.5" y2="1" gradientUnits="objectBoundingBox">
      <stop offset="0" stop-color="#808084"/>
      <stop offset="0.085" stop-color="#95979b"/>
      <stop offset="0.191" stop-color="#b2b4b8"/>
      <stop offset="0.387" stop-color="#d7d7da"/>
      <stop offset="0.512" stop-color="#dddddf"/>
      <stop offset="0.584" stop-color="#fff"/>
      <stop offset="0.665" stop-color="#919296"/>
      <stop offset="0.745" stop-color="#7a7b7f"/>
      <stop offset="0.804" stop-color="#a0a2a9"/>
      <stop offset="0.873" stop-color="#a9aaae"/>
      <stop offset="0.981" stop-color="#a7a8ad"/>
      <stop offset="0.988" stop-color="#b7b7bd"/>
      <stop offset="1" stop-color="#d2d3d5"/>
      <stop offset="1" stop-color="#999aa0"/>
    </linearGradient>
    <linearGradient id="linear-gradient-2" x1="0.5" x2="0.5" y2="1" gradientUnits="objectBoundingBox">
      <stop offset="0" stop-color="#fff" stop-opacity="0"/>
      <stop offset="0.462" stop-color="#fff" stop-opacity="0"/>
      <stop offset="0.565" stop-color="#fff" stop-opacity="0.898"/>
      <stop offset="0.655" stop-color="#fff" stop-opacity="0"/>
      <stop offset="1" stop-color="#fff" stop-opacity="0"/>
    </linearGradient>
    <radialGradient id="radial-gradient-2" cx="0.081" cy="0.912" r="0.148" gradientUnits="objectBoundingBox">
      <stop offset="0" stop-color="#e9eaec"/>
      <stop offset="1" stop-color="#fff" stop-opacity="0"/>
    </radialGradient>
    <radialGradient id="radial-gradient-3" cx="0.926" cy="0.905" r="0.251" xlink:href="#radial-gradient-2"/>
    <radialGradient id="radial-gradient-4" cx="0.154" cy="0.964" r="0.182" gradientUnits="objectBoundingBox">
      <stop offset="0" stop-color="#fff" stop-opacity="0.408"/>
      <stop offset="1" stop-color="#fff" stop-opacity="0"/>
    </radialGradient>
    <radialGradient id="radial-gradient-5" cx="0.849" cy="0.965" r="0.178" gradientUnits="objectBoundingBox">
      <stop offset="0" stop-color="#fff" stop-opacity="0.412"/>
      <stop offset="1" stop-color="#fff" stop-opacity="0"/>
    </radialGradient>
    <radialGradient id="radial-gradient-6" cx="0.949" cy="0.854" r="0.204" gradientUnits="objectBoundingBox">
      <stop offset="0" stop-color="#fff" stop-opacity="0.6"/>
      <stop offset="1" stop-color="#fff" stop-opacity="0"/>
    </radialGradient>
    <radialGradient id="radial-gradient-7" cx="0.047" cy="0.868" r="0.214" xlink:href="#radial-gradient-6"/>
    <filter id="Front_of_Stand_-_Inner_Shadow" x="1941" y="4573" width="1696" height="37" filterUnits="userSpaceOnUse">
      <feOffset dy="-1" input="SourceAlpha"/>
      <feGaussianBlur result="blur-2"/>
      <feFlood flood-color="#fff" flood-opacity="0.4"/>
      <feComposite operator="in" in2="blur-2"/>
      <feComposite in="SourceGraphic"/>
    </filter>
    <linearGradient id="linear-gradient-3" y1="0.698" x2="1" y2="0.71" gradientUnits="objectBoundingBox">
      <stop offset="0" stop-color="#8b8c8e"/>
      <stop offset="0.065" stop-color="#8b8b8f"/>
      <stop offset="0.177" stop-color="#e4e6e8"/>
      <stop offset="0.505" stop-color="#dbdbdd"/>
      <stop offset="0.761" stop-color="#d4d4d8"/>
      <stop offset="0.94" stop-color="#b4b5b9"/>
      <stop offset="1" stop-color="#818286"/>
    </linearGradient>
    <linearGradient id="linear-gradient-4" y1="0.5" x2="1" y2="0.5" gradientUnits="objectBoundingBox">
      <stop offset="0" stop-color="#a5a6aa"/>
      <stop offset="0.217" stop-color="#a6a8ac"/>
      <stop offset="0.269" stop-color="#acaeb2"/>
      <stop offset="0.368" stop-color="#b5b6ba"/>
      <stop offset="0.46" stop-color="#bebfc3"/>
      <stop offset="0.534" stop-color="#c3c4c8"/>
      <stop offset="0.633" stop-color="#cdced1"/>
      <stop offset="0.776" stop-color="#d9dadc"/>
      <stop offset="0.953" stop-color="#e0e1e2"/>
      <stop offset="1" stop-color="#e0e2e2"/>
    </linearGradient>
    <filter id="Bottom_Bezel" x="0" y="3324" width="5577" height="510" filterUnits="userSpaceOnUse">
      <feOffset dy="-4" input="SourceAlpha"/>
      <feGaussianBlur result="blur-3"/>
      <feFlood flood-opacity="0.302"/>
      <feComposite operator="in" in2="blur-3"/>
      <feComposite in="SourceGraphic"/>
    </filter>
    <radialGradient id="radial-gradient-8" cx="-0.155" cy="1.417" r="0.921" gradientUnits="objectBoundingBox">
      <stop offset="0" stop-color="#fff"/>
      <stop offset="0.028" stop-color="#cecece" stop-opacity="0.769"/>
      <stop offset="1" stop-color="#252525"/>
    </radialGradient>
    <filter id="Mask-2" x="2769.379" y="81.379" width="28.241" height="28.241" filterUnits="userSpaceOnUse">
      <feOffset input="SourceAlpha"/>
      <feGaussianBlur stdDeviation="1" result="blur-4"/>
      <feFlood flood-opacity="0.4"/>
      <feComposite operator="in" in2="blur-4"/>
      <feComposite in="SourceGraphic"/>
    </filter>
    <clipPath id="clip-path">
      <g transform="matrix(1, 0, 0, 1, 0, 0)" filter="url(#Mask)">
        <path id="Mask-3" data-name="Mask" d="M11.121,0A11.121,11.121,0,1,1,0,11.121,11.121,11.121,0,0,1,11.121,0Z" transform="translate(10.38 10.38)" fill="url(#radial-gradient)"/>
      </g>
    </clipPath>
    <radialGradient id="radial-gradient-10" cx="0.348" cy="0.156" r="0.79" gradientUnits="objectBoundingBox">
      <stop offset="0" stop-color="#101722"/>
      <stop offset="1" stop-color="#525669"/>
    </radialGradient>
  </defs>
  <g id="Stand" transform="translate(1941 3833)">
    <g id="Stand-2" data-name="Stand">
      <path id="Stand-3" data-name="Stand" d="M295.99,0s-29.157,506.418-75.68,574.885C195.318,611.663,26.921,714.126,8.533,729.547S7.2,748.908,7.2,748.908s54.421,19.06,115.672,23.046c38.785,2.524,79.421-.343,108.7-.105,88.806.721,266.417.162,266.417.162H1198s177.611.559,266.417-.162c29.283-.238,69.92,2.629,108.7.105,61.251-3.985,115.711-22.066,115.711-22.066s17.014-4.919-1.374-20.341-186.785-117.884-211.776-154.663C1429.156,506.418,1400,0,1400,0H295.99Z" fill="url(#linear-gradient)"/>
      <path id="Stand-4" data-name="Stand" d="M295.99,0s-29.157,506.418-75.68,574.885C195.318,611.663,26.921,714.126,8.533,729.547S7.2,748.908,7.2,748.908s54.421,19.06,115.672,23.046c38.785,2.524,79.421-.343,108.7-.105,88.806.721,266.417.162,266.417.162H1198s177.611.559,266.417-.162c29.283-.238,69.92,2.629,108.7.105,61.251-3.985,115.711-22.066,115.711-22.066s17.014-4.919-1.374-20.341-186.785-117.884-211.776-154.663C1429.156,506.418,1400,0,1400,0H295.99Z" fill="url(#linear-gradient-2)" style="mix-blend-mode: soft-light;isolation: isolate"/>
      <path id="Stand-5" data-name="Stand" d="M295.99,0s-29.157,506.418-75.68,574.885C195.318,611.663,26.921,714.126,8.533,729.547S7.2,748.908,7.2,748.908s54.421,19.06,115.672,23.046c38.785,2.524,79.421-.343,108.7-.105,88.806.721,266.417.162,266.417.162H1198s177.611.559,266.417-.162c29.283-.238,69.92,2.629,108.7.105,61.251-3.985,115.711-22.066,115.711-22.066s17.014-4.919-1.374-20.341-186.785-117.884-211.776-154.663C1429.156,506.418,1400,0,1400,0H295.99Z" fill="url(#radial-gradient-2)" style="mix-blend-mode: soft-light;isolation: isolate"/>
      <path id="Stand-6" data-name="Stand" d="M295.99,0s-29.157,506.418-75.68,574.885C195.318,611.663,26.921,714.126,8.533,729.547S7.2,748.908,7.2,748.908s54.421,19.06,115.672,23.046c38.785,2.524,79.421-.343,108.7-.105,88.806.721,266.417.162,266.417.162H1198s177.611.559,266.417-.162c29.283-.238,69.92,2.629,108.7.105,61.251-3.985,115.711-22.066,115.711-22.066s17.014-4.919-1.374-20.341-186.785-117.884-211.776-154.663C1429.156,506.418,1400,0,1400,0H295.99Z" fill="url(#radial-gradient-3)" style="mix-blend-mode: soft-light;isolation: isolate"/>
      <path id="Stand-7" data-name="Stand" d="M295.99,0s-29.157,506.418-75.68,574.885C195.318,611.663,26.921,714.126,8.533,729.547S7.2,748.908,7.2,748.908s54.421,19.06,115.672,23.046c38.785,2.524,79.421-.343,108.7-.105,88.806.721,266.417.162,266.417.162H1198s177.611.559,266.417-.162c29.283-.238,69.92,2.629,108.7.105,61.251-3.985,115.711-22.066,115.711-22.066s17.014-4.919-1.374-20.341-186.785-117.884-211.776-154.663C1429.156,506.418,1400,0,1400,0H295.99Z" fill="url(#radial-gradient-4)" style="mix-blend-mode: soft-light;isolation: isolate"/>
      <path id="Stand-8" data-name="Stand" d="M295.99,0s-29.157,506.418-75.68,574.885C195.318,611.663,26.921,714.126,8.533,729.547S7.2,748.908,7.2,748.908s54.421,19.06,115.672,23.046c38.785,2.524,79.421-.343,108.7-.105,88.806.721,266.417.162,266.417.162H1198s177.611.559,266.417-.162c29.283-.238,69.92,2.629,108.7.105,61.251-3.985,115.711-22.066,115.711-22.066s17.014-4.919-1.374-20.341-186.785-117.884-211.776-154.663C1429.156,506.418,1400,0,1400,0H295.99Z" fill="url(#radial-gradient-5)" style="mix-blend-mode: soft-light;isolation: isolate"/>
      <path id="Stand-9" data-name="Stand" d="M295.99,0s-29.157,506.418-75.68,574.885C195.318,611.663,26.921,714.126,8.533,729.547S7.2,748.908,7.2,748.908s54.421,19.06,115.672,23.046c38.785,2.524,79.421-.343,108.7-.105,88.806.721,266.417.162,266.417.162H1198s177.611.559,266.417-.162c29.283-.238,69.92,2.629,108.7.105,61.251-3.985,115.711-22.066,115.711-22.066s17.014-4.919-1.374-20.341-186.785-117.884-211.776-154.663C1429.156,506.418,1400,0,1400,0H295.99Z" fill="url(#radial-gradient-6)" style="mix-blend-mode: luminosity;isolation: isolate"/>
      <path id="Stand-10" data-name="Stand" d="M295.99,0s-29.157,506.418-75.68,574.885C195.318,611.663,26.921,714.126,8.533,729.547S7.2,748.908,7.2,748.908s54.421,19.06,115.672,23.046c38.785,2.524,79.421-.343,108.7-.105,88.806.721,266.417.162,266.417.162H1198s177.611.559,266.417-.162c29.283-.238,69.92,2.629,108.7.105,61.251-3.985,115.711-22.066,115.711-22.066s17.014-4.919-1.374-20.341-186.785-117.884-211.776-154.663C1429.156,506.418,1400,0,1400,0H295.99Z" fill="url(#radial-gradient-7)" style="mix-blend-mode: luminosity;isolation: isolate"/>
      <path id="Stand-11" data-name="Stand" d="M295.99,0s-29.157,506.418-75.68,574.885C195.318,611.663,26.921,714.126,8.533,729.547S7.2,748.908,7.2,748.908s54.421,19.06,115.672,23.046c38.785,2.524,79.421-.343,108.7-.105,88.806.721,266.417.162,266.417.162H1198s177.611.559,266.417-.162c29.283-.238,69.92,2.629,108.7.105,61.251-3.985,115.711-22.066,115.711-22.066s17.014-4.919-1.374-20.341-186.785-117.884-211.776-154.663C1429.156,506.418,1400,0,1400,0H295.99Z" fill="rgba(216,216,216,0.02)"/>
    </g>
    <g id="Front_of_Stand" data-name="Front of Stand" transform="translate(0 741)">
      <g id="Front_of_Stand_-_Inner_Shadow-2" data-name="Front of Stand - Inner Shadow">
        <g transform="matrix(1, 0, 0, 1, -1941, -4574)" filter="url(#Front_of_Stand_-_Inner_Shadow)">
          <path id="Front_of_Stand_-_Inner_Shadow-3" data-name="Front of Stand - Inner Shadow" d="M1429.5,22.222h115.251c122.356,0,150.434-22.076,150.434-22.076.45-.309.815-.111.815.427V7.464a8.152,8.152,0,0,1-3.272,6.192S1669.713,36,1538.593,36H157.407C26.287,36,3.272,13.656,3.272,13.656A8.152,8.152,0,0,1,0,7.464V.573C0,.035.365-.163.815.146c0,0,28.078,22.076,150.434,22.076H1429.5Z" transform="translate(1941 4574)" fill="none"/>
        </g>
        <path id="Front_of_Stand_-_Inner_Shadow-4" data-name="Front of Stand - Inner Shadow" d="M1429.5,22.222h115.251c122.356,0,150.434-22.076,150.434-22.076.45-.309.815-.111.815.427V7.464a8.152,8.152,0,0,1-3.272,6.192S1669.713,36,1538.593,36H157.407C26.287,36,3.272,13.656,3.272,13.656A8.152,8.152,0,0,1,0,7.464V.573C0,.035.365-.163.815.146c0,0,28.078,22.076,150.434,22.076H1429.5Z" fill="none"/>
        <path id="Front_of_Stand_-_Inner_Shadow-5" data-name="Front of Stand - Inner Shadow" d="M1429.5,22.222h115.251c122.356,0,150.434-22.076,150.434-22.076.45-.309.815-.111.815.427V7.464a8.152,8.152,0,0,1-3.272,6.192S1669.713,36,1538.593,36H157.407C26.287,36,3.272,13.656,3.272,13.656A8.152,8.152,0,0,1,0,7.464V.573C0,.035.365-.163.815.146c0,0,28.078,22.076,150.434,22.076H1429.5Z" fill="none"/>
        <path id="Front_of_Stand_-_Inner_Shadow-6" data-name="Front of Stand - Inner Shadow" d="M1429.5,22.222h115.251c122.356,0,150.434-22.076,150.434-22.076.45-.309.815-.111.815.427V7.464a8.152,8.152,0,0,1-3.272,6.192S1669.713,36,1538.593,36H157.407C26.287,36,3.272,13.656,3.272,13.656A8.152,8.152,0,0,1,0,7.464V.573C0,.035.365-.163.815.146c0,0,28.078,22.076,150.434,22.076H1429.5Z" fill="url(#linear-gradient-3)"/>
      </g>
    </g>
  </g>
  <g id="Top_of_iMac" data-name="Top of iMac">
    <g id="Bottom_Bezel-2" data-name="Bottom Bezel">
      <g transform="matrix(1, 0, 0, 1, 0, 0)" filter="url(#Bottom_Bezel)">
        <path id="Bottom_Bezel-3" data-name="Bottom Bezel" d="M0,0H5577V382a124,124,0,0,1-124,124H124A124,124,0,0,1,0,382Z" transform="translate(0 3328)" fill="url(#linear-gradient-4)"/>
      </g>
      <path id="Bottom_Bezel-4" data-name="Bottom Bezel" d="M0,0H5577V382a124,124,0,0,1-124,124H124A124,124,0,0,1,0,382Z" transform="translate(0 3328)" fill="rgba(216,216,216,0.02)"/>
    </g>
    <g id="Apple_Logo" data-name="Apple Logo" transform="translate(2683 3447)">
      <path id="Fill_3" data-name="Fill 3" d="M107.149,12C115.885,12,132.1,0,153.2,0c36.325,0,50.615,25.84,50.615,25.84s-27.949,14.285-27.949,48.948c0,39.1,34.817,52.579,34.817,52.579S186.344,195.85,153.47,195.85c-15.1,0-26.837-10.172-42.747-10.172-16.212,0-32.3,10.552-42.78,10.552C37.925,196.23,0,131.267,0,79.048,0,27.671,32.1.72,62.211.72,81.784.72,96.973,12,107.149,12" transform="translate(0 62.276)"/>
      <path id="Fill_1" data-name="Fill 1" d="M11.693,22.483C28.673.109,52.28,0,52.28,0s3.511,21.035-13.358,41.3C20.911,62.935.438,59.395.438,59.395S-3.406,42.378,11.693,22.483" transform="translate(104.552 0.15)"/>
    </g>
    <path id="Black_Bezel" data-name="Black Bezel" d="M134,0H5443a134,134,0,0,1,134,134V3324H0V134A134,134,0,0,1,134,0Z" fill="#030303"/>
    <g id="Camera" transform="translate(2762 74)">
      <path id="Oval_57" data-name="Oval 57" d="M21.5,0A21.5,21.5,0,1,1,0,21.5,21.5,21.5,0,0,1,21.5,0Z" fill="url(#radial-gradient-8)"/>
      <g transform="matrix(1, 0, 0, 1, -2762, -74)" filter="url(#Mask-2)">
        <path id="Mask-4" data-name="Mask" d="M11.121,0A11.121,11.121,0,1,1,0,11.121,11.121,11.121,0,0,1,11.121,0Z" transform="translate(2772.38 84.38)" fill="url(#radial-gradient)"/>
      </g>
      <g id="Camera-2" data-name="Camera" clip-path="url(#clip-path)">
        <path id="Oval_59" data-name="Oval 59" d="M2.224,0A2.224,2.224,0,1,1,0,2.224,2.224,2.224,0,0,1,2.224,0Z" transform="translate(29.655 13.345)" fill="#2f3046"/>
        <path id="Oval_59-2" data-name="Oval 59" d="M2.224,0A2.224,2.224,0,1,1,0,2.224,2.224,2.224,0,0,1,2.224,0Z" transform="translate(29.655 13.345)" fill="#21271b"/>
        <path id="Oval_61" data-name="Oval 61" d="M5.19,0c2.866,0,5.19,1,5.19,2.224S8.056,4.448,5.19,4.448,0,3.452,0,2.224,2.323,0,5.19,0Z" transform="matrix(0.875, -0.485, 0.485, 0.875, 12.917, 16.14)" fill="#323137"/>
        <path id="Oval_61-2" data-name="Oval 61" d="M5.19,0A5.19,5.19,0,1,1,0,5.19,5.19,5.19,0,0,1,5.19,0Z" transform="translate(16.564 17.942) rotate(-16)" fill="url(#radial-gradient-10)"/>
        <path id="Oval_59-3" data-name="Oval 59" d="M1.483,0A1.483,1.483,0,1,1,0,1.483,1.483,1.483,0,0,1,1.483,0Z" transform="translate(20.345 22.724)" fill="#505760"/>
      </g>
    </g>
    <path id="Gap_Between_Bezel_and_Screen" data-name="Gap Between Bezel and Screen" d="M0,0H5128V2887H0Z" transform="translate(222 238)" fill="#202020"/>
  </g>
</svg>
