<?xml version="1.0" encoding="UTF-8"?>
<svg width="40px" height="40px" viewBox="0 0 40 40" version="1.1" xmlns="http://www.w3.org/2000/svg" xmlns:xlink="http://www.w3.org/1999/xlink">
    <!-- Generator: sketchtool 52.6 (67491) - http://www.bohemiancoding.com/sketch -->
    <title>C81F8FB0-95A4-487A-8F2A-63975550F1E9</title>
    <desc>Created with sketchtool.</desc>
    <g id="Main_nav" stroke="none" stroke-width="1" fill="none" fill-rule="evenodd">
        <g id="Grupe-Analiza" transform="translate(-187.000000, -2274.000000)" fill="#21DDAE">
            <g id="interleukini" transform="translate(187.000000, 2274.000000)">
                <path d="M10.6914894,21.3297872 C16.5574468,21.3297872 21.3297872,16.5574468 21.3297872,10.6914894 C21.3297872,4.82553191 16.5574468,0.0531914894 10.6914894,0.0531914894 C4.82553191,0.0531914894 0.0531914894,4.82553191 0.0531914894,10.6914894 C0.0531914894,16.5574468 4.82553191,21.3297872 10.6914894,21.3297872 Z M10.6914894,1.38297872 C15.8242553,1.38297872 20,5.55851064 20,10.6914894 C20,15.8244681 15.8244681,20 10.6914894,20 C5.55851064,20 1.38297872,15.8244681 1.38297872,10.6914894 C1.38297872,5.55851064 5.55851064,1.38297872 10.6914894,1.38297872 Z" id="Fill-1"></path>
                <path d="M10.6914894,18.0051064 C14.7240851,18.0051064 18.0055319,14.7238723 18.0055319,10.6910638 C18.0055319,6.65825532 14.7242979,3.37702128 10.6914894,3.37702128 C6.65868085,3.37702128 3.37744681,6.65825532 3.37744681,10.6910638 C3.37744681,14.7238723 6.65868085,18.0051064 10.6914894,18.0051064 Z M10.6914894,4.70723404 C13.9910213,4.70723404 16.6753191,7.39174468 16.6753191,10.6910638 C16.6753191,13.990383 13.9908085,16.6748936 10.6914894,16.6748936 C7.39217021,16.6748936 4.70765957,13.990383 4.70765957,10.6910638 C4.70765957,7.39174468 7.39217021,4.70723404 10.6914894,4.70723404 Z" id="Fill-2"></path>
                <path d="M14.6808511,11.3565957 L13.3510638,11.3565957 C13.3510638,12.4569787 12.456766,13.3512766 11.356383,13.3512766 L11.356383,14.6810638 C13.1898298,14.6810638 14.6808511,13.1900426 14.6808511,11.3565957 Z" id="Fill-3"></path>
                <path d="M29.3085106,39.9468085 C35.1744681,39.9468085 39.9468085,35.1744681 39.9468085,29.3085106 C39.9468085,23.4425532 35.1744681,18.6702128 29.3085106,18.6702128 C23.4425532,18.6702128 18.6702128,23.4425532 18.6702128,29.3085106 C18.6702128,35.1744681 23.4425532,39.9468085 29.3085106,39.9468085 Z M29.3085106,20 C34.4412766,20 38.6170213,24.1755319 38.6170213,29.3085106 C38.6170213,34.4414894 34.4414894,38.6170213 29.3085106,38.6170213 C24.1755319,38.6170213 20,34.4414894 20,29.3085106 C20,24.1755319 24.1755319,20 29.3085106,20 Z" id="Fill-4"></path>
                <path d="M29.3085106,36.6221277 C33.3411064,36.6221277 36.6225532,33.3408936 36.6225532,29.3080851 C36.6225532,25.2752766 33.3413191,21.9940426 29.3085106,21.9940426 C25.2757021,21.9940426 21.9944681,25.2752766 21.9944681,29.3080851 C21.9944681,33.3408936 25.2757021,36.6221277 29.3085106,36.6221277 Z M29.3085106,23.3242553 C32.6080426,23.3242553 35.2923404,26.008766 35.2923404,29.3080851 C35.2923404,32.6074043 32.6078298,35.2919149 29.3085106,35.2919149 C26.0091915,35.2919149 23.3246809,32.6074043 23.3246809,29.3080851 C23.3246809,26.008766 26.0091915,23.3242553 29.3085106,23.3242553 Z" id="Fill-5"></path>
                <path d="M33.2978723,29.973617 L31.9680851,29.973617 C31.9680851,31.074 31.0737872,31.9682979 29.9734043,31.9682979 L29.9734043,33.2980851 C31.8068511,33.2980851 33.2978723,31.8070638 33.2978723,29.973617 Z" id="Fill-6"></path>
                <path d="M30.6382979,14.6808511 C33.5704681,14.6808511 35.9574468,12.2938723 35.9574468,9.36170213 C35.9574468,6.42953191 33.5704681,4.04255319 30.6382979,4.04255319 C27.7061277,4.04255319 25.3191489,6.42953191 25.3191489,9.36170213 C25.3191489,12.2938723 27.7061277,14.6808511 30.6382979,14.6808511 Z M30.6382979,5.37234043 C32.8391064,5.37234043 34.6276596,7.16089362 34.6276596,9.36170213 C34.6276596,11.5625106 32.8391064,13.3510638 30.6382979,13.3510638 C28.4374894,13.3510638 26.6489362,11.5625106 26.6489362,9.36170213 C26.6489362,7.16089362 28.4374894,5.37234043 30.6382979,5.37234043 Z" id="Fill-7"></path>
                <path d="M33.2978723,8.69702128 L31.9680851,8.69702128 C31.9680851,9.79740426 31.0737872,10.6917021 29.9734043,10.6917021 L29.9734043,12.0214894 C31.8068511,12.0214894 33.2978723,10.5304681 33.2978723,8.69702128 Z" id="Fill-8"></path>
                <path d="M5.37234043,33.9625532 C8.30451064,33.9625532 10.6914894,31.5755745 10.6914894,28.6434043 C10.6914894,25.711234 8.30451064,23.3242553 5.37234043,23.3242553 C2.44017021,23.3242553 0.0531914894,25.711234 0.0531914894,28.6434043 C0.0531914894,31.5755745 2.44017021,33.9625532 5.37234043,33.9625532 Z M5.37234043,24.6540426 C7.57314894,24.6540426 9.36170213,26.4425957 9.36170213,28.6434043 C9.36170213,30.8442128 7.57314894,32.632766 5.37234043,32.632766 C3.17153191,32.632766 1.38297872,30.8442128 1.38297872,28.6434043 C1.38297872,26.4425957 3.17153191,24.6540426 5.37234043,24.6540426 Z" id="Fill-9"></path>
                <path d="M8.03191489,27.9787234 L6.70212766,27.9787234 C6.70212766,29.0791064 5.80782979,29.9734043 4.70744681,29.9734043 L4.70744681,31.3031915 C6.54089362,31.3031915 8.03191489,29.8121702 8.03191489,27.9787234 Z" id="Fill-10"></path>
            </g>
        </g>
        <g id="Page"></g>
    </g>
</svg>