<?xml version="1.0" encoding="UTF-8"?>
<svg width="39px" height="40px" viewBox="0 0 39 40" version="1.1" xmlns="http://www.w3.org/2000/svg" xmlns:xlink="http://www.w3.org/1999/xlink">
    <!-- Generator: sketchtool 52.6 (67491) - http://www.bohemiancoding.com/sketch -->
    <title>66F091BC-81FE-43C1-82A3-F4BDC9DC15B6</title>
    <desc>Created with sketchtool.</desc>
    <g id="Main_nav" stroke="none" stroke-width="1" fill="none" fill-rule="evenodd">
        <g id="Grupe-Analiza" transform="translate(-189.000000, -2350.000000)" fill="#FFD500">
            <g id="kamen" transform="translate(189.000000, 2350.000000)">
                <path d="M27.1595556,0.111111111 C26.0015556,0.111111111 24.8852444,0.595466667 24.0918667,1.43924444 C23.3140889,2.26911111 22.9234667,3.342 22.9946222,4.46008889 C23.0762178,5.76217778 23.5675556,6.99826667 24.3505333,7.92191111 C23.6786667,9.03128889 23.2515556,10.2535111 23.0988,11.5364889 C22.5085333,11.9028089 22.0015556,12.3906667 21.6231111,12.9774667 C20.2689333,15.0868444 20.2307556,18.0276889 20.2516,18.8783556 C20.3036844,21.0259111 21.0884,22.8158667 21.8505778,24.2845778 C22.5624,25.6596 23.5884444,26.9512444 24.9842667,28.2342222 C25.1787111,28.41304 25.3853067,28.5883911 25.5936444,28.7654667 C26.2603111,29.3331556 26.8922667,29.8696444 27.1873778,30.5623556 C27.3036978,30.8349244 27.3071689,31.0970667 27.2481422,31.3418667 C26.6456978,30.5172 25.67872,29.9738222 24.5814756,29.9738222 L14.5312533,29.9720844 C13.4739644,29.9720844 12.5416533,30.4790178 11.9357867,31.2533289 C11.8975911,31.0345778 11.91148,30.8019511 12.0156489,30.5606178 C12.3125244,29.8679067 12.9427156,29.3314622 13.6128933,28.7619956 C13.8212267,28.5849111 14.0260889,28.4095644 14.2205378,28.2307511 C15.61636,26.9495067 16.6406711,25.6578178 17.3542267,24.2811067 C18.11636,22.8123511 18.9011156,21.0241733 18.9532044,18.8748889 C18.97404,18.0224444 18.9358444,15.0797333 17.5816933,12.9739956 C17.1841244,12.3542178 16.6407156,11.84724 16.00876,11.4757289 C15.8507733,10.2135956 15.42716,9.01044 14.7656933,7.91844444 C15.5486711,6.99657778 16.0400044,5.75871111 16.1216044,4.45835556 C16.1927867,3.33857778 15.80216,2.26564444 15.02436,1.43577778 C14.2274711,0.595511111 13.1094267,0.111111111 11.9167156,0.111111111 C5.40649333,0.111111111 0.111382222,5.40621778 0.111382222,11.9164444 L0.111382222,13.3053333 C0.111382222,19.8155556 5.40649333,25.1106667 11.9518267,25.1106667 C13.1098267,25.1106667 14.2261378,24.6263111 15.0195156,23.7825333 C15.7972933,22.9526667 16.1879156,21.8797778 16.11676,20.7616889 C16.0351644,19.4596 15.5438267,18.2235111 14.7608489,17.2998667 C15.5039156,16.0724444 15.94316,14.7044 16.0490267,13.2720889 C16.1809733,13.4144489 16.3059689,13.5637556 16.4101378,13.7252 C17.3164044,15.1349333 17.5993822,17.2928889 17.56116,18.8416444 C17.5160222,20.7010222 16.8424044,22.2479111 16.1184489,23.6420889 C15.4812933,24.8712444 14.5524933,26.0379111 13.2781822,27.2080444 C13.0976267,27.3747111 12.90492,27.5379067 12.7104933,27.7028444 C11.9848044,28.3208889 11.1618711,29.0188 10.7382711,30.0118667 C10.3268133,30.9719556 10.5212578,32.0205333 11.2573822,32.9389333 C11.2452311,33.0517822 11.2226622,33.1628933 11.2226622,33.2792089 C11.2226622,34.4910311 11.8823956,35.6038756 12.9466178,36.1837422 L19.2226178,39.6073404 C19.3267867,39.6663671 19.4413689,39.6941449 19.5559511,39.6941449 C19.6705333,39.6941449 19.7851156,39.6663671 19.8892844,39.6090738 L26.1652844,36.1854756 C27.2295067,35.6056089 27.88924,34.4927644 27.88924,33.2809422 C27.88924,33.1958711 27.8701422,33.1177467 27.8649333,33.0344133 C28.6635556,32.0951689 28.8892444,31.0066356 28.4621778,30.0153022 C28.0385689,29.0222356 27.2156444,28.3225911 26.4916889,27.70628 C26.2972444,27.5396133 26.1028,27.3764178 25.9222667,27.2097467 C24.6479556,26.0396133 23.7191556,24.8729467 23.082,23.6437911 C22.3597778,22.2497022 21.6844444,20.7045467 21.6392889,18.8433467 C21.6010933,17.2947244 21.88408,15.1385022 22.7903111,13.7269022 C22.8736444,13.5984311 22.9656578,13.4751644 23.0680889,13.3588489 C23.1844089,14.7598711 23.6219111,16.0984489 24.3510667,17.2998267 C23.5680889,18.2216933 23.0767556,19.4595556 22.9951556,20.7599156 C22.9239733,21.8796933 23.3146,22.9526267 24.0924,23.7824933 C24.8840444,24.6262267 26.0021333,25.1106267 27.1948444,25.1106267 C33.7050667,25.1106267 39.0001778,19.8155156 39.0001778,13.3052889 L39.0001778,11.9164 C39.0001778,5.40618222 33.7050667,0.111066667 27.1597333,0.111066667 L27.1595556,0.111111111 Z M14.7306667,20.8488889 C14.7758044,21.5815111 14.5188622,22.2864 14.0067111,22.8315111 C13.4754667,23.3974667 12.7272,23.7221333 11.9164444,23.7221333 C6.17333333,23.7221333 1.499556,19.0483556 1.499556,13.3052444 L1.499556,11.9163556 C1.499556,6.17324444 6.17333333,1.49946667 11.9511111,1.49946667 C12.7254222,1.49946667 13.4754222,1.82412 14.0066667,2.38835556 C14.5205333,2.93524444 14.7775111,3.63835556 14.7306222,4.37271111 C14.6750667,5.2512 14.3799289,6.07928889 13.9146667,6.73902222 C13.6577244,6.43172889 13.3851556,6.13311111 13.0848,5.85186667 L12.1386222,6.86751111 C13.7861778,8.40568889 14.6941778,10.4456444 14.6941778,12.6106222 C14.6941778,14.7756 13.7861778,16.8154667 12.1368889,18.3537333 L13.0830667,19.3693778 C13.3834133,19.0881289 13.656,18.7895111 13.9129333,18.4822222 C14.3799556,19.1419556 14.6750667,19.9700889 14.7306222,20.8485333 L14.7306667,20.8488889 Z M25.4995556,34.9671111 L19.5551111,38.2084449 L13.6106667,34.9671111 C12.9943556,34.6303067 12.6106667,33.9844889 12.6106667,33.2813333 C12.6106667,32.2223111 13.4717778,31.3612 14.5308,31.3612 L24.5792444,31.3612 C25.6382667,31.3612 26.4993778,32.2223111 26.4993778,33.2813333 C26.4993778,33.9844444 26.1156978,34.6303111 25.4993778,34.9671111 L25.4995556,34.9671111 Z M37.6106667,13.3057778 C37.6106667,19.0488889 32.9368889,23.7226667 27.1591111,23.7226667 C26.3848,23.7226667 25.6348,23.3980133 25.1035556,22.8337778 C24.5896889,22.2868889 24.3327111,21.5837778 24.3796,20.8494222 C24.4351556,19.9709333 24.7302933,19.1428444 25.1955556,18.4831111 C25.4524978,18.7904044 25.7250667,19.0890222 26.0254222,19.3702667 L26.9716,18.3546222 C25.3240444,16.8164444 24.4160444,14.7764889 24.4160444,12.6115111 C24.4160444,10.4465333 25.3240444,8.40666667 26.9733333,6.8684 L26.0271556,5.85275556 C25.7268089,6.13400444 25.4542222,6.43262222 25.1972889,6.73991111 C24.732,6.08017778 24.4368889,5.25204444 24.3813333,4.3736 C24.3361956,3.64097778 24.5931378,2.93608889 25.1052889,2.39097778 C25.6348,1.82502222 26.3830667,1.50035556 27.1938222,1.50035556 C32.9369333,1.50035556 37.6107111,6.17413333 37.6107111,11.9172444 L37.6106667,13.3057778 Z" id="Fill-118"></path>
                <polygon id="Fill-119" points="9.13866667 6.36133333 10.5275556 6.36133333 10.5275556 4.97244444 9.13866667 4.97244444"></polygon>
                <polygon id="Fill-120" points="4.27777778 9.83333333 5.66666667 9.83333333 5.66666667 8.44444444 4.27777778 8.44444444"></polygon>
                <polygon id="Fill-121" points="4.27777778 16.7777778 5.66666667 16.7777778 5.66666667 15.3888889 4.27777778 15.3888889"></polygon>
                <polygon id="Fill-122" points="7.75022222 13.3053333 9.13911111 13.3053333 9.13911111 11.9164444 7.75022222 11.9164444"></polygon>
                <polygon id="Fill-123" points="9.13866667 20.2502222 10.5275556 20.2502222 10.5275556 18.8613333 9.13866667 18.8613333"></polygon>
                <polygon id="Fill-124" points="28.5831111 20.2502222 29.972 20.2502222 29.972 18.8613333 28.5831111 18.8613333"></polygon>
                <polygon id="Fill-125" points="33.4444444 16.7777778 34.8333333 16.7777778 34.8333333 15.3888889 33.4444444 15.3888889"></polygon>
                <polygon id="Fill-126" points="33.4444444 9.83333333 34.8333333 9.83333333 34.8333333 8.44444444 33.4444444 8.44444444"></polygon>
                <polygon id="Fill-127" points="29.9724444 13.3053333 31.3613333 13.3053333 31.3613333 11.9164444 29.9724444 11.9164444"></polygon>
                <polygon id="Fill-128" points="28.5831111 6.36133333 29.972 6.36133333 29.972 4.97244444 28.5831111 4.97244444"></polygon>
            </g>
        </g>
        <g id="Page"></g>
    </g>
</svg>