<?xml version="1.0" encoding="UTF-8"?>
<svg width="58px" height="66px" viewBox="0 0 58 66" version="1.1" xmlns="http://www.w3.org/2000/svg" xmlns:xlink="http://www.w3.org/1999/xlink">
    <!-- Generator: sketchtool 52.5 (67469) - http://www.bohemiancoding.com/sketch -->
    <title>63091765-64CC-4374-94D0-DE340AC01ED7</title>
    <desc>Created with sketchtool.</desc>
    <g id="Main_nav" stroke="none" stroke-width="1" fill="none" fill-rule="evenodd">
        <g id="O-nama" transform="translate(-176.000000, -1049.000000)" fill="#55D159">
            <path d="M231.656476,1113.91505 L234,1113.91505 C229.929101,1103.87625 222.650774,1096.24365 213.86193,1093.11906 C213.11355,1092.37239 212.224582,1091.6765 211.180767,1091.06225 C214.852233,1088.48987 218.416817,1083.95085 220.290109,1078.50474 C222.324154,1078.30188 223.91937,1076.57755 223.91937,1074.48699 C223.91937,1072.88949 222.985316,1071.50889 221.640522,1070.85519 C221.640522,1070.77912 221.648963,1070.70586 221.648963,1070.62979 C221.646147,1058.38243 220.155082,1049 205.120635,1049 C189.951363,1049 188.555576,1058.38243 188.555576,1070.62691 C188.555576,1070.71989 188.564017,1070.81286 188.566833,1070.90584 C187.281097,1071.58204 186.397747,1072.93163 186.397747,1074.48404 C186.397747,1076.55773 187.964801,1078.26796 189.976376,1078.49617 C191.917585,1083.90016 195.574934,1088.40225 199.198792,1090.98588 C198.160667,1091.58319 197.268819,1092.25938 196.517629,1092.9891 C187.557373,1096.02634 180.129745,1103.73259 176,1113.91492 L178.343527,1113.91492 C181.764572,1105.94692 187.318188,1099.66961 194.019835,1096.34234 C193.538749,1097.25519 193.181427,1098.16804 192.92546,1099.03026 C191.718516,1103.0931 192.345907,1106.78693 192.374046,1106.942 C192.385295,1107.00117 192.416243,1107.05188 192.435934,1107.10824 C191.063051,1107.8098 190.235878,1109.33404 190.517196,1110.9316 C190.823851,1112.6841 192.343098,1113.91533 194.059238,1113.91533 C194.267425,1113.91533 194.475611,1113.89842 194.68943,1113.85898 C196.647564,1113.51242 197.955772,1111.64161 197.609706,1109.68059 C197.328374,1108.08591 196.039843,1106.93352 194.514993,1106.73913 C194.514993,1106.68278 194.512184,1106.62643 194.500927,1106.56727 C194.495302,1106.53345 193.93263,1103.22571 194.996078,1099.64744 C195.55875,1097.75407 196.46187,1096.16502 197.688477,1094.86895 C198.048587,1094.75625 198.408697,1094.63791 198.774424,1094.5393 L198.200495,1096.60454 C198.011999,1097.05817 197.882583,1097.54279 197.798188,1098.04711 C197.71941,1098.46409 197.682837,1098.898 197.682837,1099.33755 C197.682837,1103.44828 201.011046,1106.78695 205.121269,1106.78695 C209.234373,1106.78695 212.5597,1103.44821 212.5597,1099.33755 C212.5597,1098.89802 212.523128,1098.46415 212.44435,1098.04711 C212.343073,1097.44135 212.163018,1096.86377 211.926692,1096.32281 L211.403409,1094.59289 C211.825415,1094.70841 212.241817,1094.84646 212.658176,1094.98452 C214.247702,1096.70038 215.083301,1098.71492 215.508086,1100.57727 C214.987612,1100.76886 214.486815,1101.02244 214.019824,1101.34926 C212.613162,1102.33539 211.670683,1103.8146 211.372439,1105.51069 L210.764754,1108.96498 C210.064225,1109.22419 209.524031,1109.82994 209.38899,1110.60474 C209.287712,1111.17106 209.414313,1111.743 209.746284,1112.21637 C210.075446,1112.68689 210.567767,1113.00243 211.136092,1113.10391 C211.262692,1113.12645 211.386484,1113.13772 211.510268,1113.13772 C212.55682,1113.13772 213.445859,1112.38824 213.628723,1111.35702 C213.73,1110.7907 213.603407,1110.21877 213.271429,1109.7482 C213.16452,1109.59324 213.03511,1109.46364 212.894437,1109.3453 L213.502123,1105.89102 C213.69906,1104.76401 214.326414,1103.7835 215.260468,1103.12706 C215.448964,1102.99464 215.645901,1102.88476 215.848462,1102.78614 C216.503978,1102.46495 217.224227,1102.32126 217.958491,1102.36352 C218.12448,1102.37478 218.290469,1102.38887 218.453642,1102.41704 C219.578986,1102.61427 220.558053,1103.23974 221.213525,1104.17798 C221.868997,1105.11622 222.119417,1106.25166 221.922495,1107.37585 L221.314809,1110.83014 C220.617096,1111.08936 220.074086,1111.69792 219.939045,1112.46991 C219.846202,1112.98833 219.958743,1113.49268 220.203503,1113.9181 C220.510158,1114.4506 221.033412,1114.85353 221.683339,1114.96619 C221.809939,1114.98873 221.93373,1115 222.057515,1115 C222.8481,1115 223.548586,1114.57174 223.92274,1113.91808 C224.043715,1113.70676 224.130927,1113.47291 224.175941,1113.21934 C224.313798,1112.43891 224.004327,1111.68943 223.441676,1111.21042 L224.049362,1107.75332 C224.347576,1106.05716 223.970584,1104.34692 222.983076,1102.93819 C221.998392,1101.52945 220.521365,1100.58559 218.827767,1100.2869 C218.422644,1100.21365 218.014711,1100.18266 217.609587,1100.18829 C217.525185,1099.80793 217.432348,1099.42474 217.316998,1099.0359 C217.077863,1098.23008 216.748701,1097.37919 216.31546,1096.52548 C222.867805,1099.88679 228.294879,1106.08246 231.656865,1113.91485 L231.656476,1113.91505 Z M221.553951,1072.60509 C222.071609,1073.06717 222.406403,1073.73491 222.406403,1074.48439 C222.406403,1075.55506 221.739638,1076.4651 220.799953,1076.83137 C221.168504,1075.4649 221.427329,1074.05328 221.553951,1072.60509 Z M187.911757,1074.48439 C187.911757,1073.78283 188.198722,1073.14887 188.657329,1072.69244 C188.662961,1072.72061 188.668586,1072.74879 188.677027,1072.77697 C188.814884,1074.15476 189.07371,1075.49865 189.439452,1076.80316 C188.539177,1076.41998 187.911793,1075.52685 187.911793,1074.48438 L187.911757,1074.48439 Z M195.479828,1110.058 C195.547349,1110.43836 195.462954,1110.82154 195.240694,1111.13429 C195.02125,1111.44985 194.689279,1111.66117 194.312258,1111.72597 C194.227856,1111.74287 194.143453,1111.75132 194.059058,1111.75132 C193.361345,1111.75132 192.764895,1111.24981 192.64397,1110.55955 C192.506112,1109.77631 193.029403,1109.02683 193.811518,1108.88878 C193.895921,1108.87469 193.980323,1108.86624 194.064719,1108.86624 C194.765248,1108.86342 195.358882,1109.36775 195.479807,1110.05801 L195.479828,1110.058 Z M205.121413,1104.62588 C202.209564,1104.62588 199.843569,1102.25351 199.843569,1099.34026 C199.843569,1099.05287 199.863267,1098.78239 199.905465,1098.53444 L200.282457,1097.18766 L201.154571,1094.04331 L201.601892,1092.42887 C202.85666,1093.02617 204.057987,1093.35297 205.121391,1093.35297 C206.190486,1093.35297 207.346727,1093.07404 208.534009,1092.56403 L208.986963,1094.06574 L209.859077,1096.94805 L210.340163,1098.55125 C210.379551,1098.79637 210.399242,1099.05839 210.399242,1099.34018 C210.399242,1102.25351 208.033176,1104.62581 205.121398,1104.62581 L205.121413,1104.62588 Z M205.121413,1091.18624 C205.079215,1091.18624 205.031385,1091.17498 204.989188,1091.17498 C204.170514,1091.14679 203.21399,1090.85096 202.189909,1090.31564 C201.962024,1090.19731 201.728514,1090.05643 201.495012,1089.91555 C201.095513,1089.67607 200.693191,1089.41404 200.28245,1089.10974 C197.221515,1086.83885 193.977716,1082.87743 192.165571,1078.12678 C191.9827,1077.65062 191.816711,1077.16604 191.664795,1076.67578 C191.270921,1075.39666 190.992404,1074.06957 190.846121,1072.71155 C190.975537,1072.50305 191.107762,1072.29737 191.242803,1072.10578 C191.560716,1071.66062 191.901128,1071.2577 192.261266,1070.88862 C194.998678,1068.08803 198.852935,1067.41464 203.197086,1066.65953 C204.851359,1066.37214 206.559073,1066.07631 208.280831,1065.64527 C210.469651,1065.09867 212.084456,1063.93504 213.077639,1062.18535 C215.086405,1058.64941 213.730339,1054.02044 213.674068,1053.8257 C213.502454,1053.25374 212.897599,1052.92972 212.329273,1053.1016 C211.75816,1053.27347 211.434616,1053.8764 211.606244,1054.44838 C211.617501,1054.48782 212.75694,1058.37597 211.201121,1061.11742 C210.500592,1062.34865 209.375219,1063.14321 207.757605,1063.54612 C206.114639,1063.95747 204.443441,1064.24768 202.828564,1064.52663 C198.268131,1065.31838 193.915842,1066.07623 190.725268,1069.3502 C190.860309,1056.7898 193.192597,1051.16309 205.121024,1051.16309 C213.226379,1051.16309 215.871027,1054.09892 217.153739,1056.30784 C219.072477,1059.60713 219.4776,1064.36023 219.483218,1070.46588 C219.483218,1070.51941 219.486034,1070.57295 219.486034,1070.62648 C219.486034,1071.08855 219.466343,1071.54777 219.435395,1072.00427 C219.328486,1073.59895 219.038713,1075.15144 218.605486,1076.64471 C218.462004,1077.14059 218.298831,1077.62803 218.127217,1078.10978 C216.340711,1083.04889 213.051899,1087.15681 209.836045,1089.38268 C209.526573,1089.59682 209.217102,1089.79123 208.910418,1089.97155 C208.575631,1090.16595 208.240837,1090.34345 207.914498,1090.49279 C206.980445,1090.91823 206.082979,1091.15208 205.261496,1091.17462 C205.210857,1091.17743 205.165843,1091.18589 205.120829,1091.18589 L205.121413,1091.18624 Z" id="kaoEntuzijastima"></path>
        </g>
        <g id="Page"></g>
    </g>
</svg>