<?xml version="1.0" encoding="UTF-8"?>
<svg width="51px" height="58px" viewBox="0 0 51 58" version="1.1" xmlns="http://www.w3.org/2000/svg" xmlns:xlink="http://www.w3.org/1999/xlink">
    <!-- Generator: sketchtool 52.5 (67469) - http://www.bohemiancoding.com/sketch -->
    <title>F331A98A-AE0C-48DE-9C23-9F9704E00455</title>
    <desc>Created with sketchtool.</desc>
    <g id="Main_nav" stroke="none" stroke-width="1" fill="none" fill-rule="evenodd">
        <g id="O-nama" transform="translate(-179.000000, -527.000000)" fill="#1D88E5">
            <path d="M230,581.902412 L229.95791,580.700801 C229.601527,570.14177 224.721543,560.431696 217.19224,555.164614 C217.057543,554.079583 216.473857,553.044424 215.494485,552.139771 C218.034113,549.467369 219.602775,545.881931 219.602775,541.93311 C219.602775,533.699297 212.828637,527 204.500205,527 C196.174143,527 189.39979,533.699084 189.39979,541.93311 C189.39979,545.554638 190.710264,548.873597 192.885098,551.462737 C192.789689,552.339684 192.73918,553.749449 192.725142,554.556988 C184.646205,559.674242 179.41853,569.614423 179.042097,580.70414 L179,581.905751 L192.719683,581.905751 L192.719683,585 L195.07404,585 L195.07404,583.826169 L195.812035,583.826169 L195.812035,585 L198.166392,585 L198.166392,583.826169 L199.019472,583.826169 L199.019472,585 L201.37383,585 L201.37383,583.826169 L202.22691,583.826169 L202.22691,585 L204.581267,585 L204.581267,583.826169 L205.28001,583.826169 L205.28001,585 L207.631565,585 L207.631565,581.905751 L230,581.902412 Z M227.544566,579.574282 L207.628828,579.574282 L207.628828,562.207827 C207.696177,562.199501 207.757915,562.191175 207.822454,562.182849 C208.119908,562.146773 208.41456,562.105143 208.703623,562.055193 C208.74572,562.046866 208.785001,562.041318 208.82429,562.03577 C212.663186,561.375296 215.547926,559.765752 216.686994,557.673341 C222.869041,562.438154 226.929702,570.608029 227.54392,579.574282 L227.544566,579.574282 Z M208.523934,556.310598 C208.958893,556.191268 209.382617,556.052516 209.800716,555.89711 C209.896125,555.861035 209.988732,555.830508 210.08414,555.794433 C210.300215,555.708408 210.513489,555.616827 210.723946,555.522475 C210.903542,555.441999 211.080329,555.355966 211.254314,555.269941 C211.526517,555.136737 211.793102,554.992435 212.05409,554.842578 C212.239297,554.737123 212.421702,554.626119 212.604099,554.512345 C212.789305,554.395793 212.974512,554.276463 213.154108,554.151585 C213.356153,554.010054 213.558198,553.865753 213.757435,553.715896 C214.307443,554.184889 214.846216,554.837016 214.874305,555.589071 L214.868694,555.722275 C214.792926,557.359589 212.042862,559.291018 207.631702,559.868238 L207.631702,556.540897 C207.856197,556.493717 208.075081,556.429893 208.296767,556.371617 C208.372535,556.349416 208.448302,556.329986 208.52407,556.310563 L208.523934,556.310598 Z M206.287391,554.398564 C206.130245,554.420764 205.981518,554.440187 205.838402,554.454062 C205.726154,554.465166 205.611098,554.476263 205.498851,554.487366 C205.268745,554.504019 205.035831,554.517893 204.800108,554.523442 C204.628932,554.52622 204.457755,554.531768 204.28377,554.52899 C204.048054,554.523442 203.81514,554.509567 203.579417,554.492915 C203.43069,554.481818 203.281963,554.473492 203.136038,554.45684 C203.023791,554.442965 202.908734,554.426313 202.796487,554.412438 C202.692659,554.398564 202.591633,554.381911 202.490614,554.365259 C202.333468,554.340287 202.17913,554.318087 202.024785,554.287553 C201.884478,554.259804 201.744163,554.226506 201.603856,554.193201 C201.376552,554.140474 201.149256,554.084975 200.924761,554.018373 C200.806903,553.985075 200.691847,553.946222 200.576791,553.910147 C200.332655,553.832441 200.088513,553.746416 199.847201,553.654835 C199.757403,553.61876 199.670414,553.582684 199.580616,553.546609 C199.319642,553.438383 199.064278,553.324601 198.81173,553.199723 C198.808929,553.196953 198.803311,553.196953 198.800509,553.194175 C198.738771,553.163648 198.677033,553.13035 198.615303,553.099823 C198.359939,552.966619 198.110193,552.827866 197.866029,552.678009 C197.82113,552.653038 197.77904,552.625281 197.734141,552.600303 C197.582605,552.505952 197.428268,552.414371 197.279541,552.314471 C197.077496,552.175718 196.88387,552.028639 196.690244,551.878782 C196.577997,551.792757 196.460139,551.712273 196.347891,551.620699 C196.095337,551.412567 195.854003,551.190559 195.618301,550.963003 C195.469575,550.768745 195.292788,550.566168 195.079514,550.402436 C193.016964,548.162967 191.748587,545.196379 191.748587,541.935604 C191.748587,534.986806 197.467564,529.331263 204.494142,529.331263 C211.523665,529.331263 217.24257,534.986877 217.24257,541.935604 C217.24257,545.723584 215.53641,549.117279 212.85368,551.428999 C212.674084,551.584404 212.488878,551.734261 212.300862,551.878562 C212.216675,551.945164 212.126877,552.008989 212.039888,552.07282 C211.677888,552.336452 211.304695,552.577889 210.920216,552.799868 L210.838837,552.847047 C210.760261,552.891449 210.681691,552.938628 210.603122,552.98303 L210.603122,552.9858 C210.415106,553.088478 210.224289,553.180059 210.030656,553.271632 L209.89596,553.338235 C209.856671,553.354887 209.820192,553.377088 209.780903,553.39374 C209.533959,553.504744 209.287015,553.607421 209.034431,553.701773 C208.986723,553.721196 208.936214,553.737848 208.888513,553.7545 L206.287391,554.398564 Z M181.454895,579.574147 C182.080671,570.327269 186.289973,562.094167 192.719144,557.376241 L192.719144,579.574147 L181.454895,579.574147 Z M195.073286,554.948012 C195.073286,554.631654 195.084507,554.137703 195.104155,553.613197 C195.328649,553.790803 195.567174,553.951757 195.800088,554.115488 C195.901107,554.187639 195.999325,554.265345 196.10316,554.334718 C196.235048,554.420743 196.372554,554.498449 196.50725,554.581704 L196.504442,554.584481 C196.54934,554.612231 196.597048,554.634431 196.639138,554.662188 C196.838375,554.781518 197.034809,554.909174 197.239664,555.020177 C197.416451,555.117306 197.601664,555.197783 197.784062,555.286586 C198.005747,555.394812 198.224632,555.508594 198.451935,555.605723 C198.668011,555.700074 198.886895,555.780551 199.108581,555.863806 C199.271338,555.924852 199.431293,555.994232 199.596859,556.049738 C199.647375,556.066383 199.700686,556.080258 199.751196,556.09691 C199.961661,556.16629 200.177736,556.227337 200.391002,556.288391 C200.500441,556.318917 200.607078,556.357771 200.716516,556.38552 C200.781063,556.402172 200.845603,556.410498 200.910142,556.427151 C200.97188,556.441025 201.036419,556.4549 201.100959,556.468774 C201.286165,556.510398 201.46857,556.5548 201.656585,556.590882 C201.740773,556.607534 201.82496,556.626957 201.90914,556.640832 C202.035418,556.663033 202.161695,556.674137 202.287972,556.69356 C202.473179,556.721309 202.658385,556.751836 202.8464,556.771266 C202.899719,556.776814 202.950228,556.78514 203.003547,556.790689 C203.040026,556.793466 203.073704,556.793466 203.110184,556.799015 C203.26733,556.812889 203.424476,556.818445 203.581622,556.829542 C203.825758,556.843416 204.0699,556.857291 204.316816,556.860069 C204.378554,556.860069 204.437483,556.868395 204.499221,556.868395 C204.687236,556.868395 204.880862,556.860069 205.077296,556.851742 C205.144645,556.848965 205.209184,556.851742 205.276533,556.848965 L205.276533,581.499971 L195.073336,581.497193 L195.073286,554.948012 Z" id="kaoPacijentima"></path>
        </g>
        <g id="Page"></g>
    </g>
</svg>