<?xml version="1.0" encoding="UTF-8"?>
<svg width="56px" height="64px" viewBox="0 0 56 64" version="1.1" xmlns="http://www.w3.org/2000/svg" xmlns:xlink="http://www.w3.org/1999/xlink">
    <!-- Generator: sketchtool 52.5 (67469) - http://www.bohemiancoding.com/sketch -->
    <title>0FDA42CD-FE25-4741-AE10-B5F899E1C1F7</title>
    <desc>Created with sketchtool.</desc>
    <g id="Main_nav" stroke="none" stroke-width="1" fill="none" fill-rule="evenodd">
        <g id="O-nama" transform="translate(-176.000000, -771.000000)" fill="#FF9600">
            <path d="M223.080637,807.380215 L213.020693,803.773651 C211.77532,803.25879 210.532429,802.125061 210.323168,801.196783 C214.781608,797.075339 217.479068,789.344799 217.479068,784.399222 C217.479068,776.977935 211.463878,771 203.99634,771 C196.528802,771 190.513612,776.977935 190.513612,784.399222 C190.513612,789.243446 193.313253,796.971259 197.669513,801.196783 C197.462793,802.125061 196.217361,803.154756 194.971987,803.773651 L184.912044,807.380215 C179.6293,809.338188 176,814.38791 176,819.952252 L176,835 L232,835 L231.997445,819.952252 C231.997445,814.387715 228.368405,809.337799 223.080826,807.380215 L223.080637,807.380215 Z M221.628485,819.541257 C222.769261,819.541257 223.703324,820.469535 223.703324,821.603245 C223.703324,822.736955 222.769261,823.665233 221.628485,823.665233 C220.487709,823.665233 219.553646,822.736955 219.553646,821.603245 C219.553646,820.467002 220.487709,819.541257 221.628485,819.541257 Z M211.777606,776.25496 C210.430118,776.150971 209.080081,776.460399 207.941853,777.183237 C205.348925,778.730345 202.54935,778.730345 199.956226,777.183237 C198.81545,776.564394 197.467961,776.25496 196.222588,776.25496 C198.297426,774.296986 200.992404,773.163276 204.00111,773.163276 C207.004915,773.163276 209.807039,774.296986 211.777018,776.25496 L211.777606,776.25496 Z M192.591326,784.500185 C192.591326,782.438197 193.109395,780.584239 194.148075,778.831633 C195.704825,778.00737 197.46574,778.11132 198.917892,778.935622 C200.576757,779.8639 202.235556,780.37878 203.999019,780.37878 C205.762482,780.37878 207.421347,779.863919 209.080146,778.935622 C210.532298,778.111359 212.397811,778.111359 213.95456,778.935622 C214.888623,780.584213 215.51131,782.542186 215.51131,784.604174 C215.51131,791.200874 210.223405,802.124385 204.103551,802.124385 C197.983698,802.121847 192.59126,791.094392 192.59126,784.49964 L192.591326,784.500185 Z M199.436242,802.637214 C200.888394,803.565491 202.340481,804.080372 203.999346,804.080372 C205.658211,804.080372 207.21496,803.565511 208.562449,802.637214 C209.287251,803.976357 210.739338,805.110067 212.19149,805.728897 L207.835099,816.860828 L206.592274,810.368013 L208.769162,806.142619 L199.229268,806.142619 L201.406157,810.472028 L200.160783,816.860828 L195.804392,805.728897 C197.154429,805.112586 198.711179,803.978889 199.435981,802.637214 L199.436242,802.637214 Z M202.547194,808.204283 L205.451432,808.204283 L204.517369,810.162256 L206.592208,820.570887 L204.103943,827.063702 L201.615679,820.570887 L203.690518,810.266141 L202.547194,808.204283 Z M229.925553,832.938012 L178.07549,832.938012 L178.072936,819.952382 C178.488923,810.986454 186.471466,808.924985 186.471466,808.924985 C187.507579,811.296356 187.818955,813.870692 187.405529,816.447561 C184.50129,816.962421 182.219739,819.435294 182.219739,822.526978 L182.219739,826.648422 L186.366868,826.648422 L186.366868,824.586434 L184.292029,824.586434 L184.292029,822.524446 C184.292029,820.257025 186.157607,818.403002 188.439159,818.403002 C190.720711,818.403002 192.586289,820.257025 192.586289,822.524446 L192.586289,824.586434 L190.51145,824.586434 L190.51145,826.648422 L194.658579,826.648422 L194.658579,822.526978 C194.658579,819.435294 192.377028,816.962441 189.472789,816.447561 C189.888776,813.66526 189.472789,810.779009 188.436676,808.202335 L193.82918,806.348312 L203.991695,832.62928 L214.154211,806.348312 L218.924027,807.996902 C220.68749,810.779203 221.310177,814.18027 220.789605,817.477711 C218.924027,817.891121 217.471941,819.539699 217.471941,821.497672 C217.471941,823.765093 219.337519,825.619116 221.61907,825.619116 C223.900622,825.619116 225.7662,823.765093 225.7662,821.497672 C225.7662,819.643649 224.520826,818.096541 222.861961,817.581725 C223.277948,814.695475 222.861961,811.707741 221.721185,809.026793 C221.721185,809.026793 229.084191,810.675383 229.913264,819.950304 L229.925553,832.938012 Z" id="kaoStrucnjacima"></path>
        </g>
        <g id="Page"></g>
    </g>
</svg>