<?xml version="1.0" encoding="UTF-8"?>
<svg width="40px" height="33px" viewBox="0 0 40 33" version="1.1" xmlns="http://www.w3.org/2000/svg" xmlns:xlink="http://www.w3.org/1999/xlink">
    <!-- Generator: sketchtool 52.3 (67297) - http://www.bohemiancoding.com/sketch -->
    <title>637B7CDE-DC7F-4F67-B632-6648311F7E86</title>
    <desc>Created with sketchtool.</desc>
    <g id="Main_nav" stroke="none" stroke-width="1" fill="none" fill-rule="evenodd">
        <g id="Home" transform="translate(-945.000000, -811.000000)" fill="#EE3131">
            <g id="koagulacija" transform="translate(945.000000, 811.000000)">
                <path d="M34.4150495,25.6254045 C33.2315644,24.0705156 30.6062574,24.1312002 28.5516832,25.7608153 C26.4956832,27.3920082 25.7902178,29.9740729 26.973703,31.5292408 C28.1571881,33.0856825 30.782495,33.0249978 32.8386535,31.395384 C34.8931089,29.7657848 35.5985743,27.1821263 34.4150891,25.6257631 L34.4150495,25.6254045 Z M34.2216713,27.6425803 C34.1458653,27.9305274 33.8534772,28.0986114 33.5688396,28.0239132 C33.284202,27.9492149 33.1140277,27.653474 33.1898178,27.3686548 C33.2037426,27.3141781 33.2068356,27.2783809 33.2068356,27.2565895 C33.2037426,27.2021128 33.199101,27.2005588 33.1774416,27.1663156 C33.1387683,27.1149509 33.0320198,27.0417986 32.755105,27.0386867 C32.2291248,27.0293469 31.2916198,27.3811105 30.4345505,28.0612802 C29.3980356,28.8457574 28.8148277,29.8869987 28.8442139,30.3119105 C28.8457624,30.4270878 28.8705149,30.4753406 28.8968119,30.5126957 C28.9401307,30.5484929 28.906095,30.5625025 29.0747208,30.5749542 L29.0932871,30.5749542 C29.3872238,30.5749542 29.6254851,30.8146485 29.6254851,31.1103974 C29.6254851,31.4061462 29.3872436,31.6473945 29.0932871,31.6473945 L29.0747208,31.6473945 L29.0406891,31.6473945 C28.5889663,31.6473945 28.2192238,31.4030303 28.0536792,31.1695679 C27.8572079,30.9174219 27.7752119,30.6061134 27.7767604,30.3104203 C27.807699,29.2535995 28.5997703,28.1594036 29.7786218,27.2130743 C30.787295,26.4317449 31.8438891,25.9756739 32.7535525,25.9647961 C33.2161267,25.9616801 33.7003248,26.1033227 34.0159287,26.5064551 C34.1489743,26.6729971 34.2742812,26.9406908 34.2711881,27.2551112 C34.2742812,27.3827402 34.2557149,27.513485 34.2216832,27.6426719 L34.2216713,27.6425803 Z" id="Fill-1"></path>
                <path d="M39.5112871,10.6694156 C38.1421782,8.25689326 34.2776238,7.85377687 30.6483168,9.64992997 C30.5508554,8.76273122 30.2723881,7.83042743 29.7927921,6.9370128 C28.3385743,4.23031152 25.6407129,2.91182565 23.7670495,3.99374909 C21.8935842,5.07547332 21.5532673,8.1480355 23.0074455,10.8547368 C23.7778614,12.2898104 24.897901,13.3201739 26.0581782,13.8229039 C25.1129505,15.4976479 24.910297,17.2595738 25.6961743,18.645 C27.1519366,21.2100507 31.4248871,21.5042297 35.2399366,19.3018124 C39.0549069,17.0994349 40.9686337,13.234546 39.5112238,10.6696945 L39.5112871,10.6694156 Z M24.9706931,9.75265153 C24.3518812,8.63355228 24.0177426,7.51134509 24.0146139,6.57744748 C24.0146139,5.88326008 24.2033505,5.19218063 24.8206337,4.83731707 C24.9768832,4.74704323 25.1934693,4.67077505 25.4440792,4.67077505 C25.6451921,4.67077505 25.8648713,4.72058186 26.0830099,4.82175344 C26.349101,4.94627047 26.4635802,5.26224487 26.3398178,5.52837262 C26.2145069,5.79452825 25.9004515,5.90970551 25.6343921,5.78674644 C25.5353822,5.73849759 25.4796911,5.7338277 25.4441069,5.7338277 C25.4007881,5.73538566 25.3791327,5.74160951 25.3373624,5.76340099 C25.2352594,5.80542598 25.0743683,6.04512026 25.0743683,6.57588952 C25.0712752,7.24983543 25.345097,8.24907957 25.8973782,9.23589193 C26.5100119,10.3923264 27.3902495,11.1923831 27.9673188,11.4678745 C27.9549426,11.4803262 27.9425663,11.492778 27.9301901,11.5036717 C27.6687406,11.743366 27.4258733,11.992416 27.1984277,12.2461119 C27.1968792,12.2461119 27.1968792,12.2476699 27.1953347,12.2492278 C26.378503,11.7667393 25.6173545,10.8717707 24.970701,9.75267146 L24.9706931,9.75265153 Z M34.6411881,18.2445134 C31.4047921,20.1122688 27.8669307,20.020425 26.7421782,18.0390623 C25.617505,16.0576677 27.3300594,12.9352589 30.5664158,11.0677027 C33.8043564,9.19994736 37.3406733,9.29179111 38.4654257,11.2731538 C39.590099,13.2545484 37.8775446,16.3769573 34.6411881,18.2445134 Z M35.8710891,11.9596909 C34.7556832,11.9659187 33.3045545,12.4733386 31.8271287,13.3651594 C30.8493861,13.9581792 30.0263762,14.6336791 29.4292277,15.2998551 C28.8413465,15.973801 28.4406733,16.6166276 28.4236436,17.3216928 C28.4236436,17.5504934 28.4793347,17.7870877 28.6046455,17.9925308 C28.7701782,18.3038234 29.2079723,18.5979824 29.7525267,18.5979824 C29.7695446,18.5979824 29.7865624,18.5979824 29.8035802,18.5964284 C30.0975168,18.5979824 30.3373228,18.3582881 30.3388673,18.0625791 C30.3388673,17.7652962 30.1006257,17.525582 29.8066693,17.524028 C29.4988119,17.5037905 29.554503,17.4664394 29.5158257,17.4384241 C29.501901,17.4119627 29.4895248,17.3839474 29.4879762,17.3201309 C29.4709624,17.1146798 29.7045624,16.5776907 30.2212832,16.015826 C30.7286891,15.4461556 31.4790257,14.8251245 32.3762931,14.2803575 C33.722198,13.4569912 35.0851248,13.0227555 35.8694851,13.0305254 C36.3088515,13.0289714 36.4728079,13.1566003 36.4867485,13.2017373 C36.4975802,13.2250867 36.5006733,13.2297566 36.5037663,13.2639958 C36.5022218,13.2935691 36.4944871,13.3667213 36.4264158,13.5021361 C36.2918257,13.7651798 36.3939287,14.08894 36.6553782,14.2258888 C36.9168277,14.3612996 37.2401703,14.258578 37.3747446,13.9955343 C37.5016,13.7480582 37.5696713,13.5021281 37.5696713,13.2655657 C37.5712198,13.0212015 37.4938653,12.8032788 37.399497,12.6476425 C37.0622455,12.1075374 36.4635366,11.959671 35.8710218,11.959671 L35.8710891,11.9596909 Z" id="Fill-2"></path>
                <path d="M10.0217822,0.675380343 C7.70740594,-0.92776141 4.08435683,0.485492876 1.92910891,3.83189688 C-0.22590099,7.17983096 -0.0944158416,11.1909527 2.22149703,12.7955289 C4.53741782,14.3986706 8.15892277,12.9854163 10.3141703,9.63901232 C12.4676356,6.29107824 12.337695,2.27836271 10.0217822,0.675380343 Z M9.41536634,9.00108669 C7.65794059,11.707788 4.76031683,12.8875718 2.94091129,11.6361857 C1.12150535,10.3847996 1.07053505,7.17708162 2.82797663,4.46878652 C4.58385743,1.76208525 7.48302574,0.582301376 9.30243168,1.83368752 C11.1217584,3.08507365 11.1712634,6.29438541 9.41536634,9.00108669 Z M8.88938614,3.22349674 C8.65268911,3.06006665 8.37267327,2.99002632 8.10811881,2.99158428 C6.92,3.03516723 5.70558416,4.07956424 4.68918812,5.58930826 C3.92958416,6.75510638 3.50415842,7.94891584 3.4979802,8.93724233 C3.49643327,9.51934448 3.66196436,10.1108103 4.15857426,10.45635 C4.32101386,10.5699733 4.56388119,10.6726989 4.84855446,10.6726989 L4.85319604,10.6726989 C5.02182178,10.6726989 5.20127921,10.6384557 5.38226535,10.5699733 C5.6514495,10.4688017 5.78757228,10.1653029 5.69012277,9.89136549 C5.59266139,9.61587008 5.29408317,9.47577747 5.0264396,9.576961 L5.0264396,9.57540304 C4.94444752,9.60653429 4.8918495,9.61275815 4.85472079,9.61275815 C4.79748119,9.61120418 4.7773703,9.60030645 4.73714851,9.57540304 C4.64896634,9.5224843 4.53603564,9.34349058 4.53448713,8.93568438 C4.52675248,8.27261628 4.87483564,7.19866192 5.55088317,6.17606834 C6.41104158,4.81259696 7.62391287,4.00481019 8.10811089,4.04840111 C8.21176238,4.04995907 8.26745347,4.07019259 8.31541386,4.10131985 C8.3695604,4.15735052 8.40359604,4.14023291 8.4268,4.3752573 C8.43607921,4.66787431 8.67741782,4.89512086 8.96363168,4.88420321 C9.24983366,4.87330947 9.47262178,4.62582939 9.4617703,4.33477433 C9.4555802,3.80403296 9.16319208,3.39155289 8.88937426,3.22344494 L8.88938614,3.22349674 Z" id="Fill-3"></path>
                <path d="M17.3358416,12.7365974 C15.6511287,12.7365974 14.1458614,13.9335149 13.140198,15.8121879 C11.3255446,15.5740476 9.13346535,16.0207549 7.0649505,17.2129944 C3.24843525,19.4153719 1.33623723,23.2802608 2.79207881,25.8451123 C4.24792079,28.4099638 8.52079208,28.7043419 12.3358416,26.5019247 C12.4920911,26.4116508 12.6390574,26.3151491 12.7891089,26.2186474 C13.7761188,28.5113147 15.443802,30.0179906 17.3356436,30.0179906 C20.3662574,30.0179906 22.8227723,26.148639 22.8227723,21.3763098 C22.8212238,16.6040205 20.3645545,12.7362229 17.3356436,12.7362229 L17.3358416,12.7365974 Z M5.70059406,25.1946752 C5.86612673,25.5059678 6.30392079,25.8001268 6.84847525,25.8001268 C6.86549307,25.8001268 6.88251089,25.8001268 6.89952871,25.7985688 C7.19346535,25.8001268 7.43327129,25.5604285 7.43481584,25.2647195 C7.43481584,24.9674366 7.19657426,24.7277224 6.90261782,24.7261684 C6.5947604,24.7059349 6.65045149,24.6685798 6.61177426,24.6405645 C6.5978495,24.6141071 6.58547327,24.5860878 6.58392871,24.5222713 C6.56691089,24.3168202 6.80051485,23.7798311 7.31723564,23.2179704 C7.82464158,22.6483 8.57497822,22.0272689 9.47224554,21.4825019 C10.3184634,20.9641923 11.170899,20.6015589 11.882503,20.4054396 C11.8608436,20.724514 11.8469188,21.0482662 11.8469188,21.3782264 C11.8469188,22.690337 12.037204,23.9292515 12.3698099,25.0436888 C12.1640554,25.1822155 11.9567406,25.3207382 11.7355129,25.4483592 C8.49911683,27.3161146 4.96125545,27.2242708 3.83650416,25.2429041 C2.71183129,23.2599556 4.42438416,20.1391007 7.66074059,18.2715446 C9.36866139,17.2862862 11.1508396,16.8598203 12.625097,16.956326 C12.3543683,17.6692009 12.1486218,18.4474224 12.0155525,19.2738966 C11.0795921,19.4669 10.0075129,19.9136153 8.91994851,20.5688737 C7.94220594,21.1618935 7.11919604,21.8373934 6.52204752,22.5035694 C5.93416634,23.1775153 5.53349307,23.8203419 5.51646337,24.5254071 C5.5195604,24.7510957 5.57525149,24.989248 5.70055842,25.1946911 L5.70059406,25.1946752 Z M17.3342574,28.8181405 C14.9611089,28.8181405 13.039604,25.4873002 13.039604,21.3766047 C13.039604,17.2677421 14.9625743,13.9366626 17.3342574,13.9366626 C19.7059406,13.9366626 21.6289109,17.267503 21.6289109,21.3781985 C21.6289109,25.4870611 19.7059406,28.8181405 17.3342574,28.8181405 Z M17.677699,16.6545206 C17.8540594,16.4521815 17.9654455,16.4210502 18.0180475,16.4226082 C18.0737386,16.4412877 18.1000396,16.3743593 18.3057941,16.6903218 C18.4527604,16.9471376 18.7776356,17.0342996 19.0328832,16.8864371 C19.2881426,16.7385746 19.3763248,16.4101645 19.2278099,16.1533605 C18.9338733,15.5977158 18.4109782,15.3284402 18.0164832,15.3486817 C17.0387406,15.4078283 16.540602,16.2592299 16.158503,17.2755677 C15.7841228,18.3261727 15.5675327,19.7161014 15.5659881,21.2507887 C15.5675366,22.783922 15.7841188,24.1738109 16.158503,25.2260097 C16.5406178,26.2408334 17.0372356,27.095319 18.0164832,27.1528957 C18.0288594,27.1528957 18.0427842,27.1544536 18.056705,27.1544536 C18.4450099,27.1544536 18.9431604,26.88674 19.2277941,26.3482208 C19.3747604,26.091405 19.2881267,25.7629709 19.0328673,25.6151443 C18.7776079,25.4672818 18.4511644,25.5544437 18.3057782,25.8112596 C18.1000238,26.127222 18.0737228,26.0602936 18.0180317,26.0789732 C17.9654337,26.0805272 17.852499,26.0493999 17.6776832,25.8470607 C17.1408515,25.2462711 16.6179604,23.3878395 16.6334455,21.2508883 C16.631897,19.8205164 16.8438416,18.5286473 17.1625149,17.6383406 C17.3218574,17.1931873 17.5090495,16.8507555 17.6776832,16.6546362 L17.677699,16.6545206 Z" id="Fill-4"></path>
            </g>
        </g>
        <g id="Page"></g>
    </g>
</svg>