<?xml version="1.0" encoding="UTF-8"?>
<svg width="40px" height="40px" viewBox="0 0 40 40" version="1.1" xmlns="http://www.w3.org/2000/svg" xmlns:xlink="http://www.w3.org/1999/xlink">
    <!-- Generator: sketchtool 52.6 (67491) - http://www.bohemiancoding.com/sketch -->
    <title>00B15C8F-5B31-4DCB-8BCA-E1BC646035A2</title>
    <desc>Created with sketchtool.</desc>
    <g id="Main_nav" stroke="none" stroke-width="1" fill="none" fill-rule="evenodd">
        <g id="Grupe-Analiza" transform="translate(-187.000000, -2541.000000)" fill="#E7CF4C">
            <path d="M225.378129,2565.84398 C223.726584,2564.19243 220.898571,2563.30023 217.276605,2563.35491 L204.640722,2550.71735 C204.617287,2546.8658 203.82509,2544.28777 202.156386,2542.61898 C199.251733,2539.50335 192.781273,2540.89398 192.694074,2546.70976 C186.773729,2546.8082 185.58174,2553.38774 188.598912,2556.17693 C190.250457,2557.82849 193.06927,2558.73941 196.700437,2558.66601 L209.333119,2571.30197 C209.331555,2572.78948 209.526869,2577.30035 211.844015,2579.42674 C215.558061,2582.83453 221.420326,2580.3611 221.283127,2575.31595 C226.415879,2575.4722 228.845457,2569.31117 225.378289,2565.84398 L225.378129,2565.84398 Z M223.782824,2572.09396 C222.02348,2573.85332 220.379736,2572.65488 218.459274,2572.48303 C218.86551,2574.34866 219.838941,2576.03926 218.070213,2577.80661 C216.785865,2579.08941 214.698365,2579.08941 213.415457,2577.80661 C212.220148,2576.61129 211.429555,2574.07538 211.604553,2570.38183 L197.620284,2556.39268 C193.896879,2556.38487 191.781138,2556.16611 190.195554,2554.58176 C188.914326,2553.30053 188.909646,2551.21301 190.195554,2549.92698 C191.865858,2548.29574 195.519104,2549.53791 195.519104,2549.53791 C195.519104,2549.53791 194.073797,2546.11293 195.908164,2544.21433 C197.190952,2542.93154 199.278452,2542.93154 200.56132,2544.21433 C201.756629,2545.40965 202.636301,2548.67832 202.372224,2551.64071 L216.358093,2565.62986 C220.403255,2565.57049 222.528436,2566.1861 223.782824,2567.44078 C225.203131,2568.86109 224.929693,2570.94701 223.782824,2572.09396 Z" id="kostaniMarker"></path>
        </g>
        <g id="Page"></g>
    </g>
</svg>