<svg width="300" height="83" viewBox="0 0 300 83" fill="none" xmlns="http://www.w3.org/2000/svg">
<g clip-path="url(#clip0_1:2)">
<path fill-rule="evenodd" clip-rule="evenodd" d="M86.839 15.0491C86.838 14.6547 86.7202 14.2695 86.5004 13.9421C86.2806 13.6147 85.9686 13.3597 85.604 13.2095C85.2394 13.0593 84.8384 13.0205 84.4517 13.098C84.0651 13.1756 83.7101 13.366 83.4316 13.6452C83.1531 13.9244 82.9635 14.2799 82.887 14.6667C82.8104 15.0536 82.8502 15.4544 83.0013 15.8187C83.1525 16.1829 83.4082 16.4942 83.7361 16.7132C84.0641 16.9322 84.4496 17.0491 84.844 17.0491C85.3736 17.0478 85.881 16.8365 86.255 16.4615C86.629 16.0866 86.839 15.5786 86.839 15.0491V15.0491Z" fill="white"/>
<path fill-rule="evenodd" clip-rule="evenodd" d="M84.632 4.98702C84.632 4.00044 84.3395 3.03602 83.7913 2.21573C83.2432 1.39544 82.4641 0.756119 81.5526 0.378618C80.6411 0.00111774 79.6382 -0.097602 78.6706 0.0949421C77.703 0.287486 76.8141 0.762645 76.1166 1.46033C75.4191 2.15801 74.9441 3.04689 74.7517 4.01453C74.5594 4.98217 74.6583 5.98511 75.036 6.89653C75.4137 7.80795 76.0532 8.58691 76.8736 9.13487C77.694 9.68284 78.6585 9.97522 79.645 9.97502C80.3 9.97502 80.9486 9.84599 81.5537 9.59531C82.1588 9.34463 82.7086 8.9772 83.1717 8.51401C83.6348 8.05082 84.0021 7.50094 84.2527 6.89577C84.5033 6.2906 84.6322 5.642 84.632 4.98702V4.98702Z" fill="#FF9600"/>
<path fill-rule="evenodd" clip-rule="evenodd" d="M78.3649 16.4742C78.3649 15.7976 78.1643 15.1361 77.7883 14.5735C77.4124 14.0109 76.878 13.5724 76.2529 13.3135C75.6277 13.0546 74.9398 12.987 74.2762 13.119C73.6126 13.2511 73.003 13.577 72.5246 14.0556C72.0462 14.5341 71.7205 15.1438 71.5886 15.8074C71.4567 16.4711 71.5246 17.159 71.7836 17.7841C72.0427 18.4092 72.4814 18.9434 73.0441 19.3192C73.6068 19.6949 74.2683 19.8954 74.945 19.8952C75.3942 19.8952 75.839 19.8067 76.254 19.6348C76.669 19.4629 77.046 19.2109 77.3636 18.8932C77.6812 18.5755 77.9331 18.1984 78.1049 17.7833C78.2767 17.3683 78.3651 16.9234 78.3649 16.4742V16.4742Z" fill="#00E7CA"/>
<path fill-rule="evenodd" clip-rule="evenodd" d="M5.93707 21.8732C6.70046 21.858 7.45865 22.0021 8.16321 22.2964C8.86777 22.5906 9.50322 23.0285 10.0291 23.5822C11.137 24.7207 11.7925 26.2236 11.873 27.8102V63.3392C11.8473 64.4724 12.2675 65.5705 13.0431 66.3971C13.4178 66.8084 13.8768 67.1339 14.3889 67.3513C14.901 67.5688 15.454 67.6731 16.0101 67.6572C17.5333 67.6433 19.0019 68.2237 20.1041 69.2752C20.6523 69.7636 21.0973 70.3567 21.4129 71.0196C21.7285 71.6825 21.9084 72.4019 21.9419 73.1353C21.9754 73.8688 21.862 74.6016 21.6082 75.2905C21.3544 75.9795 20.9654 76.6107 20.4641 77.1471C19.4726 78.2576 18.1159 78.9758 16.6401 79.1712H15.381C13.3305 79.1825 11.3031 78.7385 9.44507 77.8711C7.61605 77.0217 5.95591 75.8481 4.54504 74.4072C3.12585 72.9548 1.99637 71.2453 1.21704 69.3702C0.408143 67.4627 -0.00583362 65.4111 6.2098e-05 63.3392V27.4492C0.165228 25.9812 0.832129 24.6152 1.88806 23.5822C2.96202 22.5045 4.41574 21.8909 5.93707 21.8732V21.8732Z" fill="white"/>
<path fill-rule="evenodd" clip-rule="evenodd" d="M44.885 67.3874C46.2271 67.3946 47.5573 67.1346 48.7979 66.6224C49.9918 66.1368 51.0773 65.4185 51.991 64.5094C52.9041 63.5892 53.6364 62.5058 54.15 61.3154C54.6959 60.0532 54.9715 58.6906 54.9589 57.3154C54.9592 55.9986 54.6836 54.6963 54.15 53.4924C53.0915 51.0541 51.1463 49.1089 48.708 48.0504C47.5043 47.5162 46.2019 47.2406 44.885 47.2414C43.5822 47.2376 42.2939 47.5135 41.107 48.0504C39.9173 48.5827 38.8351 49.3284 37.914 50.2504C36.9843 51.1828 36.238 52.2815 35.7139 53.4894C35.18 54.6932 34.904 55.9955 34.9039 57.3124C34.8972 58.6635 35.1892 59.9994 35.7589 61.2244C36.302 62.4188 37.0619 63.5021 38 64.4194C38.9306 65.3195 40.0116 66.0499 41.1939 66.5774C42.3521 67.1085 43.6108 67.3848 44.885 67.3874V67.3874ZM47.494 35.6344C50.1529 35.9241 52.7323 36.7179 55.094 37.9734C57.4092 39.1917 59.4822 40.8228 61.211 42.7864C62.9321 44.7563 64.3011 47.0079 65.258 49.4424C66.2506 51.9473 66.7544 54.6191 66.742 57.3134V73.2334C66.7516 74.0112 66.5962 74.7822 66.2859 75.4955C65.9756 76.2088 65.5176 76.8482 64.942 77.3714C64.3187 78.0013 63.5585 78.479 62.7206 78.7673C61.8827 79.0556 60.9896 79.1468 60.1107 79.0338C59.2318 78.9208 58.3907 78.6067 57.653 78.1158C56.9152 77.6249 56.3006 76.9705 55.857 76.2034C55.5757 76.3119 55.3049 76.4459 55.0479 76.6034C54.8079 76.7524 54.567 76.8864 54.328 77.0034C52.9115 77.6555 51.4349 78.168 49.919 78.5334C48.2961 78.9002 46.6368 79.081 44.973 79.0724C40.675 79.1336 36.4637 77.8609 32.919 75.4294C29.4576 73.0933 26.7166 69.838 25.004 66.0294C24.4089 64.6668 23.9418 63.2516 23.609 61.8024C22.951 58.8385 22.951 55.7663 23.609 52.8024C23.9418 51.3532 24.4089 49.9381 25.004 48.5754C26.6907 44.7389 29.4364 41.4628 32.919 39.1314C36.4741 36.7266 40.6813 35.4701 44.973 35.5314H46.273C46.6818 35.5377 47.0898 35.5721 47.494 35.6344V35.6344Z" fill="white"/>
<path fill-rule="evenodd" clip-rule="evenodd" d="M143.879 39.6102C146.653 39.5607 149.407 40.0801 151.973 41.1363C154.538 42.1925 156.86 43.7631 158.795 45.7512C159.28 46.2812 159.651 46.9052 159.885 47.5845C160.119 48.2638 160.211 48.9839 160.155 49.7002C160.107 51.1347 159.491 52.4916 158.444 53.4732C157.344 54.4873 155.904 55.0509 154.408 55.0521C153.66 55.1052 152.91 54.9911 152.211 54.7179C151.513 54.4448 150.884 54.0196 150.371 53.4732C148.602 51.8523 146.278 50.9727 143.879 51.0162C142.561 51.0105 141.258 51.2952 140.062 51.8501C138.888 52.3885 137.819 53.1311 136.904 54.0432C136.003 54.941 135.274 55.9969 134.754 57.1582C134.23 58.3158 133.961 59.5724 133.964 60.8432C133.957 62.1568 134.226 63.4572 134.754 64.6601C135.271 65.8467 136.016 66.9201 136.947 67.8192C137.866 68.7151 138.935 69.4428 140.106 69.9692C141.291 70.4976 142.584 70.7375 143.879 70.6691C146.266 70.7377 148.589 69.8896 150.371 68.2992C150.887 67.7453 151.512 67.3037 152.207 67.0017C152.901 66.6998 153.65 66.5439 154.407 66.5439C155.165 66.5439 155.914 66.6998 156.608 67.0017C157.303 67.3037 157.928 67.7453 158.444 68.2992C158.966 68.7627 159.385 69.331 159.673 69.9671C159.962 70.602 160.126 71.287 160.155 71.9841C160.184 72.685 160.08 73.3851 159.848 74.0472C159.619 74.7106 159.261 75.3223 158.795 75.8472C156.862 77.8162 154.568 79.3952 152.039 80.4982C149.455 81.576 146.678 82.1134 143.879 82.0772C141.04 82.0948 138.229 81.5117 135.631 80.3662C130.546 78.1463 126.487 74.0878 124.267 69.0032C123.139 66.446 122.557 63.6819 122.557 60.8872C122.557 58.0924 123.139 55.3283 124.267 52.7712C125.375 50.2445 126.954 47.9517 128.919 46.0152C130.893 44.0748 133.195 42.5004 135.719 41.3652C138.28 40.1977 141.064 39.5989 143.879 39.6102V39.6102Z" fill="white"/>
<path fill-rule="evenodd" clip-rule="evenodd" d="M170.2 39.521C171.74 39.5548 173.207 40.1878 174.288 41.2855C175.37 42.3832 175.98 43.8592 175.991 45.4V60.843C175.984 62.1565 176.253 63.4569 176.78 64.66C177.782 67.0078 179.652 68.8781 182 69.881C183.203 70.4083 184.503 70.6775 185.817 70.671C187.079 70.6763 188.331 70.4386 189.503 69.971C190.648 69.5181 191.703 68.8638 192.618 68.039C193.535 67.2062 194.267 66.1908 194.768 65.058C195.297 63.8708 195.567 62.5839 195.557 61.284V45.313C195.525 44.2504 195.833 43.2052 196.435 42.329C196.557 42.1468 196.688 41.9712 196.829 41.803C196.975 41.627 197.136 41.4517 197.312 41.277C197.801 40.7127 198.408 40.2629 199.09 39.9595C199.773 39.656 200.513 39.5063 201.26 39.521C202.031 39.5167 202.794 39.6702 203.504 39.9722C204.213 40.2742 204.853 40.7183 205.384 41.277C206.436 42.2595 207.065 43.6123 207.139 45.05V60.843C207.157 63.6781 206.589 66.4863 205.472 69.092C203.302 74.1848 199.246 78.2408 194.153 80.411C191.519 81.5339 188.681 82.1011 185.817 82.077C183.052 82.2023 180.294 81.7079 177.745 80.63C172.641 78.505 168.533 74.5223 166.251 69.486C165.088 66.971 164.49 64.2318 164.5 61.461V45.313C164.494 44.5736 164.634 43.8402 164.912 43.1551C165.191 42.47 165.602 41.8467 166.122 41.321C166.645 40.7615 167.276 40.3136 167.977 40.0042C168.678 39.6949 169.434 39.5305 170.2 39.521V39.521Z" fill="white"/>
<path fill-rule="evenodd" clip-rule="evenodd" d="M240.882 62.7124L234.93 68.6614C234.436 69.155 233.766 69.4323 233.068 69.4323C232.37 69.4323 231.7 69.155 231.206 68.6614L225.254 62.7084C225.009 62.4639 224.815 62.1737 224.683 61.8542C224.55 61.5347 224.482 61.1922 224.482 60.8464C224.482 60.5005 224.55 60.158 224.683 59.8385C224.815 59.519 225.009 59.2288 225.254 58.9844L231.206 53.0324C231.45 52.7877 231.741 52.5936 232.06 52.4612C232.38 52.3287 232.722 52.2606 233.068 52.2606C233.414 52.2606 233.756 52.3287 234.076 52.4612C234.395 52.5936 234.686 52.7877 234.93 53.0324L240.882 58.9844C241.127 59.2289 241.322 59.5194 241.455 59.8392C241.587 60.1591 241.656 60.502 241.656 60.8484C241.656 61.1947 241.587 61.5376 241.455 61.8575C241.322 62.1774 241.127 62.4678 240.882 62.7124ZM252.806 52.5504C250.852 47.8063 247.168 43.9816 242.501 41.8504C238.502 39.9456 234.026 39.2754 229.644 39.9254C227.423 40.2489 225.272 40.9443 223.282 41.9824V31.8844C223.282 31.12 223.133 30.3629 222.844 29.6554C222.563 28.9385 222.131 28.2906 221.577 27.7554C221.02 27.236 220.383 26.8084 219.692 26.4884C219.005 26.1675 218.248 26.0297 217.492 26.0884C216.788 26.0343 216.081 26.1556 215.435 26.4414C214.77 26.7289 214.16 27.1318 213.635 27.6314C213.098 28.1347 212.653 28.7275 212.32 29.3834C211.977 30.0158 211.795 30.7222 211.787 31.4414V60.8414C211.778 63.657 212.379 66.4411 213.549 69.0024C214.681 71.525 216.273 73.8148 218.243 75.7544C220.208 77.6948 222.513 79.2574 225.043 80.3644C227.583 81.4911 230.331 82.0704 233.11 82.0644C235.917 82.0787 238.696 81.5111 241.272 80.3974C243.795 79.325 246.087 77.7765 248.024 75.8364C249.967 73.8913 251.531 71.6008 252.634 69.0824C253.781 66.4856 254.365 63.6752 254.348 60.8364C254.397 57.9987 253.873 55.1804 252.806 52.5504V52.5504Z" fill="white"/>
<path fill-rule="evenodd" clip-rule="evenodd" d="M286.283 55.052C285.319 53.8498 284.126 52.8509 282.773 52.113C281.384 51.3923 279.841 51.016 278.276 51.016C276.711 51.016 275.168 51.3923 273.779 52.113C272.445 52.8598 271.268 53.8578 270.313 55.052H286.283ZM278.3 39.609C281.087 39.6048 283.841 40.2039 286.374 41.365C291.465 43.6642 295.548 47.7322 297.867 52.814C299.031 55.3303 299.63 58.0707 299.622 60.843C299.622 61.5961 299.471 62.3414 299.177 63.0348C298.883 63.7281 298.453 64.3553 297.912 64.8791C297.367 65.4505 296.703 65.8958 295.968 66.1837C295.233 66.4717 294.443 66.5954 293.655 66.546H270.315C271.184 67.8571 272.374 68.9241 273.771 69.6459C275.169 70.3677 276.728 70.7202 278.3 70.67C279.098 70.6864 279.895 70.5979 280.67 70.407C281.257 70.2522 281.829 70.0468 282.38 69.7931C282.877 69.5597 283.375 69.355 283.873 69.179C284.424 68.9946 285.002 68.9057 285.583 68.916C286.729 68.9477 287.842 69.3137 288.783 69.969C289.66 70.5774 290.357 71.4105 290.801 72.381C291.24 73.3569 291.392 74.4378 291.239 75.497C291.069 76.6583 290.531 77.7344 289.704 78.567C288.166 79.8343 286.369 80.7482 284.439 81.244C282.43 81.7521 280.369 82.0316 278.297 82.077C275.524 82.1999 272.76 81.6743 270.225 80.542C267.689 79.4272 265.383 77.85 263.425 75.891C261.451 73.9116 259.872 71.5739 258.774 69.003C257.646 66.4304 257.063 63.652 257.063 60.843C257.064 58.0905 257.647 55.3693 258.774 52.858C259.884 50.3307 261.446 48.0265 263.381 46.058C265.324 44.09 267.615 42.4986 270.137 41.364C272.699 40.1963 275.484 39.5976 278.3 39.609Z" fill="white"/>
<path fill-rule="evenodd" clip-rule="evenodd" d="M115.148 51.8282C113.139 46.9657 109.363 43.0442 104.58 40.8522C102.528 39.879 100.345 39.2125 98.099 38.8742C95.8778 38.545 93.6202 38.545 91.399 38.8742C89.1223 39.2134 86.9173 39.9263 84.873 40.9842V30.6402C84.8717 30.3624 84.854 30.0849 84.82 29.8092H87.02C87.5156 29.8082 87.9905 29.6104 88.3404 29.2594C88.6903 28.9084 88.8865 28.4328 88.886 27.9372V26.5862C88.8863 26.3411 88.8382 26.0983 88.7445 25.8718C88.6508 25.6453 88.5134 25.4395 88.34 25.2662C88.1667 25.0929 87.9609 24.9554 87.7344 24.8617C87.5079 24.7681 87.2651 24.72 87.02 24.7202H70.476C70.2305 24.7193 69.9872 24.7669 69.7601 24.8603C69.533 24.9537 69.3266 25.091 69.1527 25.2644C68.9789 25.4378 68.841 25.6438 68.747 25.8707C68.653 26.0975 68.6047 26.3407 68.605 26.5862V27.9372C68.6047 28.183 68.653 28.4265 68.7469 28.6537C68.8408 28.8809 68.9786 29.0873 69.1523 29.2612C69.3261 29.435 69.5325 29.5729 69.7596 29.667C69.9867 29.761 70.2302 29.8094 70.476 29.8092H73.115C73.1005 29.9364 73.0935 30.0643 73.094 30.1922V60.3262C73.0821 63.2119 73.6962 66.0658 74.894 68.6912C76.058 71.2778 77.6897 73.6272 79.707 75.6212C81.7255 77.6024 84.0863 79.2016 86.675 80.3412C89.2811 81.5011 92.1025 82.0985 94.955 82.0942C97.8295 82.1074 100.676 81.5263 103.315 80.3872C105.901 79.2827 108.252 77.6942 110.242 75.7072C112.232 73.7132 113.833 71.3654 114.962 68.7842C116.141 66.1212 116.741 63.2384 116.723 60.3262C116.772 57.4167 116.237 54.5268 115.148 51.8282ZM104.975 60.3323C104.975 63.003 103.914 65.5643 102.026 67.4528C100.137 69.3413 97.5757 70.4023 94.905 70.4023C92.2342 70.4023 89.6729 69.3413 87.7844 67.4528C85.8959 65.5643 84.835 63.003 84.835 60.3323V60.3123C84.835 54.7493 90.0429 52.7323 94.9089 56.0803C102.509 61.3073 104.975 54.7493 104.975 60.3123V60.3323Z" fill="white"/>
</g>
<defs>
<clipPath id="clip0_1:2">
<rect width="299.62" height="82.094" fill="white"/>
</clipPath>
</defs>
</svg>
