<?xml version="1.0" standalone="no"?>
<!DOCTYPE svg PUBLIC "-//W3C//DTD SVG 1.0//EN" "http://www.w3.org/TR/2001/REC-SVG-20010904/DTD/svg10.dtd">
<svg xmlns="http://www.w3.org/2000/svg" xmlns:xlink="http://www.w3.org/1999/xlink" id="body_1" width="30" height="38">

<g transform="matrix(0.375 0 0 0.3838384 0 0)">
    <path transform="matrix(1 0 0 1 0 0)"  d="M78.93723 88.71412C 78.50454 86.62549 77.85551 84.57296 77.01415 82.61631C 76.18483 80.68977 75.16323 78.83529 73.97323 77.10081C 72.79534 75.3843 71.43723 73.76981 69.95277 72.30544C 68.46239 70.84103 66.82784 69.50865 65.07893 68.35033C 63.66064 67.40807 61.75554 67.79218 60.81215 69.20857C 59.86864 70.61898 60.25326 72.52759 61.66552 73.46973C 63.0898 74.41199 64.41798 75.49828 65.62583 76.68672C 66.83377 77.87506 67.93353 79.18942 68.88906 80.58189C 69.85661 81.98629 70.67999 83.48669 71.35306 85.04709C 72.03215 86.63146 72.55499 88.28805 72.90952 89.97444C 73.05977 90.70665 73.17995 91.45087 73.27011 92.19506L73.27011 92.19506L42.87934 92.18905L42.87934 83.9307C 42.87934 82.23217 41.50314 80.85783 39.80241 80.85783C 38.10169 80.85783 36.72549 82.23222 36.72549 83.9307L36.72549 83.9307L36.72549 92.18905L6.328569 92.18905C 6.418723 91.43884 6.538908 90.70063 6.689138 89.96844C 7.037693 88.28189 7.566538 86.62546 8.2456 85.04108C 8.912662 83.48667 9.742 81.98618 10.7096 80.57589C 11.66512 79.18349 12.76483 77.86915 13.97883 76.68072C 15.18677 75.49237 16.52083 74.40602 17.93914 73.46372C 19.36943 72.50945 20.90191 71.69328 22.48837 71.03308C 24.10498 70.36089 25.7936 69.84473 27.51237 69.49664C 29.27914 69.14254 31.09406 68.96249 32.92099 68.96249L32.92099 68.96249L39.80206 68.96849C 41.88745 68.96849 43.97268 68.75843 45.99791 68.34431C 47.97514 67.9422 49.91621 67.34203 51.77314 66.56174C 53.59406 65.79352 55.35483 64.84523 57.00145 63.74099C 58.63006 62.64868 60.16252 61.3884 61.55668 60.00791C 62.94489 58.62751 64.20699 57.10312 65.31268 55.47665C 66.42446 53.8382 67.38006 52.09172 68.14929 50.27919C 68.93655 48.4307 69.54353 46.49218 69.94621 44.52953C 70.36088 42.51296 70.57121 40.43631 70.57121 38.35982L70.57121 38.35982L70.57723 9.55162C 70.57723 8.123209 69.59166 6.886823 68.20338 6.556796L68.20338 6.556796L40.50492 0.08102018C 40.04218 -0.02700672 39.56142 -0.02700672 39.10468 0.08102018L39.10468 0.08102018L11.41237 6.556796C 10.01814 6.880892 9.038523 8.123194 9.038523 9.55162L9.038523 9.55162L9.038523 38.35982C 9.038523 40.43647 9.248861 42.51296 9.663523 44.52953C 10.06617 46.49802 10.67314 48.4307 11.46045 50.27919C 12.23569 52.09772 13.19122 53.84418 14.29706 55.48264C 15.39682 57.10312 16.66491 58.62757 18.05306 60.00791C 19.44729 61.3943 20.97368 62.64874 22.60829 63.74099C 22.86069 63.90905 23.13112 64.05308 23.38954 64.21512C 22.27775 64.54521 21.184 64.92332 20.12031 65.36745C 18.17323 66.17767 16.29215 67.17999 14.52538 68.35629C 12.78262 69.51462 11.142 70.847 9.657538 72.31138C 8.167154 73.77579 6.814923 75.39024 5.637077 77.10675C 4.447169 78.84124 3.419538 80.69572 2.596154 82.62225C 1.7548 84.57875 1.105769 86.63143 0.6730769 88.72007C 0.2283692 90.85664 0 93.05927 0 95.26191C 0 96.96044 1.3762 98.33479 3.076923 98.33479L3.076923 98.33479L76.53846 98.33479C 78.23923 98.33479 79.61539 96.9604 79.61539 95.26191C 79.60937 93.05927 79.38101 90.85664 78.93629 88.71407L78.93629 88.71407L78.93723 88.71412zM15.18185 11.98752L39.80338 6.23187L64.42493 11.98752L64.42493 35.28605L15.18185 35.28605L15.18185 11.98752zM22.38738 55.64999C 21.2756 54.54568 20.26 53.32137 19.38262 52.02492C 18.4932 50.72255 17.73 49.32417 17.11692 47.87178C 16.49192 46.39536 16.01115 44.85299 15.68663 43.28643C 15.56043 42.67426 15.48231 42.05008 15.40418 41.43195L15.40418 41.43195L64.2088 41.43195C 64.13068 42.05613 64.05255 42.68031 63.92635 43.29243C 63.60183 44.85883 63.12106 46.40125 62.49606 47.87777C 61.88308 49.32419 61.11986 50.72264 60.23037 52.03091C 59.34695 53.32728 58.33729 54.5456 57.2256 55.65598C 56.11382 56.7603 54.88191 57.76859 53.57775 58.64481C 52.26165 59.52707 50.85545 60.28926 49.39499 60.90154C 47.91061 61.52571 46.35406 62.00585 44.7736 62.32394C 41.52837 62.98413 38.08483 62.98413 34.83975 62.32394C 33.25929 61.99984 31.70268 61.5197 30.21837 60.89553C 28.76405 60.28335 27.35775 59.52715 26.0356 58.63881C 24.73151 57.76256 23.5056 56.7602 22.38775 55.64997L22.38775 55.64997L22.38738 55.64999z" stroke="none" fill="#1D88E5" fill-rule="nonzero" />
    <path transform="matrix(1 0 0 1 0 0)"  d="M45.7234 17.35717L42.69447 17.35717L42.69447 14.36235C 42.69447 12.66382 41.31828 11.28947 39.61755 11.28947C 37.91683 11.28947 36.54063 12.66386 36.54063 14.36235L36.54063 14.36235L36.54063 17.35717L33.51171 17.35717C 31.81094 17.35717 30.43478 18.73156 30.43478 20.43005C 30.43478 22.12853 31.81098 23.50292 33.51171 23.50292L33.51171 23.50292L36.54063 23.50292L36.54063 26.49774C 36.54063 28.19628 37.91683 29.57062 39.61755 29.57062C 41.31828 29.57062 42.69447 28.19623 42.69447 26.49774L42.69447 26.49774L42.69447 23.50292L45.7234 23.50292C 47.42417 23.50292 48.80032 22.12853 48.80032 20.43005C 48.80032 18.73156 47.42412 17.35717 45.7234 17.35717z" stroke="none" fill="#1D88E5" fill-rule="nonzero" />
</g>
</svg>