<svg width="117" height="77" viewBox="0 0 117 77" fill="none" xmlns="http://www.w3.org/2000/svg">
<g clip-path="url(#clip0_2:20)">
<path fill-rule="evenodd" clip-rule="evenodd" d="M5.77535 19.1233C6.51558 19.1071 7.25113 19.244 7.93577 19.5254C8.62041 19.8068 9.23931 20.2266 9.7535 20.7584C10.8312 21.8474 11.47 23.2939 11.5484 24.8227V58.9769C11.5243 60.0685 11.933 61.1254 12.6857 61.9177C13.0525 62.3135 13.5 62.6263 13.9981 62.8351C14.4962 63.0438 15.0333 63.1435 15.5733 63.1276C17.0512 63.1144 18.4769 63.6727 19.5515 64.6856C20.0839 65.1518 20.5166 65.7205 20.8236 66.3576C21.1306 66.9946 21.3056 67.687 21.3382 68.3932C21.3707 69.0994 21.2602 69.8049 21.0131 70.4675C20.766 71.13 20.3874 71.7359 19.9001 72.249C18.9333 73.3189 17.6155 74.0089 16.1841 74.1947H14.9579C12.9638 74.2051 10.9919 73.7769 9.18251 72.9404C7.40539 72.1259 5.78988 70.9983 4.41342 69.6118C3.03722 68.2174 1.93966 66.574 1.1794 64.7697C0.393829 62.9394 -0.0083419 60.9681 -0.00236039 58.9769V24.4816C0.159365 23.067 0.808762 21.7524 1.83462 20.763C2.88497 19.7263 4.29827 19.1382 5.77535 19.1233V19.1233Z" fill="white"/>
<path fill-rule="evenodd" clip-rule="evenodd" d="M43.6544 62.866C44.9589 62.8732 46.252 62.6231 47.4594 62.1302C48.6196 61.6643 49.6758 60.9736 50.5671 60.0981C51.4565 59.2174 52.1711 58.1768 52.6732 57.0312C53.2046 55.8186 53.4733 54.5076 53.4618 53.1841C53.4614 51.9175 53.1926 50.6654 52.6732 49.5098C51.6374 47.1601 49.7463 45.2908 47.3822 44.28C46.2095 43.7657 44.9424 43.5008 43.6615 43.5021C42.3954 43.498 41.1429 43.7631 39.9875 44.28C38.8318 44.7905 37.7794 45.5077 36.8822 46.3962C35.9784 47.2907 35.2512 48.347 34.7387 49.5098C34.2192 50.6654 33.9504 51.9175 33.9501 53.1841C33.9444 54.4831 34.229 55.767 34.7831 56.9424C35.3133 58.0934 36.0547 59.1352 36.9688 60.014C37.8756 60.881 38.9273 61.583 40.0765 62.0882C41.2005 62.5975 42.42 62.8626 43.6544 62.866V62.866ZM46.1935 32.3486C48.7775 32.6253 51.2858 33.3878 53.5858 34.5957C55.8337 35.7638 57.8494 37.331 59.5343 39.2206C61.2058 41.1113 62.5381 43.2756 63.4727 45.6184C64.4367 48.0241 64.9262 50.5931 64.9142 53.1841V68.4836C64.9224 69.2315 64.7707 69.9725 64.4693 70.6573C64.1678 71.342 63.7236 71.9547 63.1661 72.4545C62.5576 73.0605 61.8183 73.5195 61.0048 73.7965C60.1913 74.0735 59.325 74.1612 58.4724 74.0528C57.6197 73.9444 56.8032 73.6427 56.0852 73.171C55.3672 72.6993 54.7668 72.0699 54.3299 71.331C54.0563 71.438 53.7924 71.5686 53.5413 71.7211C53.3073 71.8659 53.0733 71.9944 52.8393 72.1112C51.4611 72.7377 50.0254 73.2297 48.5523 73.5804C46.9723 73.9328 45.3576 74.1068 43.7387 74.0989C39.5642 74.1568 35.4726 72.9338 32.0172 70.5952C28.6584 68.3575 25.992 65.2285 24.3182 61.5603C23.741 60.2505 23.2874 58.8899 22.9633 57.496C22.3211 54.6508 22.3211 51.6987 22.9633 48.8535C23.2875 47.4596 23.7411 46.099 24.3182 44.7892C25.967 41.0939 28.6379 37.945 32.0172 35.7122C35.4828 33.4002 39.5707 32.1946 43.7387 32.2552H45.0093C45.4057 32.2592 45.8014 32.2904 46.1935 32.3486V32.3486Z" fill="white"/>
<path fill-rule="evenodd" clip-rule="evenodd" d="M86.3845 12.5643C86.3887 12.1799 86.2783 11.8029 86.0674 11.4813C85.8564 11.1597 85.5544 10.9079 85.1997 10.758C84.8451 10.6081 84.4538 10.5669 84.0756 10.6395C83.6974 10.7121 83.3493 10.8953 83.0757 11.1658C82.802 11.4363 82.6151 11.7819 82.5387 12.1587C82.4623 12.5355 82.4999 12.9265 82.6466 13.2819C82.7933 13.6373 83.0426 13.9412 83.3628 14.1549C83.6829 14.3686 84.0595 14.4825 84.4446 14.482C84.6981 14.4833 84.9494 14.4346 85.1841 14.3389C85.4188 14.2432 85.6323 14.1023 85.8125 13.9242C85.9926 13.7462 86.1359 13.5344 86.234 13.3011C86.3322 13.0677 86.3833 12.8174 86.3845 12.5643V12.5643Z" fill="white"/>
<path fill-rule="evenodd" clip-rule="evenodd" d="M82.9563 4.79309C82.9665 3.83272 82.6905 2.89099 82.1634 2.08754C81.6362 1.28409 80.8817 0.65517 79.9957 0.280679C79.1097 -0.0938117 78.1321 -0.196974 77.1872 -0.0157033C76.2423 0.165567 75.3728 0.623088 74.6889 1.29874C74.0051 1.9744 73.5379 2.83769 73.3467 3.77896C73.1555 4.72023 73.2489 5.69698 73.615 6.58515C73.9812 7.47332 74.6035 8.23282 75.403 8.76716C76.2025 9.3015 77.1431 9.58658 78.1053 9.58617C79.3853 9.59238 80.6153 9.09095 81.525 8.19214C82.4347 7.29333 82.9495 6.0707 82.9563 4.79309Z" fill="#FF9600"/>
<path fill-rule="evenodd" clip-rule="evenodd" d="M76.2192 13.9331C76.2257 13.2748 76.036 12.6295 75.6744 12.079C75.3127 11.5284 74.7953 11.0976 74.1878 10.8412C73.5804 10.5848 72.9103 10.5143 72.2627 10.6388C71.6151 10.7632 71.0191 11.077 70.5504 11.5402C70.0818 12.0033 69.7616 12.5951 69.6305 13.2403C69.4994 13.8855 69.5634 14.555 69.8142 15.1638C70.0651 15.7727 70.4916 16.2934 71.0395 16.6598C71.5874 17.0262 72.2321 17.2219 72.8916 17.2219C73.3264 17.2241 73.7574 17.1407 74.16 16.9766C74.5626 16.8125 74.9288 16.5708 75.2378 16.2654C75.5468 15.96 75.7925 15.5969 75.9609 15.1967C76.1293 14.7965 76.217 14.3672 76.2192 13.9331V13.9331Z" fill="#00E7CA"/>
<path fill-rule="evenodd" clip-rule="evenodd" d="M107.85 21.723C107.86 21.3944 107.997 21.0823 108.233 20.8527C108.469 20.623 108.784 20.4937 109.114 20.4921H112.432C112.715 20.4934 112.994 20.4362 113.253 20.3239C113.756 20.1121 114.158 19.7158 114.377 19.2167C114.489 18.9613 114.547 18.6852 114.545 18.4062C114.547 18.1379 114.495 17.8719 114.393 17.6237C114.296 17.3801 114.156 17.1561 113.979 16.9627C113.8 16.7641 113.582 16.605 113.338 16.4955C113.082 16.3834 112.805 16.3268 112.526 16.3297H109.095C108.867 16.3357 108.643 16.2704 108.454 16.1428C108.415 16.1178 108.377 16.0905 108.342 16.061C108.301 16.0285 108.263 15.9934 108.227 15.9559C108.106 15.8526 108.01 15.7238 107.944 15.5788C107.879 15.4338 107.847 15.2762 107.85 15.1174C107.858 14.7993 107.984 14.4955 108.204 14.265C108.423 14.0345 108.721 13.8937 109.039 13.87H112.432C113.041 13.8654 113.643 13.9854 114.204 14.2228C115.296 14.6807 116.168 15.5417 116.64 16.6263C116.879 17.1858 117 17.7885 116.995 18.3969C117.022 18.9842 116.917 19.5702 116.686 20.1113C116.459 20.6488 116.132 21.1385 115.722 21.5549C115.312 21.9738 114.826 22.3121 114.29 22.5523C113.749 22.8002 113.161 22.9277 112.565 22.926H109.095C108.77 22.9255 108.459 22.7986 108.226 22.5722C107.994 22.3458 107.859 22.0378 107.85 21.7137V21.723Z" fill="white"/>
<path fill-rule="evenodd" clip-rule="evenodd" d="M107.85 28.289C107.851 28.1286 107.884 27.9699 107.947 27.8226C108.011 27.6752 108.103 27.5423 108.22 27.4318C108.335 27.311 108.474 27.2154 108.628 27.1511C108.781 27.0867 108.947 27.055 109.114 27.058H112.432C112.714 27.0601 112.994 27.0036 113.253 26.8922C113.756 26.6804 114.158 26.2841 114.377 25.785C114.489 25.5296 114.546 25.2535 114.545 24.9745C114.547 24.7054 114.495 24.4387 114.393 24.1897C114.296 23.9464 114.155 23.7225 113.979 23.5286C113.8 23.3297 113.582 23.1705 113.338 23.0615C113.082 22.9487 112.805 22.8913 112.526 22.8933H109.095C108.867 22.9001 108.643 22.8347 108.454 22.7064C108.415 22.6815 108.377 22.6542 108.342 22.6247C108.302 22.5926 108.263 22.5582 108.227 22.5219C108.106 22.4183 108.01 22.2895 107.945 22.1445C107.88 21.9996 107.847 21.8422 107.85 21.6833C107.857 21.3649 107.983 21.0605 108.203 20.8295C108.423 20.5985 108.721 20.4574 109.039 20.4337H112.432C113.041 20.429 113.643 20.5491 114.204 20.7864C115.296 21.2439 116.169 22.1051 116.64 23.1899C116.879 23.7494 117 24.3521 116.995 24.9605C117.023 25.5479 116.917 26.1339 116.686 26.675C116.459 27.2124 116.132 27.7021 115.722 28.1185C115.312 28.5374 114.826 28.8757 114.29 29.1159C113.749 29.3638 113.161 29.4913 112.565 29.4896H109.095C108.77 29.4891 108.459 29.3622 108.226 29.1358C107.994 28.9094 107.859 28.6014 107.85 28.2773V28.289Z" fill="white"/>
<path fill-rule="evenodd" clip-rule="evenodd" d="M111.995 47.9145C110.896 45.4121 109.336 43.138 107.396 41.2107C105.713 39.6462 103.797 38.3515 101.717 37.373C99.719 36.4376 97.5953 35.7979 95.4126 35.474C93.2527 35.156 91.0577 35.156 88.8978 35.474C86.6857 35.7984 84.5419 36.4825 82.5515 37.4991V27.5509C82.5495 27.2838 82.5324 27.0171 82.5 26.752H84.6412C84.8787 26.7526 85.1141 26.7066 85.3338 26.6164C85.5535 26.5262 85.7532 26.3937 85.9216 26.2265C86.09 26.0593 86.2238 25.8606 86.3153 25.6417C86.4067 25.4229 86.4542 25.1882 86.4548 24.9511V23.6524C86.4542 23.4156 86.4067 23.1813 86.3151 22.9629C86.2236 22.7444 86.0897 22.5462 85.9212 22.3795C85.7527 22.2128 85.5529 22.081 85.3333 21.9916C85.1136 21.9022 84.8784 21.857 84.6412 21.8585H68.546C68.3083 21.8564 68.0725 21.9011 67.8522 21.9902C67.6319 22.0793 67.4313 22.211 67.2621 22.3777C67.0929 22.5444 66.9585 22.7428 66.8663 22.9616C66.7742 23.1804 66.7264 23.4151 66.7254 23.6524V24.9511C66.7264 25.1887 66.7742 25.4239 66.8662 25.643C66.9582 25.8621 67.0926 26.061 67.2617 26.2283C67.4308 26.3956 67.6313 26.5279 67.8516 26.6178C68.072 26.7076 68.308 26.7533 68.546 26.752H71.1201C71.1084 26.8712 71.1014 26.9973 71.1014 27.1188V56.0828C71.09 58.8582 71.6875 61.6024 72.8518 64.1227C73.9864 66.612 75.5732 68.8699 77.532 70.7821C79.5026 72.689 81.8014 74.2256 84.3182 75.3182C86.8561 76.4339 89.5997 77.0075 92.3728 77.0023C95.1662 77.0181 97.9331 76.4616 100.502 75.3673C103.015 74.3095 105.303 72.7825 107.242 70.8685C109.175 68.9567 110.732 66.7003 111.833 64.2161C112.979 61.6596 113.563 58.888 113.546 56.0875C113.588 53.2864 113.06 50.506 111.995 47.9145V47.9145ZM101.492 54.7023C101.492 55.9757 101.239 57.2364 100.746 58.4112C100.254 59.5861 99.5334 60.6517 98.6256 61.5463C97.2539 62.8941 95.516 63.8102 93.6275 64.181C91.7389 64.5519 89.7828 64.361 88.002 63.6321C86.2211 62.9033 84.6938 61.6685 83.6097 60.0811C82.5255 58.4936 81.9322 56.6234 81.9033 54.7023V54.6837C81.9033 49.337 86.9672 47.3959 91.7012 50.617C99.0936 55.6437 101.492 49.3393 101.492 54.6837V54.7023Z" fill="white"/>
</g>
<defs>
<clipPath id="clip0_2:20">
<rect width="117" height="77" fill="white"/>
</clipPath>
</defs>
</svg>
