<?xml version="1.0" encoding="UTF-8"?>
<svg width="28px" height="40px" viewBox="0 0 28 40" version="1.1" xmlns="http://www.w3.org/2000/svg" xmlns:xlink="http://www.w3.org/1999/xlink">
    <!-- Generator: sketchtool 52.6 (67491) - http://www.bohemiancoding.com/sketch -->
    <title>E8F6BF68-7562-4E01-84A2-AD9467C77067</title>
    <desc>Created with sketchtool.</desc>
    <g id="Main_nav" stroke="none" stroke-width="1" fill="none" fill-rule="evenodd">
        <g id="Grupe-Analiza" transform="translate(-193.000000, -2636.000000)" fill="#CE38B1">
            <g id="lekovi" transform="translate(193.000000, 2636.000000)">
                <path d="M5.51882353,11.0705882 L3.63458824,11.0705882 C1.902,11.0751882 0.500352941,12.4768235 0.495764706,14.2094118 L0.495764706,38.8235294 C0.495764706,39.1498118 0.762305882,39.4117647 1.084,39.4117647 L27.1498824,39.4117647 C27.3061294,39.4117647 27.4531882,39.3520235 27.5634824,39.2417294 C27.6737765,39.1314353 27.7381176,38.9797765 27.7381176,38.8235294 L27.7381176,14.2094118 C27.7335294,12.4768235 26.3318824,11.0751765 24.5992941,11.0705882 L22.7150588,11.0705882 C22.2922588,11.0705882 21.943,10.7259176 21.943,10.2985294 L21.943,9.00252941 L23.3814706,9.00252941 C24.1856941,9.00252941 24.8382941,8.34995294 24.8382941,7.54570588 L24.8382941,2.04476471 C24.8428941,1.24054118 24.1857176,0.587941176 23.3814706,0.587941176 L4.85205882,0.587941176 C4.04783529,0.587941176 3.39064706,1.24051765 3.39064706,2.04476471 L3.39064706,7.54570588 C3.39524706,8.34992941 4.04781176,9.00252941 4.85205882,9.00252941 L6.29052941,9.00252941 L6.29052941,10.2985294 C6.29052941,10.7259176 5.94125882,11.0705882 5.51847059,11.0705882 L5.51882353,11.0705882 Z M26.5623529,32.4447059 L1.67294118,32.4447059 L1.67294118,19.14 L26.5623529,19.14 L26.5623529,32.4447059 Z M1.67294118,38.2351765 L1.67294118,33.6211765 L26.5623529,33.6211765 L26.5623529,38.2351765 L1.67294118,38.2351765 Z M4.56811765,7.54576471 L4.57271765,2.04482353 C4.57271765,1.89316471 4.6968,1.76449412 4.85304706,1.76449412 L6.29151765,1.76449412 L6.29151765,4.07143529 C6.29151765,4.39771765 6.55347059,4.65967059 6.87975294,4.65967059 C7.20144706,4.65967059 7.46798824,4.39771765 7.46798824,4.07143529 L7.46798824,1.76449412 L9.18669412,1.76449412 L9.18669412,4.07143529 C9.18669412,4.39771765 9.44864706,4.65967059 9.77492941,4.65967059 C10.0966235,4.65967059 10.3631647,4.39771765 10.3631647,4.07143529 L10.3631647,1.76449412 L12.0818706,1.76449412 L12.0818706,4.07143529 C12.0818706,4.39771765 12.3438235,4.65967059 12.6701059,4.65967059 C12.9963882,4.65967059 13.2583412,4.39771765 13.2583412,4.07143529 L13.2583412,1.76449412 L14.9770471,1.76449412 L14.9770471,4.07143529 C14.9770471,4.39771765 15.239,4.65967059 15.5652824,4.65967059 C15.8915647,4.65967059 16.1535176,4.39771765 16.1535176,4.07143529 L16.1535176,1.76449412 L17.8722235,1.76449412 L17.8722235,4.07143529 C17.8722235,4.39771765 18.1387647,4.65967059 18.4604588,4.65967059 C18.7867412,4.65967059 19.0486941,4.39771765 19.0486941,4.07143529 L19.0486941,1.76449412 L20.7674,1.76449412 L20.7674,4.07143529 C20.7674,4.39771765 21.0339412,4.65967059 21.3556353,4.65967059 C21.6819176,4.65967059 21.9438706,4.39771765 21.9438706,4.07143529 L21.9438706,1.76449412 L23.3823412,1.76449412 C23.5385882,1.76449412 23.6626706,1.89317647 23.6672706,2.04482353 L23.6672706,7.54576471 C23.6626706,7.70201176 23.5385882,7.82609412 23.3823412,7.82609412 L4.85292941,7.82609412 C4.69668235,7.82609412 4.5726,7.70201176 4.5726,7.54576471 L4.56811765,7.54576471 Z M20.7681176,9.00258824 L20.7681176,10.2985882 C20.7681176,10.8178941 20.9749176,11.3142118 21.3379765,11.6772941 C21.7056235,12.0403412 22.2019529,12.2471529 22.7166824,12.2471529 L24.6009176,12.2471529 C25.6808824,12.2517412 26.5586824,13.1295059 26.5632706,14.2095059 L26.5632706,17.9640941 L1.67385882,17.9640941 L1.67385882,14.2095059 C1.67845882,13.1295412 2.55621176,12.2517412 3.63621176,12.2471529 L5.52044706,12.2471529 C6.03515294,12.2471529 6.53148235,12.0403529 6.89915294,11.6772941 C7.2622,11.3142471 7.46901176,10.8179176 7.46901176,10.2985882 L7.46901176,9.00258824 L20.7681176,9.00258824 Z" id="Fill-1"></path>
                <path d="M9.35647059,27.6564706 C9.46676471,27.7667647 9.61842353,27.8265059 9.77467059,27.8265059 L12.0816118,27.8265059 L12.0816118,30.1334471 C12.0816118,30.4597294 12.3435647,30.7216824 12.6698471,30.7216824 L15.5650235,30.7216824 C15.7212706,30.7216824 15.8729294,30.6619412 15.9832235,30.5516471 C16.0935176,30.4413529 16.1532588,30.2896941 16.1532588,30.1334471 L16.1532588,27.8265059 L18.4602,27.8265059 C18.6164471,27.8265059 18.7681059,27.7667647 18.8784,27.6564706 C18.9886941,27.5461765 19.0484353,27.3945176 19.0484353,27.2382706 L19.0484353,24.3430941 C19.0484353,24.1868471 18.9886941,24.0397882 18.8784,23.9294941 C18.7681059,23.8192 18.6164471,23.7548588 18.4602,23.7548588 L16.1532588,23.7548588 L16.1532588,21.4479176 C16.1532588,21.2916706 16.0935176,21.1446118 15.9832235,21.0343176 C15.8729294,20.9240235 15.7212706,20.8596824 15.5650235,20.8596824 L12.6698471,20.8596824 C12.5136,20.8596824 12.3619412,20.9240235 12.2516471,21.0343176 C12.1413529,21.1446118 12.0816118,21.2916706 12.0816118,21.4479176 L12.0816118,23.7548588 L9.77467059,23.7548588 C9.61842353,23.7548588 9.46676471,23.8192 9.35647059,23.9294941 C9.24617647,24.0397882 9.18643529,24.1868471 9.18643529,24.3430941 L9.18643529,27.2382706 C9.18643529,27.3945176 9.24617647,27.5461765 9.35647059,27.6564706 Z M10.3629059,24.9312941 L12.6698471,24.9312941 C12.8260941,24.9312941 12.9731529,24.8715529 13.0834471,24.7612588 C13.1937412,24.6509647 13.2580824,24.4993059 13.2580824,24.3430588 L13.2580824,22.0361176 L14.9767882,22.0361176 L14.9767882,24.3430588 C14.9767882,24.6693412 15.2387412,24.9312941 15.5650235,24.9312941 L17.8719647,24.9312941 L17.8719647,26.65 L15.5650235,26.65 C15.4087765,26.65 15.2617176,26.7143412 15.1514235,26.8246353 C15.0411294,26.9349294 14.9767882,27.0819882 14.9767882,27.2382353 L14.9767882,29.5451765 L13.2580824,29.5451765 L13.2580824,27.2382353 C13.2580824,27.0819882 13.1937412,26.9349294 13.0834471,26.8246353 C12.9731529,26.7143412 12.8260941,26.65 12.6698471,26.65 L10.3629059,26.65 L10.3629059,24.9312941 Z" id="Fill-2"></path>
                <path d="M9.77529412,11.8976471 L18.4609412,11.8976471 C18.7872235,11.8976471 19.0491765,11.6356941 19.0491765,11.3094118 C19.0491765,10.9877176 18.7872235,10.7211765 18.4609412,10.7211765 L9.77529412,10.7211765 C9.44901176,10.7211765 9.18705882,10.9877176 9.18705882,11.3094118 C9.18705882,11.6356941 9.44901176,11.8976471 9.77529412,11.8976471 Z" id="Fill-3"></path>
            </g>
        </g>
        <g id="Page"></g>
    </g>
</svg>