<?xml version="1.0" encoding="UTF-8"?>
<svg width="33px" height="40px" viewBox="0 0 33 40" version="1.1" xmlns="http://www.w3.org/2000/svg" xmlns:xlink="http://www.w3.org/1999/xlink">
    <!-- Generator: sketchtool 52.6 (67491) - http://www.bohemiancoding.com/sketch -->
    <title>E193175F-687A-4B9F-8CD2-F79D21663906</title>
    <desc>Created with sketchtool.</desc>
    <g id="Main_nav" stroke="none" stroke-width="1" fill="none" fill-rule="evenodd">
        <g id="Grupe-Analiza" transform="translate(-190.000000, -2731.000000)" fill="#AFC828">
            <path d="M223,2741 L223,2736 C223,2733.24373 220.778704,2731 218.05,2731 L194.95,2731 C192.221296,2731 190,2733.24373 190,2736 L190,2741 L204.85,2741 L204.85,2746 L198.25,2746 L198.25,2749.33333 L204.85,2749.33333 L204.85,2751 L199.9,2751 L199.9,2754.33333 L204.85,2754.33333 L204.85,2756 L201.55,2756 L201.55,2759.33333 L204.85,2759.33333 L204.85,2761 L203.2,2761 L203.2,2764.33333 L204.85,2764.33333 L204.85,2771 L208.15,2771 L208.15,2764.33333 L209.8,2764.33333 L209.8,2761 L208.15,2761 L208.15,2759.33333 L211.45,2759.33333 L211.45,2756 L208.15,2756 L208.15,2754.33333 L213.1,2754.33333 L213.1,2751 L208.15,2751 L208.15,2749.33333 L214.75,2749.33333 L214.75,2746 L208.15,2746 L208.15,2741 L223,2741 Z M193.3,2736 C193.3,2735.07915 194.040414,2734.33333 194.95,2734.33333 L218.05,2734.33333 C218.959586,2734.33333 219.7,2735.07915 219.7,2736 L219.7,2737.66667 L193.3,2737.66667 L193.3,2736 Z" id="likvor"></path>
        </g>
        <g id="Page"></g>
    </g>
</svg>