<?xml version="1.0" encoding="UTF-8"?>
<svg width="38px" height="38px" viewBox="0 0 38 38" version="1.1" xmlns="http://www.w3.org/2000/svg" xmlns:xlink="http://www.w3.org/1999/xlink">
    <!-- Generator: sketchtool 52.5 (67469) - http://www.bohemiancoding.com/sketch -->
    <title>9673E6F6-A474-4E2F-97C0-8943F6739BA5</title>
    <desc>Created with sketchtool.</desc>
    <g id="Main_nav" stroke="none" stroke-width="1" fill="none" fill-rule="evenodd">
        <g id="Home" transform="translate(-566.000000, -1048.000000)" fill="#42DD7E">
            <g id="lipidniStatus" transform="translate(566.000000, 1048.000000)">
                <polygon id="Fill-1" points="36.5 37.75 37.75 37.75 37.75 0.25 36.5 0.25"></polygon>
                <path d="M22.75,11.7876 L22.75,9.62512 C22.75,8.12044 23.72812,6.50012 25.875,6.50012 L33.375,6.50012 C33.720312,6.50012 34,6.220432 34,5.87512 L34,0.25032 L32.75,0.25032 L32.75,5.25032 L25.8748,5.25032 C23.00292,5.25032 21.4996,7.45032 21.4996,9.62552 L21.4996,11.42552 C19.0668,13.05676 15.8748,20.05832 15.8748,24.00072 C15.8748,31.23192 19.9528,32.75072 23.3748,32.75072 C26.7968,32.75072 30.8748,31.23196 30.8748,24.00072 C30.8748,20.35228 27.88416,13.65552 25.8748,11.84592 L25.8748,11.500608 C25.8748,10.466248 26.71544,9.625608 27.7498,9.625608 L32.7498,9.625608 L32.7498,37.7504064 L33.9998,37.7504064 L33.9998,9.000408 C33.9998,8.655096 33.720112,8.375408 33.3748,8.375408 L27.75,8.375408 C26.02656,8.375408 24.625,9.776968 24.625,11.500408 L24.625,12.142608 C24.625,12.345732 24.723436,12.534796 24.889064,12.651968 C26.453144,13.761328 29.625064,20.403568 29.625064,24.000368 C29.625064,29.047168 27.581304,31.500368 23.375064,31.500368 C19.168824,31.500368 17.125064,29.047248 17.125064,24.000368 C17.125064,20.089448 20.478184,13.215968 22.383064,12.356768 C22.6065,12.256768 22.750252,12.033332 22.750252,11.788008 L22.75,11.7876 Z" id="Fill-2"></path>
                <path d="M20.25,25.8752 L19,25.8752 C19,27.59864 20.40156,29.0002 22.125,29.0002 L22.125,27.7502 C21.09064,27.7502 20.25,26.90956 20.25,25.8752 Z" id="Fill-3"></path>
                <path d="M4,24.6248 C6.06876,24.6248 7.75,22.94356 7.75,20.8748 C7.75,18.80604 6.06876,17.1248 4,17.1248 C1.93124,17.1248 0.25,18.80604 0.25,20.8748 C0.25,22.94356 1.93124,24.6248 4,24.6248 Z M4,18.3748 C5.37812,18.3748 6.5,19.49668 6.5,20.8748 C6.5,22.25292 5.37812,23.3748 4,23.3748 C2.62188,23.3748 1.5,22.25292 1.5,20.8748 C1.5,19.49668 2.62188,18.3748 4,18.3748 Z" id="Fill-4"></path>
                <path d="M2.125,0.25 C1.09064,0.25 0.25,1.09064 0.25,2.125 C0.25,3.15936 1.09064,4 2.125,4 C3.15936,4 4,3.15936 4,2.125 C4,1.09064 3.15936,0.25 2.125,0.25 Z M2.125,2.75 C1.781248,2.75 1.5,2.470312 1.5,2.125 C1.5,1.779688 1.781248,1.5 2.125,1.5 C2.468752,1.5 2.75,1.779688 2.75,2.125 C2.75,2.470312 2.468752,2.75 2.125,2.75 Z" id="Fill-5"></path>
                <path d="M10.8752,17.75 C10.8752,18.78436 11.71584,19.625 12.7502,19.625 C13.78456,19.625 14.6252,18.78436 14.6252,17.75 C14.6252,16.71564 13.78456,15.875 12.7502,15.875 C11.71584,15.875 10.8752,16.71564 10.8752,17.75 Z M13.3752,17.75 C13.3752,18.095312 13.093952,18.375 12.7502,18.375 C12.406448,18.375 12.1252,18.095312 12.1252,17.75 C12.1252,17.404688 12.406448,17.125 12.7502,17.125 C13.093952,17.125 13.3752,17.404688 13.3752,17.75 Z" id="Fill-6"></path>
                <path d="M15.25,2.125 C14.21564,2.125 13.375,2.96564 13.375,4 C13.375,5.03436 14.21564,5.875 15.25,5.875 C16.28436,5.875 17.125,5.03436 17.125,4 C17.125,2.96564 16.28436,2.125 15.25,2.125 Z M15.25,4.625 C14.906248,4.625 14.625,4.345312 14.625,4 C14.625,3.654688 14.906248,3.375 15.25,3.375 C15.593752,3.375 15.875,3.654688 15.875,4 C15.875,4.345312 15.593752,4.625 15.25,4.625 Z" id="Fill-7"></path>
                <path d="M5.8752,32.75 C5.8752,35.50624 8.11896,37.75 10.8752,37.75 C13.63144,37.75 15.8752,35.50624 15.8752,32.75 C15.8752,29.99376 13.63144,27.75 10.8752,27.75 C8.11896,27.75 5.8752,29.99376 5.8752,32.75 Z M14.6252,32.75 C14.6252,34.81876 12.94396,36.5 10.8752,36.5 C8.80644,36.5 7.1252,34.81876 7.1252,32.75 C7.1252,30.68124 8.80644,29 10.8752,29 C12.94396,29 14.6252,30.68124 14.6252,32.75 Z" id="Fill-8"></path>
                <path d="M5.25,14 C6.28436,14 7.125,13.15936 7.125,12.125 C7.125,11.09064 6.28436,10.25 5.25,10.25 C4.21564,10.25 3.375,11.09064 3.375,12.125 C3.375,13.15936 4.21564,14 5.25,14 Z M5.25,11.5 C5.593752,11.5 5.875,11.779688 5.875,12.125 C5.875,12.470312 5.593752,12.75 5.25,12.75 C4.906248,12.75 4.625,12.470312 4.625,12.125 C4.625,11.779688 4.906248,11.5 5.25,11.5 Z" id="Fill-9"></path>
            </g>
        </g>
        <g id="Page"></g>
    </g>
</svg>