<?xml version="1.0" encoding="UTF-8"?>
<svg width="40px" height="44px" viewBox="0 0 40 44" version="1.1" xmlns="http://www.w3.org/2000/svg" xmlns:xlink="http://www.w3.org/1999/xlink">
    <!-- Generator: sketchtool 52.6 (67491) - http://www.bohemiancoding.com/sketch -->
    <title>BE9528E1-A1A7-4966-8A1B-3813CA364F57</title>
    <desc>Created with sketchtool.</desc>
    <g id="Main_nav" stroke="none" stroke-width="1" fill="none" fill-rule="evenodd">
        <g id="Analiza-Page" transform="translate(-194.000000, -3332.000000)" fill="#7540FF">
            <path d="M224.908992,3332 L221.272661,3332 C218.861456,3332 216.549522,3332.96502 214.844992,3334.68555 C213.13869,3336.40429 212.181653,3338.73532 212.181653,3341.16682 L212.181653,3341.21336 C210.617394,3339.99952 208.699775,3339.33888 206.727157,3339.33347 L195.818165,3339.33347 C194.81322,3339.33347 194,3340.15347 194,3341.1668 L194,3368.66669 C194,3369.15367 194.191762,3369.61915 194.532677,3369.9629 C194.873592,3370.30665 195.335215,3370.50002 195.818165,3370.50002 L206.727157,3370.50002 C209.204044,3370.51255 211.363024,3372.20625 211.9812,3374.62501 C212.188939,3375.43424 212.911601,3376 213.740775,3376 L214.259225,3376 C215.088399,3376 215.811074,3375.43424 216.0188,3374.62501 C216.636703,3372.20625 218.795775,3370.51253 221.272843,3370.50002 L232.181835,3370.50002 C232.664785,3370.50002 233.126417,3370.30666 233.467323,3369.9629 C233.808229,3369.61914 234,3369.15367 234,3368.66669 L234,3341.1668 C234,3340.67982 233.808238,3340.21434 233.467323,3339.87059 C233.126408,3339.52684 232.664785,3339.33347 232.181835,3339.33347 L226.727339,3339.33347 L226.727339,3333.83349 C226.727339,3333.34651 226.535577,3332.88103 226.194662,3332.53728 C225.853747,3332.19354 225.392124,3332.00016 224.909174,3332.00016 L224.908992,3332 Z M215.818165,3341.16663 C215.818165,3338.1284 218.259552,3335.66665 221.272661,3335.66665 L223.090826,3335.66665 L223.090826,3359.4999 L221.272661,3359.4999 C219.300043,3359.50527 217.382424,3360.1659 215.818165,3361.37979 L215.818165,3341.16663 Z M206.727339,3366.8332 L197.636512,3366.8332 L197.636512,3342.99996 L206.727339,3342.99996 C209.740448,3342.99996 212.181835,3345.4617 212.181835,3348.49994 L212.181835,3368.69861 C210.615803,3367.49192 208.698185,3366.83664 206.727339,3366.83307 L206.727339,3366.8332 Z M230.363488,3342.99995 L230.363488,3366.8332 L221.272661,3366.8332 C219.301815,3366.83678 217.384197,3367.49205 215.818165,3368.69875 L215.818165,3368.66652 C215.818165,3365.62829 218.259552,3363.16655 221.272661,3363.16655 L224.908992,3363.16655 C225.391942,3363.16655 225.853574,3362.97318 226.19448,3362.62943 C226.535386,3362.28567 226.727157,3361.8202 226.727157,3361.33322 L226.727157,3342.99995 L230.363488,3342.99995 Z" id="literatura"></path>
        </g>
        <g id="Page"></g>
    </g>
</svg>