<?xml version="1.0" encoding="UTF-8"?>
<svg width="50px" height="33px" viewBox="0 0 50 33" version="1.1" xmlns="http://www.w3.org/2000/svg" xmlns:xlink="http://www.w3.org/1999/xlink">
    <!-- Generator: sketchtool 52.3 (67297) - http://www.bohemiancoding.com/sketch -->
    <title>555ECE9E-0AD9-4AC0-BA63-04B8BA5E4351</title>
    <desc>Created with sketchtool.</desc>
    <defs>
        <polygon id="path-1" points="0 0.559880357 9.12244048 0.559880357 9.12244048 24.1366125 0 24.1366125"></polygon>
    </defs>
    <g id="Main_nav" stroke="none" stroke-width="1" fill="none" fill-rule="evenodd">
        <g id="Home" transform="translate(-165.000000, -81.000000)">
            <g id="LogoFull" transform="translate(165.000000, 81.000000)">
                <g id="logoSmallSlice-Copy">
                    <g id="Group-3" transform="translate(0.000000, 7.626889)">
                        <mask id="mask-2" fill="white">
                            <use xlink:href="#path-1"></use>
                        </mask>
                        <g id="Clip-2"></g>
                        <path d="M2.46767857,0.559880357 C3.14029762,0.559880357 3.70696429,0.794416071 4.16827381,1.26289821 C4.62958333,1.73138036 4.88494048,2.31241607 4.93494048,3.00305893 L4.93494048,17.6220589 C4.93494048,18.1158804 5.09684524,18.5354518 5.42065476,18.8807732 C5.74446429,19.2266839 6.15577381,19.3987554 6.65458333,19.3987554 C7.30220238,19.3987554 7.86946429,19.6209161 8.35577381,20.0652375 C8.8414881,20.5095589 9.09684524,21.0640768 9.12244048,21.7305589 C9.12244048,22.3227911 8.9164881,22.8472554 8.50517857,23.3033625 C8.09386905,23.7600589 7.56470238,24.0382018 6.9164881,24.1366125 L6.39267857,24.1366125 C5.52005952,24.1366125 4.69744048,23.9574696 3.92541667,23.5997732 C3.15220238,23.2420768 2.47363095,22.7671125 1.88732143,22.1748804 C1.30160714,21.5826482 0.841488095,20.8920054 0.504583333,20.1017732 C0.16827381,19.3127196 -0.000178571429,18.4859518 -0.000178571429,17.6220589 L-0.000178571429,2.85455893 C0.0742261905,2.23816607 0.33672619,1.70721964 0.784940476,1.26289821 C1.23375,0.818576786 1.79446429,0.584630357 2.46767857,0.559880357" id="Fill-1" fill="#FFFFFF" mask="url(#mask-2)"></path>
                    </g>
                    <path d="M18.6553571,26.9144464 C19.2285714,26.9144464 19.7708333,26.8095536 20.2815476,26.5997679 C20.7922619,26.3905714 21.235119,26.1000536 21.6089286,25.7299821 C21.9827381,25.3599107 22.2821429,24.9220714 22.5065476,24.4164643 C22.7303571,23.9108571 22.8428571,23.3616429 22.8428571,22.7694107 C22.8428571,22.2266786 22.7303571,21.7022143 22.5065476,21.1966071 C22.2821429,20.6904107 21.9761905,20.2472679 21.5904762,19.8636429 C21.2035714,19.4817857 20.7547619,19.1788929 20.2446429,18.9573214 C19.7333333,18.7345714 19.2035714,18.624375 18.6553571,18.624375 C18.1071429,18.624375 17.5839286,18.7345714 17.085119,18.9573214 C16.5863095,19.1788929 16.1440476,19.4817857 15.7583333,19.8636429 C15.3714286,20.2472679 15.0666667,20.6904107 14.8422619,21.1966071 C14.6178571,21.7022143 14.5053571,22.2266786 14.5053571,22.7694107 C14.5053571,23.3374821 14.6238095,23.8737321 14.8607143,24.37875 C15.0970238,24.8855357 15.4089286,25.3227857 15.7952381,25.6934464 C16.1815476,26.0635179 16.6238095,26.3599286 17.122619,26.5815 C17.6208333,26.8036607 18.1321429,26.9144464 18.6553571,26.9144464 M19.739881,13.8493929 C20.8613095,13.9731429 21.9142857,14.2937143 22.8988095,14.8116964 C23.8833333,15.3302679 24.7309524,15.9902679 25.4410714,16.7916964 C26.1511905,17.5943036 26.7125,18.5071071 27.1238095,19.5306964 C27.535119,20.554875 27.7404762,21.6344464 27.7404762,22.7694107 L27.7404762,29.3199107 C27.7404762,29.9863929 27.4910714,30.5544643 26.9928571,31.0229464 C26.4934524,31.4920179 25.9333333,31.7259643 25.310119,31.7259643 C24.4375,31.7259643 23.739881,31.3317321 23.2166667,30.5415 C23.0916667,30.591 22.9797619,30.6469821 22.8803571,30.7082679 C22.7803571,30.7701429 22.6809524,30.8255357 22.5809524,30.8750357 C21.9827381,31.1472857 21.3714286,31.3558929 20.7494048,31.5043929 C20.1011905,31.6523036 19.4154762,31.7259643 18.6922619,31.7259643 C16.8238095,31.7259643 15.1535714,31.22625 13.6827381,30.2274107 C12.2125,29.2279821 11.1160714,27.938625 10.3934524,26.3599286 C10.1440476,25.7924464 9.95059524,25.212 9.81369048,24.6197679 C9.67678571,24.0275357 9.60833333,23.4111429 9.60833333,22.7694107 C9.60833333,22.1282679 9.67678571,21.5106964 9.81369048,20.9184643 C9.95059524,20.3262321 10.1440476,19.7469643 10.3934524,19.1788929 C11.1160714,17.5754464 12.2125,16.2801964 13.6827381,15.2931429 C15.1535714,14.3060893 16.8238095,13.8128571 18.6922619,13.8128571 L19.235119,13.8128571 C19.3970238,13.8128571 19.564881,13.8252321 19.739881,13.8493929" id="Fill-4" fill="#FFFFFF"></path>
                    <path d="M47.8589286,20.5125643 C47.4202381,19.4872071 46.7684524,18.531975 45.8940476,17.6421536 C45.1488095,16.9532786 44.3375,16.4028857 43.4666667,15.9956893 C42.5922619,15.5890821 41.6964286,15.3180107 40.772619,15.182475 C39.852381,15.04635 38.9238095,15.04635 37.9886905,15.182475 C37.0517857,15.3180107 36.1505952,15.6079393 35.2767857,16.0499036 L35.2767857,11.7946714 C35.2767857,11.68035 35.2684524,11.5666179 35.2547619,11.4528857 L36.1696429,11.4528857 C36.597619,11.4528857 36.9452381,11.1081536 36.9452381,10.6821 L36.9452381,10.1264036 C36.9452381,9.70035 36.597619,9.35856429 36.1696429,9.35856429 L29.2922619,9.35856429 C28.8619048,9.35856429 28.5142857,9.70035 28.5142857,10.1264036 L28.5142857,10.6821 C28.5142857,11.1081536 28.8619048,11.4528857 29.2922619,11.4528857 L30.3880952,11.4528857 C30.3827381,11.5035643 30.3797619,11.5583679 30.3797619,11.6096357 L30.3797619,24.0093857 C30.3797619,25.2191893 30.6291667,26.3665286 31.1279762,27.4514036 C31.6267857,28.5368679 32.2922619,29.4856179 33.1279762,30.3023679 C33.9642857,31.1161714 34.9285714,31.7614393 36.0244048,32.2446536 C37.1232143,32.7249214 38.2684524,32.9659393 39.4660714,32.9659393 C40.6857143,32.9659393 41.8440476,32.7331714 42.9404762,32.2635107 C44.0392857,31.7944393 44.9982143,31.1515286 45.8202381,30.3371357 C46.6422619,29.5239214 47.2970238,28.5745821 47.7821429,27.4891179 C48.2696429,26.4018857 48.5136905,25.24335 48.5136905,24.0093857 C48.5136905,22.7011714 48.2940476,21.5355643 47.8589286,20.5125643 Z" id="Path" fill="#FFFFFF"></path>
                    <path d="M36.9147619,5.37905893 C36.9147619,4.92530893 36.5433333,4.55818393 36.0855952,4.55818393 C35.6278571,4.55818393 35.2564286,4.92530893 35.2564286,5.37905893 C35.2564286,5.83280893 35.6278571,6.20052321 36.0855952,6.20052321 C36.5433333,6.20052321 36.9147619,5.83280893 36.9147619,5.37905893" id="Fill-12" fill="#FFFFFF"></path>
                    <path d="M35.4499405,2.05224643 C35.4499405,0.91905 34.521369,0.000353571429 33.3767262,0.000353571429 C32.2314881,0.000353571429 31.3035119,0.91905 31.3035119,2.05224643 C31.3035119,3.18603214 32.2314881,4.10472857 33.3767262,4.10472857 C34.521369,4.10472857 35.4499405,3.18603214 35.4499405,2.05224643" id="Fill-14" fill="#FF9600"></path>
                    <path d="M32.5707738,5.96545714 C32.5707738,5.18818929 31.9344643,4.55824286 31.1493452,4.55824286 C30.3642262,4.55824286 29.7279167,5.18818929 29.7279167,5.96545714 C29.7279167,6.742725 30.3642262,7.37326071 31.1493452,7.37326071 C31.9344643,7.37326071 32.5707738,6.742725 32.5707738,5.96545714" id="Fill-16" fill="#00E7CA"></path>
                    <path d="M46.0880357,9.30493929 C46.0880357,9.16704643 46.1410119,9.044475 46.2457738,8.93781429 C46.3499405,8.83115357 46.4779167,8.77811786 46.6279167,8.77811786 L48.046369,8.77811786 C48.1701786,8.77811786 48.2868452,8.75395714 48.3969643,8.706225 C48.5070833,8.65849286 48.6029167,8.59485 48.6826786,8.51470714 C48.763631,8.43515357 48.8285119,8.34086786 48.8767262,8.23185 C48.9249405,8.12283214 48.9493452,8.00733214 48.9493452,7.88476071 C48.9493452,7.76808214 48.9279167,7.65611786 48.8844643,7.54945714 C48.8416071,7.44338571 48.7820833,7.3491 48.7070833,7.2666 C48.6320833,7.1841 48.5404167,7.11927857 48.4332738,7.07095714 C48.326131,7.023225 48.2100595,6.99965357 48.08625,6.99965357 L46.6201786,6.99965357 C46.5130357,6.99965357 46.4219643,6.97254643 46.346369,6.91951071 C46.3297024,6.90949286 46.3142262,6.89711786 46.2981548,6.88415357 C46.2814881,6.8706 46.2654167,6.85586786 46.2493452,6.83936786 C46.1422024,6.74390357 46.0880357,6.62427857 46.0880357,6.48049286 C46.0880357,6.33729643 46.1422024,6.21236786 46.2493452,6.10570714 C46.351131,6.00493929 46.4672024,5.95190357 46.596369,5.9466 L48.046369,5.9466 C48.3148214,5.9466 48.5677976,5.99727857 48.8035119,6.09804643 C49.0404167,6.19881429 49.2475595,6.33729643 49.4243452,6.51290357 C49.6017262,6.68851071 49.7416071,6.89299286 49.8439881,7.12693929 C49.9451786,7.36088571 49.996369,7.61368929 49.996369,7.88476071 C50.0070833,8.13992143 49.9630357,8.384475 49.863631,8.61901071 C49.7642262,8.85295714 49.6273214,9.05920714 49.4523214,9.23717143 C49.2779167,9.41513571 49.0743452,9.55774286 48.8404167,9.66381429 C48.6064881,9.770475 48.3606548,9.82351071 48.1029167,9.82351071 L46.6201786,9.82351071 C46.4802976,9.82351071 46.3582738,9.7746 46.2535119,9.67618929 C46.14875,9.57777857 46.0939881,9.45402857 46.0880357,9.30493929" id="Fill-18" fill="#FFFFFF"></path>
                    <path d="M46.0880357,12.1109411 C46.0880357,11.9730482 46.1410119,11.8510661 46.2457738,11.7444054 C46.3499405,11.6377446 46.4779167,11.5841196 46.6279167,11.5841196 L48.046369,11.5841196 C48.1701786,11.5841196 48.2868452,11.5605482 48.3969643,11.5128161 C48.5070833,11.4644946 48.6029167,11.4008518 48.6826786,11.3212982 C48.763631,11.2411554 48.8285119,11.1468696 48.8767262,11.0384411 C48.9249405,10.9288339 48.9493452,10.8133339 48.9493452,10.6913518 C48.9493452,10.5746732 48.9279167,10.4621196 48.8844643,10.3554589 C48.8416071,10.2499768 48.7820833,10.1556911 48.7070833,10.0726018 C48.6320833,9.99010179 48.5404167,9.92528036 48.4332738,9.87754821 C48.326131,9.82981607 48.2100595,9.80565536 48.08625,9.80565536 L46.6201786,9.80565536 C46.5130357,9.80565536 46.4219643,9.7791375 46.346369,9.7255125 C46.3297024,9.71549464 46.3142262,9.70311964 46.2981548,9.69015536 C46.2814881,9.67660179 46.2654167,9.66186964 46.2493452,9.64595893 C46.1422024,9.54990536 46.0880357,9.43028036 46.0880357,9.28708393 C46.0880357,9.14329821 46.1422024,9.01836964 46.2493452,8.91170893 C46.351131,8.81094107 46.4672024,8.75790536 46.596369,8.75260179 L48.046369,8.75260179 C48.3148214,8.75260179 48.5677976,8.80328036 48.8035119,8.90404821 C49.0404167,9.00481607 49.2475595,9.14329821 49.4243452,9.31890536 C49.6017262,9.4945125 49.7416071,9.69899464 49.8439881,9.93353036 C49.9451786,10.1674768 49.996369,10.4196911 49.996369,10.6913518 C50.0070833,10.9459232 49.9630357,11.1910661 49.863631,11.4250125 C49.7642262,11.6589589 49.6273214,11.8652089 49.4523214,12.0431732 C49.2779167,12.2211375 49.0743452,12.3637446 48.8404167,12.4698161 C48.6064881,12.5764768 48.3606548,12.6295125 48.1029167,12.6295125 L46.6201786,12.6295125 C46.4802976,12.6295125 46.3582738,12.5806018 46.2535119,12.4821911 C46.14875,12.3837804 46.0939881,12.2600304 46.0880357,12.1109411" id="Fill-20" fill="#FFFFFF"></path>
                </g>
                <path d="M43.3708333,23.4193916 C43.3708333,24.5637844 42.902381,25.5973916 42.1458333,26.3493201 C41.3869048,27.097713 40.3428571,27.5614808 39.1869048,27.5614808 C36.8744048,27.5614808 35,25.7064094 35,23.4193916 L35,23.4111416 C35,21.1223558 37.1642857,20.291463 39.1869048,21.6698023 C42.3458333,23.8212844 43.3708333,21.1223558 43.3708333,23.4111416 L43.3708333,23.4193916 Z" id="bSliceSmall-Copy" fill="#2A89E6"></path>
            </g>
        </g>
        <g id="Page"></g>
    </g>
</svg>