<svg xmlns="http://www.w3.org/2000/svg" width="26.657" height="20.001" viewBox="0 0 26.657 20.001">
  <g id="Layer_2" data-name="Layer 2" transform="translate(26.661 23.001) rotate(180)">
    <path id="Path_2" data-name="Path 2" d="M4.122,9.322a1.111,1.111,0,0,0-1.567,0L.333,11.545a1.111,1.111,0,0,0,0,1.578l2.222,2.222a1.111,1.111,0,0,0,1.567-1.567l-.333-.333H14.444a1.111,1.111,0,0,0,0-2.222H3.788l.322-.322a1.111,1.111,0,0,0,.011-1.578Z" transform="translate(0 0.667)" fill="#fff"/>
    <path id="Path_3" data-name="Path 3" d="M15.939,3A10,10,0,0,0,6.661,9.244a1.111,1.111,0,1,0,2.056.833,7.778,7.778,0,1,1,0,5.833,1.111,1.111,0,0,0-2.056.833A10,10,0,1,0,15.939,3Z" transform="translate(0.727)" fill="#fff"/>
  </g>
</svg>
