<svg xmlns="http://www.w3.org/2000/svg" width="254.677" height="69.389" viewBox="0 0 254.677 69.389">
  <g id="Group_109" data-name="Group 109" transform="translate(-490.479 -1159.625)">
    <path id="Path_1028" data-name="Path 1028" d="M238.813,729.345a1.7,1.7,0,1,0-1.7,1.687A1.691,1.691,0,0,0,238.813,729.345Z" transform="translate(325.479 443)" fill="#fff" fill-rule="evenodd"/>
    <path id="Path_1029" data-name="Path 1029" d="M236.937,720.84a4.24,4.24,0,1,0-4.239,4.216A4.226,4.226,0,0,0,236.937,720.84Z" transform="translate(325.479 443)" fill="#ff9600" fill-rule="evenodd"/>
    <path id="Path_1030" data-name="Path 1030" d="M231.611,730.549a2.908,2.908,0,1,0-2.907,2.892A2.9,2.9,0,0,0,231.611,730.549Z" transform="translate(325.479 443)" fill="#00e7ca" fill-rule="evenodd"/>
    <path id="Path_1031" data-name="Path 1031" d="M170.047,735.113a4.682,4.682,0,0,1,3.478,1.444,5.512,5.512,0,0,1,1.567,3.574v30.031a3.647,3.647,0,0,0,.994,2.585,3.3,3.3,0,0,0,2.523,1.065,4.988,4.988,0,0,1,3.479,1.367,4.635,4.635,0,0,1,.306,6.653,5.287,5.287,0,0,1-3.25,1.711h-1.07a11.826,11.826,0,0,1-5.046-1.1,14.183,14.183,0,0,1-4.167-2.928,13.507,13.507,0,0,1-2.829-4.257A12.893,12.893,0,0,1,165,770.162V739.826a5.409,5.409,0,0,1,1.6-3.269A4.957,4.957,0,0,1,170.047,735.113Z" transform="translate(325.479 443)" fill="#f2f2f2" fill-rule="evenodd"/>
    <path id="Path_1032" data-name="Path 1032" d="M203.152,773.582a8.615,8.615,0,0,0,3.326-.646,8.27,8.27,0,0,0,2.714-1.786,8.767,8.767,0,0,0,1.835-2.7,8.275,8.275,0,0,0,.689-3.383,7.923,7.923,0,0,0-.689-3.232,8.891,8.891,0,0,0-4.625-4.6,8.043,8.043,0,0,0-3.25-.683,7.773,7.773,0,0,0-3.211.683,9.08,9.08,0,0,0-2.714,1.863,8.9,8.9,0,0,0-1.874,2.737,7.938,7.938,0,0,0-.688,3.232,7.725,7.725,0,0,0,.726,3.306,8.984,8.984,0,0,0,1.912,2.7,9.416,9.416,0,0,0,2.714,1.824A7.589,7.589,0,0,0,203.152,773.582Zm2.218-26.838a17.948,17.948,0,0,1,6.46,1.977,18.219,18.219,0,0,1,5.2,4.068,19.273,19.273,0,0,1,3.441,5.626,17.752,17.752,0,0,1,1.261,6.653v13.456a4.638,4.638,0,0,1-1.529,3.5,4.916,4.916,0,0,1-7.723-.988,4.371,4.371,0,0,0-.688.342c-.2.127-.408.24-.612.341a20.4,20.4,0,0,1-3.747,1.293,18.7,18.7,0,0,1-4.205.456,17.737,17.737,0,0,1-10.245-3.079,19.01,19.01,0,0,1-6.728-7.944,20.212,20.212,0,0,1-1.186-3.574,17.454,17.454,0,0,1,0-7.6,20.2,20.2,0,0,1,1.186-3.573,18.654,18.654,0,0,1,6.728-7.982,17.9,17.9,0,0,1,10.245-3.043h1.11A7.616,7.616,0,0,1,205.37,746.744Z" transform="translate(325.479 443)" fill="#f2f2f2" fill-rule="evenodd"/>
    <path id="Path_1033" data-name="Path 1033" d="M254.229,767.62a8.472,8.472,0,0,1-2.505,6.019,8.573,8.573,0,0,1-14.614-6.019V767.6c0-4.7,4.427-6.407,8.563-3.577,6.46,4.418,8.556-1.125,8.556,3.577Zm8.647-7.188a17.648,17.648,0,0,0-8.983-9.277,19.721,19.721,0,0,0-5.508-1.672,19.473,19.473,0,0,0-5.694,0,17.829,17.829,0,0,0-5.547,1.783v-8.743a5.909,5.909,0,0,0-.045-.7h1.872a1.586,1.586,0,0,0,1.586-1.583V739.1a1.581,1.581,0,0,0-1.586-1.577H224.9a1.581,1.581,0,0,0-1.591,1.577v1.142a1.586,1.586,0,0,0,1.591,1.583h2.243a2.7,2.7,0,0,0-.018.324v25.469a16.789,16.789,0,0,0,1.53,7.071,19.459,19.459,0,0,0,4.091,5.857,19.92,19.92,0,0,0,5.923,3.99,17.321,17.321,0,0,0,7.038,1.482,17.806,17.806,0,0,0,7.106-1.443,18.78,18.78,0,0,0,5.888-3.956,19.134,19.134,0,0,0,4.012-5.852,17.31,17.31,0,0,0,1.5-7.149A18.271,18.271,0,0,0,262.876,760.432Z" transform="translate(325.479 443)" fill="#f2f2f2" fill-rule="evenodd"/>
    <path id="Path_1034" data-name="Path 1034" d="M287.3,750.1a17.316,17.316,0,0,1,12.679,5.191,4.423,4.423,0,0,1,1.156,3.338,4.576,4.576,0,0,1-1.455,3.19,5.085,5.085,0,0,1-3.43,1.334,4.311,4.311,0,0,1-3.432-1.334,7.978,7.978,0,0,0-5.518-2.077,7.686,7.686,0,0,0-3.245.7,9.309,9.309,0,0,0-2.684,1.854,8.778,8.778,0,0,0-1.827,2.633,7.455,7.455,0,0,0-.672,3.115,7.87,7.87,0,0,0,.672,3.226,8.337,8.337,0,0,0,1.864,2.67,9.307,9.307,0,0,0,2.685,1.817,6.994,6.994,0,0,0,3.207.593,7.972,7.972,0,0,0,5.518-2,4.708,4.708,0,0,1,6.862,0,4.2,4.2,0,0,1,1.045,1.409,4.561,4.561,0,0,1,.41,1.7,4.681,4.681,0,0,1-.261,1.744,4.528,4.528,0,0,1-.895,1.52,18.3,18.3,0,0,1-5.743,3.931A17.52,17.52,0,0,1,287.3,786a17.188,17.188,0,0,1-7.011-1.447,18.659,18.659,0,0,1-9.659-9.6,16.909,16.909,0,0,1,0-13.72,18.381,18.381,0,0,1,3.954-5.71,19.857,19.857,0,0,1,5.78-3.931A16.657,16.657,0,0,1,287.3,750.1Z" transform="translate(325.479 443)" fill="#f2f2f2" fill-rule="evenodd"/>
    <path id="Path_1035" data-name="Path 1035" d="M309.67,750.03a4.787,4.787,0,0,1,3.43,1.446A4.722,4.722,0,0,1,314.592,755v13.053a7.9,7.9,0,0,0,.671,3.226,8.405,8.405,0,0,0,4.438,4.413,8.013,8.013,0,0,0,3.244.668,8.394,8.394,0,0,0,3.133-.594,8.762,8.762,0,0,0,2.648-1.632,7.5,7.5,0,0,0,1.827-2.521,7.653,7.653,0,0,0,.671-3.189v-13.5a4.216,4.216,0,0,1,.746-2.522,5.327,5.327,0,0,1,.335-.444q.186-.223.411-.446a4.342,4.342,0,0,1,3.356-1.483,4.815,4.815,0,0,1,3.505,1.483,4.683,4.683,0,0,1,1.492,3.19v13.349a17.321,17.321,0,0,1-1.417,6.972,18.172,18.172,0,0,1-9.621,9.567A17.762,17.762,0,0,1,322.945,786a15.863,15.863,0,0,1-6.861-1.224,18.505,18.505,0,0,1-9.77-9.419,15.96,15.96,0,0,1-1.491-6.786V754.925a4.727,4.727,0,0,1,1.379-3.374A4.842,4.842,0,0,1,309.67,750.03Z" transform="translate(325.479 443)" fill="#f2f2f2" fill-rule="evenodd"/>
    <path id="Path_1036" data-name="Path 1036" d="M369.75,769.632l-5.06,5.031a2.247,2.247,0,0,1-3.165,0l-5.059-5.031a2.216,2.216,0,0,1,0-3.148l5.059-5.031a2.247,2.247,0,0,1,3.165,0l5.06,5.031A2.218,2.218,0,0,1,369.75,769.632Zm10.135-8.59a18.492,18.492,0,0,0-3.911-5.748,18.77,18.77,0,0,0-4.848-3.3,19.045,19.045,0,0,0-10.928-1.627,17.069,17.069,0,0,0-5.408,1.739v-8.532a4.946,4.946,0,0,0-.372-1.884,4.55,4.55,0,0,0-1.078-1.6,6.126,6.126,0,0,0-1.6-1.071,3.751,3.751,0,0,0-1.871-.338,3.645,3.645,0,0,0-1.748.3,5.217,5.217,0,0,0-1.529,1.006,5.375,5.375,0,0,0-1.118,1.481,3.719,3.719,0,0,0-.453,1.739v24.85a16.389,16.389,0,0,0,1.5,6.9,18.8,18.8,0,0,0,3.99,5.707,19.154,19.154,0,0,0,5.781,3.9A16.907,16.907,0,0,0,363.144,786a17.35,17.35,0,0,0,6.938-1.409,18.109,18.109,0,0,0,5.739-3.856,18.67,18.67,0,0,0,3.919-5.708,16.9,16.9,0,0,0,1.457-6.97A17.724,17.724,0,0,0,379.885,761.042Z" transform="translate(325.479 443)" fill="#f2f2f2" fill-rule="evenodd"/>
    <path id="Path_1037" data-name="Path 1037" d="M408.341,763.157a9.883,9.883,0,0,0-2.984-2.484,8.344,8.344,0,0,0-7.645,0,10.051,10.051,0,0,0-2.946,2.484ZM401.554,750.1a16.5,16.5,0,0,1,6.862,1.484,19.559,19.559,0,0,1,9.769,9.678,15.976,15.976,0,0,1,1.492,6.786,4.733,4.733,0,0,1-1.454,3.411,4.615,4.615,0,0,1-3.618,1.409H394.766a8.5,8.5,0,0,0,8.8,3.263,8.982,8.982,0,0,0,1.454-.518q.633-.3,1.268-.519a4.354,4.354,0,0,1,1.454-.222,5.041,5.041,0,0,1,4.438,2.928,4.735,4.735,0,0,1,.372,2.634,4.621,4.621,0,0,1-1.3,2.6,11.58,11.58,0,0,1-4.475,2.262,23.46,23.46,0,0,1-5.22.705,15.246,15.246,0,0,1-6.862-1.3,18.958,18.958,0,0,1-5.78-3.931,18.573,18.573,0,0,1-3.953-5.822,17.1,17.1,0,0,1-1.455-6.9,16.425,16.425,0,0,1,1.455-6.749,19.038,19.038,0,0,1,9.659-9.715A16.656,16.656,0,0,1,401.554,750.1Z" transform="translate(325.479 443)" fill="#f2f2f2" fill-rule="evenodd"/>
  </g>
</svg>
