<?xml version="1.0" encoding="UTF-8"?>
<svg width="300px" height="83px" viewBox="0 0 300 83" version="1.1" xmlns="http://www.w3.org/2000/svg" xmlns:xlink="http://www.w3.org/1999/xlink">
    <!-- Generator: sketchtool 52.3 (67297) - http://www.bohemiancoding.com/sketch -->
    <title>906DF47F-3D0F-4052-BD75-1F9649EAD521</title>
    <desc>Created with sketchtool.</desc>
    <defs>
        <polygon id="path-1" points="0 0.707619048 21.9475238 0.707619048 21.9475238 58.0047619 0 58.0047619"></polygon>
        <polygon id="path-3" points="0.87352381 0.34847619 43.4295238 0.34847619 43.4295238 42.8322272 0.87352381 42.8322272"></polygon>
    </defs>
    <g id="Main_nav" stroke="none" stroke-width="1" fill="none" fill-rule="evenodd">
        <g id="Home" transform="translate(-570.000000, -208.000000)">
            <g id="logoFull" transform="translate(570.000000, 208.000000)">
                <g id="logoFullSlice">
                    <path d="M86.8392381,15.7884762 C86.8392381,14.6865714 85.9459048,13.7932381 84.844,13.7932381 C83.7420952,13.7932381 82.8487619,14.6865714 82.8487619,15.7884762 C82.8487619,16.890381 83.7420952,17.7837143 84.844,17.7837143 C85.9459048,17.7837143 86.8392381,16.890381 86.8392381,15.7884762" id="Fill-4" fill="#FFFFFF"></path>
                    <path d="M84.6321905,5.72619048 C84.6321905,2.97095238 82.3988571,0.738571429 79.6445714,0.738571429 C76.8893333,0.738571429 74.656,2.97095238 74.656,5.72619048 C74.656,8.48142857 76.8893333,10.7138095 79.6445714,10.7138095 C82.3988571,10.7138095 84.6321905,8.48142857 84.6321905,5.72619048" id="Fill-6" fill="#FF9600"></path>
                    <path d="M78.3654286,17.2133333 C78.3654286,15.3247619 76.8349524,13.7933333 74.9454286,13.7933333 C73.0568571,13.7933333 71.5244762,15.3247619 71.5244762,17.2133333 C71.5244762,19.1028571 73.0568571,20.6342857 74.9454286,20.6342857 C76.8349524,20.6342857 78.3654286,19.1028571 78.3654286,17.2133333" id="Fill-8" fill="#00E7CA"></path>
                    <g id="Group-12" transform="translate(0.000000, 21.904762)">
                        <mask id="mask-2" fill="white">
                            <use xlink:href="#path-1"></use>
                        </mask>
                        <g id="Clip-11"></g>
                        <path d="M5.93704762,0.707619048 C7.55609524,0.707619048 8.91895238,1.27809524 10.0294286,2.41619048 C11.138,3.5552381 11.7513333,4.96571429 11.8732381,6.64380952 L11.8732381,42.1733333 C11.8732381,43.3742857 12.2627619,44.392381 13.0427619,45.2314286 C13.8208571,46.072381 14.810381,46.4914286 16.010381,46.4914286 C17.5694286,46.4914286 18.9341905,47.0314286 20.1037143,48.1095238 C21.2732381,49.1895238 21.8865714,50.5380952 21.9475238,52.1571429 C21.9475238,53.5971429 21.4522857,54.8714286 20.4637143,55.9809524 C19.4741905,57.0914286 18.1989524,57.7657143 16.6399048,58.0047619 L15.3808571,58.0047619 C13.2808571,58.0047619 11.3027619,57.5695238 9.44466667,56.7009524 C7.58466667,55.8314286 5.95133333,54.6761905 4.54180952,53.2371429 C3.13228571,51.7990476 2.02371429,50.1209524 1.21419048,48.2 C0.403714286,46.2819048 -9.52380952e-05,44.2733333 -9.52380952e-05,42.1733333 L-9.52380952e-05,6.28285714 C0.179904762,4.7847619 0.809428571,3.49619048 1.88847619,2.41619048 C2.96847619,1.33619048 4.318,0.766666667 5.93704762,0.707619048" id="Fill-10" fill="#FFFFFF" mask="url(#mask-2)"></path>
                    </g>
                    <path d="M44.8851429,68.1257143 C46.2641905,68.1257143 47.568,67.8714286 48.7975238,67.3609524 C50.0260952,66.852381 51.0918095,66.147619 51.9908571,65.247619 C52.8899048,64.347619 53.6099048,63.2838095 54.1499048,62.0542857 C54.6889524,60.8266667 54.9594286,59.4904762 54.9594286,58.052381 C54.9594286,56.7333333 54.6889524,55.4590476 54.1499048,54.2285714 C53.6099048,53 52.875619,51.9209524 51.9460952,50.9904762 C51.015619,50.0619048 49.9365714,49.3266667 48.708,48.7866667 C47.4784762,48.2466667 46.2041905,47.9780952 44.8851429,47.9780952 C43.5651429,47.9780952 42.3060952,48.2466667 41.1070476,48.7866667 C39.9060952,49.3266667 38.8432381,50.0619048 37.9137143,50.9904762 C36.9832381,51.9209524 36.2499048,53 35.7099048,54.2285714 C35.1708571,55.4590476 34.900381,56.7333333 34.900381,58.052381 C34.900381,59.4314286 35.1841905,60.7361905 35.7546667,61.9638095 C36.3241905,63.1933333 37.0737143,64.2571429 38.0032381,65.1580952 C38.9327619,66.0571429 39.9965714,66.7771429 41.1965714,67.3161905 C42.395619,67.8561905 43.6260952,68.1257143 44.8851429,68.1257143 M47.4937143,36.3733333 C50.1918095,36.6752381 52.7241905,37.4533333 55.0946667,38.712381 C57.4632381,39.9714286 59.5022857,41.5771429 61.2118095,43.5247619 C62.920381,45.4742857 64.2699048,47.6933333 65.2594286,50.1809524 C66.2489524,52.6695238 66.7432381,55.2933333 66.7432381,58.052381 L66.7432381,73.972381 C66.7432381,75.5914286 66.1422857,76.972381 64.9441905,78.1104762 C63.7432381,79.2504762 62.3946667,79.8190476 60.8965714,79.8190476 C58.795619,79.8190476 57.1184762,78.86 55.8584762,76.9419048 C55.5584762,77.0619048 55.2889524,77.1961905 55.0499048,77.3466667 C54.8099048,77.4961905 54.5689524,77.6304762 54.3299048,77.7495238 C52.8899048,78.4114286 51.4194286,78.92 49.9213333,79.28 C48.3622857,79.64 46.7137143,79.8190476 44.9746667,79.8190476 C40.4775238,79.8190476 36.4584762,78.6057143 32.9213333,76.1761905 C29.3822857,73.747619 26.7441905,70.6152381 25.0060952,66.7771429 C24.4060952,65.3980952 23.940381,63.9885714 23.6108571,62.5495238 C23.2813333,61.1095238 23.1175238,59.6114286 23.1175238,58.052381 C23.1175238,56.4933333 23.2813333,54.9933333 23.6108571,53.5542857 C23.940381,52.1142857 24.4060952,50.7066667 25.0060952,49.3266667 C26.7441905,45.4295238 29.3822857,42.2809524 32.9213333,39.8828571 C36.4584762,37.4838095 40.4775238,36.2838095 44.9746667,36.2838095 L46.2794286,36.2838095 C46.668,36.2838095 47.0737143,36.3152381 47.4937143,36.3733333" id="Fill-13" fill="#FFFFFF"></path>
                    <path d="M115.14781,52.5674286 C114.092571,50.0750476 112.524,47.7550476 110.421143,45.5921905 C108.62781,43.9179048 106.676381,42.5798095 104.58019,41.5912381 C102.476381,40.6026667 100.321143,39.9426667 98.0992381,39.6131429 C95.884,39.283619 93.6487619,39.283619 91.4011429,39.6131429 C89.1468571,39.9426667 86.9782857,40.648381 84.8754286,41.7226667 L84.8754286,31.3788571 C84.8754286,31.1017143 84.8554286,30.8255238 84.8220952,30.548381 L87.024,30.548381 C88.051619,30.548381 88.8897143,29.7112381 88.8897143,28.676 L88.8897143,27.3245714 C88.8897143,26.2893333 88.051619,25.4588571 87.024,25.4588571 L70.476381,25.4588571 C69.4411429,25.4588571 68.6049524,26.2893333 68.6049524,27.3245714 L68.6049524,28.676 C68.6049524,29.7112381 69.4411429,30.548381 70.476381,30.548381 L73.1144762,30.548381 C73.1001905,30.6740952 73.0935238,30.8055238 73.0935238,30.9312381 L73.0935238,61.0645714 C73.0935238,64.0055238 73.6935238,66.7940952 74.8935238,69.4302857 C76.0935238,72.0674286 77.6954286,74.3750476 79.7068571,76.3598095 C81.7173333,78.3369524 84.0382857,79.9055238 86.6744762,81.0798095 C89.3182857,82.2464762 92.0735238,82.8331429 94.9554286,82.8331429 C97.8887619,82.8331429 100.676381,82.2664762 103.314476,81.1264762 C105.957333,79.9845714 108.264952,78.4226667 110.242095,76.4455238 C112.22019,74.4674286 113.796381,72.1607619 114.962095,69.5226667 C116.136381,66.8798095 116.723048,64.0645714 116.723048,61.0645714 C116.723048,57.8874286 116.195429,55.0531429 115.14781,52.5674286 Z" id="Path" fill="#FFFFFF"></path>
                    <path d="M143.878857,40.3485714 C149.728381,40.3485714 154.69981,42.3961905 158.795048,46.4895238 C159.789333,47.6019048 160.242667,48.9180952 160.155048,50.4390476 C160.067429,51.96 159.496952,53.2180952 158.443619,54.212381 C157.391238,55.207619 156.044571,55.7333333 154.408381,55.7914286 C152.770286,55.8495238 151.424571,55.3238095 150.371238,54.212381 C148.557905,52.5752381 146.394095,51.7552381 143.878857,51.7552381 C142.533143,51.7552381 141.25981,52.0342857 140.061714,52.5885714 C138.861714,53.1457143 137.809333,53.8761905 136.903619,54.7819048 C135.996,55.6885714 135.27981,56.7266667 134.754095,57.8971429 C134.226476,59.067619 133.963619,60.2961905 133.963619,61.5819048 C133.963619,62.9285714 134.226476,64.2009524 134.754095,65.3990476 C135.27981,66.5980952 136.010286,67.6514286 136.947429,68.5580952 C137.881714,69.4647619 138.935048,70.1809524 140.105524,70.707619 C141.276,71.2342857 142.533143,71.4685714 143.878857,71.4095238 C146.45219,71.4095238 148.616952,70.62 150.371238,69.04 C151.424571,67.8704762 152.770286,67.2847619 154.408381,67.2847619 C156.044571,67.2847619 157.391238,67.8704762 158.443619,69.04 C158.971238,69.5095238 159.378857,70.0638095 159.673143,70.707619 C159.964571,71.352381 160.124571,72.0238095 160.155048,72.7247619 C160.183619,73.427619 160.080762,74.1161905 159.848381,74.787619 C159.613143,75.46 159.261714,76.06 158.795048,76.5857143 C156.747429,78.6342857 154.495048,80.1838095 152.038857,81.2371429 C149.581714,82.2895238 146.861714,82.8161905 143.878857,82.8161905 C140.953143,82.8161905 138.203619,82.2447619 135.631238,81.1047619 C133.056952,79.9647619 130.804571,78.4285714 128.875048,76.4980952 C126.944571,74.5685714 125.408381,72.3171429 124.267429,69.7419048 C123.127429,67.1695238 122.556952,64.4485714 122.556952,61.5819048 C122.556952,58.7752381 123.127429,56.0838095 124.267429,53.5095238 C125.408381,50.9361905 126.957905,48.6838095 128.918857,46.7542857 C130.877905,44.8228571 133.144571,43.2742857 135.718857,42.1038095 C138.29219,40.9342857 141.01219,40.3485714 143.878857,40.3485714" id="Fill-17" fill="#FFFFFF"></path>
                    <path d="M170.200476,40.2602857 C171.720476,40.2602857 173.06619,40.8307619 174.235714,41.9717143 C175.40619,43.1126667 175.990952,44.5021905 175.990952,46.1393333 L175.990952,61.5821905 C175.990952,62.9288571 176.25381,64.2012381 176.780476,65.3993333 C177.308095,66.598381 178.009048,67.6364762 178.887143,68.5145714 C179.764286,69.3917143 180.802381,70.093619 182.001429,70.6202857 C183.199524,71.146 184.471905,71.4098095 185.817619,71.4098095 C187.105238,71.4098095 188.332857,71.1764762 189.504286,70.7079048 C190.672857,70.2402857 191.710952,69.5974286 192.618571,68.7764762 C193.525238,67.958381 194.242381,66.9640952 194.769048,65.7945714 C195.294762,64.6240952 195.557619,63.3669524 195.557619,62.0212381 L195.557619,46.0517143 C195.557619,44.8831429 195.850952,43.8888571 196.435714,43.0679048 C196.551905,42.893619 196.684286,42.7174286 196.83,42.5421905 C196.975714,42.366 197.136667,42.1907619 197.312857,42.0155238 C198.36619,40.846 199.682381,40.2602857 201.261429,40.2602857 C202.840476,40.2602857 204.214762,40.846 205.385238,42.0155238 C206.495714,43.1279048 207.082381,44.3840952 207.140476,45.7888571 L207.140476,61.5821905 C207.140476,64.5079048 206.583333,67.2574286 205.472857,69.8307619 C204.361429,72.4050476 202.840476,74.6555238 200.91,76.586 C198.979524,78.5164762 196.728095,80.0393333 194.15381,81.1498095 C191.578571,82.2612381 188.801429,82.8164762 185.817619,82.8164762 C183.010952,82.9326667 180.319524,82.4517143 177.74619,81.3688571 C175.171905,80.286 172.90619,78.7955238 170.94619,76.893619 C168.98619,74.993619 167.421429,72.7698095 166.251905,70.2250476 C165.080476,67.6802857 164.497619,65.0040952 164.497619,62.1964762 L164.497619,46.0517143 C164.497619,44.5307619 165.036667,43.2002857 166.120476,42.0602857 C167.202381,40.918381 168.561429,40.3193333 170.200476,40.2602857" id="Fill-19" fill="#FFFFFF"></path>
                    <path d="M240.88219,63.4512381 L234.92981,69.403619 C233.901238,70.4321905 232.234571,70.4321905 231.206,69.403619 L225.253619,63.4512381 C224.225048,62.4226667 224.225048,60.756 225.253619,59.7274286 L231.206,53.7750476 C232.234571,52.7464762 233.901238,52.7464762 234.92981,53.7750476 L240.88219,59.7274286 C241.910762,60.756 241.910762,62.4226667 240.88219,63.4512381 M252.806,53.2893333 C251.786952,50.8598095 250.253619,48.5931429 248.205048,46.488381 C246.453619,44.8512381 244.548857,43.5464762 242.501238,42.5845714 C240.453619,41.6226667 238.348857,40.9740952 236.186,40.6598095 C234.015524,40.336 231.844095,40.336 229.644095,40.6598095 C227.452667,40.9740952 225.32981,41.6598095 223.28219,42.7169524 L223.28219,32.6226667 C223.28219,31.8702857 223.139333,31.1179048 222.844095,30.3940952 C222.548857,29.6607619 222.12981,29.0312381 221.576476,28.4988571 C221.015524,27.9750476 220.386,27.556 219.691714,27.2321905 C218.986952,26.908381 218.252667,26.7740952 217.490762,26.8321905 C216.796476,26.7740952 216.100286,26.8979048 215.433619,27.1845714 C214.757429,27.4788571 214.157429,27.8788571 213.634571,28.3750476 C213.110762,28.8693333 212.663143,29.4512381 212.320286,30.1274286 C211.967905,30.803619 211.786952,31.488381 211.786952,32.1845714 L211.786952,61.5845714 C211.786952,64.4512381 212.376476,67.1645714 213.548857,69.7455238 C214.710762,72.3179048 216.28219,74.5655238 218.243143,76.4979048 C220.195524,78.4312381 222.463143,79.9655238 225.044095,81.108381 C227.614571,82.2407619 230.301238,82.8131429 233.110762,82.8131429 C235.977429,82.8131429 238.701238,82.2607619 241.272667,81.1464762 C243.843143,80.0417143 246.100286,78.5169524 248.025048,76.5845714 C249.957429,74.6607619 251.491714,72.4026667 252.634571,69.8312381 C253.777429,67.2607619 254.348857,64.5074286 254.348857,61.5845714 C254.348857,58.4788571 253.834571,55.7179048 252.806,53.2893333" id="Fill-21" fill="#FFFFFF"></path>
                    <g id="Group-25" transform="translate(256.190476, 40.000000)">
                        <mask id="mask-4" fill="white">
                            <use xlink:href="#path-3"></use>
                        </mask>
                        <g id="Clip-24"></g>
                        <path d="M30.0925714,15.7913333 C29.0973333,14.5627619 27.9287619,13.5837143 26.5830476,12.8522857 C25.236381,12.1208571 23.7449524,11.7551429 22.1078095,11.7551429 C20.4106667,11.7551429 18.9059048,12.1208571 17.5887619,12.8522857 C16.2725714,13.5837143 15.116381,14.5627619 14.1230476,15.7913333 L30.0925714,15.7913333 Z M22.1078095,0.34847619 C24.9154286,0.34847619 27.6059048,0.934190476 30.1811429,2.10371429 C32.7535238,3.27419048 35.0201905,4.83895238 36.9801905,6.798 C38.9401905,8.758 40.504,11.0094286 41.6744762,13.5532381 C42.8449524,16.098 43.4297143,18.7751429 43.4297143,21.5818095 C43.4297143,23.1037143 42.8592381,24.4484762 41.7192381,25.618 C40.5782857,26.7894286 39.1601905,27.3446667 37.4630476,27.2846667 L14.1230476,27.2846667 C16.0535238,30.0360952 18.7144762,31.4094286 22.1078095,31.4094286 C23.044,31.4094286 23.8325714,31.3218095 24.4773333,31.145619 C25.1201905,30.970381 25.6906667,30.7665714 26.1878095,30.5322857 C26.6849524,30.2989524 27.1820952,30.0941905 27.6801905,29.918 C28.1754286,29.7418095 28.7468571,29.6551429 29.3906667,29.6551429 C30.6201905,29.7132381 31.6859048,30.0637143 32.5935238,30.7075238 C33.5001905,31.3522857 34.1725714,32.1560952 34.611619,33.1199048 C35.0497143,34.085619 35.1954286,35.1246667 35.0497143,36.2360952 C34.904,37.3475238 34.3925714,38.3713333 33.5144762,39.305619 C31.9354286,40.5941905 30.1811429,41.485619 28.2497143,41.9827619 C26.3201905,42.4799048 24.271619,42.758 22.1078095,42.8160952 C19.3001905,42.9322857 16.6087619,42.4208571 14.0354286,41.2808571 C11.4620952,40.1399048 9.19447619,38.590381 7.23542857,36.630381 C5.27447619,34.6713333 3.72590476,32.3751429 2.58495238,29.7418095 C1.44495238,27.110381 0.87352381,24.390381 0.87352381,21.5818095 C0.87352381,18.8332381 1.44495238,16.1722857 2.58495238,13.5970476 C3.72590476,11.0237143 5.26209524,8.758 7.19161905,6.798 C9.12209524,4.83895238 11.3735238,3.27419048 13.9478095,2.10371429 C16.5211429,0.934190476 19.2411429,0.34847619 22.1078095,0.34847619 Z" id="Fill-23" fill="#FFFFFF" mask="url(#mask-4)"></path>
                    </g>
                </g>
                <path d="M104.975429,61.0712381 C104.975429,63.8540952 103.84781,66.3655238 102.02781,68.1921905 C100.202095,70.0112381 97.6906667,71.1379048 94.9087619,71.1379048 C89.3449524,71.1379048 84.8354286,66.6293333 84.8354286,61.0712381 L84.8354286,61.0512381 C84.8354286,55.488381 90.0430476,53.4712381 94.9087619,56.8188571 C102.509714,62.0464762 104.975429,55.488381 104.975429,61.0512381 L104.975429,61.0712381 Z" id="bSliceFull" fill="#418CE7"></path>
            </g>
        </g>
        <g id="Page"></g>
    </g>
</svg>