<?xml version="1.0" encoding="UTF-8"?>
<svg width="26px" height="36px" viewBox="0 0 26 36" version="1.1" xmlns="http://www.w3.org/2000/svg" xmlns:xlink="http://www.w3.org/1999/xlink">
    <!-- Generator: sketchtool 52.6 (67491) - http://www.bohemiancoding.com/sketch -->
    <title>428EC250-F133-48A6-8F1B-E4018B01E262</title>
    <desc>Created with sketchtool.</desc>
    <g id="Main_nav" stroke="none" stroke-width="1" fill="none" fill-rule="evenodd">
        <g id="Grupe-Analiza" transform="translate(-194.000000, -2864.000000)" fill="#E26F6F">
            <g id="markeriZapaljenja" transform="translate(194.000000, 2864.000000)">
                <path d="M13,0 C5.9312,0 0.1968,5.7328 0.1968,12.8032 C0.1968,19.872 13.3876,36 13.3876,36 C13.3876,36 25.8016,19.872 25.8016,12.8032 C25.8016,5.7344 20.0688,0 12.9984,0 L13,0 Z M13,2.59688 C18.636,2.59688 23.2048,7.16568 23.2048,12.80168 C23.2048,18.43768 18.636,23.00648 13,23.00648 C7.364,23.00648 2.7952,18.43768 2.7952,12.80168 C2.7952,7.16568 7.364,2.59688 13,2.59688 Z" id="Fill-1"></path>
                <path d="M12.3736,7.4048 C11.33296,9.38916 8.53608,12.4892 8.2816,14.258 C8.095664,16.04392 9.1144,17.63612 10.66752,18.2002 L16.16752,18.2002 C19.39096,16.37364 16.83784,13.0222 15.801896,10.8314 L14.928456,11.9564 C14.037816,10.46108 13.212816,8.92672 12.375336,7.4048 L12.3736,7.4048 Z" id="Fill-2"></path>
            </g>
        </g>
        <g id="Page"></g>
    </g>
</svg>