<svg xmlns="http://www.w3.org/2000/svg" width="21.867" height="28" viewBox="0 0 21.867 28">
  <path id="icon_menstruacija" d="M35.107,13.224,32.434,12.1A6.915,6.915,0,0,0,30.683,7.18,6.517,6.517,0,0,0,25.922,5a6.664,6.664,0,0,0-6.782,7.1l-2.668,1.126a2.639,2.639,0,0,0-1.616,2.436v3.56a2.639,2.639,0,0,0,1.616,2.436L19.4,22.89l-.233,2.722a6.92,6.92,0,0,0,1.732,5.206A6.517,6.517,0,0,0,25.656,33h.13a6.664,6.664,0,0,0,6.643-7.231l-.246-2.878,2.924-1.234a2.639,2.639,0,0,0,1.616-2.436V15.66A2.639,2.639,0,0,0,35.107,13.224Zm.683,6A1.708,1.708,0,0,1,34.744,20.8l-3.236,1.366a.467.467,0,0,0-.284.47l.275,3.216a5.73,5.73,0,0,1-5.825,6.217,5.593,5.593,0,0,1-4.086-1.872,5.983,5.983,0,0,1-1.5-4.5l.261-3.059a.467.467,0,0,0-.284-.47L16.835,20.8a1.708,1.708,0,0,1-1.046-1.576V15.66a1.708,1.708,0,0,1,1.046-1.576l2.979-1.257a.467.467,0,0,0,.284-.469l-.017-.206a5.73,5.73,0,0,1,5.713-6.218H25.9a5.593,5.593,0,0,1,4.085,1.871,5.984,5.984,0,0,1,1.5,4.5l0,.051a.467.467,0,0,0,.284.468l2.979,1.257A1.708,1.708,0,0,1,35.79,15.66Zm-5.26-7.071a4.751,4.751,0,0,0-4.74-5.076h0a4.751,4.751,0,0,0-4.74,5.076l.452,6.59a3.846,3.846,0,0,1,0,.523l-.452,6.59a4.751,4.751,0,1,0,9.479,0l-.452-6.59a3.791,3.791,0,0,1,0-.522Zm-1.383,7.176.452,6.59a3.817,3.817,0,1,1-7.617,0l.452-6.59a4.788,4.788,0,0,0,0-.65l-.452-6.59a3.818,3.818,0,1,1,7.617,0l-.452,6.589A4.741,4.741,0,0,0,29.146,19.325Zm-2.028-2.887a1.727,1.727,0,0,0-1.328.415,1.728,1.728,0,0,0-1.328-.415A1.786,1.786,0,0,0,22.846,18.3c.049.913.565,2.214,2.747,3.223a.467.467,0,0,0,.392,0c2.183-1.009,2.7-2.31,2.747-3.223A1.786,1.786,0,0,0,27.118,16.438Zm-1.328,4.149c-1.269-.631-1.963-1.434-2.011-2.332a.854.854,0,0,1,.777-.889.864.864,0,0,1,.849.447.485.485,0,0,0,.77,0,.887.887,0,0,1,.849-.447.854.854,0,0,1,.777.889C27.753,19.152,27.059,19.955,25.789,20.587Z" transform="translate(-14.856 -4.999)" fill="#1d89e6"/>
</svg>
