<svg xmlns="http://www.w3.org/2000/svg" width="333.132" height="290.932" viewBox="0 0 333.132 290.932">
  <g id="microscope" transform="translate(-0.106)" style="isolation: isolate">
    <g id="Layer_2" data-name="Layer 2" transform="translate(0.106 3)">
      <g id="Layer_1" data-name="Layer 1" transform="translate(0 0)">
        <path id="Path_1892" data-name="Path 1892" d="M220.8,90.44A69.2,69.2,0,1,0,85.031,79.259,87.583,87.583,0,1,0,164.8,208.337a87.609,87.609,0,1,0,56.06-117.9Z" transform="translate(-0.106 -2.856)" fill="#e8f5ff" style="mix-blend-mode: multiply;isolation: isolate"/>
        <rect id="Rectangle_400" data-name="Rectangle 400" width="42.46" height="85.306" transform="translate(183.677 29.838)" fill="#c9e8ff"/>
        <path id="Path_1893" data-name="Path 1893" d="M142.86,46.414V29.3A3.641,3.641,0,0,1,146.5,25.66H181.64a3.641,3.641,0,0,1,3.641,3.641V47.482" transform="translate(40.817 3.496)" fill="none" stroke="#0389ec" stroke-miterlimit="10" stroke-width="6"/>
        <path id="Path_1894" data-name="Path 1894" d="M185.32,74.7V97.59a3.641,3.641,0,0,1-3.68,3.641H146.5a3.641,3.641,0,0,1-3.641-3.641V77.466" transform="translate(40.817 17.554)" fill="none" stroke="#0389ec" stroke-miterlimit="10" stroke-width="6"/>
        <path id="Path_1895" data-name="Path 1895" d="M158.562,95.33h22.272l-3.551,12.3a9.7,9.7,0,0,1-9.315,7h-9.431a9.7,9.7,0,0,1-9.315-7l-3.552-12.3Z" transform="translate(41.622 23.468)" fill="#c9e8ff" stroke="#0389ec" stroke-miterlimit="10" stroke-width="6"/>
        <path id="Path_1896" data-name="Path 1896" d="M0,0H29.156V19.557a9.6,9.6,0,0,1-9.6,9.6H9.6a9.6,9.6,0,0,1-9.6-9.6Z" transform="translate(219.523 29.156) rotate(180)" fill="#c9e8ff" stroke="#0389ec" stroke-miterlimit="10" stroke-width="6"/>
        <path id="Path_1897" data-name="Path 1897" d="M41.71,164.5A106.793,106.793,0,0,0,137.9,224.847h62.661a13.754,13.754,0,0,0,13.754-13.755V151.507H167.495v14.025a9.418,9.418,0,0,1-11.168,9.315,55.828,55.828,0,0,1-38.175-28.667" transform="translate(11.82 38.045)" fill="#c9e8ff" stroke="#0389ec" stroke-miterlimit="10" stroke-width="6"/>
        <path id="Path_1899" data-name="Path 1899" d="M117.266,119.55a54.966,54.966,0,0,1,49.382-30.88,22.479,22.479,0,0,0,5.211-.6,23.16,23.16,0,0,0,0-45.111,22.478,22.478,0,0,0-5.211-.6H137.9a106.961,106.961,0,0,0-96.2,60.345h0" transform="translate(11.817 8.28)" fill="#c9e8ff" stroke="#0389ec" stroke-miterlimit="10" stroke-width="6"/>
        <circle id="Ellipse_36" data-name="Ellipse 36" cx="54.902" cy="54.902" r="54.902" transform="translate(27.913 101.209)" fill="#b5dfff" stroke="#0389ec" stroke-miterlimit="10" stroke-width="6"/>
        <path id="Path_1905" data-name="Path 1905" d="M27.882,0A27.882,27.882,0,1,1,0,27.882,27.882,27.882,0,0,1,27.882,0Z" transform="translate(54.933 128.229)" fill="#007fe2" stroke="#0389ec" stroke-width="6"/>
        <circle id="Ellipse_38" data-name="Ellipse 38" cx="6.215" cy="6.215" r="6.215" transform="translate(173.525 65.401)" fill="#0389ec"/>
        <rect id="Rectangle_401" data-name="Rectangle 401" width="87.493" height="16.727" rx="6.5" transform="translate(246.221 189.552) rotate(180)" fill="#c9e8ff" stroke="#0389ec" stroke-miterlimit="10" stroke-width="6"/>
        <path id="Path_1900" data-name="Path 1900" d="M0,0H94.776A22.028,22.028,0,0,1,72.748,22.028H22.028A22.028,22.028,0,0,1,0,0Z" transform="translate(218.339 284.932) rotate(180)" fill="#c9e8ff" stroke="#0389ec" stroke-miterlimit="10" stroke-width="6"/>
        <path id="Path_1901" data-name="Path 1901" d="M39.083,35.725h-.54A3.242,3.242,0,0,1,35.3,32.483v-.54A3.242,3.242,0,0,0,32.058,28.7h0a3.242,3.242,0,0,0-3.242,3.242v.54a3.242,3.242,0,0,1-3.242,3.242h-.54a3.242,3.242,0,0,0-3.242,3.242h0a3.242,3.242,0,0,0,3.242,3.242h.54a3.242,3.242,0,0,1,3.242,3.242v.54a3.242,3.242,0,0,0,3.242,3.242h0A3.242,3.242,0,0,0,35.3,45.993v-.54a3.242,3.242,0,0,1,3.242-3.242h.54a3.242,3.242,0,0,0,3.242-3.242h0a3.242,3.242,0,0,0-3.242-3.242Z" transform="translate(6.11 4.367)" fill="#0389ec"/>
        <path id="Path_1902" data-name="Path 1902" d="M208.747,115.405h-.54a3.242,3.242,0,0,1-3.242-3.242v-.54a3.242,3.242,0,0,0-3.242-3.242h0a3.242,3.242,0,0,0-3.242,3.242v.54a3.242,3.242,0,0,1-3.242,3.242h-.515a3.242,3.242,0,0,0-3.242,3.242h0a3.242,3.242,0,0,0,3.242,3.242h.54a3.242,3.242,0,0,1,3.242,3.242v.54a3.242,3.242,0,0,0,3.242,3.242h0a3.242,3.242,0,0,0,3.242-3.242v-.54a3.242,3.242,0,0,1,3.242-3.242h.54a3.242,3.242,0,0,0,3.242-3.242h0a3.242,3.242,0,0,0-3.268-3.242Z" transform="translate(54.754 27.209)" fill="#0389ec"/>
        <path id="Path_1903" data-name="Path 1903" d="M43.895,199.169h-.437a2.651,2.651,0,0,1-2.651-2.651v-.437a2.651,2.651,0,0,0-2.651-2.651h0a2.651,2.651,0,0,0-2.651,2.651v.437a2.651,2.651,0,0,1-2.651,2.651h-.437a2.651,2.651,0,0,0-2.638,2.715h0a2.651,2.651,0,0,0,2.638,2.573h.437a2.651,2.651,0,0,1,2.651,2.651v.437a2.651,2.651,0,0,0,2.651,2.651h0a2.65,2.65,0,0,0,2.651-2.651v-.437a2.651,2.651,0,0,1,2.651-2.651h.437a2.651,2.651,0,0,0,2.638-2.573h0a2.651,2.651,0,0,0-2.638-2.715Z" transform="translate(8.4 51.59)" fill="#0389ec"/>
        <circle id="Ellipse_39" data-name="Ellipse 39" cx="4.542" cy="4.542" r="4.542" transform="translate(221.302 76.719) rotate(-86.1)" fill="#0389ec"/>
        <line id="Line_8" data-name="Line 8" y2="38.394" transform="translate(212.858 29.259)" fill="none" stroke="#0389ec" stroke-miterlimit="10" stroke-width="6"/>
        <line id="Line_9" data-name="Line 9" y2="5.353" transform="translate(212.858 73.443)" fill="none" stroke="#0389ec" stroke-miterlimit="10" stroke-width="6"/>
        <path id="Path_1904" data-name="Path 1904" d="M169.628,184.32V194.2a6.433,6.433,0,0,1-6.433,6.433h-12" transform="translate(43.204 48.979)" fill="none" stroke="#0389ec" stroke-linecap="round" stroke-miterlimit="10" stroke-width="6"/>
      </g>
    </g>
    <circle id="Ellipse_45" data-name="Ellipse 45" cx="3.4" cy="3.4" r="3.4" transform="translate(74.449 144.553)" fill="#ff9600"/>
    <circle id="Ellipse_46" data-name="Ellipse 46" cx="7.86" cy="7.86" r="7.86" transform="translate(84.369 154.333)" fill="#00e7ca"/>
    <circle id="Ellipse_47" data-name="Ellipse 47" cx="4.22" cy="4.22" r="4.22" transform="translate(67.659 161.613)" fill="#fff"/>
  </g>
</svg>
