<?xml version="1.0" encoding="UTF-8"?>
<svg width="40px" height="26px" viewBox="0 0 40 26" version="1.1" xmlns="http://www.w3.org/2000/svg" xmlns:xlink="http://www.w3.org/1999/xlink">
    <!-- Generator: sketchtool 52.6 (67491) - http://www.bohemiancoding.com/sketch -->
    <title>5A25FBC6-8161-48C6-BD9B-1DCD5168904D</title>
    <desc>Created with sketchtool.</desc>
    <g id="Main_nav" stroke="none" stroke-width="1" fill="none" fill-rule="evenodd">
        <g id="Grupe-Analiza" transform="translate(-187.000000, -2920.000000)" fill="#974D01">
            <path d="M201.258719,2945.99955 C199.784556,2945.99955 198.703274,2945.67422 197.963542,2945.02 C197.268028,2944.40664 196.922943,2943.54442 196.935357,2942.45819 C196.940666,2942.05107 197.016764,2941.52839 197.096401,2940.97196 C197.190194,2940.32483 197.305227,2939.52127 197.252135,2939.14261 C197.179575,2938.62173 196.618597,2937.17637 196.190288,2936.16123 C192.988891,2936.76744 190.440695,2937.09991 188.757634,2935.89278 C187.835596,2935.23145 187.287004,2934.19141 187.079963,2932.7176 C186.68001,2929.86069 187.789612,2926.98084 190.201714,2924.60922 C192.550117,2922.30164 195.870212,2920.74427 199.551202,2920.22516 C206.748727,2919.20825 212.503756,2921.6972 214.183194,2926.45118 C215.590125,2926.22006 217.09437,2926.24673 218.598615,2926.54007 C223.960855,2927.58543 227.682619,2931.75617 226.894774,2935.83812 C226.691257,2936.89768 226.227574,2937.66392 225.521504,2938.11726 C224.279164,2938.91194 222.562577,2938.62927 220.422936,2938.11371 C220.09731,2938.80171 219.734535,2939.63908 219.681438,2939.94838 C219.642503,2940.16883 219.695595,2940.69682 219.73453,2941.08262 C219.773465,2941.46485 219.808857,2941.82574 219.798237,2942.11729 C219.761074,2943.13775 219.297396,2943.71553 218.915162,2944.02132 C218.117033,2944.65776 216.887061,2944.80176 215.149226,2944.464 C213.388376,2944.12088 212.301748,2943.52531 211.797418,2942.6382 C211.556738,2942.21153 211.339073,2941.50218 211.680619,2940.5386 C211.779723,2940.25949 211.949614,2939.92884 212.128354,2939.58035 C212.314175,2939.2159 212.57078,2938.71813 212.613248,2938.4959 C212.664569,2938.23101 212.645106,2937.38477 212.595552,2936.59009 C210.418807,2936.26298 208.721656,2935.88252 207.866669,2934.67719 C207.840125,2934.63985 207.815348,2934.60252 207.790571,2934.56519 C207.576435,2934.59007 207.36407,2934.61319 207.151687,2934.63274 C207.017187,2935.75634 206.877382,2937.34566 206.965867,2937.89148 C207.024269,2938.26304 207.346352,2938.96173 207.602938,2939.52349 C207.831232,2940.02129 208.047135,2940.48884 208.162177,2940.87282 C208.475417,2941.90926 208.381623,2942.83374 207.886105,2943.61595 C207.14814,2944.77864 205.601399,2945.51111 203.157222,2945.856 C202.461707,2945.95022 201.829936,2946 201.25833,2946 L201.258719,2945.99955 Z M197.77947,2935.85361 C198.14934,2936.74783 198.720943,2938.21099 198.821836,2938.92033 C198.906782,2939.523 198.782901,2940.37635 198.66433,2941.19947 C198.595313,2941.67948 198.524525,2942.1737 198.520982,2942.47594 C198.513906,2943.08393 198.674945,2943.52485 199.011177,2943.82172 C199.458912,2944.21817 200.495941,2944.61818 202.892141,2944.28039 C205.337859,2943.9355 206.22628,2943.2617 206.546582,2942.75502 C206.787263,2942.37812 206.819116,2941.91232 206.642148,2941.33278 C206.557202,2941.05544 206.355456,2940.61455 206.160788,2940.18788 C205.831623,2939.46966 205.490055,2938.72654 205.396274,2938.13985 C205.275936,2937.38963 205.42459,2935.76291 205.536079,2934.77271 L205.534308,2934.77271 C204.353899,2934.87048 203.132807,2934.97182 201.639164,2935.18338 C200.292397,2935.3736 199.014674,2935.61361 197.779447,2935.85363 L197.77947,2935.85361 Z M214.1951,2936.81719 C214.230496,2937.48744 214.253502,2938.35676 214.166785,2938.79768 C214.081839,2939.24213 213.803995,2939.7826 213.53678,2940.30703 C213.389894,2940.59503 213.235931,2940.89372 213.17222,2941.07327 C213.020024,2941.49994 213.09966,2941.7204 213.17222,2941.84838 C213.317334,2942.10438 213.802224,2942.57907 215.41973,2942.89374 C217.070852,2943.21552 217.697323,2942.95596 217.925612,2942.77285 C218.040645,2942.68218 218.194608,2942.50796 218.210537,2942.05818 C218.217618,2941.87684 218.183993,2941.55327 218.153906,2941.24215 C218.099047,2940.68568 218.040645,2940.10968 218.116743,2939.67413 C218.199917,2939.20122 218.559168,2938.35857 218.849407,2937.72568 C218.106142,2937.54257 217.338094,2937.35946 216.534619,2937.20303 C215.731189,2937.0448 214.952496,2936.92569 214.19505,2936.81724 L214.1951,2936.81719 Z M209.011813,2933.46424 C209.047209,2933.56913 209.094987,2933.66336 209.155161,2933.74869 C209.742715,2934.57714 211.63454,2934.84562 213.823789,2935.15491 C214.742247,2935.2847 215.782846,2935.43225 216.83758,2935.63848 C217.892313,2935.8447 218.913431,2936.09892 219.812454,2936.32293 C221.95735,2936.85806 223.810213,2937.32027 224.665018,2936.77271 C224.995954,2936.56116 225.21361,2936.1558 225.333984,2935.53356 C225.955154,2932.31397 222.796208,2928.98078 218.292307,2928.1024 C216.761513,2927.80373 215.241321,2927.81973 213.862751,2928.13262 C213.850364,2928.13618 213.837974,2928.13973 213.825587,2928.14329 C213.80081,2928.1504 213.777805,2928.15395 213.754799,2928.15751 C213.167245,2928.29973 212.60624,2928.49529 212.082429,2928.7442 C210.383511,2929.55308 209.288048,2930.8331 208.99606,2932.34605 C208.911115,2932.78873 208.912886,2933.14961 209.003142,2933.43583 C209.00668,2933.4465 209.008447,2933.45539 209.01199,2933.46427 L209.011813,2933.46424 Z M202.66556,2921.59204 C201.738222,2921.59204 200.770201,2921.66137 199.768564,2921.80182 C196.42029,2922.27473 193.415515,2923.67563 191.307497,2925.74678 C189.263494,2927.75572 188.318443,2930.15219 188.647625,2932.49527 C188.789202,2933.51396 189.127218,2934.20196 189.67581,2934.59664 C191.004863,2935.55134 193.808078,2935.00376 197.053647,2934.37264 C198.441097,2934.10241 199.876343,2933.82331 201.419505,2933.6064 C202.957366,2933.38951 204.201472,2933.2864 205.404896,2933.18506 C206.068516,2933.12995 206.705633,2933.07661 207.349818,2933.00728 C207.344508,2932.70506 207.374595,2932.38327 207.440073,2932.04548 C207.831178,2930.02235 209.238118,2928.34055 211.402449,2927.3077 C211.793554,2927.12103 212.204112,2926.95926 212.625308,2926.82414 C211.363488,2923.53341 207.595603,2921.59211 202.665569,2921.59211 L202.66556,2921.59204 Z M223.37832,2935.94964 C222.951819,2935.94964 222.599627,2935.61008 222.587259,2935.17986 C222.539476,2933.67938 221.767882,2932.27315 220.576872,2931.50869 C220.207001,2931.27225 220.099045,2930.77978 220.336192,2930.40822 C220.571562,2930.03843 221.061789,2929.9282 221.429888,2930.16644 C223.056228,2931.21002 224.107474,2933.1105 224.172939,2935.12813 C224.187096,2935.56725 223.843774,2935.93524 223.406658,2935.94948 L223.378343,2935.94948 L223.37832,2935.94964 Z M190.874159,2932.43668 C190.856463,2932.43668 190.836996,2932.43668 190.8193,2932.4349 C190.382184,2932.40468 190.05302,2932.02423 190.083102,2931.5851 C190.408728,2926.81865 194.908937,2922.9415 200.117141,2922.9415 C200.556028,2922.9415 200.90997,2923.29884 200.90997,2923.73796 C200.90997,2924.17708 200.556028,2924.53442 200.117141,2924.53442 C195.726501,2924.53442 191.934244,2927.74691 191.665135,2931.69342 C191.635053,2932.11476 191.286417,2932.43654 190.874073,2932.43654 L190.874159,2932.43668 Z" id="mikologija"></path>
        </g>
        <g id="Page"></g>
    </g>
</svg>