<?xml version="1.0" encoding="UTF-8"?>
<svg width="36px" height="40px" viewBox="0 0 36 40" version="1.1" xmlns="http://www.w3.org/2000/svg" xmlns:xlink="http://www.w3.org/1999/xlink">
    <!-- Generator: sketchtool 52.6 (67491) - http://www.bohemiancoding.com/sketch -->
    <title>5A910081-17CA-4715-8A34-8196E73CD6F6</title>
    <desc>Created with sketchtool.</desc>
    <g id="Main_nav" stroke="none" stroke-width="1" fill="none" fill-rule="evenodd">
        <g id="Grupe-Analiza" transform="translate(-190.000000, -3034.000000)" fill="#63DCDC">
            <g id="mikroelementi" transform="translate(190.000000, 3034.000000)">
                <path d="M34.3328,36.3328004 L28.1656,36.3328004 C29.4156,35.4156 30.4984,34.3328 31.3328,33.1656 C33,30.8328 33.9156,28.0828 33.9156,25.3328 C33.9156,19 29.2484,13.5828 22.8328,11.75 L22.8328,15.1672 C27.4156,16.8344 30.6656,20.75 30.6656,25.3344 C30.6656,27.4172 29.9984,29.5016 28.6656,31.2516 C26.3328,34.5016 22.3328,36.4187996 17.9156,36.4187996 L1.6672008,36.4172372 C0.7500008,36.4172372 7.99999725e-07,37.1672372 7.99999725e-07,38.0844372 C7.99999725e-07,39.0016372 0.7500008,39.7516374 1.6672008,39.7516374 L34.3344,39.7516374 C35.2516,39.7516374 36.0016,39.0016372 36.0016,38.0844372 C36.00004,37.1672372 35.25004,36.3328772 34.33284,36.3328772 L34.3328,36.3328004 Z" id="Fill-1"></path>
                <path d="M9.9172,33 L18.9172,33 C19.8344,33 20.5844,32.25 20.5844,31.3328 C20.5844,30.4156 19.8344,29.6656 18.9172,29.6656 L9.9172,29.667164 C9,29.667164 8.25,30.417164 8.25,31.334364 C8.25,32.250004 9.0828,33.000004 9.9172,33.000004 L9.9172,33 Z" id="Fill-2"></path>
                <path d="M10.9172,21.5 L13.0844,21.5 L13.0844,24.9172 C13.0844,25.8344 13.8344,26.5844 14.7516,26.5844 C15.6688,26.5844 16.4188,25.8344 16.4188,24.9172 L16.4188,21.5 L18.086,21.5 C19.0032,21.5 19.7532,20.75 19.7532,19.8328 L19.750076,6.8328 C19.750076,5.9156 19.000076,5.1656 18.082876,5.1656 L11.000076,5.1656 C10.082876,5.1656 9.332876,5.9156 9.332876,6.8328 L9.332876,19.8328 C9.332876,20.75 10.000076,21.5 10.917236,21.5 L10.9172,21.5 Z" id="Fill-3"></path>
                <path d="M12.0828,3.6672 L16.9156,3.6672 C17.8328,3.6672 18.5828,2.9172 18.5828,2 C18.5828,1.0828 17.8328,0.3328 16.9156,0.3328 L12.0828,0.3328 C11.1656,0.3328 10.4156,1.0828 10.4156,2 C10.417164,2.9172 11.16716,3.6672 12.0828,3.6672 Z" id="Fill-4"></path>
            </g>
        </g>
        <g id="Page"></g>
    </g>
</svg>