<svg xmlns="http://www.w3.org/2000/svg" width="18.633" height="23.809" viewBox="0 0 18.633 23.809">
  <path id="icon_opstina" d="M6,24.809V10.834a2.07,2.07,0,0,1,2.07-2.07h0V6.693A1.036,1.036,0,0,1,9.105,5.658h1.035V1.518a.518.518,0,0,1,1.035,0V5.658h1.035a1.036,1.036,0,0,1,1.035,1.035v2.07h0a2.07,2.07,0,0,1,2.07,2.07v4.141h3.623V11.869h2.07V10.316h3.105v1.553h.518V24.809Zm6.211-17.6a.517.517,0,0,0-.518-.518H9.623a.517.517,0,0,0-.518.518V8.764h3.105Zm2.07,3.623A1.036,1.036,0,0,0,13.246,9.8H8.07a1.036,1.036,0,0,0-1.035,1.035V23.773h7.246Zm4.658,5.176H15.316v7.764h3.623ZM23.6,12.9H19.975V23.773H23.6Zm-2.07,1.553h.518a.517.517,0,0,1,.518.518v.518a.517.517,0,0,1-.518.518h-.518a.517.517,0,0,1-.518-.518v-.518A.517.517,0,0,1,21.527,14.457Zm0,3.105h.518a.517.517,0,0,1,.518.518V18.6a.517.517,0,0,1-.518.518h-.518a.517.517,0,0,1-.518-.518V18.08A.517.517,0,0,1,21.527,17.563Zm0,3.105h.518a.517.517,0,0,1,.518.518V21.7a.517.517,0,0,1-.518.518h-.518a.517.517,0,0,1-.518-.518v-.518A.517.517,0,0,1,21.527,20.668Zm-4.658-3.105h.518a.517.517,0,0,1,.518.518V18.6a.517.517,0,0,1-.518.518h-.518a.517.517,0,0,1-.518-.518V18.08A.517.517,0,0,1,16.869,17.563Zm0,3.105h.518a.517.517,0,0,1,.518.518V21.7a.517.517,0,0,1-.518.518h-.518a.517.517,0,0,1-.518-.518v-.518A.517.517,0,0,1,16.869,20.668Zm-4.658,1.553h-.518a.517.517,0,0,1-.518-.518v-.518a.517.517,0,0,1,.518-.518h.518a.517.517,0,0,1,.518.518V21.7A.517.517,0,0,1,12.211,22.221Zm0-3.105h-.518a.517.517,0,0,1-.518-.518V18.08a.517.517,0,0,1,.518-.518h.518a.517.517,0,0,1,.518.518V18.6A.517.517,0,0,1,12.211,19.115Zm0-3.105h-.518a.517.517,0,0,1-.518-.518v-.518a.517.517,0,0,1,.518-.518h.518a.517.517,0,0,1,.518.518v.518A.517.517,0,0,1,12.211,16.01Zm0-3.105h-.518a.517.517,0,0,1-.518-.518v-.518a.517.517,0,0,1,.518-.518h.518a.517.517,0,0,1,.518.518v.518A.517.517,0,0,1,12.211,12.9ZM9.623,22.221H9.105a.517.517,0,0,1-.518-.518v-.518a.517.517,0,0,1,.518-.518h.518a.517.517,0,0,1,.518.518V21.7A.517.517,0,0,1,9.623,22.221Zm0-3.105H9.105a.517.517,0,0,1-.518-.518V18.08a.517.517,0,0,1,.518-.518h.518a.517.517,0,0,1,.518.518V18.6A.517.517,0,0,1,9.623,19.115Zm0-3.105H9.105a.517.517,0,0,1-.518-.518v-.518a.517.517,0,0,1,.518-.518h.518a.517.517,0,0,1,.518.518v.518A.517.517,0,0,1,9.623,16.01Zm0-3.105H9.105a.517.517,0,0,1-.518-.518v-.518a.517.517,0,0,1,.518-.518h.518a.517.517,0,0,1,.518.518v.518A.517.517,0,0,1,9.623,12.9Z" transform="translate(-6 -1)" fill="#1d88e5" fill-rule="evenodd"/>
</svg>
