<?xml version="1.0" encoding="UTF-8"?>
<svg width="29px" height="40px" viewBox="0 0 29 40" version="1.1" xmlns="http://www.w3.org/2000/svg" xmlns:xlink="http://www.w3.org/1999/xlink">
    <!-- Generator: sketchtool 52.6 (67491) - http://www.bohemiancoding.com/sketch -->
    <title>5D16133A-D4C0-417E-B208-68A20FE847CA</title>
    <desc>Created with sketchtool.</desc>
    <g id="Main_nav" stroke="none" stroke-width="1" fill="none" fill-rule="evenodd">
        <g id="Grupe-Analiza" transform="translate(-194.000000, -3094.000000)" fill="#FFD03A">
            <g id="nabubrezna" transform="translate(194.000000, 3094.000000)">
                <path d="M23.7921429,22.2157143 C21.7050714,20.4579286 18.9902143,19.6375714 16.2778571,19.9445 L16.2136786,19.9445 L16.2136786,19.8998571 C16.1104429,19.4562214 15.8928071,19.0488571 15.5858857,18.714 C16.6852429,17.7848571 18.4848857,15.9126429 18.6773857,13.5577143 C18.7527214,12.5644286 18.5378786,11.5711429 18.0579643,10.7005714 L17.8570714,10.39365 C18.6745714,10.2095 19.3805,9.69052143 19.7990714,8.96507857 C21.2276429,6.43715 17.3772143,2.25193571 15.0139286,0.815078571 C12.4218571,-0.764135714 8.90621429,0.307264286 4.29964286,4.07122143 C1.049075,6.70793571 -0.365496429,9.62086429 0.214789286,12.5005071 C0.410103571,13.2315071 0.990432143,13.7979357 1.72986071,13.9709357 L1.85263214,14.0072071 L1.78845786,14.1355571 C1.59593643,14.53455 1.43968643,14.9224143 1.289015,15.3074143 L1.28622429,15.3074143 C-0.728275714,20.2376286 0.00829571429,25.8681286 3.22258143,30.1145571 C5.13107857,32.3746286 7.96307857,33.6441286 10.9204357,33.5715571 C11.3445429,33.5715571 11.7658643,33.54645 12.1843643,33.4990143 C15.5214357,33.1279214 19.0845071,31.1915143 19.0845071,26.8639429 C19.0845071,25.0000857 17.5499357,23.0413714 15.9204357,22.1290143 C16.0041429,21.9392857 16.0711071,21.7439714 16.1269071,21.5430786 L16.17155,21.5430786 C18.5376214,21.2082571 20.9316214,21.8890643 22.7703357,23.4152929 C26.0264786,26.21665 27.3713357,31.7302929 26.77705,39.8074357 L28.3284071,39.9218357 C28.97015,31.3061214 27.4439071,25.3568357 23.79155,22.2154071 L23.7921429,22.2157143 Z M17.5337857,26.8502143 C17.5337857,31.0131429 13.3122143,31.8 12.012,31.9422857 C8.96792857,32.2771071 6.06892857,31.228 4.43414286,29.1492857 L4.43693571,29.1492857 C1.57143214,25.3295 0.926860714,20.285 2.73493214,15.865 C2.93861786,15.3237071 3.17578214,14.7991429 3.44921786,14.2941429 L3.54129643,14.1295214 L3.54408714,14.1295214 C5.57815714,13.8449214 7.46151429,12.8962357 8.90122857,11.4286643 C11.9592286,8.57152143 14.3309429,10.1060929 14.4508714,10.1925929 L14.5569,10.2651357 L14.68525,10.3014071 C15.1428357,10.4213857 15.6088214,10.4967214 16.0803214,10.5274143 L16.3091143,10.8287571 L16.3063286,10.8287571 C16.8950571,11.5653286 17.1936143,12.4944714 17.1434,13.4347571 C16.9369286,16.0212571 13.9291143,18.0553286 13.9011857,18.0692571 L12.8214,18.7835429 L13.9569714,19.3973857 L13.9569714,19.4001786 C14.3196929,19.5592214 14.5959214,19.8689286 14.7075429,20.2511786 C14.7661357,20.8789714 14.5987286,21.5095357 14.2304214,22.0201786 L13.5719357,22.85725 L14.5792214,23.1864929 C15.9017929,23.6273429 17.5367929,25.4297786 17.5367929,26.8499929 L17.5337857,26.8502143 Z" id="Fill-1"></path>
            </g>
        </g>
        <g id="Page"></g>
    </g>
</svg>