<svg xmlns="http://www.w3.org/2000/svg" width="21.485" height="18.006" viewBox="0 0 21.485 18.006">
  <g id="icon_ime" transform="translate(-2.5 -10.2)">
    <path id="Path_1221" data-name="Path 1221" d="M21.094,13.815H15.784V11.962A1.764,1.764,0,0,0,14.022,10.2H12.463A1.764,1.764,0,0,0,10.7,11.962v1.853H5.369A2.873,2.873,0,0,0,2.5,16.684v8.653a2.873,2.873,0,0,0,2.869,2.869H21.116a2.873,2.873,0,0,0,2.869-2.869V16.684A2.907,2.907,0,0,0,21.094,13.815Zm-8.969-1.853a.347.347,0,0,1,.339-.339h1.559a.347.347,0,0,1,.339.339v1.853H12.124ZM22.539,25.314a1.441,1.441,0,0,1-1.446,1.446H5.369a1.441,1.441,0,0,1-1.446-1.446v-8.63a1.441,1.441,0,0,1,1.446-1.446H21.116a1.441,1.441,0,0,1,1.446,1.446v8.63Z" fill="#1d88e5"/>
    <path id="Path_1222" data-name="Path 1222" d="M58.007,40.5H52.223a.723.723,0,1,0,0,1.446h5.806a.728.728,0,0,0,.723-.723A.748.748,0,0,0,58.007,40.5Z" transform="translate(-37.93 -23.455)" fill="#1d88e5"/>
    <path id="Path_1223" data-name="Path 1223" d="M58.007,54.8H52.223a.723.723,0,1,0,0,1.446h5.806a.728.728,0,0,0,.723-.723A.764.764,0,0,0,58.007,54.8Z" transform="translate(-37.93 -34.524)" fill="#1d88e5"/>
    <path id="Path_1224" data-name="Path 1224" d="M58.007,69.2H52.223a.728.728,0,0,0-.723.723.714.714,0,0,0,.723.723h5.806a.723.723,0,1,0-.023-1.446Z" transform="translate(-37.93 -45.67)" fill="#1d88e5"/>
    <path id="Path_1225" data-name="Path 1225" d="M20.26,58.455a2.572,2.572,0,0,1-1.717-.655A4.353,4.353,0,0,0,17.3,60.963c0,1.13,5.919,1.13,5.919,0A4.353,4.353,0,0,0,21.977,57.8,2.572,2.572,0,0,1,20.26,58.455Z" transform="translate(-11.456 -36.846)" fill="#1d88e5"/>
    <circle id="Ellipse_24" data-name="Ellipse 24" cx="1.898" cy="1.898" r="1.898" transform="translate(6.906 17.091)" fill="#1d88e5"/>
  </g>
</svg>
