<?xml version="1.0" encoding="UTF-8"?>
<svg width="24px" height="21px" viewBox="0 0 24 21" version="1.1" xmlns="http://www.w3.org/2000/svg" xmlns:xlink="http://www.w3.org/1999/xlink">
    <!-- Generator: sketchtool 52.5 (67469) - http://www.bohemiancoding.com/sketch -->
    <title>862C7BF0-78B5-4FD6-89E1-1E9D34CC7FF9</title>
    <desc>Created with sketchtool.</desc>
    <g id="Main_nav" stroke="none" stroke-width="1" fill="none" fill-rule="evenodd">
        <g id="Analiza-Page" transform="translate(-188.000000, -3098.000000)" fill="#FFFFFF">
            <path d="M200.000083,3098 C199.209837,3098 198.495113,3098.39429 198.083709,3099.09024 L188.30387,3115.65521 C187.892466,3116.3538 187.901598,3117.2125 188.314285,3117.90973 C188.684029,3118.53557 189.376623,3119.0013 190.168169,3118.99997 L209.831832,3118.99997 C210.623377,3119.00394 211.315972,3118.53557 211.685715,3117.90973 C212.098419,3117.21246 212.107517,3116.35377 211.69613,3115.65521 L201.916291,3099.09024 C201.504887,3098.39429 200.790163,3098 199.999917,3098 L200.000083,3098 Z M200.000083,3100.03226 C200.063877,3100.03226 200.182349,3100.11032 200.19797,3100.13811 L209.977809,3116.70308 C209.99343,3116.72954 209.99343,3116.83406 209.977809,3116.86185 C209.919225,3116.96108 209.895792,3116.9677 209.831998,3116.9677 L190.168335,3116.9677 C190.104542,3116.9677 190.081109,3116.96108 190.022524,3116.86185 C190.0069,3116.83539 190.0069,3116.72954 190.022524,3116.70308 L199.802364,3100.13811 C199.817985,3100.11032 199.936456,3100.03226 200.00025,3100.03226 L200.000083,3100.03226 Z M200.000083,3104.09679 C199.079657,3104.09679 198.333671,3104.85492 198.333671,3105.79034 L198.666954,3110.87099 C198.666954,3111.61985 199.263229,3112.22584 200.000083,3112.22584 C200.736938,3112.22584 201.333213,3111.61985 201.333213,3110.87099 L201.666496,3105.79034 C201.666496,3104.85492 200.920509,3104.09679 200.000083,3104.09679 Z M200.000083,3112.90326 C199.079657,3112.90326 198.333671,3113.66139 198.333671,3114.59681 C198.333671,3115.53222 199.079657,3116.29036 200.000083,3116.29036 C200.920509,3116.29036 201.666496,3115.53222 201.666496,3114.59681 C201.666496,3113.66139 200.920509,3112.90326 200.000083,3112.90326 Z" id="napomena"></path>
        </g>
        <g id="Page"></g>
    </g>
</svg>