<svg xmlns="http://www.w3.org/2000/svg" width="22.52" height="18.857" viewBox="0 0 22.52 18.857">
  <path id="icon_ciklus" d="M9.873,11.393h.547a.513.513,0,0,0,.342-.088.439.439,0,0,0,.1-.332v-.547a.458.458,0,0,0-.1-.337A.494.494,0,0,0,10.42,10H9.873a.354.354,0,0,0-.43.43v.547a.455.455,0,0,0,.093.332A.493.493,0,0,0,9.873,11.393Zm3.037,0h.547A.511.511,0,0,0,13.8,11.3a.455.455,0,0,0,.093-.332v-.547a.474.474,0,0,0-.093-.337A.492.492,0,0,0,13.457,10H12.91a.354.354,0,0,0-.43.43v.547a.455.455,0,0,0,.093.332A.493.493,0,0,0,12.91,11.393Zm3.047,0h.537a.532.532,0,0,0,.352-.088.439.439,0,0,0,.1-.332v-.547a.458.458,0,0,0-.1-.337A.512.512,0,0,0,16.494,10h-.537a.354.354,0,0,0-.43.43v.547a.455.455,0,0,0,.093.332A.493.493,0,0,0,15.957,11.393Zm-9.121,3h.537A.514.514,0,0,0,7.72,14.3a.443.443,0,0,0,.1-.337v-.537a.426.426,0,0,0-.1-.332A.535.535,0,0,0,7.373,13H6.836a.493.493,0,0,0-.337.088.455.455,0,0,0-.093.332v.537A.474.474,0,0,0,6.5,14.3.474.474,0,0,0,6.836,14.391Zm3.037,0h.547a.494.494,0,0,0,.342-.093.458.458,0,0,0,.1-.337v-.537a.439.439,0,0,0-.1-.332A.513.513,0,0,0,10.42,13H9.873a.493.493,0,0,0-.337.088.455.455,0,0,0-.093.332v.537a.354.354,0,0,0,.43.43Zm3.037,0h.547A.492.492,0,0,0,13.8,14.3a.474.474,0,0,0,.093-.337v-.537a.455.455,0,0,0-.093-.332A.511.511,0,0,0,13.457,13H12.91a.493.493,0,0,0-.337.088.455.455,0,0,0-.093.332v.537a.354.354,0,0,0,.43.43Zm-6.074,3h.537A.514.514,0,0,0,7.72,17.3a.443.443,0,0,0,.1-.337v-.547a.426.426,0,0,0-.1-.332.535.535,0,0,0-.347-.088H6.836a.493.493,0,0,0-.337.088.455.455,0,0,0-.093.332v.547A.474.474,0,0,0,6.5,17.3.474.474,0,0,0,6.836,17.389Zm3.037,0h.547a.494.494,0,0,0,.342-.093.458.458,0,0,0,.1-.337v-.547a.439.439,0,0,0-.1-.332.513.513,0,0,0-.342-.088H9.873a.493.493,0,0,0-.337.088.455.455,0,0,0-.093.332v.547a.354.354,0,0,0,.43.43Zm3.037,0h.547A.492.492,0,0,0,13.8,17.3a.474.474,0,0,0,.093-.337v-.547a.455.455,0,0,0-.093-.332.511.511,0,0,0-.347-.088H12.91a.493.493,0,0,0-.337.088.455.455,0,0,0-.093.332v.547a.354.354,0,0,0,.43.43Zm-10.557.586a2.954,2.954,0,0,0,.752,2.2,3.057,3.057,0,0,0,2.227.737h9.629a5.02,5.02,0,0,1-.4-.806,4.564,4.564,0,0,1-.244-.864H5.264a1.247,1.247,0,0,1-.913-.312,1.261,1.261,0,0,1-.317-.937V9.4a1.261,1.261,0,0,1,.317-.937,1.247,1.247,0,0,1,.913-.312h12.8a1.265,1.265,0,0,1,.918.313,1.25,1.25,0,0,1,.322.938v2.539q.215-.029.425-.049t.425-.02q.2,0,.405.02t.425.049V6.715a2.957,2.957,0,0,0-.752-2.2,3.045,3.045,0,0,0-2.227-.742H5.332a3.057,3.057,0,0,0-2.227.737,2.954,2.954,0,0,0-.752,2.2Zm17.8,4.658a4.449,4.449,0,0,0,1.812-.376,4.912,4.912,0,0,0,1.509-1.03A4.842,4.842,0,0,0,24.5,19.718a4.522,4.522,0,0,0,.371-1.821,4.6,4.6,0,0,0-.366-1.831,4.8,4.8,0,0,0-2.524-2.534,4.557,4.557,0,0,0-1.826-.371,4.5,4.5,0,0,0-1.831.376,4.955,4.955,0,0,0-1.509,1.025,4.783,4.783,0,0,0-1.025,1.5,4.7,4.7,0,0,0,0,3.662,4.868,4.868,0,0,0,2.534,2.534A4.546,4.546,0,0,0,20.156,22.633Zm-2.207-3.984a.617.617,0,0,1-.615-.615.581.581,0,0,1,.181-.425.592.592,0,0,1,.435-.181H19.59V15.2a.573.573,0,0,1,.176-.42.584.584,0,0,1,.43-.176.617.617,0,0,1,.439.176.559.559,0,0,1,.186.42v2.832a.588.588,0,0,1-.181.439.613.613,0,0,1-.444.176Z" transform="translate(-2.354 -3.775)" fill="#2680eb"/>
</svg>
