<?xml version="1.0" encoding="UTF-8"?>
<svg width="40px" height="33px" viewBox="0 0 40 33" version="1.1" xmlns="http://www.w3.org/2000/svg" xmlns:xlink="http://www.w3.org/1999/xlink">
    <!-- Generator: sketchtool 52.6 (67491) - http://www.bohemiancoding.com/sketch -->
    <title>C2A77B6C-E091-46DB-9E11-AF362521BF12</title>
    <desc>Created with sketchtool.</desc>
    <g id="Main_nav" stroke="none" stroke-width="1" fill="none" fill-rule="evenodd">
        <g id="Grupe-Analiza" transform="translate(-187.000000, -3151.000000)" fill="#78CE57">
            <g id="netolerancija" transform="translate(187.000000, 3151.000000)">
                <path d="M28.8245204,0.520163265 C29.5164796,-0.173387755 30.6405204,-0.173387755 31.3340714,0.520163265 C32.0260306,1.21212245 32.0260306,2.33616327 31.3340714,3.02971429 L23.1773367,11.1848163 C22.8313531,11.5323918 22.8313531,12.0936327 23.1773367,12.4395918 C23.5233204,12.7871673 24.0861531,12.7871673 24.4321122,12.4395918 L32.5888469,4.2844898 C33.2808061,3.59093878 34.4048469,3.59093878 35.098398,4.2844898 C35.7903571,4.97644898 35.7903571,6.1004898 35.098398,6.79404082 L26.9416633,14.9507755 C26.5956796,15.2967592 26.5956796,15.858 26.9416633,16.2039592 C27.2876469,16.5515347 27.8504796,16.5515347 28.1964388,16.2055551 L36.3531735,8.04882041 C37.0451327,7.35526939 38.1691735,7.35526939 38.8627245,8.04882041 C39.5546837,8.74237143 39.5546837,9.86482041 38.8627245,10.5583714 L30.079051,19.3420449 C28.691949,20.7291469 26.4438673,20.7291469 25.0582347,19.3420449 L23.8034592,18.0872694 L22.8723571,19.0183714 L20.3628061,16.5088204 L21.2939082,15.5777184 L20.0391327,14.3229429 C18.6536224,12.9374327 18.6536224,10.689351 20.0391327,9.30375918 L28.8245204,0.520163265 Z" id="Fill-1"></path>
                <path d="M15.3936327,22 L8.52016327,28.8734694 C7.82661224,29.5670204 7.82661224,30.6910612 8.52016327,31.3830204 C9.21212245,32.0765714 10.3361633,32.0765714 11.0297143,31.3830204 L17.9048163,24.509551 L15.3936327,22 Z" id="Fill-2"></path>
                <path d="M2.83521429,3.28371509 C-0.945071429,7.06400081 -0.945071429,13.1926947 2.83521429,16.9731028 L9.14909184,23.2886131 C9.87611224,24.0140416 11.054398,24.0140416 11.7814184,23.2886131 L15.4851735,19.584858 L27.6472143,31.7468988 C28.3407653,32.4404498 29.4648061,32.4404498 30.1567653,31.7468988 C30.8503163,31.0549396 30.8503163,29.9308988 30.1567653,29.2373477 L4.20329592,3.28387836 C4.01037347,3.09095591 3.7552551,2.9968906 3.50337837,3.00007836 C3.36626,3.0032702 3.22914163,3.03356407 3.10318653,3.09414775 C3.00592939,3.14038448 2.91504776,3.20415999 2.83532939,3.28387836 L2.83521429,3.28371509 Z M3.9210102,8.02044979 C3.12860204,10.1920008 3.60213265,12.720858 5.34480612,14.4633069 L10.4660306,19.5845314 L12.9755816,17.0749804 L3.9210102,8.02044979 Z" id="Fill-3"></path>
            </g>
        </g>
        <g id="Page"></g>
    </g>
</svg>