<svg xmlns:dc="http://purl.org/dc/elements/1.1/" xmlns:cc="http://creativecommons.org/ns#" xmlns:rdf="http://www.w3.org/1999/02/22-rdf-syntax-ns#" xmlns:svg="http://www.w3.org/2000/svg" xmlns="http://www.w3.org/2000/svg" xmlns:sodipodi="http://sodipodi.sourceforge.net/DTD/sodipodi-0.dtd" xmlns:inkscape="http://www.inkscape.org/namespaces/inkscape" version="1.1" x="0px" y="0px" viewBox="0 0 100 125"><g transform="translate(0,-952.36218)"><path style="text-indent:0;text-transform:none;direction:ltr;block-progression:tb;baseline-shift:baseline;color:#000000;enable-background:accumulate;" d="m 60.467797,1026.1579 a 1.0001,1.0001 0 0 0 -0.1344,1.9885 c 4.1997,0.71 7.735805,1.8463 10.139105,3.1887 2.4032,1.3425 3.5278,2.7991 3.5278,4.0872 0,1.1405 -0.5649,2.1424 -1.7816,3.1369 -1.2166,0.9944 -3.0667,1.8946 -5.334,2.6153 -4.534705,1.4414 -10.714105,2.1878 -16.884705,2.1878 -6.1706,0 -12.35,-0.7464 -16.8847,-2.1878 -2.2674,-0.7207 -4.1174,-1.6209 -5.3341,-2.6153 -1.2166,-0.9945 -1.7815,-1.9964 -1.7815,-3.1369 0,-1.2833 1.1056,-2.7275 3.4737,-4.0628 2.3681,-1.3353 5.8565,-2.4686 10.0063,-3.1835 a 1.0001,1.0001 0 1 0 -0.3394,-1.9709 c -4.3103,0.7425 -7.9771,1.9056 -10.6491,3.4122 -2.6719,1.5066 -4.4915,3.4498 -4.4915,5.805 0,1.8396 0.9978,3.445 2.5156,4.6856 1.5177,1.2406 3.5739,2.2032 5.994,2.9725 4.8404,1.5387 11.1612,2.2819 17.4907,2.2819 6.3295,0 12.6502,-0.7432 17.490605,-2.2819 2.4202,-0.7693 4.476301,-1.7319 5.9941,-2.9725 1.517701,-1.2406 2.515601,-2.846 2.515601,-4.6856 0,-2.3705 -1.8457,-4.3211 -4.5525,-5.8331 -2.7068,-1.512 -6.420605,-2.6778 -10.780905,-3.415 a 1.0001,1.0001 0 0 0 -0.1991,-0.016 z" fill="#000000" fill-opacity="1" fill-rule="evenodd" stroke="none" marker="none" visibility="visible" display="inline" overflow="visible"/><path style="text-indent:0;text-transform:none;direction:ltr;block-progression:tb;baseline-shift:baseline;color:#000000;enable-background:accumulate;" d="m 46.238097,979.27045 c -5.6377,0 -10.25,4.65449 -10.25,10.3125 l 0,20.31245 c 0,0.7883 0.5319,1.1875 1.0312,1.1875 l 6.8126,0 0,23.3438 c 1e-4,0.5236 0.4764,0.9999 1,1 l 10.3437,0 c 0.5236,-10e-5 0.9999,-0.4764 1,-1 l 0,-23.3438 6.8125,0 c 0.8277,0 1,-0.5586 1,-1.2187 l 0,-20.28125 c 0,-5.65803 -4.6124,-10.3125 -10.25,-10.3125 z m 0,2 7.5,0 c 4.5423,0 8.25,3.7387 8.25,8.3125 l 0,19.49995 -24,0 0,-19.49995 c 0,-4.57381 3.7076,-8.3125 8.25,-8.3125 z m -0.4062,29.81245 8.3437,0 0,22.3438 -8.3437,0 z" fill="#000000" fill-opacity="1" fill-rule="evenodd" stroke="none" marker="none" visibility="visible" display="inline" overflow="visible"/><path style="text-indent:0;text-transform:none;direction:ltr;block-progression:tb;baseline-shift:baseline;color:#000000;enable-background:accumulate;" d="m 49.999997,959.36202 c -4.4241,0 -8.03,3.62769 -8.03,8.06593 0,4.43824 3.6059,8.06562 8.03,8.06562 4.424,0 8.03,-3.62738 8.03,-8.06562 0,-4.43825 -3.606,-8.06593 -8.03,-8.06593 z m 0,2 c 3.336,0 6.03,2.70469 6.03,6.06593 0,3.36124 -2.694,6.06562 -6.03,6.06562 -3.3361,0 -6.03,-2.70438 -6.03,-6.06562 0,-3.36125 2.6939,-6.06593 6.03,-6.06593 z" fill="#000000" fill-opacity="1" fill-rule="evenodd" stroke="none" marker="none" visibility="visible" display="inline" overflow="visible"/></g><text x="0" y="115" fill="#000000" font-size="5px" font-weight="bold" font-family="'Helvetica Neue', Helvetica, Arial-Unicode, Arial, Sans-serif">Created by Royyan Razka</text><text x="0" y="120" fill="#000000" font-size="5px" font-weight="bold" font-family="'Helvetica Neue', Helvetica, Arial-Unicode, Arial, Sans-serif">from the Noun Project</text></svg>