<svg xmlns="http://www.w3.org/2000/svg" xmlns:xlink="http://www.w3.org/1999/xlink" version="1.1" x="0px" y="0px" viewBox="0 0 100 125" enable-background="new 0 0 100 100" xml:space="preserve"><path fill="#000000" d="M50,95.207L25.949,71.156c-8.438-7.068-13.312-17.509-13.312-28.586C12.637,21.968,29.398,5.207,50,5.207  S87.363,21.968,87.363,42.57c0,11.077-4.875,21.518-13.375,28.643L50,95.207z M50,7.154c-19.528,0-35.415,15.888-35.415,35.416  c0,10.5,4.621,20.396,12.679,27.15L50,92.453l22.674-22.674c8.12-6.813,12.741-16.709,12.741-27.209  C85.415,23.042,69.528,7.154,50,7.154z"/><path fill="#000000" d="M53.169,42.45H52.38c2.66-1.916,4.561-6.636,4.561-9.633c0-3.832-3.107-6.939-6.94-6.939  s-6.939,3.107-6.939,6.939c0,2.997,1.899,7.717,4.56,9.633h-0.788c-5.118,0-12.076,4.731-12.076,10.568v1.414  c0,0.924,0.749,1.673,1.673,1.673h27.143c0.924,0,1.673-0.749,1.673-1.673v-1.414C65.244,47.182,58.286,42.45,53.169,42.45z"/><text x="0" y="115" fill="#000000" font-size="5px" font-weight="bold" font-family="'Helvetica Neue', Helvetica, Arial-Unicode, Arial, Sans-serif">Created by Mert Güler</text><text x="0" y="120" fill="#000000" font-size="5px" font-weight="bold" font-family="'Helvetica Neue', Helvetica, Arial-Unicode, Arial, Sans-serif">from the Noun Project</text></svg>