<?xml version="1.0" encoding="UTF-8"?>
<svg width="22px" height="21px" viewBox="0 0 22 21" version="1.1" xmlns="http://www.w3.org/2000/svg" xmlns:xlink="http://www.w3.org/1999/xlink">
    <!-- Generator: sketchtool 52.5 (67469) - http://www.bohemiancoding.com/sketch -->
    <title>2B8C60D3-34C1-4581-9602-6202BF0C37E1</title>
    <desc>Created with sketchtool.</desc>
    <g id="Main_nav" stroke="none" stroke-width="1" fill="none" fill-rule="evenodd">
        <g id="Results" transform="translate(-1242.000000, -277.000000)">
            <g id="odabraneAnalize" transform="translate(1243.000000, 278.000000)" stroke="#4B4B4B">
                <path d="M18.4890909,7.5 C18.2431818,7.54882727 18.0833636,7.78852273 18.1322045,8.03445455 C18.2467295,8.60618182 18.3044341,9.18856818 18.3044341,9.77272727 C18.3044341,12.8577273 16.6584795,15.7093182 13.9862523,17.2522727 C11.3139795,18.7943636 8.02216136,18.7943636 5.34988864,17.2522727 C2.67761591,15.7092955 1.03170682,12.8577273 1.03170682,9.77272727 C1.03437045,6.73477273 2.63238864,3.92136364 5.24079773,2.36409091 C7.84920682,0.806022727 11.0842068,0.733227273 13.7589795,2.17232955 C13.9827023,2.29573182 14.2632523,2.21405455 14.3866386,1.99122045 C14.5091523,1.76749773 14.4283636,1.48694773 14.2046432,1.36356136 C11.7375977,0.0274477273 8.807825,-0.155438636 6.19418864,0.862856818 C3.57964318,1.88203864 1.54577955,3.99853864 0.633052045,6.65126591 C-0.279675455,9.30399318 0.0204838636,12.224675 1.45425682,14.6360386 C2.88802955,17.047175 5.31084773,18.7055841 8.07721136,19.1708111 C10.843575,19.6360157 13.6747114,18.8600841 15.818575,17.0499023 C17.9616886,15.2397205 19.2001659,12.5780841 19.2044841,9.77262955 C19.2035955,9.13253864 19.139675,8.49333409 19.0136114,7.865675 C19.0045371,7.62189167 18.829697,7.5 18.4890909,7.5 Z" id="Fill-2" stroke-width="0.5" fill="#4B4B4B"></path>
                <polyline id="Stroke-1" stroke-width="2" stroke-linecap="round" stroke-linejoin="round" points="20 2 9.53627487 12 6 8.46289899"></polyline>
            </g>
            <g id="Page"></g>
        </g>
        <g id="Page"></g>
    </g>
</svg>