<?xml version="1.0" encoding="utf-8"?>
<!-- Generator: Adobe Illustrator 23.0.1, SVG Export Plug-In . SVG Version: 6.00 Build 0)  -->
<svg version="1.1" id="Layer_1" xmlns="http://www.w3.org/2000/svg" xmlns:xlink="http://www.w3.org/1999/xlink" x="0px" y="0px"
	 viewBox="0 0 632.8 353.7" style="enable-background:new 0 0 632.8 353.7;" xml:space="preserve">
<style type="text/css">
	.st0{fill:#F0FEFA;}
	.st1{opacity:0.2;fill:#77F3CF;}
	.st2{opacity:0.8;}
	.st3{fill:#77F3CF;}
	.st4{fill:none;}
	.st5{fill:none;stroke:#77F3CF;stroke-width:4;stroke-miterlimit:10;}
	.st6{fill:#FFFFFF;}
	.st7{fill:#6D6F72;}
</style>
<path class="st0" d="M580,335.2H45.8c-16.6,0-30-13.4-30-30V50.7c0-16.6,13.4-24,30-24H580c16.6,0,30,7.4,30,24v254.5
	C610,321.8,596.6,335.2,580,335.2z"/>
<path class="st1" d="M291.8,334.2l89.1-72.3l124.9-17.3l102.3-62.9v131.2c0,11.8-9.6,21.3-21.3,21.3H291.8z"/>
<path class="st1" d="M333,334.2l77.4-34.3l108.7-8.2l89-29.8v49.8c0,12.5-10.1,22.5-22.5,22.5H333z"/>
<g class="st2">
	<path class="st3" d="M16.1,99.9V57.7c0-16.6,13.4-31,30-31H580c16.6,0,30,14.4,30,31v42.2"/>
	<line class="st4" x1="16.1" y1="99.9" x2="392.7" y2="99.9"/>
	<line class="st4" x1="16.1" y1="99.9" x2="15.9" y2="99.9"/>
</g>
<path class="st5" d="M580,335.2H45.8c-16.6,0-30-13.4-30-30V56.7c0-16.6,13.4-30,30-30H580c16.6,0,30,13.4,30,30v248.5
	C610,321.8,596.6,335.2,580,335.2z"/>
<line class="st5" x1="294.1" y1="26.6" x2="294.1" y2="335.2"/>
<line class="st5" x1="610" y1="99.9" x2="15.6" y2="99.9"/>
<line class="st5" x1="610" y1="157.9" x2="15.6" y2="157.9"/>
<line class="st5" x1="610" y1="215.9" x2="15.6" y2="215.9"/>
<line class="st5" x1="610" y1="273.9" x2="15.6" y2="273.9"/>
<g>
	<g>
		<g>
			<path class="st6" d="M39.2,70.5l-4.8-16.3h5.2l1.7,7.1c0.2,0.8,0.4,1.7,0.6,2.5c0.1,0.4,0.2,0.8,0.3,1.1c0.1-0.5,0.2-0.9,0.3-1.4
				c0.2-0.7,0.3-1.5,0.5-2.2l1.7-7.1h5l-4.8,16.3H39.2z"/>
			<path class="st3" d="M49.1,54.5l-4.6,15.6h-5l-4.6-15.6h4.4l1.6,6.8c0.4,1.7,0.7,3.3,1.2,4.9h0.1c0.4-1.7,0.7-3.3,1.2-4.9
				l1.6-6.8L49.1,54.5 M50.1,53.7h-1h-4.2h-0.6l-0.1,0.6l-1.6,6.8c-0.2,0.7-0.3,1.3-0.5,2c-0.2-0.7-0.3-1.3-0.5-2L40,54.3l-0.1-0.6
				h-0.6h-4.4h-1l0.3,1l4.6,15.6l0.2,0.5h0.6h5h0.6l0.2-0.5l4.6-15.6L50.1,53.7L50.1,53.7z"/>
		</g>
		<g>
			<path class="st6" d="M57.9,70.5l-2.7-5.2h-1v5.2h-4.9V54.1h6.3c4.3,0,6.6,1.9,6.6,5.4c0,2.1-0.8,3.7-2.4,4.6l3.5,6.3L57.9,70.5
				L57.9,70.5z M55.4,61.2c1.4,0,2.1-0.5,2.1-1.7c0-0.9-0.3-1.4-2.1-1.4h-1.1v3.1H55.4z"/>
			<path class="st3" d="M55.7,54.5c3.4,0,6.2,1.2,6.2,5c0,2.2-1,3.7-2.5,4.5l3.4,6.1h-4.6l-2.7-5.2h-1.6v5.2h-4.1V54.5L55.7,54.5
				 M53.9,61.6h1.5c1.6,0,2.5-0.7,2.5-2.1s-0.9-1.8-2.5-1.8h-1.5V61.6 M55.7,53.7h-5.9H49v0.8v15.6v0.8h0.8h4.1h0.8v-0.8v-4.5H55
				l2.5,4.8l0.2,0.4h0.5h4.6h1.3l-0.6-1.1l-3-5.4c1.5-1.1,2.3-2.7,2.3-4.8C62.7,55.8,60.2,53.7,55.7,53.7L55.7,53.7z M54.7,58.5h0.7
				c1.8,0,1.8,0.5,1.8,1c0,0.4,0,1.3-1.8,1.3h-0.7V58.5L54.7,58.5z"/>
		</g>
		<g>
			<polygon class="st6" points="63.9,70.5 63.9,54.1 74.7,54.1 74.7,58.3 68.8,58.3 68.8,60 73.9,60 73.9,64.2 68.8,64.2 68.8,66.3 
				75,66.3 75,70.5 			"/>
			<path class="st3" d="M74.4,54.5V58h-5.9v2.5h5.1v3.5h-5.1v2.8h6.2v3.5H64.3V54.5L74.4,54.5 M75.1,53.7h-0.8H64.3h-0.8v0.8v15.6
				v0.8h0.8h10.3h0.8v-0.8v-3.5v-0.8h-0.8h-5.4v-1.3h4.3h0.8v-0.7v-3.5v-0.8h-0.8h-4.3v-1h5.2h0.8V58v-3.5L75.1,53.7L75.1,53.7z"/>
		</g>
		<g>
			<path class="st6" d="M88.1,70.5v-5c0-0.7,0.1-1.7,0.2-2.6L88,63.8l-2,5.4h-2.7l-2-5.4L81,63.1c0.1,0.9,0.2,1.7,0.2,2.4v5h-4.4
				V54.1h5.1l2.4,6.6c0.2,0.5,0.3,1,0.5,1.5c0,0.1,0,0.1,0.1,0.2c0-0.1,0-0.1,0.1-0.2c0.2-0.5,0.3-1,0.4-1.5l2.3-6.6h5.1v16.3
				L88.1,70.5L88.1,70.5z"/>
			<path class="st3" d="M92.2,54.5v15.6h-3.7v-4.6c0-1.6,0.3-4,0.5-5.6h-0.1l-1.3,3.7l-1.9,5.2h-2.2l-1.9-5.2l-1.3-3.7h-0.1
				c0.2,1.6,0.5,4,0.5,5.6v4.6H77V54.5h4.4l2.3,6.4c0.3,0.9,0.5,1.8,0.8,2.7h0.1c0.3-0.9,0.5-1.9,0.8-2.7l2.3-6.4L92.2,54.5
				 M93,53.7h-0.8h-4.4h-0.5l-0.2,0.5l-2.3,6.4c-0.1,0.2-0.1,0.3-0.2,0.5c-0.1-0.2-0.1-0.3-0.2-0.5l-2.4-6.4L82,53.7h-0.5H77h-0.8
				v0.8v15.6v0.8H77h3.7h0.8v-0.8v-4.5l1.3,3.5l0.2,0.5h0.5h2.2h0.5l0.2-0.5l1.3-3.6v4.6v0.8h0.8h3.7h0.8v-0.8V54.5L93,53.7L93,53.7
				z"/>
		</g>
		<g>
			<polygon class="st6" points="94.7,70.5 94.7,54.1 105.5,54.1 105.5,58.3 99.6,58.3 99.6,60 104.7,60 104.7,64.2 99.6,64.2 
				99.6,66.3 105.8,66.3 105.8,70.5 			"/>
			<path class="st3" d="M105.1,54.5V58h-5.9v2.5h5.1v3.5h-5.1v2.8h6.2v3.5H95.1V54.5L105.1,54.5 M105.9,53.7h-0.8H95.1h-0.8v0.8
				v15.6v0.8h0.8h10.3h0.8v-0.8v-3.5v-0.8h-0.8h-5.4v-1.3h4.3h0.8v-0.7v-3.5v-0.8h-0.8h-4.3v-1h5.2h0.8V58v-3.5V53.7L105.9,53.7z"/>
		</g>
	</g>
	<g>
		<g>
			<path class="st6" d="M124.8,70.6c-4.6,0-6.9-2.7-6.9-8.2v-8.4h4.9v8.9c0,2.8,0.8,3.4,2,3.4s2-0.6,2-3.4v-8.9h4.7v8.4
				C131.6,67.9,129.4,70.6,124.8,70.6z"/>
			<path class="st3" d="M131.2,54.3v8.1c0,5.3-2,7.8-6.4,7.8c-4.4,0-6.5-2.5-6.5-7.8v-8.1h4.1v8.5c0,2.8,0.7,3.8,2.3,3.8
				c1.6,0,2.4-1,2.4-3.8v-8.5H131.2 M131.9,53.6h-0.8h-4h-0.8v0.8v8.5c0,3-1,3-1.7,3c-0.7,0-1.6,0-1.6-3v-8.5v-0.8h-0.8h-4.1h-0.8
				v0.8v8.1c0,5.7,2.4,8.6,7.2,8.6s7.1-2.8,7.1-8.6v-8.1V53.6L131.9,53.6z"/>
		</g>
		<g>
			<polygon class="st6" points="132.6,70.3 132.6,67.3 138.7,58.2 133.2,58.2 133.2,53.9 144.8,53.9 144.8,56.9 138.8,66.1 
				144.9,66.1 144.9,70.3 			"/>
			<path class="st3" d="M144.5,54.3v2.5l-6.4,9.6h6.4v3.5H133v-2.5l6.4-9.6h-5.8v-3.5H144.5 M145.2,53.6h-0.8h-10.9h-0.8v0.8v3.5
				v0.8h0.8h4.4l-5.6,8.5l-0.1,0.2v0.2v2.5v0.8h0.8h11.5h0.8v-0.8v-3.5v-0.8h-0.8h-5l5.6-8.5l0.1-0.2v-0.2v-2.5L145.2,53.6
				L145.2,53.6z"/>
		</g>
		<g>
			<path class="st6" d="M152.5,70.6c-4.6,0-7.6-3.3-7.6-8.5c0-5.2,2.9-8.4,7.6-8.4c4.7,0,7.6,3.2,7.6,8.4
				C160.1,67.2,157.1,70.6,152.5,70.6z M152.5,58c-1.7,0-2.7,1.5-2.7,4.1c0,2.6,1,4.2,2.7,4.2s2.6-1.6,2.6-4.2
				C155.1,59.4,154.1,58,152.5,58z"/>
			<path class="st3" d="M152.5,54c4.3,0,7.3,2.9,7.3,8c0,5.1-2.9,8.2-7.3,8.2c-4.3,0-7.3-3-7.3-8.2C145.2,56.9,148.1,54,152.5,54
				 M152.5,66.7c1.9,0,3-1.8,3-4.6c0-2.8-1.1-4.5-3-4.5s-3,1.6-3,4.5C149.4,64.9,150.6,66.7,152.5,66.7 M152.5,53.3
				c-4.9,0-8,3.4-8,8.8s3.1,8.9,8,8.9c4.9,0,8-3.5,8-8.9C160.5,56.7,157.3,53.3,152.5,53.3L152.5,53.3z M152.5,65.9
				c-1.7,0-2.3-2-2.3-3.9c0-1.1,0.2-3.7,2.3-3.7c2,0,2.3,2.6,2.3,3.7C154.7,63.9,154.1,65.9,152.5,65.9L152.5,65.9z"/>
		</g>
		<g>
			<path class="st6" d="M170.1,70.3l-2.7-5.2h-1v5.2h-4.9V53.9h6.3c4.3,0,6.6,1.9,6.6,5.4c0,2.1-0.8,3.7-2.4,4.6l3.5,6.3L170.1,70.3
				L170.1,70.3z M167.5,61c1.4,0,2.1-0.6,2.1-1.7c0-0.9-0.3-1.4-2.1-1.4h-1.1V61C166.4,61,167.5,61,167.5,61z"/>
			<path class="st3" d="M167.8,54.3c3.4,0,6.2,1.2,6.2,5c0,2.2-1,3.7-2.5,4.5l3.4,6.1h-4.6l-2.7-5.2H166v5.2h-4.1V54.3H167.8
				 M166,61.4h1.5c1.6,0,2.5-0.7,2.5-2.1s-0.9-1.8-2.5-1.8H166V61.4 M167.8,53.6h-5.9h-0.8v0.8v15.6v0.8h0.8h4.1h0.8v-0.8v-4.5h0.4
				l2.5,4.8l0.2,0.4h0.5h4.6h1.3l-0.6-1.1l-3-5.4c1.5-1.1,2.3-2.7,2.3-4.8C174.8,55.6,172.3,53.6,167.8,53.6L167.8,53.6z
				 M166.8,58.3h0.7c1.8,0,1.8,0.5,1.8,1c0,0.4,0,1.3-1.8,1.3h-0.7V58.3L166.8,58.3z"/>
		</g>
		<g>
			<polygon class="st6" points="185.3,70.3 182,64.6 180.9,66.2 180.9,70.3 176,70.3 176,53.9 180.9,53.9 180.9,59 184.4,53.9 
				189.8,53.9 184.9,60.7 190.6,70.3 			"/>
			<path class="st3" d="M189.1,54.3l-4.7,6.3l5.6,9.3h-4.5l-3.5-6l-1.5,2.1v3.9h-4.1V54.3h4.1v5.8h0.1l3.9-5.8L189.1,54.3
				 M190.6,53.6h-1.5h-4.5h-0.4l-0.2,0.3l-2.7,3.9v-3.5v-0.8h-0.8h-4.1h-0.8v0.8v15.6v0.8h0.8h4.1h0.8v-0.8v-3.7l0.7-1l2.9,5
				l0.2,0.4h0.4h4.5h1.3l-0.7-1.1l-5.3-8.8l4.4-5.9L190.6,53.6L190.6,53.6z"/>
		</g>
		<g>
			<path class="st6" d="M196.7,70.6c-4.6,0-7.6-3.3-7.6-8.5c0-5.2,2.9-8.4,7.6-8.4c4.7,0,7.6,3.2,7.6,8.4
				C204.4,67.2,201.4,70.6,196.7,70.6z M196.7,58c-1.7,0-2.7,1.5-2.7,4.1c0,2.6,1,4.2,2.7,4.2s2.6-1.6,2.6-4.2
				C199.4,59.4,198.4,58,196.7,58z"/>
			<path class="st3" d="M196.7,54c4.3,0,7.3,2.9,7.3,8c0,5.1-2.9,8.2-7.3,8.2c-4.3,0-7.3-3-7.3-8.2S192.4,54,196.7,54 M196.7,66.7
				c1.9,0,3-1.8,3-4.6c0-2.8-1.1-4.5-3-4.5s-3,1.6-3,4.5C193.7,64.9,194.9,66.7,196.7,66.7 M196.7,53.3c-4.9,0-8,3.4-8,8.8
				s3.1,8.9,8,8.9c4.9,0,8-3.5,8-8.9C204.7,56.7,201.6,53.3,196.7,53.3L196.7,53.3z M196.7,65.9c-1.7,0-2.3-2-2.3-3.9
				c0-1.1,0.2-3.7,2.3-3.7c2,0,2.3,2.6,2.3,3.7C199,63.9,198.4,65.9,196.7,65.9L196.7,65.9z"/>
		</g>
		<g>
			<path class="st6" d="M208.3,70.3l-4.8-16.3h5.2l1.7,7.1c0.2,0.8,0.4,1.7,0.6,2.5c0.1,0.4,0.2,0.7,0.3,1.1
				c0.1-0.5,0.2-0.9,0.3-1.4c0.2-0.7,0.3-1.5,0.5-2.2l1.6-7.1h5l-4.8,16.3H208.3z"/>
			<path class="st3" d="M218.2,54.3l-4.6,15.6h-5L204,54.3h4.4l1.6,6.8c0.4,1.7,0.7,3.3,1.1,4.9h0.1c0.4-1.7,0.7-3.3,1.1-4.9
				l1.6-6.8H218.2 M219.2,53.6h-1h-4.2h-0.6l-0.1,0.6l-1.6,6.8c-0.2,0.7-0.3,1.3-0.5,2c-0.1-0.7-0.3-1.3-0.5-2l-1.6-6.8l-0.1-0.6
				h-0.6H204h-1l0.3,1l4.6,15.6l0.2,0.5h0.6h5h0.6l0.2-0.5l4.6-15.6L219.2,53.6L219.2,53.6z"/>
		</g>
		<g>
			<path class="st6" d="M226.4,70.3l-0.8-3.3h-3.8l-0.8,3.3h-5l5-16.3h5.6l5,16.3H226.4z M224.7,63l-0.1-0.6
				c-0.2-0.8-0.4-1.8-0.6-2.7c-0.1-0.3-0.1-0.6-0.2-0.8c-0.3,1.2-0.5,2.5-0.8,3.5l-0.1,0.6L224.7,63L224.7,63z"/>
			<path class="st3" d="M226.3,54.3l4.8,15.6h-4.4l-0.8-3.3h-4.4l-0.8,3.3h-4.2l4.8-15.6H226.3 M222.3,63.4h2.9l-0.3-1.1
				c-0.4-1.5-0.8-3.4-1.1-4.9h-0.1c-0.3,1.6-0.7,3.5-1.1,4.9L222.3,63.4 M226.9,53.6h-0.6h-5h-0.6l-0.2,0.5l-4.8,15.6l-0.3,1h1h4.2
				h0.6l0.1-0.6l0.6-2.7h3.2l0.6,2.7l0.1,0.6h0.6h4.4h1l-0.3-1L227,54.1L226.9,53.6L226.9,53.6z M223.3,62.7l0-0.2
				c0.1-0.6,0.3-1.2,0.4-1.9c0.1,0.7,0.3,1.3,0.4,1.9l0,0.1L223.3,62.7L223.3,62.7z"/>
		</g>
		<g>
			<path class="st6" d="M240,70.3l-3.6-7.2l-0.6-1.4c0.1,1.2,0.3,2.5,0.3,3.7v4.9h-4.7V53.9h4.8l3.6,7.2l0.6,1.4
				c-0.1-1.2-0.3-2.5-0.3-3.7v-4.9h4.7v16.3H240z"/>
			<path class="st3" d="M244.4,54.3v15.6h-4.2l-3.5-7l-1.5-3.5h-0.1c0.2,1.8,0.5,4,0.5,5.9v4.5h-3.9V54.3h4.2l3.5,7l1.5,3.5h0.1
				c-0.2-1.7-0.5-4-0.5-5.9v-4.5L244.4,54.3 M245.2,53.6h-0.8h-3.9h-0.8v0.8v4.5c0,0.5,0,1,0.1,1.5l-3.1-6.3l-0.2-0.4H236h-4.2H231
				v0.8v15.6v0.8h0.8h3.9h0.8v-0.8v-4.5c0-0.5,0-1-0.1-1.5l3.1,6.4l0.2,0.4h0.5h4.2h0.8v-0.8V54.3L245.2,53.6L245.2,53.6z"/>
		</g>
		<g>
			<path class="st6" d="M251.1,70.6c-2.6,0-4.4-1-5.6-3.1l-0.2-0.3l3.4-2.6l0.2,0.4c0.5,0.9,1.2,1.3,1.6,1.3c0.7,0,1.4-0.2,1.4-2.1
				V53.9h4.9v10.5C256.8,68.2,254.6,70.6,251.1,70.6z"/>
			<path class="st3" d="M256.4,54.3v10.2c0,3.1-1.7,5.7-5.3,5.7c-2.5,0-4.2-1-5.3-2.9l2.8-2.1c0.5,1,1.3,1.5,2,1.5
				c1.1,0,1.7-0.5,1.7-2.5v-9.8L256.4,54.3 M257.1,53.6h-0.8h-4.1h-0.8v0.8v9.8c0,1.8-0.5,1.8-1,1.8c-0.3,0-0.9-0.3-1.3-1.1
				l-0.4-0.8l-0.7,0.5l-2.8,2.1l-0.5,0.4l0.3,0.6c1.3,2.3,3.2,3.3,6,3.3c3.7,0,6-2.5,6-6.5V54.3L257.1,53.6L257.1,53.6z"/>
		</g>
		<g>
			<path class="st6" d="M267,70.3l-0.8-3.3h-3.8l-0.8,3.3h-5l5-16.3h5.5l5,16.3H267z M265.3,63l-0.1-0.6c-0.2-0.8-0.4-1.8-0.6-2.7
				c-0.1-0.3-0.1-0.6-0.2-0.8c-0.3,1.2-0.5,2.5-0.8,3.5l-0.1,0.6L265.3,63L265.3,63z"/>
			<path class="st3" d="M266.9,54.3l4.8,15.6h-4.4l-0.8-3.3h-4.4l-0.8,3.3h-4.2l4.8-15.6H266.9 M262.9,63.4h2.9l-0.3-1.1
				c-0.4-1.5-0.8-3.4-1.1-4.9h-0.1c-0.3,1.6-0.7,3.5-1.1,4.9L262.9,63.4 M267.5,53.6h-0.6h-5h-0.6l-0.2,0.5l-4.8,15.6l-0.3,1h1h4.2
				h0.6l0.1-0.6l0.6-2.7h3.2l0.6,2.7l0.1,0.6h0.6h4.4h1l-0.3-1l-4.8-15.6L267.5,53.6L267.5,53.6z M263.9,62.7l0-0.2
				c0.2-0.6,0.3-1.2,0.4-1.9c0.2,0.7,0.3,1.3,0.5,1.9l0,0.1L263.9,62.7L263.9,62.7z"/>
		</g>
	</g>
</g>
<g>
	<g>
		<path class="st7" d="M128.6,121.6h2.1l5.7,9.9l1.7,3.3h0.1c-0.1-1.6-0.3-3.4-0.3-5v-8.2h1.9v15.8h-2.1l-5.7-9.9l-1.7-3.3h-0.1
			c0.1,1.6,0.3,3.3,0.3,4.9v8.2h-1.9V121.6z"/>
		<path class="st7" d="M143,134.3c0-2.5,2.2-3.8,7.2-4.4c0-1.5-0.5-3-2.4-3c-1.4,0-2.6,0.6-3.5,1.3l-0.8-1.4
			c1.1-0.7,2.7-1.5,4.6-1.5c2.8,0,4.1,1.9,4.1,4.8v7.2h-1.6l-0.2-1.4h-0.1c-1.1,0.9-2.4,1.7-3.9,1.7
			C144.4,137.6,143,136.4,143,134.3z M150.1,134.5v-3.2c-3.9,0.5-5.2,1.4-5.2,2.9c0,1.3,0.9,1.9,2,1.9
			C148.1,136,149,135.5,150.1,134.5z"/>
		<path class="st7" d="M154.3,136l1-1.3c1,0.8,2,1.4,3.4,1.4c1.5,0,2.3-0.8,2.3-1.8c0-1.2-1.4-1.7-2.7-2.2c-1.6-0.6-3.5-1.4-3.5-3.4
			c0-1.9,1.5-3.3,4-3.3c1.5,0,2.7,0.6,3.6,1.3l-0.9,1.3c-0.8-0.6-1.6-1-2.7-1c-1.5,0-2.1,0.8-2.1,1.7c0,1.1,1.3,1.5,2.6,2
			c1.7,0.6,3.6,1.3,3.6,3.5c0,1.9-1.5,3.5-4.3,3.5C157,137.6,155.4,136.9,154.3,136z M155.1,120.2l0.8-0.8l2.8,2.7h0.1l2.8-2.7
			l0.8,0.8l-2.7,3.4h-2L155.1,120.2z"/>
		<path class="st7" d="M165.7,133.7v-6.5H164v-1.5l1.8-0.1l0.2-3.3h1.6v3.3h3.2v1.6h-3.2v6.5c0,1.4,0.5,2.3,1.8,2.3
			c0.4,0,0.9-0.2,1.3-0.3l0.4,1.5c-0.7,0.2-1.4,0.4-2.2,0.4C166.6,137.6,165.7,136,165.7,133.7z"/>
		<path class="st7" d="M172.4,131.5c0-3.8,2.6-6.1,5.3-6.1c3,0,4.7,2.1,4.7,5.5c0,0.4,0,0.8-0.1,1.1h-7.9c0.1,2.5,1.6,4.1,3.9,4.1
			c1.1,0,2-0.4,2.9-0.9l0.7,1.3c-1,0.7-2.3,1.2-3.9,1.2C174.8,137.6,172.4,135.3,172.4,131.5z M180.5,130.5c0-2.3-1.1-3.6-2.9-3.6
			c-1.6,0-3.1,1.3-3.4,3.6H180.5z"/>
	</g>
</g>
<g>
	<g>
		<path class="st7" d="M438.6,135.5l1-1.3c0.9,0.9,2.1,1.7,3.9,1.7c1.9,0,3.4-1.4,3.4-3.5c0-2.1-1.3-3.4-3.3-3.4
			c-1.1,0-1.7,0.3-2.6,0.9l-1-0.7l0.5-7.4h7.7v1.7h-5.9l-0.4,4.5c0.7-0.4,1.4-0.6,2.4-0.6c2.6,0,4.7,1.5,4.7,4.8
			c0,3.3-2.5,5.2-5.1,5.2C441.2,137.6,439.7,136.6,438.6,135.5z"/>
		<path class="st7" d="M450.9,140.2c1.4-0.6,2.2-1.6,2.2-3l-0.2-1.8l1,1.4c-0.3,0.3-0.6,0.4-1,0.4c-0.8,0-1.4-0.5-1.4-1.4
			c0-0.9,0.7-1.4,1.5-1.4c1,0,1.7,0.9,1.7,2.3c0,2.1-1.2,3.7-3.1,4.5L450.9,140.2z"/>
		<path class="st7" d="M456.1,135.4l1-1.3c0.9,1,2.1,1.8,3.9,1.8c1.9,0,3.2-1.1,3.2-2.8c0-1.8-1.3-3-4.9-3v-1.5
			c3.2,0,4.3-1.3,4.3-2.9c0-1.5-1-2.4-2.6-2.4c-1.3,0-2.4,0.6-3.3,1.6l-1.1-1.3c1.2-1.1,2.6-1.9,4.4-1.9c2.7,0,4.6,1.4,4.6,3.9
			c0,1.8-1.1,3-2.8,3.6v0.1c1.9,0.4,3.3,1.8,3.3,3.9c0,2.7-2.3,4.4-5.1,4.4C458.7,137.6,457.1,136.6,456.1,135.4z"/>
	</g>
</g>
<g>
	<g>
		<path class="st7" d="M144.3,190.6h3.5v-11.3H145v-1.3c1.4-0.3,2.4-0.6,3.3-1.1h1.5v13.7h3.2v1.6h-8.6L144.3,190.6L144.3,190.6z"/>
		<path class="st7" d="M156.1,175.2h2v4.7l-0.1,2.4c1.1-1.1,2.3-1.9,3.9-1.9c2.5,0,3.6,1.6,3.6,4.6v7.4h-2v-7.1
			c0-2.2-0.7-3.1-2.2-3.1c-1.2,0-2,0.6-3.2,1.8v8.4h-2V175.2z"/>
	</g>
</g>
<g>
	<g>
		<path class="st7" d="M434.1,190.6h3.5v-11.3h-2.8v-1.3c1.4-0.3,2.4-0.6,3.3-1.1h1.5v13.7h3.2v1.6h-8.6L434.1,190.6L434.1,190.6z"
			/>
		<path class="st7" d="M444.9,184.5c0-5.1,1.9-7.9,4.9-7.9s4.9,2.8,4.9,7.9s-1.9,8-4.9,8S444.9,189.7,444.9,184.5z M452.8,184.5
			c0-4.5-1.2-6.3-3-6.3s-3,1.8-3,6.3s1.2,6.4,3,6.4S452.8,189,452.8,184.5z"/>
		<path class="st7" d="M456.7,195.2c1.4-0.6,2.2-1.6,2.2-3l-0.2-1.8l1,1.4c-0.3,0.3-0.6,0.4-1,0.4c-0.8,0-1.4-0.5-1.4-1.4
			c0-0.9,0.7-1.4,1.5-1.4c1,0,1.7,0.9,1.7,2.3c0,2.1-1.2,3.7-3.1,4.5L456.7,195.2z"/>
		<path class="st7" d="M462.4,184.5c0-5.1,1.9-7.9,4.9-7.9s4.9,2.8,4.9,7.9s-1.9,8-4.9,8S462.4,189.7,462.4,184.5z M470.3,184.5
			c0-4.5-1.2-6.3-3-6.3s-3,1.8-3,6.3s1.2,6.4,3,6.4S470.3,189,470.3,184.5z"/>
	</g>
</g>
<g>
	<g>
		<path class="st7" d="M143.4,252.3c4.6-4.6,7.2-7.3,7.2-9.8c0-1.8-0.9-3-2.9-3c-1.3,0-2.4,0.8-3.3,1.8l-1.1-1.1
			c1.3-1.4,2.7-2.3,4.6-2.3c2.8,0,4.6,1.8,4.6,4.5c0,2.9-2.6,5.7-6.3,9.5c0.8-0.1,1.8-0.1,2.6-0.1h4.4v1.7h-9.9
			C143.4,253.5,143.4,252.3,143.4,252.3z"/>
		<path class="st7" d="M156.1,236.4h2v4.7l-0.1,2.4c1.1-1,2.3-1.9,3.9-1.9c2.5,0,3.6,1.6,3.6,4.6v7.4h-2v-7.1c0-2.2-0.7-3.1-2.2-3.1
			c-1.2,0-2,0.6-3.2,1.8v8.5h-2V236.4z"/>
	</g>
</g>
<g>
	<g>
		<path class="st7" d="M439,249.6c0-2,1.5-3.4,2.9-4.1v-0.1c-1.1-0.8-2.1-1.9-2.1-3.5c0-2.4,1.9-3.9,4.3-3.9c2.7,0,4.3,1.7,4.3,4.1
			c0,1.6-1.2,3-2.1,3.7v0.1c1.4,0.8,2.7,1.9,2.7,3.9c0,2.3-2,4.1-4.9,4.1C441.1,253.8,439,252,439,249.6z M447.1,249.7
			c0-2-1.9-2.7-4.1-3.6c-1.2,0.8-2.1,1.9-2.1,3.3c0,1.7,1.4,2.9,3.3,2.9C445.9,252.3,447.1,251.2,447.1,249.7z M446.7,242.1
			c0-1.5-1-2.7-2.7-2.7c-1.4,0-2.5,1-2.5,2.5c0,1.8,1.7,2.6,3.5,3.3C446.1,244.2,446.7,243.2,446.7,242.1z"/>
		<path class="st7" d="M450.9,256.4c1.4-0.6,2.2-1.6,2.2-3l-0.2-1.8l1,1.4c-0.3,0.3-0.6,0.4-1,0.4c-0.8,0-1.4-0.5-1.4-1.4
			c0-0.9,0.7-1.4,1.5-1.4c1,0,1.7,0.9,1.7,2.3c0,2.1-1.2,3.7-3.1,4.5L450.9,256.4z"/>
		<path class="st7" d="M456.6,246.4c0-6.2,2.8-8.5,5.8-8.5c1.6,0,2.8,0.7,3.7,1.6l-1.1,1.2c-0.6-0.7-1.6-1.2-2.5-1.2
			c-2.2,0-4,1.8-4,6.9c0,3.8,1.2,5.8,3.4,5.8c1.5,0,2.7-1.3,2.7-3.4c0-2-0.9-3.3-2.8-3.3c-1,0-2.2,0.6-3.3,2.2l-0.1-1.6
			c1-1.3,2.4-2.1,3.7-2.1c2.6,0,4.4,1.6,4.4,4.7c0,2.9-2.1,4.9-4.5,4.9C458.9,253.8,456.6,251.4,456.6,246.4z"/>
	</g>
</g>
<g>
	<g>
		<path class="st7" d="M143.1,310.7l1-1.3c0.9,1,2.1,1.8,3.9,1.8c1.9,0,3.2-1.1,3.2-2.8c0-1.8-1.3-3-4.9-3v-1.5
			c3.2,0,4.3-1.3,4.3-2.9c0-1.5-1-2.4-2.7-2.4c-1.3,0-2.4,0.6-3.3,1.5l-1.1-1.3c1.2-1.1,2.6-1.9,4.4-1.9c2.7,0,4.6,1.4,4.6,3.9
			c0,1.8-1.1,3-2.8,3.6v0.1c1.9,0.4,3.3,1.8,3.3,3.9c0,2.7-2.3,4.4-5.1,4.4C145.6,312.8,144.1,311.8,143.1,310.7z"/>
		<path class="st7" d="M156.1,295.4h2v4.7l-0.1,2.4c1.1-1,2.3-1.9,3.9-1.9c2.5,0,3.6,1.6,3.6,4.6v7.4h-2v-7.1c0-2.2-0.7-3.1-2.2-3.1
			c-1.2,0-2,0.6-3.2,1.8v8.5h-2V295.4z"/>
	</g>
</g>
<g>
	<g>
		<path class="st7" d="M446.7,298.9h-7.6v-1.7h9.9v1.2c-3.6,4.6-4.4,8.1-4.6,14.1h-2C442.6,306.8,443.7,303.1,446.7,298.9z"/>
		<path class="st7" d="M450.9,315.5c1.4-0.6,2.2-1.6,2.2-3l-0.2-1.8l1,1.4c-0.3,0.3-0.6,0.4-1,0.4c-0.8,0-1.4-0.5-1.4-1.4
			c0-0.9,0.7-1.4,1.5-1.4c1,0,1.7,0.9,1.7,2.3c0,2.1-1.2,3.7-3.1,4.5L450.9,315.5z"/>
		<path class="st7" d="M456.4,308.6c0-2,1.5-3.4,2.9-4.1v-0.1c-1.1-0.8-2.1-1.9-2.1-3.5c0-2.4,1.9-3.9,4.3-3.9
			c2.7,0,4.3,1.7,4.3,4.1c0,1.6-1.2,3-2.1,3.7v0.1c1.4,0.8,2.7,1.9,2.7,3.9c0,2.3-2,4.1-4.9,4.1
			C458.6,312.8,456.4,311.1,456.4,308.6z M464.5,308.7c0-2-1.9-2.7-4.1-3.6c-1.2,0.8-2.1,1.9-2.1,3.3c0,1.7,1.4,2.9,3.3,2.9
			C463.3,311.4,464.5,310.3,464.5,308.7z M464.1,301.1c0-1.5-1-2.7-2.7-2.7c-1.4,0-2.5,1-2.5,2.5c0,1.8,1.7,2.6,3.5,3.3
			C463.6,303.3,464.1,302.2,464.1,301.1z"/>
	</g>
</g>
<g>
	<g>
		<polygon class="st6" points="326.3,60.6 323.1,55.2 322.1,56.7 322.1,60.6 317.4,60.6 317.4,44.9 322.1,44.9 322.1,49.8 
			325.4,44.9 330.7,44.9 325.9,51.4 331.5,60.6 		"/>
		<path class="st3" d="M329.9,45.3l-4.5,6.1l5.3,8.9h-4.3l-3.3-5.8l-1.4,2v3.7h-4v-15h4v5.6h0.1l3.8-5.6H329.9 M331.4,44.6h-1.5
			h-4.3h-0.4l-0.2,0.3l-2.5,3.7v-3.3v-0.8h-0.8h-4H317v0.8v15V61h0.8h4h0.8v-0.8v-3.5l0.6-0.9l2.7,4.7L326,61h0.4h4.3h1.3l-0.7-1.1
			l-5.1-8.5l4.2-5.7L331.4,44.6L331.4,44.6z"/>
	</g>
	<g>
		<path class="st6" d="M337.3,60.9c-4.4,0-7.3-3.2-7.3-8.2s2.8-8.1,7.3-8.1c4.5,0,7.3,3.1,7.3,8.1S341.7,60.9,337.3,60.9z
			 M337.3,48.8c-1.6,0-2.5,1.4-2.5,3.9c0,2.5,1,4,2.5,4c1.6,0,2.5-1.5,2.5-4C339.8,50.2,338.9,48.8,337.3,48.8z"/>
		<path class="st3" d="M337.3,45c4.1,0,6.9,2.8,6.9,7.7c0,4.9-2.8,7.8-6.9,7.8c-4.1,0-6.9-2.9-6.9-7.8S333.1,45,337.3,45
			 M337.3,57.1c1.8,0,2.9-1.7,2.9-4.4s-1.1-4.3-2.9-4.3c-1.8,0-2.9,1.6-2.9,4.3S335.5,57.1,337.3,57.1 M337.3,44.3
			c-4.8,0-7.7,3.2-7.7,8.4c0,5.2,3,8.6,7.7,8.6c4.7,0,7.7-3.4,7.7-8.6C345,47.6,341.9,44.3,337.3,44.3L337.3,44.3z M337.3,56.4
			c-1.6,0-2.1-1.9-2.1-3.7c0-1.1,0.2-3.5,2.1-3.5c1.9,0,2.2,2.5,2.2,3.5C339.4,54.5,338.8,56.4,337.3,56.4L337.3,56.4z"/>
	</g>
	<g>
		<path class="st6" d="M354.2,60.6l-3.4-6.9l-0.5-1.3c0.1,1.2,0.2,2.4,0.2,3.5v4.7h-4.5V44.9h4.6l3.4,6.9l0.5,1.3
			c-0.1-1.1-0.2-2.4-0.2-3.4v-4.7h4.5v15.7L354.2,60.6L354.2,60.6z"/>
		<path class="st3" d="M358.4,45.3v15h-4.1l-3.3-6.7l-1.4-3.3h-0.1c0.2,1.7,0.5,3.9,0.5,5.7v4.3h-3.8v-15h4l3.3,6.7l1.4,3.4h0.1
			c-0.2-1.6-0.5-3.9-0.5-5.7v-4.3L358.4,45.3 M359.2,44.6h-0.8h-3.8h-0.8v0.8v4.3c0,0.4,0,0.8,0,1.3L351,45l-0.2-0.4h-0.5h-4.1h-0.8
			v0.8v15V61h0.8h3.8h0.8v-0.8v-4.3c0-0.4,0-0.8,0-1.3l2.9,6l0.2,0.4h0.5h4h0.8v-0.8V45.3L359.2,44.6L359.2,44.6z"/>
	</g>
	<g>
		<path class="st6" d="M367.7,60.9c-3.7,0-7.5-2.5-7.5-8c0-5.4,3.8-8.2,7.6-8.2c2.5,0,4.1,1.3,4.9,2.1l0.2,0.2l-2.5,3.1l-0.3-0.3
			c-0.7-0.6-1.3-1-2.2-1c-1.4,0-2.9,1.4-2.9,4c0,2.5,1.1,4,2.8,4c1.1,0,1.9-0.6,2.4-1.2l0.3-0.3l2.5,3l-0.2,0.2
			C371.6,60.1,369.8,60.9,367.7,60.9z"/>
		<path class="st3" d="M367.8,45c2,0,3.6,0.9,4.6,2l-2.1,2.5c-0.7-0.6-1.5-1.1-2.5-1.1c-1.8,0-3.3,1.6-3.3,4.3
			c0,2.8,1.3,4.4,3.2,4.4c1.1,0,2.1-0.6,2.7-1.3l2.1,2.5c-1.3,1.5-3,2.2-4.9,2.2c-3.8,0-7.1-2.5-7.1-7.6C360.5,47.9,364,45,367.8,45
			 M367.8,44.3c-4,0-8,3-8,8.6c0,5.8,4,8.4,7.9,8.4c2.2,0,4.1-0.8,5.5-2.5l0.4-0.5l-0.4-0.5l-2.1-2.5l-0.5-0.7l-0.6,0.6
			c-0.5,0.5-1.2,1-2.2,1c-2.2,0-2.5-2.5-2.5-3.6c0-2.1,1-3.6,2.5-3.6c0.8,0,1.4,0.4,2,0.9l0.6,0.5l0.5-0.6l2.1-2.5l0.4-0.5l-0.5-0.5
			C372.1,45.7,370.4,44.3,367.8,44.3L367.8,44.3z"/>
	</g>
	<g>
		<polygon class="st6" points="373.7,60.6 373.7,44.9 384.1,44.9 384.1,49 378.4,49 378.4,50.6 383.3,50.6 383.3,54.7 378.4,54.7 
			378.4,56.6 384.4,56.6 384.4,60.6 		"/>
		<path class="st3" d="M383.7,45.3v3.3H378V51h4.9v3.3H378V57h5.9v3.3h-9.9v-15H383.7 M384.5,44.6h-0.8h-9.7h-0.8v0.8v15V61h0.8h9.9
			h0.8v-0.8V57v-0.8H384h-5.2V55h4.1h0.8v-0.8V51v-0.8h-0.8h-4.1v-0.8h5h0.8v-0.8v-3.3L384.5,44.6L384.5,44.6z"/>
	</g>
	<g>
		<path class="st6" d="M394.2,60.6l-3.4-6.9l-0.5-1.3c0.1,1.2,0.2,2.4,0.2,3.5v4.7h-4.5V44.9h4.6l3.4,6.9l0.5,1.3
			c-0.1-1.1-0.2-2.4-0.2-3.4v-4.7h4.5v15.7L394.2,60.6L394.2,60.6z"/>
		<path class="st3" d="M398.4,45.3v15h-4l-3.3-6.7l-1.4-3.3h-0.1c0.2,1.7,0.5,3.9,0.5,5.7v4.3h-3.8v-15h4l3.3,6.7l1.4,3.4h0.1
			c-0.2-1.6-0.5-3.9-0.5-5.7v-4.3L398.4,45.3 M399.2,44.6h-0.8h-3.8h-0.8v0.8v4.3c0,0.4,0,0.8,0,1.3L391,45l-0.2-0.4h-0.5h-4h-0.8
			v0.8v15V61h0.8h3.8h0.8v-0.8v-4.3c0-0.4,0-0.8,0-1.3l2.9,6l0.2,0.4h0.5h4h0.8v-0.8V45.3L399.2,44.6L399.2,44.6z"/>
	</g>
	<g>
		<polygon class="st6" points="403.7,60.6 403.7,49 399.7,49 399.7,44.9 412.3,44.9 412.3,49 408.4,49 408.4,60.6 		"/>
		<path class="st3" d="M411.9,45.3v3.3h-4v11.6h-4V48.6h-4v-3.3H411.9 M412.7,44.6h-0.8h-11.9h-0.8v0.8v3.3v0.8h0.8h3.2v10.9V61h0.8
			h4h0.8v-0.8V49.4h3.2h0.8v-0.8v-3.3L412.7,44.6L412.7,44.6z"/>
	</g>
	<g>
		<path class="st6" d="M434.8,60.6l-0.7-3.2h-3.6l-0.7,3.2h-8.3l-2.6-5h-0.9v5h-4.7V44.9h6c4.2,0,6.4,1.8,6.4,5.2
			c0,2-0.8,3.5-2.3,4.5l2.2,4l4.1-13.6h5.3l4.8,15.7C439.8,60.6,434.8,60.6,434.8,60.6z M433.1,53.7l-0.1-0.6
			c-0.2-0.8-0.4-1.7-0.6-2.6c0-0.2-0.1-0.5-0.2-0.7c-0.2,1.1-0.5,2.3-0.8,3.3l-0.1,0.6L433.1,53.7L433.1,53.7z M419,51.7
			c1.4,0,2-0.5,2-1.6c0-0.8-0.3-1.3-2-1.3h-1v2.9H419z"/>
		<path class="st3" d="M434.7,45.3l4.5,15h-4.2l-0.7-3.2h-4.2l-0.7,3.2H426h-0.7h-3.8l-2.6-5h-1.5v5h-4V45.3h5.7c3.2,0,6,1.1,6,4.8
			c0,2.1-1,3.5-2.4,4.3l2.8,5l4.3-14.2L434.7,45.3 M430.9,54h2.7l-0.3-1c-0.4-1.4-0.7-3.2-1.1-4.7h-0.1c-0.3,1.5-0.7,3.3-1.1,4.7
			L430.9,54 M417.5,52.1h1.4c1.6,0,2.4-0.7,2.4-2s-0.8-1.7-2.4-1.7h-1.4V52.1 M435.3,44.6h-0.6h-4.8h-0.6l-0.2,0.5l-3.8,12.5
			l-1.6-2.9c1.4-1,2.2-2.6,2.2-4.6c0-3.6-2.4-5.6-6.7-5.6h-5.7h-0.8v0.8v15V61h0.8h4h0.8v-0.8V56h0.3l2.4,4.6l0.2,0.4h0.5h3.8h0.7
			h3.4h0.6l0.1-0.6l0.6-2.6h3l0.6,2.6l0.1,0.6h0.6h4.2h1l-0.3-1l-4.5-15L435.3,44.6L435.3,44.6z M418.3,49.2h0.7
			c1.6,0,1.6,0.5,1.6,1c0,0.4,0,1.2-1.6,1.2h-0.7V49.2L418.3,49.2z M431.8,53.3l0-0.1c0.1-0.5,0.3-1.1,0.4-1.7
			c0.1,0.6,0.3,1.2,0.4,1.7l0,0.1L431.8,53.3L431.8,53.3z"/>
	</g>
	<g>
		<path class="st6" d="M446.4,60.9c-3.7,0-7.5-2.5-7.5-8c0-5.4,3.8-8.2,7.6-8.2c2.5,0,4.1,1.3,4.9,2.1l0.2,0.2l-2.5,3.1l-0.3-0.3
			c-0.7-0.6-1.3-1-2.2-1c-1.4,0-2.9,1.4-2.9,4c0,2.5,1.1,4,2.8,4c1.1,0,1.9-0.6,2.4-1.2l0.3-0.3l2.5,3l-0.2,0.2
			C450.3,60.1,448.5,60.9,446.4,60.9z"/>
		<path class="st3" d="M446.5,45c2,0,3.6,0.9,4.6,2l-2.1,2.5c-0.7-0.6-1.5-1.1-2.5-1.1c-1.8,0-3.3,1.6-3.3,4.3
			c0,2.8,1.3,4.4,3.2,4.4c1.1,0,2.1-0.6,2.7-1.3l2.1,2.5c-1.3,1.5-3,2.2-4.9,2.2c-3.8,0-7.1-2.5-7.1-7.6
			C439.2,47.9,442.7,45,446.5,45 M446.5,44.3c-4,0-8,3-8,8.6c0,5.8,4,8.4,7.9,8.4c2.2,0,4.1-0.8,5.5-2.5l0.4-0.5l-0.4-0.5l-2.1-2.5
			l-0.5-0.7l-0.6,0.6c-0.5,0.5-1.2,1-2.2,1c-2.2,0-2.5-2.5-2.5-3.6c0-2.1,1-3.6,2.5-3.6c0.8,0,1.4,0.4,2,0.9l0.6,0.5l0.5-0.6
			l2.1-2.5l0.4-0.5l-0.5-0.5C450.8,45.7,449.1,44.3,446.5,44.3L446.5,44.3z"/>
	</g>
	<g>
		<rect x="452.4" y="44.9" class="st6" width="4.7" height="15.7"/>
		<path class="st3" d="M456.7,45.3v15h-4v-15H456.7 M457.5,44.6h-0.8h-4H452v0.8v15V61h0.8h4h0.8v-0.8v-15V44.6L457.5,44.6z"/>
	</g>
	<g>
		<path class="st6" d="M463.2,60.9c-2.5,0-4.2-1-5.4-3l-0.2-0.3l3.3-2.5l0.2,0.4c0.5,0.9,1.1,1.2,1.5,1.2c0.7,0,1.3-0.2,1.3-2v-9.8
			h4.7v10.1C468.6,58.6,466.5,60.9,463.2,60.9z"/>
		<path class="st3" d="M468.2,45.3v9.8c0,3-1.6,5.5-5.1,5.5c-2.4,0-4-0.9-5.1-2.8l2.7-2c0.5,1,1.2,1.4,1.9,1.4
			c1.1,0,1.7-0.5,1.7-2.4v-9.4H468.2 M469,44.6h-0.8h-4h-0.8v0.8v9.4c0,1.6-0.4,1.6-0.9,1.6c-0.3,0-0.8-0.3-1.2-1l-0.4-0.8l-0.7,0.5
			l-2.7,2l-0.5,0.4l0.3,0.6c1.3,2.2,3.1,3.2,5.8,3.2c3.5,0,5.8-2.4,5.8-6.2v-9.8L469,44.6L469,44.6z"/>
	</g>
	<g>
		<path class="st6" d="M478.4,60.6l-0.7-3.2h-3.6l-0.7,3.2h-4.9l4.8-15.7h5.3l4.8,15.7H478.4z M476.8,53.7l-0.1-0.6
			c-0.2-0.8-0.4-1.7-0.6-2.6c0-0.2-0.1-0.5-0.2-0.7c-0.2,1.1-0.5,2.3-0.8,3.3l-0.1,0.6L476.8,53.7L476.8,53.7z"/>
		<path class="st3" d="M478.3,45.3l4.5,15h-4.2l-0.7-3.2h-4.2l-0.7,3.2h-4l4.5-15L478.3,45.3 M474.5,54h2.7l-0.3-1
			c-0.4-1.4-0.7-3.2-1.1-4.7h-0.1c-0.3,1.5-0.7,3.3-1.1,4.7L474.5,54 M478.9,44.6h-0.6h-4.8H473l-0.2,0.5l-4.5,15l-0.3,1h1h4h0.6
			l0.1-0.6l0.6-2.6h3l0.6,2.6l0.1,0.6h0.6h4.2h1l-0.3-1l-4.5-15L478.9,44.6L478.9,44.6z M475.4,53.3l0-0.1c0.1-0.5,0.3-1.1,0.4-1.7
			c0.1,0.6,0.3,1.2,0.4,1.7l0,0.1L475.4,53.3L475.4,53.3z"/>
	</g>
	<g>
		<g>
			<path class="st6" d="M500.8,60.4c-4.8,0-7.9-3.1-7.9-8c0-4.8,3.2-8.2,7.8-8.2c2.5,0,4.2,1.1,5.1,2.1l0.2,0.2l-2.5,3.1l-0.3-0.3
				c-0.7-0.6-1.4-1-2.4-1c-1.9,0-3.2,1.5-3.2,4c0,2.7,1.2,4,3.5,4c0.3,0,0.6-0.1,0.8-0.1v-1.5h-2.2v-4h6.5v7.7l-0.1,0.1
				C504.9,59.6,502.8,60.4,500.8,60.4z"/>
			<path class="st3" d="M500.7,44.5c2.2,0,3.8,0.9,4.9,2l-2.1,2.5c-0.7-0.6-1.5-1.1-2.7-1.1c-2,0-3.5,1.6-3.5,4.3
				c0,2.8,1.2,4.4,3.9,4.4c0.4,0,0.9-0.1,1.1-0.3v-2.1h-2.2V51h5.7v7.1c-1.1,1-2.9,1.8-5.1,1.8c-4.2,0-7.5-2.5-7.5-7.6
				C493.3,47.4,496.7,44.5,500.7,44.5 M500.7,43.8c-4.8,0-8.2,3.5-8.2,8.6c0,5.1,3.3,8.4,8.3,8.4c2.1,0,4.3-0.8,5.6-2.1l0.2-0.2
				v-0.3V51v-0.8h-0.8h-5.7h-0.8V51v3.2V55h0.8h1.5v0.8c-0.1,0-0.3,0-0.4,0c-1.4,0-3.2-0.4-3.2-3.6c0-2.2,1.1-3.6,2.8-3.6
				c0.9,0,1.5,0.3,2.2,0.9l0.6,0.5l0.5-0.6l2.1-2.5l0.4-0.5l-0.5-0.5C505.1,45,503.4,43.8,500.7,43.8L500.7,43.8z"/>
		</g>
		<g>
			<polygon class="st6" points="507.8,60.1 507.8,44.4 512.5,44.4 512.5,56 518.2,56 518.2,60.1 			"/>
			<path class="st3" d="M512.1,44.8v11.6h5.7v3.3h-9.6V44.8H512.1 M512.9,44h-0.8h-4h-0.8v0.8v14.9v0.8h0.8h9.6h0.8v-0.8v-3.3v-0.8
				h-0.8h-4.9V44.8L512.9,44L512.9,44z"/>
		</g>
		<g>
			<path class="st6" d="M525,60.4c-4.4,0-6.6-2.6-6.6-7.9v-8.1h4.7V53c0,2.7,0.7,3.3,1.9,3.3s1.9-0.6,1.9-3.3v-8.6h4.6v8.1
				C531.5,57.8,529.4,60.4,525,60.4z"/>
			<path class="st3" d="M531.1,44.8v7.7c0,5.1-1.9,7.5-6.1,7.5s-6.2-2.4-6.2-7.5v-7.7h4V53c0,2.7,0.7,3.6,2.3,3.6s2.3-1,2.3-3.6
				v-8.2L531.1,44.8 M531.9,44h-0.8h-3.8h-0.8v0.8V53c0,2.9-0.9,2.9-1.5,2.9c-0.7,0-1.5,0-1.5-2.9v-8.2V44h-0.8h-4H518v0.8v7.7
				c0,5.5,2.3,8.3,7,8.3s6.9-2.7,6.9-8.3v-7.7V44L531.9,44z"/>
		</g>
		<g>
			<polygon class="st6" points="542.2,60.1 539.1,54.7 538.1,56.1 538.1,60.1 533.4,60.1 533.4,44.4 538.1,44.4 538.1,49.3 
				541.4,44.4 546.6,44.4 541.9,50.9 547.4,60.1 			"/>
			<path class="st3" d="M545.9,44.8l-4.5,6.1l5.3,8.9h-4.3l-3.3-5.8l-1.4,2v3.7h-4V44.8h4v5.6h0.1l3.8-5.6L545.9,44.8 M547.4,44
				h-1.5h-4.3h-0.4l-0.2,0.3l-2.5,3.7v-3.3V44h-0.8h-4H533v0.8v15v0.8h0.8h4h0.8v-0.8v-3.5l0.6-0.9l2.7,4.7l0.2,0.4h0.4h4.3h1.3
				l-0.7-1.1l-5.1-8.4l4.2-5.7L547.4,44L547.4,44z"/>
		</g>
		<g>
			<path class="st6" d="M553.2,60.4c-4.5,0-7.3-3.2-7.3-8.2s2.8-8.1,7.3-8.1s7.3,3.1,7.3,8.1S557.7,60.4,553.2,60.4z M553.2,48.3
				c-1.6,0-2.5,1.4-2.5,3.9c0,2.5,1,4,2.5,4c1.6,0,2.5-1.6,2.5-4C555.8,49.7,554.8,48.3,553.2,48.3z"/>
			<path class="st3" d="M553.2,44.5c4.1,0,6.9,2.8,6.9,7.7c0,4.9-2.8,7.8-6.9,7.8c-4.1,0-6.9-2.9-6.9-7.8S549.1,44.5,553.2,44.5
				 M553.2,56.6c1.8,0,2.9-1.7,2.9-4.4s-1.1-4.3-2.9-4.3c-1.8,0-2.9,1.6-2.9,4.3S551.4,56.6,553.2,56.6 M553.2,43.8
				c-4.8,0-7.7,3.2-7.7,8.4c0,5.2,3,8.6,7.7,8.6s7.7-3.4,7.7-8.6C560.9,47.1,557.9,43.8,553.2,43.8L553.2,43.8z M553.2,55.9
				c-1.6,0-2.2-1.9-2.2-3.7c0-1.1,0.2-3.5,2.2-3.5s2.2,2.5,2.2,3.5C555.4,54,554.8,55.9,553.2,55.9L553.2,55.9z"/>
		</g>
		<g>
			<polygon class="st6" points="560.5,60.1 560.5,57.2 566.3,48.5 561.1,48.5 561.1,44.4 572.3,44.4 572.3,47.3 566.5,56 572.3,56 
				572.3,60.1 			"/>
			<path class="st3" d="M571.9,44.8v2.4l-6.1,9.2h6.2v3.3h-11v-2.4l6.1-9.2h-5.5v-3.3L571.9,44.8 M572.6,44h-0.8h-10.4h-0.8v0.8v3.3
				v0.8h0.8h4.1l-5.4,8.1l-0.1,0.2v0.2v2.4v0.8h0.8h11h0.8v-0.8v-3.3v-0.8h-0.8h-4.8l5.4-8.1l0.1-0.2v-0.2v-2.4V44L572.6,44z"/>
		</g>
		<g>
			<polygon class="st6" points="573.1,60.1 573.1,44.4 583.5,44.4 583.5,48.5 577.8,48.5 577.8,50.1 582.7,50.1 582.7,54.1 
				577.8,54.1 577.8,56 583.7,56 583.7,60.1 			"/>
			<path class="st3" d="M583.1,44.8v3.3h-5.7v2.4h4.9v3.3h-4.9v2.7h5.9v3.3h-9.9V44.8H583.1 M583.9,44h-0.8h-9.7h-0.8v0.8v14.9v0.8
				h0.8h9.9h0.8v-0.8v-3.3v-0.8h-0.8h-5.2v-1.2h4.1h0.8v-0.8v-3.3v-0.8h-0.8h-4.1v-0.8h5h0.8v-0.8v-3.3V44L583.9,44z"/>
		</g>
	</g>
	<g>
		<path class="st6" d="M407.9,89.7c-2.2-3.6-3.2-7.1-3.2-11.1c0-4,1-7.6,3.2-11.1l0.2-0.3l2.4,1.1l-0.2,0.4c-1.7,2.9-2.6,6.3-2.6,10
			s0.9,7.1,2.6,10l0.2,0.4L408,90L407.9,89.7z"/>
		<path class="st3" d="M408.2,67.7l1.7,0.8c-1.8,3.1-2.6,6.7-2.6,10.2c0,3.5,0.8,7.1,2.6,10.2l-1.7,0.8c-2-3.3-3.2-6.7-3.2-10.9
			C405,74.4,406.2,70.9,408.2,67.7 M407.9,66.7l-0.3,0.6c-2.2,3.7-3.3,7.3-3.3,11.3s1,7.7,3.3,11.3l0.3,0.6l0.6-0.3l1.7-0.8l0.8-0.3
			l-0.4-0.7c-1.7-2.8-2.5-6.2-2.5-9.8c0-3.6,0.9-7,2.5-9.8L411,68l-0.8-0.3l-1.7-0.8L407.9,66.7L407.9,66.7z"/>
	</g>
	<g>
		<path class="st6" d="M426.2,85.6v-7.4c0-2.1-0.7-2.3-1.4-2.3c-0.6,0-1.3,0.4-2.1,1.2v8.5h-3.5v-7.4c0-2.1-0.7-2.3-1.4-2.3
			c-0.6,0-1.3,0.4-2.1,1.2v8.5h-3.5V73.1h3l0.2,1.3c0.9-0.8,2-1.5,3.4-1.5c1.6,0,2.7,0.6,3.4,1.8c1-1,2.2-1.8,3.7-1.8
			c1.8,0,4,0.9,4,5.1v7.8C429.7,85.6,426.2,85.6,426.2,85.6z"/>
		<path class="st3" d="M425.7,73.2c2.5,0,3.6,1.7,3.6,4.7v7.4h-2.8v-7c0-1.9-0.6-2.7-1.8-2.7c-0.8,0-1.6,0.5-2.5,1.5v8.2h-2.8v-7
			c0-1.9-0.6-2.7-1.8-2.7c-0.7,0-1.6,0.5-2.5,1.5v8.2h-2.8V73.5h2.3l0.2,1.6h0.1c1-1,2.1-1.9,3.6-1.9c1.7,0,2.7,0.8,3.3,2.1
			C423,74.1,424.2,73.2,425.7,73.2 M425.7,72.4c-1.5,0-2.6,0.7-3.6,1.6c-0.8-1.1-1.9-1.6-3.4-1.6c-1.3,0-2.3,0.5-3.1,1.2l0-0.2
			l-0.1-0.7h-0.7h-2.3h-0.8v0.8v11.8V86h0.8h2.8h0.8v-0.8v-7.9c0.8-0.8,1.4-1,1.7-1c0.5,0,1.1,0,1.1,1.9v7V86h0.8h2.8h0.8v-0.8v-7.9
			c0.7-0.7,1.2-1,1.7-1c0.5,0,1.1,0,1.1,1.9v7V86h0.8h2.8h0.8v-0.8v-7.4C430.1,73.1,427.3,72.4,425.7,72.4L425.7,72.4z"/>
	</g>
	<g>
		<path class="st6" d="M446.2,85.6v-7.4c0-2.1-0.7-2.3-1.4-2.3c-0.6,0-1.3,0.4-2.1,1.2v8.5h-3.5v-7.4c0-2.1-0.7-2.3-1.4-2.3
			c-0.6,0-1.3,0.4-2.1,1.2v8.5h-3.5V73.1h3l0.2,1.3c0.9-0.8,2-1.5,3.4-1.5c1.6,0,2.7,0.6,3.4,1.8c1-1,2.2-1.8,3.7-1.8
			c1.8,0,4,0.9,4,5.1v7.8C449.7,85.6,446.2,85.6,446.2,85.6z"/>
		<path class="st3" d="M445.7,73.2c2.5,0,3.6,1.7,3.6,4.7v7.4h-2.8v-7c0-1.9-0.6-2.7-1.8-2.7c-0.8,0-1.6,0.5-2.5,1.5v8.2h-2.8v-7
			c0-1.9-0.6-2.7-1.8-2.7c-0.7,0-1.6,0.5-2.5,1.5v8.2h-2.8V73.5h2.3l0.2,1.6h0.1c1-1,2.1-1.9,3.6-1.9c1.7,0,2.7,0.8,3.3,2.1
			C443,74.1,444.2,73.2,445.7,73.2 M445.7,72.4c-1.5,0-2.6,0.7-3.6,1.6c-0.8-1.1-1.9-1.6-3.4-1.6c-1.3,0-2.3,0.5-3.1,1.2l0-0.2
			l-0.1-0.7h-0.7h-2.3h-0.8v0.8v11.8V86h0.8h2.8h0.8v-0.8v-7.9c0.8-0.8,1.4-1,1.7-1c0.5,0,1.1,0,1.1,1.9v7V86h0.8h2.8h0.8v-0.8v-7.9
			c0.7-0.7,1.2-1,1.7-1c0.5,0,1.1,0,1.1,1.9v7V86h0.8h2.8h0.8v-0.8v-7.4C450.1,73.1,447.3,72.4,445.7,72.4L445.7,72.4z"/>
	</g>
	<g>
		<path class="st6" d="M457.3,85.9c-3,0-6-2.3-6-6.6c0-4.3,3-6.6,6-6.6s6,2.3,6,6.6C463.3,83.7,460.3,85.9,457.3,85.9z M457.3,75.8
			c-1.5,0-2.4,1.4-2.4,3.6c0,2.2,0.9,3.5,2.4,3.5s2.4-1.4,2.4-3.5C459.7,77.2,458.8,75.8,457.3,75.8z"/>
		<path class="st3" d="M457.3,73.2c2.9,0,5.6,2.3,5.6,6.2c0,3.9-2.7,6.2-5.6,6.2c-2.9,0-5.6-2.3-5.6-6.2
			C451.7,75.4,454.4,73.2,457.3,73.2 M457.3,83.3c1.7,0,2.8-1.6,2.8-3.9s-1-3.9-2.8-3.9c-1.7,0-2.8,1.6-2.8,3.9
			S455.6,83.3,457.3,83.3 M457.3,72.4c-3.2,0-6.4,2.4-6.4,6.9c0,4.6,3.2,6.9,6.4,6.9c3.2,0,6.4-2.4,6.4-6.9
			C463.6,74.8,460.4,72.4,457.3,72.4L457.3,72.4z M457.3,82.5c-1.5,0-2-1.6-2-3.2c0-1.5,0.5-3.2,2-3.2c1.5,0,2,1.7,2,3.2
			C459.3,80.1,459.2,82.5,457.3,82.5L457.3,82.5z"/>
	</g>
	<g>
		<path class="st6" d="M467.9,85.9c-2,0-3-1.2-3-3.7V67.9h3.5v14.4c0,0.3,0.1,0.6,0.2,0.6c0.1,0,0.2,0,0.4,0l0.4-0.1l0.5,2.8
			l-0.3,0.1C469.1,85.8,468.6,85.9,467.9,85.9z"/>
		<path class="st3" d="M468,68.3v14.1c0,0.7,0.3,0.9,0.6,0.9c0.1,0,0.2,0,0.4-0.1l0.4,2.1c-0.3,0.1-0.8,0.2-1.5,0.2
			c-2,0-2.7-1.3-2.7-3.3V68.3H468 M468.8,67.6H468h-2.8h-0.8v0.8v13.9c0,3.4,1.9,4.1,3.4,4.1c0.7,0,1.3-0.1,1.7-0.3l0.6-0.2
			l-0.1-0.6l-0.4-2.1l-0.1-0.8l-0.8,0.2c0,0-0.1,0-0.1,0c0,0,0-0.1,0-0.2V68.3L468.8,67.6L468.8,67.6z"/>
	</g>
	<g>
		<polygon class="st6" points="469.5,89.5 475.4,67.8 478,67.8 472.2,89.5 		"/>
		<path class="st3" d="M477.5,68.2l-5.6,20.9H470l5.6-20.9H477.5 M478.5,67.5h-1h-1.9h-0.6l-0.1,0.6l-5.6,20.9l-0.3,0.9h1h1.9h0.6
			l0.1-0.6l5.6-20.9L478.5,67.5L478.5,67.5z"/>
	</g>
	<g>
		<polygon class="st6" points="479.4,85.6 479.4,69.2 482.9,69.2 482.9,82.5 489.5,82.5 489.5,85.6 		"/>
		<path class="st3" d="M482.6,69.6v13.3h6.5v2.3h-9.3V69.6L482.6,69.6 M483.3,68.8h-0.8h-2.8H479v0.8v15.7V86h0.8h9.3h0.8v-0.8v-2.3
			v-0.8h-0.8h-5.8V69.6V68.8L483.3,68.8z"/>
	</g>
	<g>
		<path class="st6" d="M490.1,89l0.2-0.4c1.7-2.9,2.6-6.3,2.6-10s-0.9-7.1-2.6-10l-0.2-0.4l2.4-1.1l0.2,0.3
			c2.2,3.6,3.2,7.1,3.2,11.1c0,4-1,7.6-3.2,11.1l-0.2,0.3L490.1,89z"/>
		<path class="st3" d="M492.3,67.7c2,3.3,3.2,6.7,3.2,10.9c0,4.2-1.2,7.7-3.2,10.9l-1.7-0.8c1.8-3.1,2.6-6.7,2.6-10.2
			c0-3.5-0.8-7.1-2.6-10.2L492.3,67.7 M492.6,66.7L492,67l-1.7,0.8l-0.8,0.3l0.4,0.7c1.7,2.8,2.5,6.2,2.5,9.8c0,3.6-0.9,7-2.5,9.8
			l-0.4,0.7l0.8,0.3l1.7,0.8l0.6,0.3l0.3-0.6c2.2-3.7,3.3-7.2,3.3-11.3c0-4.1-1-7.7-3.3-11.3L492.6,66.7L492.6,66.7z"/>
	</g>
</g>
</svg>
