<?xml version="1.0" encoding="utf-8"?>
<!-- Generator: Adobe Illustrator 23.0.1, SVG Export Plug-In . SVG Version: 6.00 Build 0)  -->
<svg version="1.1" id="Layer_1" xmlns="http://www.w3.org/2000/svg" xmlns:xlink="http://www.w3.org/1999/xlink" x="0px" y="0px"
	 viewBox="0 0 409.78 369.67" style="enable-background:new 0 0 409.78 369.67;" xml:space="preserve">
<style type="text/css">
	.st0{fill:#F0FEFA;}
	.st1{fill:#EFFDF9;}
	.st2{opacity:0.8;}
	.st3{fill:#77F3CF;}
	.st4{fill:none;stroke:#77F3CF;stroke-width:4;stroke-miterlimit:10;}
	.st5{fill:#FFFFFF;}
	.st6{fill:#6D6F72;}
</style>
<path class="st0" d="M362.35,351.23H45.85c-16.58,0-30.02-13.44-30.02-30.02V48.18c0-16.58,13.44-30.02,30.02-30.02h316.49
	c16.58,0,30.02,13.44,30.02,30.02v273.02C392.37,337.79,378.93,351.23,362.35,351.23z"/>
<polygon class="st1" points="30.92,349.49 132.22,267.2 274.33,247.52 390.75,175.96 390.75,349.49 "/>
<path class="st1" d="M77.82,349.49l88.09-39.02l123.6-9.33l101.24-33.93v56.64c0,14.16-11.48,25.65-25.65,25.65H77.82z"/>
<g class="st2">
	<path class="st3" d="M16.15,115.86V48.18c0-16.58,13.44-30.02,30.02-30.02h316.49c16.58,0,30.02,13.44,30.02,30.02v67.67"/>
	<line class="st3" x1="16.15" y1="115.86" x2="392.69" y2="115.86"/>
	<line class="st3" x1="16.15" y1="115.86" x2="15.9" y2="115.86"/>
</g>
<path class="st4" d="M362.35,351.23H45.85c-16.58,0-30.02-13.44-30.02-30.02V48.18c0-16.58,13.44-30.02,30.02-30.02h316.49
	c16.58,0,30.02,13.44,30.02,30.02v273.02C392.37,337.79,378.93,351.23,362.35,351.23z"/>
<line class="st4" x1="205.12" y1="18.16" x2="205.12" y2="351.23"/>
<line class="st4" x1="392.37" y1="115.86" x2="15.58" y2="115.86"/>
<line class="st4" x1="392.37" y1="173.87" x2="15.58" y2="173.87"/>
<line class="st4" x1="392.37" y1="231.87" x2="15.58" y2="231.87"/>
<line class="st4" x1="392.37" y1="289.88" x2="15.58" y2="289.88"/>
<g>
	<g>
		<path class="st5" d="M77.58,63.46l-4.83-16.35h5.17l1.7,7.1c0.22,0.84,0.4,1.68,0.59,2.52c0.08,0.37,0.16,0.75,0.25,1.12
			c0.11-0.47,0.21-0.94,0.32-1.4c0.17-0.74,0.33-1.48,0.52-2.24l1.65-7.1h5.02l-4.83,16.35H77.58z"/>
		<path class="st3" d="M87.46,47.48l-4.61,15.6h-4.99l-4.61-15.6h4.37l1.63,6.82c0.43,1.66,0.72,3.26,1.15,4.94h0.1
			c0.43-1.68,0.74-3.29,1.15-4.94l1.58-6.82H87.46 M88.47,46.73h-1h-4.22h-0.6l-0.13,0.58l-1.58,6.82c-0.16,0.67-0.32,1.33-0.46,2
			c-0.15-0.66-0.3-1.34-0.48-2.02l-1.63-6.8l-0.14-0.58h-0.59h-4.37h-1l0.28,0.96l4.61,15.6l0.16,0.54h0.56h4.99h0.56l0.16-0.54
			l4.61-15.6L88.47,46.73L88.47,46.73z"/>
	</g>
	<g>
		<path class="st5" d="M96.28,63.46l-2.69-5.23h-0.98v5.23h-4.88V47.11h6.28c4.33,0,6.62,1.87,6.62,5.42c0,2.06-0.83,3.65-2.4,4.64
			l3.53,6.3H96.28z M93.73,54.21c1.43,0,2.12-0.55,2.12-1.69c0-0.86-0.35-1.4-2.12-1.4h-1.11v3.09H93.73z"/>
		<path class="st3" d="M94.01,47.48c3.36,0,6.24,1.15,6.24,5.04c0,2.23-1.01,3.68-2.53,4.5l3.39,6.06h-4.61l-2.69-5.23h-1.59v5.23
			h-4.13v-15.6H94.01 M92.24,54.59h1.49c1.63,0,2.5-0.72,2.5-2.06s-0.86-1.78-2.5-1.78h-1.49V54.59 M94.01,46.73h-5.9h-0.75v0.75
			v15.6v0.75h0.75h4.13h0.75v-0.75V58.6h0.38l2.48,4.82l0.21,0.41h0.46h4.61h1.28l-0.62-1.12l-3.04-5.44
			c1.49-1.06,2.28-2.69,2.28-4.76C101,48.79,98.52,46.73,94.01,46.73L94.01,46.73z M92.99,51.5h0.74c1.75,0,1.75,0.52,1.75,1.03
			c0,0.39,0,1.31-1.75,1.31h-0.74V51.5L92.99,51.5z"/>
	</g>
	<g>
		<polygon class="st5" points="102.25,63.46 102.25,47.11 113.08,47.11 113.08,51.32 107.13,51.32 107.13,53.01 112.22,53.01 
			112.22,57.22 107.13,57.22 107.13,59.25 113.32,59.25 113.32,63.46 		"/>
		<path class="st3" d="M112.71,47.48v3.46h-5.95v2.45h5.09v3.46h-5.09v2.78h6.19v3.46h-10.32v-15.6H112.71 M113.46,46.73h-0.75
			h-10.08h-0.75v0.75v15.6v0.75h0.75h10.32h0.75v-0.75v-3.46v-0.75h-0.75h-5.44V57.6h4.34h0.75v-0.75v-3.46v-0.75h-0.75h-4.34v-0.95
			h5.2h0.75v-0.75v-3.46V46.73L113.46,46.73z"/>
	</g>
	<g>
		<path class="st5" d="M126.42,63.46v-4.98c0-0.73,0.07-1.65,0.17-2.57l-0.3,0.87l-2.01,5.41h-2.73l-2.01-5.4l-0.24-0.72
			c0.09,0.87,0.15,1.72,0.15,2.42v4.98H115V47.11h5.05l2.44,6.63c0.16,0.49,0.31,1,0.46,1.52c0.02,0.07,0.04,0.13,0.06,0.2
			c0.02-0.07,0.04-0.13,0.06-0.2c0.15-0.51,0.29-1.02,0.45-1.5l2.35-6.64h5.06v16.35H126.42z"/>
		<path class="st3" d="M130.54,47.48v15.6h-3.74v-4.61c0-1.58,0.34-4.01,0.53-5.57h-0.1l-1.3,3.74l-1.92,5.16h-2.21l-1.92-5.16
			l-1.25-3.74h-0.1c0.19,1.56,0.53,3.98,0.53,5.57v4.61h-3.7v-15.6h4.42l2.35,6.38c0.29,0.86,0.53,1.82,0.82,2.74h0.1
			c0.29-0.91,0.53-1.87,0.82-2.74l2.26-6.38H130.54 M131.29,46.73h-0.75h-4.42h-0.53l-0.18,0.5l-2.26,6.38
			c-0.05,0.16-0.11,0.33-0.16,0.49c-0.05-0.16-0.1-0.32-0.15-0.48l-2.36-6.41l-0.18-0.49h-0.52h-4.42h-0.75v0.75v15.6v0.75h0.75h3.7
			h0.75v-0.75v-4.46l1.28,3.45l0.18,0.49h0.52h2.21h0.52l0.18-0.49l1.33-3.58v4.59v0.75h0.75h3.74h0.75v-0.75v-15.6V46.73
			L131.29,46.73z"/>
	</g>
	<g>
		<polygon class="st5" points="133.02,63.46 133.02,47.11 143.85,47.11 143.85,51.32 137.9,51.32 137.9,53.01 142.99,53.01 
			142.99,57.22 137.9,57.22 137.9,59.25 144.09,59.25 144.09,63.46 		"/>
		<path class="st3" d="M143.48,47.48v3.46h-5.95v2.45h5.09v3.46h-5.09v2.78h6.19v3.46H133.4v-15.6H143.48 M144.23,46.73h-0.75H133.4
			h-0.75v0.75v15.6v0.75h0.75h10.32h0.75v-0.75v-3.46v-0.75h-0.75h-5.44V57.6h4.34h0.75v-0.75v-3.46v-0.75h-0.75h-4.34v-0.95h5.2
			h0.75v-0.75v-3.46V46.73L144.23,46.73z"/>
	</g>
	<g>
		<path class="st5" d="M40.11,87.75c-4.61,0-6.86-2.68-6.86-8.2v-8.44h4.88v8.92c0,2.85,0.76,3.42,1.98,3.42
			c1.22,0,2.02-0.58,2.02-3.42v-8.92h4.73v8.44C46.87,85.07,44.66,87.75,40.11,87.75z"/>
		<path class="st3" d="M46.49,71.48v8.06c0,5.33-2.02,7.82-6.38,7.82c-4.37,0-6.48-2.5-6.48-7.82v-8.06h4.13v8.54
			c0,2.78,0.72,3.79,2.35,3.79c1.63,0,2.4-1.01,2.4-3.79v-8.54H46.49 M47.24,70.73h-0.75h-3.98h-0.75v0.75v8.54
			c0,3.04-0.95,3.04-1.65,3.04c-0.71,0-1.6,0-1.6-3.04v-8.54v-0.75h-0.75h-4.13h-0.75v0.75v8.06c0,5.69,2.43,8.57,7.23,8.57
			c4.8,0,7.13-2.8,7.13-8.57v-8.06V70.73L47.24,70.73z"/>
	</g>
	<g>
		<polygon class="st5" points="47.92,87.46 47.92,84.48 53.98,75.32 48.54,75.32 48.54,71.11 60.14,71.11 60.14,74.09 54.08,83.25 
			60.19,83.25 60.19,87.46 		"/>
		<path class="st3" d="M59.77,71.48v2.5l-6.38,9.65h6.43v3.46H48.29v-2.5l6.38-9.65h-5.76v-3.46H59.77 M60.52,70.73h-0.75H48.92
			h-0.75v0.75v3.46v0.75h0.75h4.37l-5.61,8.49l-0.12,0.19v0.23v2.5v0.75h0.75h11.52h0.75v-0.75v-3.46v-0.75h-0.75h-5.04l5.61-8.49
			l0.12-0.19v-0.23v-2.5V70.73L60.52,70.73z"/>
	</g>
	<g>
		<path class="st5" d="M67.76,87.75c-4.63,0-7.62-3.35-7.62-8.54c0-5.18,2.92-8.39,7.62-8.39s7.62,3.22,7.62,8.39
			C75.38,84.4,72.39,87.75,67.76,87.75z M67.76,75.12c-1.68,0-2.65,1.49-2.65,4.09c0,2.61,1.02,4.23,2.65,4.23s2.65-1.62,2.65-4.23
			C70.41,76.61,69.44,75.12,67.76,75.12z"/>
		<path class="st3" d="M67.76,71.2c4.32,0,7.25,2.9,7.25,8.02c0,5.14-2.93,8.16-7.25,8.16s-7.25-3.02-7.25-8.16
			C60.51,74.08,63.44,71.2,67.76,71.2 M67.76,83.82c1.87,0,3.02-1.78,3.02-4.61c0-2.83-1.15-4.46-3.02-4.46s-3.02,1.63-3.02,4.46
			C64.73,82.05,65.89,83.82,67.76,83.82 M67.76,70.45c-4.93,0-8,3.36-8,8.77c0,5.41,3.14,8.91,8,8.91s8-3.5,8-8.91
			C75.76,73.89,72.62,70.45,67.76,70.45L67.76,70.45z M67.76,83.07c-1.68,0-2.27-1.99-2.27-3.86c0-1.12,0.22-3.71,2.27-3.71
			s2.27,2.6,2.27,3.71C70.03,81.08,69.43,83.07,67.76,83.07L67.76,83.07z"/>
	</g>
	<g>
		<path class="st5" d="M85.36,87.46l-2.69-5.23h-0.98v5.23h-4.88V71.11h6.28c4.33,0,6.62,1.87,6.62,5.42c0,2.06-0.83,3.65-2.4,4.64
			l3.53,6.3H85.36z M82.81,78.21c1.43,0,2.12-0.55,2.12-1.69c0-0.86-0.35-1.4-2.12-1.4h-1.11v3.09H82.81z"/>
		<path class="st3" d="M83.09,71.48c3.36,0,6.24,1.15,6.24,5.04c0,2.23-1.01,3.68-2.53,4.5l3.39,6.06h-4.61l-2.69-5.23h-1.59v5.23
			h-4.13v-15.6H83.09 M81.32,78.59h1.49c1.63,0,2.5-0.72,2.5-2.06s-0.86-1.78-2.5-1.78h-1.49V78.59 M83.09,70.73h-5.9h-0.75v0.75
			v15.6v0.75h0.75h4.13h0.75v-0.75V82.6h0.38l2.48,4.82l0.21,0.41h0.46h4.61h1.28l-0.62-1.12l-3.04-5.44
			c1.49-1.06,2.28-2.69,2.28-4.76C90.08,72.79,87.6,70.73,83.09,70.73L83.09,70.73z M82.07,75.5h0.74c1.75,0,1.75,0.52,1.75,1.03
			c0,0.39,0,1.31-1.75,1.31h-0.74V75.5L82.07,75.5z"/>
	</g>
	<g>
		<polygon class="st5" points="100.56,87.46 97.29,81.78 96.21,83.32 96.21,87.46 91.33,87.46 91.33,71.11 96.21,71.11 96.21,76.21 
			99.67,71.11 105.12,71.11 100.18,77.84 105.96,87.46 		"/>
		<path class="st3" d="M104.38,71.48l-4.66,6.34l5.57,9.26h-4.51l-3.46-6l-1.49,2.11v3.89h-4.13v-15.6h4.13v5.81h0.1l3.94-5.81
			H104.38 M105.86,70.73h-1.48h-4.51h-0.4l-0.22,0.33l-2.66,3.93v-3.51v-0.75h-0.75h-4.13h-0.75v0.75v15.6v0.75h0.75h4.13h0.75
			v-0.75v-3.65l0.67-0.96l2.87,4.98l0.22,0.38h0.43h4.51h1.33l-0.68-1.14l-5.31-8.84l4.36-5.93L105.86,70.73L105.86,70.73z"/>
	</g>
	<g>
		<path class="st5" d="M112.04,87.75c-4.63,0-7.62-3.35-7.62-8.54c0-5.18,2.92-8.39,7.62-8.39s7.62,3.22,7.62,8.39
			C119.66,84.4,116.67,87.75,112.04,87.75z M112.04,75.12c-1.68,0-2.65,1.49-2.65,4.09c0,2.61,1.02,4.23,2.65,4.23
			s2.65-1.62,2.65-4.23C114.69,76.61,113.72,75.12,112.04,75.12z"/>
		<path class="st3" d="M112.04,71.2c4.32,0,7.25,2.9,7.25,8.02c0,5.14-2.93,8.16-7.25,8.16s-7.25-3.02-7.25-8.16
			C104.79,74.08,107.72,71.2,112.04,71.2 M112.04,83.82c1.87,0,3.02-1.78,3.02-4.61c0-2.83-1.15-4.46-3.02-4.46
			s-3.02,1.63-3.02,4.46C109.01,82.05,110.17,83.82,112.04,83.82 M112.04,70.45c-4.93,0-8,3.36-8,8.77c0,5.41,3.14,8.91,8,8.91
			s8-3.5,8-8.91C120.04,73.89,116.9,70.45,112.04,70.45L112.04,70.45z M112.04,83.07c-1.68,0-2.27-1.99-2.27-3.86
			c0-1.12,0.22-3.71,2.27-3.71s2.27,2.6,2.27,3.71C114.31,81.08,113.71,83.07,112.04,83.07L112.04,83.07z"/>
	</g>
	<g>
		<path class="st5" d="M123.59,87.46l-4.83-16.35h5.17l1.7,7.1c0.22,0.84,0.4,1.68,0.59,2.52c0.08,0.37,0.16,0.74,0.25,1.12
			c0.11-0.47,0.21-0.94,0.32-1.4c0.17-0.74,0.33-1.48,0.52-2.24l1.65-7.1h5.02l-4.83,16.35H123.59z"/>
		<path class="st3" d="M133.47,71.48l-4.61,15.6h-4.99l-4.61-15.6h4.37l1.63,6.82c0.43,1.66,0.72,3.26,1.15,4.94h0.1
			c0.43-1.68,0.74-3.29,1.15-4.94l1.58-6.82H133.47 M134.47,70.73h-1h-4.22h-0.6l-0.13,0.58l-1.58,6.82c-0.16,0.67-0.32,1.33-0.46,2
			c-0.15-0.66-0.3-1.34-0.48-2.02l-1.63-6.8l-0.14-0.58h-0.59h-4.37h-1l0.28,0.96l4.61,15.6l0.16,0.54h0.56h4.99h0.56l0.16-0.54
			l4.61-15.6L134.47,70.73L134.47,70.73z"/>
	</g>
	<g>
		<path class="st5" d="M141.74,87.46l-0.78-3.31h-3.76l-0.78,3.31h-5.03l4.98-16.35h5.55l4.98,16.35H141.74z M140.04,80.21
			l-0.15-0.62c-0.21-0.81-0.42-1.75-0.63-2.7c-0.06-0.28-0.12-0.55-0.19-0.83c-0.25,1.2-0.53,2.47-0.81,3.53l-0.14,0.61H140.04z"/>
		<path class="st3" d="M141.65,71.48l4.75,15.6h-4.37l-0.78-3.31h-4.35l-0.78,3.31h-4.22l4.75-15.6H141.65 M137.65,80.58h2.86
			l-0.25-1.08c-0.38-1.49-0.77-3.38-1.15-4.94h-0.1c-0.34,1.58-0.72,3.46-1.1,4.94L137.65,80.58 M142.21,70.73h-0.56h-4.99h-0.56
			l-0.16,0.53l-4.75,15.6l-0.3,0.97h1.01h4.22h0.59l0.14-0.58l0.64-2.73h3.16l0.64,2.73l0.14,0.58h0.59h4.37h1.01l-0.3-0.97
			l-4.75-15.6L142.21,70.73L142.21,70.73z M138.6,79.83l0.04-0.16c0.15-0.58,0.3-1.21,0.45-1.87c0.15,0.66,0.3,1.3,0.45,1.89
			l0.03,0.14H138.6L138.6,79.83z"/>
	</g>
	<g>
		<path class="st5" d="M155.27,87.46l-3.56-7.19l-0.61-1.43c0.14,1.24,0.27,2.55,0.27,3.74v4.89h-4.69V71.11h4.83l3.56,7.17
			l0.6,1.42c-0.14-1.22-0.26-2.54-0.26-3.7v-4.89h4.69v16.35H155.27z"/>
		<path class="st3" d="M159.73,71.48v15.6h-4.22l-3.46-6.98l-1.49-3.48h-0.1c0.19,1.78,0.53,4.03,0.53,5.95v4.51h-3.94v-15.6h4.22
			l3.46,6.96l1.49,3.5h0.1c-0.19-1.68-0.53-4.03-0.53-5.95v-4.51H159.73 M160.48,70.73h-0.75h-3.94h-0.75v0.75V76
			c0,0.48,0.02,0.98,0.05,1.49l-3.14-6.33l-0.21-0.42h-0.46h-4.22h-0.75v0.75v15.6v0.75h0.75h3.94h0.75v-0.75v-4.51
			c0-0.49-0.02-1-0.06-1.51l3.15,6.36l0.21,0.42h0.47h4.22h0.75v-0.75v-15.6V70.73L160.48,70.73z"/>
	</g>
	<g>
		<path class="st5" d="M166.42,87.75c-2.62,0-4.41-1-5.65-3.14l-0.17-0.29l3.4-2.55l0.2,0.39c0.5,0.95,1.17,1.29,1.64,1.29
			c0.74,0,1.35-0.16,1.35-2.12V71.11h4.88v10.55C172.08,85.36,169.86,87.75,166.42,87.75z"/>
		<path class="st3" d="M171.7,71.48v10.18c0,3.12-1.68,5.71-5.28,5.71c-2.54,0-4.18-0.96-5.33-2.95l2.78-2.09
			c0.53,1.01,1.3,1.49,1.97,1.49c1.1,0,1.73-0.53,1.73-2.5v-9.84H171.7 M172.45,70.73h-0.75h-4.13h-0.75v0.75v9.84
			c0,1.75-0.48,1.75-0.98,1.75c-0.34,0-0.88-0.28-1.3-1.09l-0.41-0.78l-0.71,0.53l-2.78,2.09l-0.53,0.4l0.33,0.58
			c1.31,2.27,3.21,3.33,5.98,3.33c3.66,0,6.03-2.54,6.03-6.46V71.48V70.73L172.45,70.73z"/>
	</g>
	<g>
		<path class="st5" d="M182.32,87.46l-0.78-3.31h-3.76l-0.78,3.31h-5.03l4.98-16.35h5.55l4.98,16.35H182.32z M180.62,80.21
			l-0.15-0.62c-0.21-0.81-0.42-1.75-0.63-2.7c-0.06-0.28-0.12-0.55-0.19-0.83c-0.25,1.2-0.53,2.47-0.81,3.53l-0.14,0.61H180.62z"/>
		<path class="st3" d="M182.24,71.48l4.75,15.6h-4.37l-0.78-3.31h-4.35l-0.78,3.31h-4.22l4.75-15.6H182.24 M178.24,80.58h2.86
			l-0.25-1.08c-0.38-1.49-0.77-3.38-1.15-4.94h-0.1c-0.34,1.58-0.72,3.46-1.1,4.94L178.24,80.58 M182.79,70.73h-0.56h-4.99h-0.56
			l-0.16,0.53l-4.75,15.6l-0.3,0.97h1.01h4.22h0.59l0.14-0.58l0.64-2.73h3.16l0.64,2.73l0.14,0.58h0.59h4.37H188l-0.3-0.97
			l-4.75-15.6L182.79,70.73L182.79,70.73z M179.19,79.83l0.04-0.16c0.15-0.58,0.3-1.21,0.44-1.87c0.15,0.66,0.3,1.3,0.45,1.89
			l0.03,0.14H179.19L179.19,79.83z"/>
	</g>
</g>
<g>
	<g>
		<path class="st6" d="M83.04,137.56h2.07l5.7,9.9l1.7,3.26h0.1c-0.1-1.59-0.25-3.36-0.25-5.01v-8.15h1.9v15.75h-2.07l-5.7-9.91
			l-1.7-3.25h-0.1c0.1,1.59,0.25,3.27,0.25,4.92v8.24h-1.9V137.56z"/>
		<path class="st6" d="M97.42,150.28c0-2.54,2.19-3.81,7.17-4.35c0-1.5-0.5-2.95-2.41-2.95c-1.35,0-2.56,0.64-3.48,1.25l-0.77-1.35
			c1.07-0.71,2.71-1.52,4.58-1.52c2.85,0,4.05,1.89,4.05,4.8v7.16h-1.63l-0.17-1.4h-0.07c-1.11,0.92-2.41,1.68-3.86,1.68
			C98.88,153.6,97.42,152.39,97.42,150.28z M104.58,150.46v-3.24c-3.91,0.47-5.23,1.43-5.23,2.92c0,1.33,0.9,1.87,2.04,1.87
			C102.52,152.01,103.45,151.46,104.58,150.46z"/>
		<path class="st6" d="M108.7,151.98l0.97-1.3c1.01,0.82,2.04,1.38,3.44,1.38c1.53,0,2.29-0.82,2.29-1.81c0-1.2-1.38-1.73-2.67-2.21
			c-1.63-0.6-3.48-1.4-3.48-3.37c0-1.87,1.5-3.31,4.02-3.31c1.45,0,2.72,0.6,3.63,1.31l-0.94,1.26c-0.8-0.59-1.63-1.04-2.66-1.04
			c-1.47,0-2.15,0.78-2.15,1.67c0,1.11,1.27,1.53,2.59,2.02c1.68,0.63,3.56,1.32,3.56,3.54c0,1.89-1.5,3.47-4.26,3.47
			C111.4,153.6,109.8,152.9,108.7,151.98z M109.59,136.18l0.84-0.77l2.83,2.71h0.1l2.83-2.71l0.84,0.77l-2.73,3.35h-1.98
			L109.59,136.18z"/>
		<path class="st6" d="M120.16,149.7v-6.45h-1.74v-1.49l1.82-0.11l0.24-3.27h1.65v3.27h3.16v1.61h-3.16v6.49
			c0,1.43,0.46,2.25,1.8,2.25c0.41,0,0.95-0.16,1.33-0.31l0.38,1.49c-0.65,0.22-1.44,0.43-2.17,0.43
			C121,153.6,120.16,152.02,120.16,149.7z"/>
		<path class="st6" d="M126.82,147.49c0-3.8,2.56-6.14,5.25-6.14c2.98,0,4.66,2.14,4.66,5.48c0,0.42-0.04,0.83-0.09,1.12h-7.86
			c0.14,2.47,1.65,4.07,3.88,4.07c1.12,0,2.04-0.36,2.9-0.93l0.71,1.3c-1.02,0.67-2.27,1.21-3.85,1.21
			C129.29,153.6,126.82,151.32,126.82,147.49z M134.97,146.54c0-2.34-1.05-3.61-2.88-3.61c-1.64,0-3.11,1.32-3.35,3.61H134.97z"/>
	</g>
</g>
<g>
	<g>
		<path class="st6" d="M280.38,151.5l0.97-1.29c0.91,0.91,2.06,1.74,3.86,1.74c1.87,0,3.35-1.35,3.35-3.49
			c0-2.12-1.29-3.36-3.25-3.36c-1.06,0-1.72,0.33-2.63,0.93l-1.05-0.67l0.51-7.37h7.66v1.7h-5.93l-0.4,4.54
			c0.71-0.39,1.41-0.63,2.35-0.63c2.61,0,4.74,1.49,4.74,4.8c0,3.32-2.5,5.19-5.15,5.19C282.95,153.6,281.45,152.56,280.38,151.5z"
			/>
		<path class="st6" d="M292.61,156.23c1.35-0.59,2.17-1.65,2.16-2.98l-0.21-1.77l0.97,1.44c-0.26,0.32-0.62,0.41-1,0.41
			c-0.76,0-1.43-0.48-1.43-1.38c0-0.86,0.68-1.38,1.46-1.38c1.05,0,1.67,0.88,1.67,2.32c0,2.07-1.21,3.69-3.14,4.49L292.61,156.23z"
			/>
		<path class="st6" d="M297.85,151.44l0.99-1.29c0.92,0.96,2.12,1.8,3.91,1.8c1.86,0,3.18-1.09,3.18-2.81
			c0-1.82-1.25-3.04-4.88-3.04v-1.52c3.24,0,4.34-1.25,4.34-2.85c0-1.49-1.02-2.42-2.65-2.42c-1.28,0-2.37,0.64-3.26,1.55
			l-1.06-1.25c1.18-1.1,2.59-1.91,4.4-1.91c2.66,0,4.58,1.41,4.58,3.89c0,1.84-1.12,3.02-2.78,3.64v0.1
			c1.85,0.44,3.32,1.79,3.32,3.89c0,2.73-2.25,4.37-5.06,4.37C300.42,153.6,298.88,152.57,297.85,151.44z"/>
	</g>
</g>
<g>
	<g>
		<path class="st6" d="M98.77,206.62h3.51v-11.27h-2.79v-1.27c1.39-0.25,2.41-0.62,3.26-1.12h1.51v13.66h3.16v1.64h-8.64V206.62z"/>
		<path class="st6" d="M110.54,191.16h1.97v4.68l-0.07,2.4c1.09-1.05,2.27-1.93,3.87-1.93c2.46,0,3.56,1.59,3.56,4.56v7.39h-1.97
			v-7.14c0-2.17-0.66-3.1-2.2-3.1c-1.19,0-2.02,0.61-3.19,1.79v8.45h-1.97V191.16z"/>
	</g>
</g>
<g>
	<g>
		<path class="st6" d="M275.84,206.62h3.51v-11.27h-2.79v-1.27c1.39-0.25,2.41-0.62,3.26-1.12h1.51v13.66h3.16v1.64h-8.64V206.62z"
			/>
		<path class="st6" d="M286.69,200.55c0-5.13,1.85-7.89,4.91-7.89c3.06,0,4.91,2.76,4.91,7.89c0,5.13-1.85,8-4.91,8
			C288.54,208.55,286.69,205.69,286.69,200.55z M294.59,200.55c0-4.49-1.21-6.29-2.99-6.29s-2.99,1.81-2.99,6.29
			s1.21,6.41,2.99,6.41S294.59,205.04,294.59,200.55z"/>
		<path class="st6" d="M298.46,211.18c1.35-0.59,2.17-1.65,2.16-2.98l-0.21-1.77l0.97,1.44c-0.26,0.32-0.62,0.41-1,0.41
			c-0.76,0-1.43-0.48-1.43-1.38c0-0.86,0.68-1.38,1.46-1.38c1.05,0,1.67,0.88,1.67,2.32c0,2.07-1.21,3.69-3.14,4.49L298.46,211.18z"
			/>
		<path class="st6" d="M304.12,200.55c0-5.13,1.85-7.89,4.91-7.89c3.06,0,4.91,2.76,4.91,7.89c0,5.13-1.85,8-4.91,8
			C305.97,208.55,304.12,205.69,304.12,200.55z M312.01,200.55c0-4.49-1.21-6.29-2.99-6.29s-2.99,1.81-2.99,6.29
			s1.21,6.41,2.99,6.41S312.01,205.04,312.01,200.55z"/>
	</g>
</g>
<g>
	<g>
		<path class="st6" d="M97.84,268.35c4.6-4.59,7.2-7.34,7.2-9.83c0-1.75-0.95-2.99-2.9-2.99c-1.28,0-2.38,0.81-3.25,1.83l-1.15-1.12
			c1.28-1.41,2.66-2.33,4.64-2.33c2.83,0,4.6,1.79,4.6,4.51c0,2.87-2.64,5.73-6.25,9.52c0.83-0.07,1.78-0.13,2.57-0.13h4.43v1.7
			h-9.89V268.35z"/>
		<path class="st6" d="M110.54,252.42h1.97v4.68l-0.07,2.4c1.09-1.05,2.27-1.93,3.87-1.93c2.46,0,3.56,1.59,3.56,4.56v7.39h-1.97
			v-7.14c0-2.17-0.66-3.1-2.2-3.1c-1.19,0-2.02,0.61-3.19,1.79v8.45h-1.97V252.42z"/>
	</g>
</g>
<g>
	<g>
		<path class="st6" d="M280.77,265.6c0-1.99,1.45-3.35,2.89-4.12v-0.1c-1.14-0.79-2.14-1.92-2.14-3.54c0-2.35,1.87-3.93,4.33-3.93
			c2.68,0,4.33,1.69,4.33,4.07c0,1.6-1.17,2.98-2.11,3.69v0.1c1.37,0.81,2.66,1.89,2.66,3.93c0,2.3-1.97,4.09-4.93,4.09
			C282.9,269.81,280.77,268.04,280.77,265.6z M288.84,265.66c0-1.98-1.94-2.69-4.15-3.58c-1.23,0.8-2.14,1.93-2.14,3.34
			c0,1.69,1.41,2.92,3.28,2.92C287.63,268.34,288.84,267.24,288.84,265.66z M288.48,258.1c0-1.51-0.97-2.71-2.66-2.71
			c-1.43,0-2.48,0.98-2.48,2.46c0,1.83,1.7,2.6,3.53,3.33C287.9,260.25,288.48,259.23,288.48,258.1z"/>
		<path class="st6" d="M292.61,272.44c1.35-0.59,2.17-1.65,2.16-2.98l-0.21-1.77l0.97,1.44c-0.26,0.32-0.62,0.41-1,0.41
			c-0.76,0-1.43-0.48-1.43-1.38c0-0.86,0.68-1.38,1.46-1.38c1.05,0,1.67,0.88,1.67,2.32c0,2.07-1.21,3.69-3.14,4.49L292.61,272.44z"
			/>
		<path class="st6" d="M298.37,262.45c0-6.16,2.78-8.52,5.83-8.52c1.64,0,2.83,0.7,3.69,1.62l-1.1,1.23
			c-0.62-0.74-1.56-1.21-2.52-1.21c-2.2,0-4.05,1.75-4.05,6.88c0,3.76,1.22,5.8,3.42,5.8c1.5,0,2.66-1.34,2.66-3.36
			c0-2-0.94-3.25-2.83-3.25c-0.99,0-2.24,0.6-3.29,2.17l-0.07-1.56c0.96-1.29,2.39-2.09,3.69-2.09c2.65,0,4.37,1.59,4.37,4.73
			c0,2.93-2.07,4.91-4.52,4.91C300.64,269.81,298.37,267.36,298.37,262.45z"/>
	</g>
</g>
<g>
	<g>
		<path class="st6" d="M97.51,326.67l0.99-1.29c0.92,0.96,2.12,1.8,3.91,1.8c1.86,0,3.18-1.09,3.18-2.81c0-1.82-1.25-3.04-4.88-3.04
			v-1.52c3.24,0,4.34-1.25,4.34-2.85c0-1.49-1.02-2.42-2.65-2.42c-1.28,0-2.37,0.64-3.26,1.55l-1.06-1.25
			c1.18-1.1,2.59-1.91,4.4-1.91c2.66,0,4.58,1.41,4.58,3.89c0,1.84-1.12,3.02-2.78,3.64v0.1c1.85,0.44,3.32,1.79,3.32,3.89
			c0,2.73-2.25,4.37-5.06,4.37C100.09,328.83,98.54,327.8,97.51,326.67z"/>
		<path class="st6" d="M110.54,311.44h1.97v4.68l-0.07,2.4c1.09-1.05,2.27-1.93,3.87-1.93c2.46,0,3.56,1.59,3.56,4.56v7.39h-1.97
			v-7.14c0-2.17-0.66-3.1-2.2-3.1c-1.19,0-2.02,0.61-3.19,1.79v8.45h-1.97V311.44z"/>
	</g>
</g>
<g>
	<g>
		<path class="st6" d="M288.47,314.93h-7.62v-1.7h9.87v1.21c-3.63,4.64-4.37,8.13-4.63,14.1h-2.04
			C284.31,322.77,285.46,319.13,288.47,314.93z"/>
		<path class="st6" d="M292.61,331.46c1.35-0.59,2.17-1.65,2.16-2.98l-0.21-1.77l0.97,1.44c-0.26,0.32-0.62,0.41-1,0.41
			c-0.76,0-1.43-0.48-1.43-1.38c0-0.86,0.68-1.38,1.46-1.38c1.05,0,1.67,0.88,1.67,2.32c0,2.07-1.21,3.69-3.14,4.49L292.61,331.46z"
			/>
		<path class="st6" d="M298.19,324.63c0-1.99,1.45-3.35,2.89-4.12v-0.1c-1.14-0.79-2.14-1.92-2.14-3.54c0-2.35,1.87-3.93,4.33-3.93
			c2.68,0,4.33,1.69,4.33,4.07c0,1.6-1.17,2.98-2.11,3.69v0.1c1.37,0.81,2.66,1.89,2.66,3.93c0,2.3-1.97,4.09-4.93,4.09
			C300.32,328.83,298.19,327.06,298.19,324.63z M306.27,324.69c0-1.98-1.94-2.69-4.15-3.58c-1.23,0.8-2.14,1.93-2.14,3.34
			c0,1.69,1.41,2.92,3.28,2.92C305.05,327.36,306.27,326.27,306.27,324.69z M305.9,317.13c0-1.51-0.97-2.71-2.66-2.71
			c-1.43,0-2.48,0.98-2.48,2.46c0,1.83,1.7,2.6,3.53,3.33C305.33,319.27,305.9,318.25,305.9,317.13z"/>
	</g>
</g>
<g>
	<g>
		<polygon class="st5" points="223.38,55.64 220.26,50.21 219.24,51.66 219.24,55.64 214.53,55.64 214.53,39.94 219.24,39.94 
			219.24,44.8 222.53,39.94 227.79,39.94 223.04,46.41 228.59,55.64 		"/>
		<path class="st3" d="M227.05,40.32l-4.46,6.07l5.33,8.88h-4.32l-3.31-5.75l-1.43,2.02v3.73h-3.96V40.32h3.96v5.56h0.09l3.77-5.56
			H227.05 M228.53,39.57h-1.48h-4.32h-0.4l-0.22,0.33l-2.49,3.68v-3.26v-0.75h-0.75h-3.96h-0.75v0.75v14.95v0.75h0.75h3.96h0.75
			v-0.75v-3.49l0.61-0.87l2.72,4.73l0.22,0.38h0.43h4.32h1.33l-0.68-1.14l-5.08-8.45l4.17-5.67L228.53,39.57L228.53,39.57z"/>
	</g>
	<g>
		<path class="st5" d="M234.39,55.92c-4.45,0-7.32-3.22-7.32-8.19c0-4.97,2.8-8.06,7.32-8.06c4.52,0,7.32,3.09,7.32,8.06
			C241.71,52.7,238.83,55.92,234.39,55.92z M234.39,43.82c-1.6,0-2.52,1.42-2.52,3.9c0,2.49,0.97,4.04,2.52,4.04
			c1.56,0,2.52-1.55,2.52-4.04C236.91,45.24,235.99,43.82,234.39,43.82z"/>
		<path class="st3" d="M234.39,40.04c4.14,0,6.94,2.78,6.94,7.68c0,4.92-2.81,7.82-6.94,7.82c-4.14,0-6.94-2.9-6.94-7.82
			S230.25,40.04,234.39,40.04 M234.39,52.14c1.79,0,2.9-1.7,2.9-4.42s-1.1-4.28-2.9-4.28c-1.79,0-2.9,1.56-2.9,4.28
			S232.59,52.14,234.39,52.14 M234.39,39.29c-4.75,0-7.69,3.23-7.69,8.43c0,5.21,3.02,8.57,7.69,8.57c4.67,0,7.69-3.36,7.69-8.57
			C242.08,42.6,239.06,39.29,234.39,39.29L234.39,39.29z M234.39,51.39c-1.58,0-2.15-1.89-2.15-3.67c0-1.06,0.21-3.53,2.15-3.53
			c1.94,0,2.15,2.47,2.15,3.53C236.54,49.49,235.97,51.39,234.39,51.39L234.39,51.39z"/>
	</g>
	<g>
		<path class="st5" d="M251.29,55.64l-3.41-6.9l-0.54-1.27c0.13,1.16,0.24,2.37,0.24,3.48v4.7h-4.52v-15.7h4.65l3.42,6.88l0.54,1.26
			c-0.13-1.14-0.24-2.36-0.24-3.44v-4.7h4.52v15.7H251.29z"/>
		<path class="st3" d="M255.57,40.32v14.95h-4.05l-3.31-6.69l-1.43-3.33h-0.09c0.18,1.7,0.51,3.86,0.51,5.7v4.32h-3.77V40.32h4.05
			l3.31,6.67l1.43,3.36h0.09c-0.18-1.61-0.51-3.86-0.51-5.7v-4.32H255.57 M256.32,39.57h-0.75h-3.77h-0.75v0.75v4.32
			c0,0.41,0.02,0.84,0.04,1.27l-2.94-5.93l-0.21-0.42h-0.46h-4.05h-0.75v0.75v14.95v0.75h0.75h3.77h0.75v-0.75v-4.32
			c0-0.42-0.02-0.85-0.04-1.3l2.94,5.95l0.21,0.42h0.47h4.05h0.75v-0.75V40.32V39.57L256.32,39.57z"/>
	</g>
	<g>
		<path class="st5" d="M264.79,55.92c-3.73,0-7.5-2.48-7.5-8.01c0-5.41,3.82-8.24,7.6-8.24c2.46,0,4.13,1.31,4.91,2.09l0.24,0.24
			l-2.53,3.09l-0.29-0.26c-0.69-0.61-1.34-1.01-2.24-1.01c-1.44,0-2.89,1.36-2.89,3.95c0,2.5,1.06,3.99,2.84,3.99
			c1.11,0,1.94-0.64,2.44-1.17l0.29-0.31l2.54,3.05L270,53.58C268.69,55.11,266.88,55.92,264.79,55.92z"/>
		<path class="st3" d="M264.89,40.04c1.98,0,3.59,0.92,4.64,1.98l-2.07,2.53c-0.74-0.64-1.47-1.1-2.48-1.1
			c-1.75,0-3.27,1.61-3.27,4.32c0,2.81,1.29,4.37,3.22,4.37c1.15,0,2.07-0.6,2.71-1.29l2.07,2.48c-1.26,1.47-2.99,2.21-4.92,2.21
			c-3.82,0-7.13-2.53-7.13-7.63C257.67,42.89,261.11,40.04,264.89,40.04 M264.89,39.29c-3.96,0-7.97,2.96-7.97,8.61
			c0,5.79,3.96,8.38,7.88,8.38c2.2,0,4.1-0.85,5.49-2.47l0.41-0.48l-0.41-0.49l-2.07-2.48l-0.54-0.65l-0.58,0.62
			c-0.45,0.48-1.19,1.05-2.17,1.05c-2.23,0-2.47-2.53-2.47-3.62c0-2.1,1.03-3.57,2.52-3.57c0.78,0,1.36,0.37,1.99,0.92l0.58,0.51
			l0.49-0.6l2.07-2.53l0.43-0.53l-0.48-0.48C269.24,40.67,267.48,39.29,264.89,39.29L264.89,39.29z"/>
	</g>
	<g>
		<polygon class="st5" points="270.84,55.64 270.84,39.94 281.25,39.94 281.25,44.01 275.54,44.01 275.54,45.6 280.42,45.6 
			280.42,49.66 275.54,49.66 275.54,51.58 281.48,51.58 281.48,55.64 		"/>
		<path class="st3" d="M280.87,40.32v3.31h-5.7v2.35h4.88v3.31h-4.88v2.67h5.93v3.31h-9.89V40.32H280.87 M281.62,39.57h-0.75h-9.66
			h-0.75v0.75v14.95v0.75h0.75h9.89h0.75v-0.75v-3.31V51.2h-0.75h-5.18v-1.17h4.13h0.75v-0.75v-3.31v-0.75h-0.75h-4.13v-0.85h4.95
			h0.75v-0.75v-3.31V39.57L281.62,39.57z"/>
	</g>
	<g>
		<path class="st5" d="M291.29,55.64l-3.41-6.9l-0.54-1.27c0.13,1.16,0.24,2.37,0.24,3.48v4.7h-4.52v-15.7h4.65l3.42,6.88l0.54,1.26
			c-0.13-1.14-0.24-2.36-0.24-3.44v-4.7h4.52v15.7H291.29z"/>
		<path class="st3" d="M295.57,40.32v14.95h-4.05l-3.31-6.69l-1.43-3.33h-0.09c0.18,1.7,0.51,3.86,0.51,5.7v4.32h-3.77V40.32h4.05
			l3.31,6.67l1.43,3.36h0.09c-0.18-1.61-0.51-3.86-0.51-5.7v-4.32H295.57 M296.32,39.57h-0.75h-3.77h-0.75v0.75v4.32
			c0,0.41,0.02,0.84,0.04,1.27l-2.94-5.93l-0.21-0.42h-0.46h-4.05h-0.75v0.75v14.95v0.75h0.75h3.77h0.75v-0.75v-4.32
			c0-0.42-0.02-0.85-0.04-1.3l2.94,5.95l0.21,0.42h0.47h4.05h0.75v-0.75V40.32V39.57L296.32,39.57z"/>
	</g>
	<g>
		<polygon class="st5" points="300.78,55.64 300.78,44.01 296.83,44.01 296.83,39.94 309.44,39.94 309.44,44.01 305.49,44.01 
			305.49,55.64 		"/>
		<path class="st3" d="M309.07,40.32v3.31h-3.96v11.64h-3.96V43.63h-3.96v-3.31H309.07 M309.82,39.57h-0.75H297.2h-0.75v0.75v3.31
			v0.75h0.75h3.21v10.89v0.75h0.75h3.96h0.75v-0.75V44.38h3.21h0.75v-0.75v-3.31V39.57L309.82,39.57z"/>
	</g>
	<g>
		<path class="st5" d="M331.91,55.64l-0.74-3.17h-3.58l-0.74,3.17h-8.32l-2.57-5.01h-0.92v5.01h-4.71v-15.7h6.03
			c4.16,0,6.35,1.8,6.35,5.2c0,1.97-0.79,3.5-2.29,4.45l2.21,3.95l4.14-13.6h5.34l4.78,15.7H331.91z M330.27,48.66l-0.13-0.57
			c-0.2-0.78-0.4-1.68-0.61-2.58c-0.05-0.24-0.11-0.48-0.16-0.72c-0.24,1.13-0.5,2.32-0.76,3.31l-0.13,0.57H330.27z M316.08,46.75
			c1.36,0,2.02-0.52,2.02-1.6c0-0.84-0.33-1.33-2.02-1.33h-1.05v2.93H316.08z"/>
		<path class="st3" d="M331.84,40.32l4.55,14.95h-4.19l-0.74-3.17h-4.17l-0.74,3.17h-3.38h-0.66h-3.75l-2.57-5.01h-1.52v5.01h-3.96
			V40.32h5.66c3.22,0,5.98,1.1,5.98,4.83c0,2.13-0.97,3.52-2.42,4.31l2.82,5.04l4.32-14.18H331.84 M328.01,49.03h2.74L330.5,48
			c-0.37-1.43-0.74-3.24-1.1-4.74h-0.09c-0.32,1.52-0.69,3.31-1.06,4.74L328.01,49.03 M314.66,47.13h1.43
			c1.56,0,2.39-0.69,2.39-1.98s-0.83-1.7-2.39-1.7h-1.43V47.13 M332.39,39.57h-0.56h-4.78h-0.56l-0.16,0.53l-3.81,12.49l-1.61-2.88
			c1.42-1.03,2.17-2.59,2.17-4.56c0-3.6-2.39-5.58-6.73-5.58h-5.66h-0.75v0.75v14.95v0.75h0.75h3.96h0.75v-0.75V51h0.31l2.36,4.61
			l0.21,0.41h0.46h3.75h0.66h3.38h0.59l0.14-0.58l0.61-2.59h2.98l0.61,2.59l0.14,0.58h0.59h4.19h1.01l-0.3-0.97l-4.55-14.95
			L332.39,39.57L332.39,39.57z M315.41,44.2h0.68c1.64,0,1.64,0.46,1.64,0.95c0,0.4,0,1.23-1.64,1.23h-0.68V44.2L315.41,44.2z
			 M328.95,48.28l0.03-0.11c0.13-0.51,0.26-1.08,0.4-1.66c0.13,0.58,0.27,1.15,0.4,1.67l0.02,0.1H328.95L328.95,48.28z"/>
	</g>
	<g>
		<path class="st5" d="M343.5,55.92c-3.73,0-7.5-2.48-7.5-8.01c0-5.41,3.82-8.24,7.6-8.24c2.46,0,4.13,1.31,4.91,2.09l0.24,0.24
			l-2.53,3.09l-0.29-0.26c-0.69-0.61-1.34-1.01-2.24-1.01c-1.44,0-2.89,1.36-2.89,3.95c0,2.5,1.06,3.99,2.84,3.99
			c1.11,0,1.94-0.64,2.44-1.17l0.29-0.31l2.54,3.05l-0.21,0.24C347.39,55.11,345.59,55.92,343.5,55.92z"/>
		<path class="st3" d="M343.59,40.04c1.98,0,3.59,0.92,4.64,1.98l-2.07,2.53c-0.74-0.64-1.47-1.1-2.48-1.1
			c-1.75,0-3.27,1.61-3.27,4.32c0,2.81,1.29,4.37,3.22,4.37c1.15,0,2.07-0.6,2.71-1.29l2.07,2.48c-1.26,1.47-2.99,2.21-4.92,2.21
			c-3.82,0-7.13-2.53-7.13-7.63C336.37,42.89,339.82,40.04,343.59,40.04 M343.59,39.29c-3.96,0-7.97,2.96-7.97,8.61
			c0,5.79,3.96,8.38,7.88,8.38c2.2,0,4.1-0.85,5.49-2.47l0.41-0.48L349,52.85l-2.07-2.48l-0.54-0.65l-0.58,0.62
			c-0.45,0.48-1.19,1.05-2.17,1.05c-2.23,0-2.47-2.53-2.47-3.62c0-2.1,1.03-3.57,2.52-3.57c0.78,0,1.36,0.37,1.99,0.92l0.58,0.51
			l0.49-0.6l2.07-2.53l0.43-0.53l-0.48-0.48C347.95,40.67,346.18,39.29,343.59,39.29L343.59,39.29z"/>
	</g>
	<g>
		<rect x="349.54" y="39.94" class="st5" width="4.71" height="15.7"/>
		<path class="st3" d="M353.87,40.32v14.95h-3.96V40.32H353.87 M354.62,39.57h-0.75h-3.96h-0.75v0.75v14.95v0.75h0.75h3.96h0.75
			v-0.75V40.32V39.57L354.62,39.57z"/>
	</g>
	<g>
		<path class="st5" d="M360.29,55.92c-2.51,0-4.24-0.96-5.43-3.02l-0.17-0.29l3.29-2.47l0.2,0.39c0.47,0.9,1.11,1.22,1.55,1.22
			c0.7,0,1.28-0.15,1.28-2.02v-9.8h4.71v10.13C365.72,53.62,363.59,55.92,360.29,55.92z"/>
		<path class="st3" d="M365.35,40.32v9.75c0,2.99-1.61,5.47-5.06,5.47c-2.44,0-4-0.92-5.1-2.83l2.67-2
			c0.51,0.97,1.24,1.43,1.89,1.43c1.06,0,1.66-0.51,1.66-2.39v-9.43H365.35 M366.1,39.57h-0.75h-3.96h-0.75v0.75v9.43
			c0,1.64-0.42,1.64-0.91,1.64c-0.32,0-0.83-0.27-1.22-1.02l-0.41-0.78l-0.71,0.53l-2.67,2l-0.53,0.4l0.33,0.58
			c1.26,2.18,3.09,3.2,5.75,3.2c3.53,0,5.81-2.44,5.81-6.22v-9.75V39.57L366.1,39.57z"/>
	</g>
	<g>
		<path class="st5" d="M375.52,55.64l-0.74-3.17h-3.58l-0.74,3.17h-4.85l4.78-15.7h5.34l4.78,15.7H375.52z M373.88,48.66l-0.13-0.57
			c-0.2-0.78-0.4-1.68-0.61-2.58c-0.05-0.24-0.11-0.48-0.16-0.72c-0.24,1.13-0.5,2.32-0.76,3.31l-0.13,0.57H373.88z"/>
		<path class="st3" d="M375.45,40.32L380,55.27h-4.19l-0.74-3.17h-4.17l-0.74,3.17h-4.05l4.55-14.95H375.45 M371.62,49.03h2.74
			L374.11,48c-0.37-1.43-0.74-3.24-1.1-4.74h-0.09c-0.32,1.52-0.69,3.31-1.06,4.74L371.62,49.03 M376,39.57h-0.56h-4.78h-0.56
			l-0.16,0.53l-4.55,14.95l-0.3,0.97h1.01h4.05h0.59l0.14-0.58l0.61-2.59h2.98l0.61,2.59l0.14,0.58h0.59H380h1.01l-0.3-0.97
			l-4.55-14.95L376,39.57L376,39.57z M372.56,48.28l0.03-0.11c0.13-0.51,0.26-1.08,0.4-1.66c0.13,0.58,0.27,1.16,0.4,1.67l0.02,0.1
			H372.56L372.56,48.28z"/>
	</g>
	<g>
		<path class="st5" d="M258.77,75.92c-4.81,0-7.92-3.14-7.92-8.01c0-4.85,3.22-8.24,7.83-8.24c2.52,0,4.19,1.14,5.14,2.09l0.24,0.24
			l-2.53,3.09l-0.29-0.26c-0.71-0.62-1.37-1.01-2.42-1.01c-1.92,0-3.17,1.55-3.17,3.95c0,2.69,1.16,3.99,3.53,3.99
			c0.28,0,0.57-0.05,0.77-0.13v-1.47h-2.21V66.2h6.45v7.66l-0.12,0.11C262.83,75.17,260.79,75.92,258.77,75.92z"/>
		<path class="st3" d="M258.68,60.04c2.21,0,3.82,0.92,4.87,1.98l-2.07,2.53c-0.74-0.64-1.47-1.1-2.67-1.1
			c-2.02,0-3.54,1.61-3.54,4.32c0,2.81,1.24,4.37,3.91,4.37c0.41,0,0.87-0.09,1.15-0.28v-2.07h-2.21v-3.22h5.7v7.13
			c-1.06,1.01-2.94,1.84-5.06,1.84c-4.19,0-7.54-2.53-7.54-7.63C251.23,62.89,254.67,60.04,258.68,60.04 M258.68,59.29
			c-4.83,0-8.2,3.54-8.2,8.61c0,5.09,3.25,8.38,8.29,8.38c2.12,0,4.26-0.78,5.58-2.05l0.23-0.22V73.7v-7.13v-0.75h-0.75h-5.7h-0.75
			v0.75v3.22v0.75h0.75h1.46v0.81c-0.12,0.02-0.26,0.04-0.4,0.04c-1.36,0-3.16-0.38-3.16-3.62c0-2.17,1.1-3.57,2.79-3.57
			c0.94,0,1.51,0.34,2.17,0.92l0.58,0.51l0.49-0.6l2.07-2.53l0.43-0.53l-0.48-0.48C263.08,60.49,261.33,59.29,258.68,59.29
			L258.68,59.29z"/>
	</g>
	<g>
		<polygon class="st5" points="265.78,75.64 265.78,59.94 270.48,59.94 270.48,71.58 276.14,71.58 276.14,75.64 		"/>
		<path class="st3" d="M270.11,60.32v11.64h5.66v3.31h-9.61V60.32H270.11 M270.86,59.57h-0.75h-3.96h-0.75v0.75v14.95v0.75h0.75
			h9.61h0.75v-0.75v-3.31V71.2h-0.75h-4.91V60.32V59.57L270.86,59.57z"/>
	</g>
	<g>
		<path class="st5" d="M282.96,75.92c-4.43,0-6.58-2.57-6.58-7.87v-8.1h4.71v8.56c0,2.71,0.72,3.26,1.88,3.26
			c1.16,0,1.92-0.55,1.92-3.26v-8.56h4.57v8.1C289.46,73.34,287.33,75.92,282.96,75.92z"/>
		<path class="st3" d="M289.08,60.32v7.73c0,5.1-1.93,7.5-6.12,7.5s-6.21-2.39-6.21-7.5v-7.73h3.96v8.19c0,2.67,0.69,3.63,2.25,3.63
			c1.56,0,2.3-0.97,2.3-3.63v-8.19H289.08 M289.83,59.57h-0.75h-3.82h-0.75v0.75v8.19c0,2.88-0.9,2.88-1.55,2.88
			c-0.67,0-1.5,0-1.5-2.88v-8.19v-0.75h-0.75h-3.96h-0.75v0.75v7.73c0,5.47,2.34,8.25,6.96,8.25c4.62,0,6.87-2.7,6.87-8.25v-7.73
			V59.57L289.83,59.57z"/>
	</g>
	<g>
		<polygon class="st5" points="300.2,75.64 297.08,70.21 296.06,71.66 296.06,75.64 291.35,75.64 291.35,59.94 296.06,59.94 
			296.06,64.8 299.35,59.94 304.61,59.94 299.86,66.41 305.41,75.64 		"/>
		<path class="st3" d="M303.87,60.32l-4.46,6.07l5.33,8.88h-4.32l-3.31-5.75l-1.43,2.02v3.73h-3.96V60.32h3.96v5.56h0.09l3.77-5.56
			H303.87 M305.35,59.57h-1.48h-4.32h-0.4l-0.22,0.33l-2.49,3.68v-3.26v-0.75h-0.75h-3.96h-0.75v0.75v14.95v0.75h0.75h3.96h0.75
			v-0.75v-3.49l0.61-0.87l2.72,4.73l0.22,0.38h0.43h4.32h1.33l-0.68-1.14l-5.08-8.45l4.17-5.67L305.35,59.57L305.35,59.57z"/>
	</g>
	<g>
		<path class="st5" d="M311.21,75.92c-4.45,0-7.32-3.22-7.32-8.19c0-4.97,2.8-8.06,7.32-8.06c4.52,0,7.32,3.09,7.32,8.06
			C318.53,72.7,315.65,75.92,311.21,75.92z M311.21,63.82c-1.6,0-2.52,1.42-2.52,3.9c0,2.49,0.97,4.04,2.52,4.04
			c1.56,0,2.52-1.55,2.52-4.04C313.73,65.24,312.81,63.82,311.21,63.82z"/>
		<path class="st3" d="M311.21,60.04c4.14,0,6.94,2.78,6.94,7.68c0,4.92-2.81,7.82-6.94,7.82c-4.14,0-6.94-2.9-6.94-7.82
			S307.07,60.04,311.21,60.04 M311.21,72.14c1.79,0,2.9-1.7,2.9-4.42s-1.1-4.28-2.9-4.28c-1.79,0-2.9,1.56-2.9,4.28
			S309.41,72.14,311.21,72.14 M311.21,59.29c-4.75,0-7.69,3.23-7.69,8.43c0,5.21,3.02,8.57,7.69,8.57c4.67,0,7.69-3.36,7.69-8.57
			C318.9,62.6,315.88,59.29,311.21,59.29L311.21,59.29z M311.21,71.39c-1.58,0-2.15-1.89-2.15-3.67c0-1.06,0.21-3.53,2.15-3.53
			c1.94,0,2.15,2.47,2.15,3.53C313.36,69.49,312.79,71.39,311.21,71.39L311.21,71.39z"/>
	</g>
	<g>
		<polygon class="st5" points="318.49,75.64 318.49,72.76 324.29,64.01 319.09,64.01 319.09,59.94 330.24,59.94 330.24,62.82 
			324.44,71.58 330.28,71.58 330.28,75.64 		"/>
		<path class="st3" d="M329.86,60.32v2.39l-6.12,9.24h6.16v3.31h-11.04v-2.39l6.12-9.24h-5.52v-3.31H329.86 M330.61,59.57h-0.75
			h-10.39h-0.75v0.75v3.31v0.75h0.75h4.12l-5.35,8.08l-0.12,0.19v0.23v2.39v0.75h0.75h11.04h0.75v-0.75v-3.31V71.2h-0.75h-4.77
			l5.35-8.08l0.12-0.19v-0.23v-2.39V59.57L330.61,59.57z"/>
	</g>
	<g>
		<polygon class="st5" points="331.07,75.64 331.07,59.94 341.48,59.94 341.48,64.01 335.78,64.01 335.78,65.6 340.65,65.6 
			340.65,69.66 335.78,69.66 335.78,71.58 341.71,71.58 341.71,75.64 		"/>
		<path class="st3" d="M341.11,60.32v3.31h-5.7v2.35h4.88v3.31h-4.88v2.67h5.93v3.31h-9.89V60.32H341.11 M341.86,59.57h-0.75h-9.66
			h-0.75v0.75v14.95v0.75h0.75h9.89h0.75v-0.75v-3.31V71.2h-0.75h-5.18v-1.17h4.13h0.75v-0.75v-3.31v-0.75h-0.75h-4.13v-0.85h4.95
			h0.75v-0.75v-3.31V59.57L341.86,59.57z"/>
	</g>
	<g>
		<path class="st5" d="M254,103.72c-2.2-3.58-3.22-7.12-3.22-11.13c0-4.01,1.02-7.55,3.22-11.13l0.17-0.28l2.42,1.05l-0.21,0.37
			c-1.69,2.89-2.59,6.35-2.59,10c0,3.65,0.9,7.1,2.59,10l0.21,0.37l-2.42,1.05L254,103.72z"/>
		<path class="st3" d="M254.32,81.66l1.73,0.75c-1.8,3.08-2.64,6.66-2.64,10.19c0,3.52,0.84,7.1,2.64,10.19l-1.73,0.75
			c-2-3.25-3.17-6.71-3.17-10.94C251.15,88.37,252.33,84.91,254.32,81.66 M254.02,80.71l-0.34,0.55c-2.24,3.65-3.28,7.25-3.28,11.33
			c0,4.08,1.04,7.68,3.28,11.33l0.34,0.55l0.6-0.26l1.73-0.75l0.78-0.34l-0.43-0.73c-1.66-2.83-2.54-6.23-2.54-9.81
			c0-3.58,0.88-6.97,2.54-9.81l0.43-0.73l-0.78-0.34l-1.73-0.75L254.02,80.71L254.02,80.71z"/>
	</g>
	<g>
		<path class="st5" d="M272.32,99.64v-7.41c0-2.12-0.71-2.29-1.44-2.29c-0.61,0-1.3,0.41-2.09,1.24v8.46h-3.52v-7.41
			c0-2.12-0.71-2.29-1.44-2.29c-0.6,0-1.31,0.42-2.09,1.24v8.46h-3.52V87.1h2.97l0.16,1.25c0.85-0.79,1.96-1.54,3.41-1.54
			c1.58,0,2.68,0.6,3.36,1.84c0.97-0.96,2.16-1.84,3.69-1.84c1.83,0,4.01,0.88,4.01,5.06v7.77H272.32z"/>
		<path class="st3" d="M271.82,87.19c2.49,0,3.64,1.71,3.64,4.69v7.39h-2.77v-7.04c0-1.94-0.58-2.67-1.81-2.67
			c-0.75,0-1.56,0.48-2.47,1.47v8.24h-2.77v-7.04c0-1.94-0.58-2.67-1.81-2.67c-0.73,0-1.56,0.48-2.47,1.47v8.24h-2.77V87.48h2.27
			l0.21,1.61h0.08c1-1.04,2.14-1.9,3.62-1.9c1.73,0,2.71,0.79,3.25,2.11C269.16,88.1,270.33,87.19,271.82,87.19 M271.82,86.44
			c-1.48,0-2.65,0.74-3.61,1.62c-0.76-1.08-1.91-1.62-3.43-1.62c-1.28,0-2.31,0.53-3.13,1.18l-0.03-0.24l-0.09-0.65h-0.66h-2.27
			h-0.75v0.75v11.79v0.75h0.75h2.77h0.75v-0.75v-7.94c0.83-0.84,1.39-1.02,1.72-1.02c0.5,0,1.06,0,1.06,1.92v7.04v0.75h0.75h2.77
			h0.75v-0.75v-7.94c0.67-0.68,1.24-1.02,1.72-1.02c0.5,0,1.06,0,1.06,1.92v7.04v0.75h0.75h2.77h0.75v-0.75v-7.39
			C276.21,87.14,273.46,86.44,271.82,86.44L271.82,86.44z"/>
	</g>
	<g>
		<path class="st5" d="M292.31,99.64v-7.41c0-2.12-0.71-2.29-1.44-2.29c-0.61,0-1.3,0.41-2.09,1.24v8.46h-3.51v-7.41
			c0-2.12-0.71-2.29-1.44-2.29c-0.6,0-1.31,0.42-2.09,1.24v8.46h-3.52V87.1h2.97l0.16,1.25c0.85-0.79,1.96-1.54,3.41-1.54
			c1.58,0,2.68,0.6,3.36,1.84c0.97-0.96,2.16-1.84,3.69-1.84c1.83,0,4.01,0.88,4.01,5.06v7.77H292.31z"/>
		<path class="st3" d="M291.82,87.19c2.49,0,3.64,1.71,3.64,4.69v7.39h-2.77v-7.04c0-1.94-0.58-2.67-1.81-2.67
			c-0.75,0-1.56,0.48-2.47,1.47v8.24h-2.76v-7.04c0-1.94-0.58-2.67-1.81-2.67c-0.73,0-1.56,0.48-2.47,1.47v8.24h-2.77V87.48h2.27
			l0.21,1.61h0.08c1-1.04,2.14-1.9,3.62-1.9c1.73,0,2.71,0.79,3.25,2.11C289.15,88.1,290.32,87.19,291.82,87.19 M291.82,86.44
			c-1.48,0-2.65,0.74-3.61,1.62c-0.76-1.08-1.91-1.62-3.43-1.62c-1.28,0-2.31,0.53-3.13,1.18l-0.03-0.24l-0.09-0.65h-0.66h-2.27
			h-0.75v0.75v11.79v0.75h0.75h2.77h0.75v-0.75v-7.94c0.83-0.84,1.39-1.02,1.72-1.02c0.5,0,1.06,0,1.06,1.92v7.04v0.75h0.75h2.76
			h0.75v-0.75v-7.94c0.67-0.68,1.24-1.02,1.72-1.02c0.5,0,1.06,0,1.06,1.92v7.04v0.75h0.75h2.77h0.75v-0.75v-7.39
			C296.2,87.14,293.45,86.44,291.82,86.44L291.82,86.44z"/>
	</g>
	<g>
		<path class="st5" d="M303.42,99.93c-2.97,0-5.98-2.25-5.98-6.55c0-4.31,3.01-6.57,5.98-6.57c2.97,0,5.98,2.26,5.98,6.57
			C309.4,97.68,306.39,99.93,303.42,99.93z M303.42,89.82c-1.47,0-2.39,1.36-2.39,3.56c0,2.18,0.92,3.54,2.39,3.54
			s2.39-1.36,2.39-3.54C305.81,91.18,304.89,89.82,303.42,89.82z"/>
		<path class="st3" d="M303.42,87.19c2.94,0,5.61,2.27,5.61,6.19c0,3.91-2.67,6.17-5.61,6.17c-2.94,0-5.61-2.27-5.61-6.17
			C297.81,89.45,300.48,87.19,303.42,87.19 M303.42,97.3c1.73,0,2.77-1.56,2.77-3.92s-1.04-3.94-2.77-3.94
			c-1.73,0-2.76,1.57-2.76,3.94S301.69,97.3,303.42,97.3 M303.42,86.44c-3.16,0-6.36,2.38-6.36,6.94c0,4.55,3.2,6.92,6.36,6.92
			c3.16,0,6.36-2.38,6.36-6.92C309.77,88.82,306.57,86.44,303.42,86.44L303.42,86.44z M303.42,96.55c-1.49,0-2.01-1.64-2.01-3.17
			c0-1.54,0.53-3.19,2.01-3.19c1.49,0,2.02,1.65,2.02,3.19C305.43,94.12,305.28,96.55,303.42,96.55L303.42,96.55z"/>
	</g>
	<g>
		<path class="st5" d="M314.06,99.93c-2.03,0-3.05-1.24-3.05-3.7v-14.3h3.52v14.44c0,0.33,0.09,0.55,0.22,0.55
			c0.12,0,0.18,0,0.35-0.04l0.39-0.09l0.46,2.75l-0.28,0.11C315.21,99.84,314.68,99.93,314.06,99.93z"/>
		<path class="st3" d="M314.14,82.31v14.07c0,0.68,0.31,0.92,0.6,0.92c0.13,0,0.22,0,0.43-0.05l0.35,2.06
			c-0.34,0.13-0.8,0.24-1.46,0.24c-1.96,0-2.68-1.27-2.68-3.32V82.31H314.14 M314.89,81.56h-0.75h-2.77h-0.75v0.75v13.92
			c0,3.37,1.86,4.07,3.43,4.07c0.68,0,1.25-0.1,1.74-0.29l0.56-0.22l-0.1-0.6l-0.35-2.06l-0.13-0.78L315,96.52
			c-0.04,0.01-0.07,0.02-0.1,0.02c-0.01-0.04-0.01-0.09-0.01-0.16V82.31V81.56L314.89,81.56z"/>
	</g>
	<g>
		<polygon class="st5" points="315.67,103.48 321.48,81.85 324.13,81.85 318.32,103.48 		"/>
		<path class="st3" d="M323.64,82.22l-5.61,20.88h-1.87l5.61-20.88H323.64 M324.62,81.47h-0.98h-1.87h-0.58l-0.15,0.56l-5.61,20.88
			l-0.25,0.94h0.98h1.87h0.58l0.15-0.56l5.61-20.88L324.62,81.47L324.62,81.47z"/>
	</g>
	<g>
		<polygon class="st5" points="325.52,99.64 325.52,83.19 329.06,83.19 329.06,96.55 335.58,96.55 335.58,99.64 		"/>
		<path class="st3" d="M328.68,83.57v13.35h6.52v2.34h-9.3v-15.7H328.68 M329.43,82.82h-0.75h-2.78h-0.75v0.75v15.7v0.75h0.75h9.3
			h0.75v-0.75v-2.34v-0.75h-0.75h-5.77v-12.6V82.82L329.43,82.82z"/>
	</g>
	<g>
		<path class="st5" d="M336.21,102.96l0.21-0.37c1.69-2.89,2.59-6.35,2.59-10c0-3.65-0.9-7.1-2.59-10l-0.21-0.37l2.42-1.05
			l0.17,0.28c2.2,3.58,3.22,7.12,3.22,11.13c0,4.01-1.02,7.55-3.22,11.13l-0.17,0.28L336.21,102.96z"/>
		<path class="st3" d="M338.47,81.66c2,3.25,3.17,6.71,3.17,10.94c0,4.22-1.17,7.68-3.17,10.94l-1.73-0.75
			c1.8-3.08,2.64-6.66,2.64-10.19c0-3.52-0.84-7.1-2.64-10.19L338.47,81.66 M338.77,80.71l-0.6,0.26l-1.73,0.75l-0.78,0.34
			l0.43,0.73c1.66,2.83,2.54,6.23,2.54,9.81c0,3.58-0.88,6.97-2.54,9.81l-0.43,0.73l0.78,0.34l1.73,0.75l0.6,0.26l0.34-0.55
			c2.24-3.65,3.28-7.24,3.28-11.33c0-4.08-1.04-7.68-3.28-11.33L338.77,80.71L338.77,80.71z"/>
	</g>
</g>
</svg>
