<svg width="90" height="90" viewBox="0 0 90 90" fill="none" xmlns="http://www.w3.org/2000/svg">
<path d="M48.22 70.478C48.823 70.478 49.311 70.967 49.311 71.569C49.311 72.171 48.822 72.66 48.22 72.66H41.78C41.178 72.66 40.689 72.171 40.689 71.569C40.689 70.967 41.178 70.478 41.78 70.478H48.22ZM0 61.801V22.905C0 19.05 3.136 15.914 6.991 15.914H19.504L34.224 1.19502C34.428 0.989024 34.706 0.874023 34.996 0.874023H60.906C66.559 0.874023 71.159 5.47502 71.159 11.129V56.324H74.497C75.1 56.324 75.588 56.813 75.588 57.415C75.588 58.018 75.1 58.507 74.497 58.507H70.067H19.955H15.525C14.922 58.507 14.433 58.018 14.433 57.415C14.433 56.813 14.922 56.324 15.525 56.324H18.863V18.097H6.99C4.339 18.097 2.182 20.254 2.182 22.905V61.801C2.182 62.403 1.693 62.892 1.091 62.892C0.489 62.892 0 62.403 0 61.801ZM60.905 3.05702H36.087V7.84302C36.087 13.497 31.487 18.097 25.833 18.097H24.537C23.935 18.097 23.446 17.609 23.446 17.006C23.446 16.403 23.935 15.914 24.537 15.914H25.833C30.284 15.914 33.904 12.294 33.904 7.84302V4.60102L21.047 17.458V56.325H68.974V11.129C68.975 6.67702 65.355 3.05702 60.905 3.05702ZM83.292 15.914H73.352C72.749 15.914 72.261 16.403 72.261 17.006C72.261 17.609 72.749 18.097 73.352 18.097L83.24 18.095C85.807 18.22 87.819 20.333 87.819 22.905V71.007C87.819 73.658 85.663 75.815 83.011 75.815H6.99C4.339 75.815 2.182 73.658 2.182 71.007V67.322H80.677C81.28 67.322 81.768 66.833 81.768 66.23C81.768 65.627 81.279 65.139 80.677 65.139H1.091C0.488 65.14 0 65.628 0 66.231V71.007C0 74.861 3.136 77.997 6.991 77.997H43.909V86.943H21.771C21.167 86.943 20.678 87.432 20.678 88.034C20.678 88.636 21.168 89.126 21.771 89.126H68.23C68.833 89.126 69.322 88.637 69.322 88.034C69.322 87.431 68.833 86.943 68.23 86.943H46.091V77.997H83.01C86.865 77.997 90 74.861 90 71.007V22.905C90 19.167 87.076 16.098 83.292 15.914ZM36.832 13.473H41.467V8.81602C41.467 8.21302 41.955 7.72502 42.557 7.72502H47.442C48.045 7.72502 48.533 8.21402 48.533 8.81602V13.473H53.189C53.792 13.473 54.28 13.961 54.28 14.564V19.448C54.28 20.051 53.791 20.54 53.189 20.54H48.533V25.175C48.533 25.778 48.045 26.266 47.442 26.266H42.557C41.955 26.266 41.467 25.777 41.467 25.175V20.54H36.832C36.23 20.54 35.741 20.051 35.741 19.448V14.564C35.741 13.961 36.23 13.473 36.832 13.473ZM37.923 18.356H42.558C43.161 18.356 43.65 18.845 43.65 19.447V24.082H46.351V19.447C46.351 18.845 46.84 18.356 47.443 18.356H52.1V15.655H47.443C46.84 15.655 46.351 15.166 46.351 14.563V9.90702H43.65V14.563C43.65 15.166 43.16 15.655 42.558 15.655H37.923V18.356ZM29.409 40.862C29.409 41.465 29.898 41.954 30.5 41.954H59.521C60.124 41.954 60.613 41.465 60.613 40.862C60.613 40.26 60.124 39.771 59.521 39.771H30.5C29.898 39.771 29.409 40.26 29.409 40.862ZM55.177 50.121H30.5C29.897 50.121 29.409 50.611 29.409 51.213C29.409 51.815 29.898 52.305 30.5 52.305H55.176C55.78 52.305 56.269 51.816 56.269 51.213C56.269 50.61 55.78 50.121 55.177 50.121ZM29.409 30.49C29.409 31.093 29.898 31.581 30.5 31.581H55.176C55.78 31.581 56.269 31.093 56.269 30.49C56.269 29.887 55.78 29.398 55.176 29.398H30.5C29.898 29.398 29.409 29.887 29.409 30.49Z" fill="black"/>
</svg>
