<svg width="26" height="36" viewBox="0 0 26 36" fill="none" xmlns="http://www.w3.org/2000/svg">
<g id="pinRegular_green">
<rect id="Rectangle 5" x="7.80005" y="15.4286" width="13" height="10.2857" fill="white"/>
<path id="Fill 15 Copy" fill-rule="evenodd" clip-rule="evenodd" d="M19.6523 19.0312C19.6523 20.5184 19.043 21.8605 18.0596 22.8367C17.0731 23.8088 15.7161 24.4109 14.2129 24.4109C11.2066 24.4109 8.76993 22.0015 8.76993 19.0312V19.0206C8.76993 16.0478 11.5838 14.9698 14.2129 16.7588C18.32 19.5524 19.6523 16.0478 19.6523 19.0206V19.0312ZM25.1488 14.4868C24.5787 13.1549 23.7311 11.9151 22.5948 10.7592C21.6258 9.86451 20.5714 9.14943 19.4388 8.62114C18.302 8.09284 17.1374 7.74014 15.9369 7.56404C14.7399 7.38795 13.5321 7.38795 12.3176 7.56404C11.0996 7.74014 9.9278 8.11727 8.79154 8.69137V3.16365C8.79154 3.01554 8.78074 2.86794 8.76273 2.71984H9.9525C10.5078 2.71984 10.9606 2.27247 10.9606 1.71924V0.997037C10.9606 0.443806 10.5078 0 9.9525 0H1.0112C0.451825 0 0 0.443806 0 0.997037V1.71924C0 2.27247 0.451825 2.71984 1.0112 2.71984H2.43666C2.42894 2.78702 2.42534 2.85726 2.42534 2.92444V19.0277C2.42534 20.5993 2.74954 22.0895 3.39795 23.4983C4.04635 24.9076 4.91192 26.1408 5.99877 27.2014C7.08511 28.258 8.33921 29.0963 9.76364 29.7238C11.1922 30.3473 12.6809 30.6608 14.2381 30.6608C15.8231 30.6608 17.3294 30.358 18.7548 29.7487C20.1829 29.1385 21.4298 28.3038 22.4981 27.2472C23.5669 26.1902 24.4186 24.9575 25.0485 23.5477C25.683 22.1353 26 20.6309 26 19.0277C26 17.3298 25.7149 15.8152 25.1488 14.4868V14.4868Z" fill="#55D159"/>
<path id="Rectangle 4" fill-rule="evenodd" clip-rule="evenodd" d="M19.9001 29.2344L13.9616 35.296L8.6953 29.1725L19.9001 29.2344Z" fill="#55D159"/>
</g>
</svg>
