<?xml version="1.0" encoding="UTF-8"?>
<svg width="40px" height="40px" viewBox="0 0 40 40" version="1.1" xmlns="http://www.w3.org/2000/svg" xmlns:xlink="http://www.w3.org/1999/xlink">
    <!-- Generator: sketchtool 52.6 (67491) - http://www.bohemiancoding.com/sketch -->
    <title>15D10BB0-A071-4702-A42B-95B64B16974E</title>
    <desc>Created with sketchtool.</desc>
    <g id="Main_nav" stroke="none" stroke-width="1" fill="none" fill-rule="evenodd">
        <g id="Grupe-Analiza" transform="translate(-187.000000, -3261.000000)" fill="#B8ADAD">
            <path d="M226.466928,3261.53309 C225.756165,3260.8223 224.607356,3260.8223 223.896593,3261.53309 L215.909296,3269.52064 C213.446345,3267.60646 210.361167,3266.45591 207,3266.45591 C198.966886,3266.45591 192.455744,3272.96901 192.455744,3281.00063 C192.455744,3284.36194 193.606255,3287.44696 195.520371,3289.9102 L187.533072,3297.89775 C186.822309,3298.60854 186.822309,3299.75738 187.533072,3300.46817 C187.887602,3300.82271 188.352921,3301 188.818239,3301 C189.283558,3301 189.748877,3300.82102 190.103408,3300.46646 L198.090705,3292.48066 C200.555357,3294.39484 203.638834,3295.54538 207,3295.54538 C215.033114,3295.54538 221.544257,3289.03229 221.544257,3281.00067 C221.544257,3277.63935 220.393745,3274.55565 218.47963,3272.0911 L226.466928,3264.10355 C227.177691,3263.39276 227.177691,3262.24392 226.466928,3261.53313 L226.466928,3261.53309 Z M196.091634,3281.00037 C196.091634,3274.98341 200.983499,3270.09139 207.000262,3270.09139 C209.352424,3270.09139 211.527343,3270.84822 213.310249,3272.11806 L198.118457,3287.31033 C196.848605,3285.52741 196.091852,3283.35243 196.091852,3281.00015 L196.091634,3281.00037 Z M217.908891,3281.00037 C217.908891,3287.01732 213.017025,3291.90934 207.000262,3291.90934 C204.6481,3291.90934 202.473181,3291.15252 200.690275,3289.88267 L215.882068,3274.6904 C217.151919,3276.47332 217.908673,3278.6483 217.908673,3281.00058 L217.908891,3281.00037 Z" id="ostalo"></path>
        </g>
        <g id="Page"></g>
    </g>
</svg>