<?xml version="1.0" encoding="UTF-8"?>
<svg width="40px" height="40px" viewBox="0 0 40 40" version="1.1" xmlns="http://www.w3.org/2000/svg" xmlns:xlink="http://www.w3.org/1999/xlink">
    <!-- Generator: sketchtool 52.6 (67491) - http://www.bohemiancoding.com/sketch -->
    <title>2E07C920-B430-416A-9A68-6510686B184B</title>
    <desc>Created with sketchtool.</desc>
    <g id="Main_nav" stroke="none" stroke-width="1" fill="none" fill-rule="evenodd">
        <g id="Grupe-Analiza" transform="translate(-187.000000, -3205.000000)" stroke="#AFE85A" stroke-linecap="round" stroke-linejoin="round" stroke-width="3">
            <g id="ostali" transform="translate(189.000000, 3207.000000)">
                <path d="M0,17.8550715 C0,27.7191993 7.99540779,35.7137143 17.8586428,35.7137143 C27.7190208,35.7137143 35.7144286,27.7191993 35.7144286,17.8550715 C35.7144286,7.99451494 27.7190208,0 17.8586428,0 C7.99487387,0 0,7.99451494 0,17.8550715" id="Stroke-10"></path>
                <path d="M13,8 C13,8 16.4786943,9.91782646 18.3570571,9.78390003 C19.6862859,9.69104437 21.9295,8 21.9295,8 C21.9295,8 20.0109593,11.4785158 20.1449214,13.3570571 C20.2386699,14.6856073 21.9295,16.9302143 21.9295,16.9302143 C21.9295,16.9302143 19.6863216,15.2391699 18.3570571,15.1445285 C16.4786943,15.0106021 13,16.9302143 13,16.9302143 C13,16.9302143 14.6908301,14.6856073 14.7845786,13.3570571 C14.918505,11.4785158 13,8 13,8 Z" id="Stroke-11"></path>
            </g>
        </g>
        <g id="Page"></g>
    </g>
</svg>