<?xml version="1.0" encoding="UTF-8"?>
<svg width="40px" height="29px" viewBox="0 0 40 29" version="1.1" xmlns="http://www.w3.org/2000/svg" xmlns:xlink="http://www.w3.org/1999/xlink">
    <!-- Generator: sketchtool 52.6 (67491) - http://www.bohemiancoding.com/sketch -->
    <title>0AB049C8-036F-4A1F-82A1-7CB623508967</title>
    <desc>Created with sketchtool.</desc>
    <g id="Main_nav" stroke="none" stroke-width="1" fill="none" fill-rule="evenodd">
        <g id="Grupe-Analiza" transform="translate(-185.000000, -3327.000000)" fill="#DA5F5F">
            <g id="paraziti" transform="translate(185.000000, 3327.000000)">
                <path d="M1.52309643,7.84059601 C1.80541006,7.84059601 2.08950552,7.76246874 2.34518733,7.59911874 C7.52973279,4.26993692 11.0083692,7.28661874 11.1751873,7.43754146 C11.7913237,8.00395055 12.7500964,7.96845055 13.3218692,7.35586419 C13.8971419,6.74150055 13.8634146,5.77559146 13.2490692,5.20209146 C11.4450692,3.51531874 6.49997824,1.31359146 0.701342335,5.03341419 C-0.0071122109,5.48795965 -0.213066756,6.43077783 0.241478698,7.13923237 C0.53089688,7.59377783 1.02275143,7.84059601 1.52343279,7.84059601 L1.52309643,7.84059601 Z" id="Fill-1"></path>
                <path d="M1.5234089,18.4543405 C2.08272708,18.4543405 2.62249981,18.1436178 2.88881799,17.6091587 C5.24322708,12.8718859 9.98381799,14.1556587 10.523818,14.320795 C11.3245907,14.5693723 12.1768634,14.1254814 12.4307725,13.3264769 C12.6846771,12.5239314 12.2390134,11.6681132 11.4364544,11.4124314 C8.78731799,10.5743405 3.0169089,10.5051132 0.159636628,16.2510678 C-0.215008826,17.0038859 0.0921639008,17.9201132 0.846772992,18.2947496 C1.06339117,18.4030587 1.2942139,18.4545496 1.52327254,18.4545496 L1.5234089,18.4543405 Z" id="Fill-2"></path>
                <path d="M14.4932265,20.7405798 C15.1644083,20.2345343 15.2975446,19.2793071 14.7932992,18.6081252 C14.2872537,17.9351707 13.3320265,17.8002616 12.6590719,18.3062798 C12.0962083,18.7306389 7.17952646,22.5747343 8.11893555,26.9549161 C8.27163555,27.6704616 8.90375373,28.1605071 9.60684464,28.1605071 C9.71338101,28.1605071 9.81991282,28.1498571 9.92822191,28.1267707 C10.7520856,27.9509889 11.2758583,27.1395434 11.0983128,26.3174525 C10.6473174,24.2063207 13.4686765,21.5165434 14.4932219,20.7401798 L14.4932265,20.7405798 Z" id="Fill-3"></path>
                <path d="M39.028556,5.03366196 C33.2294651,1.31207105 28.2844651,3.51734378 26.4808288,5.20233924 C25.8700106,5.77406651 25.838056,6.72579378 26.4027015,7.34188469 C26.9673378,7.95802105 27.9297015,7.99883924 28.551156,7.43953924 C28.6967515,7.30814833 32.1804288,4.26126651 37.3829742,7.59933924 C37.638656,7.76269378 37.9227469,7.84081651 38.2050651,7.84081651 C38.7075651,7.84081651 39.1976106,7.59223469 39.4887924,7.13945287 C39.9433378,6.43099833 39.7373742,5.48818014 39.0289288,5.03363469 L39.028556,5.03366196 Z" id="Fill-4"></path>
                <path d="M28.0649685,11.413104 C27.2624231,11.6670086 26.818514,12.5228313 27.0706503,13.3271495 C27.3245549,14.1296949 28.1803776,14.573604 28.9829231,14.3214677 C29.1959912,14.2539949 34.1888322,12.7394222 36.6124685,17.611604 C36.8788049,18.1478313 37.4185594,18.4567859 37.9778776,18.4567859 C38.2051503,18.4567859 38.4377412,18.4052949 38.6543776,18.2969859 C39.4071958,17.9223404 39.7161503,17.0079404 39.341514,16.253304 C36.4864231,10.5055768 30.7156049,10.573304 28.0646958,11.413304 L28.0649685,11.413104 Z" id="Fill-5"></path>
                <path d="M30.1713647,28.1267784 C30.2796738,28.1498647 30.3862102,28.1605147 30.492742,28.1605147 C31.1958784,28.1605147 31.8279693,27.6704693 31.9806511,26.9549238 C32.9199238,22.5728329 28.0051511,18.7285602 27.4405147,18.3062875 C26.7675602,17.800242 25.8123329,17.935192 25.3062875,18.6081329 C24.800242,19.2810738 24.935192,20.2363147 25.6081329,20.7423602 C26.6326329,21.5129511 29.4557693,24.1922693 28.9994511,26.3178147 C28.8236693,27.1399056 29.3492375,27.949542 30.1713147,28.1271329 L30.1713647,28.1267784 Z" id="Fill-6"></path>
                <path d="M22.5559895,6.48887773 C22.6057077,6.40365046 22.650094,6.31309592 22.6838304,6.21544137 L24.1078304,2.01266864 C24.3777168,1.21544137 23.9498031,0.350759552 23.1525577,0.0808504612 C22.3553122,-0.18905863 21.4906486,0.238877734 21.2207395,1.03612319 L20.1784668,4.11316864 L19.2054668,1.06275955 C18.9497849,0.260214098 18.092194,-0.181922266 17.2896486,0.0737595521 C16.4871031,0.32944137 16.0449668,1.18703228 16.3006486,1.98957773 L17.5116031,5.78398682 C16.4320577,6.91325955 14.757694,9.2712141 15.0293758,12.8526232 C15.4111213,17.8685323 19.0741031,20.2548959 19.2303758,20.3544414 C19.4807304,20.5142414 19.7648304,20.5923686 20.0489213,20.5923686 C20.4004849,20.5923686 20.7520577,20.469855 21.0343758,20.2319277 C21.2154849,20.077455 25.4857395,16.4091096 25.3063758,11.7801096 C25.210494,9.3280641 23.8841486,7.60751864 22.5560122,6.48874592 L22.5559895,6.48887773 Z M19.9760804,16.9843323 C19.2178986,16.1675596 18.2288986,14.7204686 18.0691258,12.6199686 C17.896894,10.3667868 18.853944,8.85219592 19.5303986,8.07983228 C20.5531258,8.67642319 22.1830804,9.92996864 22.259444,11.8972868 C22.339344,13.9569232 20.9473077,15.8923323 19.9760804,16.984105 L19.9760804,16.9843323 Z" id="Fill-7"></path>
            </g>
        </g>
        <g id="Page"></g>
    </g>
</svg>