<?xml version="1.0" encoding="UTF-8"?>
<svg width="40px" height="22px" viewBox="0 0 40 22" version="1.1" xmlns="http://www.w3.org/2000/svg" xmlns:xlink="http://www.w3.org/1999/xlink">
    <!-- Generator: sketchtool 52.6 (67491) - http://www.bohemiancoding.com/sketch -->
    <title>683C5F27-CD89-4311-B8C4-65982529B417</title>
    <desc>Created with sketchtool.</desc>
    <g id="Main_nav" stroke="none" stroke-width="1" fill="none" fill-rule="evenodd">
        <g id="Grupe-Analiza" transform="translate(-188.000000, -3436.000000)" fill="#C6B32E">
            <g id="patohistologija" transform="translate(188.000000, 3436.000000)">
                <polygon id="Fill-1" points="0.014939759 2.2686747 39.7493976 2.2686747 39.7493976 0.431325301 0.014939759 0.431325301"></polygon>
                <path d="M32.933012,13.1436145 C30.7097349,13.1436145 28.8234699,11.2591807 28.8234699,9.03407229 C28.8234699,7.77653012 27.7598554,6.66583133 26.4552289,6.66583133 L26.2613301,6.66583133 C26.1163759,6.66583133 26.0203663,6.7147759 25.9714217,6.7147759 C25.9224771,6.7147759 25.875412,6.76372048 25.8264675,6.76372048 C25.6815133,6.81266506 25.5855036,6.85973012 25.536559,6.85973012 C24.7139084,7.24564819 24.134053,8.11727229 24.134053,8.98700723 C24.134053,11.2102843 22.2496193,13.0965494 20.0245108,13.0965494 C17.8012337,13.0965494 15.9149687,11.2121157 15.9149687,8.98700723 C15.9149687,7.72946506 14.8023904,6.61876627 13.5467277,6.61876627 C12.2891855,6.61876627 11.1784867,7.73134458 11.1784867,8.98700723 C11.1784867,11.2102843 9.29405301,13.0965494 7.06894458,13.0965494 C4.84566747,13.0965494 2.95940241,11.2121157 2.95940241,8.98700723 C2.95940241,7.72946506 1.8468241,6.61876627 0.591161446,6.61876627 C0.446207229,6.61876627 0.252308434,6.61876627 0.107354217,6.66771084 L0.107354217,4.8793253 C0.252308434,4.8793253 0.446207229,4.83038072 0.591161446,4.83038072 C2.81443855,4.83038072 4.70070361,6.71481446 4.70070361,8.93992289 C4.70070361,10.1974651 5.81328193,11.3081639 7.06894458,11.3081639 C8.32648675,11.3081639 9.43718554,10.1955855 9.43718554,8.93992289 C9.43718554,6.71664578 11.3216193,4.83038072 13.5467277,4.83038072 C15.7700048,4.83038072 17.6562699,6.71481446 17.6562699,8.93992289 C17.6562699,10.1974651 18.7688482,11.3081639 20.0245108,11.3081639 C21.282053,11.3081639 22.3927518,10.1955855 22.3927518,8.93992289 C22.3927518,7.00657349 23.7952578,5.26710361 25.7286072,4.87929639 L25.8735614,4.83035181 C26.0674602,4.78140723 26.3084241,4.78140723 26.5023325,4.78140723 C28.7745253,4.78140723 30.658959,6.66584096 30.658959,8.8909494 C30.7079036,10.2444916 31.7715373,11.2591904 32.9782361,11.2591904 C34.2357783,11.2591904 35.3464771,10.146612 35.3464771,8.8909494 C35.3464771,6.66767229 37.2309108,4.78140723 39.4560193,4.78140723 C39.6009735,4.78140723 39.6969831,4.78140723 39.8419373,4.83035181 L39.8419373,6.61873735 C39.6969831,6.61873735 39.6009735,6.56979277 39.4560193,6.56979277 C38.1984771,6.56979277 37.0877783,7.68237108 37.0877783,8.93803373 C37.0407133,11.2591904 35.1563084,13.1436241 32.9330313,13.1436241 L32.933012,13.1436145 Z" id="Fill-2"></path>
                <path d="M19.9301205,17.3021687 C19.3013494,17.3021687 18.770506,16.7712771 18.770506,16.1425542 C18.770506,15.5137831 19.3013976,14.9829398 19.9301205,14.9829398 C20.5588916,14.9829398 21.0897349,15.5138313 21.0897349,16.1425542 C21.0897349,16.8183614 20.5569639,17.3021687 19.9301205,17.3021687 Z" id="Fill-3"></path>
                <path d="M5.09012048,16.1898795 C5.09012048,17.7373012 2.76896386,17.7373012 2.76896386,16.1898795 C2.76896386,14.6424578 5.09012048,14.6424578 5.09012048,16.1898795" id="Fill-4"></path>
                <path d="M29.0660241,20.8303614 C29.0660241,22.3777831 26.7448675,22.3777831 26.7448675,20.8303614 C26.7448675,19.2829398 29.0660241,19.2829398 29.0660241,20.8303614" id="Fill-5"></path>
                <path d="M13.1137349,20.8303614 C13.1137349,22.3777831 10.7944578,22.3777831 10.7944578,20.8303614 C10.7944578,19.2829398 13.1137349,19.2829398 13.1137349,20.8303614" id="Fill-6"></path>
                <path d="M37.0404819,16.1898795 C37.0404819,17.7373012 34.7212048,17.7373012 34.7212048,16.1898795 C34.7212048,14.6424578 37.0404819,14.6424578 37.0404819,16.1898795" id="Fill-7"></path>
            </g>
        </g>
        <g id="Page"></g>
    </g>
</svg>