<svg xmlns="http://www.w3.org/2000/svg" width="17" height="16" viewBox="0 0 17 16">
  <path id="ambulance_2" d="M13.753,16H3.246L0,6.112,8.5,0,17,6.112,13.753,16ZM6.82,11.443h3.449a1.293,1.293,0,1,0,2.587,0h.5a.448.448,0,0,0,.453-.454V9.563a.463.463,0,0,0-.376-.443l-.961-.2-.454-1.359a1.175,1.175,0,0,0-1.127-.807h-.763V6.048a.448.448,0,0,0-.453-.454H3.747a.448.448,0,0,0-.453.454v4.941a.448.448,0,0,0,.453.454h.487a1.293,1.293,0,0,0,2.587,0Zm4.742.618a.608.608,0,1,1,.607-.608A.616.616,0,0,1,11.562,12.061Zm-6.035,0a.608.608,0,1,1,.607-.608A.608.608,0,0,1,5.527,12.061Zm1.492-2.4H6.433a.087.087,0,0,1-.088-.088V8.823H5.594A.087.087,0,0,1,5.5,8.734V8.148a.088.088,0,0,1,.089-.088h.74V7.308a.088.088,0,0,1,.089-.088h.586a.087.087,0,0,1,.088.088v.751h.752a.087.087,0,0,1,.088.088v.586h.012a.088.088,0,0,1-.089.089H7.107v.751A.087.087,0,0,1,7.019,9.662Zm4.7-.862H10.136V7.43H10.9a.488.488,0,0,1,.475.343L11.717,8.8Z" fill="#ff0093"/>
</svg>
