<svg xmlns="http://www.w3.org/2000/svg" width="17" height="16" viewBox="0 0 17 16">
  <path id="Exclusion_2" data-name="Exclusion 2" d="M13.753,16H3.246L0,6.112,8.5,0,17,6.112,13.753,16ZM11.524,7.487a.538.538,0,0,0-.257.066,1.592,1.592,0,0,0-.343.233L9.465,9.275a2.28,2.28,0,0,0-.645,1.613c.025,1.972.031,2.968.018,3.046l1.856-.014-.014-1.93,2.443-2.3a.894.894,0,0,0,.279-.655l0-3.593A.445.445,0,0,0,12.953,5l-.048,0a.457.457,0,0,0-.4.464L12.5,6.786v.02a3.927,3.927,0,0,1-.258,1.786c-.149.162-.544.588-1.176,1.265l-.045.048-.025.027a.217.217,0,0,1-.3.01.215.215,0,0,1-.011-.3l.095-.1c.256-.274.935-1,1.15-1.235a.5.5,0,0,0,.106-.518,1.256,1.256,0,0,0-.117-.13A.541.541,0,0,0,11.524,7.487ZM3.948,5a.444.444,0,0,0-.443.44L3.5,9.033a.9.9,0,0,0,.28.655l2.442,2.3-.014,1.929,1.857.014c-.02-.115.008-2.321.017-3.046a2.277,2.277,0,0,0-.645-1.613L5.978,7.786a1.548,1.548,0,0,0-.343-.233.538.538,0,0,0-.645.1,1.324,1.324,0,0,0-.117.13.5.5,0,0,0,.106.518c.214.233.894.96,1.149,1.234l.038.04.058.062a.215.215,0,0,1-.011.3A.208.208,0,0,1,6.068,10a.219.219,0,0,1-.159-.068L5.88,9.9l-.042-.045C5.6,9.6,4.886,8.836,4.662,8.591A3.928,3.928,0,0,1,4.4,6.806v-.02L4.393,5.467A.457.457,0,0,0,4,5Z" fill="#0058ff"/>
</svg>
