<?xml version="1.0" standalone="no"?>
<!DOCTYPE svg PUBLIC "-//W3C//DTD SVG 1.0//EN" "http://www.w3.org/TR/2001/REC-SVG-20010904/DTD/svg10.dtd">
<svg xmlns="http://www.w3.org/2000/svg" xmlns:xlink="http://www.w3.org/1999/xlink" id="body_1" width="30" height="28">

<g transform="matrix(1.5 0 0 1.473684 0 0)">
    <path transform="matrix(1.176471 0 0 1.1875 0 0)"  d="M13.753 16L3.246 16L0 6.112L8.5 0L17 6.112L13.753 16zM6.82 11.443L10.269 11.443C 10.269 11.90512 10.51554 12.33214 10.91575 12.5632C 11.31596 12.79426 11.80904 12.79426 12.20925 12.5632C 12.60946 12.33214 12.856 11.90512 12.856 11.443L12.856 11.443L13.356 11.443C 13.47673 11.44436 13.59289 11.39693 13.67817 11.31146C 13.76345 11.226 13.81063 11.10972 13.809 10.989L13.809 10.989L13.809 9.563C 13.80346 9.345278 13.64693 9.160852 13.433 9.12L13.433 9.12L12.472 8.92L12.018 7.561C 11.8579 7.075464 11.40223 6.749172 10.891 6.754L10.891 6.754L10.128 6.754L10.128 6.048C 10.12963 5.927275 10.08245 5.811005 9.997174 5.725537C 9.911895 5.64007 9.795729 5.592642 9.675 5.594L9.675 5.594L3.747 5.594C 3.626271 5.592642 3.510106 5.64007 3.424826 5.725537C 3.339547 5.811005 3.292375 5.927275 3.294 6.048L3.294 6.048L3.294 10.989C 3.292375 11.10973 3.339547 11.226 3.424826 11.31146C 3.510105 11.39693 3.626271 11.44436 3.747 11.443L3.747 11.443L4.234 11.443C 4.234 12.15738 4.81312 12.7365 5.5275 12.7365C 6.24188 12.7365 6.821 12.15738 6.821 11.443zM11.562 12.061C 11.316 12.0614 11.09399 11.91353 10.99957 11.68637C 10.90515 11.4592 10.95692 11.19753 11.13073 11.02343C 11.30453 10.84934 11.56612 10.79714 11.79344 10.89119C 12.02076 10.98523 12.169 11.207 12.169 11.453C 12.1647 11.7866 11.8956 12.05615 11.562 12.061zM5.527 12.061C 5.280997 12.06141 5.058991 11.91353 4.964569 11.68637C 4.870147 11.4592 4.921918 11.19753 5.095726 11.02343C 5.269534 10.84934 5.531124 10.79714 5.75844 10.89119C 5.985757 10.98523 6.134 11.207 6.134 11.453C 6.134001 11.7884 5.862399 12.06045 5.527 12.061zM7.019001 9.660999L6.433 9.660999C 6.409579 9.661269 6.387038 9.652084 6.370476 9.635522C 6.353914 9.61896 6.344729 9.596419 6.345 9.572999L6.345 9.572999L6.345 8.823L5.594 8.823C 5.569387 8.824995 5.545086 8.816438 5.527155 8.799459C 5.509223 8.782482 5.499352 8.758685 5.5 8.734L5.5 8.734L5.5 8.148C 5.499999 8.124487 5.509407 8.101951 5.526127 8.085418C 5.542848 8.068886 5.565489 8.059732 5.589 8.059999L5.589 8.059999L6.329 8.059999L6.329 7.308C 6.329 7.284486 6.338408 7.26195 6.355128 7.245418C 6.371848 7.228886 6.394489 7.219733 6.418001 7.22L6.418001 7.22L7.004001 7.22C 7.027421 7.219729 7.049962 7.228914 7.066524 7.245476C 7.083086 7.262038 7.092271 7.284579 7.092 7.308L7.092 7.308L7.092 8.059L7.844 8.059C 7.867421 8.05873 7.889962 8.067915 7.906525 8.084477C 7.923087 8.101039 7.932271 8.12358 7.932 8.147L7.932 8.147L7.932 8.733001L7.944 8.733001C 7.944271 8.756686 7.934981 8.779482 7.918231 8.796231C 7.901481 8.812982 7.878686 8.822271 7.855 8.822001L7.855 8.822001L7.107 8.822001L7.107 9.573001C 7.107543 9.596593 7.09848 9.619394 7.081887 9.636176C 7.065295 9.652957 7.042597 9.662277 7.019 9.662zM11.719 8.799L10.136 8.799L10.136 7.43L10.9 7.43C 11.11699 7.425991 11.31055 7.565763 11.375 7.773L11.375 7.773L11.717 8.8z" stroke="none" fill="#FF0093" fill-rule="nonzero" />
</g>
</svg>