<?xml version="1.0" encoding="UTF-8"?>
<svg width="40px" height="40px" viewBox="0 0 40 40" version="1.1" xmlns="http://www.w3.org/2000/svg" xmlns:xlink="http://www.w3.org/1999/xlink">
    <!-- Generator: sketchtool 52.6 (67491) - http://www.bohemiancoding.com/sketch -->
    <title>EB19000E-4B65-47C3-9B4E-17B06631C9D3</title>
    <desc>Created with sketchtool.</desc>
    <g id="Main_nav" stroke="none" stroke-width="1" fill="none" fill-rule="evenodd">
        <g id="Grupe-Analiza" transform="translate(-186.000000, -3528.000000)" fill="#2B64A9">
            <g id="pcr" transform="translate(186.000000, 3528.000000)">
                <path d="M14.0465823,19.2187342 L18.6767089,23.9161013 C18.8626278,24.1039949 19.1059038,24.196957 19.3511392,24.196957 C19.5904608,24.196957 19.8297772,24.1059747 20.0156962,23.9259899 C20.3875342,23.5581114 20.3914886,22.9608253 20.0255848,22.5889772 L14.7825468,17.2684709 C14.996157,16.8669671 15.2374532,16.4911544 15.5123696,16.1510025 C16.0246228,15.5180911 16.6535848,15.005838 17.3774835,14.5964203 L22.4468506,19.6082684 C22.6307899,19.7902329 22.8720861,19.8812101 23.1114076,19.8812101 C23.3546835,19.8812101 23.5979595,19.7862734 23.7838633,19.6003544 C24.1517418,19.2285165 24.1477873,18.6292152 23.7759544,18.2633418 L19.2901823,13.8290127 C20.3958025,13.5382684 21.6517519,13.4136658 23.0678532,13.4749772 C23.6058278,13.4987139 24.031043,13.0912759 24.0528152,12.5710785 C24.0765468,12.0489519 23.6710886,11.6078886 23.1489165,11.5861165 C20.8566127,11.4872253 18.8985367,11.8155494 17.2648658,12.5354835 C17.1916861,12.5572405 17.1185063,12.5888861 17.0512557,12.6304203 C15.8625468,13.1881924 14.8498886,13.9575595 14.0370278,14.9603443 C13.5386076,15.5754329 13.1291797,16.2716354 12.7969266,17.0311291 C12.7771443,17.0706886 12.7593468,17.1122228 12.7455038,17.153757 C11.572643,19.9405418 11.4994785,23.6210987 12.5833215,27.8084405 C14.4543595,35.0413519 10.6568911,37.6600861 10.4789165,37.7785671 C10.0418127,38.0594228 9.91522025,38.6408962 10.1941063,39.0799848 C10.3740911,39.3628152 10.6806582,39.5170886 10.9931443,39.5170886 C11.1671949,39.5170886 11.3432253,39.4696203 11.4994734,39.3687494 C11.7111038,39.2342582 16.6498532,35.9747747 14.4148152,27.3333063 C13.6098532,24.206319 13.495119,21.4371038 14.0469367,19.2183696 L14.0465823,19.2187342 Z" id="Fill-1"></path>
                <path d="M29.6005063,1.66734177 C29.9842076,1.31528608 30.009919,0.717974684 29.659843,0.334278481 C29.3077873,-0.0514025316 28.7104759,-0.0790936709 28.3228304,0.272967089 C28.1112,0.466794937 23.1643494,5.10091646 25.9731595,13.526638 C27.2271342,17.2865367 26.9284506,20.6785367 25.1345772,23.0836 C23.4791342,25.3027392 20.6112354,26.4637519 17.084957,26.3450684 C16.5469823,26.3391342 16.1237418,26.7366835 16.1078937,27.2588405 C16.0900911,27.7809671 16.4995089,28.218081 17.0216658,28.2359038 C17.2056051,28.241838 17.3895443,28.2457924 17.5714886,28.2457924 C21.4935646,28.2457924 24.7036405,26.8256911 26.6519949,24.214957 C28.7959949,21.3411342 29.203438,17.2271089 27.7674886,12.927362 C25.3624253,5.71014684 29.426881,1.82964051 29.600957,1.66761519 L29.6005063,1.66734177 Z" id="Fill-2"></path>
                <path d="M38.8506329,9.87341772 C38.385838,9.64201013 37.8162025,9.8299038 37.5828354,10.2986532 C37.5749266,10.3144759 37.1852861,11.0423494 36.1706329,11.7661975 L30.4329114,6.5388557 C30.0472304,6.1868 29.4499241,6.21646582 29.0978734,6.60214684 C28.7458177,6.98782785 28.7735089,7.58513418 29.1611646,7.93718481 L34.3647089,12.6780962 C33.3738228,13.022243 32.1178734,13.2457418 30.5257215,13.1883747 C29.9897215,13.1923291 29.5645063,13.5799899 29.5466835,14.1021468 C29.5288861,14.6242734 29.936319,15.0613873 30.458481,15.0811848 C30.6463747,15.087119 30.830319,15.0910734 31.0102785,15.0910734 C37.2305316,15.0910734 39.192557,11.3074278 39.2755949,11.1432759 C39.5070025,10.6745266 39.3171342,10.1068709 38.8503595,9.8735038 L38.8506329,9.87341772 Z" id="Fill-3"></path>
                <path d="M10.2987342,33.9478481 C10.5459646,33.9478481 10.7931949,33.8509316 10.9791392,33.6590835 C11.3410835,33.2832911 11.3311949,32.6839949 10.9554076,32.3220709 L5.57566076,27.1240962 C6.62193924,26.754238 7.94512405,26.4872354 9.60057215,26.4872354 C10.1226987,26.4872354 10.5459899,26.0639747 10.5459899,25.539843 C10.5459899,25.0177165 10.1227291,24.5944253 9.60057215,24.5944253 C6.92057215,24.5944253 4.95459241,25.2115392 3.54639494,25.9532101 C3.51474937,25.9650785 3.48705823,25.9828759 3.45739241,26.0006785 C1.46767089,27.0707038 0.635012658,28.3760709 0.57764557,28.4690329 C0.304703797,28.9160253 0.447108861,29.4974886 0.892121519,29.7704506 C1.04639494,29.8634076 1.21648608,29.9089013 1.38460759,29.9089013 C1.70304304,29.9089013 2.0155443,29.7486937 2.19356962,29.4559747 C2.20345823,29.4421266 2.65638481,28.7281266 3.764,28.0062025 L9.6399443,33.6826582 C9.82388354,33.8586886 10.0612253,33.9476911 10.2985772,33.9476911 L10.2987342,33.9478481 Z" id="Fill-4"></path>
            </g>
        </g>
        <g id="Page"></g>
    </g>
</svg>