<svg id="Group_55" data-name="Group 55" xmlns="http://www.w3.org/2000/svg" width="9.744" height="17.052" viewBox="0 0 9.744 17.052">
  <g id="Group_17" data-name="Group 17" transform="translate(0 0)">
    <path id="Path_87" data-name="Path 87" d="M17.135,5.045H8.609V16.007h8.526Zm0-.609V3.827a1.218,1.218,0,0,0-1.218-1.218H9.827A1.218,1.218,0,0,0,8.609,3.827v.609Zm0,12.18H8.609v.609a1.218,1.218,0,0,0,1.218,1.218h6.09a1.218,1.218,0,0,0,1.218-1.218ZM9.827,2h6.09a1.827,1.827,0,0,1,1.827,1.827v13.4a1.827,1.827,0,0,1-1.827,1.827H9.827A1.827,1.827,0,0,1,8,17.225V3.827A1.827,1.827,0,0,1,9.827,2Zm2.74,15.225h.609v.609h-.609ZM11.654,3.218H14.09v.609H11.654Z" transform="translate(-8 -2)" fill="#202020"/>
  </g>
</svg>
