<?xml version="1.0" encoding="UTF-8"?>
<svg width="26px" height="36px" viewBox="0 0 26 36" version="1.1" xmlns="http://www.w3.org/2000/svg" xmlns:xlink="http://www.w3.org/1999/xlink">
    <!-- Generator: sketchtool 52.3 (67297) - http://www.bohemiancoding.com/sketch -->
    <title>C46E0C4C-5BC6-4B96-9D0D-1D2273B206E9</title>
    <desc>Created with sketchtool.</desc>
    <g id="Main_nav" stroke="none" stroke-width="1" fill="none" fill-rule="evenodd">
        <g id="Home" transform="translate(-986.000000, -1591.000000)">
            <g id="pinClosed" transform="translate(986.000000, 1591.000000)">
                <g id="Group-6-Copy-2" fill="#1D88E5">
                    <path d="M25.1488402,14.4868068 C24.5786557,13.1548797 23.7310981,11.9150729 22.594846,10.7592431 C21.6258412,9.86450569 20.5714116,9.14942828 19.4387618,8.62113621 C18.3019951,8.09284414 17.1374396,7.74014047 15.9368617,7.56404311 C14.739886,7.38794576 13.5321036,7.38794576 12.3176312,7.56404311 C11.0995566,7.74014047 9.92779669,8.11727383 8.79154461,8.69137157 L8.79154461,3.163645 C8.79154461,3.01554 8.78073787,2.86794395 8.76272662,2.71983894 L9.95249782,2.71983894 C10.5077587,2.71983894 10.9606128,2.27247023 10.9606128,1.71923951 L10.9606128,0.997036769 C10.9606128,0.443806055 10.5077587,0 9.95249782,0 L1.0112026,0 C0.451824875,0 0,0.443806055 0,0.997036769 L0,1.71923951 C0,2.27247023 0.451824875,2.71983894 1.0112026,2.71983894 L2.43666376,2.71983894 C2.42894466,2.7870206 2.42534241,2.85725596 2.42534241,2.92443761 L2.42534241,19.0276757 C2.42534241,20.5993191 2.74954477,22.0895303 3.39794949,23.4983091 C4.04635421,24.907597 4.91192305,26.1407874 5.99877286,27.2014432 C7.08510807,28.2580273 8.33920513,29.0962711 9.76363708,29.7238088 C11.1921859,30.3472748 12.6809437,30.6607892 14.2381442,30.6607892 C15.8231336,30.6607892 17.329388,30.3579628 18.7548492,29.7487474 C20.1828834,29.1385141 21.4297759,28.303833 22.4980999,27.2472488 C23.5669385,26.1901557 24.4186129,24.9574742 25.0484918,23.5476775 C25.6830021,22.135336 26,20.6308742 26,19.0276757 C26,17.3298121 25.7149078,15.8151713 25.1488402,14.4868068 Z" id="Fill-15-Copy"></path>
                    <polygon id="Rectangle-4" transform="translate(14.114129, 29.448516) rotate(45.000000) translate(-14.114129, -29.448516) " points="18.0539454 25.2058751 18.1410498 33.6911564 10.087209 33.0850649"></polygon>
                </g>
                <g id="Group-7" transform="translate(8.000000, 13.000000)">
                    <ellipse id="Oval-2" fill="#FFFFFF" fill-rule="nonzero" cx="6" cy="6.39171645" rx="6" ry="6.11764706"></ellipse>
                    <g id="Group-5-Copy" transform="translate(6.053301, 6.446062) rotate(45.000000) translate(-6.053301, -6.446062) translate(2.303301, 2.622533)" fill="#FF7D7D">
                        <rect id="Rectangle-10" x="3.125" y="0" width="1.25" height="7.64705882"></rect>
                        <rect id="Rectangle-10" transform="translate(3.750000, 3.823529) rotate(90.000000) translate(-3.750000, -3.823529) " x="3.125" y="0" width="1.25" height="7.64705882"></rect>
                    </g>
                </g>
            </g>
        </g>
        <g id="Page"></g>
    </g>
</svg>