<svg width="26" height="36" viewBox="0 0 26 36" fill="none" xmlns="http://www.w3.org/2000/svg">
<g clip-path="url(#clip0_1_2)">
<path fill-rule="evenodd" clip-rule="evenodd" d="M25.149 14.487C24.579 13.155 23.731 11.915 22.595 10.759C21.626 9.865 20.571 9.149 19.439 8.621C18.302 8.093 17.137 7.74 15.937 7.564C14.74 7.388 13.532 7.388 12.318 7.564C11.1 7.74 9.928 8.117 8.792 8.691V3.164C8.792 3.016 8.781 2.868 8.763 2.72H9.952C10.508 2.72 10.961 2.272 10.961 1.719V0.997C10.961 0.444 10.508 0 9.952 0H1.011C0.452 0 0 0.444 0 0.997V1.719C0 2.272 0.452 2.72 1.011 2.72H2.437C2.429 2.787 2.425 2.857 2.425 2.924V19.028C2.425 20.599 2.75 22.09 3.398 23.498C4.046 24.908 4.912 26.141 5.999 27.201C7.085 28.258 8.339 29.096 9.764 29.724C11.192 30.347 12.681 30.661 14.238 30.661C15.823 30.661 17.329 30.358 18.755 29.749C20.183 29.139 21.43 28.304 22.498 27.247C23.567 26.19 24.419 24.957 25.048 23.548C25.683 22.135 26 20.631 26 19.028C26 17.33 25.715 15.815 25.149 14.487Z" fill="#EE04BB"/>
<path fill-rule="evenodd" clip-rule="evenodd" d="M19.9 29.2344L13.9616 35.296L8.69524 29.1725L19.9 29.2344Z" fill="#EE04BB"/>
</g>
<defs>
<clipPath id="clip0_1_2">
<rect width="26" height="36" fill="white"/>
</clipPath>
</defs>
</svg>
