<?xml version="1.0" encoding="utf-8"?>
<svg viewBox="0 0 26 36" xmlns="http://www.w3.org/2000/svg">
  <g id="Main_nav" stroke="none" stroke-width="1" fill="none" fill-rule="evenodd">
    <g id="Home" transform="translate(-936.000000, -1534.000000)">
      <g id="pinRegular" transform="translate(936.000000, 1534.000000)">
        <path d="M 25.149 14.487 C 24.579 13.155 23.731 11.915 22.595 10.759 C 21.626 9.865 20.571 9.149 19.439 8.621 C 18.302 8.093 17.137 7.74 15.937 7.564 C 14.74 7.388 13.532 7.388 12.318 7.564 C 11.1 7.74 9.928 8.117 8.792 8.691 L 8.792 3.164 C 8.792 3.016 8.781 2.868 8.763 2.72 L 9.952 2.72 C 10.508 2.72 10.961 2.272 10.961 1.719 L 10.961 0.997 C 10.961 0.444 10.508 0 9.952 0 L 1.011 0 C 0.452 0 0 0.444 0 0.997 L 0 1.719 C 0 2.272 0.452 2.72 1.011 2.72 L 2.437 2.72 C 2.429 2.787 2.425 2.857 2.425 2.924 L 2.425 19.028 C 2.425 20.599 2.75 22.09 3.398 23.498 C 4.046 24.908 4.912 26.141 5.999 27.201 C 7.085 28.258 8.339 29.096 9.764 29.724 C 11.192 30.347 12.681 30.661 14.238 30.661 C 15.823 30.661 17.329 30.358 18.755 29.749 C 20.183 29.139 21.43 28.304 22.498 27.247 C 23.567 26.19 24.419 24.957 25.048 23.548 C 25.683 22.135 26 20.631 26 19.028 C 26 17.33 25.715 15.815 25.149 14.487 Z" id="Fill-15-Copy" fill="#1D88E5"/>
        <polygon id="Rectangle-4" fill="#1D88E5" transform="translate(14.114129, 29.448516) rotate(45.000000) translate(-14.114129, -29.448516) " points="18.0539454 25.2058751 18.1410498 33.6911564 10.087209 33.0850649"/>
      </g>
    </g>
    <g id="Page"/>
  </g>
</svg>