<?xml version="1.0" encoding="UTF-8"?>
<svg width="80px" height="99px" viewBox="0 0 80 99" version="1.1" xmlns="http://www.w3.org/2000/svg" xmlns:xlink="http://www.w3.org/1999/xlink">
    <!-- Generator: sketchtool 52.5 (67469) - http://www.bohemiancoding.com/sketch -->
    <title>2DB0028B-46AB-4AA9-A6B8-5F1ABFFEC5EC</title>
    <desc>Created with sketchtool.</desc>
    <g id="Main_nav" stroke="none" stroke-width="1" fill="none" fill-rule="evenodd">
        <g id="Home" transform="translate(-1108.000000, -2264.000000)" fill="#1D88E5">
            <g id="step4" transform="translate(1108.000000, 2264.000000)">
                <path d="M78.9372308,88.7141209 C78.5045385,86.6254882 77.8555077,84.5729616 77.0141538,82.6163088 C76.1848308,80.6897701 75.1632308,78.8352904 73.9732308,77.1008064 C72.7953385,75.3842987 71.4372308,73.7698104 69.9527692,72.3054321 C68.4623846,70.841023 66.8278462,69.5086554 65.0789231,68.3503353 C63.6606462,67.4080691 61.7555385,67.7921784 60.8121538,69.2085738 C59.8686462,70.6189771 60.2532615,72.5275855 61.6655231,73.4697289 C63.0898,74.4119951 64.4179846,75.498287 65.6258308,76.6867212 C66.8337692,77.8750632 67.9335231,79.1894238 68.8890615,80.5818969 C69.8566154,81.9862927 70.6799846,83.4866851 71.3530615,85.0470908 C72.0321538,86.6314649 72.5549846,88.2880515 72.9095231,89.9744451 C73.0597692,90.7066496 73.1799538,91.4508691 73.2701077,92.1950578 L42.8793385,92.1890503 L42.8793385,83.9307001 C42.8793385,82.2321688 41.5031385,80.8578256 39.8024154,80.8578256 C38.1016923,80.8578256 36.7254923,82.2322149 36.7254923,83.9307001 L36.7254923,92.1890503 L6.32856923,92.1890503 C6.41872308,91.4388388 6.53890769,90.7006268 6.68913846,89.9684376 C7.03769231,88.2818904 7.56653846,86.6254574 8.2456,85.0410833 C8.91266154,83.4866698 9.742,81.9861852 10.7096,80.5758894 C11.6651231,79.1834932 12.7648308,77.8691479 13.9788308,76.6807137 C15.1867692,75.4923717 16.5208308,74.4060184 17.9391385,73.4637214 C19.3694308,72.5094556 20.9019077,71.6932848 22.4883692,71.0330777 C24.1049846,70.3608864 25.7936,69.8447356 27.5123692,69.4966404 C29.2791385,69.1425377 31.0940615,68.9624826 32.9209846,68.9624826 L39.8020615,68.9684901 C41.8874462,68.9684901 43.9726769,68.7584284 45.9979077,68.3443125 C47.9751385,67.9421961 49.9162154,67.342033 51.7731385,66.561738 C53.5940615,65.7935194 55.3548308,64.8452303 57.0014462,63.7409928 C58.6300615,62.6486782 60.1625231,61.3884001 61.5566769,60.0079113 C62.9448923,58.6275146 64.2069846,57.103123 65.3126769,55.4766505 C66.4244615,53.8381939 67.3800615,52.0917256 68.1492923,50.2791906 C68.9365538,48.430703 69.5435231,46.4921801 69.9462154,44.5295352 C70.3608769,42.5129613 70.5712154,40.4363127 70.5712154,38.3598177 L70.5772308,9.55161937 C70.5772308,8.12320902 69.5916615,6.88682261 68.2033846,6.55679589 L40.5049231,0.0810201771 C40.0421846,-0.0270067257 39.5614154,-0.0270067257 39.1046769,0.0810201771 L11.4123692,6.55679589 C10.0181385,6.88089196 9.03852308,8.12319366 9.03852308,9.55161937 L9.03852308,38.3598177 C9.03852308,40.4364663 9.24886154,42.5129613 9.66352308,44.5295352 C10.0661692,46.4980186 10.6731385,48.430703 11.4604462,50.2791906 C12.2356923,52.0977177 13.1912154,53.844186 14.2970615,55.4826426 C15.3968154,57.103123 16.6649077,58.627576 18.0530615,60.0079113 C19.4472923,61.3943001 20.9736769,62.6487396 22.6082923,63.7409928 C22.8606923,63.9090484 23.1311231,64.053074 23.3895385,64.215122 C22.2777538,64.5452102 21.184,64.9233274 20.1203077,65.36745 C18.1732308,66.1776748 16.2921538,67.179985 14.5253846,68.3562813 C12.7826154,69.5146167 11.142,70.8469998 9.65753846,72.3113781 C8.16715385,73.7757872 6.81492308,75.3902447 5.63707692,77.1067524 C4.44716923,78.8412364 3.41953846,80.6957161 2.59615385,82.6222548 C1.7548,84.578754 1.10576923,86.6314342 0.673076923,88.720067 C0.228369231,90.8566366 0,93.059273 0,95.2619095 C0,96.9604408 1.3762,98.334784 3.07692308,98.334784 L76.5384615,98.334784 C78.2392308,98.334784 79.6153846,96.9603948 79.6153846,95.2619095 C79.6093692,93.059273 79.3810154,90.8566366 78.9362923,88.7140749 L78.9372308,88.7141209 Z M15.1818462,11.9875177 L39.8033846,6.23187014 L64.4249231,11.9875177 L64.4249231,35.2860521 L15.1818462,35.2860521 L15.1818462,11.9875177 Z M22.3873846,55.6499914 C21.2756,54.5456771 20.26,53.3213671 19.3826154,52.0249214 C18.4932,50.722545 17.73,49.324172 17.1169231,47.8717778 C16.4919231,46.3953538 16.0111538,44.8529859 15.6866308,43.2864345 C15.5604308,42.6742565 15.4823077,42.0500788 15.4041846,41.4319548 L64.2088,41.4319548 C64.1306769,42.0561324 64.0525538,42.68031 63.9263538,43.2924266 C63.6018308,44.8588244 63.1210615,46.4012537 62.4960615,47.8777699 C61.8830769,49.3241873 61.1198615,50.7226371 60.2303692,52.0309135 C59.3469538,53.3272824 58.3372923,54.5456003 57.2256,55.6559835 C56.1138154,56.7602978 54.8819077,57.7685847 53.5777538,58.6448149 C52.2616462,59.5270679 50.8554462,60.2892637 49.3949846,60.9015339 C47.9106154,61.5257115 46.3540615,62.0058482 44.7736,62.3239368 C41.5283692,62.9841285 38.0848308,62.9841285 34.8397538,62.3239368 C33.2592923,61.9998407 31.7026769,61.5197041 30.2183692,60.8955264 C28.7640462,60.2833484 27.3577538,59.5271447 26.0356,58.6388074 C24.7315077,57.7625619 23.5056,56.7602056 22.3877538,55.649976 L22.3873846,55.6499914 Z" id="Fill-1"></path>
                <path d="M45.723398,17.3571717 L42.6944749,17.3571717 L42.6944749,14.3623482 C42.6944749,12.6638168 41.3182749,11.2894737 39.6175518,11.2894737 C37.9168288,11.2894737 36.5406288,12.6638629 36.5406288,14.3623482 L36.5406288,17.3571717 L33.5117057,17.3571717 C31.8109365,17.3571717 30.4347826,18.7315609 30.4347826,20.4300462 C30.4347826,22.1285314 31.8109826,23.5029206 33.5117057,23.5029206 L36.5406288,23.5029206 L36.5406288,26.4977441 C36.5406288,28.1962755 37.9168288,29.5706186 39.6175518,29.5706186 C41.3182749,29.5706186 42.6944749,28.1962294 42.6944749,26.4977441 L42.6944749,23.5029206 L45.723398,23.5029206 C47.4241672,23.5029206 48.8003211,22.1285314 48.8003211,20.4300462 C48.8003211,18.7315609 47.4241211,17.3571717 45.723398,17.3571717 Z" id="Fill-2"></path>
            </g>
        </g>
        <g id="Page"></g>
    </g>
</svg>