<?xml version="1.0" encoding="UTF-8"?>
<svg width="20px" height="20px" viewBox="0 0 20 20" version="1.1" xmlns="http://www.w3.org/2000/svg" xmlns:xlink="http://www.w3.org/1999/xlink">
    <!-- Generator: sketchtool 52.5 (67469) - http://www.bohemiancoding.com/sketch -->
    <title>C6DEBB81-EAEA-4153-84CE-36B704DAC4A8</title>
    <desc>Created with sketchtool.</desc>
    <g id="Main_nav" stroke="none" stroke-width="1" fill="none" fill-rule="evenodd">
        <g id="Analiza-Page" transform="translate(-166.000000, -4330.000000)">
            <g id="plazma" transform="translate(166.000000, 4330.000000)">
                <rect id="Rectangle-14-Copy" fill="#CE72CA" fill-rule="nonzero" x="0" y="0" width="20" height="20" rx="2"></rect>
                <path d="M8.61199687,4 C7.74395023,4 6.72331376,4.36292429 5.81411359,5.0671302 C4.18527109,6.32869489 3.53276645,8.20688261 4.35632084,9.26262511 C4.72064204,9.72911122 5.31225107,9.95693758 5.99980043,9.95693758 C6.86784707,9.95693758 7.88848354,9.59354333 8.79768371,8.88980738 C10.4265262,7.62824269 11.079031,5.75005497 10.2554766,4.69431247 C9.89115538,4.22782636 9.29954624,4 8.61199687,4 Z M5.34209403,8.32069939 C6.10712379,8.25668122 6.9213394,7.91681552 7.63529621,7.36372262 C8.22832069,6.90476806 8.69424344,6.34508354 8.98252377,5.74630727 C9.01701918,5.67381641 8.98630404,5.58720479 8.91400593,5.55236686 C8.84123604,5.51753374 8.75429106,5.54812991 8.71931903,5.62062198 C8.45044207,6.17936656 8.01383002,6.70281528 7.45628563,7.1344032 C6.78622834,7.65314019 6.02692039,7.97181511 5.31804426,8.03112757 C5.23771383,8.03771798 5.17818033,8.10832535 5.18478522,8.18788021 C5.19140063,8.26366688 5.2547196,8.32109826 5.32985079,8.32109826 C5.33410405,8.32109826 5.33788432,8.32109826 5.34213637,8.32062709 L5.34209403,8.32069939 Z M6.86980677,10.5410846 C6.33159317,10.5410846 5.86095264,10.7124303 5.54386969,11.0673531 C4.74906943,11.9570159 5.21735118,13.6648339 6.59052651,14.8810888 C7.41509703,15.6121191 8.37807985,16 9.18808575,16 C9.72629934,16 10.1974237,15.8286542 10.5145067,15.4737315 C11.3088351,14.5840686 10.8405534,12.8767326 9.46784988,11.6599957 C8.64327936,10.9289654 7.67981267,10.5410846 6.86980677,10.5410846 Z M9.55809247,14.4466449 C9.57935634,14.3694472 9.53352133,14.2894223 9.45555221,14.2687076 C8.92301204,14.1251382 8.39471787,13.8299978 7.92687172,13.4152926 C7.36456118,12.9168004 6.96338084,12.3086248 6.79704898,11.702317 C6.77578511,11.6251192 6.69592647,11.5799323 6.61795493,11.600641 C6.54046001,11.6218234 6.49462742,11.7018458 6.51588766,11.7790484 C6.69686881,12.438535 7.12876309,13.0966478 7.73307394,13.6322916 C8.2344284,14.076653 8.8038398,14.3934481 9.37933593,14.5487908 C9.39209449,14.5520854 9.40485305,14.5539689 9.41761161,14.5539689 C9.48187619,14.5539689 9.54046735,14.5111331 9.55795941,14.4466449 L9.55809247,14.4466449 Z M13.5089277,4.52858223 C13.4890816,4.52858223 13.4687625,4.5290522 13.4489164,4.52999454 C12.212738,4.57989076 11.2734167,6.15439917 11.3508366,8.04632443 C11.426915,9.908003 12.4575059,11.3832227 13.6676276,11.3832227 C13.6874738,11.3832227 13.7077929,11.3827515 13.727639,11.3818104 C14.9633335,11.3319142 15.9026548,9.75776726 15.8252349,7.86548048 C15.7496295,6.00428394 14.7185655,4.52858223 13.5089277,4.52858223 Z M13.5566535,10.1471182 C13.9190875,9.53988254 14.1000687,8.74721406 14.0660402,7.91585148 C14.0376876,7.22529876 13.865692,6.57571767 13.56846,6.0386278 C13.5292395,5.9684904 13.4408744,5.94259994 13.3704706,5.98167001 C13.3000633,6.0202689 13.2740732,6.10876641 13.3132936,6.1789002 C13.5887755,6.67692241 13.7485024,7.28179623 13.7749583,7.92766577 C13.8061452,8.70388535 13.6398121,9.4391574 13.3062049,9.99890217 C13.2650949,10.0676273 13.2877765,10.1565947 13.3572379,10.1980122 C13.3803925,10.211663 13.4059084,10.2182534 13.4314255,10.2182534 C13.481042,10.2182534 13.5297125,10.1928342 13.5566522,10.1471749 L13.5566535,10.1471182 Z M14.6751414,11.8723613 C14.3396471,11.8723613 13.970596,11.9453233 13.6062748,12.0978378 C12.5969368,12.5196046 12.0019889,13.3923003 12.2780393,14.0461593 C12.4538188,14.4641663 12.9424232,14.6919927 13.5355081,14.6919927 C13.8705307,14.6919927 14.2395818,14.6190307 14.6043748,14.4665162 C15.6137128,14.0447494 16.2081732,13.1720537 15.9326103,12.5181947 C15.7568308,12.1001876 15.2682264,11.8723613 14.6751414,11.8723613 Z M14.2385173,13.5910007 C14.5806287,13.4483712 14.872659,13.2323061 15.0819952,12.966822 C15.1320835,12.9037449 15.1207427,12.8124312 15.0578958,12.7630002 C14.9941042,12.7131039 14.902427,12.7244013 14.8532895,12.7870071 C14.6737237,13.0138936 14.4223388,13.1993625 14.1255907,13.323627 C13.7697736,13.4728481 13.395049,13.5128557 13.0685305,13.4370714 C12.9905626,13.4191837 12.9121181,13.4671976 12.8936946,13.5453378 C12.8752662,13.6234779 12.9239367,13.7016204 13.0023776,13.7195034 C13.1313786,13.7496295 13.2660529,13.7646926 13.4040298,13.7646926 C13.6780963,13.7646926 13.9644532,13.7058526 14.2385197,13.590997 L14.2385173,13.5910007 Z" id="Fill-1" fill="#FFFFFF"></path>
            </g>
        </g>
        <g id="Page"></g>
    </g>
</svg>