<?xml version="1.0" encoding="UTF-8"?>
<svg width="30px" height="30px" viewBox="0 0 30 30" version="1.1" xmlns="http://www.w3.org/2000/svg" xmlns:xlink="http://www.w3.org/1999/xlink">
    <!-- Generator: sketchtool 52.6 (67491) - http://www.bohemiancoding.com/sketch -->
    <title>24EEE51A-902F-42D1-9F62-65809E197199</title>
    <desc>Created with sketchtool.</desc>
    <g id="Main_nav" stroke="none" stroke-width="1" fill="none" fill-rule="evenodd">
        <g id="Grupe-Analiza" transform="translate(-193.000000, -3625.000000)" fill="#6F6CE5">
            <g id="pljuvacka" transform="translate(193.000000, 3625.000000)">
                <path d="M6.582,29.5 C3.1367,29.5 0.332,26.6953 0.332,23.25 C0.332,20.7344 3.6406,12.441 4.6523,9.961 C5.29292,8.3946 7.8632,8.3946 8.5117,9.961 C9.5234,12.4415 12.832,20.734 12.832,23.25 C12.832,26.6953 10.0273,29.5 6.582,29.5 Z M6.582,16.5 C5.4218,19.6602 4.5117,22.4531 4.5,23.25 C4.5,24.3984 5.4375,25.332 6.582,25.332 C7.7265,25.332 8.664,24.39841 8.664,23.25 C8.65228,22.45312 7.74603,19.6602 6.582,16.5 Z" id="Fill-1"></path>
                <path d="M27.418,12.832 L6.586,12.832 C5.89069,12.832 5.2383,12.48434 4.8516,11.90231 C4.46488,11.32028 4.39848,10.58981 4.66019,9.94531 C4.82425,9.55469 8.75789,0.33201 17.00019,0.33201 C25.24249,0.33201 29.17619,9.55471 29.34019,9.94921 C29.60191,10.58983 29.5355,11.32811 29.14878,11.90621 C28.76206,12.48824 28.11358,12.83199 27.41828,12.83199 L27.418,12.832 Z M10.203,8.6679 L23.793,8.6679 C22.3672,6.7187 20.0664,4.4999 16.9961,4.4999 C13.9297,4.4999 11.6289,6.7147 10.203,8.6679 Z" id="Fill-5"></path>
            </g>
        </g>
        <g id="Page"></g>
    </g>
</svg>