<?xml version="1.0" encoding="UTF-8"?>
<svg width="55px" height="50px" viewBox="0 0 55 50" version="1.1" xmlns="http://www.w3.org/2000/svg" xmlns:xlink="http://www.w3.org/1999/xlink">
    <!-- Generator: sketchtool 52.5 (67469) - http://www.bohemiancoding.com/sketch -->
    <title>B67768B5-55E7-415C-B690-D960E684D0CB</title>
    <desc>Created with sketchtool.</desc>
    <g id="Main_nav" stroke="none" stroke-width="1" fill="none" fill-rule="evenodd">
        <g id="Checkout" transform="translate(-1121.000000, -1441.000000)" fill="#EE3131">
            <path d="M1168.31107,1456.75334 C1165.56107,1457.31583 1163.5136,1459.57457 1163.26545,1462.31382 C1163.01735,1465.05592 1164.62545,1467.63108 1167.22899,1468.65939 L1167.22899,1473.25598 C1167.28578,1476.42588 1166.14393,1479.50487 1164.02469,1481.90408 C1161.90843,1484.30344 1158.96116,1485.85029 1155.75127,1486.25168 C1152.16436,1486.59738 1148.59835,1485.44604 1145.92601,1483.07594 C1143.25376,1480.70883 1141.72633,1477.34266 1141.72335,1473.8121 L1141.72335,1471.95175 C1145.75262,1471.22227 1149.39072,1469.13345 1152.01155,1466.04853 C1154.633,1462.96361 1156.06776,1459.07598 1156.07074,1455.06272 L1156.07074,1447.24936 C1156.07074,1445.59121 1155.3982,1444.00334 1154.20257,1442.83148 C1153.00693,1441.6567 1151.38385,1441.00046 1149.69504,1441.00046 L1145.70762,1441.00046 C1144.3894,1441.00046 1143.31635,1442.04925 1143.31635,1443.34417 C1143.31635,1444.63618 1144.3894,1445.68788 1145.70762,1445.68788 L1149.69504,1445.68788 C1150.1165,1445.68788 1150.52299,1445.85194 1150.82196,1446.14491 C1151.12093,1446.43788 1151.28826,1446.83631 1151.28826,1447.24942 L1151.28826,1454.50614 C1151.34206,1457.67604 1150.2032,1460.75503 1148.08396,1463.15424 C1145.96472,1465.55345 1143.02043,1467.10045 1139.81054,1467.50184 C1136.22364,1467.84754 1132.65464,1466.6962 1129.98223,1464.3261 C1127.31296,1461.95899 1125.78553,1458.59282 1125.78254,1455.06226 L1125.78254,1447.24889 C1125.78254,1446.38468 1126.49395,1445.68742 1127.3757,1445.68742 L1131.36013,1445.68742 C1132.68134,1445.68742 1133.75141,1444.63571 1133.75141,1443.34371 C1133.75141,1442.04878 1132.68134,1441 1131.36013,1441 L1127.3757,1441 C1123.85453,1441 1121,1443.79783 1121,1447.24889 L1121,1455.06226 C1121,1459.34828 1122.63502,1463.47936 1125.58527,1466.64581 C1128.53553,1469.80985 1132.58569,1471.78149 1136.94094,1472.16818 L1136.94094,1473.07342 C1136.86622,1477.43564 1138.44143,1481.66902 1141.35879,1484.96446 C1144.27912,1488.25736 1148.33831,1490.37847 1152.75348,1490.91748 C1157.68248,1491.39208 1162.58486,1489.8042 1166.25249,1486.54648 C1169.92013,1483.28869 1172.01243,1478.66262 1172.01243,1473.81171 L1172.01243,1468.65847 C1175.07625,1467.44559 1176.6844,1464.141 1175.72193,1461.0446 C1174.75945,1457.94798 1171.54321,1456.08471 1168.31197,1456.75265 L1168.31107,1456.75334 Z" id="mogucnostPodele"></path>
        </g>
        <g id="Page"></g>
    </g>
</svg>