<?xml version="1.0" encoding="UTF-8"?>
<svg width="40px" height="25px" viewBox="0 0 40 25" version="1.1" xmlns="http://www.w3.org/2000/svg" xmlns:xlink="http://www.w3.org/1999/xlink">
    <!-- Generator: sketchtool 52.6 (67491) - http://www.bohemiancoding.com/sketch -->
    <title>5945CD9A-8F5B-4A1E-B1CC-219DAF526E6D</title>
    <desc>Created with sketchtool.</desc>
    <g id="Main_nav" stroke="none" stroke-width="1" fill="none" fill-rule="evenodd">
        <g id="Grupe-Analiza" transform="translate(-186.000000, -3701.000000)" fill="#FF8686">
            <g id="polniHormoni" transform="translate(186.000000, 3701.000000)">
                <path d="M38.4395122,0.337073171 L31.2195122,0.337073171 C30.546878,0.337073171 30,0.88204878 30,1.55658537 C30,2.22921951 30.546878,2.77609756 31.2195122,2.77609756 L35.4878049,2.77609756 L29.6780488,8.5897561 C27.4333659,6.932 24.5009756,6.52609756 21.8882927,7.51126829 C19.2777561,8.49829268 17.3456098,10.7429756 16.7585366,13.4717561 C16.1716585,16.1984878 17.0081561,19.039561 18.9822439,21.0137073 C20.954439,22.9878049 23.7955122,23.8242927 26.5241951,23.2374146 C29.252878,22.6486341 31.4954146,20.716439 32.4827317,18.1057073 C33.4697561,15.4951707 33.0639024,12.5627805 31.4042439,10.3159512 L37.2198537,4.50229268 L37.2198537,8.78009756 C37.2198537,9.45273171 37.7648293,9.99960976 38.4393659,9.99960976 C39.112,9.99960976 39.658878,9.45273171 39.658878,8.78009756 L39.658878,1.55619512 C39.658878,1.23226341 39.5293073,0.921658537 39.3006439,0.69302439 C39.0719805,0.464390244 38.763278,0.336697561 38.4393756,0.336697561 L38.4395122,0.337073171 Z M28.8873171,19.2834146 C27.2352683,20.9354634 24.7485854,21.430878 22.5878049,20.5353171 C20.428878,19.6397561 19.0207317,17.5322927 19.0207317,15.1943415 C19.0207317,12.8562927 20.428878,10.7488293 22.5878049,9.85531707 C24.7486341,8.9597561 27.2352683,9.45516585 28.8873171,11.1072195 C31.1396098,13.367122 31.1396098,17.0238049 28.8873171,19.2838049 L28.8873171,19.2834146 Z" id="Fill-1"></path>
                <path d="M2.22,24.3121951 L4.82478049,21.7074146 L7.56678049,24.4494146 C8.05267805,24.8267024 8.74629268,24.7809707 9.18073171,24.3427073 C9.61518537,23.9044439 9.65138537,23.2108537 9.26838537,22.7268537 L6.55116585,20.000122 L9.9658,16.5854878 C11.0538488,17.383878 12.3228732,17.9002683 13.6586293,18.087 L13.8339366,18.087 C14.5084732,18.1346341 15.0915463,17.6277756 15.1392049,16.9532439 C15.1868439,16.2806098 14.678078,15.6956341 14.0054488,15.6479756 C12.1685707,15.3773951 10.5717415,14.2417317 9.71618049,12.5915854 C8.86252195,10.9433415 8.85110732,8.9845122 9.6876,7.32670732 C10.5240878,5.66895122 12.1056488,4.51231707 13.9406683,4.2207561 C15.7737463,3.92921463 17.6373073,4.53706829 18.9465268,5.85378049 C19.4228976,6.33015122 20.1965268,6.33015122 20.6729122,5.85378049 C21.1511902,5.37740976 21.1511902,4.60378049 20.6729122,4.12739024 C18.704522,2.13426829 15.8539415,1.28441463 13.1138878,1.86939024 C10.3756927,2.45436585 8.12364878,4.39607317 7.14022927,7.02012195 C6.15681463,9.64417073 6.57813171,12.5879268 8.25876585,14.8289024 L4.84413171,18.2435366 L2.10213171,15.5015366 L2.10213171,15.503439 C1.62576098,15.025161 0.852131707,15.025161 0.375743902,15.503439 C-0.100626829,15.9798098 -0.100626829,16.753439 0.375743902,17.2298293 L3.10247317,20.0004146 L0.488131707,22.5899756 C0.0117634146,23.0682537 0.0117634146,23.8399756 0.488131707,24.3182683 C0.964502439,24.794639 1.73813171,24.794639 2.21452195,24.3182683 L2.22,24.3121951 Z" id="Fill-2"></path>
            </g>
        </g>
        <g id="Page"></g>
    </g>
</svg>