<svg xmlns="http://www.w3.org/2000/svg" width="13.498" height="27.1" viewBox="0 0 13.498 27.1">
  <path id="icon_trudna" d="M42.527,26.007A3.3,3.3,0,1,0,39.2,22.682,3.354,3.354,0,0,0,42.527,26.007Zm0-5.743a2.414,2.414,0,0,1,2.418,2.418,2.44,2.44,0,1,1-4.88,0A2.48,2.48,0,0,1,42.527,20.264Zm6.391,11.961A3.7,3.7,0,0,1,50,34.816a3.765,3.765,0,0,1-2.5,3.541l.691,2.461H44.773V46h-.864V39.955h3.109l-.6-2.2.432-.086a2.9,2.9,0,0,0,2.289-2.807,2.951,2.951,0,0,0-.82-2.03l-3.152-3.67c-.086-.086-.216-.259-.345-.389-.3-.389-.734-.907-1.08-.907H41.4c-.907,0-.95.993-.95,1.123v3.67l3.411,3.627a.6.6,0,0,0,.864-.82l-2.98-3.239v-2.2h.864V31.88l2.72,2.98a1.475,1.475,0,0,1-.043,2.03,1.433,1.433,0,0,1-2.03,0l-2.5-2.634-2.461,5.7h3.886V46h-.864V40.818H37l3.109-7.255L39.591,33V28.986A1.885,1.885,0,0,1,41.4,27h2.332c.734,0,1.3.691,1.727,1.209a2.374,2.374,0,0,1,.3.389Z" transform="translate(-36.75 -19.15)" fill="#1d88e5" stroke="#1d88e5" stroke-linecap="round" stroke-linejoin="round" stroke-width="0.5"/>
</svg>
