<?xml version="1.0" encoding="UTF-8"?>
<svg width="16px" height="18px" viewBox="0 0 16 18" version="1.1" xmlns="http://www.w3.org/2000/svg" xmlns:xlink="http://www.w3.org/1999/xlink">
    <!-- Generator: sketchtool 52.5 (67469) - http://www.bohemiancoding.com/sketch -->
    <title>972E445F-0EA3-4358-9777-2105780743F7</title>
    <desc>Created with sketchtool.</desc>
    <g id="Main_nav" stroke="none" stroke-width="1" fill="none" fill-rule="evenodd">
        <g id="Home" transform="translate(-1211.000000, -36.000000)" fill="#FFFFFF">
            <g id="Group-10" transform="translate(1211.000000, 36.000000)">
                <path d="M8,1.6875 C9.88928571,1.6875 11.4285714,3.20273438 11.4285714,5.0625 C11.4285714,6.92226562 9.88928571,8.4375 8,8.4375 C6.11071429,8.4375 4.57142857,6.92226562 4.57142857,5.0625 C4.57142857,3.20273438 6.11071429,1.6875 8,1.6875 Z M8,10.125 C10.8392857,10.125 13.1428571,7.85742188 13.1428571,5.0625 C13.1428571,2.26757812 10.8392857,0 8,0 C5.16071429,0 2.85714286,2.26757812 2.85714286,5.0625 C2.85714286,7.85742188 5.16071429,10.125 8,10.125 Z M14.2857143,16.3125 L1.71428571,16.3125 L1.71428571,15.4125 C1.71428571,13.7390625 3.1,12.375 4.8,12.375 C5.32142857,12.375 6.16785714,12.9375 8,12.9375 C9.84642857,12.9375 10.675,12.375 11.2,12.375 C12.9,12.375 14.2857143,13.7390625 14.2857143,15.4125 L14.2857143,16.3125 Z M11.2,10.6875 C10.175,10.6875 9.68214286,11.25 8,11.25 C6.31785714,11.25 5.82857143,10.6875 4.8,10.6875 C2.15,10.6875 0,12.8039063 0,15.4125 L0,16.3125 C0,17.2441406 0.767857143,18 1.71428571,18 L14.2857143,18 C15.2321429,18 16,17.2441406 16,16.3125 L16,15.4125 C16,12.8039063 13.85,10.6875 11.2,10.6875 Z" id="prijava"></path>
            </g>
        </g>
        <g id="Page"></g>
    </g>
</svg>