<?xml version="1.0" encoding="UTF-8"?>
<svg width="54px" height="44px" viewBox="0 0 54 44" version="1.1" xmlns="http://www.w3.org/2000/svg" xmlns:xlink="http://www.w3.org/1999/xlink">
    <!-- Generator: sketchtool 52.5 (67469) - http://www.bohemiancoding.com/sketch -->
    <title>06C9263B-EAE1-414A-8A1F-7553772E486B</title>
    <desc>Created with sketchtool.</desc>
    <g id="Main_nav" stroke="none" stroke-width="1" fill="none" fill-rule="evenodd">
        <g id="ThankYou" transform="translate(-550.000000, -791.000000)" fill="#FFBD0A">
            <g id="priprema2" transform="translate(550.000000, 791.000000)">
                <path d="M39.6306122,1.19387755 C40.5741929,0.24812616 42.1069759,0.24812616 43.0527273,1.19387755 C43.996308,2.13745826 43.996308,3.67024119 43.0527273,4.61599258 L31.9299072,15.7365863 C31.4581113,16.2105529 31.4581113,16.9758813 31.9299072,17.4476438 C32.4017032,17.9216104 33.1692022,17.9216104 33.6409647,17.4476438 L44.7637848,6.32705009 C45.7073655,5.3812987 47.2401484,5.3812987 48.1858998,6.32705009 C49.1294805,7.2706308 49.1294805,8.80341373 48.1858998,9.74916512 L37.0630798,20.8719852 C36.5912839,21.3437811 36.5912839,22.1091095 37.0630798,22.580872 C37.5348757,23.0548386 38.3023748,23.0548386 38.7741373,22.5830482 L49.8969573,11.4602282 C50.840538,10.5144768 52.373321,10.5144768 53.3190724,11.4602282 C54.2626531,12.4059796 54.2626531,13.9365918 53.3190724,14.8823432 L41.3413358,26.8600798 C39.449833,28.7515826 36.3842672,28.7515826 34.4947681,26.8600798 L32.7837106,25.1490223 L31.514026,26.4187069 L28.0919109,22.9965918 L29.3615955,21.7269072 L27.650538,20.0158497 C25.7612059,18.1265176 25.7612059,15.0609518 27.650538,13.1715083 L39.6306122,1.19387755 Z" id="Fill-1"></path>
                <path d="M21.6244898,29.464564 L12.251577,38.8374768 C11.3058256,39.7832282 11.3058256,41.3160111 12.251577,42.2595918 C13.1951577,43.2053432 14.7279406,43.2053432 15.673692,42.2595918 L25.0488312,32.886679 L21.6244898,29.464564 Z" id="Fill-2"></path>
                <path d="M3.9374026,3.83766234 C-1.21753247,8.9925974 -1.21753247,17.3499072 3.9374026,22.5050093 L12.5472356,31.1170686 C13.5386271,32.1062894 15.1453803,32.1062894 16.1367718,31.1170686 L21.1873469,26.0664935 L37.7719481,42.6510946 C38.7176994,43.596846 40.2504824,43.596846 41.1940631,42.6510946 C42.1398145,41.7075139 42.1398145,40.174731 41.1940631,39.2289796 L5.80296846,3.83788497 C5.53989239,3.57480891 5.19200371,3.44653803 4.84853544,3.45088497 C4.66155584,3.45523748 4.47457625,3.49654731 4.30281929,3.57916141 C4.17019592,3.6422115 4.04626642,3.72917811 3.93755955,3.83788497 L3.9374026,3.83766234 Z M5.4180334,10.296846 C4.33747681,13.2580519 4.98320037,16.7064935 7.35957328,19.0825603 L14.3430612,26.0660482 L17.7651763,22.6439332 L5.4180334,10.296846 Z" id="Fill-3"></path>
            </g>
        </g>
        <g id="Page"></g>
    </g>
</svg>