<?xml version="1.0" encoding="UTF-8"?>
<svg width="55px" height="37px" viewBox="0 0 55 37" version="1.1" xmlns="http://www.w3.org/2000/svg" xmlns:xlink="http://www.w3.org/1999/xlink">
    <!-- Generator: sketchtool 52.5 (67469) - http://www.bohemiancoding.com/sketch -->
    <title>CBB8CAA2-1464-4AE9-B138-3F37C79596F0</title>
    <desc>Created with sketchtool.</desc>
    <g id="Main_nav" stroke="none" stroke-width="1" fill="none" fill-rule="evenodd">
        <g id="ThankYou" transform="translate(-1120.000000, -794.000000)" fill="#A4DE36">
            <g id="priprema4" transform="translate(1120.000000, 794.000000)">
                <path d="M46.5212727,9.20672727 C44.1008182,9.22377273 42.1235455,7.27205455 42.1235455,4.84734545 C42.11076,2.42901818 44.0646,0.456 46.4893091,0.441109091 C48.9076364,0.432589091 50.8764,2.38429091 50.8891636,4.80474545 C50.8998164,7.22732727 48.9502364,9.20034545 46.5212727,9.20672727 Z" id="Fill-1"></path>
                <path d="M27.1532727,18.8885455 C27.1532727,18.8885455 31.1142,17.1285818 34.6810909,17.2244727 C37.2400364,17.2947873 39.7137818,17.7294436 41.9383636,18.4432364 C43.2274364,15.8416909 44.9170364,12.7950545 46.2231818,10.8625091 C44.1926182,8.76807273 39.7906364,9.7098 38.2819091,13.0422 L37.9900036,13.5216055 C37.9900036,13.5216055 36.0233673,13.0059818 32.30964,13.4832545 C28.5959127,13.9605273 26.0860036,15.3177818 26.2758218,17.1288545 C26.3994,18.3454909 27.1536764,18.8888182 27.1536764,18.8888182 L27.1532727,18.8885455 Z" id="Fill-2"></path>
                <path d="M49.1503636,9.654 C47.3648727,11.3138182 45.2746364,14.9253273 43.3036364,18.9158182 C46.8192545,20.2219091 49.5190909,21.9285818 50.6585455,22.7041636 L54.2167636,7.96816364 C54.1017055,7.95111818 51.4170545,7.54628727 49.1499818,9.65350909 L49.1503636,9.654 Z" id="Fill-3"></path>
                <path d="M19.9707273,36.5498182 C19.9707273,36.5498182 22.2420545,22.6685455 28.1634545,19.956 C38.4567273,15.2535818 50.4332727,24.2194909 50.4332727,24.2194909 L47.3565818,36.5794909 L19.9707273,36.5498182 Z" id="Fill-4"></path>
                <path d="M18.3730909,36.5792727 L18.3730909,29.0470909 C18.3730909,27.3808909 17.0222182,26.0300727 15.3560727,26.0300727 L5.7168,26.0300727 C4.05059836,26.0300727 2.69978018,27.3830727 2.69978018,29.0470909 L2.69978018,36.5792727 L18.3730909,36.5792727 Z" id="Fill-5"></path>
                <path d="M25.8878182,19.83 L2.97,19.83 C1.58078182,19.83 0.455781764,20.955 0.455781764,22.3442182 C0.455781764,23.7334364 1.58078182,24.8584364 2.97,24.8584364 L22.0696364,24.8584364 C23.1115636,22.8193636 24.3771818,21.0019091 25.8878182,19.83 Z" id="Fill-6"></path>
            </g>
        </g>
        <g id="Page"></g>
    </g>
</svg>