<?xml version="1.0" encoding="UTF-8"?>
<svg width="55px" height="30px" viewBox="0 0 55 30" version="1.1" xmlns="http://www.w3.org/2000/svg" xmlns:xlink="http://www.w3.org/1999/xlink">
    <!-- Generator: sketchtool 52.5 (67469) - http://www.bohemiancoding.com/sketch -->
    <title>282BB3E5-F786-42C6-8211-FD66BC555457</title>
    <desc>Created with sketchtool.</desc>
    <g id="Main_nav" stroke="none" stroke-width="1" fill="none" fill-rule="evenodd">
        <g id="ThankYou" transform="translate(-265.000000, -798.000000)" fill="#DE0707">
            <path d="M318.333333,808.199996 L315.909091,808.199996 L315.909091,806.999995 C315.909091,804.660953 314.029333,802.799992 311.666667,802.799992 C310.99903,802.799992 310.39297,802.98046 309.848485,803.219524 L309.848485,802.200003 C309.848485,799.860961 307.968727,798 305.606061,798 C303.243394,798 301.363636,799.860961 301.363636,802.200003 L301.363636,808.200008 L283.181818,808.200008 L283.181818,802.200003 C283.181818,799.860961 281.302061,798 278.939394,798 C276.576727,798 274.69697,799.860961 274.69697,802.200003 L274.69697,803.219524 C274.152461,802.98046 273.546424,802.799992 272.878788,802.799992 C270.516121,802.799992 268.636364,804.660953 268.636364,806.999995 L268.636364,808.199996 L266.212121,808.199996 C265.544485,808.199996 265,808.739061 265,809.399997 L265,816.600003 C265,817.260963 265.544509,817.800004 266.212121,817.800004 L268.636364,817.800004 L268.636364,819.000005 C268.636364,821.339047 270.516121,823.200008 272.878788,823.200008 C273.546424,823.200008 274.152485,823.01954 274.69697,822.780476 L274.69697,823.799997 C274.69697,826.139039 276.576727,828 278.939394,828 C281.302061,828 283.181818,826.139039 283.181818,823.799997 L283.181818,817.799992 L301.363636,817.799992 L301.363636,823.799997 C301.363636,826.139039 303.243394,828 305.606061,828 C307.968727,828 309.848485,826.139039 309.848485,823.799997 L309.848485,822.780476 C310.392994,823.01954 310.99903,823.200008 311.666667,823.200008 C314.029333,823.200008 315.909091,821.339047 315.909091,819.000005 L315.909091,817.800004 L318.333333,817.800004 C319.00097,817.800004 319.545455,817.260939 319.545455,816.600003 L319.545455,809.399997 C319.545455,808.739037 319.000945,808.199996 318.333333,808.199996 Z M267.424242,815.400002 L267.424242,810.599998 L268.636364,810.599998 L268.636364,815.400002 L267.424242,815.400002 Z M272.878788,820.800006 C271.84897,820.800006 271.060606,820.019526 271.060606,819.000005 L271.060606,806.999995 C271.060606,805.980474 271.84897,805.199994 272.878788,805.199994 C273.908606,805.199994 274.69697,805.980474 274.69697,806.999995 L274.69697,819.000005 C274.69697,820.019526 273.908606,820.800006 272.878788,820.800006 Z M280.757576,823.800009 C280.757576,824.819529 279.969212,825.60001 278.939394,825.60001 C277.909576,825.60001 277.121212,824.819529 277.121212,823.800009 L277.121212,802.199991 C277.121212,801.180471 277.909576,800.39999 278.939394,800.39999 C279.969212,800.39999 280.757576,801.180471 280.757576,802.199991 L280.757576,823.800009 Z M283.181818,815.400002 L283.181818,810.599998 L301.363636,810.599998 L301.363636,815.400002 L283.181818,815.400002 Z M307.424242,823.800009 C307.424242,824.819529 306.635879,825.60001 305.606061,825.60001 C304.576242,825.60001 303.787879,824.819529 303.787879,823.800009 L303.787879,802.199991 C303.787879,801.180471 304.576242,800.39999 305.606061,800.39999 C306.635879,800.39999 307.424242,801.180471 307.424242,802.199991 L307.424242,823.800009 Z M313.484848,819.000005 C313.484848,820.019526 312.696485,820.800006 311.666667,820.800006 C310.636848,820.800006 309.848485,820.019526 309.848485,819.000005 L309.848485,806.999995 C309.848485,805.980474 310.636848,805.199994 311.666667,805.199994 C312.696485,805.199994 313.484848,805.980474 313.484848,806.999995 L313.484848,819.000005 Z M317.121212,815.400002 L315.909091,815.400002 L315.909091,810.599998 L317.121212,810.599998 L317.121212,815.400002 Z" id="priprema1"></path>
        </g>
        <g id="Page"></g>
    </g>
</svg>