<?xml version="1.0" encoding="UTF-8"?>
<svg width="48px" height="48px" viewBox="0 0 48 48" version="1.1" xmlns="http://www.w3.org/2000/svg" xmlns:xlink="http://www.w3.org/1999/xlink">
    <!-- Generator: sketchtool 52.5 (67469) - http://www.bohemiancoding.com/sketch -->
    <title>F85DFE67-CF5D-433B-A60F-6996A8B66278</title>
    <desc>Created with sketchtool.</desc>
    <g id="Main_nav" stroke="none" stroke-width="1" fill="none" fill-rule="evenodd">
        <g id="Analiza-Page" transform="translate(-190.000000, -588.000000)" fill="#1AE9B6">
            <g id="priprema" transform="translate(190.000000, 588.000000)">
                <path d="M24.7826087,0.260869565 L24.3913043,0.260869565 L24,0.260869565 C23.2173913,0.260869565 22.5652174,0.913043478 22.5652174,1.69565217 L22.5652174,3.39130435 C22.5652174,4.17391304 23.2173913,4.82608696 24,4.82608696 C24.7826087,4.82608696 25.4347826,4.17391304 25.4347826,3.39130435 L25.4347826,3.26086957 C35.8695652,3.65217391 43.9565217,11.8695652 44.7391304,22.5652174 L44.6086957,22.5652174 C43.826087,22.5652174 43.173913,23.2173913 43.173913,24 C43.173913,24.7826087 43.826087,25.4347826 44.6086957,25.4347826 L44.7391304,25.4347826 C43.9565217,35.7391304 35.7391304,43.9565217 25.4347826,44.7391304 L25.4347826,44.6086957 C25.4347826,43.826087 24.7826087,43.173913 24,43.173913 C23.2173913,43.173913 22.5652174,43.826087 22.5652174,44.6086957 L22.5652174,44.7391304 C12.2608696,43.9565217 4.04347826,35.7391304 3.26086957,25.4347826 L3.52173913,25.4347826 C4.30434783,25.4347826 4.95652174,24.7826087 4.95652174,24 C4.95652174,23.2173913 4.30434783,22.5652174 3.52173913,22.5652174 L3.26086957,22.5652174 C3.65217391,17.3478261 5.86956522,12.5217391 9.7826087,8.86956522 L9.7826087,10.4347826 C9.7826087,11.2173913 10.4347826,11.8695652 11.2173913,11.8695652 C12,11.8695652 12.6521739,11.2173913 12.6521739,10.4347826 L12.6521739,5.08695652 C12.6521739,4.30434783 12,3.65217391 11.2173913,3.65217391 L5.60869565,3.65217391 C4.82608696,3.65217391 4.17391304,4.30434783 4.17391304,5.08695652 C4.17391304,5.86956522 4.82608696,6.52173913 5.60869565,6.52173913 L7.95652174,6.52173913 C3.13043478,10.9565217 0.260869565,17.2173913 0.260869565,24 C0.260869565,37.0434783 10.9565217,47.7391304 24,47.7391304 C37.0434783,47.7391304 47.7391304,37.0434783 47.7391304,24 C47.7391304,10.6956522 37.5652174,0.260869565 24.7826087,0.260869565 Z" id="Fill-1"></path>
                <path d="M7.82608696,22.9565217 C7.17391304,22.9565217 6.7826087,23.4782609 6.7826087,24 C6.7826087,33.5217391 14.6086957,41.3478261 24.1304348,41.3478261 C24.7826087,41.3478261 25.173913,40.826087 25.173913,40.3043478 C25.173913,39.6521739 24.6521739,39.2608696 24.1304348,39.2608696 C15.7826087,39.2608696 9,32.4782609 9,24.1304348 C8.86956522,23.3478261 8.34782609,22.9565217 7.82608696,22.9565217 Z" id="Fill-2"></path>
                <path d="M24,27.3913043 C25.3043478,27.3913043 26.4782609,26.6086957 27,25.5652174 L34.173913,25.5652174 C34.9565217,25.5652174 35.6086957,24.9130435 35.6086957,24.1304348 C35.6086957,23.3478261 34.9565217,22.6956522 34.173913,22.6956522 L27,22.6956522 C26.6086957,22.0434783 26.0869565,21.5217391 25.4347826,21.1304348 L25.4347826,8.08695652 C25.4347826,7.30434783 24.7826087,6.65217391 24,6.65217391 C23.2173913,6.65217391 22.5652174,7.30434783 22.5652174,8.08695652 L22.5652174,21 C21.3913043,21.5217391 20.6086957,22.6956522 20.6086957,24 C20.6086957,25.826087 22.173913,27.3913043 24,27.3913043 Z M24,24.3913043 C23.7391304,24.3913043 23.6086957,24.2608696 23.6086957,24 C23.6086957,23.7391304 23.7391304,23.6086957 24,23.6086957 C24.2608696,23.6086957 24.3913043,23.7391304 24.3913043,24 C24.3913043,24.2608696 24.2608696,24.3913043 24,24.3913043 Z" id="Fill-3"></path>
            </g>
        </g>
        <g id="Page"></g>
    </g>
</svg>