<?xml version="1.0" encoding="UTF-8"?>
<svg width="55px" height="55px" viewBox="0 0 55 55" version="1.1" xmlns="http://www.w3.org/2000/svg" xmlns:xlink="http://www.w3.org/1999/xlink">
    <!-- Generator: sketchtool 52.5 (67469) - http://www.bohemiancoding.com/sketch -->
    <title>84CFA2D2-1E45-43AA-9DED-136C6077178E</title>
    <desc>Created with sketchtool.</desc>
    <g id="Main_nav" stroke="none" stroke-width="1" fill="none" fill-rule="evenodd">
        <g id="ThankYou" transform="translate(-835.000000, -786.000000)" fill="#FF780A">
            <g id="priprema3" transform="translate(835.000000, 786.000000)">
                <path d="M27.2727273,0.0239332096 C19.7348794,0.0239332096 12.777551,3.15473098 7.90742115,8.14007421 L7.90742115,8.25530427 C3.15250519,13.1254341 0.139147124,19.8501095 0.139147124,27.272744 C0.0239170686,42.3462134 12.1992579,54.521538 27.2727273,54.521538 C42.3461967,54.521538 54.5215213,42.3462134 54.5215213,27.272744 C54.5215213,12.1992746 42.3461967,0.0239499072 27.2727273,0.0239499072 L27.2727273,0.0239332096 Z M50.8124304,24.2571429 C51.6233766,31.2144712 49.5361781,37.5912801 45.4792208,42.46141 C45.2465844,42.6940464 44.7834879,42.8092764 44.5508349,42.46141 L37.3608534,35.2714286 C37.2456234,35.1561985 37.3608534,34.9235622 37.4760835,34.9235622 L44.2007588,34.9235622 C44.4333952,34.9235622 44.6638553,34.6909258 44.6638553,34.4604657 L44.6638553,26.459538 C44.6638553,26.2269017 44.4312189,25.9964416 44.2007588,25.9964416 L35.8519647,25.9964416 C35.6193284,25.9964416 35.3888683,26.2290779 35.3888683,26.459538 L35.3888683,32.8363469 C35.3888683,33.0689833 35.1562319,33.1842134 35.0410019,32.951577 L32.0254174,29.9359926 L31.9101874,29.8207625 L31.9101874,26.4573117 C31.9101874,26.2246753 31.677551,25.9942152 31.4470909,25.9942152 L28.0836401,25.9942152 C27.96841,25.9942152 27.96841,25.9942152 27.96841,25.8789852 L12.0817681,9.99456957 C11.7339017,9.64670315 11.8491317,9.18362338 12.0817681,8.95097032 C16.951898,5.00922635 23.3287069,2.80458813 30.2860353,3.61776067 C40.9546809,5.00922635 49.536128,13.5906735 50.8123803,24.2570928 L50.8124304,24.2571429 Z M3.73302468,30.5187384 C2.80680946,23.7940631 4.77662393,17.4172542 8.60315399,12.5471243 C8.83579035,12.1992579 9.41410019,12.1992579 9.64675325,12.5471243 L22.6352505,25.5333952 C22.7504805,25.6486252 22.6352505,25.8812616 22.5200204,25.8812616 L8.25527087,25.8812616 C8.02263451,25.8812616 7.7921744,26.113898 7.7921744,26.3443581 L7.7921744,34.3452857 C7.7921744,34.5779221 8.02481076,34.8083822 8.25527087,34.8083822 L31.3296679,34.8083822 C31.5623043,34.8083822 31.6775343,34.6931521 31.7927644,34.5757458 L41.9961039,44.7790853 C42.2287403,45.0117217 42.2287403,45.4748182 41.9961039,45.7074712 C37.125974,49.5340019 30.7491651,51.6212009 23.9070501,50.692815 C13.5907236,49.4209035 5.1244898,41.0722208 3.7330269,30.5187885 L3.73302468,30.5187384 Z" id="Fill-1"></path>
                <path d="M38.7523191,17.4172542 C38.9849555,17.7651206 39.1001855,17.9977737 39.2154156,18.2282004 C39.3306456,18.6912968 39.2154156,19.1565863 38.9827792,19.387013 C38.2870464,20.0827458 38.4022597,21.1263451 39.0980093,21.8220779 C39.4458757,22.1699443 39.9089555,22.2851744 40.2568219,22.2851744 C40.7199184,22.2851744 41.1852078,22.052538 41.5330742,21.7046549 C42.5766735,20.5458423 43.0397532,18.6890705 42.4614601,17.0671781 C42.2288237,16.4866586 41.9983636,15.9083655 41.6505139,15.5604991 C41.5352839,15.3278627 41.3026475,15.0974026 41.3026475,14.8647662 C41.0700111,14.4016698 41.1874174,13.7059536 41.4178776,13.3580872 C41.880974,12.547141 41.6505139,11.5035417 40.8373581,10.9230223 C40.0264119,10.4599258 38.9828126,10.6903859 38.4022931,11.5035417 C37.5913469,12.7797941 37.3586939,14.6343395 37.9391967,16.1410186 C38.2892393,16.604115 38.6371002,17.0694045 38.7523135,17.4172709 L38.7523191,17.4172542 Z" id="Fill-2"></path>
            </g>
        </g>
        <g id="Page"></g>
    </g>
</svg>