<?xml version="1.0" encoding="UTF-8"?>
<svg width="55px" height="30px" viewBox="0 0 55 30" version="1.1" xmlns="http://www.w3.org/2000/svg" xmlns:xlink="http://www.w3.org/1999/xlink">
    <!-- Generator: sketchtool 52.5 (67469) - http://www.bohemiancoding.com/sketch -->
    <title>97C7406B-AFA9-4497-A6BC-53E1F0170DA9</title>
    <desc>Created with sketchtool.</desc>
    <g id="Main_nav" stroke="none" stroke-width="1" fill="none" fill-rule="evenodd">
        <g id="Checkout" transform="translate(-834.000000, -1450.000000)" fill="#55D159">
            <g id="pristup" transform="translate(834.000000, 1450.000000)">
                <path d="M48.3369118,1.57552941 C47.7650493,1.02720807 46.8866912,0.957886387 46.2358309,1.40851361 C44.0463456,2.91797244 24.7923015,16.2102615 22.713625,18.2803119 C21.4182132,19.572359 20.7010294,21.2897909 20.7010294,23.1206481 C20.7010294,24.948359 21.4150669,26.6689371 22.713625,27.9609842 C24.0090368,29.2530313 25.7340956,29.9652061 27.5665662,29.9652061 C29.3990368,29.9652061 31.1240956,29.2530232 32.4195074,27.9609842 C33.8317941,26.5523657 39.9990735,17.0887825 44.3278162,10.3453876 C48.8268971,14.8139052 51.357625,20.8231018 51.357625,27.2704296 C51.357625,28.1905775 52.1032632,28.9311489 53.0226691,28.9311489 C53.9420588,28.9311489 54.6877132,28.1874474 54.6877132,27.2704296 C54.6877132,19.6790077 51.6072279,12.6171187 46.1570515,7.48394218 C47.3702868,5.58370689 48.2644412,4.17194218 48.5866765,3.66144807 C49.016364,2.99338487 48.9089441,2.12044639 48.3370816,1.57534387 L48.3369118,1.57552941 Z M30.0655882,25.6134454 C28.7323235,26.9432471 26.4069559,26.9432471 25.0736103,25.6134454 C24.4069618,24.9453822 24.0405,24.063005 24.0405,23.1239798 C24.0405,22.1817277 24.4069941,21.2994151 25.0736103,20.6313681 C26.1415,19.5693983 33.9229485,14.0357647 41.3261103,8.86773782 C36.4637059,16.430763 31.1082426,24.5738218 30.0656691,25.6136874 L30.0655882,25.6134454 Z" id="Fill-1"></path>
                <path d="M34.7001471,1.00194958 C32.3210735,0.340186891 29.8472059,0.00613109244 27.3544118,0.00613109244 C12.2803676,0.00613109244 0.0153676471,12.2360471 0.0153676471,27.2741647 C0.0153676471,28.1911664 0.761005882,28.934884 1.68041176,28.934884 C2.59981765,28.934884 3.34545588,28.1911825 3.34545588,27.2741647 C3.34545588,14.0705345 14.1125147,3.33063529 27.3513382,3.33063529 C29.5439779,3.33063529 31.7145368,3.62370151 33.803,4.20350924 C34.6844559,4.44930958 35.6070809,3.93249882 35.8566838,3.0469916 C36.1062787,2.16459832 35.5881301,1.24759664 34.7003088,1.00178824 L34.7001471,1.00194958 Z" id="Fill-2"></path>
                <path d="M27.4838235,24.8946555 C27.9293074,24.8946555 28.3526618,24.7150306 28.6622794,24.4062091 C28.9719051,24.0973876 29.1519978,23.6751166 29.1519978,23.2339603 C29.1519978,22.8022346 28.9750676,22.3673788 28.6622794,22.0617116 C28.0398654,21.4409143 26.9277574,21.4409143 26.3084412,22.0617116 C25.9988154,22.3705331 25.8187228,22.8022588 25.8187228,23.2339603 C25.8187228,23.6656861 25.9956529,24.0973956 26.3084412,24.4062091 C26.6149125,24.7150306 27.038275,24.8946555 27.4837426,24.8946555 L27.4838235,24.8946555 Z" id="Fill-3"></path>
                <path d="M29.0197794,8.05109244 L29.0197794,6.51009076 C29.0197794,5.59308908 28.2741412,4.84937143 27.3547353,4.84937143 C26.4353456,4.84937143 25.6896912,5.59307294 25.6896912,6.51009076 L25.6896912,8.05109244 C25.6896912,8.97124034 26.4353294,9.71181176 27.3547353,9.71181176 C28.274125,9.71496605 29.0197794,8.97126454 29.0197794,8.05109244 Z" id="Fill-4"></path>
                <path d="M9.07095588,24.8946555 C9.99034559,24.8946555 10.736,24.1509539 10.736,23.2339361 C10.736,22.3169183 9.99036176,21.5732168 9.07095588,21.5732168 L7.52594118,21.5732168 C6.60655147,21.5732168 5.86089706,22.3169103 5.86089706,23.2339361 C5.86089706,24.154084 6.60653529,24.8946555 7.52594118,24.8946555 L9.07095588,24.8946555 Z" id="Fill-5"></path>
                <path d="M47.1835294,24.8946555 C48.1029191,24.8946555 48.8485735,24.1509539 48.8485735,23.2339361 C48.8485735,22.3169183 48.1029353,21.5732168 47.1835294,21.5732168 L45.6385147,21.5732168 C44.719125,21.5732168 43.9734706,22.3169103 43.9734706,23.2339361 C43.9734706,24.154084 44.7191007,24.8946555 45.6385147,24.8946555 L47.1835294,24.8946555 Z" id="Fill-6"></path>
            </g>
        </g>
        <g id="Page"></g>
    </g>
</svg>