<?xml version="1.0" encoding="UTF-8"?>
<svg width="16px" height="16px" viewBox="0 0 16 16" version="1.1" xmlns="http://www.w3.org/2000/svg" xmlns:xlink="http://www.w3.org/1999/xlink">
    <!-- Generator: sketchtool 52.5 (67469) - http://www.bohemiancoding.com/sketch -->
    <title>1E6295BE-D26E-4B6D-93DA-9C1D4553D6B6</title>
    <desc>Created with sketchtool.</desc>
    <g id="Main_nav" stroke="none" stroke-width="1" fill="none" fill-rule="evenodd">
        <g id="Map-Page" transform="translate(-181.000000, -942.000000)" fill="#1F1F1F">
            <g id="Group-2" transform="translate(165.000000, 821.000000)">
                <g id="radnoVreme_black" transform="translate(16.000000, 121.000000)">
                    <path d="M8,0.170521739 C3.68278261,0.170521739 0.170434783,3.68269565 0.170434783,8.00008696 C0.170434783,12.3174783 3.6826087,15.8296523 8,15.8296523 C12.3173913,15.8296523 15.8295652,12.3174783 15.8295652,8.00008696 C15.8295652,3.68269565 12.3173913,0.170521739 8,0.170521739 Z M8,14.2642609 C4.54626087,14.2642609 1.73565217,11.4538261 1.73565217,7.99991304 C1.73565217,4.54547826 4.54608696,1.73556522 8,1.73556522 C11.453913,1.73556522 14.2643478,4.546 14.2643478,7.99991304 C14.2643478,11.4538261 11.453913,14.2642609 8,14.2642609 Z" id="Fill-1"></path>
                    <path d="M8.77043478,7.77373913 C8.77654957,7.73365739 8.78266261,7.69357565 8.78266261,7.65213565 L8.78266261,4.23909217 C8.78266261,3.80702261 8.43212348,3.45648348 8.00005391,3.45648348 C7.56798435,3.45648348 7.21744522,3.80702261 7.21744522,4.23909217 L7.21744522,7.65213565 C7.21744522,7.7187113 7.20929391,8.47618783 7.45454087,8.69697043 L9.87645391,10.8674052 C10.0259113,11.0012365 10.2127322,11.067127 10.3988713,11.067127 C10.6135496,11.067127 10.8275322,10.9794904 10.9817583,10.8069357 C11.2704887,10.4849183 11.2433061,9.99036174 10.9212957,9.7016313 L8.77043478,7.77373913 Z" id="Fill-2"></path>
                </g>
            </g>
        </g>
        <g id="Page"></g>
    </g>
</svg>