<svg xmlns="http://www.w3.org/2000/svg" width="20" height="18" viewBox="0 0 20 18">
  <g id="Group_2" data-name="Group 2" transform="translate(-90 90)">
    <g id="Group_1" data-name="Group 1" transform="translate(90 -90)">
      <path id="Path_4" data-name="Path 4" d="M8.075,10.125a5.129,5.129,0,0,0,5.191-5.062A5.129,5.129,0,0,0,8.075,0,5.129,5.129,0,0,0,2.884,5.063a5.129,5.129,0,0,0,5.191,5.063Zm3.23.563c-1.035,0-1.532.563-3.23.563s-2.192-.562-3.23-.562A4.787,4.787,0,0,0,0,15.413v.9A1.71,1.71,0,0,0,1.73,18H14.42a1.71,1.71,0,0,0,1.73-1.687v-.9a4.787,4.787,0,0,0-4.845-4.725Z" fill="#fff" fill-rule="evenodd"/>
      <path id="Path_5" data-name="Path 5" d="M3.791-.205a.633.633,0,0,0,.656-.7V-2.719H6.164a.625.625,0,0,0,.686-.65.623.623,0,0,0-.68-.65H4.447V-5.842a.633.633,0,0,0-.656-.7.634.634,0,0,0-.662.7V-4.02H1.406a.625.625,0,0,0-.686.65.625.625,0,0,0,.686.65H3.129V-.908A.636.636,0,0,0,3.791-.205Z" transform="translate(13.15 12)" fill="#fff"/>
    </g>
  </g>
</svg>
