<?xml version="1.0" encoding="UTF-8"?>
<svg width="55px" height="47px" viewBox="0 0 55 47" version="1.1" xmlns="http://www.w3.org/2000/svg" xmlns:xlink="http://www.w3.org/1999/xlink">
    <!-- Generator: sketchtool 52.5 (67469) - http://www.bohemiancoding.com/sketch -->
    <title>8C950CDB-080E-4252-B4BD-BF141B1AFFC2</title>
    <desc>Created with sketchtool.</desc>
    <g id="Main_nav" stroke="none" stroke-width="1" fill="none" fill-rule="evenodd">
        <g id="Checkout" transform="translate(-548.000000, -1442.000000)" fill="#FF9600" stroke="#FF9600" stroke-width="0.2">
            <g id="rezultatiSvih" transform="translate(548.000000, 1442.000000)">
                <path d="M0.34375,7.06354286 L0.34375,31.8164571 C0.32495375,33.6405943 1.04465625,35.3977371 2.3364,36.6861257 C3.630825,37.9771886 5.3898625,38.6923886 7.21875,38.6736 L47.78125,38.6736 C49.6101375,38.6923474 51.369175,37.9771886 52.6636,36.6861257 C53.9553438,35.3977371 54.6750875,33.6405943 54.65625,31.8164571 L54.65625,7.06354286 C54.65625,5.24482286 53.9311438,3.50105143 52.6420813,2.21533714 C51.3530188,0.929622857 49.6047063,0.2064 47.78125,0.2064 L7.21875,0.2064 C3.4214125,0.2064 0.34375,3.27606857 0.34375,7.06354286 Z M51.90625,7.06354286 L51.90625,31.8164571 C51.90625,34.09056 50.0585938,35.9307429 47.78125,35.9307429 L7.21875,35.9307429 C4.94140625,35.9307429 3.09375,34.09056 3.09375,31.8164571 L3.09375,7.06354286 C3.09375,4.78944 4.94140625,2.94925714 7.21875,2.94925714 L47.78125,2.94925714 C50.0585938,2.94925714 51.90625,4.78944 51.90625,7.06354286 Z" id="Fill-1"></path>
                <path d="M38.773625,46.4221714 C39.5336562,46.4221714 40.148625,45.8087794 40.148625,45.0507429 C40.148625,44.2927063 39.5336356,43.6793143 38.773625,43.6793143 L16.2256875,43.6793143 C15.4656563,43.6793143 14.8506875,44.2927063 14.8506875,45.0507429 C14.8506875,45.8087794 15.4656769,46.4221714 16.2256875,46.4221714 L38.773625,46.4221714 Z" id="Fill-2"></path>
                <path d="M18.836125,30.0349714 L36.1631875,30.0349714 C38.0457688,29.9974697 39.5630813,28.4840914 39.6006875,26.6064 L39.6006875,12.3428571 C39.6006875,11.4348343 39.2381412,10.5615771 38.5936375,9.91872 C37.9491338,9.27586286 37.0736438,8.91428571 36.1631875,8.91428571 L18.836125,8.91428571 C16.9374562,8.91428571 15.398625,10.44912 15.398625,12.3428571 L15.398625,26.6064 C15.4362244,28.4840914 16.9535437,29.9974629 18.836125,30.0349714 Z M25.5070062,11.6571429 L29.4950563,11.6571429 L29.4950563,14.8125257 L25.5070062,14.8125257 L25.5070062,11.6571429 Z M18.1486937,12.3428571 C18.1809169,11.9785714 18.4709594,11.6892891 18.8361937,11.6571429 L22.7543938,11.6571429 L22.7543938,16.1839543 L22.7570819,16.1839543 C22.7570819,16.5455589 22.9021031,16.89648 23.1599156,17.1536229 C23.4177281,17.4107657 23.7668475,17.5554103 24.1321094,17.5554103 L30.8701594,17.5554103 L30.8674713,17.5554103 C31.2327056,17.5554103 31.5818525,17.4107657 31.839665,17.1536229 C32.0974775,16.89648 32.2424988,16.5455863 32.2424988,16.1839543 L32.2424988,11.6571429 L36.16338,11.6571429 C36.5286144,11.6892823 36.8186569,11.9785714 36.85088,12.3428571 L36.85088,26.6064 C36.8186569,26.9706857 36.5286144,27.259968 36.16338,27.2921143 L18.8363175,27.2921143 C18.4710831,27.259968 18.1810406,26.9706857 18.1488175,26.6064 L18.1486937,12.3428571 Z" id="Fill-3"></path>
            </g>
        </g>
        <g id="Page"></g>
    </g>
</svg>