<?xml version="1.0" encoding="UTF-8"?>
<svg width="20px" height="20px" viewBox="0 0 20 20" version="1.1" xmlns="http://www.w3.org/2000/svg" xmlns:xlink="http://www.w3.org/1999/xlink">
    <!-- Generator: sketchtool 52.5 (67469) - http://www.bohemiancoding.com/sketch -->
    <title>5584951D-4308-45FB-B39A-8AA1ECE9DC7D</title>
    <desc>Created with sketchtool.</desc>
    <g id="Main_nav" stroke="none" stroke-width="1" fill="none" fill-rule="evenodd">
        <g id="Analiza-Page" transform="translate(-166.000000, -4293.000000)">
            <g id="serum" transform="translate(166.000000, 4293.000000)">
                <rect id="Rectangle-14" fill="#1D88E5" fill-rule="nonzero" x="0" y="0" width="20" height="20" rx="2"></rect>
                <path d="M12.5648471,5.00028431 L7.44643031,5.00028431 C7.22135187,4.99847575 7.03052425,5.17260738 7.00233532,5.40553241 C6.98975855,5.52990885 7.02835707,5.65428528 7.10902248,5.74700604 C7.18968789,5.83972449 7.30418002,5.89264063 7.42430772,5.89173751 L7.59084334,5.89173751 C7.73178798,5.89173751 7.84628677,6.01113518 7.84628677,6.15813603 L7.84628677,13.7302547 C7.84628677,14.3363206 8.0783042,14.9170527 8.49117931,15.3436057 C8.90405442,15.7696604 9.46350308,16.0062095 10.0441795,15.999876 C10.6040722,15.9908303 11.137508,15.7524778 11.5300103,15.3363691 C11.9229344,14.9207231 12.1428058,14.3603345 12.1428058,13.7768583 L12.1428058,6.15807814 C12.1428058,6.01108887 12.2568605,5.89167962 12.3982493,5.89167962 L12.5535049,5.89167962 C12.7785833,5.89348934 12.9694109,5.71935655 12.9975999,5.48643151 C13.0106108,5.35978569 12.970278,5.23405457 12.8874432,5.14043068 C12.8041754,5.04725951 12.6866457,4.99615078 12.564786,5.00022642 L12.5648471,5.00028431 Z M11.288074,7.57059935 C11.288074,7.86504104 11.0590875,8.1033964 10.7771871,8.1033964 L9.23417909,8.1033964 C8.9518457,8.1033964 8.72329221,7.86504104 8.72329221,7.57059935 L8.72329221,6.15813603 C8.72329221,6.01114676 8.8377799,5.89173751 8.97873565,5.89173751 L11.032675,5.89173751 C11.1736196,5.89173751 11.2881184,6.01113518 11.2881184,6.15813603 L11.288074,7.57059935 Z" id="Fill-1" fill="#FFFFFF"></path>
            </g>
        </g>
        <g id="Page"></g>
    </g>
</svg>