<svg xmlns="http://www.w3.org/2000/svg" width="223.207" height="268.773" viewBox="0 0 223.207 268.773">
  <g id="signUp" transform="translate(-264.319 -565.259)">
    <g id="Group_217" data-name="Group 217" transform="translate(-122.077 10)">
      <g id="Group_216" data-name="Group 216" transform="matrix(0.921, -0.391, 0.391, 0.921, -281.286, 255.262)">
        <path id="Path_1868" data-name="Path 1868" d="M36.622,21.061A16.561,16.561,0,0,1,53.183,4.5H155.562a16.561,16.561,0,0,1,16.561,16.561V87.306a16.561,16.561,0,0,1-16.561,16.561h-40.6a12.048,12.048,0,0,1-12.2,16.556,12.243,12.243,0,0,1-16.28,8.377c.252,8.673-3.157,16.783-7.5,23.793-4.244,6.855-9.861,13.357-14.469,18.691h0c-1.754,2.03-3.361,3.89-4.691,5.537a4.517,4.517,0,0,1-5.238,1.337c-4.1-1.7-8.439-3.45-12.764-5.2-12.92-5.231-25.747-10.424-32.046-13.874a4.517,4.517,0,0,1-2.253-4.874c2.034-9.852.17-21.633-1.717-33.555h0q-.29-1.831-.576-3.664c-.984-6.346-1.852-12.717-1.711-18.322.139-5.554,1.276-11.193,5.1-15.358,6.47-7.04,10.538-11.054,14.6-14.322a130.732,130.732,0,0,1,11.309-7.849h0l.017-.011,0,0q1-.644,2.07-1.341Zm67.75,82.806h.281l1.761,3.051a3.011,3.011,0,1,1-5.215,3.011l-3.5-6.062ZM91.716,94.229a4.5,4.5,0,0,1,.66.605h63.186a7.528,7.528,0,0,0,7.528-7.528V21.061a7.528,7.528,0,0,0-7.528-7.528H53.183a7.528,7.528,0,0,0-7.528,7.528V87.306a7.528,7.528,0,0,0,7.528,7.528h3.764a4.53,4.53,0,0,1,.95.1c1.74-2.234,3.386-4.416,4.607-6.168.3-.435.655-.955,1.051-1.538h0c2.155-3.181,5.593-8.253,9.319-11.748,2.173-2.038,5.109-4.205,8.564-4.652,4.043-.523,7.508,1.414,10,4.953A14.6,14.6,0,0,1,93.8,85.112a31.5,31.5,0,0,1-2.087,9.113Zm-4.786,9.857c-1.08,1.834-2.132,3.448-3.023,4.727a14.43,14.43,0,0,0-1.144,1.932l5.449,8.388a3.209,3.209,0,0,0,5.469-3.352ZM76.629,136A43.1,43.1,0,0,1,71.3,147.839c-3.843,6.209-8.644,11.762-13.1,16.918-1.112,1.287-2.2,2.548-3.253,3.789-3.431-1.406-6.916-2.817-10.346-4.206l-.006,0c-10.911-4.419-21.276-8.616-27.659-11.724,1.4-10.762-.519-22.783-2.188-33.227q-.308-1.927-.6-3.778A99.385,99.385,0,0,1,12.546,98.9c.119-4.743,1.1-7.7,2.724-9.471,6.391-6.954,10.089-10.562,13.612-13.394a92.816,92.816,0,0,1,7.74-5.477V87.306A16.565,16.565,0,0,0,50.85,103.7c-.418.506-.8.964-1.131,1.362a4.517,4.517,0,0,0,6.93,5.8c2.892-3.458,9.668-11.764,13.268-16.93.41-.588.845-1.227,1.3-1.9,2.206-3.239,4.928-7.237,7.836-9.964,1.788-1.677,2.98-2.209,3.543-2.282a.472.472,0,0,1,.329.048,3.487,3.487,0,0,1,1.12,1.144,5.713,5.713,0,0,1,.737,3.65,22.66,22.66,0,0,1-1.532,6.444A60.964,60.964,0,0,1,76.5,103.647c-4.583,6.575-4.221,13.282-4.013,17.127.036.668.067,1.25.067,1.729a11.637,11.637,0,0,1-4.749,9.488,17.1,17.1,0,0,1-10.1,3.493,4.517,4.517,0,1,0,0,9.033,26.12,26.12,0,0,0,15.649-5.4A22.605,22.605,0,0,0,76.629,136ZM54.689,33.106a4.517,4.517,0,0,1,4.517-4.517h42.156a4.517,4.517,0,1,1,0,9.033H59.206A4.517,4.517,0,0,1,54.689,33.106Zm4.517,13.55a4.517,4.517,0,0,0,0,9.033h42.156a4.517,4.517,0,1,0,0-9.033Z" transform="translate(451.453 632.5)" fill="#0389ec" fill-rule="evenodd"/>
        <g id="Group_215" data-name="Group 215" transform="translate(567.414 658.647)">
          <path id="Path_1141" data-name="Path 1141" d="M655.664,41.2a1.408,1.408,0,1,0-1.407,1.408A1.408,1.408,0,0,0,655.664,41.2Z" transform="translate(-642.8 -30.583)" fill="#0389ec" fill-rule="evenodd"/>
          <path id="Path_1142" data-name="Path 1142" d="M651.694,30.258a3.519,3.519,0,1,0-3.518,3.519A3.519,3.519,0,0,0,651.694,30.258Z" transform="translate(-640.386 -26.739)" fill="#ff9600" fill-rule="evenodd"/>
          <path id="Path_1143" data-name="Path 1143" d="M646.35,42.206a2.413,2.413,0,1,0-2.413,2.413A2.412,2.412,0,0,0,646.35,42.206Z" transform="translate(-639.466 -30.583)" fill="#00e7ca" fill-rule="evenodd"/>
          <path id="Path_1146" data-name="Path 1146" d="M664.264,76.584a7.1,7.1,0,0,1-14.209,0V76.57c0-3.925,3.674-5.348,7.107-2.986,5.363,3.688,7.1-.939,7.1,2.986Zm7.177-6a14.689,14.689,0,0,0-7.456-7.744,16.328,16.328,0,0,0-4.572-1.4,16.091,16.091,0,0,0-4.725,0,14.751,14.751,0,0,0-4.6,1.488v-7.3a4.917,4.917,0,0,0-.037-.586H651.6a1.319,1.319,0,0,0,1.316-1.321v-.953a1.315,1.315,0,0,0-1.316-1.316H639.925a1.315,1.315,0,0,0-1.32,1.316v.953a1.319,1.319,0,0,0,1.32,1.321h1.862a2.33,2.33,0,0,0-.015.27V76.579a14.082,14.082,0,0,0,1.27,5.9,16.246,16.246,0,0,0,3.4,4.889,16.526,16.526,0,0,0,4.916,3.33,14.3,14.3,0,0,0,5.842,1.237,14.714,14.714,0,0,0,5.9-1.2,15.589,15.589,0,0,0,4.887-3.3,15.97,15.97,0,0,0,3.33-4.884,14.525,14.525,0,0,0,1.243-5.967A15.326,15.326,0,0,0,671.442,70.584Z" transform="translate(-638.605 -34.019)" fill="#0389ec" fill-rule="evenodd"/>
        </g>
      </g>
      <line id="Line_4" data-name="Line 4" x2="160" transform="translate(396.5 799.5)" fill="none" stroke="#0389ec" stroke-linecap="round" stroke-width="11"/>
    </g>
    <g id="Group_219" data-name="Group 219" transform="translate(491.518 712.444) rotate(180)">
      <g id="Group_218" data-name="Group 218" transform="translate(21.266 79.454)">
        <path id="Path_1869" data-name="Path 1869" d="M115.854,106.688l-7.476-2.575a3.165,3.165,0,1,0-2.062,5.985l7.476,2.575a3.165,3.165,0,0,0,2.062-5.985Zm-46.385,2a3.158,3.158,0,0,0-4.322,1.169l-7.925,13.8a3.166,3.166,0,1,0,5.491,3.153l7.925-13.8A3.164,3.164,0,0,0,69.469,108.687Zm-14.041,24.48a3.166,3.166,0,0,0-4.322,1.171l-4.651,8.1a3.165,3.165,0,1,0,5.491,3.151l4.651-8.1A3.164,3.164,0,0,0,55.428,133.167ZM35.319,85.613,50.266,90.77a3.167,3.167,0,0,0,2.065-5.987L37.384,79.626a3.167,3.167,0,1,0-2.065,5.987Zm95.341,27.272-4.621-1.6a3.166,3.166,0,1,0-2.067,5.985l4.621,1.6a3.166,3.166,0,1,0,2.067-5.985ZM55.023,98.479,23.046,114.056a3.166,3.166,0,1,0,2.773,5.693L57.8,104.172C59.369,103.408,56.6,97.712,55.023,98.479Zm32.774,11.3a3.166,3.166,0,1,0-5.693,2.773l8.475,17.4a3.165,3.165,0,1,0,5.691-2.773Z" transform="translate(-21.266 -79.454)" fill="#55d159"/>
      </g>
    </g>
  </g>
</svg>
