<?xml version="1.0" encoding="utf-8"?>
<!-- Generator: Adobe Illustrator 23.0.1, SVG Export Plug-In . SVG Version: 6.00 Build 0)  -->
<svg version="1.1" id="Layer_1" xmlns="http://www.w3.org/2000/svg" xmlns:xlink="http://www.w3.org/1999/xlink" x="0px" y="0px"
	 viewBox="0 0 918.88 330.6" style="enable-background:new 0 0 918.88 330.6;" xml:space="preserve">
<style type="text/css">
	.st0{fill:#1B71DE;}
	.st1{opacity:0.15;fill:#1B71DE;}
	.st2{opacity:0.1;fill:#1B71DE;}
	.st3{opacity:0.6;}
	.st4{fill:none;stroke:#1B71DE;stroke-width:4;stroke-miterlimit:10;}
	.st5{fill:#6D6F72;}
	.st6{fill:#FFFFFF;}
</style>
<rect x="223.01" y="53.78" class="st0" width="693.35" height="39.76"/>
<path class="st1" d="M556.53,325.57l101.3-82.29l142.12-19.68l116.42-71.56v144.93c0,15.79-12.8,28.59-28.59,28.59H556.53z"/>
<path class="st1" d="M603.43,325.57l88.09-39.02l123.6-9.33l101.24-33.93v56.64c0,14.16-11.48,25.65-25.65,25.65H603.43z"/>
<path class="st2" d="M886.86,326.77H32.02C15.44,326.77,2,313.33,2,296.75V33.02C2,16.44,15.44,3,32.02,3h854.84
	c16.58,0,30.02,13.44,30.02,30.02v263.73C916.88,313.33,903.44,326.77,886.86,326.77z"/>
<g class="st3">
	<path class="st0" d="M2.32,93.53V33.02C2.32,16.44,15.76,3,32.34,3h854.84c16.58,0,30.02,13.44,30.02,30.02v60.51"/>
	<polyline class="st0" points="2.32,70.53 231.96,70.53 917.2,70.53 	"/>
	<line class="st0" x1="2.32" y1="70.53" x2="2.07" y2="70.53"/>
</g>
<path class="st4" d="M886.86,326.77H32.02C15.44,326.77,2,313.33,2,296.75V33.02C2,16.44,15.44,3,32.02,3h854.84
	c16.58,0,30.02,13.44,30.02,30.02v263.73C916.88,313.33,903.44,326.77,886.86,326.77z"/>
<line class="st4" x1="685.8" y1="93" x2="685.8" y2="326.3"/>
<line class="st4" x1="454.4" y1="93" x2="454.4" y2="326.3"/>
<line class="st4" x1="223.01" y1="3" x2="223.01" y2="327.31"/>
<line class="st4" x1="916.88" y1="92.9" x2="1.75" y2="92.9"/>
<line class="st4" x1="916.88" y1="150.91" x2="1.75" y2="150.91"/>
<line class="st4" x1="916.88" y1="208.92" x2="1.75" y2="208.92"/>
<line class="st4" x1="916.88" y1="266.93" x2="1.75" y2="266.93"/>
<g>
	<g>
		<path class="st5" d="M69.15,183.06h3.07v-9.86h-2.44v-1.11c1.22-0.21,2.11-0.54,2.85-0.98h1.32v11.95h2.77v1.44h-7.56V183.06z"/>
		<path class="st5" d="M79.38,183.06h3.07v-9.86H80v-1.11c1.22-0.21,2.11-0.54,2.85-0.98h1.32v11.95h2.77v1.44h-7.56V183.06z"/>
		<path class="st5" d="M92.81,178.57h4.81v1.33h-4.81V178.57z"/>
		<path class="st5" d="M103.9,183.06h3.07v-9.86h-2.44v-1.11c1.22-0.21,2.11-0.54,2.85-0.98h1.32v11.95h2.77v1.44h-7.56V183.06z"/>
		<path class="st5" d="M113.33,181.07c0-1.74,1.27-2.93,2.53-3.6v-0.08c-1-0.69-1.87-1.68-1.87-3.1c0-2.06,1.64-3.43,3.79-3.43
			c2.34,0,3.79,1.48,3.79,3.56c0,1.4-1.02,2.61-1.85,3.23v0.08c1.2,0.71,2.33,1.65,2.33,3.44c0,2.01-1.73,3.58-4.31,3.58
			C115.2,184.75,113.33,183.2,113.33,181.07z M120.39,181.13c0-1.74-1.69-2.35-3.63-3.13c-1.08,0.7-1.87,1.69-1.87,2.92
			c0,1.47,1.23,2.55,2.87,2.55C119.33,183.47,120.39,182.51,120.39,181.13z M120.08,174.51c0-1.32-0.85-2.37-2.33-2.37
			c-1.25,0-2.17,0.86-2.17,2.15c0,1.6,1.48,2.27,3.09,2.91C119.57,176.39,120.08,175.5,120.08,174.51z"/>
		<path class="st5" d="M123.43,174.79c0-2.76,1.25-4.33,3.13-4.33c1.88,0,3.13,1.57,3.13,4.33c0,2.78-1.25,4.37-3.13,4.37
			C124.68,179.16,123.43,177.58,123.43,174.79z M128.38,174.79c0-2.19-0.74-3.25-1.82-3.25s-1.82,1.06-1.82,3.25
			c0,2.19,0.74,3.3,1.82,3.3S128.38,176.99,128.38,174.79z M134.56,170.47h1.17l-7.6,14.28h-1.17L134.56,170.47z M133.03,180.38
			c0-2.76,1.25-4.33,3.13-4.33s3.13,1.57,3.13,4.33c0,2.78-1.25,4.37-3.13,4.37S133.03,183.17,133.03,180.38z M137.98,180.38
			c0-2.19-0.74-3.25-1.82-3.25s-1.82,1.06-1.82,3.25s0.74,3.3,1.82,3.3S137.98,182.58,137.98,180.38z"/>
	</g>
</g>
<g>
	<g>
		<path class="st5" d="M80.48,122.8v-1.37l9.01-3.54v1.51l-4.44,1.63l-2.8,1.05v0.08l2.8,1.05l4.44,1.63v1.51L80.48,122.8z"/>
		<path class="st5" d="M91.64,127.65h3.07v-9.86h-2.44v-1.11c1.22-0.21,2.11-0.54,2.85-0.98h1.32v11.95h2.77v1.44h-7.56V127.65z"/>
		<path class="st5" d="M101.14,122.34c0-4.49,1.62-6.9,4.29-6.9s4.29,2.42,4.29,6.9c0,4.49-1.62,7-4.29,7
			S101.14,126.83,101.14,122.34z M108.05,122.34c0-3.93-1.06-5.51-2.62-5.51s-2.62,1.58-2.62,5.51c0,3.93,1.06,5.61,2.62,5.61
			S108.05,126.27,108.05,122.34z"/>
		<path class="st5" d="M111.17,119.38c0-2.76,1.25-4.33,3.13-4.33s3.13,1.57,3.13,4.33c0,2.78-1.25,4.37-3.13,4.37
			S111.17,122.16,111.17,119.38z M116.12,119.38c0-2.19-0.74-3.25-1.82-3.25s-1.82,1.06-1.82,3.25c0,2.19,0.74,3.3,1.82,3.3
			S116.12,121.57,116.12,119.38z M122.3,115.05h1.17l-7.6,14.28h-1.17L122.3,115.05z M120.77,124.97c0-2.76,1.25-4.33,3.13-4.33
			s3.13,1.57,3.13,4.33c0,2.78-1.25,4.37-3.13,4.37S120.77,127.75,120.77,124.97z M125.72,124.97c0-2.19-0.74-3.25-1.82-3.25
			s-1.82,1.06-1.82,3.25s0.74,3.3,1.82,3.3S125.72,127.16,125.72,124.97z"/>
	</g>
</g>
<g>
	<g>
		<path class="st5" d="M77.7,243.12h3.07v-9.86h-2.44v-1.11c1.22-0.21,2.11-0.54,2.85-0.98h1.32v11.95h2.77v1.44H77.7V243.12z"/>
		<path class="st5" d="M87.35,243.4l0.96-1.08c0.54,0.65,1.37,1.06,2.2,1.06c1.93,0,3.54-1.53,3.54-6.02c0-3.29-1.07-5.08-2.99-5.08
			c-1.31,0-2.33,1.17-2.33,2.94c0,1.75,0.82,2.84,2.48,2.84c0.87,0,1.96-0.52,2.88-1.9l0.06,1.37c-0.84,1.13-2.09,1.83-3.23,1.83
			c-2.32,0-3.82-1.39-3.82-4.14c0-2.56,1.81-4.3,3.96-4.3c2.64,0,4.62,2.14,4.62,6.44c0,5.39-2.43,7.46-5.1,7.46
			C89.14,244.81,88.09,244.2,87.35,243.4z"/>
		<path class="st5" d="M101.36,238.63h4.81v1.33h-4.81V238.63z"/>
		<path class="st5" d="M111.63,243.54c4.03-4.01,6.3-6.42,6.3-8.6c0-1.53-0.83-2.61-2.54-2.61c-1.12,0-2.08,0.71-2.85,1.6l-1-0.98
			c1.12-1.23,2.33-2.04,4.06-2.04c2.48,0,4.02,1.56,4.02,3.94c0,2.51-2.31,5.01-5.47,8.33c0.73-0.06,1.56-0.12,2.25-0.12h3.87v1.48
			h-8.65V243.54z"/>
		<path class="st5" d="M121.54,242.98l0.85-1.13c0.8,0.79,1.8,1.52,3.38,1.52c1.63,0,2.93-1.18,2.93-3.05
			c0-1.85-1.13-2.94-2.84-2.94c-0.93,0-1.5,0.29-2.3,0.82l-0.92-0.58l0.44-6.45h6.7v1.48h-5.19l-0.35,3.98
			c0.62-0.34,1.23-0.56,2.06-0.56c2.28,0,4.15,1.3,4.15,4.19c0,2.9-2.18,4.54-4.51,4.54C123.79,244.81,122.47,243.91,121.54,242.98z
			"/>
	</g>
</g>
<g>
	<g>
		<path class="st5" d="M80.48,298.32l4.44-1.63l2.8-1.05v-0.08l-2.8-1.05l-4.44-1.63v-1.51l9.01,3.54v1.37l-9.01,3.54V298.32z"/>
		<path class="st5" d="M90.82,301.54c4.03-4.01,6.3-6.42,6.3-8.6c0-1.53-0.83-2.61-2.54-2.61c-1.12,0-2.08,0.71-2.85,1.6l-1-0.98
			c1.12-1.23,2.33-2.04,4.06-2.04c2.48,0,4.02,1.56,4.02,3.94c0,2.51-2.31,5.01-5.47,8.33c0.73-0.06,1.56-0.12,2.25-0.12h3.87v1.48
			h-8.65V301.54z"/>
		<path class="st5" d="M100.73,300.98l0.85-1.13c0.8,0.79,1.8,1.52,3.38,1.52c1.63,0,2.93-1.18,2.93-3.05
			c0-1.85-1.13-2.94-2.84-2.94c-0.93,0-1.5,0.29-2.3,0.82l-0.92-0.58l0.44-6.45h6.7v1.48h-5.19l-0.35,3.98
			c0.62-0.34,1.23-0.56,2.06-0.56c2.28,0,4.15,1.3,4.15,4.19c0,2.9-2.18,4.54-4.51,4.54C102.98,302.82,101.66,301.91,100.73,300.98z
			"/>
		<path class="st5" d="M111.17,292.86c0-2.76,1.25-4.33,3.13-4.33s3.13,1.57,3.13,4.33c0,2.78-1.25,4.37-3.13,4.37
			S111.17,295.64,111.17,292.86z M116.12,292.86c0-2.19-0.74-3.25-1.82-3.25s-1.82,1.06-1.82,3.25c0,2.19,0.74,3.3,1.82,3.3
			S116.12,295.05,116.12,292.86z M122.3,288.53h1.17l-7.6,14.28h-1.17L122.3,288.53z M120.77,298.45c0-2.76,1.25-4.33,3.13-4.33
			s3.13,1.57,3.13,4.33c0,2.78-1.25,4.37-3.13,4.37S120.77,301.23,120.77,298.45z M125.72,298.45c0-2.19-0.74-3.25-1.82-3.25
			s-1.82,1.06-1.82,3.25s0.74,3.3,1.82,3.3S125.72,300.64,125.72,298.45z"/>
	</g>
</g>
<g>
	<g>
		<path class="st5" d="M321.05,183.48c4.03-4.01,6.3-6.42,6.3-8.6c0-1.53-0.83-2.61-2.54-2.61c-1.12,0-2.08,0.71-2.85,1.6l-1-0.98
			c1.12-1.23,2.33-2.04,4.06-2.04c2.48,0,4.02,1.56,4.02,3.94c0,2.51-2.31,5.01-5.47,8.33c0.73-0.06,1.56-0.12,2.25-0.12h3.87v1.48
			h-8.65V183.48z"/>
		<path class="st5" d="M338.03,172.59h-6.67v-1.48h8.63v1.06c-3.17,4.06-3.83,7.11-4.05,12.33h-1.78
			C334.39,179.45,335.39,176.27,338.03,172.59z"/>
		<path class="st5" d="M341.39,174.79c0-2.76,1.25-4.33,3.13-4.33s3.13,1.57,3.13,4.33c0,2.78-1.25,4.37-3.13,4.37
			S341.39,177.58,341.39,174.79z M346.34,174.79c0-2.19-0.74-3.25-1.82-3.25s-1.82,1.06-1.82,3.25c0,2.19,0.74,3.3,1.82,3.3
			S346.34,176.99,346.34,174.79z M352.52,170.47h1.17l-7.6,14.28h-1.17L352.52,170.47z M350.99,180.38c0-2.76,1.25-4.33,3.13-4.33
			s3.13,1.57,3.13,4.33c0,2.78-1.25,4.37-3.13,4.37S350.99,183.17,350.99,180.38z M355.94,180.38c0-2.19-0.74-3.25-1.82-3.25
			s-1.82,1.06-1.82,3.25s0.74,3.3,1.82,3.3S355.94,182.58,355.94,180.38z"/>
	</g>
</g>
<g>
	<g>
		<path class="st5" d="M326.59,120.11c0-0.7,0.06-1.86,0.1-2.57h-0.08c-0.34,0.64-0.71,1.22-1.09,1.89l-3.13,4.58h7.67v1.38h-9.47
			v-1.14l5.73-8.55h1.92v13.39h-1.63V120.11z"/>
		<path class="st5" d="M331.52,127.92l0.96-1.08c0.54,0.65,1.37,1.06,2.2,1.06c1.93,0,3.54-1.53,3.54-6.02
			c0-3.29-1.07-5.08-2.99-5.08c-1.31,0-2.33,1.17-2.33,2.94c0,1.75,0.82,2.84,2.48,2.84c0.87,0,1.96-0.52,2.88-1.9l0.06,1.37
			c-0.84,1.13-2.09,1.83-3.23,1.83c-2.32,0-3.82-1.39-3.82-4.14c0-2.56,1.81-4.3,3.96-4.3c2.64,0,4.62,2.14,4.62,6.44
			c0,5.39-2.43,7.46-5.1,7.46C333.31,129.34,332.25,128.73,331.52,127.92z"/>
		<path class="st5" d="M341.39,119.38c0-2.76,1.25-4.33,3.13-4.33s3.13,1.57,3.13,4.33c0,2.78-1.25,4.37-3.13,4.37
			S341.39,122.16,341.39,119.38z M346.34,119.38c0-2.19-0.74-3.25-1.82-3.25s-1.82,1.06-1.82,3.25c0,2.19,0.74,3.3,1.82,3.3
			S346.34,121.57,346.34,119.38z M352.52,115.05h1.17l-7.6,14.28h-1.17L352.52,115.05z M350.99,124.97c0-2.76,1.25-4.33,3.13-4.33
			s3.13,1.57,3.13,4.33c0,2.78-1.25,4.37-3.13,4.37S350.99,127.75,350.99,124.97z M355.94,124.97c0-2.19-0.74-3.25-1.82-3.25
			s-1.82,1.06-1.82,3.25s0.74,3.3,1.82,3.3S355.94,127.16,355.94,124.97z"/>
	</g>
</g>
<g>
	<g>
		<path class="st5" d="M321.86,243.12h3.07v-9.86h-2.44v-1.11c1.22-0.21,2.11-0.54,2.85-0.98h1.32v11.95h2.77v1.44h-7.56V243.12z"/>
		<path class="st5" d="M331.29,241.13c0-1.74,1.27-2.93,2.53-3.6v-0.08c-1-0.69-1.87-1.68-1.87-3.1c0-2.06,1.64-3.43,3.79-3.43
			c2.34,0,3.79,1.48,3.79,3.56c0,1.4-1.02,2.61-1.85,3.23v0.08c1.2,0.71,2.33,1.65,2.33,3.44c0,2.01-1.73,3.58-4.31,3.58
			C333.16,244.81,331.29,243.26,331.29,241.13z M338.35,241.19c0-1.74-1.69-2.35-3.63-3.13c-1.08,0.7-1.87,1.69-1.87,2.92
			c0,1.47,1.23,2.55,2.87,2.55C337.29,243.53,338.35,242.57,338.35,241.19z M338.04,234.57c0-1.32-0.85-2.37-2.33-2.37
			c-1.25,0-2.17,0.86-2.17,2.15c0,1.6,1.48,2.27,3.09,2.91C337.53,236.45,338.04,235.56,338.04,234.57z"/>
		<path class="st5" d="M341.39,234.85c0-2.76,1.25-4.33,3.13-4.33s3.13,1.57,3.13,4.33c0,2.78-1.25,4.37-3.13,4.37
			S341.39,237.64,341.39,234.85z M346.34,234.85c0-2.19-0.74-3.25-1.82-3.25s-1.82,1.06-1.82,3.25c0,2.19,0.74,3.3,1.82,3.3
			S346.34,237.05,346.34,234.85z M352.52,230.53h1.17l-7.6,14.28h-1.17L352.52,230.53z M350.99,240.44c0-2.76,1.25-4.33,3.13-4.33
			s3.13,1.57,3.13,4.33c0,2.78-1.25,4.37-3.13,4.37S350.99,243.23,350.99,240.44z M355.94,240.44c0-2.19-0.74-3.25-1.82-3.25
			s-1.82,1.06-1.82,3.25s0.74,3.3,1.82,3.3S355.94,242.64,355.94,240.44z"/>
	</g>
</g>
<g>
	<g>
		<path class="st5" d="M326.4,301.4l0.96-1.08c0.54,0.65,1.37,1.06,2.2,1.06c1.93,0,3.54-1.53,3.54-6.02c0-3.29-1.07-5.08-2.99-5.08
			c-1.31,0-2.33,1.17-2.33,2.94c0,1.75,0.82,2.84,2.48,2.84c0.87,0,1.96-0.52,2.88-1.9l0.06,1.37c-0.84,1.13-2.09,1.83-3.23,1.83
			c-2.32,0-3.82-1.39-3.82-4.14c0-2.56,1.81-4.3,3.96-4.3c2.64,0,4.62,2.14,4.62,6.44c0,5.39-2.43,7.46-5.1,7.46
			C328.19,302.82,327.14,302.21,326.4,301.4z"/>
		<path class="st5" d="M336.28,292.86c0-2.76,1.25-4.33,3.13-4.33s3.13,1.57,3.13,4.33c0,2.78-1.25,4.37-3.13,4.37
			S336.28,295.64,336.28,292.86z M341.23,292.86c0-2.19-0.74-3.25-1.82-3.25s-1.82,1.06-1.82,3.25c0,2.19,0.74,3.3,1.82,3.3
			S341.23,295.05,341.23,292.86z M347.41,288.53h1.17l-7.6,14.28h-1.17L347.41,288.53z M345.88,298.45c0-2.76,1.25-4.33,3.13-4.33
			s3.13,1.57,3.13,4.33c0,2.78-1.25,4.37-3.13,4.37S345.88,301.23,345.88,298.45z M350.83,298.45c0-2.19-0.74-3.25-1.82-3.25
			s-1.82,1.06-1.82,3.25s0.74,3.3,1.82,3.3S350.83,300.64,350.83,298.45z"/>
	</g>
</g>
<g>
	<g>
		<path class="st5" d="M553.78,182.86l0.87-1.13c0.81,0.84,1.85,1.58,3.42,1.58c1.63,0,2.78-0.95,2.78-2.45
			c0-1.59-1.1-2.66-4.27-2.66v-1.33c2.84,0,3.8-1.09,3.8-2.49c0-1.3-0.89-2.12-2.31-2.12c-1.12,0-2.07,0.56-2.86,1.36l-0.93-1.1
			c1.04-0.96,2.26-1.67,3.85-1.67c2.33,0,4.01,1.24,4.01,3.4c0,1.61-0.98,2.64-2.43,3.18v0.08c1.62,0.38,2.91,1.56,2.91,3.4
			c0,2.39-1.97,3.83-4.42,3.83C556.03,184.75,554.68,183.85,553.78,182.86z"/>
		<path class="st5" d="M569.83,175.53c0-0.7,0.06-1.86,0.1-2.57h-0.08c-0.34,0.64-0.71,1.22-1.09,1.89l-3.13,4.58h7.67v1.38h-9.47
			v-1.14l5.73-8.55h1.92v13.39h-1.63V175.53z"/>
		<path class="st5" d="M574.41,174.79c0-2.76,1.25-4.33,3.13-4.33s3.13,1.57,3.13,4.33c0,2.78-1.25,4.37-3.13,4.37
			S574.41,177.58,574.41,174.79z M579.36,174.79c0-2.19-0.74-3.25-1.82-3.25s-1.82,1.06-1.82,3.25c0,2.19,0.74,3.3,1.82,3.3
			S579.36,176.99,579.36,174.79z M585.53,170.47h1.17l-7.6,14.28h-1.17L585.53,170.47z M584.01,180.38c0-2.76,1.25-4.33,3.13-4.33
			s3.13,1.57,3.13,4.33c0,2.78-1.25,4.37-3.13,4.37S584.01,183.17,584.01,180.38z M588.95,180.38c0-2.19-0.74-3.25-1.82-3.25
			s-1.82,1.06-1.82,3.25s0.74,3.3,1.82,3.3S588.95,182.58,588.95,180.38z"/>
	</g>
</g>
<g>
	<g>
		<path class="st5" d="M553.74,127.5l0.85-1.13c0.8,0.79,1.8,1.52,3.38,1.52c1.63,0,2.93-1.18,2.93-3.05c0-1.85-1.13-2.94-2.84-2.94
			c-0.93,0-1.5,0.29-2.3,0.82l-0.92-0.58l0.44-6.45h6.7v1.48h-5.19l-0.35,3.98c0.62-0.34,1.23-0.56,2.06-0.56
			c2.28,0,4.15,1.3,4.15,4.19c0,2.9-2.18,4.54-4.51,4.54C555.99,129.34,554.67,128.43,553.74,127.5z"/>
		<path class="st5" d="M564.31,125.66c0-1.74,1.27-2.93,2.53-3.6v-0.08c-1-0.69-1.87-1.68-1.87-3.1c0-2.06,1.64-3.43,3.79-3.43
			c2.34,0,3.79,1.48,3.79,3.56c0,1.4-1.02,2.61-1.85,3.23v0.08c1.2,0.71,2.33,1.65,2.33,3.44c0,2.01-1.73,3.58-4.31,3.58
			C566.17,129.34,564.31,127.79,564.31,125.66z M571.37,125.71c0-1.74-1.69-2.35-3.63-3.13c-1.08,0.7-1.87,1.69-1.87,2.92
			c0,1.47,1.23,2.55,2.87,2.55C570.31,128.05,571.37,127.09,571.37,125.71z M571.05,119.1c0-1.32-0.85-2.37-2.33-2.37
			c-1.25,0-2.17,0.86-2.17,2.15c0,1.6,1.48,2.27,3.09,2.91C570.55,120.98,571.05,120.08,571.05,119.1z"/>
		<path class="st5" d="M574.41,119.38c0-2.76,1.25-4.33,3.13-4.33s3.13,1.57,3.13,4.33c0,2.78-1.25,4.37-3.13,4.37
			S574.41,122.16,574.41,119.38z M579.36,119.38c0-2.19-0.74-3.25-1.82-3.25s-1.82,1.06-1.82,3.25c0,2.19,0.74,3.3,1.82,3.3
			S579.36,121.57,579.36,119.38z M585.53,115.05h1.17l-7.6,14.28h-1.17L585.53,115.05z M584.01,124.97c0-2.76,1.25-4.33,3.13-4.33
			s3.13,1.57,3.13,4.33c0,2.78-1.25,4.37-3.13,4.37S584.01,127.75,584.01,124.97z M588.95,124.97c0-2.19-0.74-3.25-1.82-3.25
			s-1.82,1.06-1.82,3.25s0.74,3.3,1.82,3.3S588.95,127.16,588.95,124.97z"/>
	</g>
</g>
<g>
	<g>
		<path class="st5" d="M554.06,243.54c4.03-4.01,6.3-6.42,6.3-8.6c0-1.53-0.83-2.61-2.54-2.61c-1.12,0-2.08,0.71-2.85,1.6l-1-0.98
			c1.12-1.23,2.33-2.04,4.06-2.04c2.48,0,4.02,1.56,4.02,3.94c0,2.51-2.31,5.01-5.47,8.33c0.73-0.06,1.56-0.12,2.25-0.12h3.87v1.48
			h-8.65V243.54z"/>
		<path class="st5" d="M569.83,235.59c0-0.7,0.06-1.86,0.1-2.57h-0.08c-0.34,0.64-0.71,1.22-1.09,1.89l-3.13,4.58h7.67v1.38h-9.47
			v-1.14l5.73-8.55h1.92v13.39h-1.63V235.59z"/>
		<path class="st5" d="M574.41,234.85c0-2.76,1.25-4.33,3.13-4.33s3.13,1.57,3.13,4.33c0,2.78-1.25,4.37-3.13,4.37
			S574.41,237.64,574.41,234.85z M579.36,234.85c0-2.19-0.74-3.25-1.82-3.25s-1.82,1.06-1.82,3.25c0,2.19,0.74,3.3,1.82,3.3
			S579.36,237.05,579.36,234.85z M585.53,230.53h1.17l-7.6,14.28h-1.17L585.53,230.53z M584.01,240.44c0-2.76,1.25-4.33,3.13-4.33
			s3.13,1.57,3.13,4.33c0,2.78-1.25,4.37-3.13,4.37S584.01,243.23,584.01,240.44z M588.95,240.44c0-2.19-0.74-3.25-1.82-3.25
			s-1.82,1.06-1.82,3.25s0.74,3.3,1.82,3.3S588.95,242.64,588.95,240.44z"/>
	</g>
</g>
<g>
	<g>
		<path class="st5" d="M554.88,301.13h3.07v-9.86h-2.44v-1.11c1.22-0.21,2.11-0.54,2.85-0.98h1.32v11.95h2.77v1.44h-7.56V301.13z"/>
		<path class="st5" d="M564.29,301.54c4.03-4.01,6.3-6.42,6.3-8.6c0-1.53-0.83-2.61-2.54-2.61c-1.12,0-2.08,0.71-2.85,1.6l-1-0.98
			c1.12-1.23,2.33-2.04,4.06-2.04c2.48,0,4.02,1.56,4.02,3.94c0,2.51-2.31,5.01-5.47,8.33c0.73-0.06,1.56-0.12,2.25-0.12h3.87v1.48
			h-8.65V301.54z"/>
		<path class="st5" d="M574.41,292.86c0-2.76,1.25-4.33,3.13-4.33s3.13,1.57,3.13,4.33c0,2.78-1.25,4.37-3.13,4.37
			S574.41,295.64,574.41,292.86z M579.36,292.86c0-2.19-0.74-3.25-1.82-3.25s-1.82,1.06-1.82,3.25c0,2.19,0.74,3.3,1.82,3.3
			S579.36,295.05,579.36,292.86z M585.53,288.53h1.17l-7.6,14.28h-1.17L585.53,288.53z M584.01,298.45c0-2.76,1.25-4.33,3.13-4.33
			s3.13,1.57,3.13,4.33c0,2.78-1.25,4.37-3.13,4.37S584.01,301.23,584.01,298.45z M588.95,298.45c0-2.19-0.74-3.25-1.82-3.25
			s-1.82,1.06-1.82,3.25s0.74,3.3,1.82,3.3S588.95,300.64,588.95,298.45z"/>
	</g>
</g>
<g>
	<g>
		<path class="st5" d="M787.83,175.53c0-0.7,0.06-1.86,0.1-2.57h-0.08c-0.34,0.64-0.71,1.22-1.09,1.89l-3.13,4.58h7.67v1.38h-9.47
			v-1.14l5.73-8.55h1.92v13.39h-1.63V175.53z"/>
		<path class="st5" d="M793.33,183.06h3.07v-9.86h-2.44v-1.11c1.22-0.21,2.11-0.54,2.85-0.98h1.32v11.95h2.77v1.44h-7.56V183.06z"/>
		<path class="st5" d="M802.63,174.79c0-2.76,1.25-4.33,3.13-4.33s3.13,1.57,3.13,4.33c0,2.78-1.25,4.37-3.13,4.37
			S802.63,177.58,802.63,174.79z M807.58,174.79c0-2.19-0.74-3.25-1.82-3.25s-1.82,1.06-1.82,3.25c0,2.19,0.74,3.3,1.82,3.3
			S807.58,176.99,807.58,174.79z M813.76,170.47h1.17l-7.6,14.28h-1.17L813.76,170.47z M812.23,180.38c0-2.76,1.25-4.33,3.13-4.33
			s3.13,1.57,3.13,4.33c0,2.78-1.25,4.37-3.13,4.37S812.23,183.17,812.23,180.38z M817.18,180.38c0-2.19-0.74-3.25-1.82-3.25
			s-1.82,1.06-1.82,3.25s0.74,3.3,1.82,3.3S817.18,182.58,817.18,180.38z"/>
	</g>
</g>
<g>
	<g>
		<path class="st5" d="M782.46,122.9c0-5.39,2.43-7.46,5.1-7.46c1.44,0,2.48,0.61,3.23,1.41l-0.96,1.08
			c-0.54-0.65-1.37-1.06-2.2-1.06c-1.92,0-3.54,1.53-3.54,6.02c0,3.29,1.07,5.08,2.99,5.08c1.31,0,2.33-1.17,2.33-2.94
			c0-1.75-0.82-2.84-2.48-2.84c-0.87,0-1.96,0.52-2.88,1.9l-0.06-1.37c0.84-1.13,2.09-1.83,3.23-1.83c2.32,0,3.82,1.39,3.82,4.14
			c0,2.56-1.81,4.3-3.96,4.3C784.45,129.34,782.46,127.2,782.46,122.9z"/>
		<path class="st5" d="M792.2,127.5l0.85-1.13c0.8,0.79,1.8,1.52,3.38,1.52c1.63,0,2.93-1.18,2.93-3.05c0-1.85-1.13-2.94-2.84-2.94
			c-0.93,0-1.5,0.29-2.3,0.82l-0.92-0.58l0.44-6.45h6.7v1.48h-5.19l-0.35,3.98c0.62-0.34,1.23-0.56,2.06-0.56
			c2.28,0,4.15,1.3,4.15,4.19c0,2.9-2.18,4.54-4.51,4.54C794.44,129.34,793.13,128.43,792.2,127.5z"/>
		<path class="st5" d="M802.63,119.38c0-2.76,1.25-4.33,3.13-4.33s3.13,1.57,3.13,4.33c0,2.78-1.25,4.37-3.13,4.37
			S802.63,122.16,802.63,119.38z M807.58,119.38c0-2.19-0.74-3.25-1.82-3.25s-1.82,1.06-1.82,3.25c0,2.19,0.74,3.3,1.82,3.3
			S807.58,121.57,807.58,119.38z M813.76,115.05h1.17l-7.6,14.28h-1.17L813.76,115.05z M812.23,124.97c0-2.76,1.25-4.33,3.13-4.33
			s3.13,1.57,3.13,4.33c0,2.78-1.25,4.37-3.13,4.37S812.23,127.75,812.23,124.97z M817.18,124.97c0-2.19-0.74-3.25-1.82-3.25
			s-1.82,1.06-1.82,3.25s0.74,3.3,1.82,3.3S817.18,127.16,817.18,124.97z"/>
	</g>
</g>
<g>
	<g>
		<path class="st5" d="M782.01,242.92l0.87-1.13c0.81,0.84,1.85,1.58,3.42,1.58c1.63,0,2.78-0.95,2.78-2.45
			c0-1.59-1.1-2.66-4.27-2.66v-1.33c2.84,0,3.8-1.09,3.8-2.49c0-1.3-0.89-2.12-2.31-2.12c-1.12,0-2.07,0.56-2.86,1.36l-0.93-1.1
			c1.04-0.96,2.26-1.67,3.85-1.67c2.33,0,4.01,1.24,4.01,3.4c0,1.61-0.98,2.64-2.43,3.18v0.08c1.62,0.38,2.91,1.56,2.91,3.4
			c0,2.39-1.97,3.83-4.42,3.83C784.26,244.81,782.91,243.91,782.01,242.92z"/>
		<path class="st5" d="M792.61,237.81c0-4.49,1.62-6.9,4.29-6.9s4.29,2.42,4.29,6.9c0,4.49-1.62,7-4.29,7
			S792.61,242.3,792.61,237.81z M799.51,237.81c0-3.93-1.06-5.51-2.62-5.51s-2.62,1.58-2.62,5.51c0,3.93,1.06,5.61,2.62,5.61
			S799.51,241.74,799.51,237.81z"/>
		<path class="st5" d="M802.63,234.85c0-2.76,1.25-4.33,3.13-4.33s3.13,1.57,3.13,4.33c0,2.78-1.25,4.37-3.13,4.37
			S802.63,237.64,802.63,234.85z M807.58,234.85c0-2.19-0.74-3.25-1.82-3.25s-1.82,1.06-1.82,3.25c0,2.19,0.74,3.3,1.82,3.3
			S807.58,237.05,807.58,234.85z M813.76,230.53h1.17l-7.6,14.28h-1.17L813.76,230.53z M812.23,240.44c0-2.76,1.25-4.33,3.13-4.33
			s3.13,1.57,3.13,4.33c0,2.78-1.25,4.37-3.13,4.37S812.23,243.23,812.23,240.44z M817.18,240.44c0-2.19-0.74-3.25-1.82-3.25
			s-1.82,1.06-1.82,3.25s0.74,3.3,1.82,3.3S817.18,242.64,817.18,240.44z"/>
	</g>
</g>
<g>
	<g>
		<path class="st5" d="M783.1,301.13h3.07v-9.86h-2.44v-1.11c1.22-0.21,2.11-0.54,2.85-0.98h1.32v11.95h2.77v1.44h-7.56V301.13z"/>
		<path class="st5" d="M792.69,296.38c0-5.39,2.43-7.46,5.1-7.46c1.44,0,2.48,0.61,3.23,1.41l-0.96,1.08
			c-0.54-0.65-1.37-1.06-2.2-1.06c-1.92,0-3.54,1.53-3.54,6.02c0,3.29,1.07,5.08,2.99,5.08c1.31,0,2.33-1.17,2.33-2.94
			c0-1.75-0.82-2.84-2.48-2.84c-0.87,0-1.96,0.52-2.88,1.9l-0.06-1.37c0.84-1.13,2.09-1.83,3.23-1.83c2.32,0,3.82,1.39,3.82,4.14
			c0,2.56-1.81,4.3-3.96,4.3C794.67,302.82,792.69,300.68,792.69,296.38z"/>
		<path class="st5" d="M802.64,292.86c0-2.76,1.25-4.33,3.13-4.33s3.13,1.57,3.13,4.33c0,2.78-1.25,4.37-3.13,4.37
			S802.64,295.64,802.64,292.86z M807.58,292.86c0-2.19-0.74-3.25-1.82-3.25s-1.82,1.06-1.82,3.25c0,2.19,0.74,3.3,1.82,3.3
			S807.58,295.05,807.58,292.86z M813.76,288.53h1.17l-7.6,14.28h-1.17L813.76,288.53z M812.23,298.45c0-2.76,1.25-4.33,3.13-4.33
			s3.13,1.57,3.13,4.33c0,2.78-1.25,4.37-3.13,4.37S812.23,301.23,812.23,298.45z M817.18,298.45c0-2.19-0.74-3.25-1.82-3.25
			s-1.82,1.06-1.82,3.25s0.74,3.3,1.82,3.3S817.18,300.64,817.18,298.45z"/>
	</g>
</g>
<g>
	<g>
		<path class="st6" d="M16.31,19.89h4.52c2.7,0,5.02,0.99,5.02,4.1c0,3.02-2.36,4.33-4.94,4.33h-1.33v3.91h-3.27V19.89z
			 M20.75,25.74c1.29,0,1.9-0.65,1.9-1.75c0-1.1-0.72-1.52-1.98-1.52h-1.1v3.27H20.75z"/>
		<path class="st6" d="M27.12,22.74h2.66l0.23,1.63h0.08c0.7-1.29,1.77-1.86,2.7-1.86c0.59,0,0.91,0.08,1.18,0.19l-0.53,2.81
			c-0.34-0.08-0.65-0.15-1.06-0.15c-0.68,0-1.52,0.42-1.98,1.6v5.28h-3.27V22.74z"/>
		<path class="st6" d="M34.09,27.49c0-3.15,2.28-4.98,4.71-4.98s4.71,1.82,4.71,4.98c0,3.15-2.28,4.98-4.71,4.98
			S34.09,30.64,34.09,27.49z M40.17,27.49c0-1.44-0.38-2.36-1.37-2.36s-1.37,0.91-1.37,2.36c0,1.44,0.38,2.36,1.37,2.36
			S40.17,28.93,40.17,27.49z"/>
		<path class="st6" d="M44.26,27.49c0-3.15,2.39-4.98,5.09-4.98c1.14,0,2.05,0.38,2.77,0.99l-1.52,2.09
			c-0.42-0.34-0.72-0.46-1.06-0.46c-1.22,0-1.94,0.91-1.94,2.36c0,1.44,0.8,2.36,1.82,2.36c0.53,0,1.06-0.27,1.52-0.61l1.25,2.13
			c-0.95,0.84-2.17,1.1-3.15,1.1C46.35,32.46,44.26,30.64,44.26,27.49z"/>
		<path class="st6" d="M52.75,27.49c0-3.08,2.24-4.98,4.56-4.98c2.81,0,4.14,2.05,4.14,4.6c0,0.57-0.08,1.14-0.13,1.37H55.9
			c0.3,1.14,1.14,1.52,2.2,1.52c0.65,0,1.25-0.19,1.94-0.57l1.06,1.94c-1.03,0.72-2.39,1.1-3.46,1.1
			C54.88,32.46,52.75,30.64,52.75,27.49z M58.68,26.35c0-0.72-0.3-1.37-1.29-1.37c-0.72,0-1.33,0.42-1.52,1.37H58.68z"/>
		<path class="st6" d="M62.76,22.74h2.66l0.23,1.14h0.08c0.76-0.72,1.71-1.37,3-1.37c2.09,0,2.96,1.52,2.96,3.88v5.85h-3.27V26.8
			c0-1.22-0.3-1.52-0.95-1.52c-0.61,0-0.95,0.27-1.44,0.72v6.23h-3.27V22.74z"/>
		<path class="st6" d="M72.97,29.54c0-1.98,1.52-3.08,5.17-3.46c-0.08-0.68-0.49-0.99-1.33-0.99c-0.68,0-1.41,0.27-2.39,0.8
			l-1.14-2.13c1.33-0.8,2.7-1.25,4.18-1.25c2.47,0,3.95,1.33,3.95,4.45v5.28h-2.66l-0.23-0.91h-0.08c-0.76,0.68-1.6,1.14-2.62,1.14
			C74.03,32.46,72.97,31.09,72.97,29.54z M78.13,29.31v-1.29c-1.56,0.23-2.05,0.72-2.05,1.25c0,0.44,0.3,0.68,0.87,0.68
			C77.49,29.95,77.79,29.69,78.13,29.31z"/>
		<path class="st6" d="M83.47,28.59v-3.31h-1.25v-2.43l1.44-0.11l0.38-2.47h2.7v2.47h2.17v2.55h-2.17v3.25
			c0,1.04,0.53,1.39,1.14,1.39c0.3,0,0.61-0.08,0.84-0.15l0.49,2.36c-0.49,0.15-1.2,0.34-2.24,0.34
			C84.5,32.46,83.47,30.9,83.47,28.59z"/>
		<path class="st6" d="M92.75,31.13l1.44-2.01c0.87,0.65,1.65,0.95,2.32,0.95c0.68,0,0.95-0.19,0.95-0.57c0-0.49-0.87-0.72-1.82-1.1
			c-1.1-0.44-2.39-1.25-2.39-2.81c0-1.86,1.52-3.08,3.76-3.08c1.56,0,2.66,0.63,3.5,1.25l-1.44,1.94c-0.68-0.49-1.35-0.8-1.94-0.8
			c-0.55,0-0.84,0.15-0.84,0.53c0,0.49,0.84,0.68,1.79,1.03c1.14,0.42,2.43,1.14,2.43,2.85c0,1.79-1.41,3.15-4.07,3.15
			C95.22,32.46,93.73,31.93,92.75,31.13z"/>
		<path class="st6" d="M101.62,28.89v-9.88h3.27v9.99c0,0.65,0.3,0.84,0.53,0.84c0.11,0,0.19,0,0.34-0.04l0.38,2.39
			c-0.34,0.15-0.87,0.27-1.6,0.27C102.34,32.46,101.62,31.02,101.62,28.89z"/>
		<path class="st6" d="M106.31,27.49c0-3.15,2.28-4.98,4.71-4.98s4.71,1.82,4.71,4.98c0,3.15-2.28,4.98-4.71,4.98
			S106.31,30.64,106.31,27.49z M112.39,27.49c0-1.44-0.38-2.36-1.37-2.36s-1.37,0.91-1.37,2.36c0,1.44,0.38,2.36,1.37,2.36
			S112.39,28.93,112.39,27.49z"/>
		<path class="st6" d="M119.86,31.21h-0.08l-0.27,1.03h-2.55V19.01h3.27v3.08l-0.08,1.37c0.67-0.61,1.5-0.95,2.34-0.95
			c2.24,0,3.7,1.9,3.7,4.81c0,3.29-1.94,5.15-3.95,5.15C121.42,32.46,120.58,32.04,119.86,31.21z M122.86,27.37
			c0-1.56-0.46-2.2-1.33-2.2c-0.49,0-0.87,0.19-1.29,0.68v3.5c0.38,0.34,0.8,0.46,1.22,0.46C122.21,29.8,122.86,29.19,122.86,27.37z
			"/>
		<path class="st6" d="M127.02,27.49c0-3.15,2.28-4.98,4.71-4.98s4.71,1.82,4.71,4.98c0,3.15-2.28,4.98-4.71,4.98
			S127.02,30.64,127.02,27.49z M133.1,27.49c0-1.44-0.38-2.36-1.37-2.36s-1.37,0.91-1.37,2.36c0,1.44,0.38,2.36,1.37,2.36
			S133.1,28.93,133.1,27.49z"/>
		<path class="st6" d="M137.26,27.49c0-3.12,1.94-4.98,3.88-4.98c1.03,0,1.63,0.38,2.2,0.95l-0.11-1.37v-3.08h3.27v13.22h-2.66
			l-0.23-0.87h-0.08c-0.65,0.65-1.56,1.1-2.39,1.1C138.78,32.46,137.26,30.56,137.26,27.49z M143.23,29.12v-3.5
			c-0.38-0.34-0.87-0.46-1.29-0.46c-0.68,0-1.33,0.61-1.33,2.28c0,1.71,0.53,2.36,1.41,2.36C142.51,29.8,142.89,29.65,143.23,29.12z
			"/>
		<path class="st6" d="M148.22,22.74h2.66l0.23,1.14h0.08c0.76-0.72,1.71-1.37,3-1.37c2.09,0,2.96,1.52,2.96,3.88v5.85h-3.27V26.8
			c0-1.22-0.3-1.52-0.95-1.52c-0.61,0-0.95,0.27-1.44,0.72v6.23h-3.27V22.74z"/>
		<path class="st6" d="M158.31,27.49c0-3.15,2.28-4.98,4.71-4.98s4.71,1.82,4.71,4.98c0,3.15-2.28,4.98-4.71,4.98
			S158.31,30.64,158.31,27.49z M164.39,27.49c0-1.44-0.38-2.36-1.37-2.36s-1.37,0.91-1.37,2.36c0,1.44,0.38,2.36,1.37,2.36
			S164.39,28.93,164.39,27.49z"/>
		<path class="st6" d="M168.44,33.79c0-0.78,0.46-1.37,1.33-1.82v-0.08c-0.49-0.34-0.87-0.84-0.87-1.63c0-0.65,0.42-1.33,1.06-1.79
			V28.4c-0.68-0.46-1.29-1.33-1.29-2.43c0-2.36,1.98-3.46,4.07-3.46c0.53,0,1.06,0.08,1.52,0.23h3.53v2.36h-1.37
			c0.08,0.23,0.15,0.61,0.15,0.99c0,2.24-1.71,3.15-3.84,3.15c-0.3,0-0.65-0.04-1.06-0.13c-0.19,0.17-0.23,0.29-0.23,0.55
			c0,0.42,0.38,0.57,1.33,0.57h1.42c2.37,0,3.74,0.72,3.74,2.47c0,2.05-2.13,3.46-5.51,3.46C170.26,36.15,168.44,35.5,168.44,33.79z
			 M174.82,33.26c0-0.49-0.46-0.57-1.27-0.57h-0.74c-0.76,0-1.1-0.04-1.37-0.11c-0.23,0.23-0.34,0.42-0.34,0.68
			c0,0.61,0.76,0.87,1.86,0.87C174.03,34.13,174.82,33.79,174.82,33.26z M173.76,25.97c0-0.87-0.42-1.29-1.03-1.29
			s-1.03,0.42-1.03,1.29c0,0.91,0.42,1.33,1.03,1.33S173.76,26.88,173.76,25.97z"/>
		<path class="st6" d="M182.46,19.89h4.52c2.7,0,5.02,0.99,5.02,4.1c0,3.02-2.36,4.33-4.94,4.33h-1.33v3.91h-3.27V19.89z
			 M186.91,25.74c1.29,0,1.9-0.65,1.9-1.75c0-1.1-0.72-1.52-1.98-1.52h-1.1v3.27H186.91z"/>
		<path class="st6" d="M192.78,30.7l1.86-2.24c0.87,0.7,1.98,1.2,2.89,1.2c0.99,0,1.41-0.32,1.41-0.87c0-0.59-0.63-0.78-1.67-1.2
			l-1.54-0.65c-1.33-0.53-2.49-1.65-2.49-3.44c0-2.11,1.9-3.84,4.6-3.84c1.41,0,2.96,0.53,4.1,1.65l-1.63,2.05
			c-0.84-0.59-1.56-0.89-2.47-0.89c-0.8,0-1.29,0.29-1.29,0.84c0,0.59,0.7,0.8,1.82,1.23l1.5,0.59c1.54,0.61,2.41,1.67,2.41,3.38
			c0,2.09-1.75,3.95-4.83,3.95C195.89,32.46,194.11,31.89,192.78,30.7z"/>
		<path class="st6" d="M205.98,19.89h3.95l3.76,12.35h-3.46l-1.41-6c-0.3-1.18-0.61-2.68-0.91-3.91h-0.08
			c-0.27,1.25-0.57,2.74-0.87,3.91l-1.41,6h-3.34L205.98,19.89z M204.92,27.09h6.04v2.53h-6.04V27.09z"/>
		<path class="st6" d="M33.11,50.59v-5.85h3.27v5.43c0,1.22,0.3,1.52,0.95,1.52c0.61,0,0.95-0.23,1.37-0.84v-6.12h3.27v9.5H39.3
			l-0.23-1.25h-0.08c-0.76,0.91-1.63,1.48-2.93,1.48C33.98,54.46,33.11,52.94,33.11,50.59z"/>
		<path class="st6" d="M46.52,49.49c0-3.15,2.28-4.98,4.71-4.98s4.71,1.82,4.71,4.98c0,3.15-2.28,4.98-4.71,4.98
			S46.52,52.64,46.52,49.49z M52.6,49.49c0-1.44-0.38-2.36-1.37-2.36s-1.37,0.91-1.37,2.36c0,1.44,0.38,2.36,1.37,2.36
			S52.6,50.93,52.6,49.49z"/>
		<path class="st6" d="M56.76,49.49c0-3.12,1.94-4.98,3.88-4.98c1.03,0,1.63,0.38,2.2,0.95l-0.11-1.37v-3.08h3.27v13.22h-2.66
			l-0.23-0.87h-0.08c-0.65,0.65-1.56,1.1-2.39,1.1C58.28,54.46,56.76,52.56,56.76,49.49z M62.73,51.12v-3.5
			c-0.38-0.34-0.87-0.46-1.29-0.46c-0.68,0-1.33,0.61-1.33,2.28c0,1.71,0.53,2.36,1.41,2.36C62,51.8,62.38,51.65,62.73,51.12z"/>
		<path class="st6" d="M67.72,44.74h2.66l0.23,1.14h0.08c0.76-0.72,1.71-1.37,3-1.37c2.09,0,2.96,1.52,2.96,3.88v5.85h-3.27V48.8
			c0-1.22-0.3-1.52-0.95-1.52c-0.61,0-0.95,0.27-1.44,0.72v6.23h-3.27V44.74z"/>
		<path class="st6" d="M77.81,49.49c0-3.15,2.28-4.98,4.71-4.98s4.71,1.82,4.71,4.98c0,3.15-2.28,4.98-4.71,4.98
			S77.81,52.64,77.81,49.49z M83.89,49.49c0-1.44-0.38-2.36-1.37-2.36s-1.37,0.91-1.37,2.36c0,1.44,0.38,2.36,1.37,2.36
			S83.89,50.93,83.89,49.49z"/>
		<path class="st6" d="M87.71,53.13l1.44-2.01c0.87,0.65,1.65,0.95,2.32,0.95c0.68,0,0.95-0.19,0.95-0.57c0-0.49-0.87-0.72-1.82-1.1
			c-1.1-0.44-2.39-1.25-2.39-2.81c0-1.86,1.52-3.08,3.76-3.08c1.56,0,2.66,0.63,3.5,1.25l-1.44,1.94c-0.68-0.49-1.35-0.8-1.94-0.8
			c-0.55,0-0.84,0.15-0.84,0.53c0,0.49,0.84,0.68,1.79,1.03c1.14,0.42,2.43,1.14,2.43,2.85c0,1.79-1.41,3.15-4.07,3.15
			C90.18,54.46,88.7,53.93,87.71,53.13z"/>
		<path class="st6" d="M96.51,50.59v-5.85h3.27v5.43c0,1.22,0.3,1.52,0.95,1.52c0.61,0,0.95-0.23,1.37-0.84v-6.12h3.27v9.5h-2.66
			l-0.23-1.25h-0.08c-0.76,0.91-1.63,1.48-2.93,1.48C97.38,54.46,96.51,52.94,96.51,50.59z"/>
		<path class="st6" d="M110.42,44.74h2.66l0.23,1.14h0.08c0.76-0.72,1.71-1.37,3-1.37c2.09,0,2.96,1.52,2.96,3.88v5.85h-3.27V48.8
			c0-1.22-0.3-1.52-0.95-1.52c-0.61,0-0.95,0.27-1.44,0.72v6.23h-3.27V44.74z"/>
		<path class="st6" d="M120.62,51.54c0-1.98,1.52-3.08,5.17-3.46c-0.08-0.68-0.49-0.99-1.33-0.99c-0.68,0-1.41,0.27-2.39,0.8
			l-1.14-2.13c1.33-0.8,2.7-1.25,4.18-1.25c2.47,0,3.95,1.33,3.95,4.45v5.28h-2.66l-0.23-0.91h-0.08c-0.76,0.68-1.6,1.14-2.62,1.14
			C121.68,54.46,120.62,53.09,120.62,51.54z M125.79,51.31v-1.29c-1.56,0.23-2.05,0.72-2.05,1.25c0,0.44,0.3,0.68,0.87,0.68
			C125.14,51.95,125.44,51.69,125.79,51.31z"/>
		<path class="st6" d="M133.96,50.59v-5.85h3.27v5.43c0,1.22,0.3,1.52,0.95,1.52c0.61,0,0.95-0.23,1.37-0.84v-6.12h3.27v9.5h-2.66
			l-0.23-1.25h-0.08c-0.76,0.91-1.63,1.48-2.93,1.48C134.83,54.46,133.96,52.94,133.96,50.59z"/>
		<path class="st6" d="M144.54,41.01h3.19v7.03h0.08l2.62-3.31h3.53l-3.38,3.95l3.57,5.55h-3.53l-1.9-3.38l-0.99,1.1v2.28h-3.19
			V41.01z"/>
		<path class="st6" d="M154.78,50.59v-5.85h3.27v5.43c0,1.22,0.3,1.52,0.95,1.52c0.61,0,0.95-0.23,1.37-0.84v-6.12h3.27v9.5h-2.66
			l-0.23-1.25h-0.08c-0.76,0.91-1.63,1.48-2.93,1.48C155.65,54.46,154.78,52.94,154.78,50.59z"/>
		<path class="st6" d="M165.36,44.74h2.66l0.23,0.87h0.08c0.7-0.65,1.63-1.1,2.58-1.1c2.24,0,3.69,1.9,3.69,4.83
			c0,3.27-1.94,5.13-3.95,5.13c-0.8,0-1.52-0.34-2.13-0.95l0.11,1.44v2.62h-3.27V44.74z M171.25,49.37c0-1.56-0.46-2.2-1.33-2.2
			c-0.49,0-0.87,0.19-1.29,0.68v3.5c0.38,0.34,0.8,0.46,1.22,0.46C170.61,51.8,171.25,51.19,171.25,49.37z"/>
		<path class="st6" d="M175.91,44.74h2.66l0.23,1.14h0.08c0.76-0.72,1.71-1.37,3-1.37c2.09,0,2.96,1.52,2.96,3.88v5.85h-3.27V48.8
			c0-1.22-0.3-1.52-0.95-1.52c-0.61,0-0.95,0.27-1.44,0.72v6.23h-3.27V44.74z"/>
		<path class="st6" d="M186.41,50.59v-5.85h3.27v5.43c0,1.22,0.3,1.52,0.95,1.52c0.61,0,0.95-0.23,1.37-0.84v-6.12h3.27v9.5h-2.66
			l-0.23-1.25h-0.08c-0.76,0.91-1.63,1.48-2.93,1.48C187.29,54.46,186.41,52.94,186.41,50.59z"/>
		<path class="st6" d="M16.06,63.01h3.19v7.03h0.08l2.62-3.31h3.53l-3.38,3.95l3.57,5.55h-3.53l-1.9-3.38l-0.99,1.1v2.28h-3.19
			V63.01z"/>
		<path class="st6" d="M25.89,71.49c0-3.15,2.28-4.98,4.71-4.98s4.71,1.82,4.71,4.98c0,3.15-2.28,4.98-4.71,4.98
			S25.89,74.64,25.89,71.49z M31.96,71.49c0-1.44-0.38-2.36-1.37-2.36s-1.37,0.91-1.37,2.36c0,1.44,0.38,2.36,1.37,2.36
			S31.96,72.93,31.96,71.49z"/>
		<path class="st6" d="M36.54,66.74h2.66l0.23,1.14h0.08c0.76-0.72,1.71-1.37,3-1.37c2.09,0,2.96,1.52,2.96,3.88v5.85h-3.27V70.8
			c0-1.22-0.3-1.52-0.95-1.52c-0.61,0-0.95,0.27-1.44,0.72v6.23h-3.27V66.74z"/>
		<path class="st6" d="M46.63,71.49c0-3.15,2.39-4.98,5.09-4.98c1.14,0,2.05,0.38,2.77,0.99l-1.52,2.09
			c-0.42-0.34-0.72-0.46-1.06-0.46c-1.22,0-1.94,0.91-1.94,2.36c0,1.44,0.8,2.36,1.82,2.36c0.53,0,1.06-0.27,1.52-0.61l1.25,2.13
			c-0.95,0.84-2.17,1.1-3.15,1.1C48.72,76.46,46.63,74.64,46.63,71.49z"/>
		<path class="st6" d="M55.13,71.49c0-3.08,2.24-4.98,4.56-4.98c2.81,0,4.14,2.05,4.14,4.6c0,0.57-0.08,1.14-0.13,1.37h-5.41
			c0.3,1.14,1.14,1.52,2.2,1.52c0.65,0,1.25-0.19,1.94-0.57l1.06,1.94c-1.03,0.72-2.39,1.1-3.46,1.1
			C57.25,76.46,55.13,74.64,55.13,71.49z M61.05,70.35c0-0.72-0.3-1.37-1.29-1.37c-0.72,0-1.33,0.42-1.52,1.37H61.05z"/>
		<path class="st6" d="M65.14,66.74h2.66l0.23,1.14h0.08c0.76-0.72,1.71-1.37,3-1.37c2.09,0,2.96,1.52,2.96,3.88v5.85H70.8V70.8
			c0-1.22-0.3-1.52-0.95-1.52c-0.61,0-0.95,0.27-1.44,0.72v6.23h-3.27V66.74z"/>
		<path class="st6" d="M76.14,72.59v-3.31h-1.25v-2.43l1.44-0.11l0.38-2.47h2.7v2.47h2.17v2.55h-2.17v3.25
			c0,1.04,0.53,1.39,1.14,1.39c0.3,0,0.61-0.08,0.84-0.15l0.49,2.36c-0.49,0.15-1.2,0.34-2.24,0.34
			C77.17,76.46,76.14,74.9,76.14,72.59z"/>
		<path class="st6" d="M82.85,66.74h2.66l0.23,1.63h0.08c0.7-1.29,1.77-1.86,2.7-1.86c0.59,0,0.91,0.08,1.18,0.19l-0.53,2.81
			c-0.34-0.08-0.65-0.15-1.06-0.15c-0.68,0-1.52,0.42-1.98,1.6v5.28h-3.27V66.74z"/>
		<path class="st6" d="M89.93,73.54c0-1.98,1.52-3.08,5.17-3.46c-0.08-0.68-0.49-0.99-1.33-0.99c-0.68,0-1.41,0.27-2.39,0.8
			l-1.14-2.13c1.33-0.8,2.7-1.25,4.18-1.25c2.47,0,3.95,1.33,3.95,4.45v5.28h-2.66l-0.23-0.91H95.4c-0.76,0.68-1.6,1.14-2.62,1.14
			C91,76.46,89.93,75.09,89.93,73.54z M95.1,73.31v-1.29c-1.56,0.23-2.05,0.72-2.05,1.25c0,0.44,0.3,0.68,0.87,0.68
			C94.46,73.95,94.76,73.69,95.1,73.31z"/>
		<path class="st6" d="M99.53,71.49c0-3.15,2.39-4.98,5.09-4.98c1.14,0,2.05,0.38,2.77,0.99l-1.52,2.09
			c-0.42-0.34-0.72-0.46-1.06-0.46c-1.22,0-1.94,0.91-1.94,2.36c0,1.44,0.8,2.36,1.82,2.36c0.53,0,1.06-0.27,1.52-0.61l1.25,2.13
			c-0.95,0.84-2.17,1.1-3.15,1.1C101.62,76.46,99.53,74.64,99.53,71.49z"/>
		<path class="st6" d="M108.33,63.92c0-0.95,0.76-1.63,1.82-1.63c1.06,0,1.82,0.68,1.82,1.63c0,0.95-0.76,1.63-1.82,1.63
			C109.09,65.56,108.33,64.87,108.33,63.92z M108.52,66.74h3.27v9.5h-3.27V66.74z"/>
		<path class="st6" d="M111.35,79.54l0.57-2.39c0.27,0.08,0.46,0.11,0.68,0.11c0.68,0,0.95-0.38,0.95-1.41v-9.12h3.27v9
			c0,2.13-0.84,4.07-3.69,4.07C112.26,79.81,111.76,79.69,111.35,79.54z M113.36,63.92c0-0.95,0.76-1.63,1.82-1.63
			c1.06,0,1.82,0.68,1.82,1.63c0,0.95-0.76,1.63-1.82,1.63C114.12,65.56,113.36,64.87,113.36,63.92z"/>
		<path class="st6" d="M118.47,72.59v-5.85h3.27v5.43c0,1.22,0.3,1.52,0.95,1.52c0.61,0,0.95-0.23,1.37-0.84v-6.12h3.27v9.5h-2.66
			l-0.23-1.25h-0.08c-0.76,0.91-1.63,1.48-2.93,1.48C119.34,76.46,118.47,74.94,118.47,72.59z"/>
		<path class="st6" d="M132.64,63.89h4.52c2.7,0,5.02,0.99,5.02,4.1c0,3.02-2.36,4.33-4.94,4.33h-1.33v3.91h-3.27V63.89z
			 M137.09,69.74c1.29,0,1.9-0.65,1.9-1.75c0-1.1-0.72-1.52-1.98-1.52h-1.1v3.27H137.09z"/>
		<path class="st6" d="M142.96,74.7l1.86-2.24c0.87,0.7,1.98,1.2,2.89,1.2c0.99,0,1.41-0.32,1.41-0.87c0-0.59-0.63-0.78-1.67-1.2
			l-1.54-0.65c-1.33-0.53-2.49-1.65-2.49-3.44c0-2.11,1.9-3.84,4.6-3.84c1.41,0,2.96,0.53,4.1,1.65l-1.63,2.05
			c-0.84-0.59-1.56-0.89-2.47-0.89c-0.8,0-1.29,0.29-1.29,0.84c0,0.59,0.7,0.8,1.82,1.23l1.5,0.59c1.54,0.61,2.41,1.67,2.41,3.38
			c0,2.09-1.75,3.95-4.83,3.95C146.08,76.46,144.29,75.89,142.96,74.7z"/>
		<path class="st6" d="M156.17,63.89h3.95l3.76,12.35h-3.46l-1.41-6c-0.3-1.18-0.61-2.68-0.91-3.91h-0.08
			c-0.27,1.25-0.57,2.74-0.87,3.91l-1.41,6h-3.34L156.17,63.89z M155.1,71.09h6.04v2.53h-6.04V71.09z"/>
		<path class="st6" d="M167.57,72.59v-5.85h3.27v5.43c0,1.22,0.3,1.52,0.95,1.52c0.61,0,0.95-0.23,1.37-0.84v-6.12h3.27v9.5h-2.66
			l-0.23-1.25h-0.08c-0.76,0.91-1.63,1.48-2.93,1.48C168.44,76.46,167.57,74.94,167.57,72.59z"/>
		<path class="st6" d="M181.47,63.01h3.19v7.03h0.08l2.62-3.31h3.53l-3.38,3.95l3.57,5.55h-3.53l-1.9-3.38l-0.99,1.1v2.28h-3.19
			V63.01z"/>
		<path class="st6" d="M191.79,66.74h2.66l0.23,1.63h0.08c0.7-1.29,1.77-1.86,2.7-1.86c0.59,0,0.91,0.08,1.18,0.19l-0.53,2.81
			c-0.34-0.08-0.65-0.15-1.06-0.15c-0.68,0-1.52,0.42-1.98,1.6v5.28h-3.27V66.74z"/>
		<path class="st6" d="M198.38,66.74h3.27l1.03,4.14c0.23,0.95,0.46,1.94,0.68,2.96h0.08c0.23-1.03,0.46-2.01,0.68-2.96l1.03-4.14
			h3.12l-3,9.5h-3.76L198.38,66.74z"/>
		<path class="st6" d="M208.93,63.92c0-0.95,0.76-1.63,1.82-1.63c1.06,0,1.82,0.68,1.82,1.63c0,0.95-0.76,1.63-1.82,1.63
			C209.69,65.56,208.93,64.87,208.93,63.92z M209.12,66.74h3.27v9.5h-3.27V66.74z"/>
	</g>
</g>
<g>
	<g>
		<g>
			<path class="st6" d="M243,26.37c0-4.28,2.44-6.68,6.04-6.68c3.6,0,6.04,2.42,6.04,6.68c0,4.28-2.44,6.8-6.04,6.8
				C245.44,33.17,243,30.65,243,26.37z M251.56,26.37c0-2.36-0.96-3.72-2.52-3.72c-1.56,0-2.52,1.36-2.52,3.72
				c0,2.36,0.96,3.84,2.52,3.84C250.6,30.21,251.56,28.73,251.56,26.37z"/>
			<path class="st6" d="M256.62,22.93h2.8l0.24,0.92h0.08c0.74-0.68,1.72-1.16,2.72-1.16c2.36,0,3.88,2,3.88,5.08
				c0,3.44-2.04,5.4-4.16,5.4c-0.84,0-1.6-0.36-2.24-1l0.12,1.52v2.76h-3.44V22.93z M262.82,27.81c0-1.64-0.48-2.32-1.4-2.32
				c-0.52,0-0.92,0.2-1.36,0.72v3.68c0.4,0.36,0.84,0.48,1.28,0.48C262.14,30.37,262.82,29.73,262.82,27.81z"/>
			<path class="st6" d="M266.92,31.77l1.52-2.12c0.92,0.68,1.74,1,2.44,1c0.72,0,1-0.2,1-0.6c0-0.52-0.92-0.76-1.92-1.16
				c-1.16-0.46-2.52-1.32-2.52-2.96c0-1.96,1.6-3.24,3.96-3.24c1.64,0,2.8,0.66,3.68,1.32l-1.52,2.04
				c-0.72-0.52-1.42-0.84-2.04-0.84c-0.58,0-0.88,0.16-0.88,0.56c0,0.52,0.88,0.72,1.88,1.08c1.2,0.44,2.56,1.2,2.56,3
				c0,1.88-1.48,3.32-4.28,3.32C269.52,33.17,267.96,32.61,266.92,31.77z"/>
			<path class="st6" d="M275.74,27.93c0-3.24,2.36-5.24,4.8-5.24c2.96,0,4.36,2.16,4.36,4.84c0,0.6-0.08,1.2-0.14,1.44h-5.7
				c0.32,1.2,1.2,1.6,2.32,1.6c0.68,0,1.32-0.2,2.04-0.6l1.12,2.04c-1.08,0.76-2.52,1.16-3.64,1.16
				C277.98,33.17,275.74,31.25,275.74,27.93z M281.98,26.73c0-0.76-0.32-1.44-1.36-1.44c-0.76,0-1.4,0.44-1.6,1.44H281.98z"/>
			<path class="st6" d="M285.72,34.57c0-0.82,0.48-1.44,1.4-1.92v-0.08c-0.52-0.36-0.92-0.88-0.92-1.72c0-0.68,0.44-1.4,1.12-1.88
				v-0.08c-0.72-0.48-1.36-1.4-1.36-2.56c0-2.48,2.08-3.64,4.28-3.64c0.56,0,1.12,0.08,1.6,0.24h3.72v2.48h-1.44
				c0.08,0.24,0.16,0.64,0.16,1.04c0,2.36-1.8,3.32-4.04,3.32c-0.32,0-0.68-0.04-1.12-0.14c-0.2,0.18-0.24,0.3-0.24,0.58
				c0,0.44,0.4,0.6,1.4,0.6h1.5c2.5,0,3.94,0.76,3.94,2.6c0,2.16-2.24,3.64-5.8,3.64C287.64,37.05,285.72,36.37,285.72,34.57z
				 M292.44,34.01c0-0.52-0.48-0.6-1.34-0.6h-0.78c-0.8,0-1.16-0.04-1.44-0.12c-0.24,0.24-0.36,0.44-0.36,0.72
				c0,0.64,0.8,0.92,1.96,0.92C291.6,34.93,292.44,34.57,292.44,34.01z M291.32,26.33c0-0.92-0.44-1.36-1.08-1.36
				s-1.08,0.44-1.08,1.36c0,0.96,0.44,1.4,1.08,1.4S291.32,27.29,291.32,26.33z"/>
			<path class="st6" d="M299.64,34.57c0-0.82,0.48-1.44,1.4-1.92v-0.08c-0.52-0.36-0.92-0.88-0.92-1.72c0-0.68,0.44-1.4,1.12-1.88
				v-0.08c-0.72-0.48-1.36-1.4-1.36-2.56c0-2.48,2.08-3.64,4.28-3.64c0.56,0,1.12,0.08,1.6,0.24h3.72v2.48h-1.44
				c0.08,0.24,0.16,0.64,0.16,1.04c0,2.36-1.8,3.32-4.04,3.32c-0.32,0-0.68-0.04-1.12-0.14c-0.2,0.18-0.24,0.3-0.24,0.58
				c0,0.44,0.4,0.6,1.4,0.6h1.5c2.5,0,3.94,0.76,3.94,2.6c0,2.16-2.24,3.64-5.8,3.64C301.56,37.05,299.64,36.37,299.64,34.57z
				 M306.36,34.01c0-0.52-0.48-0.6-1.34-0.6h-0.78c-0.8,0-1.16-0.04-1.44-0.12c-0.24,0.24-0.36,0.44-0.36,0.72
				c0,0.64,0.8,0.92,1.96,0.92C305.52,34.93,306.36,34.57,306.36,34.01z M305.24,26.33c0-0.92-0.44-1.36-1.08-1.36
				s-1.08,0.44-1.08,1.36c0,0.96,0.44,1.4,1.08,1.4S305.24,27.29,305.24,26.33z"/>
			<path class="st6" d="M310.1,27.93c0-3.32,2.4-5.24,4.96-5.24s4.96,1.92,4.96,5.24s-2.4,5.24-4.96,5.24S310.1,31.25,310.1,27.93z
				 M316.5,27.93c0-1.52-0.4-2.48-1.44-2.48c-1.04,0-1.44,0.96-1.44,2.48c0,1.52,0.4,2.48,1.44,2.48
				C316.1,30.41,316.5,29.45,316.5,27.93z"/>
			<path class="st6" d="M320.88,27.93c0-3.28,2.04-5.24,4.08-5.24c1.08,0,1.72,0.4,2.32,1l-0.12-1.44v-3.24h3.44v13.92h-2.8
				l-0.24-0.92h-0.08c-0.68,0.68-1.64,1.16-2.52,1.16C322.48,33.17,320.88,31.17,320.88,27.93z M327.16,29.65v-3.68
				c-0.4-0.36-0.92-0.48-1.36-0.48c-0.72,0-1.4,0.64-1.4,2.4c0,1.8,0.56,2.48,1.48,2.48C326.4,30.37,326.8,30.21,327.16,29.65z"/>
			<path class="st6" d="M332.22,19.97c0-1,0.8-1.72,1.92-1.72c1.12,0,1.92,0.72,1.92,1.72c0,1-0.8,1.72-1.92,1.72
				C333.02,21.69,332.22,20.97,332.22,19.97z M332.42,22.93h3.44v10h-3.44V22.93z"/>
			<path class="st6" d="M337.68,22.93h2.8l0.24,1.2h0.08c0.8-0.76,1.8-1.44,3.16-1.44c2.2,0,3.12,1.6,3.12,4.08v6.16h-3.44v-5.72
				c0-1.28-0.32-1.6-1-1.6c-0.64,0-1,0.28-1.52,0.76v6.56h-3.44V22.93z"/>
			<path class="st6" d="M348.42,30.09c0-2.08,1.6-3.24,5.44-3.64c-0.08-0.72-0.52-1.04-1.4-1.04c-0.72,0-1.48,0.28-2.52,0.84
				l-1.2-2.24c1.4-0.84,2.84-1.32,4.4-1.32c2.6,0,4.16,1.4,4.16,4.68v5.56h-2.8l-0.24-0.96h-0.08c-0.8,0.72-1.68,1.2-2.76,1.2
				C349.54,33.17,348.42,31.73,348.42,30.09z M353.86,29.85v-1.36c-1.64,0.24-2.16,0.76-2.16,1.32c0,0.46,0.32,0.72,0.92,0.72
				C353.18,30.53,353.5,30.25,353.86,29.85z"/>
			<path class="st6" d="M362.54,22.93h2.8l0.24,0.92h0.08c0.74-0.68,1.72-1.16,2.72-1.16c2.36,0,3.88,2,3.88,5.08
				c0,3.44-2.04,5.4-4.16,5.4c-0.84,0-1.6-0.36-2.24-1l0.12,1.52v2.76h-3.44V22.93z M368.74,27.81c0-1.64-0.48-2.32-1.4-2.32
				c-0.52,0-0.92,0.2-1.36,0.72v3.68c0.4,0.36,0.84,0.48,1.28,0.48C368.06,30.37,368.74,29.73,368.74,27.81z"/>
			<path class="st6" d="M373.24,30.09c0-2.08,1.6-3.24,5.44-3.64c-0.08-0.72-0.52-1.04-1.4-1.04c-0.72,0-1.48,0.28-2.52,0.84
				l-1.2-2.24c1.4-0.84,2.84-1.32,4.4-1.32c2.6,0,4.16,1.4,4.16,4.68v5.56h-2.8l-0.24-0.96H379c-0.8,0.72-1.68,1.2-2.76,1.2
				C374.36,33.17,373.24,31.73,373.24,30.09z M378.68,29.85v-1.36c-1.64,0.24-2.16,0.76-2.16,1.32c0,0.46,0.32,0.72,0.92,0.72
				C378,30.53,378.32,30.25,378.68,29.85z"/>
			<path class="st6" d="M383.34,27.93c0-3.32,2.52-5.24,5.36-5.24c1.2,0,2.16,0.4,2.92,1.04l-1.6,2.2
				c-0.44-0.36-0.76-0.48-1.12-0.48c-1.28,0-2.04,0.96-2.04,2.48c0,1.52,0.84,2.48,1.92,2.48c0.56,0,1.12-0.28,1.6-0.64l1.32,2.24
				c-1,0.88-2.28,1.16-3.32,1.16C385.54,33.17,383.34,31.25,383.34,27.93z"/>
			<path class="st6" d="M392.6,19.97c0-1,0.8-1.72,1.92-1.72c1.12,0,1.92,0.72,1.92,1.72c0,1-0.8,1.72-1.92,1.72
				C393.4,21.69,392.6,20.97,392.6,19.97z M392.8,22.93h3.44v10h-3.44V22.93z"/>
			<path class="st6" d="M395.78,36.41l0.6-2.52c0.28,0.08,0.48,0.12,0.72,0.12c0.72,0,1-0.4,1-1.48v-9.6h3.44v9.48
				c0,2.24-0.88,4.28-3.88,4.28C396.74,36.69,396.22,36.57,395.78,36.41z M397.9,19.97c0-1,0.8-1.72,1.92-1.72
				c1.12,0,1.92,0.72,1.92,1.72c0,1-0.8,1.72-1.92,1.72C398.7,21.69,397.9,20.97,397.9,19.97z"/>
			<path class="st6" d="M402.84,27.93c0-3.24,2.36-5.24,4.8-5.24c2.96,0,4.36,2.16,4.36,4.84c0,0.6-0.08,1.2-0.14,1.44h-5.7
				c0.32,1.2,1.2,1.6,2.32,1.6c0.68,0,1.32-0.2,2.04-0.6l1.12,2.04c-1.08,0.76-2.52,1.16-3.64,1.16
				C405.08,33.17,402.84,31.25,402.84,27.93z M409.08,26.73c0-0.76-0.32-1.44-1.36-1.44c-0.76,0-1.4,0.44-1.6,1.44H409.08z"/>
			<path class="st6" d="M413.38,22.93h2.8l0.24,1.2h0.08c0.8-0.76,1.8-1.44,3.16-1.44c2.2,0,3.12,1.6,3.12,4.08v6.16h-3.44v-5.72
				c0-1.28-0.32-1.6-1-1.6c-0.64,0-1,0.28-1.52,0.76v6.56h-3.44V22.93z"/>
			<path class="st6" d="M424.96,29.09v-3.48h-1.32v-2.56l1.52-0.12l0.4-2.6h2.84v2.6h2.28v2.68h-2.28v3.42c0,1.1,0.56,1.46,1.2,1.46
				c0.32,0,0.64-0.08,0.88-0.16l0.52,2.48c-0.52,0.16-1.26,0.36-2.36,0.36C426.04,33.17,424.96,31.53,424.96,29.09z"/>
			<path class="st6" d="M431.62,30.09c0-2.08,1.6-3.24,5.44-3.64c-0.08-0.72-0.52-1.04-1.4-1.04c-0.72,0-1.48,0.28-2.52,0.84
				l-1.2-2.24c1.4-0.84,2.84-1.32,4.4-1.32c2.6,0,4.16,1.4,4.16,4.68v5.56h-2.8l-0.24-0.96h-0.08c-0.8,0.72-1.68,1.2-2.76,1.2
				C432.74,33.17,431.62,31.73,431.62,30.09z M437.06,29.85v-1.36c-1.64,0.24-2.16,0.76-2.16,1.32c0,0.46,0.32,0.72,0.92,0.72
				C436.38,30.53,436.7,30.25,437.06,29.85z"/>
			<path class="st6" d="M445.46,26.65h5.04v2.4h-5.04V26.65z"/>
			<path class="st6" d="M454.82,23.81c0-2.6,1.44-4.12,3.36-4.12s3.36,1.52,3.36,4.12s-1.44,4.16-3.36,4.16
				S454.82,26.41,454.82,23.81z M459.18,23.81c0-1.76-0.48-2.24-1-2.24s-1,0.48-1,2.24s0.48,2.28,1,2.28S459.18,25.57,459.18,23.81z
				 M465.62,19.69h1.92l-6.96,13.48h-1.92L465.62,19.69z M464.62,29.01c0-2.6,1.44-4.12,3.36-4.12s3.36,1.52,3.36,4.12
				s-1.44,4.16-3.36,4.16S464.62,31.61,464.62,29.01z M468.98,29.01c0-1.76-0.48-2.24-1-2.24s-1,0.48-1,2.24s0.48,2.28,1,2.28
				S468.98,30.77,468.98,29.01z"/>
			<path class="st6" d="M475.02,22.93h3.44l1.08,4.36c0.24,1,0.48,2.04,0.72,3.12h0.08c0.24-1.08,0.48-2.12,0.72-3.12l1.08-4.36
				h3.28l-3.16,10h-3.96L475.02,22.93z"/>
			<path class="st6" d="M485.8,27.93c0-3.24,2.36-5.24,4.8-5.24c2.96,0,4.36,2.16,4.36,4.84c0,0.6-0.08,1.2-0.14,1.44h-5.7
				c0.32,1.2,1.2,1.6,2.32,1.6c0.68,0,1.32-0.2,2.04-0.6l1.12,2.04c-1.08,0.76-2.52,1.16-3.64,1.16
				C488.04,33.17,485.8,31.25,485.8,27.93z M492.04,26.73c0-0.76-0.32-1.44-1.36-1.44c-0.76,0-1.4,0.44-1.6,1.44H492.04z"/>
			<path class="st6" d="M496.33,22.93h2.8l0.24,1.72h0.08c0.74-1.36,1.86-1.96,2.84-1.96c0.62,0,0.96,0.08,1.24,0.2l-0.56,2.96
				c-0.36-0.08-0.68-0.16-1.12-0.16c-0.72,0-1.6,0.44-2.08,1.68v5.56h-3.44V22.93z"/>
			<path class="st6" d="M503.67,27.93c0-3.32,2.4-5.24,4.96-5.24s4.96,1.92,4.96,5.24s-2.4,5.24-4.96,5.24
				S503.67,31.25,503.67,27.93z M510.08,27.93c0-1.52-0.4-2.48-1.44-2.48c-1.04,0-1.44,0.96-1.44,2.48c0,1.52,0.4,2.48,1.44,2.48
				C509.68,30.41,510.08,29.45,510.08,27.93z"/>
			<path class="st6" d="M513.98,22.93h3.44l1.08,4.36c0.24,1,0.48,2.04,0.72,3.12h0.08c0.24-1.08,0.48-2.12,0.72-3.12l1.08-4.36
				h3.28l-3.16,10h-3.96L513.98,22.93z"/>
			<path class="st6" d="M524.87,30.09c0-2.08,1.6-3.24,5.44-3.64c-0.08-0.72-0.52-1.04-1.4-1.04c-0.72,0-1.48,0.28-2.52,0.84
				l-1.2-2.24c1.4-0.84,2.84-1.32,4.4-1.32c2.6,0,4.16,1.4,4.16,4.68v5.56h-2.8l-0.24-0.96h-0.08c-0.8,0.72-1.68,1.2-2.76,1.2
				C526,33.17,524.87,31.73,524.87,30.09z M530.32,29.85v-1.36c-1.64,0.24-2.16,0.76-2.16,1.32c0,0.46,0.32,0.72,0.92,0.72
				C529.64,30.53,529.96,30.25,530.32,29.85z"/>
			<path class="st6" d="M535.93,29.09v-3.48h-1.32v-2.56l1.52-0.12l0.4-2.6h2.84v2.6h2.28v2.68h-2.28v3.42c0,1.1,0.56,1.46,1.2,1.46
				c0.32,0,0.64-0.08,0.88-0.16l0.52,2.48c-0.52,0.16-1.26,0.36-2.36,0.36C537.02,33.17,535.93,31.53,535.93,29.09z"/>
			<path class="st6" d="M542.99,22.93h2.8l0.24,1.2h0.08c0.8-0.76,1.8-1.44,3.16-1.44c2.2,0,3.12,1.6,3.12,4.08v6.16h-3.44v-5.72
				c0-1.28-0.32-1.6-1-1.6c-0.64,0-1,0.28-1.52,0.76v6.56h-3.44V22.93z"/>
			<path class="st6" d="M553.61,27.93c0-3.32,2.4-5.24,4.96-5.24s4.96,1.92,4.96,5.24s-2.4,5.24-4.96,5.24
				S553.61,31.25,553.61,27.93z M560.02,27.93c0-1.52-0.4-2.48-1.44-2.48c-1.04,0-1.44,0.96-1.44,2.48c0,1.52,0.4,2.48,1.44,2.48
				C559.62,30.41,560.02,29.45,560.02,27.93z"/>
			<path class="st6" d="M564.31,27.93c0-3.32,2.52-5.24,5.36-5.24c1.2,0,2.16,0.4,2.92,1.04l-1.6,2.2
				c-0.44-0.36-0.76-0.48-1.12-0.48c-1.28,0-2.04,0.96-2.04,2.48c0,1.52,0.84,2.48,1.92,2.48c0.56,0,1.12-0.28,1.6-0.64l1.32,2.24
				c-1,0.88-2.28,1.16-3.32,1.16C566.52,33.17,564.31,31.25,564.31,27.93z M568.3,19.81l3.16-3.76l2.32,2.28l-3.8,3.16L568.3,19.81z
				"/>
			<path class="st6" d="M573.25,27.93c0-3.24,2.36-5.24,4.8-5.24c2.96,0,4.36,2.16,4.36,4.84c0,0.6-0.08,1.2-0.14,1.44h-5.7
				c0.32,1.2,1.2,1.6,2.32,1.6c0.68,0,1.32-0.2,2.04-0.6l1.12,2.04c-1.08,0.76-2.52,1.16-3.64,1.16
				C575.49,33.17,573.25,31.25,573.25,27.93z M579.5,26.73c0-0.76-0.32-1.44-1.36-1.44c-0.76,0-1.4,0.44-1.6,1.44H579.5z"/>
			<path class="st6" d="M587.29,22.93h2.8l0.24,0.92h0.08c0.74-0.68,1.72-1.16,2.72-1.16c2.36,0,3.88,2,3.88,5.08
				c0,3.44-2.04,5.4-4.16,5.4c-0.84,0-1.6-0.36-2.24-1l0.12,1.52v2.76h-3.44V22.93z M593.49,27.81c0-1.64-0.48-2.32-1.4-2.32
				c-0.52,0-0.92,0.2-1.36,0.72v3.68c0.4,0.36,0.84,0.48,1.28,0.48C592.81,30.37,593.49,29.73,593.49,27.81z"/>
			<path class="st6" d="M597.87,27.93c0-3.32,2.4-5.24,4.96-5.24s4.96,1.92,4.96,5.24s-2.4,5.24-4.96,5.24
				S597.87,31.25,597.87,27.93z M604.27,27.93c0-1.52-0.4-2.48-1.44-2.48c-1.04,0-1.44,0.96-1.44,2.48c0,1.52,0.4,2.48,1.44,2.48
				C603.87,30.41,604.27,29.45,604.27,27.93z"/>
			<path class="st6" d="M608.73,31.09l3.8-5.48h-3.36v-2.68h7.64v1.84l-3.8,5.48h3.92v2.68h-8.2V31.09z"/>
			<path class="st6" d="M617.87,19.97c0-1,0.8-1.72,1.92-1.72c1.12,0,1.92,0.72,1.92,1.72c0,1-0.8,1.72-1.92,1.72
				C618.67,21.69,617.87,20.97,617.87,19.97z M618.07,22.93h3.44v10h-3.44V22.93z"/>
			<path class="st6" d="M623.77,29.09v-3.48h-1.32v-2.56l1.52-0.12l0.4-2.6h2.84v2.6h2.28v2.68h-2.28v3.42c0,1.1,0.56,1.46,1.2,1.46
				c0.32,0,0.64-0.08,0.88-0.16l0.52,2.48c-0.52,0.16-1.26,0.36-2.36,0.36C624.85,33.17,623.77,31.53,623.77,29.09z"/>
			<path class="st6" d="M630.63,19.97c0-1,0.8-1.72,1.92-1.72c1.12,0,1.92,0.72,1.92,1.72c0,1-0.8,1.72-1.92,1.72
				C631.43,21.69,630.63,20.97,630.63,19.97z M630.83,22.93h3.44v10h-3.44V22.93z"/>
			<path class="st6" d="M635.17,22.93h3.44l1.08,4.36c0.24,1,0.48,2.04,0.72,3.12h0.08c0.24-1.08,0.48-2.12,0.72-3.12l1.08-4.36
				h3.28l-3.16,10h-3.96L635.17,22.93z"/>
			<path class="st6" d="M646.47,22.93h2.8l0.24,1.2h0.08c0.8-0.76,1.8-1.44,3.16-1.44c2.2,0,3.12,1.6,3.12,4.08v6.16h-3.44v-5.72
				c0-1.28-0.32-1.6-1-1.6c-0.64,0-1,0.28-1.52,0.76v6.56h-3.44V22.93z"/>
			<path class="st6" d="M657.09,27.93c0-3.24,2.36-5.24,4.8-5.24c2.96,0,4.36,2.16,4.36,4.84c0,0.6-0.08,1.2-0.14,1.44h-5.7
				c0.32,1.2,1.2,1.6,2.32,1.6c0.68,0,1.32-0.2,2.04-0.6l1.12,2.04c-1.08,0.76-2.52,1.16-3.64,1.16
				C659.33,33.17,657.09,31.25,657.09,27.93z M663.33,26.73c0-0.76-0.32-1.44-1.36-1.44c-0.76,0-1.4,0.44-1.6,1.44H663.33z"/>
			<path class="st6" d="M674.17,31.85h-0.08l-0.28,1.08h-2.68V19.01h3.44v3.24l-0.08,1.44c0.7-0.64,1.58-1,2.46-1
				c2.36,0,3.9,2,3.9,5.06c0,3.46-2.04,5.42-4.16,5.42C675.81,33.17,674.93,32.73,674.17,31.85z M677.33,27.81
				c0-1.64-0.48-2.32-1.4-2.32c-0.52,0-0.92,0.2-1.36,0.72v3.68c0.4,0.36,0.84,0.48,1.28,0.48
				C676.65,30.37,677.33,29.73,677.33,27.81z"/>
			<path class="st6" d="M682.03,19.97c0-1,0.8-1.72,1.92-1.72c1.12,0,1.92,0.72,1.92,1.72c0,1-0.8,1.72-1.92,1.72
				C682.83,21.69,682.03,20.97,682.03,19.97z M682.23,22.93h3.44v10h-3.44V22.93z"/>
			<path class="st6" d="M686.97,27.93c0-3.32,2.4-5.24,4.96-5.24s4.96,1.92,4.96,5.24s-2.4,5.24-4.96,5.24
				S686.97,31.25,686.97,27.93z M693.37,27.93c0-1.52-0.4-2.48-1.44-2.48c-1.04,0-1.44,0.96-1.44,2.48c0,1.52,0.4,2.48,1.44,2.48
				C692.97,30.41,693.37,29.45,693.37,27.93z"/>
			<path class="st6" d="M698.19,22.93h2.8l0.24,0.92h0.08c0.74-0.68,1.72-1.16,2.72-1.16c2.36,0,3.88,2,3.88,5.08
				c0,3.44-2.04,5.4-4.16,5.4c-0.84,0-1.6-0.36-2.24-1l0.12,1.52v2.76h-3.44V22.93z M704.39,27.81c0-1.64-0.48-2.32-1.4-2.32
				c-0.52,0-0.92,0.2-1.36,0.72v3.68c0.4,0.36,0.84,0.48,1.28,0.48C703.71,30.37,704.39,29.73,704.39,27.81z"/>
			<path class="st6" d="M708.49,31.77l1.52-2.12c0.92,0.68,1.74,1,2.44,1c0.72,0,1-0.2,1-0.6c0-0.52-0.92-0.76-1.92-1.16
				c-1.16-0.46-2.52-1.32-2.52-2.96c0-1.96,1.6-3.24,3.96-3.24c1.64,0,2.8,0.66,3.68,1.32l-1.52,2.04
				c-0.72-0.52-1.42-0.84-2.04-0.84c-0.58,0-0.88,0.16-0.88,0.56c0,0.52,0.88,0.72,1.88,1.08c1.2,0.44,2.56,1.2,2.56,3
				c0,1.88-1.48,3.32-4.28,3.32C711.09,33.17,709.53,32.61,708.49,31.77z"/>
			<path class="st6" d="M717.63,19.97c0-1,0.8-1.72,1.92-1.72c1.12,0,1.92,0.72,1.92,1.72c0,1-0.8,1.72-1.92,1.72
				C718.43,21.69,717.63,20.97,717.63,19.97z M717.83,22.93h3.44v10h-3.44V22.93z"/>
			<path class="st6" d="M720.81,36.41l0.6-2.52c0.28,0.08,0.48,0.12,0.72,0.12c0.72,0,1-0.4,1-1.48v-9.6h3.44v9.48
				c0,2.24-0.88,4.28-3.88,4.28C721.77,36.69,721.25,36.57,720.81,36.41z M722.93,19.97c0-1,0.8-1.72,1.92-1.72
				c1.12,0,1.92,0.72,1.92,1.72c0,1-0.8,1.72-1.92,1.72C723.73,21.69,722.93,20.97,722.93,19.97z"/>
			<path class="st6" d="M727.87,27.93c0-3.24,2.36-5.24,4.8-5.24c2.96,0,4.36,2.16,4.36,4.84c0,0.6-0.08,1.2-0.14,1.44h-5.7
				c0.32,1.2,1.2,1.6,2.32,1.6c0.68,0,1.32-0.2,2.04-0.6l1.12,2.04c-1.08,0.76-2.52,1.16-3.64,1.16
				C730.11,33.17,727.87,31.25,727.87,27.93z M734.11,26.73c0-0.76-0.32-1.44-1.36-1.44c-0.76,0-1.4,0.44-1.6,1.44H734.11z"/>
			<path class="st6" d="M741.91,22.93h2.8l0.24,1.2h0.08c0.8-0.76,1.8-1.44,3.16-1.44c2.2,0,3.12,1.6,3.12,4.08v6.16h-3.44v-5.72
				c0-1.28-0.32-1.6-1-1.6c-0.64,0-1,0.28-1.52,0.76v6.56h-3.44V22.93z"/>
			<path class="st6" d="M752.65,30.09c0-2.08,1.6-3.24,5.44-3.64c-0.08-0.72-0.52-1.04-1.4-1.04c-0.72,0-1.48,0.28-2.52,0.84
				l-1.2-2.24c1.4-0.84,2.84-1.32,4.4-1.32c2.6,0,4.16,1.4,4.16,4.68v5.56h-2.8l-0.24-0.96h-0.08c-0.8,0.72-1.68,1.2-2.76,1.2
				C753.77,33.17,752.65,31.73,752.65,30.09z M758.09,29.85v-1.36c-1.64,0.24-2.16,0.76-2.16,1.32c0,0.46,0.32,0.72,0.92,0.72
				C757.41,30.53,757.73,30.25,758.09,29.85z"/>
			<path class="st6" d="M766.77,19.01h3.36v7.4h0.08l2.76-3.48h3.72l-3.56,4.16l3.76,5.84h-3.72l-2-3.56l-1.04,1.16v2.4h-3.36V19.01
				z"/>
			<path class="st6" d="M777.23,30.09c0-2.08,1.6-3.24,5.44-3.64c-0.08-0.72-0.52-1.04-1.4-1.04c-0.72,0-1.48,0.28-2.52,0.84
				l-1.2-2.24c1.4-0.84,2.84-1.32,4.4-1.32c2.6,0,4.16,1.4,4.16,4.68v5.56h-2.8l-0.24-0.96h-0.08c-0.8,0.72-1.68,1.2-2.76,1.2
				C778.35,33.17,777.23,31.73,777.23,30.09z M782.67,29.85v-1.36c-1.64,0.24-2.16,0.76-2.16,1.32c0,0.46,0.32,0.72,0.92,0.72
				C781.99,30.53,782.31,30.25,782.67,29.85z"/>
			<path class="st6" d="M787.85,22.93h2.8l0.24,1.2h0.08c0.8-0.76,1.8-1.44,3.16-1.44c2.2,0,3.12,1.6,3.12,4.08v6.16h-3.44v-5.72
				c0-1.28-0.32-1.6-1-1.6c-0.64,0-1,0.28-1.52,0.76v6.56h-3.44V22.93z"/>
			<path class="st6" d="M798.47,27.93c0-3.32,2.52-5.24,5.36-5.24c1.2,0,2.16,0.4,2.92,1.04l-1.6,2.2
				c-0.44-0.36-0.76-0.48-1.12-0.48c-1.28,0-2.04,0.96-2.04,2.48c0,1.52,0.84,2.48,1.92,2.48c0.56,0,1.12-0.28,1.6-0.64l1.32,2.24
				c-1,0.88-2.28,1.16-3.32,1.16C800.67,33.17,798.47,31.25,798.47,27.93z"/>
			<path class="st6" d="M807.41,27.93c0-3.24,2.36-5.24,4.8-5.24c2.96,0,4.36,2.16,4.36,4.84c0,0.6-0.08,1.2-0.14,1.44h-5.7
				c0.32,1.2,1.2,1.6,2.32,1.6c0.68,0,1.32-0.2,2.04-0.6l1.12,2.04c-1.08,0.76-2.52,1.16-3.64,1.16
				C809.65,33.17,807.41,31.25,807.41,27.93z M813.65,26.73c0-0.76-0.32-1.44-1.36-1.44c-0.76,0-1.4,0.44-1.6,1.44H813.65z"/>
			<path class="st6" d="M817.95,22.93h2.8l0.24,1.72h0.08c0.74-1.36,1.86-1.96,2.84-1.96c0.62,0,0.96,0.08,1.24,0.2l-0.56,2.96
				c-0.36-0.08-0.68-0.16-1.12-0.16c-0.72,0-1.6,0.44-2.08,1.68v5.56h-3.44V22.93z"/>
			<path class="st6" d="M829.31,22.93h2.8l0.24,0.92h0.08c0.74-0.68,1.72-1.16,2.72-1.16c2.36,0,3.88,2,3.88,5.08
				c0,3.44-2.04,5.4-4.16,5.4c-0.84,0-1.6-0.36-2.24-1l0.12,1.52v2.76h-3.44V22.93z M835.51,27.81c0-1.64-0.48-2.32-1.4-2.32
				c-0.52,0-0.92,0.2-1.36,0.72v3.68c0.4,0.36,0.84,0.48,1.28,0.48C834.83,30.37,835.51,29.73,835.51,27.81z"/>
			<path class="st6" d="M840.41,22.93h2.8l0.24,1.72h0.08c0.74-1.36,1.86-1.96,2.84-1.96c0.62,0,0.96,0.08,1.24,0.2l-0.56,2.96
				c-0.36-0.08-0.68-0.16-1.12-0.16c-0.72,0-1.6,0.44-2.08,1.68v5.56h-3.44V22.93z"/>
			<path class="st6" d="M847.75,27.93c0-3.32,2.4-5.24,4.96-5.24s4.96,1.92,4.96,5.24s-2.4,5.24-4.96,5.24
				S847.75,31.25,847.75,27.93z M854.15,27.93c0-1.52-0.4-2.48-1.44-2.48c-1.04,0-1.44,0.96-1.44,2.48c0,1.52,0.4,2.48,1.44,2.48
				C853.75,30.41,854.15,29.45,854.15,27.93z"/>
			<path class="st6" d="M858.17,31.77l1.52-2.12c0.92,0.68,1.74,1,2.44,1c0.72,0,1-0.2,1-0.6c0-0.52-0.92-0.76-1.92-1.16
				c-1.16-0.46-2.52-1.32-2.52-2.96c0-1.96,1.6-3.24,3.96-3.24c1.64,0,2.8,0.66,3.68,1.32l-1.52,2.04
				c-0.72-0.52-1.42-0.84-2.04-0.84c-0.58,0-0.88,0.16-0.88,0.56c0,0.52,0.88,0.72,1.88,1.08c1.2,0.44,2.56,1.2,2.56,3
				c0,1.88-1.48,3.32-4.28,3.32C860.77,33.17,859.21,32.61,858.17,31.77z"/>
			<path class="st6" d="M867.95,29.09v-3.48h-1.32v-2.56l1.52-0.12l0.4-2.6h2.84v2.6h2.28v2.68h-2.28v3.42c0,1.1,0.56,1.46,1.2,1.46
				c0.32,0,0.64-0.08,0.88-0.16l0.52,2.48c-0.52,0.16-1.26,0.36-2.36,0.36C869.03,33.17,867.95,31.53,867.95,29.09z"/>
			<path class="st6" d="M874.61,30.09c0-2.08,1.6-3.24,5.44-3.64c-0.08-0.72-0.52-1.04-1.4-1.04c-0.72,0-1.48,0.28-2.52,0.84
				l-1.2-2.24c1.4-0.84,2.84-1.32,4.4-1.32c2.6,0,4.16,1.4,4.16,4.68v5.56h-2.8l-0.24-0.96h-0.08c-0.8,0.72-1.68,1.2-2.76,1.2
				C875.73,33.17,874.61,31.73,874.61,30.09z M880.05,29.85v-1.36c-1.64,0.24-2.16,0.76-2.16,1.32c0,0.46,0.32,0.72,0.92,0.72
				C879.37,30.53,879.69,30.25,880.05,29.85z"/>
			<path class="st6" d="M885.67,29.09v-3.48h-1.32v-2.56l1.52-0.12l0.4-2.6h2.84v2.6h2.28v2.68h-2.28v3.42c0,1.1,0.56,1.46,1.2,1.46
				c0.32,0,0.64-0.08,0.88-0.16l0.52,2.48c-0.52,0.16-1.26,0.36-2.36,0.36C886.75,33.17,885.67,31.53,885.67,29.09z"/>
			<path class="st6" d="M892.21,27.93c0-3.24,2.36-5.24,4.8-5.24c2.96,0,4.36,2.16,4.36,4.84c0,0.6-0.08,1.2-0.14,1.44h-5.7
				c0.32,1.2,1.2,1.6,2.32,1.6c0.68,0,1.32-0.2,2.04-0.6l1.12,2.04c-1.08,0.76-2.52,1.16-3.64,1.16
				C894.45,33.17,892.21,31.25,892.21,27.93z M898.45,26.73c0-0.76-0.32-1.44-1.36-1.44c-0.76,0-1.4,0.44-1.6,1.44H898.45z"/>
		</g>
	</g>
</g>
<g>
	<g>
		<g>
			<path class="st6" d="M294.72,79.41l1.52-2.16c0.76,0.68,1.64,1.2,2.56,1.2c1.2,0,1.88-0.52,1.88-1.64c0-1.08-0.72-1.64-1.72-1.64
				c-0.68,0-1,0.12-1.76,0.6l-1.48-0.96l0.32-6.52h7.52v2.88H299l-0.16,1.84c0.44-0.16,0.78-0.2,1.2-0.2c2.2,0,4.08,1.24,4.08,3.92
				c0,2.84-2.22,4.48-4.8,4.48C297.24,81.21,295.76,80.45,294.72,79.41z"/>
			<path class="st6" d="M305.26,74.57c0-4.34,1.92-6.52,4.72-6.52c2.8,0,4.72,2.2,4.72,6.52c0,4.34-1.92,6.64-4.72,6.64
				C307.18,81.21,305.26,78.91,305.26,74.57z M311.46,74.57c0-3.36-0.68-3.88-1.48-3.88c-0.8,0-1.48,0.52-1.48,3.88s0.68,4,1.48,4
				C310.78,78.57,311.46,77.93,311.46,74.57z"/>
			<path class="st6" d="M315.76,74.69h5.04v2.4h-5.04V74.69z"/>
			<path class="st6" d="M321.62,79.41l1.52-2.16c0.76,0.68,1.64,1.2,2.56,1.2c1.2,0,1.88-0.52,1.88-1.64c0-1.08-0.72-1.64-1.72-1.64
				c-0.68,0-1,0.12-1.76,0.6l-1.48-0.96l0.32-6.52h7.52v2.88h-4.56l-0.16,1.84c0.44-0.16,0.78-0.2,1.2-0.2
				c2.2,0,4.08,1.24,4.08,3.92c0,2.84-2.22,4.48-4.8,4.48C324.14,81.21,322.66,80.45,321.62,79.41z"/>
			<path class="st6" d="M332.28,79.61l1.8-2.04c0.4,0.44,1.2,0.88,1.92,0.88c1.36,0,2.36-1,2.36-4.04c0-3.16-0.98-3.8-1.76-3.8
				c-0.72,0-1.36,0.42-1.36,1.76c0,1.22,0.68,1.52,1.4,1.52c0.6,0,1.22-0.32,1.68-1.2l0.16,2.16c-0.6,0.92-1.78,1.44-2.52,1.44
				c-2.16,0-3.84-1.2-3.84-3.92c0-2.72,2-4.32,4.4-4.32c2.44,0,4.96,1.76,4.96,6.36s-2.52,6.8-5.24,6.8
				C334.44,81.21,333.12,80.45,332.28,79.61z"/>
			<path class="st6" d="M345.88,82.61c0-0.82,0.48-1.44,1.4-1.92v-0.08c-0.52-0.36-0.92-0.88-0.92-1.72c0-0.68,0.44-1.4,1.12-1.88
				v-0.08c-0.72-0.48-1.36-1.4-1.36-2.56c0-2.48,2.08-3.64,4.28-3.64c0.56,0,1.12,0.08,1.6,0.24h3.72v2.48h-1.44
				c0.08,0.24,0.16,0.64,0.16,1.04c0,2.36-1.8,3.32-4.04,3.32c-0.32,0-0.68-0.04-1.12-0.14c-0.2,0.18-0.24,0.3-0.24,0.58
				c0,0.44,0.4,0.6,1.4,0.6h1.5c2.5,0,3.94,0.76,3.94,2.6c0,2.16-2.24,3.64-5.8,3.64C347.8,85.1,345.88,84.42,345.88,82.61z
				 M352.6,82.05c0-0.52-0.48-0.6-1.34-0.6h-0.78c-0.8,0-1.16-0.04-1.44-0.12c-0.24,0.24-0.36,0.44-0.36,0.72
				c0,0.64,0.8,0.92,1.96,0.92C351.76,82.98,352.6,82.61,352.6,82.05z M351.48,74.37c0-0.92-0.44-1.36-1.08-1.36
				s-1.08,0.44-1.08,1.36c0,0.96,0.44,1.4,1.08,1.4S351.48,75.33,351.48,74.37z"/>
			<path class="st6" d="M356.34,75.97c0-3.32,2.4-5.24,4.96-5.24s4.96,1.92,4.96,5.24s-2.4,5.24-4.96,5.24
				S356.34,79.29,356.34,75.97z M362.74,75.97c0-1.52-0.4-2.48-1.44-2.48c-1.04,0-1.44,0.96-1.44,2.48c0,1.52,0.4,2.48,1.44,2.48
				C362.34,78.45,362.74,77.49,362.74,75.97z"/>
			<path class="st6" d="M367.12,75.97c0-3.28,2.04-5.24,4.08-5.24c1.08,0,1.72,0.4,2.32,1l-0.12-1.44v-3.24h3.44v13.92h-2.8
				l-0.24-0.92h-0.08c-0.68,0.68-1.64,1.16-2.52,1.16C368.72,81.21,367.12,79.21,367.12,75.97z M373.4,77.69v-3.68
				c-0.4-0.36-0.92-0.48-1.36-0.48c-0.72,0-1.4,0.64-1.4,2.4c0,1.8,0.56,2.48,1.48,2.48C372.64,78.41,373.04,78.25,373.4,77.69z"/>
			<path class="st6" d="M378.7,79.13c0-1.16,0.84-2.08,2-2.08s2,0.92,2,2.08s-0.84,2.08-2,2.08S378.7,80.29,378.7,79.13z"/>
		</g>
	</g>
</g>
<g>
	<g>
		<g>
			<path class="st6" d="M526.05,74.85c0-4.6,2.52-6.8,5.24-6.8c1.8,0,3.12,0.76,3.96,1.6l-1.8,2.04c-0.4-0.44-1.2-0.88-1.92-0.88
				c-1.34,0-2.36,1-2.36,4.04c0,3.16,0.98,3.8,1.76,3.8c0.72,0,1.36-0.42,1.36-1.76c0-1.22-0.68-1.52-1.4-1.52
				c-0.6,0-1.22,0.32-1.68,1.2l-0.16-2.16c0.6-0.92,1.78-1.44,2.52-1.44c2.16,0,3.84,1.2,3.84,3.92c0,2.72-2,4.32-4.4,4.32
				C528.57,81.21,526.05,79.45,526.05,74.85z"/>
			<path class="st6" d="M536.27,74.57c0-4.34,1.92-6.52,4.72-6.52c2.8,0,4.72,2.2,4.72,6.52c0,4.34-1.92,6.64-4.72,6.64
				C538.19,81.21,536.27,78.91,536.27,74.57z M542.48,74.57c0-3.36-0.68-3.88-1.48-3.88c-0.8,0-1.48,0.52-1.48,3.88s0.68,4,1.48,4
				C541.79,78.57,542.48,77.93,542.48,74.57z"/>
			<path class="st6" d="M546.77,74.69h5.04v2.4h-5.04V74.69z"/>
			<path class="st6" d="M552.95,74.85c0-4.6,2.52-6.8,5.24-6.8c1.8,0,3.12,0.76,3.96,1.6l-1.8,2.04c-0.4-0.44-1.2-0.88-1.92-0.88
				c-1.34,0-2.36,1-2.36,4.04c0,3.16,0.98,3.8,1.76,3.8c0.72,0,1.36-0.42,1.36-1.76c0-1.22-0.68-1.52-1.4-1.52
				c-0.6,0-1.22,0.32-1.68,1.2l-0.16-2.16c0.6-0.92,1.78-1.44,2.52-1.44c2.16,0,3.84,1.2,3.84,3.92c0,2.72-2,4.32-4.4,4.32
				C555.47,81.21,552.95,79.45,552.95,74.85z"/>
			<path class="st6" d="M563.29,79.61l1.8-2.04c0.4,0.44,1.2,0.88,1.92,0.88c1.36,0,2.36-1,2.36-4.04c0-3.16-0.98-3.8-1.76-3.8
				c-0.72,0-1.36,0.42-1.36,1.76c0,1.22,0.68,1.52,1.4,1.52c0.6,0,1.22-0.32,1.68-1.2l0.16,2.16c-0.6,0.92-1.78,1.44-2.52,1.44
				c-2.16,0-3.84-1.2-3.84-3.92c0-2.72,2-4.32,4.4-4.32c2.44,0,4.96,1.76,4.96,6.36s-2.52,6.8-5.24,6.8
				C565.45,81.21,564.13,80.45,563.29,79.61z"/>
			<path class="st6" d="M576.89,82.61c0-0.82,0.48-1.44,1.4-1.92v-0.08c-0.52-0.36-0.92-0.88-0.92-1.72c0-0.68,0.44-1.4,1.12-1.88
				v-0.08c-0.72-0.48-1.36-1.4-1.36-2.56c0-2.48,2.08-3.64,4.28-3.64c0.56,0,1.12,0.08,1.6,0.24h3.72v2.48h-1.44
				c0.08,0.24,0.16,0.64,0.16,1.04c0,2.36-1.8,3.32-4.04,3.32c-0.32,0-0.68-0.04-1.12-0.14c-0.2,0.18-0.24,0.3-0.24,0.58
				c0,0.44,0.4,0.6,1.4,0.6h1.5c2.5,0,3.94,0.76,3.94,2.6c0,2.16-2.24,3.64-5.8,3.64C578.81,85.1,576.89,84.42,576.89,82.61z
				 M583.61,82.05c0-0.52-0.48-0.6-1.34-0.6h-0.78c-0.8,0-1.16-0.04-1.44-0.12c-0.24,0.24-0.36,0.44-0.36,0.72
				c0,0.64,0.8,0.92,1.96,0.92C582.77,82.98,583.61,82.61,583.61,82.05z M582.49,74.37c0-0.92-0.44-1.36-1.08-1.36
				s-1.08,0.44-1.08,1.36c0,0.96,0.44,1.4,1.08,1.4S582.49,75.33,582.49,74.37z"/>
			<path class="st6" d="M587.35,75.97c0-3.32,2.4-5.24,4.96-5.24s4.96,1.92,4.96,5.24s-2.4,5.24-4.96,5.24
				S587.35,79.29,587.35,75.97z M593.75,75.97c0-1.52-0.4-2.48-1.44-2.48c-1.04,0-1.44,0.96-1.44,2.48c0,1.52,0.4,2.48,1.44,2.48
				C593.35,78.45,593.75,77.49,593.75,75.97z"/>
			<path class="st6" d="M598.13,75.97c0-3.28,2.04-5.24,4.08-5.24c1.08,0,1.72,0.4,2.32,1l-0.12-1.44v-3.24h3.44v13.92h-2.8
				l-0.24-0.92h-0.08c-0.68,0.68-1.64,1.16-2.52,1.16C599.73,81.21,598.13,79.21,598.13,75.97z M604.41,77.69v-3.68
				c-0.4-0.36-0.92-0.48-1.36-0.48c-0.72,0-1.4,0.64-1.4,2.4c0,1.8,0.56,2.48,1.48,2.48C603.65,78.41,604.05,78.25,604.41,77.69z"/>
			<path class="st6" d="M609.71,79.13c0-1.16,0.84-2.08,2-2.08s2,0.92,2,2.08s-0.84,2.08-2,2.08S609.71,80.29,609.71,79.13z"/>
		</g>
	</g>
</g>
<g>
	<g>
		<g>
			<path class="st6" d="M764.5,76.29l3.24-1l2.72-0.92v-0.08l-2.72-0.92l-3.24-1v-2.8l9.44,3.6v2.32l-9.44,3.6V76.29z"/>
			<path class="st6" d="M780.44,71.17H775v-2.88h9.08v2.12c-2.92,3.42-3.24,5.62-3.48,10.56h-3.44
				C777.4,76.97,778.08,74.43,780.44,71.17z"/>
			<path class="st6" d="M785.1,74.57c0-4.34,1.92-6.52,4.72-6.52c2.8,0,4.72,2.2,4.72,6.52c0,4.34-1.92,6.64-4.72,6.64
				C787.02,81.21,785.1,78.91,785.1,74.57z M791.3,74.57c0-3.36-0.68-3.88-1.48-3.88c-0.8,0-1.48,0.52-1.48,3.88s0.68,4,1.48,4
				C790.62,78.57,791.3,77.93,791.3,74.57z"/>
			<path class="st6" d="M798.82,82.61c0-0.82,0.48-1.44,1.4-1.92v-0.08c-0.52-0.36-0.92-0.88-0.92-1.72c0-0.68,0.44-1.4,1.12-1.88
				v-0.08c-0.72-0.48-1.36-1.4-1.36-2.56c0-2.48,2.08-3.64,4.28-3.64c0.56,0,1.12,0.08,1.6,0.24h3.72v2.48h-1.44
				c0.08,0.24,0.16,0.64,0.16,1.04c0,2.36-1.8,3.32-4.04,3.32c-0.32,0-0.68-0.04-1.12-0.14c-0.2,0.18-0.24,0.3-0.24,0.58
				c0,0.44,0.4,0.6,1.4,0.6h1.5c2.5,0,3.94,0.76,3.94,2.6c0,2.16-2.24,3.64-5.8,3.64C800.74,85.1,798.82,84.42,798.82,82.61z
				 M805.54,82.05c0-0.52-0.48-0.6-1.34-0.6h-0.78c-0.8,0-1.16-0.04-1.44-0.12c-0.24,0.24-0.36,0.44-0.36,0.72
				c0,0.64,0.8,0.92,1.96,0.92C804.7,82.98,805.54,82.61,805.54,82.05z M804.42,74.37c0-0.92-0.44-1.36-1.08-1.36
				s-1.08,0.44-1.08,1.36c0,0.96,0.44,1.4,1.08,1.4S804.42,75.33,804.42,74.37z"/>
			<path class="st6" d="M809.28,75.97c0-3.32,2.4-5.24,4.96-5.24s4.96,1.92,4.96,5.24s-2.4,5.24-4.96,5.24
				S809.28,79.29,809.28,75.97z M815.68,75.97c0-1.52-0.4-2.48-1.44-2.48c-1.04,0-1.44,0.96-1.44,2.48c0,1.52,0.4,2.48,1.44,2.48
				C815.28,78.45,815.68,77.49,815.68,75.97z"/>
			<path class="st6" d="M820.06,75.97c0-3.28,2.04-5.24,4.08-5.24c1.08,0,1.72,0.4,2.32,1l-0.12-1.44v-3.24h3.44v13.92h-2.8
				l-0.24-0.92h-0.08c-0.68,0.68-1.64,1.16-2.52,1.16C821.66,81.21,820.06,79.21,820.06,75.97z M826.34,77.69v-3.68
				c-0.4-0.36-0.92-0.48-1.36-0.48c-0.72,0-1.4,0.64-1.4,2.4c0,1.8,0.56,2.48,1.48,2.48C825.58,78.41,825.98,78.25,826.34,77.69z"/>
			<path class="st6" d="M831.64,79.13c0-1.16,0.84-2.08,2-2.08s2,0.92,2,2.08s-0.84,2.08-2,2.08S831.64,80.29,831.64,79.13z"/>
		</g>
	</g>
</g>
</svg>
