<svg xmlns="http://www.w3.org/2000/svg" width="22.92" height="20.735" viewBox="0 0 22.92 20.735">
  <g id="icon_pusac" transform="translate(-279.938 -432.434)">
    <path id="Path_1078" data-name="Path 1078" d="M4.746,19.117,15.02,8.863,13.3,7.154,3.037,17.408C3.713,18.222,3.849,18.185,4.746,19.117ZM15.869,8.033l.977-.957a1.155,1.155,0,0,0,.376-.752.955.955,0,0,0-.308-.713l-.342-.342a.872.872,0,0,0-.708-.3,1.21,1.21,0,0,0-.747.381l-.977.957Z" transform="translate(299.055 435.946) rotate(90)" fill="#1d88e5"/>
    <path id="Path_1079" data-name="Path 1079" d="M3.447,10.586ZM0,7.568A3.552,3.552,0,0,0,.518,9.453a3.811,3.811,0,0,0,1.445,1.362,4.39,4.39,0,0,0,2.158.513H4.3L4.287,9.8a3.366,3.366,0,0,1-1.489-.3,2.25,2.25,0,0,1-.942-.811,2.037,2.037,0,0,1-.322-1.113,2.222,2.222,0,0,1,.591-1.548,2.318,2.318,0,0,1,1.431-.767A.854.854,0,0,0,4.146,5a.893.893,0,0,0,.171-.62A2.732,2.732,0,0,1,4.7,2.964a2.933,2.933,0,0,1,1.03-1.035,2.742,2.742,0,0,1,1.436-.386,2.62,2.62,0,0,1,1.44.4,3.433,3.433,0,0,1,1.05,1.069.744.744,0,0,0,.43.342,1.115,1.115,0,0,0,.6-.029,2.544,2.544,0,0,1,.435-.112,3.124,3.124,0,0,1,.542-.044,1.9,1.9,0,0,1,1.362.547c.381.365,1.991.13,1.685-.391a3.443,3.443,0,0,0-1.221-1.235,3.255,3.255,0,0,0-1.7-.454,5.312,5.312,0,0,0-.615.034,2.843,2.843,0,0,0-.537.112A5.365,5.365,0,0,0,9.16.493,3.865,3.865,0,0,0,7.168,0,4.185,4.185,0,0,0,5.127.513,4.517,4.517,0,0,0,3.574,1.9a4.155,4.155,0,0,0-.732,1.973A3.778,3.778,0,0,0,.791,5.239,3.7,3.7,0,0,0,0,7.568Z" transform="translate(302.857 436.308) rotate(110)" fill="#1d88e5"/>
  </g>
</svg>
