<?xml version="1.0" encoding="UTF-8"?>
<svg width="41px" height="39px" viewBox="0 0 41 39" version="1.1" xmlns="http://www.w3.org/2000/svg" xmlns:xlink="http://www.w3.org/1999/xlink">
    <!-- Generator: sketchtool 52.6 (67491) - http://www.bohemiancoding.com/sketch -->
    <title>D28219AC-600E-4124-B4CB-4D463C70E34A</title>
    <desc>Created with sketchtool.</desc>
    <g id="Main_nav" stroke="none" stroke-width="1" fill="none" fill-rule="evenodd">
        <g id="Grupe-Analiza" transform="translate(-186.000000, -3965.000000)" fill="#C58600">
            <g id="specificniProteini" transform="translate(186.000000, 3965.000000)">
                <path d="M26.766819,5.31994762 C26.7165952,5.20461905 26.6514904,4.81585238 26.6124285,4.58518571 C26.491519,3.87461429 26.3780523,3.20499524 25.9241904,2.74923333 C25.4703237,2.29536667 24.7988095,2.1819 24.0863809,2.06099524 C23.8557237,2.02193333 23.4669523,1.95682857 23.370238,1.91590476 C21.1827142,0.69752381 18.2921428,0 15.4407142,0 C12.5556666,0 8.41309518,0.703142857 5.07071422,4.04761905 C-0.879761013,9.99619048 -1.58118911,15.8442857 2.90366661,21.89 C2.97249042,22.0109095 3.11199994,22.435 3.20314756,22.7140476 C3.4989047,23.6161905 3.70538565,24.191 4.09414756,24.5797619 C4.47919042,24.9629476 5.05395708,25.1712857 5.9542428,25.4689048 C6.23511899,25.5619095 6.6592428,25.701419 6.74290946,25.7460619 C9.37495708,27.7066333 11.9119571,28.6608714 14.4976714,28.6608714 C17.9072904,28.6608714 21.2181476,27.0072048 24.6205285,23.6051571 C30.0871952,18.1418238 29.1610999,9.61325238 26.7670999,5.32039524 L26.766819,5.31994762 Z M21.8301523,22.9651857 L21.201438,22.0797571 C21.0861095,21.9179286 20.8628952,21.8825857 20.7029142,21.9960524 C20.5410857,22.109519 20.5057428,22.3345952 20.6192095,22.4945762 L21.2851142,23.4321 C20.8219428,23.8134238 20.3624952,24.1519571 19.9067809,24.4551476 L18.8781142,22.4815762 C18.7869666,22.3067238 18.5711952,22.2379 18.3963523,22.3309048 C18.2214999,22.4220524 18.1526761,22.6378238 18.2456809,22.8126667 L19.3022523,24.8401905 C18.7646809,25.1601333 18.2289666,25.4261429 17.6988237,25.6400476 L17.1054428,23.6757619 C17.049638,23.4878905 16.8506047,23.3800048 16.6590142,23.4358048 C16.4711428,23.4916095 16.3632571,23.6906429 16.4190571,23.8803714 L17.0198666,25.8781333 C16.4153428,26.0697238 15.8145333,26.1887714 15.2136761,26.2445762 L15.0220857,24.0980048 C15.0053476,23.9008333 14.8286333,23.7557429 14.6351809,23.7743429 C14.4380095,23.7910857 14.292919,23.9640762 14.3096618,24.1612476 L14.4993952,26.2799143 L14.497538,26.2799143 C13.8799666,26.2799143 13.2623952,26.1980667 12.6392999,26.052981 L12.637438,25.0838381 C12.6355809,24.8866667 12.4774666,24.7266952 12.2802952,24.7266952 L12.278438,24.7266952 C12.0812666,24.7266952 11.9212952,24.8866667 11.9231571,25.0838381 L11.9250142,25.8557905 C10.7010618,25.4633048 9.45477613,24.7973619 8.16387137,23.8356952 C7.83277137,23.5883 7.39191899,23.4357714 6.69996661,23.2088381 C6.42839042,23.1195524 6.00053803,22.978181 5.79034756,22.8814571 C5.69362375,22.6712619 5.55411422,22.2453143 5.46482851,21.9737429 C5.23789518,21.2817905 5.08722375,20.8409333 4.83797137,20.5061238 C1.05078089,15.3980286 1.64044756,10.8427905 6.75201899,5.73326667 C9.51987613,2.96540952 13.0058285,2.38317143 15.4386857,2.38317143 C17.8623999,2.38317143 20.392019,2.98769524 22.2115428,3.9996 C22.6319285,4.23211429 23.1453047,4.31954286 23.6884952,4.41068571 C23.8242857,4.43486667 24.017738,4.46649048 24.1739714,4.49997143 C24.2055952,4.65621905 24.2390761,4.84967143 24.2632571,4.98730476 C24.3544047,5.53044762 24.4436904,6.04573333 24.6762047,6.4624 C26.3596333,9.48325714 27.2003952,14.9276381 24.8640761,19.3176381 L24.5162333,19.020019 C24.3674237,18.8916714 24.1423476,18.9102714 24.012138,19.059081 C23.8837904,19.2097524 23.9023904,19.4348238 24.0511999,19.5631762 L24.5013476,19.948219 C24.2000095,20.4336952 23.8558714,20.9024571 23.4671095,21.3507429 L22.2487285,19.9035524 C22.1203809,19.752881 21.8953047,19.734281 21.7446333,19.8607714 C21.5939618,19.9872571 21.5753618,20.2123333 21.7018523,20.3648667 L22.9797571,21.8827238 C22.9648761,21.8976048 22.9518571,21.9124857 22.9369761,21.9273667 C22.5668142,22.2938095 22.1984999,22.6416524 21.8302142,22.965319 L21.8301523,22.9651857 Z" id="Fill-1"></path>
                <path d="M33.4781439,26.1104447 C33.145182,25.9002494 32.7024772,25.9988351 32.4941439,26.331797 C31.9844772,27.1372256 31.1232391,28.1677494 30.1336677,29.159178 C29.1552391,30.1376066 28.1340486,30.9932732 27.3304772,31.504797 C26.9975153,31.7168494 26.9007915,32.1577018 27.110982,32.4906542 C27.2467724,32.7045685 27.4774248,32.819897 27.7136486,32.819897 C27.8457153,32.819897 27.9796439,32.7845542 28.0986915,32.7082875 C28.9989772,32.1353828 30.0797391,31.2331923 31.1436915,30.1692399 C32.2206915,29.0922399 33.1284534,28.0003351 33.7013582,27.0963351 C33.9115534,26.7615113 33.8129677,26.3206685 33.4781439,26.110478 L33.4781439,26.1104447 Z" id="Fill-2"></path>
                <path d="M14.7107962,9.245047 C14.8912295,9.245047 15.0698009,9.1780851 15.20932,9.04229462 C15.3172057,8.93812796 15.5050771,8.79861843 15.7115581,8.67213272 C15.9198914,8.5437851 16.1300866,8.43961843 16.2751771,8.38939462 C16.6472009,8.261047 16.8462247,7.85553748 16.7197438,7.48353748 C16.5913962,7.10965177 16.1858866,6.91063272 15.8120295,7.03897081 C15.5664962,7.12267558 15.2670295,7.26962796 14.9656962,7.45563748 C14.6662152,7.63978986 14.40022,7.84068034 14.2160771,8.01925653 C13.933339,8.29455177 13.9277581,8.74654224 14.2011962,9.02930415 C14.3407057,9.17253272 14.5248581,9.24507558 14.7108628,9.24507558 L14.7107962,9.245047 Z" id="Fill-3"></path>
                <path d="M22.2054539,14.9437059 C22.3319396,14.5698202 22.1310491,14.1643249 21.7571634,14.0378487 C21.3832777,13.911363 20.9777824,14.1122535 20.8531634,14.4861392 C20.8048015,14.6293678 20.7006348,14.839563 20.5722872,15.046044 C20.4439396,15.2543773 20.306292,15.4403868 20.2021253,15.5482821 C19.9268301,15.8310202 19.9342682,16.283044 20.2151443,16.5583297 C20.3546539,16.6922583 20.5350872,16.7610821 20.7136682,16.7610821 C20.8996777,16.7610821 21.085692,16.6885392 21.225192,16.5453106 C21.4539872,16.3109345 21.6586015,16.0077392 21.7906682,15.7938345 C21.9729586,15.4924964 22.1217682,15.1911678 22.2054729,14.9437392 L22.2054539,14.9437059 Z" id="Fill-4"></path>
                <path d="M8.4266851,15.6229138 C8.51968986,15.6638376 8.61827557,15.6842995 8.71500414,15.6842995 C8.98844224,15.6842995 9.25071843,15.52619 9.36790891,15.2583329 C9.42929462,15.1206852 9.55206129,14.9216519 9.69528986,14.7263329 C9.84038033,14.5310186 9.99662795,14.3543091 10.1100946,14.2538614 C10.4095756,13.9953043 10.4393375,13.5451471 10.1807803,13.245671 C9.9240851,12.9480519 9.47206605,12.9164281 9.174447,13.1749852 C8.97913272,13.3442567 8.75406129,13.595371 8.54573272,13.8781281 C8.33740414,14.1608852 8.16440891,14.4454614 8.06025653,14.6798424 C7.902147,15.0407043 8.06583748,15.4629376 8.42669938,15.6229376 L8.4266851,15.6229138 Z" id="Fill-5"></path>
                <path d="M8.3093673,9.3618865 C8.43399587,9.44745316 8.57536253,9.48837221 8.71487206,9.48837221 C8.94180539,9.48837221 9.16501968,9.3804865 9.30268158,9.17959126 C9.38638634,9.05682459 9.54449587,8.88383412 9.7230673,8.71828174 C9.90350063,8.55087221 10.0895102,8.40764364 10.219734,8.33137697 C10.5619959,8.13420555 10.6773244,7.69523412 10.4782911,7.35480555 C10.2811197,7.01440555 9.84214825,6.89907697 9.50171968,7.0962484 C9.27850539,7.22459602 9.0125292,7.42921031 8.75024349,7.67286745 C8.56795301,7.84400078 8.31125301,8.10255316 8.12710063,8.37039126 C7.90202444,8.69405316 7.98387206,9.13862935 8.30939111,9.36181983 L8.3093673,9.3618865 Z" id="Fill-6"></path>
                <path d="M40.0725143,21.9750476 C40.0725143,20.9129048 39.6595667,19.9140476 38.9080857,19.1644286 C38.1566095,18.4129524 37.1577048,18 36.0956095,18 C35.0335143,18 34.0364667,18.4129476 33.2849905,19.1644286 C32.7269429,19.7224762 32.2507524,20.5688095 31.7466571,21.465381 C31.3541714,22.1648095 30.9207524,22.933 30.4501333,23.5431429 C29.8809429,23.172981 29.2149905,22.9739524 28.5193238,22.9739524 C27.5725143,22.9739524 26.6815143,23.3422571 26.0118952,24.0137619 C24.808419,25.215381 24.6521333,27.0755238 25.5431429,28.452 C24.9330476,28.9207524 24.1629524,29.3541429 23.4635238,29.7485238 C22.5669524,30.2544762 21.7205714,30.7306667 21.1644286,31.2868571 C20.4129524,32.0383333 20,33.0372381 20,34.0993333 C20,35.1614286 20.4129476,36.1603333 21.1644286,36.9118095 C21.9159048,37.6614286 22.9148095,38.0762376 23.9750476,38.0762376 C24.8641905,38.0762376 25.7105238,37.7860571 26.4025238,37.2503333 C27.0107619,37.7042048 27.7455238,37.9516186 28.5193333,37.9516186 C29.468,37.9516186 30.359,37.5833143 31.028619,36.9118095 C31.3206571,36.6197714 31.5550476,36.2830952 31.7280476,35.9185238 C32.2489048,36.1063952 32.8050476,36.204981 33.372381,36.204981 C34.6632857,36.204981 35.8760952,35.7027429 36.7875714,34.7912667 C38.143619,33.435219 38.5211905,31.4449333 37.9110952,29.7374571 C38.2775381,29.5644667 38.6142381,29.3282286 38.9081429,29.0343143 C39.5777619,28.3646952 39.9479524,27.4736952 39.9479524,26.5250286 C39.9479524,25.751219 39.702419,25.0164571 39.2466667,24.4063619 C39.782381,23.7088381 40.0725714,22.8643143 40.0725714,21.9751714 L40.0725143,21.9750476 Z M36.9177524,25.4758095 C37.0349381,25.5334714 37.1391048,25.6078762 37.2265333,25.6953048 C37.4478857,25.9166571 37.5687952,26.2086857 37.5687952,26.5193524 C37.5687952,26.8318524 37.4460286,27.1238762 37.2265333,27.3452571 C36.9586762,27.6131143 36.5717714,27.7321619 36.1960095,27.6670571 C35.6900571,27.5777714 35.1803905,27.8270286 34.938581,28.2809143 C34.6967667,28.7366429 34.7748905,29.2965333 35.1338952,29.6667238 C36.0565143,30.6209619 36.0453714,32.1611524 35.1059905,33.1023429 C34.642819,33.5655143 34.0271333,33.8184857 33.3742286,33.8184857 C32.7343238,33.8184857 32.1298,33.5729524 31.6685143,33.1302476 C31.2983524,32.7712429 30.7384667,32.693119 30.2827048,32.9367952 C29.8269762,33.1804714 29.5795619,33.6882714 29.6707048,34.196081 C29.7376667,34.5699667 29.6167619,34.9550333 29.3489048,35.2247476 C28.9080571,35.6637381 28.1379524,35.6637381 27.699,35.2266095 C27.6097143,35.1373238 27.5353095,35.0331571 27.4757857,34.9141095 C27.2786143,34.5197667 26.8768333,34.2667762 26.4359762,34.2574905 C26.0007095,34.2463286 25.5840238,34.4862857 25.370119,34.8713476 C25.2975762,35.0034143 25.2064286,35.1243238 25.1041238,35.2266286 C24.5014571,35.8292952 23.4523143,35.8292952 22.8496476,35.2266286 C22.5464476,34.9252905 22.3827571,34.5234857 22.3827571,34.0975333 C22.3827571,33.671581 22.5483095,33.2716286 22.8496476,32.9702952 C23.1770286,32.6429143 23.9173619,32.2262476 24.6335048,31.822581 C25.6826,31.2310571 26.8730762,30.5614381 27.7473619,29.6871524 C28.058,29.3746524 28.230981,28.9728667 28.2291238,28.5543429 C28.2291238,28.1172143 28.0393905,27.6875333 27.6971238,27.3471048 C27.2432571,26.8913762 27.2432571,26.1510571 27.6971238,25.6952952 C27.916619,25.4758 28.2086476,25.3530333 28.5211714,25.3530333 C28.8336952,25.3530333 29.1256952,25.4739429 29.3489333,25.6971571 C29.7916429,26.1361476 30.2510762,26.2291571 30.5561714,26.2291571 C30.9728381,26.2291571 31.3746476,26.0580238 31.6852667,25.7455381 C32.5595048,24.8713 33.2291714,23.6808238 33.8188381,22.631681 C34.2243429,21.913681 34.6410286,21.1733476 34.9665524,20.8459667 C35.569219,20.2433 36.620219,20.2414429 37.2228857,20.8459667 C37.5242238,21.1473048 37.6897762,21.5472524 37.6897762,21.9732048 C37.6897762,22.3991524 37.5223667,22.7991095 37.2210238,23.1022952 C37.118719,23.2046 36.9996714,23.2920286 36.8676,23.3664333 C36.4806952,23.5803476 36.2426,23.9914333 36.2537429,24.4341476 C36.2649048,24.8787143 36.5216,25.2786238 36.9177905,25.4758143 L36.9177524,25.4758095 Z" id="Fill-7"></path>
                <path d="M21.306376,8.29783727 C21.4310045,8.38340394 21.5723712,8.42618489 21.7137426,8.42618489 C21.940676,8.42618489 22.1620331,8.31829918 22.3015522,8.11926585 C22.5452284,7.76770394 22.7721617,7.42545632 22.9805045,7.09621823 C23.1906998,6.76325632 23.0902522,6.32055156 22.7572903,6.11036108 C22.4243284,5.90016585 21.9834807,5.99875156 21.7732903,6.33357537 C21.5761188,6.64607537 21.3603426,6.96971823 21.1278141,7.30457537 C20.9027379,7.62823727 20.9827236,8.07281346 21.3063855,8.29786108 L21.306376,8.29783727 Z" id="Fill-8"></path>
                <path d="M20.3897478,9.14720537 C20.0753859,8.90724823 19.6270811,8.96677204 19.3871287,9.28113395 C19.2811002,9.41878156 19.1750764,9.55643395 19.0653287,9.69593871 C18.0069002,11.0370816 16.7885668,12.4005578 15.4418049,13.7491292 C13.0087573,16.1803197 10.4251383,18.2692244 8.35466208,19.4800816 C8.01240018,19.6791149 7.89893351,20.1162244 8.09796684,20.4585101 C8.23003351,20.6854435 8.46999065,20.8119339 8.71553827,20.8119339 C8.83830494,20.8119339 8.96293351,20.7803101 9.07640018,20.7152101 C11.2806383,19.4261625 13.8997335,17.3130673 16.4516383,14.7609244 C17.8393049,13.3732578 19.0967335,11.9670197 20.1886383,10.5812578 C20.3021049,10.4361673 20.4137145,10.2929387 20.5216002,10.151572 C20.7615573,9.83349109 20.7020335,9.38519109 20.3895335,9.14709585 L20.3897478,9.14720537 Z" id="Fill-9"></path>
            </g>
        </g>
        <g id="Page"></g>
    </g>
</svg>