<?xml version="1.0" encoding="UTF-8"?>
<svg width="36px" height="40px" viewBox="0 0 36 40" version="1.1" xmlns="http://www.w3.org/2000/svg" xmlns:xlink="http://www.w3.org/1999/xlink">
    <!-- Generator: sketchtool 52.6 (67491) - http://www.bohemiancoding.com/sketch -->
    <title>E2F6F9A1-3B00-4C51-A0D8-13D2FEEF867D</title>
    <desc>Created with sketchtool.</desc>
    <g id="Main_nav" stroke="none" stroke-width="1" fill="none" fill-rule="evenodd">
        <g id="Grupe-Analiza" transform="translate(-189.000000, -4025.000000)" fill="#C8C8C8">
            <g id="sperma" transform="translate(189.000000, 4025.000000)">
                <path d="M14.3333333,0.375022222 C11.4722222,0.375022222 9.12844444,2.80382222 8.06755556,5.2728 C6.83666667,8.13564444 7.43733333,11.5416889 10.0258667,13.4532444 C9.87308889,14.0712889 9.69600444,14.7275556 9.29324444,15.2344889 C8.86095111,15.7779111 8.22382222,15.9445778 7.55715556,15.9810222 C6.21342222,16.0556756 4.86271111,15.8490756 3.54151111,16.1858844 C2.35226667,16.4879689 1.30715556,17.1824178 0.6752,18.2501067 C-0.0435555556,19.4636622 -0.104311111,20.9063733 0.128311111,22.2657511 L0.664755556,25.40464 L1.11786667,22.2536178 C1.29147556,21.0505067 1.70293333,19.8907733 2.73071111,19.1668178 C4.15604444,18.1616178 5.58142222,18.6650844 7.15257778,18.9081378 C8.52582222,19.12168 9.97026667,18.9984133 11.1838222,18.2744489 C12.5240889,17.4740933 13.3661333,16.1095156 14.0275556,14.7362711 C17.7133333,14.6789778 20.5951111,11.4897378 20.4302222,7.84382667 C20.2809156,4.55911556 18.0691111,0.374937778 14.3328889,0.374937778 L14.3333333,0.375022222 Z" id="Fill-1"></path>
                <path d="M18.2413333,19.5537778 C16.3316,18.2881333 13.7533333,18.7846667 12.0226667,20.1197333 C10.1528889,21.5607111 9.38897778,23.9947556 10.3334222,26.2046222 C8.90462222,27.5692 8.05391111,29.7306667 8.06431111,31.6926222 C8.07472889,33.6943556 9.11293333,35.5224889 8.28653333,37.5032889 L7.30911111,39.8435547 L9.10253333,38.0501324 C10.4810222,36.6716444 10.8212889,35.0570667 10.7379556,33.1612444 C10.6980267,32.2688889 10.6546222,31.3626222 11.1337867,30.5692444 C11.5730222,29.8435556 12.2014756,29.2150667 13.0018311,28.9043111 C15.5799644,30.0328 18.2693867,28.8209778 19.53472,26.4112444 C20.7222311,24.1491111 20.5138756,21.0605778 18.2412978,19.5534667 C17.5173422,19.0743111 20.0052089,20.7218667 18.2412978,19.5534667 L18.2413333,19.5537778 Z" id="Fill-2"></path>
                <path d="M35.2848889,16.0693333 C35.2848889,11.9078667 30.8803556,7.80177778 26.6408889,8.99466667 C22.4343111,10.1752 22.0924444,16.144 24.0401778,19.3017778 C25.1912,21.1680889 27.1148444,22.3226222 29.3299556,22.2444889 C30.0678222,23.1472444 30.9011556,23.9910222 31.2518222,25.1333778 C31.6181422,26.3295556 31.5886267,27.6351111 31.1355022,28.8017778 C30.6875911,29.9563111 30.0070133,31.0031556 29.5556356,32.1594222 C29.1042578,33.3156889 28.9583911,34.5188 29.2344533,35.7375556 L29.7830756,38.1646213 L30.2171022,35.7149778 C30.4341156,34.4944889 30.82128,33.3504 31.5539022,32.3399556 C32.3889689,31.1854222 33.3542578,30.2184444 33.9323911,28.8885778 C35.1389689,26.1194667 34.8143467,23.0814667 33.4896844,20.4268 C34.6337733,19.2705333 35.28484,17.7045778 35.28484,16.0691556 L35.2848889,16.0693333 Z" id="Fill-3"></path>
            </g>
        </g>
        <g id="Page"></g>
    </g>
</svg>