<?xml version="1.0" encoding="UTF-8"?>
<svg width="40px" height="37px" viewBox="0 0 40 37" version="1.1" xmlns="http://www.w3.org/2000/svg" xmlns:xlink="http://www.w3.org/1999/xlink">
    <!-- Generator: sketchtool 52.6 (67491) - http://www.bohemiancoding.com/sketch -->
    <title>7F6DEE57-E81B-4636-8154-672E96C5CBD2</title>
    <desc>Created with sketchtool.</desc>
    <g id="Main_nav" stroke="none" stroke-width="1" fill="none" fill-rule="evenodd">
        <g id="Grupe-Analiza" transform="translate(-187.000000, -4201.000000)" fill="#D33737">
            <g id="srcaniMarkeri" transform="translate(187.000000, 4201.000000)">
                <path d="M35.8519768,3.47574222 C33.6071768,1.23267556 30.614199,5.33333333e-05 27.4457546,5.33333333e-05 C26.8728212,5.33333333e-05 26.3016657,0.0434577778 25.7287323,0.132 C25.0238879,0.220542222 24.3641546,0.395888889 23.7044212,0.616355556 C22.2530434,1.10071111 20.8884657,1.8924 19.6992212,2.90453333 C17.5013101,1.01217778 14.7738879,0 11.8694434,0 C8.70104344,0 5.70811011,1.23262222 3.464999,3.47568889 C-1.15499967,8.09568889 -1.15499967,15.6214667 3.464999,20.2845778 L19.0432212,35.8174671 C19.2185679,35.9962849 19.437319,36.0830938 19.657799,36.0830938 C19.878279,36.0830938 20.0970346,35.9945516 20.2741101,35.8192049 L35.8523323,20.2863156 C37.3037101,18.8349378 38.3158879,17.1179156 38.845399,15.2254267 C39.0658834,14.5656933 39.1978301,13.8608489 39.2412301,13.1577378 C39.6353279,9.72542667 38.4912301,6.11596 35.8523412,3.47551556 L35.8519768,3.47574222 Z M20.9768657,4.09205333 L20.9768657,4.18059556 L20.9334657,4.13719111 C20.9334657,4.09205333 20.9768657,4.09205333 20.9768657,4.09205333 Z M35.190199,18.3942756 C35.0148523,18.61476 34.7943679,18.8335111 34.6172657,19.0540089 L19.6572657,33.9722311 L4.74082122,19.0104533 C4.52033678,18.7899689 4.34499011,18.5712178 4.16788789,18.35072 C0.824155,14.3906311 1.04291056,8.40627556 4.74082122,4.71027556 C6.63317678,2.81792 9.18526567,1.76236444 11.9128212,1.76236444 C14.3329546,1.76236444 16.5777101,2.59916444 18.4248212,4.13912 L18.4682257,4.18252444 C18.6887101,4.35787111 18.9074612,4.53495556 19.0845368,4.75545778 L19.7008479,5.37176889 L26.2146257,11.8819911 L27.1382257,12.8055911 C28.634759,14.1701689 30.4385812,15.0937689 32.3311146,15.5330133 C33.2113368,15.7534978 34.1349368,15.8403067 35.0585368,15.8403067 C35.6314701,15.8403067 36.2460479,15.7969022 36.775559,15.70836 C36.4231279,16.6771156 35.851959,17.5573378 35.1904923,18.3941378 L35.190199,18.3942756 Z M37.5235323,12.3213867 L37.2596434,12.3213867 L37.2596434,12.7606222 L37.5235323,12.7606222 C37.5235323,12.8925689 37.5235323,13.0679156 37.4801279,13.1998578 L37.2596434,13.2015956 L37.2596434,13.6408311 L37.3915901,13.6408311 C37.3915901,13.6842311 37.3915901,13.7727778 37.3481901,13.8161778 C37.3047857,13.8161778 37.2596479,13.8161778 37.2596479,13.8595778 L37.2596479,13.6408267 L36.8204123,13.6408267 L36.8204123,13.9047156 C36.6884657,13.94812 36.513119,13.94812 36.3811768,13.9932578 L36.379439,13.6408267 L35.9402034,13.6408267 L35.9402034,14.0366578 C35.8082568,14.0366578 35.6329101,14.0800622 35.5009679,14.0800622 L35.5009679,13.6408267 L35.0617323,13.6408267 L35.0617323,14.0800622 L34.6224968,14.0800622 L34.6224968,13.6408267 L34.1832612,13.6408267 L34.1832612,14.0366578 C34.0513146,14.0366578 33.8759679,13.9932533 33.7440257,13.9932533 L33.7388168,13.6408222 L33.2995812,13.6408222 L33.2995812,13.9047111 C33.167639,13.9047111 32.9922879,13.8613111 32.8603457,13.8161689 L32.8586123,13.6408222 L32.4193768,13.6408222 L32.4193768,13.7293644 C32.3308346,13.6859644 32.1988923,13.6859644 32.1120834,13.6408222 L32.417639,13.6408222 L32.417639,13.2015867 L31.9784034,13.2015867 L31.9784034,13.5974178 C31.8464568,13.5540178 31.6711101,13.5088756 31.5391679,13.4654711 L31.5391679,13.2015822 L31.0999323,13.2015822 L31.0999323,13.2901244 C31.0565279,13.2467244 30.9679857,13.2467244 30.9245857,13.2015822 L31.098199,13.2015822 L31.098199,12.7623467 L30.6589634,12.7623467 L30.6589634,13.06964 C30.5270168,12.9810978 30.3516701,12.9376933 30.2197279,12.8491556 L30.2179901,12.7623511 L30.0426434,12.7623511 C29.9541012,12.7189511 29.8672968,12.6738089 29.7787546,12.5870044 L29.7787546,12.3213778 L29.339519,12.3213778 L29.339519,11.8821422 L28.9002834,11.8821422 L28.9002834,11.9706844 C28.8568834,11.9272844 28.8117412,11.8821422 28.7683368,11.8821422 L28.8985457,11.8821422 L28.8985457,11.4429067 L28.4593101,11.4429067 L28.4593101,11.6182533 C28.4159101,11.5748533 28.3707679,11.5297111 28.3273634,11.4863067 C28.2839634,11.4863067 28.2839634,11.4429067 28.2388212,11.4429067 L28.4575723,11.4411689 L28.4575723,11.0019333 L28.0183368,11.0019333 L28.0183368,11.2224178 L27.7978523,11.0019333 L28.0183368,11.0019333 L28.0183368,10.5626978 L27.5791012,10.5626978 L27.5791012,10.7831822 L27.5357012,10.7397822 L27.3586168,10.5609644 L27.5773679,10.5609644 L27.5773679,10.1217289 L27.1381323,10.1217289 L27.1381323,10.3422133 L26.9176479,10.1217289 L27.1381323,10.1217289 L27.1381323,9.68249333 L26.6988968,9.68249333 L26.6988968,9.90297778 L26.4784123,9.68075556 L26.6971634,9.68075556 L26.6971634,9.24152 L26.2579279,9.24152 L26.2579279,9.46200444 L26.0374434,9.24152 L26.2579279,9.24152 L26.2579279,8.80228444 L25.8186923,8.80228444 L25.8186923,9.02276889 L25.5982079,8.80054667 L25.8186923,8.80054667 L25.8186923,8.36131111 L25.3794568,8.36131111 L25.3794568,8.58179556 L25.1572346,8.36131111 L25.377719,8.36131111 L25.377719,7.92207556 L24.9384834,7.92207556 L24.9384834,8.14256 L24.717999,7.92033778 L24.9384834,7.92033778 L24.9384834,7.48110222 L24.4992479,7.48110222 L24.4992479,7.70158667 L24.2770257,7.48110222 L24.4975101,7.48110222 L24.4975101,7.04186667 L24.0582746,7.04186667 L24.0582746,7.26235111 L23.8377901,7.04012889 L24.0582746,7.04012889 L24.0582746,6.60089333 L23.619039,6.60089333 L23.619039,6.82137778 L23.4870968,6.68943111 L23.3968168,6.60088889 L23.6173012,6.60088889 L23.6173012,6.16165333 L23.1780657,6.16165333 L23.1780657,6.38213778 L22.9575812,6.16165333 L23.1780657,6.16165333 L23.1780657,5.72241778 L22.7388301,5.72241778 L22.7388301,5.94290222 L22.5183457,5.72068 L22.7370968,5.72068 L22.7370968,5.28144444 L22.2978612,5.28144444 L22.2978612,5.50192889 L22.0773768,5.28144444 L22.2978612,5.28144444 L22.2978612,4.84220889 L21.8586257,4.84220889 L21.8586257,5.06269333 L21.6381412,4.84047111 L21.8568923,4.84047111 L21.8568923,4.40123556 L21.4176568,4.40123556 L21.4176568,4.62172 L21.1971723,4.40123556 L21.4176568,4.40123556 L21.4176568,3.962 L21.1103634,3.962 C21.1989057,3.87345778 21.3308479,3.78665333 21.4176568,3.74151556 L21.4176568,3.96026667 L21.8568923,3.96026667 L21.8568923,3.52103111 L21.7249457,3.52103111 C21.7683457,3.47762667 21.8134879,3.43248889 21.8568923,3.43248889 L21.8568923,3.52103111 L22.2961279,3.52103111 L22.2961279,3.1252 C22.3395279,3.1252 22.3846701,3.08179556 22.3846701,3.08179556 L22.7371012,3.08005778 L22.7371012,2.90471111 C22.8690434,2.81616889 23.0443946,2.77276444 23.1763368,2.68422667 L23.1780701,3.08005778 L23.6173057,3.08005778 L23.6173057,2.64082222 L23.2648746,2.64082222 C23.3968168,2.59742222 23.485359,2.55228 23.6173057,2.50887556 L23.6173057,2.64082222 L24.0565412,2.64082222 L24.0565412,2.33352889 C24.3638346,2.24498667 24.6294746,2.15818222 24.9367634,2.06964 L24.9385012,2.19984889 L25.3777368,2.19984889 L25.3777368,1.97936444 C25.5096834,1.93596444 25.6850301,1.93596444 25.8169723,1.89082222 L25.8187057,2.19984889 L26.2579412,2.19984889 L26.2579412,1.80401778 C26.3898879,1.80401778 26.5652346,1.76061778 26.6971768,1.76061778 L26.6971768,2.19985333 L27.1364123,2.19985333 L27.1364123,1.76061778 L27.5756479,1.76061778 L27.5756479,2.19985333 L28.0148834,2.19985333 L28.0148834,1.76061778 C28.1468257,1.76061778 28.3221768,1.76061778 28.454119,1.80401778 L28.4575946,2.19984889 L28.8968301,2.19984889 L28.8968301,1.84741778 C29.0287768,1.89082222 29.2041234,1.89082222 29.3360657,1.93596 L29.337799,2.19984889 L29.7770346,2.19984889 L29.7770346,2.02450222 C29.9089812,2.06790667 30.0843279,2.11304444 30.2162701,2.15644889 L30.2180079,2.19985333 L30.4384923,2.19985333 C30.5270346,2.19985333 30.570439,2.24325778 30.6589768,2.28839556 L30.6589768,2.64082667 L31.0982123,2.64082667 L31.0982123,2.42034222 C31.2301546,2.46374222 31.4055057,2.55228889 31.5374479,2.59568889 L31.5391812,2.64082667 L31.5825857,2.64082667 C31.7145323,2.68422667 31.8464746,2.77277333 31.9784168,2.81617333 L31.9784168,3.08006222 L32.4176523,3.08006222 L32.4176523,3.51929778 L32.8568879,3.51929778 L32.8568879,3.29881333 C32.9454301,3.34221333 33.0773723,3.43076 33.1641812,3.51929778 L32.8586257,3.52103556 L32.8586257,3.96027111 L33.2978612,3.96027111 L33.2978612,3.60784 C33.4298079,3.69638222 33.6051546,3.82832444 33.7370968,3.96027111 C33.869039,4.04881333 34.0009857,4.18075556 34.1763323,4.31270222 L34.1780701,4.40124444 L34.2666123,4.40124444 C34.3551546,4.48978667 34.4870968,4.62172889 34.5739057,4.70853778 L34.6173057,4.75193778 L34.6190434,4.84048 L34.7075857,4.84048 C34.8395323,4.97242667 34.9280701,5.06096444 35.0600168,5.19291111 L35.058279,5.28145333 L35.1016834,5.28145333 C35.2336301,5.4134 35.3221679,5.58874667 35.4541146,5.72068889 L35.014879,5.72068889 L35.014879,6.15992444 L35.4541146,6.15992444 L35.4541146,5.76409333 C35.5426568,5.89604 35.674599,6.02798222 35.7614079,6.15992444 L35.4992568,6.16166222 L35.4992568,6.60089778 L35.9384923,6.60089778 L35.9384923,6.38041333 C35.9818968,6.46895556 36.0270346,6.51236 36.070439,6.60089778 L35.9384923,6.60089778 L35.9384923,7.04013333 L36.3343279,7.04013333 C36.3343279,7.08353333 36.3777279,7.08353333 36.3777279,7.12867556 L36.3794657,7.48110667 L36.5548123,7.48110667 C36.6433546,7.61305333 36.686759,7.7884 36.7752968,7.92034222 L36.3794657,7.92034222 L36.3794657,8.35957778 L36.8187012,8.35957778 L36.8187012,8.05228444 C36.8621057,8.14082667 36.9072434,8.27276889 36.9072434,8.35957778 L36.8187012,8.36131111 L36.8187012,8.80054667 L37.0825901,8.80054667 C37.1259946,8.93249333 37.1711323,9.10784 37.2145368,9.23978222 L36.8187057,9.24152 L36.8187057,9.68075556 L37.2579412,9.68075556 L37.2579412,9.41686667 C37.2579412,9.50540889 37.3013457,9.59221333 37.3013457,9.68075556 L37.259679,9.68075556 L37.259679,10.1199911 L37.3916257,10.1199911 C37.4350257,10.2519378 37.4350257,10.4272844 37.4350257,10.5592267 L37.259679,10.5609644 L37.259679,11.0002 L37.5235679,11.0002 C37.5235679,11.1321467 37.5669723,11.3074933 37.5669723,11.4394356 L37.259679,11.4411689 L37.259679,11.8804044 L37.5669723,11.8804044 C37.5669723,12.0140844 37.5669723,12.1894311 37.5235679,12.3213778 L37.5235323,12.3213867 Z" id="Fill-2"></path>
                <path d="M28,11 C28,11 28.048825,11.04883 28.09961,11.04883 L28,11 Z" id="Fill-3"></path>
                <polygon id="Fill-4" points="23 3.49414 23.49414 3.49414 23.49414 3 23 3"></polygon>
                <polygon id="Fill-5" points="24 3.49414 24.49414 3.49414 24.49414 3 24 3"></polygon>
                <polygon id="Fill-6" points="24 3.49414 24.49414 3.49414 24.49414 3 24 3"></polygon>
                <polygon id="Fill-7" points="25 4.49414 25.49414 4.49414 25.49414 4 25 4"></polygon>
                <polygon id="Fill-8" points="25 4.49414 25.49414 4.49414 25.49414 4 25 4"></polygon>
                <polygon id="Fill-9" points="25 5.49414 25.49414 5.49414 25.49414 5 25 5"></polygon>
                <polygon id="Fill-10" points="26 5.49414 26.49414 5.49414 26.49414 5 26 5"></polygon>
                <polygon id="Fill-11" points="26 6.49414 26.49414 6.49414 26.49414 6 26 6"></polygon>
                <polygon id="Fill-12" points="27 6.49414 27.49414 6.49414 27.49414 6 27 6"></polygon>
                <polygon id="Fill-13" points="27 7.49414 27.49414 7.49414 27.49414 7 27 7"></polygon>
                <polygon id="Fill-14" points="28 7.49414 28.49414 7.49414 28.49414 7 28 7"></polygon>
                <polygon id="Fill-15" points="28 7.49414 28.49414 7.49414 28.49414 7 28 7"></polygon>
                <polygon id="Fill-16" points="29 8.49414 29.49414 8.49414 29.49414 8 29 8"></polygon>
                <polygon id="Fill-17" points="29 8.49414 29.49414 8.49414 29.49414 8 29 8"></polygon>
                <polygon id="Fill-18" points="29 9.49414 29.49414 9.49414 29.49414 9 29 9"></polygon>
                <polygon id="Fill-19" points="30 9.49414 30.49414 9.49414 30.49414 9 30 9"></polygon>
                <polygon id="Fill-20" points="30 10.49414 30.49414 10.49414 30.49414 10 30 10"></polygon>
                <polygon id="Fill-21" points="31 10.49414 31.49414 10.49414 31.49414 10 31 10"></polygon>
                <polygon id="Fill-22" points="31 11.49414 31.49414 11.49414 31.49414 11 31 11"></polygon>
                <polygon id="Fill-23" points="32 11.49414 32.49414 11.49414 32.49414 11 32 11"></polygon>
                <polygon id="Fill-24" points="32 11.49414 32.49414 11.49414 32.49414 11 32 11"></polygon>
                <polygon id="Fill-25" points="32 12.49414 32.49414 12.49414 32.49414 12 32 12"></polygon>
                <polygon id="Fill-26" points="33 12.49414 33.49414 12.49414 33.49414 12 33 12"></polygon>
                <polygon id="Fill-27" points="33 13.49414 33.49414 13.49414 33.49414 13 33 13"></polygon>
                <polygon id="Fill-28" points="23 3.49414 23.49414 3.49414 23.49414 3 23 3"></polygon>
                <polygon id="Fill-29" points="23 3.49414 23.49414 3.49414 23.49414 3 23 3"></polygon>
                <polygon id="Fill-30" points="24 4.49414 24.49414 4.49414 24.49414 4 24 4"></polygon>
                <polygon id="Fill-31" points="24 4.49414 24.49414 4.49414 24.49414 4 24 4"></polygon>
                <polygon id="Fill-32" points="25 5.49414 25.49414 5.49414 25.49414 5 25 5"></polygon>
                <polygon id="Fill-33" points="25 5.49414 25.49414 5.49414 25.49414 5 25 5"></polygon>
                <polygon id="Fill-34" points="25 6.49414 25.49414 6.49414 25.49414 6 25 6"></polygon>
                <polygon id="Fill-35" points="26 6.49414 26.49414 6.49414 26.49414 6 26 6"></polygon>
                <polygon id="Fill-36" points="26 7.49414 26.49414 7.49414 26.49414 7 26 7"></polygon>
                <polygon id="Fill-37" points="27 7.49414 27.49414 7.49414 27.49414 7 27 7"></polygon>
                <polygon id="Fill-38" points="27 7.49414 27.49414 7.49414 27.49414 7 27 7"></polygon>
                <polygon id="Fill-39" points="28 8.49414 28.49414 8.49414 28.49414 8 28 8"></polygon>
                <polygon id="Fill-40" points="28 8.49414 28.49414 8.49414 28.49414 8 28 8"></polygon>
                <polygon id="Fill-41" points="29 9.49414 29.49414 9.49414 29.49414 9 29 9"></polygon>
                <polygon id="Fill-42" points="29 9.49414 29.49414 9.49414 29.49414 9 29 9"></polygon>
                <polygon id="Fill-43" points="29 10.49414 29.49414 10.49414 29.49414 10 29 10"></polygon>
                <polygon id="Fill-44" points="30 10.49414 30.49414 10.49414 30.49414 10 30 10"></polygon>
                <polygon id="Fill-45" points="30 11.49414 30.49414 11.49414 30.49414 11 30 11"></polygon>
                <polygon id="Fill-46" points="31 11.49414 31.49414 11.49414 31.49414 11 31 11"></polygon>
                <polygon id="Fill-47" points="31 11.49414 31.49414 11.49414 31.49414 11 31 11"></polygon>
                <polygon id="Fill-48" points="32 12.49414 32.49414 12.49414 32.49414 12 32 12"></polygon>
                <polygon id="Fill-49" points="32 12.49414 32.49414 12.49414 32.49414 12 32 12"></polygon>
                <polygon id="Fill-50" points="32 13.49414 32.49414 13.49414 32.49414 13 32 13"></polygon>
                <polygon id="Fill-51" points="22 3.49414 22.49414 3.49414 22.49414 3 22 3"></polygon>
                <polygon id="Fill-52" points="23 4.49414 23.49414 4.49414 23.49414 4 23 4"></polygon>
                <polygon id="Fill-53" points="23 4.49414 23.49414 4.49414 23.49414 4 23 4"></polygon>
                <polygon id="Fill-54" points="24 5.49414 24.49414 5.49414 24.49414 5 24 5"></polygon>
                <polygon id="Fill-55" points="24 5.49414 24.49414 5.49414 24.49414 5 24 5"></polygon>
                <polygon id="Fill-56" points="25 6.49414 25.49414 6.49414 25.49414 6 25 6"></polygon>
                <polygon id="Fill-57" points="25 6.49414 25.49414 6.49414 25.49414 6 25 6"></polygon>
                <polygon id="Fill-58" points="25 7.49414 25.49414 7.49414 25.49414 7 25 7"></polygon>
                <polygon id="Fill-59" points="26 7.49414 26.49414 7.49414 26.49414 7 26 7"></polygon>
                <polygon id="Fill-60" points="26 7.49414 26.49414 7.49414 26.49414 7 26 7"></polygon>
                <polygon id="Fill-61" points="27 8.49414 27.49414 8.49414 27.49414 8 27 8"></polygon>
                <polygon id="Fill-62" points="27 8.49414 27.49414 8.49414 27.49414 8 27 8"></polygon>
                <polygon id="Fill-63" points="28 9.49414 28.49414 9.49414 28.49414 9 28 9"></polygon>
                <polygon id="Fill-64" points="28 9.49414 28.49414 9.49414 28.49414 9 28 9"></polygon>
                <polygon id="Fill-65" points="29 10.49414 29.49414 10.49414 29.49414 10 29 10"></polygon>
                <polygon id="Fill-66" points="29 10.49414 29.49414 10.49414 29.49414 10 29 10"></polygon>
                <polygon id="Fill-67" points="29 11.49414 29.49414 11.49414 29.49414 11 29 11"></polygon>
                <polygon id="Fill-68" points="30 11.49414 30.49414 11.49414 30.49414 11 30 11"></polygon>
                <polygon id="Fill-69" points="30 11.49414 30.49414 11.49414 30.49414 11 30 11"></polygon>
                <polygon id="Fill-70" points="31 12.49414 31.49414 12.49414 31.49414 12 31 12"></polygon>
                <polygon id="Fill-71" points="31 12.49414 31.49414 12.49414 31.49414 12 31 12"></polygon>
                <polygon id="Fill-72" points="22 4.49414 22.49414 4.49414 22.49414 4 22 4"></polygon>
                <polygon id="Fill-73" points="22 4.49414 22.49414 4.49414 22.49414 4 22 4"></polygon>
                <polygon id="Fill-74" points="23 5.49414 23.49414 5.49414 23.49414 5 23 5"></polygon>
                <polygon id="Fill-75" points="23 5.49414 23.49414 5.49414 23.49414 5 23 5"></polygon>
                <polygon id="Fill-76" points="24 6.49414 24.49414 6.49414 24.49414 6 24 6"></polygon>
                <polygon id="Fill-77" points="24 6.49414 24.49414 6.49414 24.49414 6 24 6"></polygon>
                <polygon id="Fill-78" points="25 7.49414 25.49414 7.49414 25.49414 7 25 7"></polygon>
                <polygon id="Fill-79" points="25 7.49414 25.49414 7.49414 25.49414 7 25 7"></polygon>
                <polygon id="Fill-80" points="25 7.49414 25.49414 7.49414 25.49414 7 25 7"></polygon>
                <polygon id="Fill-81" points="26 8.49414 26.49414 8.49414 26.49414 8 26 8"></polygon>
                <polygon id="Fill-82" points="26 8.49414 26.49414 8.49414 26.49414 8 26 8"></polygon>
                <polygon id="Fill-83" points="27 9.49414 27.49414 9.49414 27.49414 9 27 9"></polygon>
                <polygon id="Fill-84" points="27 9.49414 27.49414 9.49414 27.49414 9 27 9"></polygon>
                <polygon id="Fill-85" points="28 10.49414 28.49414 10.49414 28.49414 10 28 10"></polygon>
                <polygon id="Fill-86" points="28 10.49414 28.49414 10.49414 28.49414 10 28 10"></polygon>
                <polygon id="Fill-87" points="29 11.49414 29.49414 11.49414 29.49414 11 29 11"></polygon>
                <polygon id="Fill-88" points="29 11.49414 29.49414 11.49414 29.49414 11 29 11"></polygon>
                <polygon id="Fill-89" points="29 11.49414 29.49414 11.49414 29.49414 11 29 11"></polygon>
                <polygon id="Fill-90" points="30 12.49414 30.49414 12.49414 30.49414 12 30 12"></polygon>
                <polygon id="Fill-91" points="21 3.49414 21.49414 3.49414 21.49414 3 21 3"></polygon>
                <polygon id="Fill-92" points="22 3.49414 22.49414 3.49414 22.49414 3 22 3"></polygon>
                <polygon id="Fill-93" points="22 3.49414 22.49414 3.49414 22.49414 3 22 3"></polygon>
                <polygon id="Fill-94" points="24 2.49414 24.49414 2.49414 24.49414 2 24 2"></polygon>
                <polygon id="Fill-95" points="24 3.49414 24.49414 3.49414 24.49414 3 24 3"></polygon>
                <polygon id="Fill-96" points="25 3.49414 25.49414 3.49414 25.49414 3 25 3"></polygon>
                <polygon id="Fill-97" points="25 3.49414 25.49414 3.49414 25.49414 3 25 3"></polygon>
                <polygon id="Fill-98" points="25 4.49414 25.49414 4.49414 25.49414 4 25 4"></polygon>
                <polygon id="Fill-99" points="26 4.49414 26.49414 4.49414 26.49414 4 26 4"></polygon>
                <polygon id="Fill-100" points="26 5.49414 26.49414 5.49414 26.49414 5 26 5"></polygon>
                <polygon id="Fill-101" points="27 5.49414 27.49414 5.49414 27.49414 5 27 5"></polygon>
                <polygon id="Fill-102" points="27 6.49414 27.49414 6.49414 27.49414 6 27 6"></polygon>
                <polygon id="Fill-103" points="28 6.49414 28.49414 6.49414 28.49414 6 28 6"></polygon>
                <polygon id="Fill-104" points="28 7.49414 28.49414 7.49414 28.49414 7 28 7"></polygon>
                <polygon id="Fill-105" points="29 7.49414 29.49414 7.49414 29.49414 7 29 7"></polygon>
                <polygon id="Fill-106" points="29 7.49414 29.49414 7.49414 29.49414 7 29 7"></polygon>
                <polygon id="Fill-107" points="29 8.49414 29.49414 8.49414 29.49414 8 29 8"></polygon>
                <polygon id="Fill-108" points="30 8.49414 30.49414 8.49414 30.49414 8 30 8"></polygon>
                <polygon id="Fill-109" points="30 9.49414 30.49414 9.49414 30.49414 9 30 9"></polygon>
                <polygon id="Fill-110" points="31 9.49414 31.49414 9.49414 31.49414 9 31 9"></polygon>
                <polygon id="Fill-111" points="31 10.49414 31.49414 10.49414 31.49414 10 31 10"></polygon>
                <polygon id="Fill-112" points="32 10.49414 32.49414 10.49414 32.49414 10 32 10"></polygon>
                <polygon id="Fill-113" points="32 11.49414 32.49414 11.49414 32.49414 11 32 11"></polygon>
                <polygon id="Fill-114" points="32 11.49414 32.49414 11.49414 32.49414 11 32 11"></polygon>
                <polygon id="Fill-115" points="33 11.49414 33.49414 11.49414 33.49414 11 33 11"></polygon>
                <polygon id="Fill-116" points="33 12.49414 33.49414 12.49414 33.49414 12 33 12"></polygon>
                <polygon id="Fill-117" points="34 12.49414 34.49414 12.49414 34.49414 12 34 12"></polygon>
                <polygon id="Fill-118" points="34 13.49414 34.49414 13.49414 34.49414 13 34 13"></polygon>
                <polygon id="Fill-119" points="24 2.49414 24.49414 2.49414 24.49414 2 24 2"></polygon>
                <polygon id="Fill-120" points="25 2.49414 25.49414 2.49414 25.49414 2 25 2"></polygon>
                <polygon id="Fill-121" points="25 2.49414 25.49414 2.49414 25.49414 2 25 2"></polygon>
                <polygon id="Fill-122" points="26 2.49414 26.49414 2.49414 26.49414 2 26 2"></polygon>
                <polygon id="Fill-123" points="26 3.49414 26.49414 3.49414 26.49414 3 26 3"></polygon>
                <polygon id="Fill-124" points="26 2.49414 26.49414 2.49414 26.49414 2 26 2"></polygon>
                <polygon id="Fill-125" points="27 2.49414 27.49414 2.49414 27.49414 2 27 2"></polygon>
                <polygon id="Fill-126" points="26 3.49414 26.49414 3.49414 26.49414 3 26 3"></polygon>
                <polygon id="Fill-127" points="27 3.49414 27.49414 3.49414 27.49414 3 27 3"></polygon>
                <polygon id="Fill-128" points="27 2.49414 27.49414 2.49414 27.49414 2 27 2"></polygon>
                <polygon id="Fill-129" points="28 2.49414 28.49414 2.49414 28.49414 2 28 2"></polygon>
                <polygon id="Fill-130" points="27 3.49414 27.49414 3.49414 27.49414 3 27 3"></polygon>
                <polygon id="Fill-131" points="27 3.49414 27.49414 3.49414 27.49414 3 27 3"></polygon>
                <polygon id="Fill-132" points="28 3.49414 28.49414 3.49414 28.49414 3 28 3"></polygon>
                <polygon id="Fill-133" points="28 2.49414 28.49414 2.49414 28.49414 2 28 2"></polygon>
                <polygon id="Fill-134" points="29 2.49414 29.49414 2.49414 29.49414 2 29 2"></polygon>
                <polygon id="Fill-135" points="27 4.49414 27.49414 4.49414 27.49414 4 27 4"></polygon>
                <polygon id="Fill-136" points="28 3.49414 28.49414 3.49414 28.49414 3 28 3"></polygon>
                <polygon id="Fill-137" points="28 3.49414 28.49414 3.49414 28.49414 3 28 3"></polygon>
                <polygon id="Fill-138" points="29 3.49414 29.49414 3.49414 29.49414 3 29 3"></polygon>
                <polygon id="Fill-139" points="29 2.49414 29.49414 2.49414 29.49414 2 29 2"></polygon>
                <polygon id="Fill-140" points="29 2.49414 29.49414 2.49414 29.49414 2 29 2"></polygon>
                <polygon id="Fill-141" points="28 4.49414 28.49414 4.49414 28.49414 4 28 4"></polygon>
                <polygon id="Fill-142" points="28 4.49414 28.49414 4.49414 28.49414 4 28 4"></polygon>
                <polygon id="Fill-143" points="29 3.49414 29.49414 3.49414 29.49414 3 29 3"></polygon>
                <polygon id="Fill-144" points="29 3.49414 29.49414 3.49414 29.49414 3 29 3"></polygon>
                <polygon id="Fill-145" points="29 3.49414 29.49414 3.49414 29.49414 3 29 3"></polygon>
                <polygon id="Fill-146" points="30 2.49414 30.49414 2.49414 30.49414 2 30 2"></polygon>
                <polygon id="Fill-147" points="28 5.49414 28.49414 5.49414 28.49414 5 28 5"></polygon>
                <polygon id="Fill-148" points="29 4.49414 29.49414 4.49414 29.49414 4 29 4"></polygon>
                <polygon id="Fill-149" points="29 4.49414 29.49414 4.49414 29.49414 4 29 4"></polygon>
                <polygon id="Fill-150" points="29 3.49414 29.49414 3.49414 29.49414 3 29 3"></polygon>
                <polygon id="Fill-151" points="30 3.49414 30.49414 3.49414 30.49414 3 30 3"></polygon>
                <polygon id="Fill-152" points="30 3.49414 30.49414 3.49414 30.49414 3 30 3"></polygon>
                <polygon id="Fill-153" points="31 2.49414 31.49414 2.49414 31.49414 2 31 2"></polygon>
                <polygon id="Fill-154" points="29 5.49414 29.49414 5.49414 29.49414 5 29 5"></polygon>
                <polygon id="Fill-155" points="29 5.49414 29.49414 5.49414 29.49414 5 29 5"></polygon>
                <polygon id="Fill-156" points="29 4.49414 29.49414 4.49414 29.49414 4 29 4"></polygon>
                <polygon id="Fill-157" points="30 4.49414 30.49414 4.49414 30.49414 4 30 4"></polygon>
                <polygon id="Fill-158" points="30 3.49414 30.49414 3.49414 30.49414 3 30 3"></polygon>
                <polygon id="Fill-159" points="31 3.49414 31.49414 3.49414 31.49414 3 31 3"></polygon>
                <polygon id="Fill-160" points="31 3.49414 31.49414 3.49414 31.49414 3 31 3"></polygon>
                <polygon id="Fill-161" points="29 6.49414 29.49414 6.49414 29.49414 6 29 6"></polygon>
                <polygon id="Fill-162" points="29 5.49414 29.49414 5.49414 29.49414 5 29 5"></polygon>
                <polygon id="Fill-163" points="30 5.49414 30.49414 5.49414 30.49414 5 30 5"></polygon>
                <polygon id="Fill-164" points="30 4.49414 30.49414 4.49414 30.49414 4 30 4"></polygon>
                <polygon id="Fill-165" points="31 4.49414 31.49414 4.49414 31.49414 4 31 4"></polygon>
                <polygon id="Fill-166" points="31 3.49414 31.49414 3.49414 31.49414 3 31 3"></polygon>
                <polygon id="Fill-167" points="32 3.49414 32.49414 3.49414 32.49414 3 32 3"></polygon>
                <polygon id="Fill-168" points="29 6.49414 29.49414 6.49414 29.49414 6 29 6"></polygon>
                <polygon id="Fill-169" points="30 6.49414 30.49414 6.49414 30.49414 6 30 6"></polygon>
                <polygon id="Fill-170" points="30 5.49414 30.49414 5.49414 30.49414 5 30 5"></polygon>
                <polygon id="Fill-171" points="31 5.49414 31.49414 5.49414 31.49414 5 31 5"></polygon>
                <polygon id="Fill-172" points="31 4.49414 31.49414 4.49414 31.49414 4 31 4"></polygon>
                <polygon id="Fill-173" points="32 4.49414 32.49414 4.49414 32.49414 4 32 4"></polygon>
                <polygon id="Fill-174" points="32 3.49414 32.49414 3.49414 32.49414 3 32 3"></polygon>
                <polygon id="Fill-175" points="30 7.49414 30.49414 7.49414 30.49414 7 30 7"></polygon>
                <polygon id="Fill-176" points="30 6.49414 30.49414 6.49414 30.49414 6 30 6"></polygon>
                <polygon id="Fill-177" points="31 6.49414 31.49414 6.49414 31.49414 6 31 6"></polygon>
                <polygon id="Fill-178" points="31 5.49414 31.49414 5.49414 31.49414 5 31 5"></polygon>
                <polygon id="Fill-179" points="32 5.49414 32.49414 5.49414 32.49414 5 32 5"></polygon>
                <polygon id="Fill-180" points="32 4.49414 32.49414 4.49414 32.49414 4 32 4"></polygon>
                <polygon id="Fill-181" points="32 4.49414 32.49414 4.49414 32.49414 4 32 4"></polygon>
                <polygon id="Fill-182" points="33 3.49414 33.49414 3.49414 33.49414 3 33 3"></polygon>
                <polygon id="Fill-183" points="30 7.49414 30.49414 7.49414 30.49414 7 30 7"></polygon>
                <polygon id="Fill-184" points="31 7.49414 31.49414 7.49414 31.49414 7 31 7"></polygon>
                <polygon id="Fill-185" points="31 6.49414 31.49414 6.49414 31.49414 6 31 6"></polygon>
                <polygon id="Fill-186" points="32 6.49414 32.49414 6.49414 32.49414 6 32 6"></polygon>
                <polygon id="Fill-187" points="32 5.49414 32.49414 5.49414 32.49414 5 32 5"></polygon>
                <polygon id="Fill-188" points="32 5.49414 32.49414 5.49414 32.49414 5 32 5"></polygon>
                <polygon id="Fill-189" points="33 4.49414 33.49414 4.49414 33.49414 4 33 4"></polygon>
                <polygon id="Fill-190" points="33 4.49414 33.49414 4.49414 33.49414 4 33 4"></polygon>
                <polygon id="Fill-191" points="31 7.49414 31.49414 7.49414 31.49414 7 31 7"></polygon>
                <polygon id="Fill-192" points="31 7.49414 31.49414 7.49414 31.49414 7 31 7"></polygon>
                <polygon id="Fill-193" points="32 7.49414 32.49414 7.49414 32.49414 7 32 7"></polygon>
                <polygon id="Fill-194" points="32 6.49414 32.49414 6.49414 32.49414 6 32 6"></polygon>
                <polygon id="Fill-195" points="32 6.49414 32.49414 6.49414 32.49414 6 32 6"></polygon>
                <polygon id="Fill-196" points="33 5.49414 33.49414 5.49414 33.49414 5 33 5"></polygon>
                <polygon id="Fill-197" points="33 5.49414 33.49414 5.49414 33.49414 5 33 5"></polygon>
                <polygon id="Fill-198" points="34 4.49414 34.49414 4.49414 34.49414 4 34 4"></polygon>
                <polygon id="Fill-199" points="31 8.49414 31.49414 8.49414 31.49414 8 31 8"></polygon>
                <polygon id="Fill-200" points="32 7.49414 32.49414 7.49414 32.49414 7 32 7"></polygon>
                <polygon id="Fill-201" points="32 7.49414 32.49414 7.49414 32.49414 7 32 7"></polygon>
                <polygon id="Fill-202" points="32 7.49414 32.49414 7.49414 32.49414 7 32 7"></polygon>
                <polygon id="Fill-203" points="33 6.49414 33.49414 6.49414 33.49414 6 33 6"></polygon>
                <polygon id="Fill-204" points="33 6.49414 33.49414 6.49414 33.49414 6 33 6"></polygon>
                <polygon id="Fill-205" points="34 5.49414 34.49414 5.49414 34.49414 5 34 5"></polygon>
                <polygon id="Fill-206" points="34 5.49414 34.49414 5.49414 34.49414 5 34 5"></polygon>
                <polygon id="Fill-207" points="32 8.49414 32.49414 8.49414 32.49414 8 32 8"></polygon>
                <polygon id="Fill-208" points="32 8.49414 32.49414 8.49414 32.49414 8 32 8"></polygon>
                <polygon id="Fill-209" points="32 7.49414 32.49414 7.49414 32.49414 7 32 7"></polygon>
                <polygon id="Fill-210" points="33 7.49414 33.49414 7.49414 33.49414 7 33 7"></polygon>
                <polygon id="Fill-211" points="33 7.49414 33.49414 7.49414 33.49414 7 33 7"></polygon>
                <polygon id="Fill-212" points="34 6.49414 34.49414 6.49414 34.49414 6 34 6"></polygon>
                <polygon id="Fill-213" points="34 6.49414 34.49414 6.49414 34.49414 6 34 6"></polygon>
                <polygon id="Fill-214" points="32 9.49414 32.49414 9.49414 32.49414 9 32 9"></polygon>
                <polygon id="Fill-215" points="32 8.49414 32.49414 8.49414 32.49414 8 32 8"></polygon>
                <polygon id="Fill-216" points="33 8.49414 33.49414 8.49414 33.49414 8 33 8"></polygon>
                <polygon id="Fill-217" points="33 7.49414 33.49414 7.49414 33.49414 7 33 7"></polygon>
                <polygon id="Fill-218" points="34 7.49414 34.49414 7.49414 34.49414 7 34 7"></polygon>
                <polygon id="Fill-219" points="34 7.49414 34.49414 7.49414 34.49414 7 34 7"></polygon>
                <polygon id="Fill-220" points="35 6.49414 35.49414 6.49414 35.49414 6 35 6"></polygon>
                <polygon id="Fill-221" points="32 9.49414 32.49414 9.49414 32.49414 9 32 9"></polygon>
                <polygon id="Fill-222" points="33 9.49414 33.49414 9.49414 33.49414 9 33 9"></polygon>
                <polygon id="Fill-223" points="33 8.49414 33.49414 8.49414 33.49414 8 33 8"></polygon>
                <polygon id="Fill-224" points="34 8.49414 34.49414 8.49414 34.49414 8 34 8"></polygon>
                <polygon id="Fill-225" points="34 7.49414 34.49414 7.49414 34.49414 7 34 7"></polygon>
                <polygon id="Fill-226" points="35 7.49414 35.49414 7.49414 35.49414 7 35 7"></polygon>
                <polygon id="Fill-227" points="35 7.49414 35.49414 7.49414 35.49414 7 35 7"></polygon>
                <polygon id="Fill-228" points="33 10.49414 33.49414 10.49414 33.49414 10 33 10"></polygon>
                <polygon id="Fill-229" points="33 9.49414 33.49414 9.49414 33.49414 9 33 9"></polygon>
                <polygon id="Fill-230" points="34 9.49414 34.49414 9.49414 34.49414 9 34 9"></polygon>
                <polygon id="Fill-231" points="34 8.49414 34.49414 8.49414 34.49414 8 34 8"></polygon>
                <polygon id="Fill-232" points="35 8.49414 35.49414 8.49414 35.49414 8 35 8"></polygon>
                <polygon id="Fill-233" points="35 7.49414 35.49414 7.49414 35.49414 7 35 7"></polygon>
                <polygon id="Fill-234" points="36 7.49414 36.49414 7.49414 36.49414 7 36 7"></polygon>
                <polygon id="Fill-235" points="33 10.49414 33.49414 10.49414 33.49414 10 33 10"></polygon>
                <polygon id="Fill-236" points="34 10.49414 34.49414 10.49414 34.49414 10 34 10"></polygon>
                <polygon id="Fill-237" points="34 9.49414 34.49414 9.49414 34.49414 9 34 9"></polygon>
                <polygon id="Fill-238" points="35 9.49414 35.49414 9.49414 35.49414 9 35 9"></polygon>
                <polygon id="Fill-239" points="35 8.49414 35.49414 8.49414 35.49414 8 35 8"></polygon>
                <polygon id="Fill-240" points="36 8.49414 36.49414 8.49414 36.49414 8 36 8"></polygon>
                <polygon id="Fill-241" points="34 11.49414 34.49414 11.49414 34.49414 11 34 11"></polygon>
                <polygon id="Fill-242" points="34 10.49414 34.49414 10.49414 34.49414 10 34 10"></polygon>
                <polygon id="Fill-243" points="35 10.49414 35.49414 10.49414 35.49414 10 35 10"></polygon>
                <polygon id="Fill-244" points="35 9.49414 35.49414 9.49414 35.49414 9 35 9"></polygon>
                <polygon id="Fill-245" points="36 9.49414 36.49414 9.49414 36.49414 9 36 9"></polygon>
                <polygon id="Fill-246" points="36 8.49414 36.49414 8.49414 36.49414 8 36 8"></polygon>
                <polygon id="Fill-247" points="34 11.49414 34.49414 11.49414 34.49414 11 34 11"></polygon>
                <polygon id="Fill-248" points="35 11.49414 35.49414 11.49414 35.49414 11 35 11"></polygon>
                <polygon id="Fill-249" points="35 10.49414 35.49414 10.49414 35.49414 10 35 10"></polygon>
                <polygon id="Fill-250" points="36 10.49414 36.49414 10.49414 36.49414 10 36 10"></polygon>
                <polygon id="Fill-251" points="36 9.49414 36.49414 9.49414 36.49414 9 36 9"></polygon>
                <polygon id="Fill-252" points="35 11.49414 35.49414 11.49414 35.49414 11 35 11"></polygon>
                <polygon id="Fill-253" points="35 11.49414 35.49414 11.49414 35.49414 11 35 11"></polygon>
                <polygon id="Fill-254" points="36 11.49414 36.49414 11.49414 36.49414 11 36 11"></polygon>
                <polygon id="Fill-255" points="36 10.49414 36.49414 10.49414 36.49414 10 36 10"></polygon>
                <polygon id="Fill-256" points="36 10.49414 36.49414 10.49414 36.49414 10 36 10"></polygon>
                <polygon id="Fill-257" points="35 12.49414 35.49414 12.49414 35.49414 12 35 12"></polygon>
                <polygon id="Fill-258" points="36 11.49414 36.49414 11.49414 36.49414 11 36 11"></polygon>
                <polygon id="Fill-259" points="36 11.49414 36.49414 11.49414 36.49414 11 36 11"></polygon>
                <polygon id="Fill-260" points="36 11.49414 36.49414 11.49414 36.49414 11 36 11"></polygon>
                <polygon id="Fill-261" points="36 12.49414 36.49414 12.49414 36.49414 12 36 12"></polygon>
                <polygon id="Fill-262" points="36 12.49414 36.49414 12.49414 36.49414 12 36 12"></polygon>
                <polygon id="Fill-263" points="36 11.49414 36.49414 11.49414 36.49414 11 36 11"></polygon>
                <polygon id="Fill-264" points="36 13.49414 36.49414 13.49414 36.49414 13 36 13"></polygon>
                <polygon id="Fill-265" points="36 12.49414 36.49414 12.49414 36.49414 12 36 12"></polygon>
                <polygon id="Fill-266" points="25 2.49414 25.49414 2.49414 25.49414 2 25 2"></polygon>
                <polygon id="Fill-267" points="25 3.49414 25.49414 3.49414 25.49414 3 25 3"></polygon>
                <polygon id="Fill-268" points="25 3.49414 25.49414 3.49414 25.49414 3 25 3"></polygon>
                <polygon id="Fill-269" points="26 3.49414 26.49414 3.49414 26.49414 3 26 3"></polygon>
                <polygon id="Fill-270" points="26 4.49414 26.49414 4.49414 26.49414 4 26 4"></polygon>
                <polygon id="Fill-271" points="27 4.49414 27.49414 4.49414 27.49414 4 27 4"></polygon>
                <polygon id="Fill-272" points="27 5.49414 27.49414 5.49414 27.49414 5 27 5"></polygon>
                <polygon id="Fill-273" points="28 5.49414 28.49414 5.49414 28.49414 5 28 5"></polygon>
                <polygon id="Fill-274" points="28 6.49414 28.49414 6.49414 28.49414 6 28 6"></polygon>
                <polygon id="Fill-275" points="29 6.49414 29.49414 6.49414 29.49414 6 29 6"></polygon>
                <polygon id="Fill-276" points="29 7.49414 29.49414 7.49414 29.49414 7 29 7"></polygon>
                <polygon id="Fill-277" points="29 7.49414 29.49414 7.49414 29.49414 7 29 7"></polygon>
                <polygon id="Fill-278" points="30 7.49414 30.49414 7.49414 30.49414 7 30 7"></polygon>
                <polygon id="Fill-279" points="30 8.49414 30.49414 8.49414 30.49414 8 30 8"></polygon>
                <polygon id="Fill-280" points="31 8.49414 31.49414 8.49414 31.49414 8 31 8"></polygon>
                <polygon id="Fill-281" points="31 9.49414 31.49414 9.49414 31.49414 9 31 9"></polygon>
                <polygon id="Fill-282" points="32 9.49414 32.49414 9.49414 32.49414 9 32 9"></polygon>
                <polygon id="Fill-283" points="32 10.49414 32.49414 10.49414 32.49414 10 32 10"></polygon>
                <polygon id="Fill-284" points="32 10.49414 32.49414 10.49414 32.49414 10 32 10"></polygon>
                <polygon id="Fill-285" points="33 11.49414 33.49414 11.49414 33.49414 11 33 11"></polygon>
                <polygon id="Fill-286" points="33 11.49414 33.49414 11.49414 33.49414 11 33 11"></polygon>
                <polygon id="Fill-287" points="34 11.49414 34.49414 11.49414 34.49414 11 34 11"></polygon>
                <polygon id="Fill-288" points="34 12.49414 34.49414 12.49414 34.49414 12 34 12"></polygon>
                <polygon id="Fill-289" points="35 12.49414 35.49414 12.49414 35.49414 12 35 12"></polygon>
                <polygon id="Fill-290" points="35 13.49414 35.49414 13.49414 35.49414 13 35 13"></polygon>
            </g>
        </g>
        <g id="Page"></g>
    </g>
</svg>