<?xml version="1.0" encoding="UTF-8"?>
<svg width="16px" height="16px" viewBox="0 0 16 16" version="1.1" xmlns="http://www.w3.org/2000/svg" xmlns:xlink="http://www.w3.org/1999/xlink">
    <!-- Generator: sketchtool 52.5 (67469) - http://www.bohemiancoding.com/sketch -->
    <title>1E1C2248-9A68-48F1-BC92-1C2AE5678F84</title>
    <desc>Created with sketchtool.</desc>
    <g id="Main_nav" stroke="none" stroke-width="1" fill="none" fill-rule="evenodd">
        <g id="Analiza-Page" transform="translate(-974.000000, -195.000000)" fill="#646464">
            <path d="M988.568401,198.109559 L988.568401,195.618047 C988.568401,195.276831 988.296273,195 987.960865,195 L976.037758,195 C975.70235,195 975.430222,195.276831 975.430222,195.618047 L975.430222,198.109559 C974.626492,198.206131 974,198.894973 974,199.73836 L974,205.849609 C974,206.758962 974.726209,207.497734 975.620097,207.497734 L977.376242,207.497734 L977.376242,210.381953 C977.376242,210.723164 977.648366,211 977.983779,211 L986.218733,211 C986.554142,211 986.82627,210.723164 986.82627,210.381953 L986.82627,207.497734 L988.379903,207.497734 C989.273791,207.497734 990,206.758962 990,205.849609 L989.99842,199.73836 C989.99842,198.894973 989.371888,198.206098 988.568199,198.109559 L988.568401,198.109559 Z M976.645295,196.236094 L987.353328,196.236094 L987.353328,198.090235 L976.645295,198.090235 L976.645295,196.236094 Z M985.609698,209.762258 L978.591437,209.762258 L978.591437,205.368356 L985.611318,205.368356 L985.609698,209.762258 Z M988.783428,205.84796 C988.783428,206.074899 988.601483,206.259992 988.378404,206.259992 L986.824771,206.259992 L986.824771,205.368315 L987.095315,205.368315 C987.430724,205.368315 987.702852,205.091479 987.702852,204.750268 C987.702852,204.409056 987.430724,204.132221 987.095315,204.132221 L976.901663,204.132221 C976.566254,204.132221 976.294127,204.409056 976.294127,204.750268 C976.294127,205.091479 976.566254,205.368315 976.901663,205.368315 L977.374732,205.368315 L977.374732,206.259992 L975.620166,206.259992 C975.397087,206.259992 975.215142,206.074899 975.215142,205.84796 L975.215142,199.73836 C975.215142,199.511422 975.397087,199.326329 975.620166,199.326329 L988.378432,199.326329 C988.601512,199.326329 988.783457,199.511422 988.783457,199.73836 L988.783428,205.84796 Z M986.414968,200.304903 C985.704596,200.304903 985.125532,200.893984 985.125532,201.616646 C985.125532,202.339308 985.704596,202.928389 986.414968,202.928389 C987.12534,202.928389 987.704403,202.339308 987.704403,201.616646 C987.704403,200.892377 987.12534,200.304903 986.414968,200.304903 Z M983.239658,200.304903 C982.529286,200.304903 981.951802,200.893984 981.951802,201.616646 C981.951802,202.339308 982.529286,202.928389 983.239658,202.928389 C983.95003,202.928389 984.529093,202.339308 984.529093,201.616646 C984.527514,200.892377 983.948451,200.304903 983.239658,200.304903 Z" id="stampaj"></path>
        </g>
        <g id="Page"></g>
    </g>
</svg>