<svg xmlns="http://www.w3.org/2000/svg" width="15.832" height="20" viewBox="0 0 15.832 20">
  <g id="icon_stres" transform="translate(-6.498 -3.999)">
    <path id="Path_1088" data-name="Path 1088" d="M10.666,24a.833.833,0,0,1-.792-1.1l2.133-6.4H7.333A.832.832,0,0,1,6.7,15.124L15.866,4.291a.835.835,0,0,1,1.45.725L15.874,11.5H21.5a.838.838,0,0,1,.592,1.425L11.258,23.757A.833.833,0,0,1,10.666,24ZM9.133,14.832h4.033a.84.84,0,0,1,.792,1.1L12.574,20.1l6.916-6.916H14.833a.834.834,0,0,1-.817-1.017L14.949,8Z" transform="translate(0 0)" fill="#1d88e5"/>
  </g>
</svg>
