<svg xmlns="http://www.w3.org/2000/svg" width="18.75" height="20.205" viewBox="0 0 18.75 20.205">
  <path id="icon_secer" d="M3.672,18.229l7.2,4.053a1.693,1.693,0,0,0,1.719,0l7.207-4.053a2.952,2.952,0,0,0,.977-.85,2.592,2.592,0,0,0,.332-1.465v-7.4A2.381,2.381,0,0,0,20.82,7.3a2.3,2.3,0,0,0-.889-.83l-6.5-3.682a3.256,3.256,0,0,0-3.4,0L3.516,6.471a2.257,2.257,0,0,0-.884.83,2.414,2.414,0,0,0-.278,1.211v7.4a2.592,2.592,0,0,0,.332,1.465A2.929,2.929,0,0,0,3.672,18.229Zm.918-1.338a1.529,1.529,0,0,1-.532-.464A1.138,1.138,0,0,1,3.9,15.8V8.971l7.031,3.994v7.51Zm14.268,0-6.328,3.584v-7.51l7.031-3.994V15.8a1.166,1.166,0,0,1-.156.63A1.453,1.453,0,0,1,18.857,16.891Zm-7.129-5.352L4.775,7.623l5.938-3.369a1.907,1.907,0,0,1,2.031,0l5.938,3.369Z" transform="translate(-2.354 -2.311)" fill="#2680eb"/>
</svg>
