<?xml version="1.0" encoding="UTF-8"?>
<svg width="20px" height="18px" viewBox="0 0 20 18" version="1.1" xmlns="http://www.w3.org/2000/svg" xmlns:xlink="http://www.w3.org/1999/xlink">
    <!-- Generator: sketchtool 52.3 (67297) - http://www.bohemiancoding.com/sketch -->
    <title>20191663-2F41-415F-A49D-3A21DFCAC72B</title>
    <desc>Created with sketchtool.</desc>
    <g id="Main_nav" stroke="none" stroke-width="1" fill="none" fill-rule="evenodd">
        <g id="Home" transform="translate(-1032.000000, -37.000000)" fill="#FFFFFF">
            <g id="Group-5" transform="translate(1032.000000, 37.000000)">
                <g id="sveLab">
                    <polygon id="Fill-1" points="3.78184211 15.4506857 5.21686842 17.7981171 0.0576578947 17.7981171 0.738157895 10.4716029"></polygon>
                    <polygon id="Fill-2" points="16.1102632 15.5882571 19.7347368 15.5882571 19.9423842 17.7980914 17.6037789 17.7980914"></polygon>
                    <path d="M7.81052632,9.59554286 C6.95321053,7.97433429 6.32615789,6.4134 6.32615789,5.36965714 C6.32615789,3.93729429 6.90078947,2.64342857 7.83005263,1.71128571 C11.0374211,-1.51997143 16.5563684,0.774128571 16.5563684,5.36965714 C16.5563684,7.95522857 12.8566316,13.3912286 11.4411053,15.2305714 C10.4203421,13.9077 8.92671053,11.7169714 7.81031579,9.59554286 L7.81052632,9.59554286 Z M11.4402632,2.4066 C10.0216842,2.4066 8.82513158,3.49845429 8.82513158,4.8816 C8.82513158,7.06731429 11.6282895,8.1882 13.2825,6.63739714 C14.9406053,5.08147714 13.7574211,2.40662571 11.4403947,2.40662571 L11.4402632,2.4066 Z" id="Fill-3"></path>
                    <polygon id="Fill-4" points="15.1542105 11.5814571 16.3620526 9.3636 19.1602105 9.37163571 19.3647737 11.58147"></polygon>
                    <path d="M14.3184211,12.9324857 C14.3872947,12.8240023 14.4561684,12.7165269 14.5260684,12.6060429 L19.4613316,12.6110649 L19.6412237,14.5617249 L15.4162237,14.5617249 L14.3184211,12.9324857 Z" id="Fill-5"></path>
                    <path d="M8.11684211,12.2243143 C9.17563158,13.9399457 10.3012632,15.4959429 11.0260526,16.3797429 C11.2337,16.6388914 11.6366579,16.64694 11.8504737,16.3877786 C12.3346316,15.8011843 12.9956316,14.91021 13.6977105,13.8726129 L16.3487632,17.7981557 L6.43928947,17.7981557 L4.88810526,15.2608757 L8.11684211,12.2243143 Z" id="Fill-6"></path>
                    <polygon id="Fill-7" points="6.51921053 9.3636 7.57184211 11.31426 4.33473684 14.3588314 1.28473684 9.37154571"></polygon>
                </g>
            </g>
        </g>
        <g id="Page"></g>
    </g>
</svg>