<?xml version="1.0" encoding="utf-8"?>
<!-- Generator: Adobe Illustrator 23.0.1, SVG Export Plug-In . SVG Version: 6.00 Build 0)  -->
<svg version="1.1" id="Layer_1" xmlns="http://www.w3.org/2000/svg" xmlns:xlink="http://www.w3.org/1999/xlink" x="0px" y="0px"
	 viewBox="0 0 819.15 443.47" style="enable-background:new 0 0 819.15 443.47;" xml:space="preserve">
<style type="text/css">
	.st0{opacity:0.2;fill:#FD8308;}
	.st1{opacity:0.15;fill:#FD8308;}
	.st2{opacity:0.6;}
	.st3{fill:#FD8308;}
	.st4{fill:none;stroke:#FD8308;stroke-width:4;stroke-miterlimit:10;}
	.st5{fill:#6D6F72;}
	.st6{fill:#FFFFFF;}
	.st7{fill:#601AFF;}
</style>
<path class="st0" d="M787.13,441.47H33.19c-16.58,0-30.02-13.44-30.02-30.02V32.02C3.17,15.44,16.61,2,33.19,2h753.94
	c16.58,0,30.02,13.44,30.02,30.02v379.43C817.15,428.03,803.71,441.47,787.13,441.47z"/>
<polygon class="st1" points="324.8,440.49 463.26,328.01 657.51,301.12 816.63,203.31 816.63,440.49 "/>
<path class="st0" d="M388.9,440.49l120.41-53.34l168.93-12.76l138.38-46.38v77.42c0,19.36-15.69,35.06-35.06,35.06H388.9z"/>
<g class="st2">
	<path class="st3" d="M3.49,69.53V32.02C3.49,15.44,16.93,2,33.51,2h753.94c16.58,0,30.02,13.44,30.02,30.02v37.51"/>
	<line class="st3" x1="3.49" y1="69.53" x2="817.47" y2="69.53"/>
	<line class="st3" x1="3.49" y1="69.53" x2="3.24" y2="69.53"/>
</g>
<path class="st4" d="M787.13,441.47H33.19c-16.58,0-30.02-13.44-30.02-30.02V32.02C3.17,15.44,16.61,2,33.19,2h753.94
	c16.58,0,30.02,13.44,30.02,30.02v379.43C817.15,428.03,803.71,441.47,787.13,441.47z"/>
<line class="st4" x1="287.41" y1="3.01" x2="287.41" y2="441.47"/>
<line class="st4" x1="817.15" y1="69.53" x2="2.92" y2="69.53"/>
<line class="st4" x1="817.15" y1="115.05" x2="2.92" y2="115.05"/>
<line class="st4" x1="817.15" y1="160.57" x2="2.92" y2="160.57"/>
<line class="st4" x1="817.15" y1="206.08" x2="2.92" y2="206.08"/>
<line class="st4" x1="817.15" y1="251.6" x2="2.92" y2="251.6"/>
<line class="st4" x1="817.15" y1="342.64" x2="2.92" y2="342.64"/>
<line class="st4" x1="817.15" y1="297.12" x2="2.92" y2="297.12"/>
<line class="st4" x1="817.15" y1="388.15" x2="2.92" y2="388.15"/>
<g>
	<g>
		<path class="st5" d="M120.24,86.01h1.98l4.66,13.78h-1.86l-2.4-7.7c-0.5-1.54-0.94-3.05-1.38-4.64h-0.08
			c-0.43,1.6-0.87,3.1-1.36,4.64l-2.43,7.7h-1.78L120.24,86.01z M118.03,94.19h6.35v1.4h-6.35V94.19z"/>
		<path class="st5" d="M131.98,86.01h4.32c2.81,0,4.82,1.01,4.82,3.88c0,2.75-2.02,4.08-4.82,4.08h-2.56v5.82h-1.75V86.01z
			 M136.04,92.54c2.14,0,3.32-0.87,3.32-2.65c0-1.81-1.18-2.46-3.32-2.46h-2.31v5.11H136.04z M135.95,93.48l1.37-0.91l4.2,7.21
			h-1.99L135.95,93.48z"/>
		<path class="st5" d="M143.24,84.83h1.73v4.09l-0.06,2.1c0.95-0.92,1.99-1.69,3.39-1.69c2.15,0,3.12,1.39,3.12,3.99v6.47h-1.73
			v-6.24c0-1.9-0.57-2.71-1.93-2.71c-1.04,0-1.77,0.53-2.79,1.57v7.39h-1.73V84.83z"/>
		<path class="st5" d="M157.81,93.95c0-3.7,1.03-6.72,2.77-9.54l1.07,0.5c-1.62,2.68-2.41,5.85-2.41,9.04s0.79,6.36,2.41,9.04
			l-1.07,0.5C158.84,100.67,157.81,97.65,157.81,93.95z"/>
		<path class="st5" d="M166.46,93.51h-3.81v-1.3h3.81v-4.1h1.38v4.1h3.81v1.3h-3.81v4.1h-1.38V93.51z"/>
		<path class="st5" d="M172.64,102.99c1.62-2.68,2.41-5.85,2.41-9.04s-0.79-6.36-2.41-9.04l1.07-0.5c1.74,2.82,2.77,5.84,2.77,9.54
			s-1.03,6.72-2.77,9.54L172.64,102.99z"/>
	</g>
</g>
<g>
	<g>
		<path class="st5" d="M122.19,131.1h1.98l4.66,13.78h-1.86l-2.4-7.7c-0.5-1.54-0.94-3.05-1.38-4.64h-0.08
			c-0.43,1.6-0.87,3.1-1.36,4.64l-2.43,7.7h-1.78L122.19,131.1z M119.98,139.28h6.35v1.4h-6.35V139.28z"/>
		<path class="st5" d="M133.93,131.1h4.32c2.81,0,4.82,1.01,4.82,3.88c0,2.75-2.02,4.08-4.82,4.08h-2.56v5.82h-1.75V131.1z
			 M137.99,137.63c2.14,0,3.32-0.87,3.32-2.65c0-1.81-1.18-2.46-3.32-2.46h-2.31v5.11H137.99z M137.9,138.57l1.37-0.91l4.2,7.21
			h-1.99L137.9,138.57z"/>
		<path class="st5" d="M145.19,129.92h1.73v4.09l-0.06,2.1c0.95-0.92,1.99-1.69,3.39-1.69c2.15,0,3.12,1.39,3.12,3.99v6.47h-1.73
			v-6.24c0-1.9-0.57-2.71-1.93-2.71c-1.04,0-1.77,0.53-2.79,1.57v7.39h-1.73V129.92z"/>
		<path class="st5" d="M159.76,139.04c0-3.7,1.03-6.72,2.77-9.54l1.07,0.5c-1.62,2.68-2.41,5.85-2.41,9.04s0.79,6.36,2.41,9.04
			l-1.07,0.5C160.8,145.76,159.76,142.74,159.76,139.04z"/>
		<path class="st5" d="M164.75,138.95h4.81v1.33h-4.81V138.95z"/>
		<path class="st5" d="M170.69,148.08c1.62-2.68,2.41-5.85,2.41-9.04s-0.79-6.36-2.41-9.04l1.07-0.5c1.74,2.82,2.77,5.84,2.77,9.54
			s-1.03,6.72-2.77,9.54L170.69,148.08z"/>
	</g>
</g>
<g>
	<g>
		<path class="st5" d="M115.1,176.17h4.09c2.8,0,4.74,0.95,4.74,3.38c0,1.36-0.72,2.57-2.01,2.99v0.08c1.65,0.32,2.8,1.41,2.8,3.3
			c0,2.71-2.14,4.03-5.22,4.03h-4.4V176.17z M118.9,182.04c2.34,0,3.31-0.86,3.31-2.26c0-1.61-1.1-2.21-3.23-2.21h-2.12v4.47H118.9z
			 M119.26,188.56c2.36,0,3.74-0.85,3.74-2.71c0-1.7-1.33-2.47-3.74-2.47h-2.4v5.18H119.26z"/>
		<path class="st5" d="M131.65,176.17h4.32c2.81,0,4.82,1.01,4.82,3.88c0,2.75-2.02,4.08-4.82,4.08h-2.56v5.82h-1.75V176.17z
			 M135.72,182.71c2.14,0,3.32-0.87,3.32-2.65c0-1.81-1.18-2.46-3.32-2.46h-2.31v5.11H135.72z M135.62,183.65l1.37-0.91l4.2,7.21
			h-1.99L135.62,183.65z"/>
		<path class="st5" d="M143.44,175h1.73v4.09l-0.06,2.1c0.95-0.92,1.99-1.69,3.39-1.69c2.15,0,3.12,1.39,3.12,3.99v6.47h-1.73v-6.24
			c0-1.9-0.57-2.71-1.93-2.71c-1.04,0-1.77,0.53-2.79,1.57v7.39h-1.73V175z"/>
		<path class="st5" d="M159.06,184.12c0-3.7,1.03-6.72,2.77-9.54l1.07,0.5c-1.62,2.68-2.41,5.85-2.41,9.04s0.79,6.36,2.41,9.04
			l-1.07,0.5C160.09,190.84,159.06,187.81,159.06,184.12z"/>
		<path class="st5" d="M168.23,183.67h-3.81v-1.3h3.81v-4.1h1.38v4.1h3.81v1.3h-3.81v4.1h-1.38V183.67z"/>
		<path class="st5" d="M174.94,193.15c1.62-2.68,2.41-5.85,2.41-9.04s-0.79-6.36-2.41-9.04l1.07-0.5c1.74,2.82,2.77,5.84,2.77,9.54
			s-1.03,6.72-2.77,9.54L174.94,193.15z"/>
	</g>
</g>
<g>
	<g>
		<path class="st5" d="M117.06,221.26h4.09c2.8,0,4.74,0.95,4.74,3.38c0,1.36-0.72,2.57-2.01,2.99v0.08c1.65,0.32,2.8,1.41,2.8,3.3
			c0,2.71-2.14,4.03-5.22,4.03h-4.4V221.26z M120.85,227.13c2.34,0,3.31-0.86,3.31-2.26c0-1.61-1.1-2.21-3.23-2.21h-2.12v4.47
			H120.85z M121.21,233.65c2.36,0,3.74-0.85,3.74-2.71c0-1.7-1.33-2.47-3.74-2.47h-2.4v5.18H121.21z"/>
		<path class="st5" d="M133.6,221.26h4.32c2.81,0,4.82,1.01,4.82,3.88c0,2.75-2.02,4.08-4.82,4.08h-2.56v5.82h-1.75V221.26z
			 M137.67,227.8c2.14,0,3.32-0.87,3.32-2.65c0-1.81-1.18-2.46-3.32-2.46h-2.31v5.11H137.67z M137.58,228.74l1.37-0.91l4.2,7.21
			h-1.99L137.58,228.74z"/>
		<path class="st5" d="M145.39,220.09h1.73v4.09l-0.06,2.1c0.95-0.92,1.99-1.69,3.39-1.69c2.15,0,3.12,1.39,3.12,3.99v6.47h-1.73
			v-6.24c0-1.9-0.57-2.71-1.93-2.71c-1.04,0-1.77,0.53-2.79,1.57v7.39h-1.73V220.09z"/>
		<path class="st5" d="M161.01,229.21c0-3.7,1.03-6.72,2.77-9.54l1.07,0.5c-1.62,2.68-2.41,5.85-2.41,9.04s0.79,6.36,2.41,9.04
			l-1.07,0.5C162.05,235.93,161.01,232.9,161.01,229.21z"/>
		<path class="st5" d="M166.53,229.12h4.81v1.33h-4.81V229.12z"/>
		<path class="st5" d="M172.99,238.25c1.62-2.68,2.41-5.85,2.41-9.04s-0.79-6.36-2.41-9.04l1.07-0.5c1.74,2.82,2.77,5.84,2.77,9.54
			s-1.03,6.72-2.77,9.54L172.99,238.25z"/>
	</g>
</g>
<g>
	<g>
		<path class="st5" d="M112.23,267.35h1.98l4.66,13.78h-1.86l-2.4-7.7c-0.5-1.54-0.94-3.05-1.38-4.64h-0.08
			c-0.43,1.6-0.87,3.1-1.36,4.64l-2.43,7.7h-1.78L112.23,267.35z M110.01,275.54h6.35v1.4h-6.35V275.54z"/>
		<path class="st5" d="M120.82,267.35h4.09c2.8,0,4.74,0.95,4.74,3.38c0,1.36-0.72,2.57-2.01,2.99v0.08c1.65,0.32,2.8,1.41,2.8,3.3
			c0,2.71-2.14,4.03-5.22,4.03h-4.4V267.35z M124.61,273.22c2.34,0,3.31-0.86,3.31-2.26c0-1.61-1.1-2.21-3.23-2.21h-2.12v4.47
			H124.61z M124.97,279.74c2.36,0,3.74-0.85,3.74-2.71c0-1.7-1.33-2.47-3.74-2.47h-2.4v5.18H124.97z"/>
		<path class="st5" d="M137.36,267.35h4.32c2.81,0,4.82,1.01,4.82,3.88c0,2.75-2.02,4.08-4.82,4.08h-2.56v5.82h-1.75V267.35z
			 M141.43,273.89c2.14,0,3.32-0.87,3.32-2.65c0-1.81-1.18-2.46-3.32-2.46h-2.31v5.11H141.43z M141.33,274.83l1.37-0.91l4.2,7.21
			h-1.99L141.33,274.83z"/>
		<path class="st5" d="M149.15,266.18h1.73v4.09l-0.06,2.1c0.95-0.92,1.99-1.69,3.39-1.69c2.15,0,3.12,1.39,3.12,3.99v6.47h-1.73
			v-6.24c0-1.9-0.57-2.71-1.93-2.71c-1.04,0-1.77,0.53-2.79,1.57v7.39h-1.73V266.18z"/>
		<path class="st5" d="M164.77,275.3c0-3.7,1.03-6.72,2.77-9.54l1.07,0.5c-1.62,2.68-2.41,5.85-2.41,9.04s0.79,6.36,2.41,9.04
			l-1.07,0.5C165.81,282.02,164.77,278.99,164.77,275.3z"/>
		<path class="st5" d="M173.94,274.86h-3.81v-1.3h3.81v-4.1h1.38v4.1h3.81v1.3h-3.81v4.1h-1.38V274.86z"/>
		<path class="st5" d="M180.65,284.34c1.62-2.68,2.41-5.85,2.41-9.04s-0.79-6.36-2.41-9.04l1.07-0.5c1.74,2.82,2.77,5.84,2.77,9.54
			s-1.03,6.72-2.77,9.54L180.65,284.34z"/>
	</g>
</g>
<g>
	<g>
		<path class="st5" d="M114.18,312.44h1.98l4.66,13.78h-1.86l-2.4-7.7c-0.5-1.54-0.94-3.05-1.38-4.64h-0.08
			c-0.43,1.6-0.87,3.1-1.36,4.64l-2.43,7.7h-1.78L114.18,312.44z M111.97,320.63h6.35v1.4h-6.35V320.63z"/>
		<path class="st5" d="M122.77,312.44h4.09c2.8,0,4.74,0.95,4.74,3.38c0,1.36-0.72,2.57-2.01,2.99v0.08c1.65,0.32,2.8,1.41,2.8,3.3
			c0,2.71-2.14,4.03-5.22,4.03h-4.4V312.44z M126.56,318.31c2.34,0,3.31-0.86,3.31-2.26c0-1.61-1.1-2.21-3.23-2.21h-2.12v4.47
			H126.56z M126.92,324.83c2.36,0,3.74-0.85,3.74-2.71c0-1.7-1.33-2.47-3.74-2.47h-2.4v5.18H126.92z"/>
		<path class="st5" d="M139.32,312.44h4.32c2.81,0,4.82,1.01,4.82,3.88c0,2.75-2.02,4.08-4.82,4.08h-2.56v5.82h-1.75V312.44z
			 M143.38,318.98c2.14,0,3.32-0.87,3.32-2.65c0-1.81-1.18-2.46-3.32-2.46h-2.31v5.11H143.38z M143.29,319.92l1.37-0.91l4.2,7.21
			h-1.99L143.29,319.92z"/>
		<path class="st5" d="M151.1,311.27h1.73v4.09l-0.06,2.1c0.95-0.92,1.99-1.69,3.39-1.69c2.15,0,3.12,1.39,3.12,3.99v6.47h-1.73
			v-6.24c0-1.9-0.57-2.71-1.93-2.71c-1.04,0-1.77,0.53-2.79,1.57v7.39h-1.73V311.27z"/>
		<path class="st5" d="M166.73,320.39c0-3.7,1.03-6.72,2.77-9.54l1.07,0.5c-1.62,2.68-2.41,5.85-2.41,9.04s0.79,6.36,2.41,9.04
			l-1.07,0.5C167.76,327.11,166.73,324.08,166.73,320.39z"/>
		<path class="st5" d="M172.24,320.3h4.81v1.33h-4.81V320.3z"/>
		<path class="st5" d="M178.7,329.43c1.62-2.68,2.41-5.85,2.41-9.04s-0.79-6.36-2.41-9.04l1.07-0.5c1.74,2.82,2.77,5.84,2.77,9.54
			s-1.03,6.72-2.77,9.54L178.7,329.43z"/>
	</g>
</g>
<g>
	<g>
		<path class="st5" d="M113.51,365.38c0-4.41,2.43-7.09,5.89-7.09s5.89,2.69,5.89,7.09c0,4.41-2.43,7.19-5.89,7.19
			S113.51,369.79,113.51,365.38z M123.47,365.38c0-3.43-1.62-5.55-4.08-5.55s-4.08,2.12-4.08,5.55c0,3.43,1.62,5.65,4.08,5.65
			S123.47,368.81,123.47,365.38z"/>
		<path class="st5" d="M132.45,358.54h4.32c2.81,0,4.82,1.01,4.82,3.88c0,2.75-2.02,4.08-4.82,4.08h-2.56v5.82h-1.75V358.54z
			 M136.51,365.07c2.14,0,3.32-0.87,3.32-2.65c0-1.81-1.18-2.46-3.32-2.46h-2.31v5.11H136.51z M136.42,366.01l1.37-0.91l4.2,7.21
			h-1.99L136.42,366.01z"/>
		<path class="st5" d="M144.24,357.36h1.73v4.09l-0.06,2.1c0.95-0.92,1.99-1.69,3.39-1.69c2.15,0,3.12,1.39,3.12,3.99v6.47h-1.73
			v-6.24c0-1.9-0.57-2.71-1.93-2.71c-1.04,0-1.77,0.53-2.79,1.57v7.39h-1.73V357.36z"/>
		<path class="st5" d="M159.86,366.48c0-3.7,1.03-6.72,2.77-9.54l1.07,0.5c-1.62,2.68-2.41,5.85-2.41,9.04s0.79,6.36,2.41,9.04
			l-1.07,0.5C160.89,373.2,159.86,370.17,159.86,366.48z"/>
		<path class="st5" d="M169.03,366.04h-3.81v-1.3h3.81v-4.1h1.38v4.1h3.81v1.3h-3.81v4.1h-1.38V366.04z"/>
		<path class="st5" d="M175.74,375.52c1.62-2.68,2.41-5.85,2.41-9.04s-0.79-6.36-2.41-9.04l1.07-0.5c1.74,2.82,2.77,5.84,2.77,9.54
			s-1.03,6.72-2.77,9.54L175.74,375.52z"/>
	</g>
</g>
<g>
	<g>
		<path class="st5" d="M115.46,412.47c0-4.41,2.43-7.09,5.89-7.09s5.89,2.69,5.89,7.09c0,4.41-2.43,7.19-5.89,7.19
			S115.46,416.88,115.46,412.47z M125.43,412.47c0-3.43-1.62-5.55-4.08-5.55s-4.08,2.12-4.08,5.55c0,3.43,1.62,5.65,4.08,5.65
			S125.43,415.9,125.43,412.47z"/>
		<path class="st5" d="M134.4,405.63h4.32c2.81,0,4.82,1.01,4.82,3.88c0,2.75-2.02,4.08-4.82,4.08h-2.56v5.82h-1.75V405.63z
			 M138.47,412.16c2.14,0,3.32-0.87,3.32-2.65c0-1.81-1.18-2.46-3.32-2.46h-2.31v5.11H138.47z M138.37,413.1l1.37-0.91l4.2,7.21
			h-1.99L138.37,413.1z"/>
		<path class="st5" d="M146.19,404.45h1.73v4.09l-0.06,2.1c0.95-0.92,1.99-1.69,3.39-1.69c2.15,0,3.12,1.39,3.12,3.99v6.47h-1.73
			v-6.24c0-1.9-0.57-2.71-1.93-2.71c-1.04,0-1.77,0.53-2.79,1.57v7.39h-1.73V404.45z"/>
		<path class="st5" d="M161.81,413.57c0-3.7,1.03-6.72,2.77-9.54l1.07,0.5c-1.62,2.68-2.41,5.85-2.41,9.04s0.79,6.36,2.41,9.04
			l-1.07,0.5C162.85,420.29,161.81,417.26,161.81,413.57z"/>
		<path class="st5" d="M167.33,413.48h4.81v1.33h-4.81V413.48z"/>
		<path class="st5" d="M173.79,422.61c1.62-2.68,2.41-5.85,2.41-9.04s-0.79-6.36-2.41-9.04l1.07-0.5c1.74,2.82,2.77,5.84,2.77,9.54
			s-1.03,6.72-2.77,9.54L173.79,422.61z"/>
	</g>
</g>
<g>
	<g>
		<path class="st5" d="M310.8,86.01h1.98l4.66,13.78h-1.86l-2.4-7.7c-0.5-1.54-0.94-3.05-1.38-4.64h-0.08
			c-0.43,1.6-0.87,3.1-1.36,4.64l-2.43,7.7h-1.78L310.8,86.01z M308.59,94.19h6.35v1.4h-6.35V94.19z"/>
		<path class="st5" d="M322.54,86.01h4.32c2.81,0,4.82,1.01,4.82,3.88c0,2.75-2.02,4.08-4.82,4.08h-2.56v5.82h-1.75V86.01z
			 M326.61,92.54c2.14,0,3.32-0.87,3.32-2.65c0-1.81-1.18-2.46-3.32-2.46h-2.31v5.11H326.61z M326.51,93.48l1.37-0.91l4.2,7.21
			h-1.99L326.51,93.48z"/>
		<path class="st5" d="M333.8,84.83h1.73v4.09l-0.06,2.1c0.95-0.92,1.99-1.69,3.39-1.69c2.15,0,3.12,1.39,3.12,3.99v6.47h-1.73
			v-6.24c0-1.9-0.57-2.71-1.93-2.71c-1.04,0-1.77,0.53-2.79,1.57v7.39h-1.73V84.83z"/>
		<path class="st5" d="M348.38,93.95c0-3.7,1.03-6.72,2.77-9.54l1.07,0.5c-1.62,2.68-2.41,5.85-2.41,9.04s0.79,6.36,2.41,9.04
			l-1.07,0.5C349.41,100.67,348.38,97.65,348.38,93.95z"/>
		<path class="st5" d="M357.02,93.51h-3.81v-1.3h3.81v-4.1h1.38v4.1h3.81v1.3h-3.81v4.1h-1.38V93.51z"/>
		<path class="st5" d="M363.21,102.99c1.62-2.68,2.41-5.85,2.41-9.04s-0.79-6.36-2.41-9.04l1.07-0.5c1.74,2.82,2.77,5.84,2.77,9.54
			s-1.03,6.72-2.77,9.54L363.21,102.99z"/>
		<path class="st5" d="M369.24,102.34c1.18-0.52,1.9-1.45,1.89-2.6l-0.19-1.55l0.85,1.26c-0.23,0.28-0.54,0.36-0.87,0.36
			c-0.67,0-1.25-0.42-1.25-1.2c0-0.75,0.59-1.2,1.28-1.2c0.92,0,1.46,0.77,1.46,2.03c0,1.81-1.06,3.23-2.75,3.93L369.24,102.34z"/>
		<path class="st5" d="M381.34,86.01h1.98l4.66,13.78h-1.86l-2.4-7.7c-0.5-1.54-0.94-3.05-1.38-4.64h-0.08
			c-0.43,1.6-0.87,3.1-1.36,4.64l-2.43,7.7h-1.78L381.34,86.01z M379.13,94.19h6.35v1.4h-6.35V94.19z"/>
		<path class="st5" d="M393.08,86.01h4.32c2.81,0,4.82,1.01,4.82,3.88c0,2.75-2.02,4.08-4.82,4.08h-2.56v5.82h-1.75V86.01z
			 M397.14,92.54c2.14,0,3.32-0.87,3.32-2.65c0-1.81-1.18-2.46-3.32-2.46h-2.31v5.11H397.14z M397.05,93.48l1.37-0.91l4.2,7.21
			h-1.99L397.05,93.48z"/>
		<path class="st5" d="M404.34,84.83h1.73v4.09l-0.06,2.1c0.95-0.92,1.99-1.69,3.39-1.69c2.15,0,3.12,1.39,3.12,3.99v6.47h-1.73
			v-6.24c0-1.9-0.57-2.71-1.93-2.71c-1.04,0-1.77,0.53-2.79,1.57v7.39h-1.73V84.83z"/>
		<path class="st5" d="M415.24,93.95c0-3.7,1.03-6.72,2.77-9.54l1.07,0.5c-1.62,2.68-2.41,5.85-2.41,9.04s0.79,6.36,2.41,9.04
			l-1.07,0.5C416.27,100.67,415.24,97.65,415.24,93.95z"/>
		<path class="st5" d="M420.23,93.86h4.81v1.33h-4.81V93.86z"/>
		<path class="st5" d="M426.16,102.99c1.62-2.68,2.41-5.85,2.41-9.04s-0.79-6.36-2.41-9.04l1.07-0.5c1.74,2.82,2.77,5.84,2.77,9.54
			s-1.03,6.72-2.77,9.54L426.16,102.99z"/>
		<path class="st5" d="M432.19,102.34c1.18-0.52,1.9-1.45,1.89-2.6l-0.19-1.55l0.85,1.26c-0.23,0.28-0.54,0.36-0.87,0.36
			c-0.67,0-1.25-0.42-1.25-1.2c0-0.75,0.59-1.2,1.28-1.2c0.92,0,1.46,0.77,1.46,2.03c0,1.81-1.06,3.23-2.75,3.93L432.19,102.34z"/>
		<path class="st5" d="M440.5,93.04c0-4.49,1.62-6.9,4.29-6.9s4.29,2.42,4.29,6.9c0,4.49-1.62,7-4.29,7S440.5,97.53,440.5,93.04z
			 M447.41,93.04c0-3.93-1.06-5.51-2.62-5.51s-2.62,1.58-2.62,5.51s1.06,5.61,2.62,5.61S447.41,96.97,447.41,93.04z"/>
		<path class="st5" d="M455.05,86.01h4.32c2.81,0,4.82,1.01,4.82,3.88c0,2.75-2.02,4.08-4.82,4.08h-2.56v5.82h-1.75V86.01z
			 M459.11,92.54c2.14,0,3.32-0.87,3.32-2.65c0-1.81-1.18-2.46-3.32-2.46h-2.31v5.11H459.11z M459.02,93.48l1.37-0.91l4.2,7.21
			h-1.99L459.02,93.48z"/>
		<path class="st5" d="M466.31,84.83h1.73v4.09l-0.06,2.1c0.95-0.92,1.99-1.69,3.39-1.69c2.15,0,3.12,1.39,3.12,3.99v6.47h-1.73
			v-6.24c0-1.9-0.57-2.71-1.93-2.71c-1.04,0-1.77,0.53-2.79,1.57v7.39h-1.73V84.83z"/>
		<path class="st5" d="M480.88,93.95c0-3.7,1.03-6.72,2.77-9.54l1.07,0.5c-1.62,2.68-2.41,5.85-2.41,9.04s0.79,6.36,2.41,9.04
			l-1.07,0.5C481.92,100.67,480.88,97.65,480.88,93.95z"/>
		<path class="st5" d="M489.53,93.51h-3.81v-1.3h3.81v-4.1h1.38v4.1h3.81v1.3h-3.81v4.1h-1.38V93.51z"/>
		<path class="st5" d="M495.71,102.99c1.62-2.68,2.41-5.85,2.41-9.04s-0.79-6.36-2.41-9.04l1.07-0.5c1.74,2.82,2.77,5.84,2.77,9.54
			s-1.03,6.72-2.77,9.54L495.71,102.99z"/>
		<path class="st5" d="M501.74,102.34c1.18-0.52,1.9-1.45,1.89-2.6l-0.19-1.55l0.85,1.26c-0.23,0.28-0.54,0.36-0.87,0.36
			c-0.67,0-1.25-0.42-1.25-1.2c0-0.75,0.59-1.2,1.28-1.2c0.92,0,1.46,0.77,1.46,2.03c0,1.81-1.06,3.23-2.75,3.93L501.74,102.34z"/>
		<path class="st5" d="M510.05,93.04c0-4.49,1.62-6.9,4.29-6.9c2.67,0,4.29,2.42,4.29,6.9c0,4.49-1.62,7-4.29,7
			C511.67,100.04,510.05,97.53,510.05,93.04z M516.96,93.04c0-3.93-1.06-5.51-2.62-5.51c-1.56,0-2.62,1.58-2.62,5.51
			s1.06,5.61,2.62,5.61C515.9,98.65,516.96,96.97,516.96,93.04z"/>
		<path class="st5" d="M524.6,86.01h4.32c2.81,0,4.82,1.01,4.82,3.88c0,2.75-2.02,4.08-4.82,4.08h-2.56v5.82h-1.75V86.01z
			 M528.66,92.54c2.14,0,3.32-0.87,3.32-2.65c0-1.81-1.18-2.46-3.32-2.46h-2.31v5.11H528.66z M528.57,93.48l1.37-0.91l4.2,7.21
			h-1.99L528.57,93.48z"/>
		<path class="st5" d="M535.86,84.83h1.73v4.09l-0.06,2.1c0.95-0.92,1.99-1.69,3.39-1.69c2.15,0,3.12,1.39,3.12,3.99v6.47h-1.73
			v-6.24c0-1.9-0.57-2.71-1.93-2.71c-1.04,0-1.77,0.53-2.79,1.57v7.39h-1.73V84.83z"/>
		<path class="st5" d="M550.43,93.95c0-3.7,1.03-6.72,2.77-9.54l1.07,0.5c-1.62,2.68-2.41,5.85-2.41,9.04s0.79,6.36,2.41,9.04
			l-1.07,0.5C551.47,100.67,550.43,97.65,550.43,93.95z"/>
		<path class="st5" d="M555.42,93.86h4.81v1.33h-4.81V93.86z"/>
		<path class="st5" d="M561.36,102.99c1.62-2.68,2.41-5.85,2.41-9.04s-0.79-6.36-2.41-9.04l1.07-0.5c1.74,2.82,2.77,5.84,2.77,9.54
			s-1.03,6.72-2.77,9.54L561.36,102.99z"/>
	</g>
</g>
<g>
	<g>
		<path class="st5" d="M310.8,131.1h1.98l4.66,13.78h-1.86l-2.4-7.7c-0.5-1.54-0.94-3.05-1.38-4.64h-0.08
			c-0.43,1.6-0.87,3.1-1.36,4.64l-2.43,7.7h-1.78L310.8,131.1z M308.59,139.28h6.35v1.4h-6.35V139.28z"/>
		<path class="st5" d="M322.54,131.1h4.32c2.81,0,4.82,1.01,4.82,3.88c0,2.75-2.02,4.08-4.82,4.08h-2.56v5.82h-1.75V131.1z
			 M326.61,137.63c2.14,0,3.32-0.87,3.32-2.65c0-1.81-1.18-2.46-3.32-2.46h-2.31v5.11H326.61z M326.51,138.57l1.37-0.91l4.2,7.21
			h-1.99L326.51,138.57z"/>
		<path class="st5" d="M333.8,129.92h1.73v4.09l-0.06,2.1c0.95-0.92,1.99-1.69,3.39-1.69c2.15,0,3.12,1.39,3.12,3.99v6.47h-1.73
			v-6.24c0-1.9-0.57-2.71-1.93-2.71c-1.04,0-1.77,0.53-2.79,1.57v7.39h-1.73V129.92z"/>
		<path class="st5" d="M344.7,139.04c0-3.7,1.03-6.72,2.77-9.54l1.07,0.5c-1.62,2.68-2.41,5.85-2.41,9.04s0.79,6.36,2.41,9.04
			l-1.07,0.5C345.73,145.76,344.7,142.74,344.7,139.04z"/>
		<path class="st5" d="M349.69,138.95h4.81v1.33h-4.81V138.95z"/>
		<path class="st5" d="M355.62,148.08c1.62-2.68,2.41-5.85,2.41-9.04s-0.79-6.36-2.41-9.04l1.07-0.5c1.74,2.82,2.77,5.84,2.77,9.54
			s-1.03,6.72-2.77,9.54L355.62,148.08z"/>
		<path class="st5" d="M361.65,147.43c1.18-0.52,1.9-1.45,1.89-2.6l-0.19-1.55l0.85,1.26c-0.23,0.28-0.54,0.36-0.87,0.36
			c-0.67,0-1.25-0.42-1.25-1.2c0-0.75,0.59-1.2,1.28-1.2c0.92,0,1.46,0.77,1.46,2.03c0,1.81-1.06,3.23-2.75,3.93L361.65,147.43z"/>
		<path class="st5" d="M369.97,138.13c0-4.49,1.62-6.9,4.29-6.9s4.29,2.42,4.29,6.9c0,4.49-1.62,7-4.29,7
			S369.97,142.62,369.97,138.13z M376.87,138.13c0-3.93-1.06-5.51-2.62-5.51s-2.62,1.58-2.62,5.51c0,3.93,1.06,5.61,2.62,5.61
			S376.87,142.06,376.87,138.13z"/>
		<path class="st5" d="M384.51,131.1h4.32c2.81,0,4.82,1.01,4.82,3.88c0,2.75-2.02,4.08-4.82,4.08h-2.56v5.82h-1.75V131.1z
			 M388.58,137.63c2.14,0,3.32-0.87,3.32-2.65c0-1.81-1.18-2.46-3.32-2.46h-2.31v5.11H388.58z M388.48,138.57l1.37-0.91l4.2,7.21
			h-1.99L388.48,138.57z"/>
		<path class="st5" d="M395.77,129.92h1.73v4.09l-0.06,2.1c0.95-0.92,1.99-1.69,3.39-1.69c2.15,0,3.12,1.39,3.12,3.99v6.47h-1.73
			v-6.24c0-1.9-0.57-2.71-1.93-2.71c-1.04,0-1.77,0.53-2.79,1.57v7.39h-1.73V129.92z"/>
		<path class="st5" d="M410.34,139.04c0-3.7,1.03-6.72,2.77-9.54l1.07,0.5c-1.62,2.68-2.41,5.85-2.41,9.04s0.79,6.36,2.41,9.04
			l-1.07,0.5C411.38,145.76,410.34,142.74,410.34,139.04z"/>
		<path class="st5" d="M415.33,138.95h4.81v1.33h-4.81V138.95z"/>
		<path class="st5" d="M421.27,148.08c1.62-2.68,2.41-5.85,2.41-9.04s-0.79-6.36-2.41-9.04l1.07-0.5c1.74,2.82,2.77,5.84,2.77,9.54
			s-1.03,6.72-2.77,9.54L421.27,148.08z"/>
	</g>
</g>
<g>
	<g>
		<path class="st5" d="M307.97,176.17h4.09c2.8,0,4.74,0.95,4.74,3.38c0,1.36-0.72,2.57-2.01,2.99v0.08c1.65,0.32,2.8,1.41,2.8,3.3
			c0,2.71-2.14,4.03-5.22,4.03h-4.4V176.17z M311.76,182.04c2.34,0,3.31-0.86,3.31-2.26c0-1.61-1.1-2.21-3.23-2.21h-2.12v4.47
			H311.76z M312.12,188.56c2.36,0,3.74-0.85,3.74-2.71c0-1.7-1.33-2.47-3.74-2.47h-2.4v5.18H312.12z"/>
		<path class="st5" d="M323.47,176.17h4.32c2.81,0,4.82,1.01,4.82,3.88c0,2.75-2.02,4.08-4.82,4.08h-2.56v5.82h-1.75V176.17z
			 M327.53,182.71c2.14,0,3.32-0.87,3.32-2.65c0-1.81-1.18-2.46-3.32-2.46h-2.31v5.11H327.53z M327.44,183.65l1.37-0.91l4.2,7.21
			h-1.99L327.44,183.65z"/>
		<path class="st5" d="M334.73,175h1.73v4.09l-0.06,2.1c0.95-0.92,1.99-1.69,3.39-1.69c2.15,0,3.12,1.39,3.12,3.99v6.47h-1.73v-6.24
			c0-1.9-0.57-2.71-1.93-2.71c-1.04,0-1.77,0.53-2.79,1.57v7.39h-1.73V175z"/>
		<path class="st5" d="M349.3,184.12c0-3.7,1.03-6.72,2.77-9.54l1.07,0.5c-1.62,2.68-2.41,5.85-2.41,9.04s0.79,6.36,2.41,9.04
			l-1.07,0.5C350.33,190.84,349.3,187.81,349.3,184.12z"/>
		<path class="st5" d="M357.94,183.67h-3.81v-1.3h3.81v-4.1h1.38v4.1h3.81v1.3h-3.81v4.1h-1.38V183.67z"/>
		<path class="st5" d="M364.13,193.15c1.62-2.68,2.41-5.85,2.41-9.04s-0.79-6.36-2.41-9.04l1.07-0.5c1.74,2.82,2.77,5.84,2.77,9.54
			s-1.03,6.72-2.77,9.54L364.13,193.15z"/>
		<path class="st5" d="M370.16,192.51c1.18-0.52,1.9-1.45,1.89-2.6l-0.19-1.55l0.85,1.26c-0.23,0.28-0.54,0.36-0.87,0.36
			c-0.67,0-1.25-0.42-1.25-1.2c0-0.75,0.59-1.2,1.28-1.2c0.92,0,1.46,0.77,1.46,2.03c0,1.81-1.06,3.23-2.75,3.93L370.16,192.51z"/>
		<path class="st5" d="M379.43,176.17h4.09c2.8,0,4.74,0.95,4.74,3.38c0,1.36-0.72,2.57-2.01,2.99v0.08c1.65,0.32,2.8,1.41,2.8,3.3
			c0,2.71-2.14,4.03-5.22,4.03h-4.4V176.17z M383.22,182.04c2.34,0,3.31-0.86,3.31-2.26c0-1.61-1.1-2.21-3.23-2.21h-2.12v4.47
			H383.22z M383.58,188.56c2.36,0,3.74-0.85,3.74-2.71c0-1.7-1.33-2.47-3.74-2.47h-2.4v5.18H383.58z"/>
		<path class="st5" d="M394.93,176.17h4.32c2.81,0,4.82,1.01,4.82,3.88c0,2.75-2.02,4.08-4.82,4.08h-2.56v5.82h-1.75V176.17z
			 M398.99,182.71c2.14,0,3.32-0.87,3.32-2.65c0-1.81-1.18-2.46-3.32-2.46h-2.31v5.11H398.99z M398.9,183.65l1.37-0.91l4.2,7.21
			h-1.99L398.9,183.65z"/>
		<path class="st5" d="M406.19,175h1.73v4.09l-0.06,2.1c0.95-0.92,1.99-1.69,3.39-1.69c2.15,0,3.12,1.39,3.12,3.99v6.47h-1.73v-6.24
			c0-1.9-0.57-2.71-1.93-2.71c-1.04,0-1.77,0.53-2.79,1.57v7.39h-1.73V175z"/>
		<path class="st5" d="M417.09,184.12c0-3.7,1.03-6.72,2.77-9.54l1.07,0.5c-1.62,2.68-2.41,5.85-2.41,9.04s0.79,6.36,2.41,9.04
			l-1.07,0.5C418.12,190.84,417.09,187.81,417.09,184.12z"/>
		<path class="st5" d="M422.08,184.03h4.81v1.33h-4.81V184.03z"/>
		<path class="st5" d="M428.01,193.15c1.62-2.68,2.41-5.85,2.41-9.04s-0.79-6.36-2.41-9.04l1.07-0.5c1.74,2.82,2.77,5.84,2.77,9.54
			s-1.03,6.72-2.77,9.54L428.01,193.15z"/>
		<path class="st5" d="M434.04,192.51c1.18-0.52,1.9-1.45,1.89-2.6l-0.19-1.55l0.85,1.26c-0.23,0.28-0.54,0.36-0.87,0.36
			c-0.67,0-1.25-0.42-1.25-1.2c0-0.75,0.59-1.2,1.28-1.2c0.92,0,1.46,0.77,1.46,2.03c0,1.81-1.06,3.23-2.75,3.93L434.04,192.51z"/>
		<path class="st5" d="M442.35,183.21c0-4.49,1.62-6.9,4.29-6.9s4.29,2.42,4.29,6.9c0,4.49-1.62,7-4.29,7
			S442.35,187.7,442.35,183.21z M449.26,183.21c0-3.93-1.06-5.51-2.62-5.51s-2.62,1.58-2.62,5.51c0,3.93,1.06,5.61,2.62,5.61
			S449.26,187.13,449.26,183.21z"/>
		<path class="st5" d="M456.9,176.17h4.32c2.81,0,4.82,1.01,4.82,3.88c0,2.75-2.02,4.08-4.82,4.08h-2.56v5.82h-1.75V176.17z
			 M460.96,182.71c2.14,0,3.32-0.87,3.32-2.65c0-1.81-1.18-2.46-3.32-2.46h-2.31v5.11H460.96z M460.87,183.65l1.37-0.91l4.2,7.21
			h-1.99L460.87,183.65z"/>
		<path class="st5" d="M468.16,175h1.73v4.09l-0.06,2.1c0.95-0.92,1.99-1.69,3.39-1.69c2.15,0,3.12,1.39,3.12,3.99v6.47h-1.73v-6.24
			c0-1.9-0.57-2.71-1.93-2.71c-1.04,0-1.77,0.53-2.79,1.57v7.39h-1.73V175z"/>
		<path class="st5" d="M482.73,184.12c0-3.7,1.03-6.72,2.77-9.54l1.07,0.5c-1.62,2.68-2.41,5.85-2.41,9.04s0.79,6.36,2.41,9.04
			l-1.07,0.5C483.76,190.84,482.73,187.81,482.73,184.12z"/>
		<path class="st5" d="M491.37,183.67h-3.81v-1.3h3.81v-4.1h1.38v4.1h3.81v1.3h-3.81v4.1h-1.38V183.67z"/>
		<path class="st5" d="M497.56,193.15c1.62-2.68,2.41-5.85,2.41-9.04s-0.79-6.36-2.41-9.04l1.07-0.5c1.74,2.82,2.77,5.84,2.77,9.54
			s-1.03,6.72-2.77,9.54L497.56,193.15z"/>
		<path class="st5" d="M503.59,192.51c1.18-0.52,1.9-1.45,1.89-2.6l-0.19-1.55l0.85,1.26c-0.23,0.28-0.54,0.36-0.87,0.36
			c-0.67,0-1.25-0.42-1.25-1.2c0-0.75,0.59-1.2,1.28-1.2c0.92,0,1.46,0.77,1.46,2.03c0,1.81-1.06,3.23-2.75,3.93L503.59,192.51z"/>
		<path class="st5" d="M511.9,183.21c0-4.49,1.62-6.9,4.29-6.9c2.67,0,4.29,2.42,4.29,6.9c0,4.49-1.62,7-4.29,7
			C513.52,190.21,511.9,187.7,511.9,183.21z M518.81,183.21c0-3.93-1.06-5.51-2.62-5.51c-1.56,0-2.62,1.58-2.62,5.51
			c0,3.93,1.06,5.61,2.62,5.61C517.75,188.81,518.81,187.13,518.81,183.21z"/>
		<path class="st5" d="M526.45,176.17h4.32c2.81,0,4.82,1.01,4.82,3.88c0,2.75-2.02,4.08-4.82,4.08h-2.56v5.82h-1.75V176.17z
			 M530.51,182.71c2.14,0,3.32-0.87,3.32-2.65c0-1.81-1.18-2.46-3.32-2.46h-2.31v5.11H530.51z M530.42,183.65l1.37-0.91l4.2,7.21
			h-1.99L530.42,183.65z"/>
		<path class="st5" d="M537.71,175h1.73v4.09l-0.06,2.1c0.95-0.92,1.99-1.69,3.39-1.69c2.15,0,3.12,1.39,3.12,3.99v6.47h-1.73v-6.24
			c0-1.9-0.57-2.71-1.93-2.71c-1.04,0-1.77,0.53-2.79,1.57v7.39h-1.73V175z"/>
		<path class="st5" d="M552.28,184.12c0-3.7,1.03-6.72,2.77-9.54l1.07,0.5c-1.62,2.68-2.41,5.85-2.41,9.04s0.79,6.36,2.41,9.04
			l-1.07,0.5C553.31,190.84,552.28,187.81,552.28,184.12z"/>
		<path class="st5" d="M557.27,184.03h4.81v1.33h-4.81V184.03z"/>
		<path class="st5" d="M563.2,193.15c1.62-2.68,2.41-5.85,2.41-9.04s-0.79-6.36-2.41-9.04l1.07-0.5c1.74,2.82,2.77,5.84,2.77,9.54
			s-1.03,6.72-2.77,9.54L563.2,193.15z"/>
	</g>
</g>
<g>
	<g>
		<path class="st5" d="M307.97,221.26h4.09c2.8,0,4.74,0.95,4.74,3.38c0,1.36-0.72,2.57-2.01,2.99v0.08c1.65,0.32,2.8,1.41,2.8,3.3
			c0,2.71-2.14,4.03-5.22,4.03h-4.4V221.26z M311.76,227.13c2.34,0,3.31-0.86,3.31-2.26c0-1.61-1.1-2.21-3.23-2.21h-2.12v4.47
			H311.76z M312.12,233.65c2.36,0,3.74-0.85,3.74-2.71c0-1.7-1.33-2.47-3.74-2.47h-2.4v5.18H312.12z"/>
		<path class="st5" d="M323.47,221.26h4.32c2.81,0,4.82,1.01,4.82,3.88c0,2.75-2.02,4.08-4.82,4.08h-2.56v5.82h-1.75V221.26z
			 M327.53,227.8c2.14,0,3.32-0.87,3.32-2.65c0-1.81-1.18-2.46-3.32-2.46h-2.31v5.11H327.53z M327.44,228.74l1.37-0.91l4.2,7.21
			h-1.99L327.44,228.74z"/>
		<path class="st5" d="M334.73,220.09h1.73v4.09l-0.06,2.1c0.95-0.92,1.99-1.69,3.39-1.69c2.15,0,3.12,1.39,3.12,3.99v6.47h-1.73
			v-6.24c0-1.9-0.57-2.71-1.93-2.71c-1.04,0-1.77,0.53-2.79,1.57v7.39h-1.73V220.09z"/>
		<path class="st5" d="M345.62,229.21c0-3.7,1.03-6.72,2.77-9.54l1.07,0.5c-1.62,2.68-2.41,5.85-2.41,9.04s0.79,6.36,2.41,9.04
			l-1.07,0.5C346.66,235.93,345.62,232.9,345.62,229.21z"/>
		<path class="st5" d="M350.61,229.12h4.81v1.33h-4.81V229.12z"/>
		<path class="st5" d="M356.55,238.25c1.62-2.68,2.41-5.85,2.41-9.04s-0.79-6.36-2.41-9.04l1.07-0.5c1.74,2.82,2.77,5.84,2.77,9.54
			s-1.03,6.72-2.77,9.54L356.55,238.25z"/>
		<path class="st5" d="M362.58,237.6c1.18-0.52,1.9-1.45,1.89-2.6l-0.19-1.55l0.85,1.26c-0.23,0.28-0.54,0.36-0.87,0.36
			c-0.67,0-1.25-0.42-1.25-1.2c0-0.75,0.59-1.2,1.28-1.2c0.92,0,1.46,0.77,1.46,2.03c0,1.81-1.06,3.23-2.75,3.93L362.58,237.6z"/>
		<path class="st5" d="M370.89,228.3c0-4.49,1.62-6.9,4.29-6.9c2.67,0,4.29,2.42,4.29,6.9c0,4.49-1.62,7-4.29,7
			C372.51,235.3,370.89,232.79,370.89,228.3z M377.8,228.3c0-3.93-1.06-5.51-2.62-5.51c-1.56,0-2.62,1.58-2.62,5.51
			c0,3.93,1.06,5.61,2.62,5.61C376.74,233.9,377.8,232.22,377.8,228.3z"/>
		<path class="st5" d="M385.44,221.26h4.32c2.81,0,4.82,1.01,4.82,3.88c0,2.75-2.02,4.08-4.82,4.08h-2.56v5.82h-1.75V221.26z
			 M389.5,227.8c2.14,0,3.32-0.87,3.32-2.65c0-1.81-1.18-2.46-3.32-2.46h-2.31v5.11H389.5z M389.41,228.74l1.37-0.91l4.2,7.21H393
			L389.41,228.74z"/>
		<path class="st5" d="M396.7,220.09h1.73v4.09l-0.06,2.1c0.95-0.92,1.99-1.69,3.39-1.69c2.15,0,3.12,1.39,3.12,3.99v6.47h-1.73
			v-6.24c0-1.9-0.57-2.71-1.93-2.71c-1.04,0-1.77,0.53-2.79,1.57v7.39h-1.73V220.09z"/>
		<path class="st5" d="M411.27,229.21c0-3.7,1.03-6.72,2.77-9.54l1.07,0.5c-1.62,2.68-2.41,5.85-2.41,9.04s0.79,6.36,2.41,9.04
			l-1.07,0.5C412.3,235.93,411.27,232.9,411.27,229.21z"/>
		<path class="st5" d="M416.26,229.12h4.81v1.33h-4.81V229.12z"/>
		<path class="st5" d="M422.19,238.25c1.62-2.68,2.41-5.85,2.41-9.04s-0.79-6.36-2.41-9.04l1.07-0.5c1.74,2.82,2.77,5.84,2.77,9.54
			s-1.03,6.72-2.77,9.54L422.19,238.25z"/>
	</g>
</g>
<g>
	<g>
		<path class="st5" d="M310.8,267.35h1.98l4.66,13.78h-1.86l-2.4-7.7c-0.5-1.54-0.94-3.05-1.38-4.64h-0.08
			c-0.43,1.6-0.87,3.1-1.36,4.64l-2.43,7.7h-1.78L310.8,267.35z M308.59,275.54h6.35v1.4h-6.35V275.54z"/>
		<path class="st5" d="M318.13,267.35h4.09c2.8,0,4.74,0.95,4.74,3.38c0,1.36-0.72,2.57-2.01,2.99v0.08c1.65,0.32,2.8,1.41,2.8,3.3
			c0,2.71-2.14,4.03-5.22,4.03h-4.4V267.35z M321.93,273.22c2.34,0,3.31-0.86,3.31-2.26c0-1.61-1.1-2.21-3.23-2.21h-2.12v4.47
			H321.93z M322.28,279.74c2.36,0,3.74-0.85,3.74-2.71c0-1.7-1.33-2.47-3.74-2.47h-2.4v5.18H322.28z"/>
		<path class="st5" d="M332.16,267.35h4.32c2.81,0,4.82,1.01,4.82,3.88c0,2.75-2.02,4.08-4.82,4.08h-2.56v5.82h-1.75V267.35z
			 M336.22,273.89c2.14,0,3.32-0.87,3.32-2.65c0-1.81-1.18-2.46-3.32-2.46h-2.31v5.11H336.22z M336.13,274.83l1.37-0.91l4.2,7.21
			h-1.99L336.13,274.83z"/>
		<path class="st5" d="M342.69,266.18h1.73v4.09l-0.06,2.1c0.95-0.92,1.99-1.69,3.39-1.69c2.15,0,3.12,1.39,3.12,3.99v6.47h-1.73
			v-6.24c0-1.9-0.57-2.71-1.93-2.71c-1.04,0-1.77,0.53-2.79,1.57v7.39h-1.73V266.18z"/>
		<path class="st5" d="M352.85,275.3c0-3.7,1.03-6.72,2.77-9.54l1.07,0.5c-1.62,2.68-2.41,5.85-2.41,9.04s0.79,6.36,2.41,9.04
			l-1.07,0.5C353.88,282.02,352.85,278.99,352.85,275.3z"/>
		<path class="st5" d="M360.76,274.86h-3.81v-1.3h3.81v-4.1h1.38v4.1h3.81v1.3h-3.81v4.1h-1.38V274.86z"/>
		<path class="st5" d="M366.21,284.34c1.62-2.68,2.41-5.85,2.41-9.04s-0.79-6.36-2.41-9.04l1.07-0.5c1.74,2.82,2.77,5.84,2.77,9.54
			s-1.03,6.72-2.77,9.54L366.21,284.34z"/>
		<path class="st5" d="M371.5,283.69c1.18-0.52,1.9-1.45,1.89-2.6l-0.19-1.55l0.85,1.26c-0.23,0.28-0.54,0.36-0.87,0.36
			c-0.67,0-1.25-0.42-1.25-1.2c0-0.75,0.59-1.2,1.28-1.2c0.92,0,1.46,0.77,1.46,2.03c0,1.81-1.06,3.23-2.75,3.93L371.5,283.69z"/>
		<path class="st5" d="M382.14,267.35h1.98l4.66,13.78h-1.86l-2.4-7.7c-0.5-1.54-0.94-3.05-1.38-4.64h-0.08
			c-0.43,1.6-0.87,3.1-1.36,4.64l-2.43,7.7h-1.78L382.14,267.35z M379.93,275.54h6.35v1.4h-6.35V275.54z"/>
		<path class="st5" d="M389.47,267.35h4.09c2.8,0,4.74,0.95,4.74,3.38c0,1.36-0.72,2.57-2.01,2.99v0.08c1.65,0.32,2.8,1.41,2.8,3.3
			c0,2.71-2.14,4.03-5.22,4.03h-4.4V267.35z M393.26,273.22c2.34,0,3.31-0.86,3.31-2.26c0-1.61-1.1-2.21-3.23-2.21h-2.12v4.47
			H393.26z M393.62,279.74c2.36,0,3.74-0.85,3.74-2.71c0-1.7-1.33-2.47-3.74-2.47h-2.4v5.18H393.62z"/>
		<path class="st5" d="M403.5,267.35h4.32c2.81,0,4.82,1.01,4.82,3.88c0,2.75-2.02,4.08-4.82,4.08h-2.56v5.82h-1.75V267.35z
			 M407.56,273.89c2.14,0,3.32-0.87,3.32-2.65c0-1.81-1.18-2.46-3.32-2.46h-2.31v5.11H407.56z M407.47,274.83l1.37-0.91l4.2,7.21
			h-1.99L407.47,274.83z"/>
		<path class="st5" d="M414.02,266.18h1.73v4.09l-0.06,2.1c0.95-0.92,1.99-1.69,3.39-1.69c2.15,0,3.12,1.39,3.12,3.99v6.47h-1.73
			v-6.24c0-1.9-0.57-2.71-1.93-2.71c-1.04,0-1.77,0.53-2.79,1.57v7.39h-1.73V266.18z"/>
		<path class="st5" d="M427.12,275.3c0-3.7,1.03-6.72,2.77-9.54l1.07,0.5c-1.62,2.68-2.41,5.85-2.41,9.04s0.79,6.36,2.41,9.04
			l-1.07,0.5C428.16,282.02,427.12,278.99,427.12,275.3z"/>
		<path class="st5" d="M431.38,275.21h4.81v1.33h-4.81V275.21z"/>
		<path class="st5" d="M436.58,284.34c1.62-2.68,2.41-5.85,2.41-9.04s-0.79-6.36-2.41-9.04l1.07-0.5c1.74,2.82,2.77,5.84,2.77,9.54
			s-1.03,6.72-2.77,9.54L436.58,284.34z"/>
		<path class="st5" d="M441.87,283.69c1.18-0.52,1.9-1.45,1.89-2.6l-0.19-1.55l0.85,1.26c-0.23,0.28-0.54,0.36-0.87,0.36
			c-0.67,0-1.25-0.42-1.25-1.2c0-0.75,0.59-1.2,1.28-1.2c0.92,0,1.46,0.77,1.46,2.03c0,1.81-1.06,3.23-2.75,3.93L441.87,283.69z"/>
		<path class="st5" d="M452.51,267.35h1.98l4.66,13.78h-1.86l-2.4-7.7c-0.5-1.54-0.94-3.05-1.38-4.64h-0.08
			c-0.43,1.6-0.87,3.1-1.36,4.64l-2.43,7.7h-1.78L452.51,267.35z M450.3,275.54h6.35v1.4h-6.35V275.54z"/>
		<path class="st5" d="M462.78,267.35h4.32c2.81,0,4.82,1.01,4.82,3.88c0,2.75-2.02,4.08-4.82,4.08h-2.56v5.82h-1.75V267.35z
			 M466.84,273.89c2.14,0,3.32-0.87,3.32-2.65c0-1.81-1.18-2.46-3.32-2.46h-2.31v5.11H466.84z M466.75,274.83l1.37-0.91l4.2,7.21
			h-1.99L466.75,274.83z"/>
		<path class="st5" d="M473.3,266.18h1.73v4.09l-0.06,2.1c0.95-0.92,1.99-1.69,3.39-1.69c2.15,0,3.12,1.39,3.12,3.99v6.47h-1.73
			v-6.24c0-1.9-0.57-2.71-1.93-2.71c-1.04,0-1.77,0.53-2.79,1.57v7.39h-1.73V266.18z"/>
		<path class="st5" d="M486.41,275.3c0-3.7,1.03-6.72,2.77-9.54l1.07,0.5c-1.62,2.68-2.41,5.85-2.41,9.04s0.79,6.36,2.41,9.04
			l-1.07,0.5C487.44,282.02,486.41,278.99,486.41,275.3z"/>
		<path class="st5" d="M494.31,274.86h-3.81v-1.3h3.81v-4.1h1.38v4.1h3.81v1.3h-3.81v4.1h-1.38V274.86z"/>
		<path class="st5" d="M499.77,284.34c1.62-2.68,2.41-5.85,2.41-9.04s-0.79-6.36-2.41-9.04l1.07-0.5c1.74,2.82,2.77,5.84,2.77,9.54
			s-1.03,6.72-2.77,9.54L499.77,284.34z"/>
		<path class="st5" d="M505.06,283.69c1.18-0.52,1.9-1.45,1.89-2.6l-0.19-1.55l0.85,1.26c-0.23,0.28-0.54,0.36-0.87,0.36
			c-0.67,0-1.25-0.42-1.25-1.2c0-0.75,0.59-1.2,1.28-1.2c0.92,0,1.46,0.77,1.46,2.03c0,1.81-1.06,3.23-2.75,3.93L505.06,283.69z"/>
		<path class="st5" d="M515.69,267.35h1.98l4.66,13.78h-1.86l-2.4-7.7c-0.5-1.54-0.94-3.05-1.38-4.64h-0.08
			c-0.43,1.6-0.87,3.1-1.36,4.64l-2.43,7.7h-1.78L515.69,267.35z M513.48,275.54h6.35v1.4h-6.35V275.54z"/>
		<path class="st5" d="M525.96,267.35h4.32c2.81,0,4.82,1.01,4.82,3.88c0,2.75-2.02,4.08-4.82,4.08h-2.56v5.82h-1.75V267.35z
			 M530.03,273.89c2.14,0,3.32-0.87,3.32-2.65c0-1.81-1.18-2.46-3.32-2.46h-2.31v5.11H530.03z M529.93,274.83l1.37-0.91l4.2,7.21
			h-1.99L529.93,274.83z"/>
		<path class="st5" d="M536.49,266.18h1.73v4.09l-0.06,2.1c0.95-0.92,1.99-1.69,3.39-1.69c2.15,0,3.12,1.39,3.12,3.99v6.47h-1.73
			v-6.24c0-1.9-0.57-2.71-1.93-2.71c-1.04,0-1.77,0.53-2.79,1.57v7.39h-1.73V266.18z"/>
		<path class="st5" d="M546.65,275.3c0-3.7,1.03-6.72,2.77-9.54l1.07,0.5c-1.62,2.68-2.41,5.85-2.41,9.04s0.79,6.36,2.41,9.04
			l-1.07,0.5C547.69,282.02,546.65,278.99,546.65,275.3z"/>
		<path class="st5" d="M550.91,275.21h4.81v1.33h-4.81V275.21z"/>
		<path class="st5" d="M556.11,284.34c1.62-2.68,2.41-5.85,2.41-9.04s-0.79-6.36-2.41-9.04l1.07-0.5c1.74,2.82,2.77,5.84,2.77,9.54
			s-1.03,6.72-2.77,9.54L556.11,284.34z"/>
		<path class="st5" d="M561.4,283.69c1.18-0.52,1.9-1.45,1.89-2.6l-0.19-1.55l0.85,1.26c-0.23,0.28-0.54,0.36-0.87,0.36
			c-0.67,0-1.25-0.42-1.25-1.2c0-0.75,0.59-1.2,1.28-1.2c0.92,0,1.46,0.77,1.46,2.03c0,1.81-1.06,3.23-2.75,3.93L561.4,283.69z"/>
		<path class="st5" d="M569.2,267.35h4.09c2.8,0,4.74,0.95,4.74,3.38c0,1.36-0.72,2.57-2.01,2.99v0.08c1.65,0.32,2.8,1.41,2.8,3.3
			c0,2.71-2.14,4.03-5.22,4.03h-4.4V267.35z M573,273.22c2.34,0,3.31-0.86,3.31-2.26c0-1.61-1.1-2.21-3.23-2.21h-2.12v4.47H573z
			 M573.35,279.74c2.36,0,3.74-0.85,3.74-2.71c0-1.7-1.33-2.47-3.74-2.47h-2.4v5.18H573.35z"/>
		<path class="st5" d="M583.23,267.35h4.32c2.81,0,4.82,1.01,4.82,3.88c0,2.75-2.02,4.08-4.82,4.08h-2.56v5.82h-1.75V267.35z
			 M587.29,273.89c2.14,0,3.32-0.87,3.32-2.65c0-1.81-1.18-2.46-3.32-2.46h-2.31v5.11H587.29z M587.2,274.83l1.37-0.91l4.2,7.21
			h-1.99L587.2,274.83z"/>
		<path class="st5" d="M593.76,266.18h1.73v4.09l-0.06,2.1c0.95-0.92,1.99-1.69,3.39-1.69c2.15,0,3.12,1.39,3.12,3.99v6.47h-1.73
			v-6.24c0-1.9-0.57-2.71-1.93-2.71c-1.04,0-1.77,0.53-2.79,1.57v7.39h-1.73V266.18z"/>
		<path class="st5" d="M606.86,275.3c0-3.7,1.03-6.72,2.77-9.54l1.07,0.5c-1.62,2.68-2.41,5.85-2.41,9.04s0.79,6.36,2.41,9.04
			l-1.07,0.5C607.89,282.02,606.86,278.99,606.86,275.3z"/>
		<path class="st5" d="M614.77,274.86h-3.81v-1.3h3.81v-4.1h1.38v4.1h3.81v1.3h-3.81v4.1h-1.38V274.86z"/>
		<path class="st5" d="M620.22,284.34c1.62-2.68,2.41-5.85,2.41-9.04s-0.79-6.36-2.41-9.04l1.07-0.5c1.74,2.82,2.77,5.84,2.77,9.54
			s-1.03,6.72-2.77,9.54L620.22,284.34z"/>
		<path class="st5" d="M625.51,283.69c1.18-0.52,1.9-1.45,1.89-2.6l-0.19-1.55l0.85,1.26c-0.23,0.28-0.54,0.36-0.87,0.36
			c-0.67,0-1.25-0.42-1.25-1.2c0-0.75,0.59-1.2,1.28-1.2c0.92,0,1.46,0.77,1.46,2.03c0,1.81-1.06,3.23-2.75,3.93L625.51,283.69z"/>
		<path class="st5" d="M633.31,267.35h4.09c2.8,0,4.74,0.95,4.74,3.38c0,1.36-0.72,2.57-2.01,2.99v0.08c1.65,0.32,2.8,1.41,2.8,3.3
			c0,2.71-2.14,4.03-5.22,4.03h-4.4V267.35z M637.11,273.22c2.34,0,3.31-0.86,3.31-2.26c0-1.61-1.1-2.21-3.23-2.21h-2.12v4.47
			H637.11z M637.46,279.74c2.36,0,3.74-0.85,3.74-2.71c0-1.7-1.33-2.47-3.74-2.47h-2.4v5.18H637.46z"/>
		<path class="st5" d="M647.34,267.35h4.32c2.81,0,4.82,1.01,4.82,3.88c0,2.75-2.02,4.08-4.82,4.08h-2.56v5.82h-1.75V267.35z
			 M651.4,273.89c2.14,0,3.32-0.87,3.32-2.65c0-1.81-1.18-2.46-3.32-2.46h-2.31v5.11H651.4z M651.31,274.83l1.37-0.91l4.2,7.21
			h-1.99L651.31,274.83z"/>
		<path class="st5" d="M657.87,266.18h1.73v4.09l-0.06,2.1c0.95-0.92,1.99-1.69,3.39-1.69c2.15,0,3.12,1.39,3.12,3.99v6.47h-1.73
			v-6.24c0-1.9-0.57-2.71-1.93-2.71c-1.04,0-1.77,0.53-2.79,1.57v7.39h-1.73V266.18z"/>
		<path class="st5" d="M668.03,275.3c0-3.7,1.03-6.72,2.77-9.54l1.07,0.5c-1.62,2.68-2.41,5.85-2.41,9.04s0.79,6.36,2.41,9.04
			l-1.07,0.5C669.06,282.02,668.03,278.99,668.03,275.3z"/>
		<path class="st5" d="M672.28,275.21h4.81v1.33h-4.81V275.21z"/>
		<path class="st5" d="M677.48,284.34c1.62-2.68,2.41-5.85,2.41-9.04s-0.79-6.36-2.41-9.04l1.07-0.5c1.74,2.82,2.77,5.84,2.77,9.54
			s-1.03,6.72-2.77,9.54L677.48,284.34z"/>
		<path class="st5" d="M682.78,283.69c1.18-0.52,1.9-1.45,1.89-2.6l-0.19-1.55l0.85,1.26c-0.23,0.28-0.54,0.36-0.87,0.36
			c-0.67,0-1.25-0.42-1.25-1.2c0-0.75,0.59-1.2,1.28-1.2c0.92,0,1.46,0.77,1.46,2.03c0,1.81-1.06,3.23-2.75,3.93L682.78,283.69z"/>
		<path class="st5" d="M689.62,274.39c0-4.49,1.62-6.9,4.29-6.9c2.67,0,4.29,2.42,4.29,6.9c0,4.49-1.62,7-4.29,7
			C691.24,281.39,689.62,278.88,689.62,274.39z M696.53,274.39c0-3.93-1.06-5.51-2.62-5.51c-1.56,0-2.62,1.58-2.62,5.51
			c0,3.93,1.06,5.61,2.62,5.61C695.47,280,696.53,278.32,696.53,274.39z"/>
		<path class="st5" d="M702.69,267.35h4.32c2.81,0,4.82,1.01,4.82,3.88c0,2.75-2.02,4.08-4.82,4.08h-2.56v5.82h-1.75V267.35z
			 M706.76,273.89c2.14,0,3.32-0.87,3.32-2.65c0-1.81-1.18-2.46-3.32-2.46h-2.31v5.11H706.76z M706.66,274.83l1.37-0.91l4.2,7.21
			h-1.99L706.66,274.83z"/>
		<path class="st5" d="M713.22,266.18h1.73v4.09l-0.06,2.1c0.95-0.92,1.99-1.69,3.39-1.69c2.15,0,3.12,1.39,3.12,3.99v6.47h-1.73
			v-6.24c0-1.9-0.57-2.71-1.93-2.71c-1.04,0-1.77,0.53-2.79,1.57v7.39h-1.73V266.18z"/>
		<path class="st5" d="M726.32,275.3c0-3.7,1.03-6.72,2.77-9.54l1.07,0.5c-1.62,2.68-2.41,5.85-2.41,9.04s0.79,6.36,2.41,9.04
			l-1.07,0.5C727.36,282.02,726.32,278.99,726.32,275.3z"/>
		<path class="st5" d="M734.23,274.86h-3.81v-1.3h3.81v-4.1h1.38v4.1h3.81v1.3h-3.81v4.1h-1.38V274.86z"/>
		<path class="st5" d="M739.68,284.34c1.62-2.68,2.41-5.85,2.41-9.04s-0.79-6.36-2.41-9.04l1.07-0.5c1.74,2.82,2.77,5.84,2.77,9.54
			s-1.03,6.72-2.77,9.54L739.68,284.34z"/>
		<path class="st5" d="M744.98,283.69c1.18-0.52,1.9-1.45,1.89-2.6l-0.19-1.55l0.85,1.26c-0.23,0.28-0.54,0.36-0.87,0.36
			c-0.67,0-1.25-0.42-1.25-1.2c0-0.75,0.59-1.2,1.28-1.2c0.92,0,1.46,0.77,1.46,2.03c0,1.81-1.06,3.23-2.75,3.93L744.98,283.69z"/>
		<path class="st5" d="M751.82,274.39c0-4.49,1.62-6.9,4.29-6.9c2.67,0,4.29,2.42,4.29,6.9c0,4.49-1.62,7-4.29,7
			C753.44,281.39,751.82,278.88,751.82,274.39z M758.73,274.39c0-3.93-1.06-5.51-2.62-5.51c-1.56,0-2.62,1.58-2.62,5.51
			c0,3.93,1.06,5.61,2.62,5.61C757.67,280,758.73,278.32,758.73,274.39z"/>
		<path class="st5" d="M764.89,267.35h4.32c2.81,0,4.82,1.01,4.82,3.88c0,2.75-2.02,4.08-4.82,4.08h-2.56v5.82h-1.75V267.35z
			 M768.96,273.89c2.14,0,3.32-0.87,3.32-2.65c0-1.81-1.18-2.46-3.32-2.46h-2.31v5.11H768.96z M768.87,274.83l1.37-0.91l4.2,7.21
			h-1.99L768.87,274.83z"/>
		<path class="st5" d="M775.42,266.18h1.73v4.09l-0.06,2.1c0.95-0.92,1.99-1.69,3.39-1.69c2.15,0,3.12,1.39,3.12,3.99v6.47h-1.73
			v-6.24c0-1.9-0.57-2.71-1.93-2.71c-1.04,0-1.77,0.53-2.79,1.57v7.39h-1.73V266.18z"/>
		<path class="st5" d="M788.52,275.3c0-3.7,1.03-6.72,2.77-9.54l1.07,0.5c-1.62,2.68-2.41,5.85-2.41,9.04s0.79,6.36,2.41,9.04
			l-1.07,0.5C789.56,282.02,788.52,278.99,788.52,275.3z"/>
		<path class="st5" d="M792.78,275.21h4.81v1.33h-4.81V275.21z"/>
		<path class="st5" d="M797.98,284.34c1.62-2.68,2.41-5.85,2.41-9.04s-0.79-6.36-2.41-9.04l1.07-0.5c1.74,2.82,2.77,5.84,2.77,9.54
			s-1.03,6.72-2.77,9.54L797.98,284.34z"/>
	</g>
</g>
<g>
	<g>
		<path class="st5" d="M310.8,312.44h1.98l4.66,13.78h-1.86l-2.4-7.7c-0.5-1.54-0.94-3.05-1.38-4.64h-0.08
			c-0.43,1.6-0.87,3.1-1.36,4.64l-2.43,7.7h-1.78L310.8,312.44z M308.59,320.63h6.35v1.4h-6.35V320.63z"/>
		<path class="st5" d="M318.87,312.44h4.09c2.8,0,4.74,0.95,4.74,3.38c0,1.36-0.72,2.57-2.01,2.99v0.08c1.65,0.32,2.8,1.41,2.8,3.3
			c0,2.71-2.14,4.03-5.22,4.03h-4.4V312.44z M322.66,318.31c2.34,0,3.31-0.86,3.31-2.26c0-1.61-1.1-2.21-3.23-2.21h-2.12v4.47
			H322.66z M323.02,324.83c2.36,0,3.74-0.85,3.74-2.71c0-1.7-1.33-2.47-3.74-2.47h-2.4v5.18H323.02z"/>
		<path class="st5" d="M334.36,312.44h4.32c2.81,0,4.82,1.01,4.82,3.88c0,2.75-2.02,4.08-4.82,4.08h-2.56v5.82h-1.75V312.44z
			 M338.43,318.98c2.14,0,3.32-0.87,3.32-2.65c0-1.81-1.18-2.46-3.32-2.46h-2.31v5.11H338.43z M338.33,319.92l1.37-0.91l4.2,7.21
			h-1.99L338.33,319.92z"/>
		<path class="st5" d="M345.63,311.27h1.73v4.09l-0.06,2.1c0.95-0.92,1.99-1.69,3.39-1.69c2.15,0,3.12,1.39,3.12,3.99v6.47h-1.73
			v-6.24c0-1.9-0.57-2.71-1.93-2.71c-1.04,0-1.77,0.53-2.79,1.57v7.39h-1.73V311.27z"/>
		<path class="st5" d="M360.2,320.39c0-3.7,1.03-6.72,2.77-9.54l1.07,0.5c-1.62,2.68-2.41,5.85-2.41,9.04s0.79,6.36,2.41,9.04
			l-1.07,0.5C361.23,327.11,360.2,324.08,360.2,320.39z"/>
		<path class="st5" d="M365.19,320.3H370v1.33h-4.81V320.3z"/>
		<path class="st5" d="M371.12,329.43c1.62-2.68,2.41-5.85,2.41-9.04s-0.79-6.36-2.41-9.04l1.07-0.5c1.74,2.82,2.77,5.84,2.77,9.54
			s-1.03,6.72-2.77,9.54L371.12,329.43z"/>
		<path class="st5" d="M377.15,328.78c1.18-0.52,1.9-1.45,1.89-2.6l-0.19-1.55l0.85,1.26c-0.23,0.28-0.54,0.36-0.87,0.36
			c-0.67,0-1.25-0.42-1.25-1.2c0-0.75,0.59-1.2,1.28-1.2c0.92,0,1.46,0.77,1.46,2.03c0,1.81-1.06,3.23-2.75,3.93L377.15,328.78z"/>
		<path class="st5" d="M389.26,312.44h1.98l4.66,13.78h-1.86l-2.4-7.7c-0.5-1.54-0.94-3.05-1.38-4.64h-0.08
			c-0.43,1.6-0.87,3.1-1.36,4.64l-2.43,7.7h-1.78L389.26,312.44z M387.04,320.63h6.35v1.4h-6.35V320.63z"/>
		<path class="st5" d="M401,312.44h4.32c2.81,0,4.82,1.01,4.82,3.88c0,2.75-2.02,4.08-4.82,4.08h-2.56v5.82H401V312.44z
			 M405.06,318.98c2.14,0,3.32-0.87,3.32-2.65c0-1.81-1.18-2.46-3.32-2.46h-2.31v5.11H405.06z M404.97,319.92l1.37-0.91l4.2,7.21
			h-1.99L404.97,319.92z"/>
		<path class="st5" d="M412.26,311.27h1.73v4.09l-0.06,2.1c0.95-0.92,1.99-1.69,3.39-1.69c2.15,0,3.12,1.39,3.12,3.99v6.47h-1.73
			v-6.24c0-1.9-0.57-2.71-1.93-2.71c-1.04,0-1.77,0.53-2.79,1.57v7.39h-1.73V311.27z"/>
		<path class="st5" d="M423.15,320.39c0-3.7,1.03-6.72,2.77-9.54l1.07,0.5c-1.62,2.68-2.41,5.85-2.41,9.04s0.79,6.36,2.41,9.04
			l-1.07,0.5C424.19,327.11,423.15,324.08,423.15,320.39z"/>
		<path class="st5" d="M428.14,320.3h4.81v1.33h-4.81V320.3z"/>
		<path class="st5" d="M434.08,329.43c1.62-2.68,2.41-5.85,2.41-9.04s-0.79-6.36-2.41-9.04l1.07-0.5c1.74,2.82,2.77,5.84,2.77,9.54
			s-1.03,6.72-2.77,9.54L434.08,329.43z"/>
		<path class="st5" d="M440.11,328.78c1.18-0.52,1.9-1.45,1.89-2.6l-0.19-1.55l0.85,1.26c-0.23,0.28-0.54,0.36-0.87,0.36
			c-0.67,0-1.25-0.42-1.25-1.2c0-0.75,0.59-1.2,1.28-1.2c0.92,0,1.46,0.77,1.46,2.03c0,1.81-1.06,3.23-2.75,3.93L440.11,328.78z"/>
		<path class="st5" d="M449.38,312.44h4.09c2.8,0,4.74,0.95,4.74,3.38c0,1.36-0.72,2.57-2.01,2.99v0.08c1.65,0.32,2.8,1.41,2.8,3.3
			c0,2.71-2.14,4.03-5.22,4.03h-4.4V312.44z M453.17,318.31c2.34,0,3.31-0.86,3.31-2.26c0-1.61-1.1-2.21-3.23-2.21h-2.12v4.47
			H453.17z M453.53,324.83c2.36,0,3.74-0.85,3.74-2.71c0-1.7-1.33-2.47-3.74-2.47h-2.4v5.18H453.53z"/>
		<path class="st5" d="M464.88,312.44h4.32c2.81,0,4.82,1.01,4.82,3.88c0,2.75-2.02,4.08-4.82,4.08h-2.56v5.82h-1.75V312.44z
			 M468.94,318.98c2.14,0,3.32-0.87,3.32-2.65c0-1.81-1.18-2.46-3.32-2.46h-2.31v5.11H468.94z M468.85,319.92l1.37-0.91l4.2,7.21
			h-1.99L468.85,319.92z"/>
		<path class="st5" d="M476.14,311.27h1.73v4.09l-0.06,2.1c0.95-0.92,1.99-1.69,3.39-1.69c2.15,0,3.12,1.39,3.12,3.99v6.47h-1.73
			v-6.24c0-1.9-0.57-2.71-1.93-2.71c-1.04,0-1.77,0.53-2.79,1.57v7.39h-1.73V311.27z"/>
		<path class="st5" d="M487.04,320.39c0-3.7,1.03-6.72,2.77-9.54l1.07,0.5c-1.62,2.68-2.41,5.85-2.41,9.04s0.79,6.36,2.41,9.04
			l-1.07,0.5C488.07,327.11,487.04,324.08,487.04,320.39z"/>
		<path class="st5" d="M492.02,320.3h4.81v1.33h-4.81V320.3z"/>
		<path class="st5" d="M497.96,329.43c1.62-2.68,2.41-5.85,2.41-9.04s-0.79-6.36-2.41-9.04l1.07-0.5c1.74,2.82,2.77,5.84,2.77,9.54
			s-1.03,6.72-2.77,9.54L497.96,329.43z"/>
		<path class="st5" d="M503.99,328.78c1.18-0.52,1.9-1.45,1.89-2.6l-0.19-1.55l0.85,1.26c-0.23,0.28-0.54,0.36-0.87,0.36
			c-0.67,0-1.25-0.42-1.25-1.2c0-0.75,0.59-1.2,1.28-1.2c0.92,0,1.46,0.77,1.46,2.03c0,1.81-1.06,3.23-2.75,3.93L503.99,328.78z"/>
		<path class="st5" d="M512.3,319.48c0-4.49,1.62-6.9,4.29-6.9c2.67,0,4.29,2.42,4.29,6.9c0,4.49-1.62,7-4.29,7
			C513.92,326.48,512.3,323.97,512.3,319.48z M519.21,319.48c0-3.93-1.06-5.51-2.62-5.51c-1.56,0-2.62,1.58-2.62,5.51
			c0,3.93,1.06,5.61,2.62,5.61C518.15,325.09,519.21,323.41,519.21,319.48z"/>
		<path class="st5" d="M526.85,312.44h4.32c2.81,0,4.82,1.01,4.82,3.88c0,2.75-2.02,4.08-4.82,4.08h-2.56v5.82h-1.75V312.44z
			 M530.91,318.98c2.14,0,3.32-0.87,3.32-2.65c0-1.81-1.18-2.46-3.32-2.46h-2.31v5.11H530.91z M530.82,319.92l1.37-0.91l4.2,7.21
			h-1.99L530.82,319.92z"/>
		<path class="st5" d="M538.11,311.27h1.73v4.09l-0.06,2.1c0.95-0.92,1.99-1.69,3.39-1.69c2.15,0,3.12,1.39,3.12,3.99v6.47h-1.73
			v-6.24c0-1.9-0.57-2.71-1.93-2.71c-1.04,0-1.77,0.53-2.79,1.57v7.39h-1.73V311.27z"/>
		<path class="st5" d="M552.68,320.39c0-3.7,1.03-6.72,2.77-9.54l1.07,0.5c-1.62,2.68-2.41,5.85-2.41,9.04s0.79,6.36,2.41,9.04
			l-1.07,0.5C553.71,327.11,552.68,324.08,552.68,320.39z"/>
		<path class="st5" d="M557.67,320.3h4.81v1.33h-4.81V320.3z"/>
		<path class="st5" d="M563.6,329.43c1.62-2.68,2.41-5.85,2.41-9.04s-0.79-6.36-2.41-9.04l1.07-0.5c1.74,2.82,2.77,5.84,2.77,9.54
			s-1.03,6.72-2.77,9.54L563.6,329.43z"/>
	</g>
</g>
<g>
	<g>
		<path class="st5" d="M307.01,365.57c0-4.49,1.62-6.9,4.29-6.9s4.29,2.42,4.29,6.9c0,4.49-1.62,7-4.29,7
			S307.01,370.06,307.01,365.57z M313.92,365.57c0-3.93-1.06-5.51-2.62-5.51s-2.62,1.58-2.62,5.51c0,3.93,1.06,5.61,2.62,5.61
			S313.92,369.5,313.92,365.57z"/>
		<path class="st5" d="M321.56,358.54h4.32c2.81,0,4.82,1.01,4.82,3.88c0,2.75-2.02,4.08-4.82,4.08h-2.56v5.82h-1.75V358.54z
			 M325.62,365.07c2.14,0,3.32-0.87,3.32-2.65c0-1.81-1.18-2.46-3.32-2.46h-2.31v5.11H325.62z M325.53,366.01l1.37-0.91l4.2,7.21
			h-1.99L325.53,366.01z"/>
		<path class="st5" d="M332.82,357.36h1.73v4.09l-0.06,2.1c0.95-0.92,1.99-1.69,3.39-1.69c2.15,0,3.12,1.39,3.12,3.99v6.47h-1.73
			v-6.24c0-1.9-0.57-2.71-1.93-2.71c-1.04,0-1.77,0.53-2.79,1.57v7.39h-1.73V357.36z"/>
		<path class="st5" d="M347.39,366.48c0-3.7,1.03-6.72,2.77-9.54l1.07,0.5c-1.62,2.68-2.41,5.85-2.41,9.04s0.79,6.36,2.41,9.04
			l-1.07,0.5C348.42,373.2,347.39,370.17,347.39,366.48z"/>
		<path class="st5" d="M356.03,366.04h-3.81v-1.3h3.81v-4.1h1.38v4.1h3.81v1.3h-3.81v4.1h-1.38V366.04z"/>
		<path class="st5" d="M362.22,375.52c1.62-2.68,2.41-5.85,2.41-9.04s-0.79-6.36-2.41-9.04l1.07-0.5c1.74,2.82,2.77,5.84,2.77,9.54
			s-1.03,6.72-2.77,9.54L362.22,375.52z"/>
		<path class="st5" d="M368.25,374.87c1.18-0.52,1.9-1.45,1.89-2.6l-0.19-1.55l0.85,1.26c-0.23,0.28-0.54,0.36-0.87,0.36
			c-0.67,0-1.25-0.42-1.25-1.2c0-0.75,0.59-1.2,1.28-1.2c0.92,0,1.46,0.77,1.46,2.03c0,1.81-1.06,3.23-2.75,3.93L368.25,374.87z"/>
		<path class="st5" d="M376.56,365.57c0-4.49,1.62-6.9,4.29-6.9c2.67,0,4.29,2.42,4.29,6.9c0,4.49-1.62,7-4.29,7
			C378.18,372.57,376.56,370.06,376.56,365.57z M383.47,365.57c0-3.93-1.06-5.51-2.62-5.51c-1.56,0-2.62,1.58-2.62,5.51
			c0,3.93,1.06,5.61,2.62,5.61C382.41,371.18,383.47,369.5,383.47,365.57z"/>
		<path class="st5" d="M391.11,358.54h4.32c2.81,0,4.82,1.01,4.82,3.88c0,2.75-2.02,4.08-4.82,4.08h-2.56v5.82h-1.75V358.54z
			 M395.17,365.07c2.14,0,3.32-0.87,3.32-2.65c0-1.81-1.18-2.46-3.32-2.46h-2.31v5.11H395.17z M395.08,366.01l1.37-0.91l4.2,7.21
			h-1.99L395.08,366.01z"/>
		<path class="st5" d="M402.37,357.36h1.73v4.09l-0.06,2.1c0.95-0.92,1.99-1.69,3.39-1.69c2.15,0,3.12,1.39,3.12,3.99v6.47h-1.73
			v-6.24c0-1.9-0.57-2.71-1.93-2.71c-1.04,0-1.77,0.53-2.79,1.57v7.39h-1.73V357.36z"/>
		<path class="st5" d="M416.94,366.48c0-3.7,1.03-6.72,2.77-9.54l1.07,0.5c-1.62,2.68-2.41,5.85-2.41,9.04s0.79,6.36,2.41,9.04
			l-1.07,0.5C417.97,373.2,416.94,370.17,416.94,366.48z"/>
		<path class="st5" d="M421.93,366.39h4.81v1.33h-4.81V366.39z"/>
		<path class="st5" d="M427.86,375.52c1.62-2.68,2.41-5.85,2.41-9.04s-0.79-6.36-2.41-9.04l1.07-0.5c1.74,2.82,2.77,5.84,2.77,9.54
			s-1.03,6.72-2.77,9.54L427.86,375.52z"/>
	</g>
</g>
<g>
	<g>
		<path class="st5" d="M307.01,412.66c0-4.49,1.62-6.9,4.29-6.9c2.67,0,4.29,2.42,4.29,6.9c0,4.49-1.62,7-4.29,7
			C308.63,419.66,307.01,417.15,307.01,412.66z M313.92,412.66c0-3.93-1.06-5.51-2.62-5.51c-1.56,0-2.62,1.58-2.62,5.51
			c0,3.93,1.06,5.61,2.62,5.61C312.86,418.27,313.92,416.59,313.92,412.66z"/>
		<path class="st5" d="M321.97,405.63h4.32c2.81,0,4.82,1.01,4.82,3.88c0,2.75-2.02,4.08-4.82,4.08h-2.56v5.82h-1.75V405.63z
			 M326.04,412.16c2.14,0,3.32-0.87,3.32-2.65c0-1.81-1.18-2.46-3.32-2.46h-2.31v5.11H326.04z M325.94,413.1l1.37-0.91l4.2,7.21
			h-1.99L325.94,413.1z"/>
		<path class="st5" d="M333.45,404.45h1.73v4.09l-0.06,2.1c0.95-0.92,1.99-1.69,3.39-1.69c2.15,0,3.12,1.39,3.12,3.99v6.47h-1.73
			v-6.24c0-1.9-0.57-2.71-1.93-2.71c-1.04,0-1.77,0.53-2.79,1.57v7.39h-1.73V404.45z"/>
		<path class="st5" d="M348.44,413.57c0-3.7,1.03-6.72,2.77-9.54l1.07,0.5c-1.62,2.68-2.41,5.85-2.41,9.04s0.79,6.36,2.41,9.04
			l-1.07,0.5C349.47,420.29,348.44,417.26,348.44,413.57z"/>
		<path class="st5" d="M353.64,413.48h4.81v1.33h-4.81V413.48z"/>
		<path class="st5" d="M359.78,422.61c1.62-2.68,2.41-5.85,2.41-9.04s-0.79-6.36-2.41-9.04l1.07-0.5c1.74,2.82,2.77,5.84,2.77,9.54
			s-1.03,6.72-2.77,9.54L359.78,422.61z"/>
	</g>
</g>
<g>
	<g>
		<path class="st6" d="M21.18,29.62h3.13v8.02h0.09l6.28-8.02h3.48l-5.43,6.89l6.35,10.76h-3.46l-4.77-8.3l-2.54,3.15v5.15h-3.13
			V29.62z"/>
		<path class="st6" d="M36.35,34.02h2.55l0.24,2.36h0.09c0.94-1.73,2.35-2.69,3.77-2.69c0.67,0,1.1,0.09,1.5,0.27l-0.54,2.7
			c-0.46-0.13-0.81-0.22-1.36-0.22c-1.06,0-2.33,0.72-3.13,2.74v8.09h-3.11V34.02z"/>
		<path class="st6" d="M44.1,34.02h3.15l2.11,6.88c0.37,1.31,0.76,2.67,1.12,4h0.11c0.37-1.33,0.76-2.69,1.12-4l2.11-6.88h3
			l-4.5,13.26h-3.6L44.1,34.02z"/>
		<path class="st6" d="M58.44,34.02h2.55l0.24,1.79h0.09c1.19-1.16,2.54-2.12,4.35-2.12c2.84,0,4.08,1.92,4.08,5.27v8.31h-3.11
			v-7.91c0-2.18-0.63-3-2.06-3c-1.17,0-1.93,0.57-3.02,1.65v9.26h-3.11V34.02z"/>
		<path class="st6" d="M72.17,43.71c0-2.84,2.35-4.32,7.8-4.9c-0.04-1.43-0.62-2.61-2.41-2.61c-1.32,0-2.56,0.59-3.73,1.31
			l-1.14-2.07c1.46-0.92,3.34-1.74,5.44-1.74c3.31,0,4.95,2.04,4.95,5.73v7.85h-2.55l-0.24-1.47H80.2
			c-1.19,1.01-2.55,1.79-4.11,1.79C73.77,47.6,72.17,46.03,72.17,43.71z M79.97,43.73v-2.98c-3.6,0.45-4.79,1.39-4.79,2.73
			c0,1.17,0.8,1.68,1.91,1.68C78.16,45.16,78.98,44.63,79.97,43.73z"/>
		<path class="st6" d="M89.96,49.69c0-1.12,0.69-2.09,1.91-2.83v-0.11c-0.68-0.44-1.2-1.14-1.2-2.21c0-1.03,0.7-1.93,1.47-2.47
			v-0.11c-0.91-0.67-1.75-1.93-1.75-3.5c0-3.04,2.46-4.76,5.24-4.76c0.73,0,1.43,0.13,1.97,0.32h4.74v2.31h-2.42
			c0.43,0.5,0.76,1.32,0.76,2.22c0,2.95-2.24,4.52-5.04,4.52c-0.56,0-1.2-0.12-1.79-0.35c-0.4,0.34-0.65,0.67-0.65,1.27
			c0,0.75,0.54,1.2,2.15,1.2h2.36c3.17,0,4.85,0.98,4.85,3.27c0,2.61-2.74,4.68-7.07,4.68C92.31,53.14,89.96,52.01,89.96,49.69z
			 M99.55,48.97c0-1.03-0.82-1.33-2.34-1.33h-1.82c-0.71,0-1.29-0.05-1.79-0.18c-0.71,0.54-1.03,1.13-1.03,1.75
			c0,1.21,1.3,1.91,3.38,1.91C98.09,51.12,99.55,50.12,99.55,48.97z M97.93,38.46c0-1.66-1-2.61-2.3-2.61c-1.3,0-2.3,0.94-2.3,2.61
			c0,1.68,1.03,2.67,2.3,2.67S97.93,40.14,97.93,38.46z"/>
		<path class="st6" d="M104.23,34.02h2.55l0.24,2.36h0.09c0.94-1.73,2.35-2.69,3.77-2.69c0.67,0,1.1,0.09,1.5,0.27l-0.54,2.7
			c-0.46-0.13-0.81-0.22-1.36-0.22c-1.06,0-2.33,0.72-3.13,2.74v8.09h-3.11V34.02z"/>
		<path class="st6" d="M113.48,42.33v-8.31h3.11v7.91c0,2.18,0.63,3,2.06,3c1.17,0,1.93-0.54,2.94-1.84v-9.08h3.11v13.26h-2.55
			l-0.24-1.95h-0.09c-1.17,1.38-2.45,2.28-4.26,2.28C114.72,47.6,113.48,45.68,113.48,42.33z"/>
		<path class="st6" d="M127.96,34.02h2.55l0.24,1.41h0.09c1.12-0.96,2.54-1.74,3.99-1.74c3.31,0,5.21,2.66,5.21,6.75
			c0,4.53-2.71,7.16-5.66,7.16c-1.18,0-2.33-0.53-3.41-1.46l0.1,2.2v4.18h-3.11V34.02z M136.85,40.48c0-2.65-0.86-4.21-2.88-4.21
			c-0.96,0-1.87,0.49-2.89,1.49v6.18c0.95,0.81,1.89,1.1,2.66,1.1C135.5,45.03,136.85,43.48,136.85,40.48z"/>
		<path class="st6" d="M141.8,43.71c0-2.84,2.35-4.32,7.8-4.9c-0.04-1.43-0.62-2.61-2.41-2.61c-1.32,0-2.56,0.59-3.72,1.31
			l-1.14-2.07c1.46-0.92,3.34-1.74,5.44-1.74c3.31,0,4.95,2.04,4.95,5.73v7.85h-2.55l-0.24-1.47h-0.09
			c-1.19,1.01-2.55,1.79-4.11,1.79C143.4,47.6,141.8,46.03,141.8,43.71z M149.6,43.73v-2.98c-3.6,0.45-4.79,1.39-4.79,2.73
			c0,1.17,0.8,1.68,1.91,1.68C147.8,45.16,148.62,44.63,149.6,43.73z"/>
		<path class="st6" d="M160.14,29.94c0-1.05,0.82-1.76,1.92-1.76c1.1,0,1.92,0.71,1.92,1.76c0,1.03-0.82,1.76-1.92,1.76
			C160.96,31.7,160.14,30.96,160.14,29.94z M160.5,34.02h3.11v13.26h-3.11V34.02z"/>
		<path class="st6" d="M171.89,29.62h5.95c3.67,0,6.5,1.3,6.5,5.24c0,3.79-2.83,5.52-6.5,5.52h-2.82v6.9h-3.13V29.62z M177.52,37.87
			c2.42,0,3.74-1,3.74-3.01c0-2.03-1.32-2.73-3.74-2.73h-2.49v5.74H177.52z M177.25,39.54l2.27-1.87l5.51,9.6h-3.52L177.25,39.54z"
			/>
		<path class="st6" d="M186.93,28.21h3.11v4.93l-0.13,2.56c1.11-1.05,2.43-2.01,4.24-2.01c2.84,0,4.08,1.92,4.08,5.27v8.31h-3.11
			v-7.91c0-2.18-0.63-3-2.06-3c-1.17,0-1.93,0.57-3.02,1.65v9.26h-3.11V28.21z"/>
		<path class="st6" d="M204.79,34.16l1.94-0.14h5.54v2.47h-7.48V34.16z M206.58,32.65c0-2.75,1.26-4.76,4.39-4.76
			c0.96,0,1.84,0.23,2.43,0.46l-0.59,2.32c-0.48-0.21-0.98-0.31-1.44-0.31c-1.1,0-1.68,0.7-1.68,2.23v14.68h-3.11V32.65z"/>
		<path class="st6" d="M213.22,43.71c0-2.84,2.35-4.32,7.8-4.9c-0.04-1.43-0.62-2.61-2.41-2.61c-1.32,0-2.56,0.59-3.73,1.31
			l-1.14-2.07c1.46-0.92,3.34-1.74,5.44-1.74c3.31,0,4.95,2.04,4.95,5.73v7.85h-2.55l-0.24-1.47h-0.09
			c-1.19,1.01-2.55,1.79-4.11,1.79C214.82,47.6,213.22,46.03,213.22,43.71z M221.01,43.73v-2.98c-3.6,0.45-4.79,1.39-4.79,2.73
			c0,1.17,0.8,1.68,1.91,1.68C219.21,45.16,220.03,44.63,221.01,43.73z"/>
		<path class="st6" d="M227.19,28.21h3.04v11.91h0.09l4.91-6.1h3.4l-4.55,5.4l5.01,7.86h-3.38l-3.41-5.75l-2.07,2.39v3.37h-3.04
			V28.21z"/>
		<path class="st6" d="M241.07,42.81v-6.32h-1.89v-2.33l2.05-0.14l0.37-3.62h2.58v3.62h3.38v2.47h-3.38v6.31
			c0,1.56,0.6,2.33,1.88,2.33c0.45,0,0.99-0.15,1.38-0.3l0.53,2.29c-0.72,0.24-1.65,0.49-2.71,0.49
			C242.2,47.6,241.07,45.67,241.07,42.81z"/>
		<path class="st6" d="M248.8,40.66c0-4.42,3-6.96,6.31-6.96c3.3,0,6.31,2.55,6.31,6.96c0,4.39-3,6.94-6.31,6.94
			C251.8,47.6,248.8,45.05,248.8,40.66z M258.22,40.66c0-2.66-1.17-4.43-3.11-4.43c-1.94,0-3.11,1.77-3.11,4.43s1.17,4.41,3.11,4.41
			C257.05,45.06,258.22,43.32,258.22,40.66z"/>
		<path class="st6" d="M263.82,34.02h2.55l0.24,2.36h0.09c0.94-1.73,2.35-2.69,3.77-2.69c0.67,0,1.1,0.09,1.5,0.27l-0.54,2.7
			c-0.46-0.13-0.81-0.22-1.36-0.22c-1.06,0-2.33,0.72-3.13,2.74v8.09h-3.11V34.02z"/>
	</g>
</g>
<g>
	<g>
		<path class="st6" d="M308.41,29.67h3.25v8.32h0.09l6.52-8.32h3.61l-5.63,7.15l6.59,11.17h-3.58l-4.95-8.61l-2.63,3.27v5.34h-3.25
			V29.67z"/>
		<path class="st6" d="M323.94,41.12c0-4.58,3.11-7.22,6.54-7.22s6.54,2.64,6.54,7.22c0,4.56-3.11,7.2-6.54,7.2
			S323.94,45.68,323.94,41.12z M333.71,41.12c0-2.75-1.21-4.59-3.23-4.59s-3.23,1.84-3.23,4.59c0,2.76,1.21,4.57,3.23,4.57
			S333.71,43.87,333.71,41.12z"/>
		<path class="st6" d="M340.22,34.23h2.64l0.25,1.88h0.09c1.16-1.22,2.5-2.21,4.22-2.21c2.02,0,3.16,0.92,3.8,2.46
			c1.32-1.4,2.68-2.46,4.42-2.46c2.9,0,4.24,1.99,4.24,5.47v8.62h-3.23v-8.21c0-2.26-0.67-3.11-2.12-3.11
			c-0.87,0-1.81,0.56-2.88,1.71v9.61h-3.23v-8.21c0-2.26-0.67-3.11-2.12-3.11c-0.85,0-1.81,0.56-2.88,1.71v9.61h-3.23V34.23z"/>
		<path class="st6" d="M363.83,34.23h2.64l0.25,1.47h0.09c1.16-1,2.63-1.8,4.14-1.8c3.44,0,5.41,2.75,5.41,7
			c0,4.7-2.81,7.43-5.87,7.43c-1.22,0-2.42-0.55-3.54-1.51l0.1,2.28v4.33h-3.23V34.23z M373.04,40.93c0-2.74-0.9-4.37-2.99-4.37
			c-1,0-1.94,0.5-3,1.55v6.41c0.99,0.84,1.96,1.14,2.75,1.14C371.64,45.65,373.04,44.04,373.04,40.93z"/>
		<path class="st6" d="M378.88,44.29c0-2.95,2.44-4.48,8.09-5.08c-0.04-1.48-0.64-2.71-2.5-2.71c-1.37,0-2.65,0.62-3.86,1.36
			l-1.19-2.15c1.51-0.95,3.46-1.8,5.64-1.8c3.44,0,5.13,2.12,5.13,5.95v8.14h-2.64l-0.25-1.52h-0.09c-1.23,1.05-2.64,1.86-4.27,1.86
			C380.54,48.32,378.88,46.68,378.88,44.29z M386.97,44.3v-3.09c-3.73,0.47-4.97,1.44-4.97,2.83c0,1.22,0.83,1.75,1.98,1.75
			C385.09,45.79,385.95,45.24,386.97,44.3z"/>
		<path class="st6" d="M394.55,43.35v-6.55h-1.96v-2.42l2.13-0.15l0.38-3.75h2.68v3.75h3.51v2.56h-3.51v6.55
			c0,1.62,0.63,2.41,1.95,2.41c0.47,0,1.03-0.16,1.43-0.31l0.55,2.37c-0.75,0.25-1.71,0.5-2.81,0.5
			C395.72,48.32,394.55,46.31,394.55,43.35z"/>
		<path class="st6" d="M403.8,30c0-1.09,0.85-1.83,1.99-1.83c1.14,0,1.99,0.74,1.99,1.83c0,1.06-0.85,1.83-1.99,1.83
			C404.66,31.82,403.8,31.06,403.8,30z M404.17,34.23h3.23v13.75h-3.23V34.23z"/>
		<path class="st6" d="M414.42,46.54h-0.09l-0.28,1.44h-2.54V28.2h3.23v5.12l-0.09,2.28c1.15-1.01,2.56-1.71,3.97-1.71
			c3.44,0,5.43,2.75,5.43,6.98c0,4.72-2.81,7.44-5.87,7.44C416.92,48.32,415.58,47.68,414.42,46.54z M420.73,40.93
			c0-2.74-0.9-4.37-2.99-4.37c-1,0-1.96,0.5-3,1.55v6.41c0.96,0.84,1.96,1.14,2.75,1.14C419.33,45.65,420.73,44.04,420.73,40.93z"/>
		<path class="st6" d="M426.9,30c0-1.09,0.85-1.83,1.99-1.83c1.14,0,1.99,0.74,1.99,1.83c0,1.06-0.85,1.83-1.99,1.83
			C427.75,31.82,426.9,31.06,426.9,30z M427.27,34.23h3.23v13.75h-3.23V34.23z"/>
		<path class="st6" d="M434.61,44.44V28.2h3.23v16.41c0,0.79,0.36,1.08,0.69,1.08c0.15,0,0.26,0,0.5-0.06l0.4,2.41
			c-0.39,0.16-0.93,0.28-1.7,0.28C435.45,48.32,434.61,46.84,434.61,44.44z"/>
		<path class="st6" d="M442.2,34.23h2.64l0.25,1.86h0.09c1.23-1.2,2.63-2.19,4.51-2.19c2.95,0,4.23,1.99,4.23,5.47v8.62h-3.23v-8.21
			c0-2.26-0.65-3.11-2.14-3.11c-1.21,0-2,0.59-3.14,1.71v9.61h-3.23V34.23z"/>
		<path class="st6" d="M457.14,44.29c0-2.95,2.44-4.48,8.09-5.08c-0.04-1.48-0.64-2.71-2.5-2.71c-1.37,0-2.65,0.62-3.86,1.36
			l-1.19-2.15c1.51-0.95,3.46-1.8,5.64-1.8c3.44,0,5.13,2.12,5.13,5.95v8.14h-2.64l-0.25-1.52h-0.09c-1.23,1.05-2.64,1.86-4.27,1.86
			C458.79,48.32,457.14,46.68,457.14,44.29z M465.22,44.3v-3.09c-3.73,0.47-4.97,1.44-4.97,2.83c0,1.22,0.83,1.75,1.98,1.75
			C463.35,45.79,464.2,45.24,465.22,44.3z"/>
		<path class="st6" d="M477.92,28.2h3.16v12.35h0.09l5.1-6.33h3.53l-4.71,5.6l5.2,8.15h-3.51l-3.54-5.97l-2.15,2.48v3.49h-3.16V28.2
			z"/>
		<path class="st6" d="M492.54,34.23h2.64l0.25,2.45h0.09c0.98-1.79,2.44-2.79,3.91-2.79c0.7,0,1.14,0.09,1.56,0.28l-0.56,2.8
			c-0.48-0.13-0.84-0.22-1.41-0.22c-1.1,0-2.42,0.75-3.25,2.84v8.39h-3.23V34.23z"/>
		<path class="st6" d="M501.27,34.23h3.27l2.18,7.13c0.38,1.35,0.78,2.77,1.16,4.14H508c0.38-1.38,0.78-2.79,1.16-4.14l2.18-7.13
			h3.11l-4.67,13.75h-3.73L501.27,34.23z"/>
		<path class="st6" d="M516.84,34.23h2.64l0.25,1.86h0.09c1.23-1.2,2.63-2.19,4.51-2.19c2.95,0,4.23,1.99,4.23,5.47v8.62h-3.23
			v-8.21c0-2.26-0.65-3.11-2.14-3.11c-1.21,0-2,0.59-3.14,1.71v9.61h-3.23V34.23z"/>
		<path class="st6" d="M531.79,44.29c0-2.95,2.44-4.48,8.09-5.08c-0.04-1.48-0.64-2.71-2.5-2.71c-1.37,0-2.65,0.62-3.86,1.36
			l-1.19-2.15c1.51-0.95,3.46-1.8,5.64-1.8c3.44,0,5.13,2.12,5.13,5.95v8.14h-2.64l-0.25-1.52h-0.09c-1.23,1.05-2.64,1.86-4.27,1.86
			C533.44,48.32,531.79,46.68,531.79,44.29z M539.87,44.3v-3.09c-3.73,0.47-4.97,1.44-4.97,2.83c0,1.22,0.83,1.75,1.98,1.75
			C538,45.79,538.85,45.24,539.87,44.3z"/>
		<path class="st6" d="M551.63,50.48c0-1.16,0.72-2.17,1.98-2.93v-0.11c-0.71-0.46-1.24-1.19-1.24-2.3c0-1.06,0.73-2,1.52-2.56
			v-0.11c-0.94-0.69-1.81-2-1.81-3.63c0-3.16,2.55-4.94,5.43-4.94c0.76,0,1.48,0.13,2.04,0.34h4.92v2.4h-2.51
			c0.45,0.52,0.78,1.37,0.78,2.31c0,3.06-2.32,4.69-5.23,4.69c-0.58,0-1.24-0.12-1.86-0.36c-0.41,0.35-0.67,0.7-0.67,1.32
			c0,0.77,0.56,1.24,2.23,1.24h2.45c3.29,0,5.03,1.02,5.03,3.39c0,2.71-2.84,4.85-7.34,4.85C554.07,54.07,551.63,52.89,551.63,50.48
			z M561.58,49.74c0-1.06-0.85-1.38-2.42-1.38h-1.89c-0.74,0-1.33-0.06-1.86-0.19c-0.74,0.56-1.06,1.18-1.06,1.81
			c0,1.25,1.34,1.98,3.51,1.98C560.06,51.97,561.58,50.93,561.58,49.74z M559.9,38.83c0-1.72-1.04-2.71-2.39-2.71
			c-1.34,0-2.39,0.97-2.39,2.71c0,1.75,1.06,2.77,2.39,2.77S559.9,40.58,559.9,38.83z"/>
		<path class="st6" d="M567.13,34.23h2.64l0.25,2.45h0.09c0.98-1.79,2.44-2.79,3.91-2.79c0.7,0,1.14,0.09,1.56,0.28l-0.56,2.8
			c-0.48-0.13-0.84-0.22-1.41-0.22c-1.1,0-2.42,0.75-3.25,2.84v8.39h-3.23V34.23z"/>
		<path class="st6" d="M577.42,42.85v-8.62h3.23v8.21c0,2.26,0.65,3.11,2.14,3.11c1.21,0,2-0.56,3.05-1.9v-9.42h3.23v13.75h-2.64
			l-0.25-2.03h-0.09c-1.21,1.43-2.54,2.36-4.42,2.36C578.71,48.32,577.42,46.33,577.42,42.85z"/>
		<path class="st6" d="M593.14,34.23h2.64l0.25,1.47h0.09c1.16-1,2.63-1.8,4.14-1.8c3.44,0,5.41,2.75,5.41,7
			c0,4.7-2.81,7.43-5.87,7.43c-1.22,0-2.42-0.55-3.54-1.51l0.1,2.28v4.33h-3.23V34.23z M602.36,40.93c0-2.74-0.9-4.37-2.99-4.37
			c-1,0-1.94,0.5-3,1.55v6.41c0.99,0.84,1.96,1.14,2.75,1.14C600.96,45.65,602.36,44.04,602.36,40.93z"/>
		<path class="st6" d="M608.2,44.29c0-2.95,2.44-4.48,8.09-5.08c-0.04-1.48-0.64-2.71-2.5-2.71c-1.37,0-2.65,0.62-3.86,1.36
			l-1.19-2.15c1.51-0.95,3.46-1.8,5.64-1.8c3.44,0,5.13,2.12,5.13,5.95v8.14h-2.64l-0.25-1.52h-0.09c-1.23,1.05-2.64,1.86-4.27,1.86
			C609.85,48.32,608.2,46.68,608.2,44.29z M616.28,44.3v-3.09c-3.73,0.47-4.97,1.44-4.97,2.83c0,1.22,0.83,1.75,1.98,1.75
			C614.41,45.79,615.26,45.24,616.28,44.3z"/>
		<path class="st6" d="M628.61,30c0-1.09,0.85-1.83,1.99-1.83c1.14,0,1.99,0.74,1.99,1.83c0,1.06-0.85,1.83-1.99,1.83
			C629.46,31.82,628.61,31.06,628.61,30z M628.98,34.23h3.23v13.75h-3.23V34.23z"/>
		<path class="st6" d="M642.2,29.67h6.17c3.81,0,6.74,1.34,6.74,5.43c0,3.94-2.93,5.72-6.74,5.72h-2.92v7.16h-3.25V29.67z
			 M648.03,38.23c2.51,0,3.88-1.04,3.88-3.12c0-2.11-1.37-2.83-3.88-2.83h-2.59v5.96H648.03z M647.76,39.96l2.35-1.94l5.72,9.96
			h-3.65L647.76,39.96z"/>
		<path class="st6" d="M658.49,28.2h3.23v5.12l-0.13,2.65c1.15-1.09,2.52-2.08,4.4-2.08c2.95,0,4.23,1.99,4.23,5.47v8.62H667v-8.21
			c0-2.26-0.65-3.11-2.14-3.11c-1.21,0-2,0.59-3.14,1.71v9.61h-3.23V28.2z"/>
		<path class="st6" d="M678.42,34.38l2.02-0.15h5.75v2.56h-7.76V34.38z M680.27,32.81c0-2.85,1.31-4.94,4.56-4.94
			c1,0,1.9,0.24,2.52,0.48l-0.62,2.41c-0.49-0.21-1.02-0.32-1.49-0.32c-1.14,0-1.75,0.72-1.75,2.32v15.23h-3.23V32.81z"/>
		<path class="st6" d="M687.85,44.29c0-2.95,2.44-4.48,8.09-5.08c-0.04-1.48-0.64-2.71-2.5-2.71c-1.37,0-2.65,0.62-3.86,1.36
			l-1.19-2.15c1.51-0.95,3.46-1.8,5.64-1.8c3.44,0,5.13,2.12,5.13,5.95v8.14h-2.64l-0.25-1.52h-0.09c-1.23,1.05-2.64,1.86-4.27,1.86
			C689.51,48.32,687.85,46.68,687.85,44.29z M695.94,44.3v-3.09c-3.73,0.47-4.97,1.44-4.97,2.83c0,1.22,0.83,1.75,1.98,1.75
			C694.07,45.79,694.92,45.24,695.94,44.3z"/>
		<path class="st6" d="M703.04,28.2h3.16v12.35h0.09l5.1-6.33h3.53l-4.71,5.6l5.2,8.15h-3.51l-3.54-5.97l-2.15,2.48v3.49h-3.16V28.2
			z"/>
		<path class="st6" d="M718.14,43.35v-6.55h-1.96v-2.42l2.13-0.15l0.38-3.75h2.68v3.75h3.51v2.56h-3.51v6.55
			c0,1.62,0.63,2.41,1.95,2.41c0.47,0,1.03-0.16,1.43-0.31l0.55,2.37c-0.75,0.25-1.71,0.5-2.81,0.5
			C719.31,48.32,718.14,46.31,718.14,43.35z"/>
		<path class="st6" d="M726.86,41.12c0-4.58,3.11-7.22,6.54-7.22s6.54,2.64,6.54,7.22c0,4.56-3.11,7.2-6.54,7.2
			S726.86,45.68,726.86,41.12z M736.62,41.12c0-2.75-1.21-4.59-3.23-4.59s-3.23,1.84-3.23,4.59c0,2.76,1.21,4.57,3.23,4.57
			S736.62,43.87,736.62,41.12z"/>
		<path class="st6" d="M743.14,34.23h2.64l0.25,2.45h0.09c0.98-1.79,2.44-2.79,3.91-2.79c0.7,0,1.14,0.09,1.56,0.28l-0.56,2.8
			c-0.48-0.13-0.84-0.22-1.41-0.22c-1.1,0-2.42,0.75-3.25,2.84v8.39h-3.23V34.23z"/>
	</g>
</g>
<rect x="-505.29" y="-441.23" class="st7" width="212.18" height="149.6"/>
</svg>
