<?xml version="1.0" encoding="utf-8"?>
<!-- Generator: Adobe Illustrator 23.0.1, SVG Export Plug-In . SVG Version: 6.00 Build 0)  -->
<svg version="1.1" id="Layer_1" xmlns="http://www.w3.org/2000/svg" xmlns:xlink="http://www.w3.org/1999/xlink" x="0px" y="0px"
	 viewBox="0 0 747.4 312.6" style="enable-background:new 0 0 747.4 312.6;" xml:space="preserve">
<style type="text/css">
	.st0{fill:#F0FEFA;}
	.st1{opacity:0.2;fill:#77F3CF;}
	.st2{opacity:0.8;}
	.st3{fill:#77F3CF;}
	.st4{fill:none;}
	.st5{fill:none;stroke:#77F3CF;stroke-width:4;stroke-miterlimit:10;}
	.st6{fill:#808184;}
	.st7{fill:#FFFFFF;}
</style>
<path class="st0" d="M715.5,310.6H32.3c-16.6,0-30-13.4-30-30V26c0-16.6,13.4-24,30-24h683.2c16.6,0,30,7.4,30,24v254.5
	C745.5,297.1,732,310.6,715.5,310.6z"/>
<path class="st1" d="M427.2,309.6l89.1-72.3l124.9-17.3L743.6,157v131.2c0,11.8-9.6,21.3-21.3,21.3H427.2z"/>
<path class="st1" d="M468.5,309.6l77.4-34.3l108.7-8.2l89-29.8V287c0,12.5-10.1,22.5-22.5,22.5H468.5z"/>
<g class="st2">
	<path class="st3" d="M2.6,75.2V33c0-16.6,13.4-31,30-31h682.9c16.6,0,30,14.4,30,31v42.2"/>
	<line class="st4" x1="2.6" y1="75.2" x2="528.1" y2="75.2"/>
	<line class="st4" x1="2.6" y1="75.2" x2="2.3" y2="75.2"/>
</g>
<path class="st5" d="M715.4,310.6H32.3c-16.6,0-30-13.4-30-30V32c0-16.6,13.4-30,30-30h683.2c16.6,0,30,13.4,30,30v248.5
	C745.5,297.1,732,310.6,715.4,310.6z"/>
<line class="st5" x1="429.6" y1="2" x2="429.6" y2="310.6"/>
<line class="st5" x1="254.9" y1="2" x2="254.9" y2="310.6"/>
<line class="st5" x1="71.4" y1="2" x2="71.4" y2="310.6"/>
<line class="st5" x1="745.4" y1="75.2" x2="2" y2="75.2"/>
<line class="st5" x1="745.4" y1="133.2" x2="2" y2="133.2"/>
<line class="st5" x1="745.4" y1="191.2" x2="2" y2="191.2"/>
<line class="st5" x1="745.4" y1="249.2" x2="2" y2="249.2"/>
<g>
	<g>
		<path class="st6" d="M445,156.1h1.8v13.8H445V156.1z"/>
		<path class="st6" d="M449.8,159.7h1.4l0.1,1.5h0.1c1-1,2-1.7,3.4-1.7c2.2,0,3.1,1.4,3.1,4v6.5h-1.7v-6.2c0-1.9-0.6-2.7-1.9-2.7
			c-1,0-1.8,0.5-2.8,1.6v7.4h-1.7V159.7z"/>
		<path class="st6" d="M459.7,159.8l1.5-0.1h3.8v1.4h-5.3V159.8z M461.1,158.1c0-2.1,0.9-3.4,3-3.4c0.6,0,1.2,0.2,1.7,0.4l-0.4,1.3
			c-0.4-0.2-0.8-0.3-1.2-0.3c-1,0-1.4,0.7-1.4,2v11.8h-1.7V158.1z"/>
		<path class="st6" d="M465.6,164.8c0-3.3,2.2-5.4,4.6-5.4c2.6,0,4.1,1.9,4.1,4.8c0,0.4,0,0.7-0.1,1h-6.9c0.1,2.2,1.4,3.6,3.4,3.6
			c1,0,1.8-0.3,2.5-0.8l0.6,1.1c-0.9,0.6-2,1.1-3.4,1.1C467.8,170.1,465.6,168.2,465.6,164.8z M472.8,164c0-2-0.9-3.2-2.5-3.2
			c-1.4,0-2.7,1.2-2.9,3.2H472.8z"/>
		<path class="st6" d="M476.3,154.9h1.7v10.1h0.1l4.4-5.4h1.9l-3.4,4.1l3.9,6.1h-1.9l-3-4.9l-1.9,2.2v2.7h-1.7V154.9z"/>
		<path class="st6" d="M485.4,164.8c0-3.4,2.3-5.4,4.9-5.4c1.3,0,2.3,0.6,3,1.2l-0.9,1.1c-0.6-0.5-1.2-0.9-2-0.9
			c-1.8,0-3.2,1.6-3.2,3.9s1.3,3.9,3.2,3.9c0.9,0,1.8-0.5,2.4-1l0.7,1.2c-0.9,0.8-2.1,1.3-3.3,1.3
			C487.5,170.1,485.4,168.2,485.4,164.8z"/>
		<path class="st6" d="M494.9,156.5c0-0.7,0.5-1.1,1.2-1.1s1.2,0.4,1.2,1.1c0,0.7-0.5,1.1-1.2,1.1S494.9,157.1,494.9,156.5z
			 M495.2,159.7h1.7v10.2h-1.7V159.7z"/>
		<path class="st6" d="M497.3,174.2l0.3-1.3c0.3,0.1,0.6,0.2,1,0.2c1,0,1.3-0.8,1.3-2v-11.4h1.7V171c0,2.1-0.8,3.4-2.8,3.4
			C498.2,174.5,497.6,174.3,497.3,174.2z M499.5,156.5c0-0.7,0.5-1.1,1.2-1.1c0.7,0,1.2,0.4,1.2,1.1c0,0.7-0.5,1.1-1.2,1.1
			C500.1,157.6,499.5,157.1,499.5,156.5z"/>
		<path class="st6" d="M503.9,167.2c0-2.2,1.9-3.3,6.3-3.8c0-1.3-0.4-2.6-2.1-2.6c-1.2,0-2.2,0.6-3,1.1l-0.7-1.2
			c0.9-0.6,2.4-1.3,4-1.3c2.5,0,3.5,1.7,3.5,4.2v6.3h-1.4l-0.1-1.2h-0.1c-1,0.8-2.1,1.5-3.4,1.5
			C505.1,170.1,503.9,169.1,503.9,167.2z M510.1,167.4v-2.8c-3.4,0.4-4.6,1.2-4.6,2.6c0,1.2,0.8,1.6,1.8,1.6
			C508.3,168.8,509.1,168.3,510.1,167.4z"/>
		<path class="st6" d="M518.2,159.7h1.4l0.1,1.2h0.1c0.9-0.8,2.1-1.4,3.3-1.4c2.6,0,4,2,4,5.2c0,3.5-2.1,5.5-4.4,5.5
			c-0.9,0-1.9-0.4-2.8-1.2l0,1.8v3.5h-1.7V159.7z M525.4,164.7c0-2.3-0.8-3.8-2.7-3.8c-0.9,0-1.7,0.5-2.7,1.4v5.3
			c0.9,0.8,1.8,1.1,2.5,1.1C524.1,168.7,525.4,167.2,525.4,164.7z"/>
		<path class="st6" d="M528.6,164.8c0-3.4,2.2-5.4,4.7-5.4c2.5,0,4.7,2,4.7,5.4c0,3.4-2.2,5.3-4.7,5.3
			C530.8,170.1,528.6,168.2,528.6,164.8z M536.3,164.8c0-2.3-1.2-3.9-2.9-3.9c-1.8,0-2.9,1.6-2.9,3.9s1.2,3.9,2.9,3.9
			C535.1,168.7,536.3,167.1,536.3,164.8z"/>
		<path class="st6" d="M539.1,168.7l0.9-1.1c0.9,0.7,1.8,1.2,3,1.2c1.3,0,2-0.7,2-1.6c0-1-1.2-1.5-2.3-1.9c-1.4-0.5-3-1.2-3-2.9
			c0-1.6,1.3-2.9,3.5-2.9c1.3,0,2.4,0.5,3.2,1.1l-0.8,1.1c-0.7-0.5-1.4-0.9-2.3-0.9c-1.3,0-1.9,0.7-1.9,1.5c0,1,1.1,1.3,2.3,1.8
			c1.5,0.6,3.1,1.2,3.1,3.1c0,1.7-1.3,3-3.7,3C541.4,170.1,540,169.5,539.1,168.7z"/>
		<path class="st6" d="M548.8,166.7v-5.6h-1.5v-1.3l1.6-0.1l0.2-2.9h1.4v2.9h2.8v1.4h-2.8v5.7c0,1.2,0.4,2,1.6,2
			c0.4,0,0.8-0.1,1.2-0.3l0.3,1.3c-0.6,0.2-1.3,0.4-1.9,0.4C549.5,170.1,548.8,168.8,548.8,166.7z"/>
		<path class="st6" d="M554.3,164.8c0-3.4,2.2-5.4,4.7-5.4s4.7,2,4.7,5.4c0,3.4-2.2,5.3-4.7,5.3S554.3,168.2,554.3,164.8z
			 M562,164.8c0-2.3-1.2-3.9-2.9-3.9s-2.9,1.6-2.9,3.9s1.2,3.9,2.9,3.9S562,167.1,562,164.8z"/>
		<path class="st6" d="M563.4,174.2l0.3-1.3c0.3,0.1,0.6,0.2,1,0.2c1,0,1.3-0.8,1.3-2v-11.4h1.7V171c0,2.1-0.8,3.4-2.8,3.4
			C564.2,174.5,563.7,174.3,563.4,174.2z M565.6,156.5c0-0.7,0.5-1.1,1.2-1.1c0.7,0,1.2,0.4,1.2,1.1c0,0.7-0.5,1.1-1.2,1.1
			C566.1,157.6,565.6,157.1,565.6,156.5z"/>
		<path class="st6" d="M570.3,156.5c0-0.7,0.5-1.1,1.2-1.1s1.2,0.4,1.2,1.1c0,0.7-0.5,1.1-1.2,1.1S570.3,157.1,570.3,156.5z
			 M570.6,159.7h1.7v10.2h-1.7V159.7z"/>
		<path class="st6" d="M579.3,155h1.2l-5.6,18.3h-1.2L579.3,155z"/>
		<path class="st6" d="M580.9,168.7l0.9-1.1c0.9,0.7,1.8,1.2,3,1.2c1.3,0,2-0.7,2-1.6c0-1-1.2-1.5-2.3-1.9c-1.4-0.5-3-1.2-3-2.9
			c0-1.6,1.3-2.9,3.5-2.9c1.3,0,2.4,0.5,3.2,1.1l-0.8,1.1c-0.7-0.5-1.4-0.9-2.3-0.9c-1.3,0-1.9,0.7-1.9,1.5c0,1,1.1,1.3,2.3,1.8
			c1.5,0.6,3.1,1.2,3.1,3.1c0,1.7-1.3,3-3.7,3C583.3,170.1,581.9,169.5,580.9,168.7z"/>
		<path class="st6" d="M590.3,154.9h1.7v10.1h0.1l4.4-5.4h1.9l-3.4,4.1l3.9,6.1h-1.9l-3-4.9l-1.9,2.2v2.7h-1.7V154.9z"/>
		<path class="st6" d="M599.4,164.8c0-3.4,2.2-5.4,4.7-5.4s4.7,2,4.7,5.4c0,3.4-2.2,5.3-4.7,5.3S599.4,168.2,599.4,164.8z
			 M607.1,164.8c0-2.3-1.2-3.9-2.9-3.9s-2.9,1.6-2.9,3.9s1.2,3.9,2.9,3.9S607.1,167.1,607.1,164.8z"/>
		<path class="st6" d="M611,159.7h1.4l0.1,1.9h0.1c0.7-1.3,1.8-2.1,2.9-2.1c0.5,0,0.8,0.1,1.1,0.2l-0.3,1.5c-0.4-0.1-0.6-0.2-1-0.2
			c-0.9,0-1.9,0.6-2.6,2.3v6.6H611V159.7z"/>
		<path class="st6" d="M617.2,167.2c0-2.2,1.9-3.3,6.3-3.8c0-1.3-0.4-2.6-2.1-2.6c-1.2,0-2.2,0.6-3,1.1l-0.7-1.2
			c0.9-0.6,2.4-1.3,4-1.3c2.5,0,3.5,1.7,3.5,4.2v6.3h-1.4l-0.1-1.2h-0.1c-1,0.8-2.1,1.5-3.4,1.5
			C618.5,170.1,617.2,169.1,617.2,167.2z M623.4,167.4v-2.8c-3.4,0.4-4.6,1.2-4.6,2.6c0,1.2,0.8,1.6,1.8,1.6
			C621.6,168.8,622.5,168.3,623.4,167.4z"/>
		<path class="st6" d="M626.7,168.7l0.9-1.1c0.9,0.7,1.8,1.2,3,1.2c1.3,0,2-0.7,2-1.6c0-1-1.2-1.5-2.3-1.9c-1.4-0.5-3-1.2-3-2.9
			c0-1.6,1.3-2.9,3.5-2.9c1.3,0,2.4,0.5,3.2,1.1l-0.8,1.1c-0.7-0.5-1.4-0.9-2.3-0.9c-1.3,0-1.9,0.7-1.9,1.5c0,1,1.1,1.3,2.3,1.8
			c1.5,0.6,3.1,1.2,3.1,3.1c0,1.7-1.3,3-3.7,3C629.1,170.1,627.7,169.5,626.7,168.7z M627.5,154.9l0.7-0.7l2.5,2.4h0.1l2.5-2.4
			l0.7,0.7l-2.4,2.9h-1.7L627.5,154.9z"/>
		<path class="st6" d="M636.1,159.7h1.4l0.1,1.5h0.1c1-1,2-1.7,3.4-1.7c2.2,0,3.1,1.4,3.1,4v6.5h-1.7v-6.2c0-1.9-0.6-2.7-1.9-2.7
			c-1,0-1.8,0.5-2.8,1.6v7.4h-1.7V159.7z"/>
		<path class="st6" d="M644.6,174.2l0.3-1.3c0.3,0.1,0.6,0.2,1,0.2c1,0,1.3-0.8,1.3-2v-11.4h1.7V171c0,2.1-0.8,3.4-2.8,3.4
			C645.4,174.5,644.9,174.3,644.6,174.2z M646.8,156.5c0-0.7,0.5-1.1,1.2-1.1c0.7,0,1.2,0.4,1.2,1.1c0,0.7-0.5,1.1-1.2,1.1
			C647.3,157.6,646.8,157.1,646.8,156.5z"/>
		<path class="st6" d="M651.1,167.2c0-2.2,1.9-3.3,6.3-3.8c0-1.3-0.4-2.6-2.1-2.6c-1.2,0-2.2,0.6-3,1.1l-0.7-1.2
			c0.9-0.6,2.4-1.3,4-1.3c2.5,0,3.5,1.7,3.5,4.2v6.3h-1.4l-0.1-1.2h-0.1c-1,0.8-2.1,1.5-3.4,1.5
			C652.4,170.1,651.1,169.1,651.1,167.2z M657.4,167.4v-2.8c-3.4,0.4-4.6,1.2-4.6,2.6c0,1.2,0.8,1.6,1.8,1.6
			C655.6,168.8,656.4,168.3,657.4,167.4z"/>
		<path class="st6" d="M665.2,156.5c0-0.7,0.5-1.1,1.2-1.1c0.7,0,1.2,0.4,1.2,1.1c0,0.7-0.5,1.1-1.2,1.1
			C665.7,157.6,665.2,157.1,665.2,156.5z M665.5,159.7h1.7v10.2h-1.7V159.7z"/>
		<path class="st6" d="M670.1,159.7h1.4l0.1,1.5h0.1c1-1,2-1.7,3.4-1.7c2.2,0,3.1,1.4,3.1,4v6.5h-1.7v-6.2c0-1.9-0.6-2.7-1.9-2.7
			c-1,0-1.8,0.5-2.8,1.6v7.4h-1.7V159.7z"/>
		<path class="st6" d="M680,159.8l1.5-0.1h3.8v1.4H680V159.8z M681.4,158.1c0-2.1,0.9-3.4,3-3.4c0.6,0,1.2,0.2,1.7,0.4l-0.4,1.3
			c-0.4-0.2-0.8-0.3-1.2-0.3c-1,0-1.4,0.7-1.4,2v11.8h-1.7V158.1z"/>
		<path class="st6" d="M686,164.8c0-3.3,2.2-5.4,4.6-5.4c2.6,0,4.1,1.9,4.1,4.8c0,0.4,0,0.7-0.1,1h-6.9c0.1,2.2,1.4,3.6,3.4,3.6
			c1,0,1.8-0.3,2.5-0.8l0.6,1.1c-0.9,0.6-2,1.1-3.4,1.1C688.1,170.1,686,168.2,686,164.8z M693.1,164c0-2-0.9-3.2-2.5-3.2
			c-1.4,0-2.7,1.2-2.9,3.2H693.1z"/>
		<path class="st6" d="M696.6,154.9h1.7v10.1h0.1l4.4-5.4h1.9l-3.4,4.1l3.9,6.1h-1.9l-3-4.9l-1.9,2.2v2.7h-1.7V154.9z"/>
		<path class="st6" d="M705.7,164.8c0-3.4,2.3-5.4,4.9-5.4c1.3,0,2.3,0.6,3,1.2l-0.9,1.1c-0.6-0.5-1.2-0.9-2-0.9
			c-1.8,0-3.2,1.6-3.2,3.9s1.3,3.9,3.2,3.9c0.9,0,1.8-0.5,2.4-1l0.7,1.2c-0.9,0.8-2.1,1.3-3.3,1.3
			C707.8,170.1,705.7,168.2,705.7,164.8z"/>
		<path class="st6" d="M715.2,156.5c0-0.7,0.5-1.1,1.2-1.1c0.7,0,1.2,0.4,1.2,1.1c0,0.7-0.5,1.1-1.2,1.1
			C715.7,157.6,715.2,157.1,715.2,156.5z M715.5,159.7h1.7v10.2h-1.7V159.7z"/>
		<path class="st6" d="M717.6,174.2l0.3-1.3c0.3,0.1,0.6,0.2,1,0.2c1,0,1.3-0.8,1.3-2v-11.4h1.7V171c0,2.1-0.8,3.4-2.8,3.4
			C718.5,174.5,718,174.3,717.6,174.2z M719.9,156.5c0-0.7,0.5-1.1,1.2-1.1c0.7,0,1.2,0.4,1.2,1.1c0,0.7-0.5,1.1-1.2,1.1
			C720.4,157.6,719.9,157.1,719.9,156.5z"/>
		<path class="st6" d="M724.2,167.2c0-2.2,1.9-3.3,6.3-3.8c0-1.3-0.4-2.6-2.1-2.6c-1.2,0-2.2,0.6-3,1.1l-0.7-1.2
			c0.9-0.6,2.4-1.3,4-1.3c2.5,0,3.5,1.7,3.5,4.2v6.3h-1.4l-0.1-1.2h-0.1c-1,0.8-2.1,1.5-3.4,1.5
			C725.5,170.1,724.2,169.1,724.2,167.2z M730.5,167.4v-2.8c-3.4,0.4-4.6,1.2-4.6,2.6c0,1.2,0.8,1.6,1.8,1.6
			C728.7,168.8,729.5,168.3,730.5,167.4z"/>
	</g>
</g>
<g>
	<g>
		<path class="st6" d="M523.6,96.7h1.8l5,8.7l1.5,2.9h0.1c-0.1-1.4-0.2-2.9-0.2-4.4v-7.1h1.7v13.8h-1.8l-5-8.7l-1.5-2.8H525
			c0.1,1.4,0.2,2.9,0.2,4.3v7.2h-1.7V96.7z"/>
		<path class="st6" d="M536,105.4c0-3.3,2.2-5.4,4.6-5.4c2.6,0,4.1,1.9,4.1,4.8c0,0.4,0,0.7-0.1,1h-6.9c0.1,2.2,1.4,3.6,3.4,3.6
			c1,0,1.8-0.3,2.5-0.8l0.6,1.1c-0.9,0.6-2,1.1-3.4,1.1C538.2,110.7,536,108.7,536,105.4z M543.2,104.6c0-2-0.9-3.2-2.5-3.2
			c-1.4,0-2.7,1.2-2.9,3.2H543.2z"/>
		<path class="st6" d="M547,100.3h1.4l0.1,1.5h0.1c0.9-1,2-1.7,3.2-1.7c1.6,0,2.4,0.7,2.8,1.9c1.1-1.1,2.1-1.9,3.4-1.9
			c2.1,0,3.1,1.4,3.1,4v6.5h-1.7v-6.2c0-1.9-0.6-2.7-1.9-2.7c-0.8,0-1.6,0.5-2.6,1.6v7.4h-1.7v-6.2c0-1.9-0.6-2.7-1.9-2.7
			c-0.8,0-1.6,0.5-2.6,1.6v7.4H547V100.3z"/>
		<path class="st6" d="M563.6,107.8c0-2.2,1.9-3.3,6.3-3.8c0-1.3-0.4-2.6-2.1-2.6c-1.2,0-2.2,0.6-3,1.1l-0.7-1.2
			c0.9-0.6,2.4-1.3,4-1.3c2.5,0,3.5,1.7,3.5,4.2v6.3h-1.4l-0.1-1.2h-0.1c-1,0.8-2.1,1.5-3.4,1.5
			C564.8,110.7,563.6,109.7,563.6,107.8z M569.8,108v-2.8c-3.4,0.4-4.6,1.2-4.6,2.6c0,1.2,0.8,1.6,1.8,1.6
			C568,109.3,568.8,108.9,569.8,108z"/>
		<path class="st6" d="M578.2,97.1c0-0.7,0.5-1.1,1.2-1.1c0.7,0,1.2,0.4,1.2,1.1c0,0.7-0.5,1.1-1.2,1.1
			C578.8,98.2,578.2,97.7,578.2,97.1z M578.6,100.3h1.7v10.2h-1.7V100.3z"/>
		<path class="st6" d="M583.5,100.3h1.4l0.1,1.5h0.1c1-1,2-1.7,3.4-1.7c2.2,0,3.1,1.4,3.1,4v6.5H590v-6.2c0-1.9-0.6-2.7-1.9-2.7
			c-1,0-1.8,0.5-2.8,1.6v7.4h-1.7V100.3z"/>
		<path class="st6" d="M593.7,100.4l1.5-0.1h3.8v1.4h-5.3V100.4z M595.1,98.7c0-2.1,0.9-3.4,3-3.4c0.6,0,1.2,0.2,1.7,0.4l-0.4,1.3
			c-0.4-0.2-0.8-0.3-1.2-0.3c-1,0-1.4,0.7-1.4,2v11.8h-1.7V98.7z"/>
		<path class="st6" d="M600,105.4c0-3.3,2.2-5.4,4.6-5.4c2.6,0,4.1,1.9,4.1,4.8c0,0.4,0,0.7-0.1,1h-6.9c0.1,2.2,1.4,3.6,3.4,3.6
			c1,0,1.8-0.3,2.5-0.8l0.6,1.1c-0.9,0.6-2,1.1-3.4,1.1C602.1,110.7,600,108.7,600,105.4z M607.1,104.6c0-2-0.9-3.2-2.5-3.2
			c-1.4,0-2.7,1.2-2.9,3.2H607.1z"/>
		<path class="st6" d="M610.9,95.5h1.7v10.1h0.1l4.4-5.4h1.9l-3.4,4.1l3.9,6.1h-1.9l-3-4.9l-1.9,2.2v2.7h-1.7V95.5z"/>
		<path class="st6" d="M620.3,105.4c0-3.4,2.3-5.4,4.9-5.4c1.3,0,2.3,0.6,3,1.2l-0.9,1.1c-0.6-0.5-1.2-0.9-2-0.9
			c-1.8,0-3.2,1.6-3.2,3.9s1.3,3.9,3.2,3.9c0.9,0,1.8-0.5,2.4-1l0.7,1.2c-0.9,0.8-2.1,1.3-3.3,1.3
			C622.4,110.7,620.3,108.8,620.3,105.4z"/>
		<path class="st6" d="M630.2,97.1c0-0.7,0.5-1.1,1.2-1.1c0.7,0,1.2,0.4,1.2,1.1c0,0.7-0.5,1.1-1.2,1.1
			C630.7,98.2,630.2,97.7,630.2,97.1z M630.5,100.3h1.7v10.2h-1.7V100.3z"/>
		<path class="st6" d="M632.9,114.8l0.3-1.3c0.3,0.1,0.6,0.2,1,0.2c1,0,1.3-0.8,1.3-2v-11.4h1.7v11.4c0,2.1-0.8,3.4-2.8,3.4
			C633.7,115,633.2,114.9,632.9,114.8z M635.1,97.1c0-0.7,0.5-1.1,1.2-1.1c0.7,0,1.2,0.4,1.2,1.1c0,0.7-0.5,1.1-1.2,1.1
			C635.6,98.2,635.1,97.7,635.1,97.1z"/>
		<path class="st6" d="M639.6,105.4c0-3.3,2.2-5.4,4.6-5.4c2.6,0,4.1,1.9,4.1,4.8c0,0.4,0,0.7-0.1,1h-6.9c0.1,2.2,1.4,3.6,3.4,3.6
			c1,0,1.8-0.3,2.5-0.8l0.6,1.1c-0.9,0.6-2,1.1-3.4,1.1C641.8,110.7,639.6,108.7,639.6,105.4z M646.8,104.6c0-2-0.9-3.2-2.5-3.2
			c-1.4,0-2.7,1.2-2.9,3.2H646.8z"/>
	</g>
</g>
<g>
	<g>
		<path class="st6" d="M339.2,104.6h4.8v1.3h-4.8V104.6z"/>
	</g>
</g>
<g>
	<g>
		<path class="st6" d="M339.2,280.4h4.8v1.3h-4.8V280.4z"/>
	</g>
</g>
<g>
	<g>
		<path class="st6" d="M340.9,163h-3.8v-1.3h3.8v-4.1h1.4v4.1h3.8v1.3h-3.8v4.1h-1.4V163z"/>
	</g>
</g>
<g>
	<g>
		<path class="st6" d="M158.1,104.6h4.8v1.3h-4.8V104.6z"/>
	</g>
</g>
<g>
	<g>
		<path class="st6" d="M159.8,163H156v-1.3h3.8v-4.1h1.4v4.1h3.8v1.3h-3.8v4.1h-1.4V163z"/>
	</g>
</g>
<g>
	<g>
		<path class="st6" d="M158.1,220h4.8v1.3h-4.8V220z"/>
	</g>
</g>
<g>
	<g>
		<path class="st6" d="M159.8,281.4H156v-1.3h3.8V276h1.4v4.1h3.8v1.3h-3.8v4.1h-1.4V281.4z"/>
	</g>
</g>
<g>
	<g>
		<path class="st6" d="M35.9,109h3.1v-9.9h-2.4v-1.1c1.2-0.2,2.1-0.5,2.8-1h1.3v12h2.8v1.4h-7.6V109z"/>
	</g>
</g>
<g>
	<g>
		<path class="st6" d="M35,168.2c4-4,6.3-6.4,6.3-8.6c0-1.5-0.8-2.6-2.5-2.6c-1.1,0-2.1,0.7-2.8,1.6l-1-1c1.1-1.2,2.3-2,4.1-2
			c2.5,0,4,1.6,4,3.9c0,2.5-2.3,5-5.5,8.3c0.7-0.1,1.6-0.1,2.3-0.1h3.9v1.5H35V168.2z"/>
	</g>
</g>
<g>
	<g>
		<path class="st6" d="M34.8,226.8l0.9-1.1c0.8,0.8,1.9,1.6,3.4,1.6c1.6,0,2.8-1,2.8-2.5c0-1.6-1.1-2.7-4.3-2.7v-1.3
			c2.8,0,3.8-1.1,3.8-2.5c0-1.3-0.9-2.1-2.3-2.1c-1.1,0-2.1,0.6-2.9,1.4l-0.9-1.1c1-1,2.3-1.7,3.8-1.7c2.3,0,4,1.2,4,3.4
			c0,1.6-1,2.6-2.4,3.2v0.1c1.6,0.4,2.9,1.6,2.9,3.4c0,2.4-2,3.8-4.4,3.8C37,228.7,35.7,227.8,34.8,226.8z"/>
	</g>
</g>
<g>
	<g>
		<path class="st6" d="M40.6,278.7c0-0.7,0.1-1.9,0.1-2.6h-0.1c-0.3,0.6-0.7,1.2-1.1,1.9l-3.1,4.6H44v1.4h-9.5v-1.1l5.7-8.6h1.9
			v13.4h-1.6V278.7z"/>
	</g>
</g>
<g>
	<g>
		<path class="st6" d="M340.9,221.3h-3.8V220h3.8v-4.1h1.4v4.1h3.8v1.3h-3.8v4.1h-1.4V221.3z"/>
	</g>
</g>
<g>
	<g>
		<path class="st6" d="M455.6,202.4h1.8v13.8h-1.8V202.4z"/>
		<path class="st6" d="M460.4,205.9h1.4l0.1,1.5h0.1c1-1,2-1.7,3.4-1.7c2.2,0,3.1,1.4,3.1,4v6.5h-1.7v-6.2c0-1.9-0.6-2.7-1.9-2.7
			c-1,0-1.8,0.5-2.8,1.6v7.4h-1.7V205.9z"/>
		<path class="st6" d="M470.3,206l1.5-0.1h3.8v1.4h-5.3V206z M471.7,204.3c0-2.1,0.9-3.4,3-3.4c0.6,0,1.2,0.2,1.7,0.4l-0.4,1.3
			c-0.4-0.2-0.8-0.3-1.2-0.3c-1,0-1.4,0.7-1.4,2v11.8h-1.7V204.3z"/>
		<path class="st6" d="M476.2,211c0-3.3,2.2-5.4,4.6-5.4c2.6,0,4.1,1.9,4.1,4.8c0,0.4,0,0.7-0.1,1h-6.9c0.1,2.2,1.4,3.6,3.4,3.6
			c1,0,1.8-0.3,2.5-0.8l0.6,1.1c-0.9,0.6-2,1.1-3.4,1.1C478.4,216.4,476.2,214.4,476.2,211z M483.4,210.2c0-2-0.9-3.2-2.5-3.2
			c-1.4,0-2.7,1.2-2.9,3.2H483.4z"/>
		<path class="st6" d="M486.9,201.2h1.7v10.1h0.1l4.4-5.4h1.9l-3.4,4.1l3.9,6.1h-1.9l-3-4.9l-1.9,2.2v2.7h-1.7V201.2z"/>
		<path class="st6" d="M496,211c0-3.4,2.3-5.4,4.9-5.4c1.3,0,2.3,0.6,3,1.2L503,208c-0.6-0.5-1.2-0.9-2-0.9c-1.8,0-3.2,1.6-3.2,3.9
			s1.3,3.9,3.2,3.9c0.9,0,1.8-0.5,2.4-1l0.7,1.2c-0.9,0.8-2.1,1.3-3.3,1.3C498.1,216.4,496,214.4,496,211z"/>
		<path class="st6" d="M505.5,202.7c0-0.7,0.5-1.1,1.2-1.1c0.7,0,1.2,0.4,1.2,1.1c0,0.7-0.5,1.1-1.2,1.1
			C506,203.8,505.5,203.4,505.5,202.7z M505.8,205.9h1.7v10.2h-1.7V205.9z"/>
		<path class="st6" d="M507.9,220.4l0.3-1.3c0.3,0.1,0.6,0.2,1,0.2c1,0,1.3-0.8,1.3-2v-11.4h1.7v11.4c0,2.1-0.8,3.4-2.8,3.4
			C508.8,220.7,508.3,220.6,507.9,220.4z M510.2,202.7c0-0.7,0.5-1.1,1.2-1.1c0.7,0,1.2,0.4,1.2,1.1c0,0.7-0.5,1.1-1.2,1.1
			C510.7,203.8,510.2,203.4,510.2,202.7z"/>
		<path class="st6" d="M514.5,213.5c0-2.2,1.9-3.3,6.3-3.8c0-1.3-0.4-2.6-2.1-2.6c-1.2,0-2.2,0.6-3,1.1l-0.7-1.2
			c0.9-0.6,2.4-1.3,4-1.3c2.5,0,3.5,1.7,3.5,4.2v6.3H521l-0.1-1.2h-0.1c-1,0.8-2.1,1.5-3.4,1.5C515.8,216.4,514.5,215.3,514.5,213.5
			z M520.7,213.6v-2.8c-3.4,0.4-4.6,1.2-4.6,2.6c0,1.2,0.8,1.6,1.8,1.6C518.9,215,519.8,214.5,520.7,213.6z"/>
		<path class="st6" d="M528.8,205.9h1.4l0.1,1.2h0.1c0.9-0.8,2.1-1.4,3.3-1.4c2.6,0,4,2,4,5.2c0,3.5-2.1,5.5-4.4,5.5
			c-0.9,0-1.9-0.4-2.8-1.2l0,1.8v3.5h-1.7V205.9z M536,210.9c0-2.3-0.8-3.8-2.7-3.8c-0.9,0-1.7,0.5-2.7,1.4v5.3
			c0.9,0.8,1.8,1.1,2.5,1.1C534.7,214.9,536,213.4,536,210.9z"/>
		<path class="st6" d="M539.2,211c0-3.4,2.2-5.4,4.7-5.4s4.7,2,4.7,5.4c0,3.4-2.2,5.3-4.7,5.3S539.2,214.4,539.2,211z M546.9,211
			c0-2.3-1.2-3.9-2.9-3.9s-2.9,1.6-2.9,3.9s1.2,3.9,2.9,3.9S546.9,213.4,546.9,211z"/>
		<path class="st6" d="M549.7,215l0.9-1.1c0.9,0.7,1.8,1.2,3,1.2c1.3,0,2-0.7,2-1.6c0-1-1.2-1.5-2.3-1.9c-1.4-0.5-3-1.2-3-2.9
			c0-1.6,1.3-2.9,3.5-2.9c1.3,0,2.4,0.5,3.2,1.1l-0.8,1.1c-0.7-0.5-1.4-0.9-2.3-0.9c-1.3,0-1.9,0.7-1.9,1.5c0,1,1.1,1.3,2.3,1.8
			c1.5,0.6,3.1,1.2,3.1,3.1c0,1.7-1.3,3-3.7,3C552.1,216.4,550.7,215.8,549.7,215z"/>
		<path class="st6" d="M559.4,213v-5.6h-1.5V206l1.6-0.1l0.2-2.9h1.4v2.9h2.8v1.4h-2.8v5.7c0,1.2,0.4,2,1.6,2c0.4,0,0.8-0.1,1.2-0.3
			l0.3,1.3c-0.6,0.2-1.3,0.4-1.9,0.4C560.1,216.4,559.4,215,559.4,213z"/>
		<path class="st6" d="M564.9,211c0-3.4,2.2-5.4,4.7-5.4c2.5,0,4.7,2,4.7,5.4c0,3.4-2.2,5.3-4.7,5.3
			C567.1,216.4,564.9,214.4,564.9,211z M572.6,211c0-2.3-1.2-3.9-2.9-3.9c-1.8,0-2.9,1.6-2.9,3.9s1.2,3.9,2.9,3.9
			C571.4,214.9,572.6,213.4,572.6,211z"/>
		<path class="st6" d="M574,220.4l0.3-1.3c0.3,0.1,0.6,0.2,1,0.2c1,0,1.3-0.8,1.3-2v-11.4h1.7v11.4c0,2.1-0.8,3.4-2.8,3.4
			C574.9,220.7,574.3,220.6,574,220.4z M576.2,202.7c0-0.7,0.5-1.1,1.2-1.1c0.7,0,1.2,0.4,1.2,1.1c0,0.7-0.5,1.1-1.2,1.1
			C576.8,203.8,576.2,203.4,576.2,202.7z"/>
		<path class="st6" d="M580.9,202.7c0-0.7,0.5-1.1,1.2-1.1c0.7,0,1.2,0.4,1.2,1.1c0,0.7-0.5,1.1-1.2,1.1
			C581.4,203.8,580.9,203.4,580.9,202.7z M581.2,205.9h1.7v10.2h-1.7V205.9z"/>
		<path class="st6" d="M589.9,201.2h1.2l-5.6,18.3h-1.2L589.9,201.2z"/>
		<path class="st6" d="M592.8,202.4h2.1l2.6,7.4c0.3,0.9,0.6,1.9,1,2.9h0.1c0.3-1,0.6-1.9,1-2.9l2.6-7.4h2.1v13.8h-1.6v-7.6
			c0-1.2,0.1-2.9,0.2-4.1h-0.1l-1.1,3.1l-2.6,7.1H598l-2.6-7.1l-1.1-3.1h-0.1c0.1,1.2,0.2,2.9,0.2,4.1v7.6h-1.6V202.4z"/>
		<path class="st6" d="M606.6,211c0-3.4,2.2-5.4,4.7-5.4c2.5,0,4.7,2,4.7,5.4c0,3.4-2.2,5.3-4.7,5.3
			C608.9,216.4,606.6,214.4,606.6,211z M614.3,211c0-2.3-1.2-3.9-2.9-3.9c-1.8,0-2.9,1.6-2.9,3.9s1.2,3.9,2.9,3.9
			C613.1,214.9,614.3,213.4,614.3,211z"/>
		<path class="st6" d="M617.2,215.2l5.4-7.9h-4.8v-1.4h7v0.9l-5.4,7.9h5.5v1.4h-7.7V215.2z M618.1,201.2l0.7-0.7l2.5,2.4h0.1
			l2.5-2.4l0.7,0.7l-2.4,2.9h-1.7L618.1,201.2z"/>
		<path class="st6" d="M625.9,211c0-3.3,2.2-5.4,4.6-5.4c2.6,0,4.1,1.9,4.1,4.8c0,0.4,0,0.7-0.1,1h-6.9c0.1,2.2,1.4,3.6,3.4,3.6
			c1,0,1.8-0.3,2.5-0.8l0.6,1.1c-0.9,0.6-2,1.1-3.4,1.1C628.1,216.4,625.9,214.4,625.9,211z M633,210.2c0-2-0.9-3.2-2.5-3.2
			c-1.4,0-2.7,1.2-2.9,3.2H633z"/>
		<path class="st6" d="M641.8,215.1L641.8,215.1l-0.2,1.1h-1.4v-15h1.7v4.1l-0.1,1.8c0.9-0.8,2.1-1.4,3.2-1.4c2.6,0,4.1,2,4.1,5.2
			c0,3.5-2.1,5.5-4.4,5.5C643.8,216.4,642.7,215.9,641.8,215.1z M647.4,210.9c0-2.3-0.8-3.8-2.7-3.8c-0.9,0-1.8,0.5-2.7,1.4v5.3
			c0.9,0.8,1.8,1.1,2.5,1.1C646.1,214.9,647.4,213.4,647.4,210.9z"/>
		<path class="st6" d="M651,202.7c0-0.7,0.5-1.1,1.2-1.1c0.7,0,1.2,0.4,1.2,1.1c0,0.7-0.5,1.1-1.2,1.1
			C651.5,203.8,651,203.4,651,202.7z M651.3,205.9h1.7v10.2h-1.7V205.9z"/>
		<path class="st6" d="M656.3,213v-5.6h-1.5V206l1.6-0.1l0.2-2.9h1.4v2.9h2.8v1.4H658v5.7c0,1.2,0.4,2,1.6,2c0.4,0,0.8-0.1,1.2-0.3
			l0.3,1.3c-0.6,0.2-1.3,0.4-1.9,0.4C657,216.4,656.3,215,656.3,213z"/>
		<path class="st6" d="M662.2,202.7c0-0.7,0.5-1.1,1.2-1.1c0.7,0,1.2,0.4,1.2,1.1c0,0.7-0.5,1.1-1.2,1.1
			C662.7,203.8,662.2,203.4,662.2,202.7z M662.5,205.9h1.7v10.2h-1.7V205.9z"/>
		<path class="st6" d="M670.5,202.7c0-0.7,0.5-1.1,1.2-1.1s1.2,0.4,1.2,1.1c0,0.7-0.5,1.1-1.2,1.1S670.5,203.4,670.5,202.7z
			 M670.8,205.9h1.7v10.2h-1.7V205.9z"/>
		<path class="st6" d="M679.2,214.1v-12.9h1.7v13c0,0.5,0.2,0.7,0.5,0.7c0.1,0,0.2,0,0.4,0l0.2,1.3c-0.2,0.1-0.5,0.2-1,0.2
			C679.7,216.4,679.2,215.6,679.2,214.1z"/>
		<path class="st6" d="M683.4,213.5c0-2.2,1.9-3.3,6.3-3.8c0-1.3-0.4-2.6-2.1-2.6c-1.2,0-2.2,0.6-3,1.1l-0.7-1.2
			c0.9-0.6,2.4-1.3,4-1.3c2.5,0,3.5,1.7,3.5,4.2v6.3h-1.4l-0.1-1.2h-0.1c-1,0.8-2.1,1.5-3.4,1.5
			C684.6,216.4,683.4,215.3,683.4,213.5z M689.6,213.6v-2.8c-3.4,0.4-4.6,1.2-4.6,2.6c0,1.2,0.8,1.6,1.8,1.6
			C687.8,215,688.6,214.5,689.6,213.6z"/>
		<path class="st6" d="M693,215.2l5.4-7.9h-4.8v-1.4h7v0.9l-5.4,7.9h5.5v1.4H693V215.2z M693.9,201.2l0.7-0.7l2.5,2.4h0.1l2.5-2.4
			l0.7,0.7l-2.4,2.9h-1.7L693.9,201.2z"/>
		<path class="st6" d="M702.4,205.9h1.4l0.1,1.5h0.1c1-1,2-1.7,3.4-1.7c2.2,0,3.1,1.4,3.1,4v6.5h-1.7v-6.2c0-1.9-0.6-2.7-1.9-2.7
			c-1,0-1.8,0.5-2.8,1.6v7.4h-1.7V205.9z"/>
		<path class="st6" d="M712.7,211c0-3.4,2.2-5.4,4.7-5.4s4.7,2,4.7,5.4c0,3.4-2.2,5.3-4.7,5.3S712.7,214.4,712.7,211z M720.3,211
			c0-2.3-1.2-3.9-2.9-3.9s-2.9,1.6-2.9,3.9s1.2,3.9,2.9,3.9S720.3,213.4,720.3,211z"/>
		<path class="st6" d="M517.7,226.9h1.4l0.1,1.2h0.1c0.9-0.8,2.1-1.4,3.3-1.4c2.6,0,4,2,4,5.2c0,3.5-2.1,5.5-4.4,5.5
			c-0.9,0-1.9-0.4-2.8-1.2l0,1.8v3.5h-1.7V226.9z M524.9,231.9c0-2.3-0.8-3.8-2.7-3.8c-0.9,0-1.7,0.5-2.7,1.4v5.3
			c0.9,0.8,1.8,1.1,2.5,1.1C523.6,235.9,524.9,234.4,524.9,231.9z"/>
		<path class="st6" d="M528.1,232c0-3.4,2.2-5.4,4.7-5.4s4.7,2,4.7,5.4c0,3.4-2.2,5.3-4.7,5.3S528.1,235.4,528.1,232z M535.8,232
			c0-2.3-1.2-3.9-2.9-3.9s-2.9,1.6-2.9,3.9s1.2,3.9,2.9,3.9S535.8,234.4,535.8,232z"/>
		<path class="st6" d="M538.7,236.2l5.4-7.9h-4.8v-1.4h7v0.9l-5.4,7.9h5.5v1.4h-7.7V236.2z"/>
		<path class="st6" d="M547.8,223.7c0-0.7,0.5-1.1,1.2-1.1s1.2,0.4,1.2,1.1c0,0.7-0.5,1.1-1.2,1.1S547.8,224.4,547.8,223.7z
			 M548.1,226.9h1.7v10.2h-1.7V226.9z"/>
		<path class="st6" d="M553.1,234v-5.6h-1.5V227l1.6-0.1l0.2-2.9h1.4v2.9h2.8v1.4h-2.8v5.7c0,1.2,0.4,2,1.6,2c0.4,0,0.8-0.1,1.2-0.3
			l0.3,1.3c-0.6,0.2-1.3,0.4-1.9,0.4C553.8,237.4,553.1,236,553.1,234z"/>
		<path class="st6" d="M559,223.7c0-0.7,0.5-1.1,1.2-1.1s1.2,0.4,1.2,1.1c0,0.7-0.5,1.1-1.2,1.1S559,224.4,559,223.7z M559.3,226.9
			h1.7v10.2h-1.7V226.9z"/>
		<path class="st6" d="M562.5,226.9h1.8l1.9,5.8c0.3,1,0.6,2,0.9,3h0.1c0.3-1,0.6-2,0.9-3l1.9-5.8h1.7l-3.6,10.2h-2L562.5,226.9z"/>
		<path class="st6" d="M572.6,234.5c0-2.2,1.9-3.3,6.3-3.8c0-1.3-0.4-2.6-2.1-2.6c-1.2,0-2.2,0.6-3,1.1l-0.7-1.2
			c0.9-0.6,2.4-1.3,4-1.3c2.5,0,3.5,1.7,3.5,4.2v6.3h-1.4l-0.1-1.2H579c-1,0.8-2.1,1.5-3.4,1.5C573.9,237.4,572.6,236.3,572.6,234.5
			z M578.9,234.6v-2.8c-3.4,0.4-4.6,1.2-4.6,2.6c0,1.2,0.8,1.6,1.8,1.6C577.1,236,577.9,235.5,578.9,234.6z"/>
		<path class="st6" d="M583.3,226.9h1.4l0.1,1.5h0.1c1-1,2-1.7,3.4-1.7c2.2,0,3.1,1.4,3.1,4v6.5h-1.7v-6.2c0-1.9-0.6-2.7-1.9-2.7
			c-1,0-1.8,0.5-2.8,1.6v7.4h-1.7V226.9z"/>
		<path class="st6" d="M598,226.9h1.4l0.1,1.9h0.1c0.7-1.3,1.8-2.1,2.9-2.1c0.5,0,0.8,0.1,1.1,0.2l-0.3,1.5c-0.4-0.1-0.6-0.2-1-0.2
			c-0.9,0-1.9,0.6-2.6,2.3v6.6H598V226.9z"/>
		<path class="st6" d="M604,232c0-3.3,2.2-5.4,4.6-5.4c2.6,0,4.1,1.9,4.1,4.8c0,0.4,0,0.7-0.1,1h-6.9c0.1,2.2,1.4,3.6,3.4,3.6
			c1,0,1.8-0.3,2.5-0.8l0.6,1.1c-0.9,0.6-2,1.1-3.4,1.1C606.1,237.4,604,235.4,604,232z M611.1,231.2c0-2-0.9-3.2-2.5-3.2
			c-1.4,0-2.7,1.2-2.9,3.2H611.1z"/>
		<path class="st6" d="M613.6,236.2l5.4-7.9h-4.8v-1.4h7v0.9l-5.4,7.9h5.5v1.4h-7.7V236.2z"/>
		<path class="st6" d="M622.9,233.4v-6.5h1.7v6.2c0,1.9,0.6,2.7,1.9,2.7c1,0,1.8-0.5,2.7-1.7v-7.2h1.7v10.2h-1.4l-0.1-1.6h-0.1
			c-0.9,1.1-2,1.9-3.4,1.9C623.8,237.4,622.9,236,622.9,233.4z"/>
		<path class="st6" d="M633.9,235.1v-12.9h1.7v13c0,0.5,0.2,0.7,0.5,0.7c0.1,0,0.2,0,0.4,0l0.2,1.3c-0.2,0.1-0.5,0.2-1,0.2
			C634.5,237.4,633.9,236.6,633.9,235.1z"/>
		<path class="st6" d="M639.1,234v-5.6h-1.5V227l1.6-0.1l0.2-2.9h1.4v2.9h2.8v1.4h-2.8v5.7c0,1.2,0.4,2,1.6,2c0.4,0,0.8-0.1,1.2-0.3
			l0.3,1.3c-0.6,0.2-1.3,0.4-1.9,0.4C639.8,237.4,639.1,236,639.1,234z"/>
		<path class="st6" d="M644.7,234.5c0-2.2,1.9-3.3,6.3-3.8c0-1.3-0.4-2.6-2.1-2.6c-1.2,0-2.2,0.6-3,1.1l-0.7-1.2
			c0.9-0.6,2.4-1.3,4-1.3c2.5,0,3.5,1.7,3.5,4.2v6.3h-1.4l-0.1-1.2h-0.1c-1,0.8-2.1,1.5-3.4,1.5C646,237.4,644.7,236.3,644.7,234.5z
			 M651,234.6v-2.8c-3.4,0.4-4.6,1.2-4.6,2.6c0,1.2,0.8,1.6,1.8,1.6C649.2,236,650,235.5,651,234.6z"/>
		<path class="st6" d="M655.7,234v-5.6h-1.5V227l1.6-0.1l0.2-2.9h1.4v2.9h2.8v1.4h-2.8v5.7c0,1.2,0.4,2,1.6,2c0.4,0,0.8-0.1,1.2-0.3
			l0.3,1.3c-0.6,0.2-1.3,0.4-1.9,0.4C656.4,237.4,655.7,236,655.7,234z"/>
	</g>
</g>
<g>
	<g>
		<path class="st6" d="M506.5,274.2h3.9c3.1,0,5.2,1,5.2,4.1c0,2.9-2.1,4.3-5.1,4.3h-2.3v5.5h-1.8V274.2z M510.3,281.1
			c2.4,0,3.6-0.9,3.6-2.8c0-2-1.2-2.6-3.6-2.6h-2v5.5H510.3z"/>
		<path class="st6" d="M518.1,277.8h1.4l0.1,1.9h0.1c0.7-1.3,1.8-2.1,2.9-2.1c0.5,0,0.8,0.1,1.1,0.2l-0.3,1.5
			c-0.4-0.1-0.6-0.2-1-0.2c-0.9,0-1.9,0.6-2.6,2.3v6.6h-1.7V277.8z"/>
		<path class="st6" d="M524.4,282.9c0-3.3,2.2-5.4,4.6-5.4c2.6,0,4.1,1.9,4.1,4.8c0,0.4,0,0.7-0.1,1h-6.9c0.1,2.2,1.4,3.6,3.4,3.6
			c1,0,1.8-0.3,2.5-0.8l0.6,1.1c-0.9,0.6-2,1.1-3.4,1.1C526.5,288.2,524.4,286.2,524.4,282.9z M531.5,282c0-2-0.9-3.2-2.5-3.2
			c-1.4,0-2.7,1.2-2.9,3.2H531.5z"/>
		<path class="st6" d="M535.3,285.9V273h1.7v13c0,0.5,0.2,0.7,0.5,0.7c0.1,0,0.2,0,0.4,0l0.2,1.3c-0.2,0.1-0.5,0.2-1,0.2
			C535.9,288.2,535.3,287.4,535.3,285.9z"/>
		<path class="st6" d="M539.7,282.9c0-3.3,2.2-5.4,4.6-5.4c2.6,0,4.1,1.9,4.1,4.8c0,0.4,0,0.7-0.1,1h-6.9c0.1,2.2,1.4,3.6,3.4,3.6
			c1,0,1.8-0.3,2.5-0.8l0.6,1.1c-0.9,0.6-2,1.1-3.4,1.1C541.9,288.2,539.7,286.2,539.7,282.9z M546.9,282c0-2-0.9-3.2-2.5-3.2
			c-1.4,0-2.7,1.2-2.9,3.2H546.9z"/>
		<path class="st6" d="M549.6,287l5.4-7.9h-4.8v-1.4h7v0.9l-5.4,7.9h5.5v1.4h-7.7V287z M550.5,273l0.7-0.7l2.5,2.4h0.1l2.5-2.4
			l0.7,0.7l-2.4,2.9h-1.7L550.5,273z"/>
		<path class="st6" d="M558.8,285.3c0-2.2,1.9-3.3,6.3-3.8c0-1.3-0.4-2.6-2.1-2.6c-1.2,0-2.2,0.6-3,1.1l-0.7-1.2
			c0.9-0.6,2.4-1.3,4-1.3c2.5,0,3.5,1.7,3.5,4.2v6.3h-1.4l-0.1-1.2h-0.1c-1,0.8-2.1,1.5-3.4,1.5
			C560.1,288.2,558.8,287.2,558.8,285.3z M565,285.5v-2.8c-3.4,0.4-4.6,1.2-4.6,2.6c0,1.2,0.8,1.6,1.8,1.6
			C563.2,286.8,564.1,286.3,565,285.5z"/>
		<path class="st6" d="M569.8,277.8h1.4l0.1,1.5h0.1c1-1,2-1.7,3.4-1.7c2.2,0,3.1,1.4,3.1,4v6.5h-1.7v-6.2c0-1.9-0.6-2.7-1.9-2.7
			c-1,0-1.8,0.5-2.8,1.6v7.4h-1.7V277.8z"/>
		<path class="st6" d="M580.4,285.3c0-2.2,1.9-3.3,6.3-3.8c0-1.3-0.4-2.6-2.1-2.6c-1.2,0-2.2,0.6-3,1.1l-0.7-1.2
			c0.9-0.6,2.4-1.3,4-1.3c2.5,0,3.5,1.7,3.5,4.2v6.3H587l-0.1-1.2h-0.1c-1,0.8-2.1,1.5-3.4,1.5C581.7,288.2,580.4,287.2,580.4,285.3
			z M586.7,285.5v-2.8c-3.4,0.4-4.6,1.2-4.6,2.6c0,1.2,0.8,1.6,1.8,1.6C584.9,286.8,585.7,286.3,586.7,285.5z"/>
		<path class="st6" d="M595.1,274.5c0-0.7,0.5-1.1,1.2-1.1s1.2,0.4,1.2,1.1c0,0.7-0.5,1.1-1.2,1.1S595.1,275.2,595.1,274.5z
			 M595.4,277.8h1.7V288h-1.7V277.8z"/>
		<path class="st6" d="M600.4,277.8h1.4l0.1,1.5h0.1c1-1,2-1.7,3.4-1.7c2.2,0,3.1,1.4,3.1,4v6.5h-1.7v-6.2c0-1.9-0.6-2.7-1.9-2.7
			c-1,0-1.8,0.5-2.8,1.6v7.4h-1.7V277.8z"/>
		<path class="st6" d="M610.6,277.9l1.5-0.1h3.8v1.4h-5.3V277.9z M611.9,276.1c0-2.1,0.9-3.4,3-3.4c0.6,0,1.2,0.2,1.7,0.4l-0.4,1.3
			c-0.4-0.2-0.8-0.3-1.2-0.3c-1,0-1.4,0.7-1.4,2V288h-1.7V276.1z"/>
		<path class="st6" d="M616.8,282.9c0-3.3,2.2-5.4,4.6-5.4c2.6,0,4.1,1.9,4.1,4.8c0,0.4,0,0.7-0.1,1h-6.9c0.1,2.2,1.4,3.6,3.4,3.6
			c1,0,1.8-0.3,2.5-0.8l0.6,1.1c-0.9,0.6-2,1.1-3.4,1.1C619,288.2,616.8,286.2,616.8,282.9z M623.9,282c0-2-0.9-3.2-2.5-3.2
			c-1.4,0-2.7,1.2-2.9,3.2H623.9z"/>
		<path class="st6" d="M627.8,273h1.7v10.1h0.1l4.4-5.4h1.9l-3.4,4.1l3.9,6.1h-1.9l-3-4.9l-1.9,2.2v2.7h-1.7V273z"/>
		<path class="st6" d="M637.2,282.9c0-3.4,2.3-5.4,4.9-5.4c1.3,0,2.3,0.6,3,1.2l-0.9,1.1c-0.6-0.5-1.2-0.9-2-0.9
			c-1.8,0-3.2,1.6-3.2,3.9s1.3,3.9,3.2,3.9c0.9,0,1.8-0.5,2.4-1l0.7,1.2c-0.9,0.8-2.1,1.3-3.3,1.3
			C639.3,288.2,637.2,286.3,637.2,282.9z"/>
		<path class="st6" d="M647,274.5c0-0.7,0.5-1.1,1.2-1.1c0.7,0,1.2,0.4,1.2,1.1c0,0.7-0.5,1.1-1.2,1.1
			C647.5,275.7,647,275.2,647,274.5z M647.3,277.8h1.7V288h-1.7V277.8z"/>
		<path class="st6" d="M649.7,292.3l0.3-1.3c0.3,0.1,0.6,0.2,1,0.2c1,0,1.3-0.8,1.3-2v-11.4h1.7v11.4c0,2.1-0.8,3.4-2.8,3.4
			C650.6,292.5,650.1,292.4,649.7,292.3z M652,274.5c0-0.7,0.5-1.1,1.2-1.1c0.7,0,1.2,0.4,1.2,1.1c0,0.7-0.5,1.1-1.2,1.1
			C652.5,275.7,652,275.2,652,274.5z"/>
		<path class="st6" d="M656.6,285.3c0-2.2,1.9-3.3,6.3-3.8c0-1.3-0.4-2.6-2.1-2.6c-1.2,0-2.2,0.6-3,1.1l-0.7-1.2
			c0.9-0.6,2.4-1.3,4-1.3c2.5,0,3.5,1.7,3.5,4.2v6.3h-1.4l-0.1-1.2H663c-1,0.8-2.1,1.5-3.4,1.5C657.9,288.2,656.6,287.2,656.6,285.3
			z M662.9,285.5v-2.8c-3.4,0.4-4.6,1.2-4.6,2.6c0,1.2,0.8,1.6,1.8,1.6C661.1,286.8,661.9,286.3,662.9,285.5z"/>
	</g>
</g>
<g>
	<g>
		<g>
			<path class="st7" d="M88.4,29.2v-6.7h3.4v7.1c0,2.3,0.6,3.2,2,3.2c1.4,0,2-0.8,2-3.2v-7.1h3.3v6.7c0,4.4-1.7,6.5-5.3,6.5
				C90.2,35.7,88.4,33.6,88.4,29.2z"/>
			<path class="st7" d="M101.8,21.6h3.4V29h0.1l2.8-3.5h3.7l-3.6,4.2l3.8,5.8h-3.7l-2-3.6l-1,1.2v2.4h-3.4V21.6z"/>
			<path class="st7" d="M113.3,31.6v-6.2h3.4v5.7c0,1.3,0.3,1.6,1,1.6c0.6,0,1-0.2,1.4-0.9v-6.4h3.4v10h-2.8l-0.2-1.3h-0.1
				c-0.8,1-1.7,1.6-3.1,1.6C114.2,35.7,113.3,34.1,113.3,31.6z"/>
			<path class="st7" d="M125.2,25.5h2.8l0.2,0.9h0.1c0.7-0.7,1.7-1.2,2.7-1.2c2.4,0,3.9,2,3.9,5.1c0,3.4-2,5.4-4.2,5.4
				c-0.8,0-1.6-0.4-2.2-1l0.1,1.5V39h-3.4V25.5z M131.4,30.4c0-1.6-0.5-2.3-1.4-2.3c-0.5,0-0.9,0.2-1.4,0.7v3.7
				c0.4,0.4,0.8,0.5,1.3,0.5C130.7,32.9,131.4,32.3,131.4,30.4z"/>
			<path class="st7" d="M137,25.5h2.8l0.2,1.2h0.1c0.8-0.8,1.8-1.4,3.2-1.4c2.2,0,3.1,1.6,3.1,4.1v6.2h-3.4v-5.7
				c0-1.3-0.3-1.6-1-1.6c-0.6,0-1,0.3-1.5,0.8v6.6H137V25.5z"/>
			<path class="st7" d="M148.4,32.6c0-2.1,1.6-3.2,5.4-3.6c-0.1-0.7-0.5-1-1.4-1c-0.7,0-1.5,0.3-2.5,0.8l-1.2-2.2
				c1.4-0.8,2.8-1.3,4.4-1.3c2.6,0,4.2,1.4,4.2,4.7v5.6h-2.8l-0.2-1h-0.1c-0.8,0.7-1.7,1.2-2.8,1.2
				C149.5,35.7,148.4,34.3,148.4,32.6z M153.8,32.4V31c-1.6,0.2-2.2,0.8-2.2,1.3c0,0.5,0.3,0.7,0.9,0.7
				C153.2,33.1,153.5,32.8,153.8,32.4z"/>
			<path class="st7" d="M163.5,32.6c0-2.1,1.6-3.2,5.4-3.6c-0.1-0.7-0.5-1-1.4-1c-0.7,0-1.5,0.3-2.5,0.8l-1.2-2.2
				c1.4-0.8,2.8-1.3,4.4-1.3c2.6,0,4.2,1.4,4.2,4.7v5.6h-2.8l-0.2-1h-0.1c-0.8,0.7-1.7,1.2-2.8,1.2
				C164.6,35.7,163.5,34.3,163.5,32.6z M169,32.4V31c-1.6,0.2-2.2,0.8-2.2,1.3c0,0.5,0.3,0.7,0.9,0.7
				C168.3,33.1,168.6,32.8,169,32.4z"/>
			<path class="st7" d="M174.8,25.5h2.8l0.2,1.2h0.1c0.8-0.8,1.8-1.4,3.2-1.4c2.2,0,3.1,1.6,3.1,4.1v6.2h-3.4v-5.7
				c0-1.3-0.3-1.6-1-1.6c-0.6,0-1,0.3-1.5,0.8v6.6h-3.4V25.5z"/>
			<path class="st7" d="M187.1,31.6v-3.5h-1.3v-2.6l1.5-0.1l0.4-2.6h2.8v2.6h2.3v2.7h-2.3v3.4c0,1.1,0.6,1.5,1.2,1.5
				c0.3,0,0.6-0.1,0.9-0.2l0.5,2.5c-0.5,0.2-1.3,0.4-2.4,0.4C188.2,35.7,187.1,34.1,187.1,31.6z"/>
			<path class="st7" d="M194.7,22.5c0-1,0.8-1.7,1.9-1.7c1.1,0,1.9,0.7,1.9,1.7c0,1-0.8,1.7-1.9,1.7
				C195.5,24.2,194.7,23.5,194.7,22.5z M194.9,25.5h3.4v10h-3.4V25.5z"/>
			<path class="st7" d="M201.3,31.6v-3.5H200v-2.6l1.5-0.1l0.4-2.6h2.8v2.6h2.3v2.7h-2.3v3.4c0,1.1,0.6,1.5,1.2,1.5
				c0.3,0,0.6-0.1,0.9-0.2l0.5,2.5c-0.5,0.2-1.3,0.4-2.4,0.4C202.4,35.7,201.3,34.1,201.3,31.6z"/>
			<path class="st7" d="M208.5,30.5c0-3.2,2.4-5.2,4.8-5.2c3,0,4.4,2.2,4.4,4.8c0,0.6-0.1,1.2-0.1,1.4h-5.7c0.3,1.2,1.2,1.6,2.3,1.6
				c0.7,0,1.3-0.2,2-0.6l1.1,2c-1.1,0.8-2.5,1.2-3.6,1.2C210.8,35.7,208.5,33.8,208.5,30.5z M214.8,29.3c0-0.8-0.3-1.4-1.4-1.4
				c-0.8,0-1.4,0.4-1.6,1.4H214.8z"/>
			<path class="st7" d="M219.8,32V21.6h3.4v10.5c0,0.7,0.3,0.9,0.6,0.9c0.1,0,0.2,0,0.4,0l0.4,2.5c-0.4,0.2-0.9,0.3-1.7,0.3
				C220.5,35.7,219.8,34.2,219.8,32z"/>
			<path class="st7" d="M225.5,32.6c0-2.1,1.6-3.2,5.4-3.6c-0.1-0.7-0.5-1-1.4-1c-0.7,0-1.5,0.3-2.5,0.8l-1.2-2.2
				c1.4-0.8,2.8-1.3,4.4-1.3c2.6,0,4.2,1.4,4.2,4.7v5.6h-2.8l-0.2-1h-0.1c-0.8,0.7-1.7,1.2-2.8,1.2
				C226.6,35.7,225.5,34.3,225.5,32.6z M231,32.4V31c-1.6,0.2-2.2,0.8-2.2,1.3c0,0.5,0.3,0.7,0.9,0.7
				C230.3,33.1,230.6,32.8,231,32.4z"/>
			<path class="st7" d="M90.1,51.9c0-3.5,1-6.4,2.6-9.2l2.2,0.9c-1.4,2.6-2,5.5-2,8.3c0,2.8,0.6,5.7,2,8.3l-2.2,0.9
				C91.1,58.3,90.1,55.4,90.1,51.9z"/>
			<path class="st7" d="M97.8,53.6v-3.5h-1.3v-2.6l1.5-0.1l0.4-2.6h2.8v2.6h2.3v2.7h-2.3v3.4c0,1.1,0.6,1.5,1.2,1.5
				c0.3,0,0.6-0.1,0.9-0.2l0.5,2.5c-0.5,0.2-1.3,0.4-2.4,0.4C98.9,57.7,97.8,56.1,97.8,53.6z"/>
			<path class="st7" d="M105,52.5c0-3.3,2.4-5.2,5-5.2s5,1.9,5,5.2s-2.4,5.2-5,5.2S105,55.8,105,52.5z M111.4,52.5
				c0-1.5-0.4-2.5-1.4-2.5c-1,0-1.4,1-1.4,2.5c0,1.5,0.4,2.5,1.4,2.5C111,55,111.4,54,111.4,52.5z"/>
			<path class="st7" d="M117.4,53.6v-3.5h-1.3v-2.6l1.5-0.1l0.4-2.6h2.8v2.6h2.3v2.7h-2.3v3.4c0,1.1,0.6,1.5,1.2,1.5
				c0.3,0,0.6-0.1,0.9-0.2l0.5,2.5c-0.5,0.2-1.3,0.4-2.4,0.4C118.5,57.7,117.4,56.1,117.4,53.6z"/>
			<path class="st7" d="M124.7,54.6c0-2.1,1.6-3.2,5.4-3.6c-0.1-0.7-0.5-1-1.4-1c-0.7,0-1.5,0.3-2.5,0.8l-1.2-2.2
				c1.4-0.8,2.8-1.3,4.4-1.3c2.6,0,4.2,1.4,4.2,4.7v5.6h-2.8l-0.2-1h-0.1c-0.8,0.7-1.7,1.2-2.8,1.2
				C125.9,57.7,124.7,56.3,124.7,54.6z M130.2,54.4V53c-1.6,0.2-2.2,0.8-2.2,1.3c0,0.5,0.3,0.7,0.9,0.7
				C129.5,55.1,129.8,54.8,130.2,54.4z"/>
			<path class="st7" d="M136.1,54V43.6h3.4v10.5c0,0.7,0.3,0.9,0.6,0.9c0.1,0,0.2,0,0.4,0l0.4,2.5c-0.4,0.2-0.9,0.3-1.7,0.3
				C136.8,57.7,136.1,56.2,136.1,54z"/>
			<path class="st7" d="M146,54.6c0-2.1,1.6-3.2,5.4-3.6c-0.1-0.7-0.5-1-1.4-1c-0.7,0-1.5,0.3-2.5,0.8l-1.2-2.2
				c1.4-0.8,2.8-1.3,4.4-1.3c2.6,0,4.2,1.4,4.2,4.7v5.6h-2.8l-0.2-1h-0.1c-0.8,0.7-1.7,1.2-2.8,1.2C147.1,57.7,146,56.3,146,54.6z
				 M151.5,54.4V53c-1.6,0.2-2.2,0.8-2.2,1.3c0,0.5,0.3,0.7,0.9,0.7C150.8,55.1,151.1,54.8,151.5,54.4z"/>
			<path class="st7" d="M157.3,47.5h2.8l0.2,1.2h0.1c0.8-0.8,1.8-1.4,3.2-1.4c2.2,0,3.1,1.6,3.1,4.1v6.2h-3.4v-5.7
				c0-1.3-0.3-1.6-1-1.6c-0.6,0-1,0.3-1.5,0.8v6.6h-3.4V47.5z"/>
			<path class="st7" d="M169.6,53.6v-3.5h-1.3v-2.6l1.5-0.1l0.4-2.6h2.8v2.6h2.3v2.7h-2.3v3.4c0,1.1,0.6,1.5,1.2,1.5
				c0.3,0,0.6-0.1,0.9-0.2l0.5,2.5c-0.5,0.2-1.3,0.4-2.4,0.4C170.7,57.7,169.6,56.1,169.6,53.6z"/>
			<path class="st7" d="M177.2,44.5c0-1,0.8-1.7,1.9-1.7c1.1,0,1.9,0.7,1.9,1.7c0,1-0.8,1.7-1.9,1.7C178,46.2,177.2,45.5,177.2,44.5
				z M177.4,47.5h3.4v10h-3.4V47.5z"/>
			<path class="st7" d="M183.1,51.2h5v2.4h-5V51.2z"/>
			<path class="st7" d="M190.6,44.5h3.4v4.8h3.9v-4.8h3.4v13h-3.4v-5.2h-3.9v5.2h-3.4V44.5z"/>
			<path class="st7" d="M206.8,44.5h4.2l4,13h-3.6l-1.5-6.3c-0.3-1.2-0.6-2.8-1-4.1h-0.1c-0.3,1.3-0.6,2.9-0.9,4.1l-1.5,6.3h-3.5
				L206.8,44.5z M205.7,52.1h6.4v2.7h-6.4V52.1z"/>
			<path class="st7" d="M214.7,44.5h3.6l1.4,5.7c0.4,1.4,0.6,2.7,1,4.1h0.1c0.4-1.4,0.6-2.7,1-4.1l1.3-5.7h3.5l-3.8,13h-4.2
				L214.7,44.5z"/>
			<path class="st7" d="M227.6,60.2c1.4-2.6,2-5.5,2-8.3c0-2.8-0.6-5.7-2-8.3l2.2-0.9c1.7,2.8,2.6,5.6,2.6,9.2c0,3.5-1,6.4-2.6,9.2
				L227.6,60.2z"/>
		</g>
	</g>
</g>
<g>
	<g>
		<g>
			<path class="st7" d="M285.6,34.2h4.2l4,13h-3.6l-1.5-6.3c-0.3-1.2-0.6-2.8-1-4.1h-0.1c-0.3,1.3-0.6,2.9-0.9,4.1l-1.5,6.3h-3.5
				L285.6,34.2z M284.5,41.8h6.4v2.7h-6.4V41.8z"/>
			<path class="st7" d="M294.9,37.2h2.8l0.2,1.2h0.1c0.8-0.8,1.8-1.4,3.2-1.4c2.2,0,3.1,1.6,3.1,4.1v6.2h-3.4v-5.7
				c0-1.3-0.3-1.6-1-1.6c-0.6,0-1,0.3-1.5,0.8v6.6h-3.4V37.2z"/>
			<path class="st7" d="M307.1,43.4v-3.5h-1.3v-2.6l1.5-0.1l0.4-2.6h2.8v2.6h2.3v2.7h-2.3v3.4c0,1.1,0.6,1.5,1.2,1.5
				c0.3,0,0.6-0.1,0.9-0.2l0.5,2.5c-0.5,0.2-1.3,0.4-2.4,0.4C308.2,47.5,307.1,45.8,307.1,43.4z"/>
			<path class="st7" d="M314.7,34.3c0-1,0.8-1.7,1.9-1.7c1.1,0,1.9,0.7,1.9,1.7c0,1-0.8,1.7-1.9,1.7C315.5,36,314.7,35.3,314.7,34.3
				z M314.9,37.2h3.4v10h-3.4V37.2z"/>
			<path class="st7" d="M320.6,40.9h5v2.4h-5V40.9z"/>
			<path class="st7" d="M328.1,34.2h3.4v4.8h3.9v-4.8h3.4v13h-3.4v-5.2h-3.9v5.2h-3.4V34.2z"/>
			<path class="st7" d="M344.3,34.2h4.2l4,13h-3.6l-1.5-6.3c-0.3-1.2-0.6-2.8-1-4.1h-0.1c-0.3,1.3-0.6,2.9-0.9,4.1l-1.5,6.3h-3.5
				L344.3,34.2z M343.2,41.8h6.4v2.7h-6.4V41.8z"/>
			<path class="st7" d="M352.2,34.2h3.6l1.4,5.7c0.4,1.4,0.6,2.7,1,4.1h0.1c0.4-1.4,0.6-2.7,1-4.1l1.3-5.7h3.5l-3.8,13h-4.2
				L352.2,34.2z"/>
			<path class="st7" d="M369.7,34.2h3.4v13h-3.4V34.2z"/>
			<path class="st7" d="M375.4,48.9c0-0.8,0.5-1.4,1.4-1.9v-0.1c-0.5-0.4-0.9-0.9-0.9-1.7c0-0.7,0.4-1.4,1.1-1.9v-0.1
				c-0.7-0.5-1.4-1.4-1.4-2.6c0-2.5,2.1-3.6,4.3-3.6c0.6,0,1.1,0.1,1.6,0.2h3.7v2.5h-1.4c0.1,0.2,0.2,0.6,0.2,1c0,2.4-1.8,3.3-4,3.3
				c-0.3,0-0.7,0-1.1-0.1c-0.2,0.2-0.2,0.3-0.2,0.6c0,0.4,0.4,0.6,1.4,0.6h1.5c2.5,0,3.9,0.8,3.9,2.6c0,2.2-2.2,3.6-5.8,3.6
				C377.3,51.3,375.4,50.7,375.4,48.9z M382.1,48.3c0-0.5-0.5-0.6-1.3-0.6H380c-0.8,0-1.2,0-1.4-0.1c-0.2,0.2-0.4,0.4-0.4,0.7
				c0,0.6,0.8,0.9,2,0.9C381.3,49.2,382.1,48.9,382.1,48.3z M381,40.6c0-0.9-0.4-1.4-1.1-1.4c-0.6,0-1.1,0.4-1.1,1.4
				c0,1,0.4,1.4,1.1,1.4C380.5,42,381,41.6,381,40.6z"/>
			<path class="st7" d="M387.3,34.2h3.7l2,5.3c0.2,0.7,0.4,1.5,0.7,2.3h0.1c0.2-0.8,0.4-1.6,0.7-2.3l1.9-5.3h3.7v13h-3.1v-3.8
				c0-1.3,0.3-3.3,0.4-4.6h-0.1l-1.1,3.1l-1.6,4.3h-1.8l-1.6-4.3l-1-3.1H390c0.2,1.3,0.4,3.3,0.4,4.6v3.8h-3.1V34.2z"/>
		</g>
	</g>
</g>
</svg>
