<?xml version="1.0" encoding="utf-8"?>
<!-- Generator: Adobe Illustrator 23.0.1, SVG Export Plug-In . SVG Version: 6.00 Build 0)  -->
<svg version="1.1" id="Layer_1" xmlns="http://www.w3.org/2000/svg" xmlns:xlink="http://www.w3.org/1999/xlink" x="0px" y="0px"
	 viewBox="0 0 449.57 307" style="enable-background:new 0 0 449.57 307;" xml:space="preserve">
<style type="text/css">
	.st0{opacity:0.6;}
	.st1{fill:#1B71DE;}
	.st2{opacity:0.15;fill:#1B71DE;}
	.st3{opacity:0.1;fill:#1B71DE;}
	.st4{fill:none;stroke:#1B71DE;stroke-width:4;stroke-miterlimit:10;}
	.st5{fill:#6D6F72;}
	.st6{fill:#FFFFFF;}
</style>
<g class="st0">
	<path class="st1" d="M2.32,69.93V33.36c0-16.58,13.44-30.02,30.02-30.02h383.65c16.58,0,30.02,13.44,30.02,30.02v36.57"/>
	<polyline class="st1" points="2.32,46.93 231.96,46.93 446.01,46.93 	"/>
	<line class="st1" x1="2.32" y1="46.93" x2="2.07" y2="46.93"/>
</g>
<path class="st2" d="M85.34,301.97l101.3-82.29L328.75,200l116.42-71.56v144.93c0,15.79-12.8,28.59-28.59,28.59H85.34z"/>
<path class="st2" d="M132.24,301.97l88.09-39.02l123.6-9.33l101.24-33.93v56.64c0,14.16-11.48,25.65-25.65,25.65H132.24z"/>
<path class="st3" d="M415.67,303.16H32.02C15.44,303.16,2,289.72,2,273.14V33.36C2,16.78,15.44,3.34,32.02,3.34h383.65
	c16.58,0,30.02,13.44,30.02,30.02v239.78C445.69,289.72,432.25,303.16,415.67,303.16z"/>
<path class="st4" d="M415.67,303.16H32.02C15.44,303.16,2,289.72,2,273.14V33.36C2,16.78,15.44,3.34,32.02,3.34h383.65
	c16.58,0,30.02,13.44,30.02,30.02v239.78C445.69,289.72,432.25,303.16,415.67,303.16z"/>
<line class="st4" x1="223.01" y1="3.34" x2="223.01" y2="303.71"/>
<line class="st4" x1="445.69" y1="69.3" x2="1.75" y2="69.3"/>
<line class="st4" x1="445.69" y1="127.31" x2="1.75" y2="127.31"/>
<line class="st4" x1="445.69" y1="185.31" x2="1.75" y2="185.31"/>
<line class="st4" x1="445.69" y1="243.32" x2="1.75" y2="243.32"/>
<g>
	<g>
		<path class="st5" d="M108.39,147.12h4.09c2.8,0,4.74,0.95,4.74,3.38c0,1.36-0.72,2.57-2.01,2.99v0.08c1.65,0.32,2.8,1.41,2.8,3.3
			c0,2.71-2.14,4.03-5.22,4.03h-4.4V147.12z M112.19,152.98c2.34,0,3.31-0.86,3.31-2.26c0-1.61-1.1-2.21-3.23-2.21h-2.12v4.47
			H112.19z M112.54,159.5c2.36,0,3.74-0.85,3.74-2.71c0-1.7-1.33-2.47-3.74-2.47h-2.4v5.18H112.54z"/>
	</g>
</g>
<g>
	<g>
		<path class="st5" d="M111.69,91.7h1.98l4.66,13.78h-1.86l-2.4-7.7c-0.5-1.54-0.94-3.05-1.38-4.64h-0.08
			c-0.43,1.6-0.87,3.1-1.36,4.64l-2.43,7.7h-1.78L111.69,91.7z M109.48,99.89h6.35v1.4h-6.35V99.89z"/>
	</g>
</g>
<g>
	<g>
		<path class="st5" d="M105.62,207.18h1.98l4.66,13.78h-1.86l-2.4-7.7c-0.5-1.54-0.94-3.05-1.38-4.64h-0.08
			c-0.43,1.6-0.87,3.1-1.36,4.64l-2.43,7.7h-1.78L105.62,207.18z M103.41,215.36h6.35v1.4h-6.35V215.36z"/>
		<path class="st5" d="M114,207.18h4.09c2.8,0,4.74,0.95,4.74,3.38c0,1.36-0.72,2.57-2.01,2.99v0.08c1.65,0.32,2.8,1.41,2.8,3.3
			c0,2.71-2.14,4.03-5.22,4.03H114V207.18z M117.79,213.04c2.34,0,3.31-0.86,3.31-2.26c0-1.61-1.1-2.21-3.23-2.21h-2.12v4.47H117.79
			z M118.15,219.56c2.36,0,3.74-0.85,3.74-2.71c0-1.7-1.33-2.47-3.74-2.47h-2.4v5.18H118.15z"/>
	</g>
</g>
<g>
	<g>
		<path class="st5" d="M77.54,272.22c0-4.49,1.62-6.9,4.29-6.9c2.67,0,4.29,2.42,4.29,6.9c0,4.49-1.62,7-4.29,7
			C79.15,279.21,77.54,276.71,77.54,272.22z M84.44,272.22c0-3.93-1.06-5.51-2.62-5.51c-1.56,0-2.62,1.58-2.62,5.51
			c0,3.93,1.06,5.61,2.62,5.61C83.39,277.82,84.44,276.14,84.44,272.22z"/>
		<path class="st5" d="M92.55,273.13c0-3.7,1.03-6.72,2.77-9.54l1.07,0.5c-1.62,2.68-2.41,5.85-2.41,9.04s0.79,6.36,2.41,9.04
			l-1.07,0.5C93.58,279.84,92.55,276.82,92.55,273.13z"/>
		<path class="st5" d="M98.7,268.76h1.43l0.15,1.47h0.06c0.97-0.96,2.02-1.72,3.42-1.72c2.15,0,3.12,1.39,3.12,3.99v6.47h-1.73
			v-6.24c0-1.9-0.57-2.71-1.93-2.71c-1.04,0-1.77,0.53-2.79,1.57v7.39H98.7V268.76z"/>
		<path class="st5" d="M109.84,275.22v-6.47h1.73V275c0,1.9,0.57,2.71,1.93,2.71c1.04,0,1.77-0.52,2.73-1.72v-7.24h1.73v10.21h-1.43
			l-0.15-1.6h-0.06c-0.95,1.11-1.96,1.85-3.37,1.85C110.81,279.21,109.84,277.83,109.84,275.22z"/>
		<path class="st5" d="M121.19,276.91V264h1.73v13.03c0,0.53,0.23,0.74,0.48,0.74c0.1,0,0.18,0,0.38-0.04l0.23,1.32
			c-0.25,0.09-0.54,0.16-0.99,0.16C121.73,279.21,121.19,278.39,121.19,276.91z"/>
		<path class="st5" d="M126.64,275.81v-5.64h-1.52v-1.31l1.6-0.1l0.21-2.86h1.44v2.86h2.76v1.41h-2.76v5.67
			c0,1.25,0.4,1.97,1.58,1.97c0.36,0,0.83-0.14,1.16-0.27l0.33,1.3c-0.57,0.19-1.26,0.38-1.89,0.38
			C127.38,279.21,126.64,277.84,126.64,275.81z"/>
		<path class="st5" d="M132.59,276.31c0-2.22,1.92-3.33,6.27-3.81c0-1.31-0.44-2.58-2.11-2.58c-1.18,0-2.24,0.56-3.04,1.09
			l-0.68-1.18c0.94-0.62,2.37-1.33,4.01-1.33c2.49,0,3.54,1.66,3.54,4.2v6.26h-1.43l-0.15-1.22h-0.06
			c-0.97,0.81-2.11,1.47-3.38,1.47C133.88,279.21,132.59,278.15,132.59,276.31z M138.86,276.47v-2.83
			c-3.42,0.41-4.58,1.25-4.58,2.55c0,1.16,0.79,1.63,1.79,1.63C137.06,277.82,137.87,277.34,138.86,276.47z"/>
		<path class="st5" d="M142.68,282.16c1.62-2.68,2.41-5.85,2.41-9.04s-0.79-6.36-2.41-9.04l1.07-0.5c1.74,2.82,2.77,5.84,2.77,9.54
			s-1.03,6.72-2.77,9.54L142.68,282.16z"/>
	</g>
</g>
<g>
	<g>
		<path class="st5" d="M330.03,147.12h4.09c2.8,0,4.74,0.95,4.74,3.38c0,1.36-0.72,2.57-2.01,2.99v0.08c1.65,0.32,2.8,1.41,2.8,3.3
			c0,2.71-2.14,4.03-5.22,4.03h-4.4V147.12z M333.82,152.98c2.34,0,3.31-0.86,3.31-2.26c0-1.61-1.1-2.21-3.23-2.21h-2.12v4.47
			H333.82z M334.18,159.5c2.36,0,3.74-0.85,3.74-2.71c0-1.7-1.33-2.47-3.74-2.47h-2.4v5.18H334.18z"/>
	</g>
</g>
<g>
	<g>
		<path class="st5" d="M333.32,91.7h1.98l4.66,13.78h-1.86l-2.4-7.7c-0.5-1.54-0.94-3.05-1.38-4.64h-0.08
			c-0.43,1.6-0.87,3.1-1.36,4.64l-2.43,7.7h-1.78L333.32,91.7z M331.11,99.89h6.35v1.4h-6.35V99.89z"/>
	</g>
</g>
<g>
	<g>
		<path class="st5" d="M320.79,207.18h1.98l4.66,13.78h-1.86l-2.4-7.7c-0.5-1.54-0.94-3.05-1.38-4.64h-0.08
			c-0.43,1.6-0.87,3.1-1.36,4.64l-2.43,7.7h-1.78L320.79,207.18z M318.58,215.36h6.35v1.4h-6.35V215.36z"/>
		<path class="st5" d="M332.68,207.54c0-0.68,0.52-1.12,1.19-1.12c0.67,0,1.19,0.44,1.19,1.12c0,0.65-0.52,1.12-1.19,1.12
			C333.2,208.65,332.68,208.19,332.68,207.54z M333,210.75h1.73v10.21H333V210.75z"/>
		<path class="st5" d="M342.1,207.18h4.09c2.8,0,4.74,0.95,4.74,3.38c0,1.36-0.72,2.57-2.01,2.99v0.08c1.65,0.32,2.8,1.41,2.8,3.3
			c0,2.71-2.14,4.03-5.22,4.03h-4.4V207.18z M345.9,213.04c2.34,0,3.31-0.86,3.31-2.26c0-1.61-1.1-2.21-3.23-2.21h-2.12v4.47H345.9z
			 M346.25,219.56c2.36,0,3.74-0.85,3.74-2.71c0-1.7-1.33-2.47-3.74-2.47h-2.4v5.18H346.25z"/>
	</g>
</g>
<g>
	<g>
		<path class="st5" d="M280.71,265.18h4.09c2.8,0,4.74,0.95,4.74,3.38c0,1.36-0.72,2.57-2.01,2.99v0.08c1.65,0.32,2.8,1.41,2.8,3.3
			c0,2.71-2.14,4.03-5.22,4.03h-4.4V265.18z M284.5,271.05c2.34,0,3.31-0.86,3.31-2.26c0-1.61-1.1-2.21-3.23-2.21h-2.12v4.47H284.5z
			 M284.86,277.57c2.36,0,3.74-0.85,3.74-2.71c0-1.7-1.33-2.47-3.74-2.47h-2.4v5.18H284.86z"/>
		<path class="st5" d="M291.93,273.87c0-3.32,2.24-5.37,4.59-5.37c2.6,0,4.07,1.87,4.07,4.79c0,0.36-0.03,0.73-0.08,0.98h-6.87
			c0.12,2.16,1.45,3.56,3.39,3.56c0.98,0,1.78-0.32,2.54-0.82l0.62,1.13c-0.9,0.59-1.98,1.06-3.37,1.06
			C294.09,279.21,291.93,277.23,291.93,273.87z M299.06,273.04c0-2.05-0.92-3.16-2.52-3.16c-1.43,0-2.72,1.15-2.93,3.16H299.06z"/>
		<path class="st5" d="M301.82,278.04l5.37-7.88h-4.77v-1.41h6.96v0.92l-5.37,7.88h5.55v1.41h-7.73V278.04z"/>
		<path class="st5" d="M314.96,276.31c0-2.22,1.92-3.33,6.27-3.81c0-1.31-0.44-2.58-2.11-2.58c-1.18,0-2.24,0.56-3.04,1.09
			l-0.68-1.18c0.94-0.62,2.37-1.33,4.01-1.33c2.49,0,3.54,1.66,3.54,4.2v6.26h-1.43l-0.15-1.22h-0.06
			c-0.97,0.81-2.11,1.47-3.38,1.47C316.25,279.21,314.96,278.15,314.96,276.31z M321.23,276.47v-2.83
			c-3.42,0.41-4.58,1.25-4.58,2.55c0,1.16,0.79,1.63,1.79,1.63C319.43,277.82,320.24,277.34,321.23,276.47z"/>
		<path class="st5" d="M325.97,268.76h1.43l0.15,1.47h0.06c0.97-0.96,2.02-1.72,3.42-1.72c2.15,0,3.12,1.39,3.12,3.99v6.47h-1.73
			v-6.24c0-1.9-0.57-2.71-1.93-2.71c-1.04,0-1.77,0.53-2.79,1.57v7.39h-1.73V268.76z"/>
		<path class="st5" d="M337.55,275.81v-5.64h-1.52v-1.31l1.6-0.1l0.21-2.86h1.44v2.86h2.77v1.41h-2.77v5.67
			c0,1.25,0.4,1.97,1.58,1.97c0.36,0,0.83-0.14,1.16-0.27l0.33,1.3c-0.57,0.19-1.26,0.38-1.89,0.38
			C338.29,279.21,337.55,277.84,337.55,275.81z"/>
		<path class="st5" d="M343.82,265.54c0-0.68,0.52-1.12,1.19-1.12c0.67,0,1.19,0.44,1.19,1.12c0,0.65-0.52,1.12-1.19,1.12
			C344.34,266.66,343.82,266.19,343.82,265.54z M344.14,268.76h1.73v10.21h-1.73V268.76z"/>
		<path class="st5" d="M348.32,280.92c0-0.87,0.56-1.7,1.5-2.31v-0.08c-0.52-0.32-0.91-0.87-0.91-1.67c0-0.85,0.59-1.52,1.12-1.89
			v-0.08c-0.68-0.53-1.32-1.52-1.32-2.74c0-2.23,1.76-3.64,3.83-3.64c0.56,0,1.07,0.11,1.44,0.25h3.56v1.33h-2.1
			c0.48,0.46,0.83,1.23,0.83,2.1c0,2.19-1.65,3.54-3.74,3.54c-0.5,0-1.06-0.12-1.52-0.35c-0.37,0.31-0.65,0.65-0.65,1.21
			c0,0.65,0.42,1.11,1.79,1.11h1.99c2.37,0,3.57,0.74,3.57,2.44c0,1.9-2.01,3.53-5.16,3.53
			C350.04,283.66,348.32,282.68,348.32,280.92z M356.01,280.39c0-0.94-0.72-1.27-2.06-1.27h-1.76c-0.39,0-0.87-0.04-1.33-0.15
			c-0.73,0.52-1.04,1.13-1.04,1.71c0,1.1,1.11,1.79,2.96,1.79C354.73,282.47,356.01,281.45,356.01,280.39z M354.7,272.14
			c0-1.48-0.97-2.38-2.17-2.38s-2.17,0.89-2.17,2.38c0,1.49,0.99,2.43,2.17,2.43S354.7,273.63,354.7,272.14z"/>
		<path class="st5" d="M358.71,273.87c0-3.32,2.24-5.37,4.59-5.37c2.6,0,4.07,1.87,4.07,4.79c0,0.36-0.03,0.73-0.08,0.98h-6.87
			c0.12,2.16,1.45,3.56,3.39,3.56c0.98,0,1.78-0.32,2.54-0.82l0.62,1.13c-0.9,0.59-1.98,1.06-3.37,1.06
			C360.87,279.21,358.71,277.23,358.71,273.87z M365.84,273.04c0-2.05-0.92-3.16-2.52-3.16c-1.43,0-2.72,1.15-2.93,3.16H365.84z"/>
		<path class="st5" d="M369.67,268.76h1.43l0.15,1.47h0.06c0.97-0.96,2.02-1.72,3.42-1.72c2.15,0,3.12,1.39,3.12,3.99v6.47h-1.73
			v-6.24c0-1.9-0.57-2.71-1.93-2.71c-1.04,0-1.77,0.53-2.79,1.57v7.39h-1.73V268.76z"/>
		<path class="st5" d="M380.31,276.31c0-2.22,1.92-3.33,6.27-3.81c0-1.31-0.44-2.58-2.11-2.58c-1.18,0-2.24,0.56-3.04,1.09
			l-0.68-1.18c0.94-0.62,2.37-1.33,4.01-1.33c2.49,0,3.54,1.66,3.54,4.2v6.26h-1.43l-0.15-1.22h-0.06
			c-0.97,0.81-2.11,1.47-3.38,1.47C381.6,279.21,380.31,278.15,380.31,276.31z M386.58,276.47v-2.83c-3.42,0.41-4.58,1.25-4.58,2.55
			c0,1.16,0.79,1.63,1.79,1.63C384.78,277.82,385.59,277.34,386.58,276.47z"/>
	</g>
</g>
<g>
	<g>
		<path class="st6" d="M86.37,35.82c0-4.14,2.85-6.5,6.16-6.5c1.82,0,3.15,0.76,4.03,1.63l-1.71,2.09c-0.61-0.53-1.22-0.91-2.2-0.91
			c-1.67,0-2.93,1.33-2.93,3.57c0,2.32,1.03,3.61,3.23,3.61c0.34,0,0.72-0.08,0.95-0.23v-1.71h-1.82v-2.66h4.71v5.89
			c-0.87,0.84-2.43,1.52-4.18,1.52C89.14,42.13,86.37,40.04,86.37,35.82z"/>
		<path class="st6" d="M99.38,32.4h2.66l0.23,1.63h0.08c0.7-1.29,1.77-1.86,2.7-1.86c0.59,0,0.91,0.08,1.18,0.19l-0.53,2.81
			c-0.34-0.08-0.65-0.15-1.06-0.15c-0.68,0-1.52,0.42-1.98,1.6v5.28h-3.27V32.4z"/>
		<path class="st6" d="M107.72,38.25V32.4h3.27v5.43c0,1.22,0.3,1.52,0.95,1.52c0.61,0,0.95-0.23,1.37-0.84V32.4h3.27v9.5h-2.66
			l-0.23-1.25h-0.08c-0.76,0.91-1.63,1.48-2.93,1.48C108.6,42.13,107.72,40.61,107.72,38.25z"/>
		<path class="st6" d="M119.26,32.4h2.66l0.23,0.87h0.08c0.7-0.65,1.63-1.1,2.58-1.1c2.24,0,3.69,1.9,3.69,4.83
			c0,3.27-1.94,5.13-3.95,5.13c-0.8,0-1.52-0.34-2.13-0.95l0.11,1.44v2.62h-3.27V32.4z M125.14,37.03c0-1.56-0.46-2.2-1.33-2.2
			c-0.49,0-0.87,0.19-1.29,0.68v3.5c0.38,0.34,0.8,0.46,1.22,0.46C124.5,39.47,125.14,38.86,125.14,37.03z"/>
		<path class="st6" d="M130.37,39.2c0-1.98,1.52-3.08,5.17-3.46c-0.08-0.68-0.49-0.99-1.33-0.99c-0.68,0-1.41,0.27-2.39,0.8
			l-1.14-2.13c1.33-0.8,2.7-1.25,4.18-1.25c2.47,0,3.95,1.33,3.95,4.45v5.28h-2.66l-0.23-0.91h-0.08c-0.76,0.68-1.6,1.14-2.62,1.14
			C131.43,42.13,130.37,40.76,130.37,39.2z M135.54,38.97v-1.29c-1.56,0.23-2.05,0.72-2.05,1.25c0,0.44,0.3,0.68,0.87,0.68
			C134.89,39.62,135.2,39.35,135.54,38.97z"/>
	</g>
</g>
<g>
	<g>
		<g>
			<path class="st6" d="M302.74,19.48h4.16l3.96,13h-3.64l-1.48-6.32c-0.32-1.24-0.64-2.82-0.96-4.12h-0.08
				c-0.28,1.32-0.6,2.88-0.92,4.12l-1.48,6.32h-3.52L302.74,19.48z M301.62,27.06h6.36v2.66h-6.36V27.06z"/>
			<path class="st6" d="M312.02,22.48h2.8l0.24,1.2h0.08c0.8-0.76,1.8-1.44,3.16-1.44c2.2,0,3.12,1.6,3.12,4.08v6.16h-3.44v-5.72
				c0-1.28-0.32-1.6-1-1.6c-0.64,0-1,0.28-1.52,0.76v6.56h-3.44V22.48z"/>
			<path class="st6" d="M324.3,28.64v-3.48h-1.32V22.6l1.52-0.12l0.4-2.6h2.84v2.6h2.28v2.68h-2.28v3.42c0,1.1,0.56,1.46,1.2,1.46
				c0.32,0,0.64-0.08,0.88-0.16l0.52,2.48c-0.52,0.16-1.26,0.36-2.36,0.36C325.38,32.72,324.3,31.08,324.3,28.64z"/>
			<path class="st6" d="M331.86,19.52c0-1,0.8-1.72,1.92-1.72c1.12,0,1.92,0.72,1.92,1.72c0,1-0.8,1.72-1.92,1.72
				C332.66,21.24,331.86,20.52,331.86,19.52z M332.06,22.48h3.44v10h-3.44V22.48z"/>
			<path class="st6" d="M337.46,34.12c0-0.82,0.48-1.44,1.4-1.92v-0.08c-0.52-0.36-0.92-0.88-0.92-1.72c0-0.68,0.44-1.4,1.12-1.88
				v-0.08c-0.72-0.48-1.36-1.4-1.36-2.56c0-2.48,2.08-3.64,4.28-3.64c0.56,0,1.12,0.08,1.6,0.24h3.72v2.48h-1.44
				c0.08,0.24,0.16,0.64,0.16,1.04c0,2.36-1.8,3.32-4.04,3.32c-0.32,0-0.68-0.04-1.12-0.14c-0.2,0.18-0.24,0.3-0.24,0.58
				c0,0.44,0.4,0.6,1.4,0.6h1.5c2.5,0,3.94,0.76,3.94,2.6c0,2.16-2.24,3.64-5.8,3.64C339.38,36.6,337.46,35.92,337.46,34.12z
				 M344.18,33.56c0-0.52-0.48-0.6-1.34-0.6h-0.78c-0.8,0-1.16-0.04-1.44-0.12c-0.24,0.24-0.36,0.44-0.36,0.72
				c0,0.64,0.8,0.92,1.96,0.92C343.34,34.48,344.18,34.12,344.18,33.56z M343.06,25.88c0-0.92-0.44-1.36-1.08-1.36
				s-1.08,0.44-1.08,1.36c0,0.96,0.44,1.4,1.08,1.4S343.06,26.84,343.06,25.88z"/>
			<path class="st6" d="M348.62,27.48c0-3.24,2.36-5.24,4.8-5.24c2.96,0,4.36,2.16,4.36,4.84c0,0.6-0.08,1.2-0.14,1.44h-5.7
				c0.32,1.2,1.2,1.6,2.32,1.6c0.68,0,1.32-0.2,2.04-0.6l1.12,2.04c-1.08,0.76-2.52,1.16-3.64,1.16
				C350.86,32.72,348.62,30.8,348.62,27.48z M354.86,26.28c0-0.76-0.32-1.44-1.36-1.44c-0.76,0-1.4,0.44-1.6,1.44H354.86z"/>
			<path class="st6" d="M359.86,22.48h2.8l0.24,1.2h0.08c0.8-0.76,1.8-1.44,3.16-1.44c2.2,0,3.12,1.6,3.12,4.08v6.16h-3.44v-5.72
				c0-1.28-0.32-1.6-1-1.6c-0.64,0-1,0.28-1.52,0.76v6.56h-3.44V22.48z"/>
			<path class="st6" d="M266.62,44.48h2.8l0.24,1.2h0.08c0.8-0.76,1.8-1.44,3.16-1.44c2.2,0,3.12,1.6,3.12,4.08v6.16h-3.44v-5.72
				c0-1.28-0.32-1.6-1-1.6c-0.64,0-1,0.28-1.52,0.76v6.56h-3.44V44.48z"/>
			<path class="st6" d="M278.06,51.64c0-2.08,1.6-3.24,5.44-3.64c-0.08-0.72-0.52-1.04-1.4-1.04c-0.72,0-1.48,0.28-2.52,0.84
				l-1.2-2.24c1.4-0.84,2.84-1.32,4.4-1.32c2.6,0,4.16,1.4,4.16,4.68v5.56h-2.8l-0.24-0.96h-0.08c-0.8,0.72-1.68,1.2-2.76,1.2
				C279.18,54.72,278.06,53.28,278.06,51.64z M283.5,51.4v-1.36c-1.64,0.24-2.16,0.76-2.16,1.32c0,0.46,0.32,0.72,0.92,0.72
				C282.82,52.08,283.14,51.8,283.5,51.4z"/>
			<path class="st6" d="M293.06,49.48c0-3.24,2.36-5.24,4.8-5.24c2.96,0,4.36,2.16,4.36,4.84c0,0.6-0.08,1.2-0.14,1.44h-5.7
				c0.32,1.2,1.2,1.6,2.32,1.6c0.68,0,1.32-0.2,2.04-0.6l1.12,2.04c-1.08,0.76-2.52,1.16-3.64,1.16
				C295.3,54.72,293.06,52.8,293.06,49.48z M299.3,48.28c0-0.76-0.32-1.44-1.36-1.44c-0.76,0-1.4,0.44-1.6,1.44H299.3z"/>
			<path class="st6" d="M304.3,44.48h2.8l0.24,1.72h0.08c0.74-1.36,1.86-1.96,2.84-1.96c0.62,0,0.96,0.08,1.24,0.2l-0.56,2.96
				c-0.36-0.08-0.68-0.16-1.12-0.16c-0.72,0-1.6,0.44-2.08,1.68v5.56h-3.44V44.48z"/>
			<path class="st6" d="M312.66,41.52c0-1,0.8-1.72,1.92-1.72c1.12,0,1.92,0.72,1.92,1.72c0,1-0.8,1.72-1.92,1.72
				C313.46,43.24,312.66,42.52,312.66,41.52z M312.86,44.48h3.44v10h-3.44V44.48z"/>
			<path class="st6" d="M319.26,50.64v-3.48h-1.32V44.6l1.52-0.12l0.4-2.6h2.84v2.6h2.28v2.68h-2.28v3.42c0,1.1,0.56,1.46,1.2,1.46
				c0.32,0,0.64-0.08,0.88-0.16l0.52,2.48c-0.52,0.16-1.26,0.36-2.36,0.36C320.34,54.72,319.26,53.08,319.26,50.64z"/>
			<path class="st6" d="M327.02,44.48h2.8l0.24,1.72h0.08c0.74-1.36,1.86-1.96,2.84-1.96c0.62,0,0.96,0.08,1.24,0.2l-0.56,2.96
				c-0.36-0.08-0.68-0.16-1.12-0.16c-0.72,0-1.6,0.44-2.08,1.68v5.56h-3.44V44.48z"/>
			<path class="st6" d="M335.06,49.48c0-3.32,2.4-5.24,4.96-5.24s4.96,1.92,4.96,5.24s-2.4,5.24-4.96,5.24S335.06,52.8,335.06,49.48
				z M341.46,49.48c0-1.52-0.4-2.48-1.44-2.48c-1.04,0-1.44,0.96-1.44,2.48c0,1.52,0.4,2.48,1.44,2.48
				C341.06,51.96,341.46,51,341.46,49.48z"/>
			<path class="st6" d="M346.46,49.48c0-3.32,2.52-5.24,5.36-5.24c1.2,0,2.16,0.4,2.92,1.04l-1.6,2.2
				c-0.44-0.36-0.76-0.48-1.12-0.48c-1.28,0-2.04,0.96-2.04,2.48c0,1.52,0.84,2.48,1.92,2.48c0.56,0,1.12-0.28,1.6-0.64l1.32,2.24
				c-1,0.88-2.28,1.16-3.32,1.16C348.66,54.72,346.46,52.8,346.46,49.48z"/>
			<path class="st6" d="M356.42,41.52c0-1,0.8-1.72,1.92-1.72c1.12,0,1.92,0.72,1.92,1.72c0,1-0.8,1.72-1.92,1.72
				C357.22,43.24,356.42,42.52,356.42,41.52z M356.62,44.48h3.44v10h-3.44V44.48z"/>
			<path class="st6" d="M363.02,50.64v-3.48h-1.32V44.6l1.52-0.12l0.4-2.6h2.84v2.6h2.28v2.68h-2.28v3.42c0,1.1,0.56,1.46,1.2,1.46
				c0.32,0,0.64-0.08,0.88-0.16l0.52,2.48c-0.52,0.16-1.26,0.36-2.36,0.36C364.1,54.72,363.02,53.08,363.02,50.64z"/>
			<path class="st6" d="M370.58,41.52c0-1,0.8-1.72,1.92-1.72c1.12,0,1.92,0.72,1.92,1.72c0,1-0.8,1.72-1.92,1.72
				C371.38,43.24,370.58,42.52,370.58,41.52z M370.78,44.48h3.44v10h-3.44V44.48z"/>
			<path class="st6" d="M376.74,44.48h2.8l0.24,1.22h0.08c0.8-0.78,1.64-1.46,3-1.46s2.22,0.56,2.76,1.6
				c0.82-0.84,1.72-1.6,3.08-1.6c2.2,0,3.16,1.6,3.16,4.08v6.16h-3.44v-5.72c0-1.28-0.32-1.6-1-1.6c-0.4,0-0.88,0.24-1.4,0.76v6.56
				h-3.44v-5.72c0-1.28-0.32-1.6-1-1.6c-0.4,0-0.88,0.24-1.4,0.76v6.56h-3.44V44.48z"/>
			<path class="st6" d="M393.9,51.64c0-2.08,1.6-3.24,5.44-3.64c-0.08-0.72-0.52-1.04-1.4-1.04c-0.72,0-1.48,0.28-2.52,0.84
				l-1.2-2.24c1.4-0.84,2.84-1.32,4.4-1.32c2.6,0,4.16,1.4,4.16,4.68v5.56h-2.8l-0.24-0.96h-0.08c-0.8,0.72-1.68,1.2-2.76,1.2
				C395.02,54.72,393.9,53.28,393.9,51.64z M399.34,51.4v-1.36c-1.64,0.24-2.16,0.76-2.16,1.32c0,0.46,0.32,0.72,0.92,0.72
				C398.66,52.08,398.98,51.8,399.34,51.4z"/>
		</g>
	</g>
</g>
</svg>
