<?xml version="1.0" encoding="utf-8"?>
<!-- Generator: Adobe Illustrator 23.0.1, SVG Export Plug-In . SVG Version: 6.00 Build 0)  -->
<svg version="1.1" id="Layer_1" xmlns="http://www.w3.org/2000/svg" xmlns:xlink="http://www.w3.org/1999/xlink" x="0px" y="0px"
	 viewBox="0 0 869.94 443.47" style="enable-background:new 0 0 869.94 443.47;" xml:space="preserve">
<style type="text/css">
	.st0{opacity:0.2;fill:#FD8308;}
	.st1{opacity:0.15;fill:#FD8308;}
	.st2{opacity:0.6;}
	.st3{fill:#FD8308;}
	.st4{fill:none;stroke:#FD8308;stroke-width:4;stroke-miterlimit:10;}
	.st5{fill:#6D6F72;}
	.st6{fill:#FFFFFF;}
	.st7{fill:#601AFF;}
</style>
<path class="st0" d="M835.34,441.47H33.19c-16.58,0-30.02-13.44-30.02-30.02V32.02C3.17,15.44,16.61,2,33.19,2h802.15
	c16.58,0,30.02,13.44,30.02,30.02v379.43C865.36,428.03,851.92,441.47,835.34,441.47z"/>
<polygon class="st1" points="373.53,440.49 511.99,328.01 706.24,301.12 865.36,203.31 865.36,440.49 "/>
<path class="st0" d="M437.63,440.49l120.41-53.34l168.93-12.76l138.38-46.38v77.42c0,19.36-15.69,35.06-35.06,35.06H437.63z"/>
<g class="st2">
	<path class="st3" d="M3.49,69.53V32.02C3.49,15.44,16.93,2,33.51,2h802.15c16.58,0,30.02,13.44,30.02,30.02v37.51"/>
	<line class="st3" x1="3.49" y1="69.53" x2="865.68" y2="69.53"/>
	<line class="st3" x1="3.49" y1="69.53" x2="3.24" y2="69.53"/>
</g>
<path class="st4" d="M835.34,441.47H33.19c-16.58,0-30.02-13.44-30.02-30.02V32.02C3.17,15.44,16.61,2,33.19,2h802.15
	c16.58,0,30.02,13.44,30.02,30.02v379.43C865.36,428.03,851.92,441.47,835.34,441.47z"/>
<line class="st4" x1="277.41" y1="3.01" x2="277.41" y2="441.47"/>
<line class="st4" x1="865.36" y1="69.53" x2="2.92" y2="69.53"/>
<line class="st4" x1="865.36" y1="115.05" x2="2.92" y2="115.05"/>
<line class="st4" x1="865.36" y1="160.57" x2="2.92" y2="160.57"/>
<line class="st4" x1="865.36" y1="206.08" x2="2.92" y2="206.08"/>
<line class="st4" x1="865.36" y1="251.6" x2="2.92" y2="251.6"/>
<line class="st4" x1="865.36" y1="342.64" x2="2.92" y2="342.64"/>
<line class="st4" x1="865.36" y1="297.12" x2="2.92" y2="297.12"/>
<line class="st4" x1="865.36" y1="388.15" x2="2.92" y2="388.15"/>
<g>
	<path class="st5" d="M120.28,86.01h1.98l4.66,13.78h-1.86l-2.4-7.7c-0.5-1.54-0.94-3.05-1.38-4.64h-0.08
		c-0.43,1.6-0.87,3.1-1.36,4.64l-2.43,7.7h-1.78L120.28,86.01z M118.07,94.19h6.35v1.4h-6.35V94.19z"/>
	<path class="st5" d="M131.94,86.01h4.32c2.81,0,4.82,1.01,4.82,3.88c0,2.75-2.02,4.08-4.82,4.08h-2.56v5.82h-1.75V86.01z
		 M136,92.54c2.14,0,3.32-0.87,3.32-2.65c0-1.81-1.18-2.46-3.32-2.46h-2.31v5.11H136z M135.91,93.48l1.37-0.91l4.2,7.21h-1.99
		L135.91,93.48z"/>
	<path class="st5" d="M143.2,84.83h1.73v4.09l-0.06,2.1c0.95-0.92,1.99-1.69,3.39-1.69c2.15,0,3.12,1.39,3.12,3.99v6.47h-1.73v-6.24
		c0-1.9-0.57-2.71-1.93-2.71c-1.04,0-1.77,0.53-2.79,1.57v7.39h-1.73V84.83z"/>
	<path class="st5" d="M157.77,93.95c0-3.7,1.03-6.72,2.77-9.54l1.07,0.5c-1.62,2.68-2.41,5.85-2.41,9.04s0.79,6.36,2.41,9.04
		l-1.07,0.5C158.8,100.67,157.77,97.65,157.77,93.95z"/>
	<path class="st5" d="M166.41,93.51h-3.81v-1.3h3.81v-4.1h1.38v4.1h3.81v1.3h-3.81v4.1h-1.38V93.51z"/>
	<path class="st5" d="M172.6,102.99c1.62-2.68,2.41-5.85,2.41-9.04s-0.79-6.36-2.41-9.04l1.07-0.5c1.74,2.82,2.77,5.84,2.77,9.54
		s-1.03,6.72-2.77,9.54L172.6,102.99z"/>
</g>
<g>
	<path class="st5" d="M122.23,131.1h1.98l4.66,13.78h-1.86l-2.4-7.7c-0.5-1.54-0.94-3.05-1.38-4.64h-0.08
		c-0.43,1.6-0.87,3.1-1.36,4.64l-2.43,7.7h-1.78L122.23,131.1z M120.02,139.28h6.35v1.4h-6.35V139.28z"/>
	<path class="st5" d="M133.89,131.1h4.32c2.81,0,4.82,1.01,4.82,3.88c0,2.75-2.02,4.08-4.82,4.08h-2.56v5.82h-1.75V131.1z
		 M137.95,137.63c2.14,0,3.32-0.87,3.32-2.65c0-1.81-1.18-2.46-3.32-2.46h-2.31v5.11H137.95z M137.86,138.57l1.37-0.91l4.2,7.21
		h-1.99L137.86,138.57z"/>
	<path class="st5" d="M145.15,129.92h1.73v4.09l-0.06,2.1c0.95-0.92,1.99-1.69,3.39-1.69c2.15,0,3.12,1.39,3.12,3.99v6.47h-1.73
		v-6.24c0-1.9-0.57-2.71-1.93-2.71c-1.04,0-1.77,0.53-2.79,1.57v7.39h-1.73V129.92z"/>
	<path class="st5" d="M159.72,139.04c0-3.7,1.03-6.72,2.77-9.54l1.07,0.5c-1.62,2.68-2.41,5.85-2.41,9.04s0.79,6.36,2.41,9.04
		l-1.07,0.5C160.76,145.76,159.72,142.74,159.72,139.04z"/>
	<path class="st5" d="M164.71,138.95h4.81v1.33h-4.81V138.95z"/>
	<path class="st5" d="M170.65,148.08c1.62-2.68,2.41-5.85,2.41-9.04s-0.79-6.36-2.41-9.04l1.07-0.5c1.74,2.82,2.77,5.84,2.77,9.54
		s-1.03,6.72-2.77,9.54L170.65,148.08z"/>
</g>
<g>
	<path class="st5" d="M115.1,176.17h4.09c2.8,0,4.74,0.95,4.74,3.38c0,1.36-0.72,2.57-2.01,2.99v0.08c1.65,0.32,2.8,1.41,2.8,3.3
		c0,2.71-2.14,4.03-5.22,4.03h-4.4V176.17z M118.9,182.04c2.34,0,3.31-0.86,3.31-2.26c0-1.61-1.1-2.21-3.23-2.21h-2.12v4.47H118.9z
		 M119.26,188.56c2.36,0,3.74-0.85,3.74-2.71c0-1.7-1.33-2.47-3.74-2.47h-2.4v5.18H119.26z"/>
	<path class="st5" d="M131.65,176.17h4.32c2.81,0,4.82,1.01,4.82,3.88c0,2.75-2.02,4.08-4.82,4.08h-2.56v5.82h-1.75V176.17z
		 M135.72,182.71c2.14,0,3.32-0.87,3.32-2.65c0-1.81-1.18-2.46-3.32-2.46h-2.31v5.11H135.72z M135.62,183.65l1.37-0.91l4.2,7.21
		h-1.99L135.62,183.65z"/>
	<path class="st5" d="M143.44,175h1.73v4.09l-0.06,2.1c0.95-0.92,1.99-1.69,3.39-1.69c2.15,0,3.12,1.39,3.12,3.99v6.47h-1.73v-6.24
		c0-1.9-0.57-2.71-1.93-2.71c-1.04,0-1.77,0.53-2.79,1.57v7.39h-1.73V175z"/>
	<path class="st5" d="M159.06,184.12c0-3.7,1.03-6.72,2.77-9.54l1.07,0.5c-1.62,2.68-2.41,5.85-2.41,9.04s0.79,6.36,2.41,9.04
		l-1.07,0.5C160.09,190.84,159.06,187.81,159.06,184.12z"/>
	<path class="st5" d="M168.23,183.67h-3.81v-1.3h3.81v-4.1h1.38v4.1h3.81v1.3h-3.81v4.1h-1.38V183.67z"/>
	<path class="st5" d="M174.94,193.15c1.62-2.68,2.41-5.85,2.41-9.04s-0.79-6.36-2.41-9.04l1.07-0.5c1.74,2.82,2.77,5.84,2.77,9.54
		s-1.03,6.72-2.77,9.54L174.94,193.15z"/>
</g>
<g>
	<path class="st5" d="M117.06,221.26h4.09c2.8,0,4.74,0.95,4.74,3.38c0,1.36-0.72,2.57-2.01,2.99v0.08c1.65,0.32,2.8,1.41,2.8,3.3
		c0,2.71-2.14,4.03-5.22,4.03h-4.4V221.26z M120.85,227.13c2.34,0,3.31-0.86,3.31-2.26c0-1.61-1.1-2.21-3.23-2.21h-2.12v4.47H120.85
		z M121.21,233.65c2.36,0,3.74-0.85,3.74-2.71c0-1.7-1.33-2.47-3.74-2.47h-2.4v5.18H121.21z"/>
	<path class="st5" d="M133.6,221.26h4.32c2.81,0,4.82,1.01,4.82,3.88c0,2.75-2.02,4.08-4.82,4.08h-2.56v5.82h-1.75V221.26z
		 M137.67,227.8c2.14,0,3.32-0.87,3.32-2.65c0-1.81-1.18-2.46-3.32-2.46h-2.31v5.11H137.67z M137.58,228.74l1.37-0.91l4.2,7.21
		h-1.99L137.58,228.74z"/>
	<path class="st5" d="M145.39,220.09h1.73v4.09l-0.06,2.1c0.95-0.92,1.99-1.69,3.39-1.69c2.15,0,3.12,1.39,3.12,3.99v6.47h-1.73
		v-6.24c0-1.9-0.57-2.71-1.93-2.71c-1.04,0-1.77,0.53-2.79,1.57v7.39h-1.73V220.09z"/>
	<path class="st5" d="M161.01,229.21c0-3.7,1.03-6.72,2.77-9.54l1.07,0.5c-1.62,2.68-2.41,5.85-2.41,9.04s0.79,6.36,2.41,9.04
		l-1.07,0.5C162.05,235.93,161.01,232.9,161.01,229.21z"/>
	<path class="st5" d="M166.53,229.12h4.81v1.33h-4.81V229.12z"/>
	<path class="st5" d="M172.99,238.25c1.62-2.68,2.41-5.85,2.41-9.04s-0.79-6.36-2.41-9.04l1.07-0.5c1.74,2.82,2.77,5.84,2.77,9.54
		s-1.03,6.72-2.77,9.54L172.99,238.25z"/>
</g>
<g>
	<path class="st5" d="M112.27,267.35h1.98l4.66,13.78h-1.86l-2.4-7.7c-0.5-1.54-0.94-3.05-1.38-4.64h-0.08
		c-0.43,1.6-0.87,3.1-1.36,4.64l-2.43,7.7h-1.78L112.27,267.35z M110.06,275.54h6.35v1.4h-6.35V275.54z"/>
	<path class="st5" d="M120.77,267.35h4.09c2.8,0,4.74,0.95,4.74,3.38c0,1.36-0.72,2.57-2.01,2.99v0.08c1.65,0.32,2.8,1.41,2.8,3.3
		c0,2.71-2.14,4.03-5.22,4.03h-4.4V267.35z M124.57,273.22c2.34,0,3.31-0.86,3.31-2.26c0-1.61-1.1-2.21-3.23-2.21h-2.12v4.47H124.57
		z M124.93,279.74c2.36,0,3.74-0.85,3.74-2.71c0-1.7-1.33-2.47-3.74-2.47h-2.4v5.18H124.93z"/>
	<path class="st5" d="M137.32,267.35h4.32c2.81,0,4.82,1.01,4.82,3.88c0,2.75-2.02,4.08-4.82,4.08h-2.56v5.82h-1.75V267.35z
		 M141.39,273.89c2.14,0,3.32-0.87,3.32-2.65c0-1.81-1.18-2.46-3.32-2.46h-2.31v5.11H141.39z M141.29,274.83l1.37-0.91l4.2,7.21
		h-1.99L141.29,274.83z"/>
	<path class="st5" d="M149.11,266.18h1.73v4.09l-0.06,2.1c0.95-0.92,1.99-1.69,3.39-1.69c2.15,0,3.12,1.39,3.12,3.99v6.47h-1.73
		v-6.24c0-1.9-0.57-2.71-1.93-2.71c-1.04,0-1.77,0.53-2.79,1.57v7.39h-1.73V266.18z"/>
	<path class="st5" d="M164.73,275.3c0-3.7,1.03-6.72,2.77-9.54l1.07,0.5c-1.62,2.68-2.41,5.85-2.41,9.04s0.79,6.36,2.41,9.04
		l-1.07,0.5C165.76,282.02,164.73,278.99,164.73,275.3z"/>
	<path class="st5" d="M173.9,274.86h-3.81v-1.3h3.81v-4.1h1.38v4.1h3.81v1.3h-3.81v4.1h-1.38V274.86z"/>
	<path class="st5" d="M180.61,284.34c1.62-2.68,2.41-5.85,2.41-9.04s-0.79-6.36-2.41-9.04l1.07-0.5c1.74,2.82,2.77,5.84,2.77,9.54
		s-1.03,6.72-2.77,9.54L180.61,284.34z"/>
</g>
<g>
	<path class="st5" d="M114.22,312.44h1.98l4.66,13.78H119l-2.4-7.7c-0.5-1.54-0.94-3.05-1.38-4.64h-0.08
		c-0.43,1.6-0.87,3.1-1.36,4.64l-2.43,7.7h-1.78L114.22,312.44z M112.01,320.63h6.35v1.4h-6.35V320.63z"/>
	<path class="st5" d="M122.73,312.44h4.09c2.8,0,4.74,0.95,4.74,3.38c0,1.36-0.72,2.57-2.01,2.99v0.08c1.65,0.32,2.8,1.41,2.8,3.3
		c0,2.71-2.14,4.03-5.22,4.03h-4.4V312.44z M126.52,318.31c2.34,0,3.31-0.86,3.31-2.26c0-1.61-1.1-2.21-3.23-2.21h-2.12v4.47H126.52
		z M126.88,324.83c2.36,0,3.74-0.85,3.74-2.71c0-1.7-1.33-2.47-3.74-2.47h-2.4v5.18H126.88z"/>
	<path class="st5" d="M139.27,312.44h4.32c2.81,0,4.82,1.01,4.82,3.88c0,2.75-2.02,4.08-4.82,4.08h-2.56v5.82h-1.75V312.44z
		 M143.34,318.98c2.14,0,3.32-0.87,3.32-2.65c0-1.81-1.18-2.46-3.32-2.46h-2.31v5.11H143.34z M143.25,319.92l1.37-0.91l4.2,7.21
		h-1.99L143.25,319.92z"/>
	<path class="st5" d="M151.06,311.27h1.73v4.09l-0.06,2.1c0.95-0.92,1.99-1.69,3.39-1.69c2.15,0,3.12,1.39,3.12,3.99v6.47h-1.73
		v-6.24c0-1.9-0.57-2.71-1.93-2.71c-1.04,0-1.77,0.53-2.79,1.57v7.39h-1.73V311.27z"/>
	<path class="st5" d="M166.68,320.39c0-3.7,1.03-6.72,2.77-9.54l1.07,0.5c-1.62,2.68-2.41,5.85-2.41,9.04s0.79,6.36,2.41,9.04
		l-1.07,0.5C167.72,327.11,166.68,324.08,166.68,320.39z"/>
	<path class="st5" d="M172.2,320.3h4.81v1.33h-4.81V320.3z"/>
	<path class="st5" d="M178.66,329.43c1.62-2.68,2.41-5.85,2.41-9.04s-0.79-6.36-2.41-9.04l1.07-0.5c1.74,2.82,2.77,5.84,2.77,9.54
		s-1.03,6.72-2.77,9.54L178.66,329.43z"/>
</g>
<g>
	<path class="st5" d="M113.51,365.38c0-4.41,2.43-7.09,5.89-7.09s5.89,2.69,5.89,7.09c0,4.41-2.43,7.19-5.89,7.19
		S113.51,369.79,113.51,365.38z M123.47,365.38c0-3.43-1.62-5.55-4.08-5.55s-4.08,2.12-4.08,5.55c0,3.43,1.62,5.65,4.08,5.65
		S123.47,368.81,123.47,365.38z"/>
	<path class="st5" d="M132.45,358.54h4.32c2.81,0,4.82,1.01,4.82,3.88c0,2.75-2.02,4.08-4.82,4.08h-2.56v5.82h-1.75V358.54z
		 M136.51,365.07c2.14,0,3.32-0.87,3.32-2.65c0-1.81-1.18-2.46-3.32-2.46h-2.31v5.11H136.51z M136.42,366.01l1.37-0.91l4.2,7.21
		h-1.99L136.42,366.01z"/>
	<path class="st5" d="M144.24,357.36h1.73v4.09l-0.06,2.1c0.95-0.92,1.99-1.69,3.39-1.69c2.15,0,3.12,1.39,3.12,3.99v6.47h-1.73
		v-6.24c0-1.9-0.57-2.71-1.93-2.71c-1.04,0-1.77,0.53-2.79,1.57v7.39h-1.73V357.36z"/>
	<path class="st5" d="M159.86,366.48c0-3.7,1.03-6.72,2.77-9.54l1.07,0.5c-1.62,2.68-2.41,5.85-2.41,9.04s0.79,6.36,2.41,9.04
		l-1.07,0.5C160.89,373.2,159.86,370.17,159.86,366.48z"/>
	<path class="st5" d="M169.03,366.04h-3.81v-1.3h3.81v-4.1h1.38v4.1h3.81v1.3h-3.81v4.1h-1.38V366.04z"/>
	<path class="st5" d="M175.74,375.52c1.62-2.68,2.41-5.85,2.41-9.04s-0.79-6.36-2.41-9.04l1.07-0.5c1.74,2.82,2.77,5.84,2.77,9.54
		s-1.03,6.72-2.77,9.54L175.74,375.52z"/>
</g>
<g>
	<path class="st5" d="M115.46,412.47c0-4.41,2.43-7.09,5.89-7.09s5.89,2.69,5.89,7.09c0,4.41-2.43,7.19-5.89,7.19
		S115.46,416.88,115.46,412.47z M125.43,412.47c0-3.43-1.62-5.55-4.08-5.55s-4.08,2.12-4.08,5.55c0,3.43,1.62,5.65,4.08,5.65
		S125.43,415.9,125.43,412.47z"/>
	<path class="st5" d="M134.4,405.63h4.32c2.81,0,4.82,1.01,4.82,3.88c0,2.75-2.02,4.08-4.82,4.08h-2.56v5.82h-1.75V405.63z
		 M138.47,412.16c2.14,0,3.32-0.87,3.32-2.65c0-1.81-1.18-2.46-3.32-2.46h-2.31v5.11H138.47z M138.37,413.1l1.37-0.91l4.2,7.21
		h-1.99L138.37,413.1z"/>
	<path class="st5" d="M146.19,404.45h1.73v4.09l-0.06,2.1c0.95-0.92,1.99-1.69,3.39-1.69c2.15,0,3.12,1.39,3.12,3.99v6.47h-1.73
		v-6.24c0-1.9-0.57-2.71-1.93-2.71c-1.04,0-1.77,0.53-2.79,1.57v7.39h-1.73V404.45z"/>
	<path class="st5" d="M161.81,413.57c0-3.7,1.03-6.72,2.77-9.54l1.07,0.5c-1.62,2.68-2.41,5.85-2.41,9.04s0.79,6.36,2.41,9.04
		l-1.07,0.5C162.85,420.29,161.81,417.26,161.81,413.57z"/>
	<path class="st5" d="M167.33,413.48h4.81v1.33h-4.81V413.48z"/>
	<path class="st5" d="M173.79,422.61c1.62-2.68,2.41-5.85,2.41-9.04s-0.79-6.36-2.41-9.04l1.07-0.5c1.74,2.82,2.77,5.84,2.77,9.54
		s-1.03,6.72-2.77,9.54L173.79,422.61z"/>
</g>
<g>
	<path class="st5" d="M300.8,86.01h1.98l4.66,13.78h-1.86l-2.4-7.7c-0.5-1.54-0.94-3.05-1.38-4.64h-0.08
		c-0.43,1.6-0.87,3.1-1.36,4.64l-2.43,7.7h-1.78L300.8,86.01z M298.59,94.19h6.35v1.4h-6.35V94.19z"/>
	<path class="st5" d="M313.09,86.01h4.32c2.81,0,4.82,1.01,4.82,3.88c0,2.75-2.02,4.08-4.82,4.08h-2.56v5.82h-1.75V86.01z
		 M317.15,92.54c2.14,0,3.32-0.87,3.32-2.65c0-1.81-1.18-2.46-3.32-2.46h-2.31v5.11H317.15z M317.06,93.48l1.37-0.91l4.2,7.21h-1.99
		L317.06,93.48z"/>
	<path class="st5" d="M324.67,84.83h1.73v4.09l-0.06,2.1c0.95-0.92,1.99-1.69,3.39-1.69c2.15,0,3.12,1.39,3.12,3.99v6.47h-1.73
		v-6.24c0-1.9-0.57-2.71-1.93-2.71c-1.04,0-1.77,0.53-2.79,1.57v7.39h-1.73V84.83z"/>
	<path class="st5" d="M339.87,93.95c0-3.7,1.03-6.72,2.77-9.54l1.07,0.5c-1.62,2.68-2.41,5.85-2.41,9.04s0.79,6.36,2.41,9.04
		l-1.07,0.5C340.9,100.67,339.87,97.65,339.87,93.95z"/>
	<path class="st5" d="M348.83,93.51h-3.81v-1.3h3.81v-4.1h1.38v4.1h3.81v1.3h-3.81v4.1h-1.38V93.51z"/>
	<path class="st5" d="M355.33,102.99c1.62-2.68,2.41-5.85,2.41-9.04s-0.79-6.36-2.41-9.04l1.07-0.5c1.74,2.82,2.77,5.84,2.77,9.54
		s-1.03,6.72-2.77,9.54L355.33,102.99z"/>
	<path class="st5" d="M361.67,102.34c1.18-0.52,1.9-1.45,1.89-2.6l-0.19-1.55l0.85,1.26c-0.23,0.28-0.54,0.36-0.87,0.36
		c-0.67,0-1.25-0.42-1.25-1.2c0-0.75,0.59-1.2,1.28-1.2c0.92,0,1.46,0.77,1.46,2.03c0,1.81-1.06,3.23-2.75,3.93L361.67,102.34z"/>
	<path class="st5" d="M374.4,86.01h1.98l4.66,13.78h-1.86l-2.4-7.7c-0.5-1.54-0.94-3.05-1.38-4.64h-0.08
		c-0.43,1.6-0.87,3.1-1.36,4.64l-2.43,7.7h-1.78L374.4,86.01z M372.19,94.19h6.35v1.4h-6.35V94.19z"/>
	<path class="st5" d="M386.69,86.01h4.32c2.81,0,4.82,1.01,4.82,3.88c0,2.75-2.02,4.08-4.82,4.08h-2.56v5.82h-1.75V86.01z
		 M390.75,92.54c2.14,0,3.32-0.87,3.32-2.65c0-1.81-1.18-2.46-3.32-2.46h-2.31v5.11H390.75z M390.66,93.48l1.37-0.91l4.2,7.21h-1.99
		L390.66,93.48z"/>
	<path class="st5" d="M398.27,84.83H400v4.09l-0.06,2.1c0.95-0.92,1.99-1.69,3.39-1.69c2.15,0,3.12,1.39,3.12,3.99v6.47h-1.73v-6.24
		c0-1.9-0.57-2.71-1.93-2.71c-1.04,0-1.77,0.53-2.79,1.57v7.39h-1.73V84.83z"/>
	<path class="st5" d="M413.47,93.95c0-3.7,1.03-6.72,2.77-9.54l1.07,0.5c-1.62,2.68-2.41,5.85-2.41,9.04s0.79,6.36,2.41,9.04
		l-1.07,0.5C414.5,100.67,413.47,97.65,413.47,93.95z"/>
	<path class="st5" d="M418.77,93.86h4.81v1.33h-4.81V93.86z"/>
	<path class="st5" d="M425.02,102.99c1.62-2.68,2.41-5.85,2.41-9.04s-0.79-6.36-2.41-9.04l1.07-0.5c1.74,2.82,2.77,5.84,2.77,9.54
		s-1.03,6.72-2.77,9.54L425.02,102.99z"/>
	<path class="st5" d="M431.37,102.34c1.18-0.52,1.9-1.45,1.89-2.6l-0.19-1.55l0.85,1.26c-0.23,0.28-0.54,0.36-0.87,0.36
		c-0.67,0-1.25-0.42-1.25-1.2c0-0.75,0.59-1.2,1.28-1.2c0.92,0,1.46,0.77,1.46,2.03c0,1.81-1.06,3.23-2.75,3.93L431.37,102.34z"/>
	<path class="st5" d="M440.31,93.04c0-4.49,1.62-6.9,4.29-6.9s4.29,2.42,4.29,6.9c0,4.49-1.62,7-4.29,7S440.31,97.53,440.31,93.04z
		 M447.22,93.04c0-3.93-1.06-5.51-2.62-5.51s-2.62,1.58-2.62,5.51s1.06,5.61,2.62,5.61S447.22,96.97,447.22,93.04z"/>
	<path class="st5" d="M455.48,86.01h4.32c2.81,0,4.82,1.01,4.82,3.88c0,2.75-2.02,4.08-4.82,4.08h-2.56v5.82h-1.75V86.01z
		 M459.55,92.54c2.14,0,3.32-0.87,3.32-2.65c0-1.81-1.18-2.46-3.32-2.46h-2.31v5.11H459.55z M459.46,93.48l1.37-0.91l4.2,7.21h-1.99
		L459.46,93.48z"/>
	<path class="st5" d="M467.06,84.83h1.73v4.09l-0.06,2.1c0.95-0.92,1.99-1.69,3.39-1.69c2.15,0,3.12,1.39,3.12,3.99v6.47h-1.73
		v-6.24c0-1.9-0.57-2.71-1.93-2.71c-1.04,0-1.77,0.53-2.79,1.57v7.39h-1.73V84.83z"/>
	<path class="st5" d="M482.26,93.95c0-3.7,1.03-6.72,2.77-9.54l1.07,0.5c-1.62,2.68-2.41,5.85-2.41,9.04s0.79,6.36,2.41,9.04
		l-1.07,0.5C483.3,100.67,482.26,97.65,482.26,93.95z"/>
	<path class="st5" d="M491.22,93.51h-3.81v-1.3h3.81v-4.1h1.38v4.1h3.81v1.3h-3.81v4.1h-1.38V93.51z"/>
	<path class="st5" d="M497.72,102.99c1.62-2.68,2.41-5.85,2.41-9.04s-0.79-6.36-2.41-9.04l1.07-0.5c1.74,2.82,2.77,5.84,2.77,9.54
		s-1.03,6.72-2.77,9.54L497.72,102.99z"/>
	<path class="st5" d="M504.07,102.34c1.18-0.52,1.9-1.45,1.89-2.6l-0.19-1.55l0.85,1.26c-0.23,0.28-0.54,0.36-0.87,0.36
		c-0.67,0-1.25-0.42-1.25-1.2c0-0.75,0.59-1.2,1.28-1.2c0.92,0,1.46,0.77,1.46,2.03c0,1.81-1.06,3.23-2.75,3.93L504.07,102.34z"/>
	<path class="st5" d="M513.01,93.04c0-4.49,1.62-6.9,4.29-6.9c2.67,0,4.29,2.42,4.29,6.9c0,4.49-1.62,7-4.29,7
		C514.63,100.04,513.01,97.53,513.01,93.04z M519.92,93.04c0-3.93-1.06-5.51-2.62-5.51c-1.56,0-2.62,1.58-2.62,5.51
		s1.06,5.61,2.62,5.61C518.86,98.65,519.92,96.97,519.92,93.04z"/>
	<path class="st5" d="M528.18,86.01h4.32c2.81,0,4.82,1.01,4.82,3.88c0,2.75-2.02,4.08-4.82,4.08h-2.56v5.82h-1.75V86.01z
		 M532.25,92.54c2.14,0,3.32-0.87,3.32-2.65c0-1.81-1.18-2.46-3.32-2.46h-2.31v5.11H532.25z M532.16,93.48l1.37-0.91l4.2,7.21h-1.99
		L532.16,93.48z"/>
	<path class="st5" d="M539.76,84.83h1.73v4.09l-0.06,2.1c0.95-0.92,1.99-1.69,3.39-1.69c2.15,0,3.12,1.39,3.12,3.99v6.47h-1.73
		v-6.24c0-1.9-0.57-2.71-1.93-2.71c-1.04,0-1.77,0.53-2.79,1.57v7.39h-1.73V84.83z"/>
	<path class="st5" d="M554.96,93.95c0-3.7,1.03-6.72,2.77-9.54l1.07,0.5c-1.62,2.68-2.41,5.85-2.41,9.04s0.79,6.36,2.41,9.04
		l-1.07,0.5C556,100.67,554.96,97.65,554.96,93.95z"/>
	<path class="st5" d="M560.27,93.86h4.81v1.33h-4.81V93.86z"/>
	<path class="st5" d="M566.52,102.99c1.62-2.68,2.41-5.85,2.41-9.04s-0.79-6.36-2.41-9.04l1.07-0.5c1.74,2.82,2.77,5.84,2.77,9.54
		s-1.03,6.72-2.77,9.54L566.52,102.99z"/>
</g>
<g>
	<path class="st5" d="M300.8,131.1h1.98l4.66,13.78h-1.86l-2.4-7.7c-0.5-1.54-0.94-3.05-1.38-4.64h-0.08
		c-0.43,1.6-0.87,3.1-1.36,4.64l-2.43,7.7h-1.78L300.8,131.1z M298.59,139.28h6.35v1.4h-6.35V139.28z"/>
	<path class="st5" d="M312.46,131.1h4.32c2.81,0,4.82,1.01,4.82,3.88c0,2.75-2.02,4.08-4.82,4.08h-2.56v5.82h-1.75V131.1z
		 M316.52,137.63c2.14,0,3.32-0.87,3.32-2.65c0-1.81-1.18-2.46-3.32-2.46h-2.31v5.11H316.52z M316.43,138.57l1.37-0.91l4.2,7.21
		h-1.99L316.43,138.57z"/>
	<path class="st5" d="M323.72,129.92h1.73v4.09l-0.06,2.1c0.95-0.92,1.99-1.69,3.39-1.69c2.15,0,3.12,1.39,3.12,3.99v6.47h-1.73
		v-6.24c0-1.9-0.57-2.71-1.93-2.71c-1.04,0-1.77,0.53-2.79,1.57v7.39h-1.73V129.92z"/>
	<path class="st5" d="M338.29,139.04c0-3.7,1.03-6.72,2.77-9.54l1.07,0.5c-1.62,2.68-2.41,5.85-2.41,9.04s0.79,6.36,2.41,9.04
		l-1.07,0.5C339.33,145.76,338.29,142.74,338.29,139.04z"/>
	<path class="st5" d="M343.28,138.95h4.81v1.33h-4.81V138.95z"/>
	<path class="st5" d="M349.22,148.08c1.62-2.68,2.41-5.85,2.41-9.04s-0.79-6.36-2.41-9.04l1.07-0.5c1.74,2.82,2.77,5.84,2.77,9.54
		s-1.03,6.72-2.77,9.54L349.22,148.08z"/>
	<path class="st5" d="M355.25,147.43c1.18-0.52,1.9-1.45,1.89-2.6l-0.19-1.55l0.85,1.26c-0.23,0.28-0.54,0.36-0.87,0.36
		c-0.67,0-1.25-0.42-1.25-1.2c0-0.75,0.59-1.2,1.28-1.2c0.92,0,1.46,0.77,1.46,2.03c0,1.81-1.06,3.23-2.75,3.93L355.25,147.43z"/>
	<path class="st5" d="M363.56,138.13c0-4.49,1.62-6.9,4.29-6.9s4.29,2.42,4.29,6.9c0,4.49-1.62,7-4.29,7
		S363.56,142.62,363.56,138.13z M370.46,138.13c0-3.93-1.06-5.51-2.62-5.51s-2.62,1.58-2.62,5.51c0,3.93,1.06,5.61,2.62,5.61
		S370.46,142.06,370.46,138.13z"/>
	<path class="st5" d="M378.1,131.1h4.32c2.81,0,4.82,1.01,4.82,3.88c0,2.75-2.02,4.08-4.82,4.08h-2.56v5.82h-1.75V131.1z
		 M382.17,137.63c2.14,0,3.32-0.87,3.32-2.65c0-1.81-1.18-2.46-3.32-2.46h-2.31v5.11H382.17z M382.07,138.57l1.37-0.91l4.2,7.21
		h-1.99L382.07,138.57z"/>
	<path class="st5" d="M389.36,129.92h1.73v4.09l-0.06,2.1c0.95-0.92,1.99-1.69,3.39-1.69c2.15,0,3.12,1.39,3.12,3.99v6.47h-1.73
		v-6.24c0-1.9-0.57-2.71-1.93-2.71c-1.04,0-1.77,0.53-2.79,1.57v7.39h-1.73V129.92z"/>
	<path class="st5" d="M403.94,139.04c0-3.7,1.03-6.72,2.77-9.54l1.07,0.5c-1.62,2.68-2.41,5.85-2.41,9.04s0.79,6.36,2.41,9.04
		l-1.07,0.5C404.97,145.76,403.94,142.74,403.94,139.04z"/>
	<path class="st5" d="M408.92,138.95h4.81v1.33h-4.81V138.95z"/>
	<path class="st5" d="M414.86,148.08c1.62-2.68,2.41-5.85,2.41-9.04s-0.79-6.36-2.41-9.04l1.07-0.5c1.74,2.82,2.77,5.84,2.77,9.54
		s-1.03,6.72-2.77,9.54L414.86,148.08z"/>
</g>
<g>
	<path class="st5" d="M297.97,176.17h4.09c2.8,0,4.74,0.95,4.74,3.38c0,1.36-0.72,2.57-2.01,2.99v0.08c1.65,0.32,2.8,1.41,2.8,3.3
		c0,2.71-2.14,4.03-5.22,4.03h-4.4V176.17z M301.76,182.04c2.34,0,3.31-0.86,3.31-2.26c0-1.61-1.1-2.21-3.23-2.21h-2.12v4.47H301.76
		z M302.12,188.56c2.36,0,3.74-0.85,3.74-2.71c0-1.7-1.33-2.47-3.74-2.47h-2.4v5.18H302.12z"/>
	<path class="st5" d="M313.47,176.17h4.32c2.81,0,4.82,1.01,4.82,3.88c0,2.75-2.02,4.08-4.82,4.08h-2.56v5.82h-1.75V176.17z
		 M317.53,182.71c2.14,0,3.32-0.87,3.32-2.65c0-1.81-1.18-2.46-3.32-2.46h-2.31v5.11H317.53z M317.44,183.65l1.37-0.91l4.2,7.21
		h-1.99L317.44,183.65z"/>
	<path class="st5" d="M324.73,175h1.73v4.09l-0.06,2.1c0.95-0.92,1.99-1.69,3.39-1.69c2.15,0,3.12,1.39,3.12,3.99v6.47h-1.73v-6.24
		c0-1.9-0.57-2.71-1.93-2.71c-1.04,0-1.77,0.53-2.79,1.57v7.39h-1.73V175z"/>
	<path class="st5" d="M339.3,184.12c0-3.7,1.03-6.72,2.77-9.54l1.07,0.5c-1.62,2.68-2.41,5.85-2.41,9.04s0.79,6.36,2.41,9.04
		l-1.07,0.5C340.33,190.84,339.3,187.81,339.3,184.12z"/>
	<path class="st5" d="M347.94,183.67h-3.81v-1.3h3.81v-4.1h1.38v4.1h3.81v1.3h-3.81v4.1h-1.38V183.67z"/>
	<path class="st5" d="M354.13,193.15c1.62-2.68,2.41-5.85,2.41-9.04s-0.79-6.36-2.41-9.04l1.07-0.5c1.74,2.82,2.77,5.84,2.77,9.54
		s-1.03,6.72-2.77,9.54L354.13,193.15z"/>
	<path class="st5" d="M360.16,192.51c1.18-0.52,1.9-1.45,1.89-2.6l-0.19-1.55l0.85,1.26c-0.23,0.28-0.54,0.36-0.87,0.36
		c-0.67,0-1.25-0.42-1.25-1.2c0-0.75,0.59-1.2,1.28-1.2c0.92,0,1.46,0.77,1.46,2.03c0,1.81-1.06,3.23-2.75,3.93L360.16,192.51z"/>
	<path class="st5" d="M369.43,176.17h4.09c2.8,0,4.74,0.95,4.74,3.38c0,1.36-0.72,2.57-2.01,2.99v0.08c1.65,0.32,2.8,1.41,2.8,3.3
		c0,2.71-2.14,4.03-5.22,4.03h-4.4V176.17z M373.22,182.04c2.34,0,3.31-0.86,3.31-2.26c0-1.61-1.1-2.21-3.23-2.21h-2.12v4.47H373.22
		z M373.58,188.56c2.36,0,3.74-0.85,3.74-2.71c0-1.7-1.33-2.47-3.74-2.47h-2.4v5.18H373.58z"/>
	<path class="st5" d="M384.93,176.17h4.32c2.81,0,4.82,1.01,4.82,3.88c0,2.75-2.02,4.08-4.82,4.08h-2.56v5.82h-1.75V176.17z
		 M388.99,182.71c2.14,0,3.32-0.87,3.32-2.65c0-1.81-1.18-2.46-3.32-2.46h-2.31v5.11H388.99z M388.9,183.65l1.37-0.91l4.2,7.21
		h-1.99L388.9,183.65z"/>
	<path class="st5" d="M396.19,175h1.73v4.09l-0.06,2.1c0.95-0.92,1.99-1.69,3.39-1.69c2.15,0,3.12,1.39,3.12,3.99v6.47h-1.73v-6.24
		c0-1.9-0.57-2.71-1.93-2.71c-1.04,0-1.77,0.53-2.79,1.57v7.39h-1.73V175z"/>
	<path class="st5" d="M410.76,184.12c0-3.7,1.03-6.72,2.77-9.54l1.07,0.5c-1.62,2.68-2.41,5.85-2.41,9.04s0.79,6.36,2.41,9.04
		l-1.07,0.5C411.8,190.84,410.76,187.81,410.76,184.12z"/>
	<path class="st5" d="M415.75,184.03h4.81v1.33h-4.81V184.03z"/>
	<path class="st5" d="M421.69,193.15c1.62-2.68,2.41-5.85,2.41-9.04s-0.79-6.36-2.41-9.04l1.07-0.5c1.74,2.82,2.77,5.84,2.77,9.54
		s-1.03,6.72-2.77,9.54L421.69,193.15z"/>
	<path class="st5" d="M427.71,192.51c1.18-0.52,1.9-1.45,1.89-2.6l-0.19-1.55l0.85,1.26c-0.23,0.28-0.54,0.36-0.87,0.36
		c-0.67,0-1.25-0.42-1.25-1.2c0-0.75,0.59-1.2,1.28-1.2c0.92,0,1.46,0.77,1.46,2.03c0,1.81-1.06,3.23-2.75,3.93L427.71,192.51z"/>
	<path class="st5" d="M436.03,183.21c0-4.49,1.62-6.9,4.29-6.9s4.29,2.42,4.29,6.9c0,4.49-1.62,7-4.29,7S436.03,187.7,436.03,183.21
		z M442.93,183.21c0-3.93-1.06-5.51-2.62-5.51s-2.62,1.58-2.62,5.51c0,3.93,1.06,5.61,2.62,5.61S442.93,187.13,442.93,183.21z"/>
	<path class="st5" d="M450.57,176.17h4.32c2.81,0,4.82,1.01,4.82,3.88c0,2.75-2.02,4.08-4.82,4.08h-2.56v5.82h-1.75V176.17z
		 M454.64,182.71c2.14,0,3.32-0.87,3.32-2.65c0-1.81-1.18-2.46-3.32-2.46h-2.31v5.11H454.64z M454.54,183.65l1.37-0.91l4.2,7.21
		h-1.99L454.54,183.65z"/>
	<path class="st5" d="M461.83,175h1.73v4.09l-0.06,2.1c0.95-0.92,1.99-1.69,3.39-1.69c2.15,0,3.12,1.39,3.12,3.99v6.47h-1.73v-6.24
		c0-1.9-0.57-2.71-1.93-2.71c-1.04,0-1.77,0.53-2.79,1.57v7.39h-1.73V175z"/>
	<path class="st5" d="M476.41,184.12c0-3.7,1.03-6.72,2.77-9.54l1.07,0.5c-1.62,2.68-2.41,5.85-2.41,9.04s0.79,6.36,2.41,9.04
		l-1.07,0.5C477.44,190.84,476.41,187.81,476.41,184.12z"/>
	<path class="st5" d="M485.05,183.67h-3.81v-1.3h3.81v-4.1h1.38v4.1h3.81v1.3h-3.81v4.1h-1.38V183.67z"/>
	<path class="st5" d="M491.24,193.15c1.62-2.68,2.41-5.85,2.41-9.04s-0.79-6.36-2.41-9.04l1.07-0.5c1.74,2.82,2.77,5.84,2.77,9.54
		s-1.03,6.72-2.77,9.54L491.24,193.15z"/>
	<path class="st5" d="M497.27,192.51c1.18-0.52,1.9-1.45,1.89-2.6l-0.19-1.55l0.85,1.26c-0.23,0.28-0.54,0.36-0.87,0.36
		c-0.67,0-1.25-0.42-1.25-1.2c0-0.75,0.59-1.2,1.28-1.2c0.92,0,1.46,0.77,1.46,2.03c0,1.81-1.06,3.23-2.75,3.93L497.27,192.51z"/>
	<path class="st5" d="M505.58,183.21c0-4.49,1.62-6.9,4.29-6.9c2.67,0,4.29,2.42,4.29,6.9c0,4.49-1.62,7-4.29,7
		C507.2,190.21,505.58,187.7,505.58,183.21z M512.48,183.21c0-3.93-1.06-5.51-2.62-5.51c-1.56,0-2.62,1.58-2.62,5.51
		c0,3.93,1.06,5.61,2.62,5.61C511.43,188.81,512.48,187.13,512.48,183.21z"/>
	<path class="st5" d="M520.12,176.17h4.32c2.81,0,4.82,1.01,4.82,3.88c0,2.75-2.02,4.08-4.82,4.08h-2.56v5.82h-1.75V176.17z
		 M524.19,182.71c2.14,0,3.32-0.87,3.32-2.65c0-1.81-1.18-2.46-3.32-2.46h-2.31v5.11H524.19z M524.09,183.65l1.37-0.91l4.2,7.21
		h-1.99L524.09,183.65z"/>
	<path class="st5" d="M531.38,175h1.73v4.09l-0.06,2.1c0.95-0.92,1.99-1.69,3.39-1.69c2.15,0,3.12,1.39,3.12,3.99v6.47h-1.73v-6.24
		c0-1.9-0.57-2.71-1.93-2.71c-1.04,0-1.77,0.53-2.79,1.57v7.39h-1.73V175z"/>
	<path class="st5" d="M545.96,184.12c0-3.7,1.03-6.72,2.77-9.54l1.07,0.5c-1.62,2.68-2.41,5.85-2.41,9.04s0.79,6.36,2.41,9.04
		l-1.07,0.5C546.99,190.84,545.96,187.81,545.96,184.12z"/>
	<path class="st5" d="M550.94,184.03h4.81v1.33h-4.81V184.03z"/>
	<path class="st5" d="M556.88,193.15c1.62-2.68,2.41-5.85,2.41-9.04s-0.79-6.36-2.41-9.04l1.07-0.5c1.74,2.82,2.77,5.84,2.77,9.54
		s-1.03,6.72-2.77,9.54L556.88,193.15z"/>
</g>
<g>
	<path class="st5" d="M297.97,221.26h4.09c2.8,0,4.74,0.95,4.74,3.38c0,1.36-0.72,2.57-2.01,2.99v0.08c1.65,0.32,2.8,1.41,2.8,3.3
		c0,2.71-2.14,4.03-5.22,4.03h-4.4V221.26z M301.76,227.13c2.34,0,3.31-0.86,3.31-2.26c0-1.61-1.1-2.21-3.23-2.21h-2.12v4.47H301.76
		z M302.12,233.65c2.36,0,3.74-0.85,3.74-2.71c0-1.7-1.33-2.47-3.74-2.47h-2.4v5.18H302.12z"/>
	<path class="st5" d="M313.47,221.26h4.32c2.81,0,4.82,1.01,4.82,3.88c0,2.75-2.02,4.08-4.82,4.08h-2.56v5.82h-1.75V221.26z
		 M317.53,227.8c2.14,0,3.32-0.87,3.32-2.65c0-1.81-1.18-2.46-3.32-2.46h-2.31v5.11H317.53z M317.44,228.74l1.37-0.91l4.2,7.21
		h-1.99L317.44,228.74z"/>
	<path class="st5" d="M324.73,220.09h1.73v4.09l-0.06,2.1c0.95-0.92,1.99-1.69,3.39-1.69c2.15,0,3.12,1.39,3.12,3.99v6.47h-1.73
		v-6.24c0-1.9-0.57-2.71-1.93-2.71c-1.04,0-1.77,0.53-2.79,1.57v7.39h-1.73V220.09z"/>
	<path class="st5" d="M339.3,229.21c0-3.7,1.03-6.72,2.77-9.54l1.07,0.5c-1.62,2.68-2.41,5.85-2.41,9.04s0.79,6.36,2.41,9.04
		l-1.07,0.5C340.33,235.93,339.3,232.9,339.3,229.21z"/>
	<path class="st5" d="M344.29,229.12h4.81v1.33h-4.81V229.12z"/>
	<path class="st5" d="M350.22,238.25c1.62-2.68,2.41-5.85,2.41-9.04s-0.79-6.36-2.41-9.04l1.07-0.5c1.74,2.82,2.77,5.84,2.77,9.54
		s-1.03,6.72-2.77,9.54L350.22,238.25z"/>
	<path class="st5" d="M356.25,237.6c1.18-0.52,1.9-1.45,1.89-2.6l-0.19-1.55l0.85,1.26c-0.23,0.28-0.54,0.36-0.87,0.36
		c-0.67,0-1.25-0.42-1.25-1.2c0-0.75,0.59-1.2,1.28-1.2c0.92,0,1.46,0.77,1.46,2.03c0,1.81-1.06,3.23-2.75,3.93L356.25,237.6z"/>
	<path class="st5" d="M364.57,228.3c0-4.49,1.62-6.9,4.29-6.9c2.67,0,4.29,2.42,4.29,6.9c0,4.49-1.62,7-4.29,7
		C366.18,235.3,364.57,232.79,364.57,228.3z M371.47,228.3c0-3.93-1.06-5.51-2.62-5.51c-1.56,0-2.62,1.58-2.62,5.51
		c0,3.93,1.06,5.61,2.62,5.61C370.41,233.9,371.47,232.22,371.47,228.3z"/>
	<path class="st5" d="M379.11,221.26h4.32c2.81,0,4.82,1.01,4.82,3.88c0,2.75-2.02,4.08-4.82,4.08h-2.56v5.82h-1.75V221.26z
		 M383.17,227.8c2.14,0,3.32-0.87,3.32-2.65c0-1.81-1.18-2.46-3.32-2.46h-2.31v5.11H383.17z M383.08,228.74l1.37-0.91l4.2,7.21
		h-1.99L383.08,228.74z"/>
	<path class="st5" d="M390.37,220.09h1.73v4.09l-0.06,2.1c0.95-0.92,1.99-1.69,3.39-1.69c2.15,0,3.12,1.39,3.12,3.99v6.47h-1.73
		v-6.24c0-1.9-0.57-2.71-1.93-2.71c-1.04,0-1.77,0.53-2.79,1.57v7.39h-1.73V220.09z"/>
	<path class="st5" d="M404.94,229.21c0-3.7,1.03-6.72,2.77-9.54l1.07,0.5c-1.62,2.68-2.41,5.85-2.41,9.04s0.79,6.36,2.41,9.04
		l-1.07,0.5C405.98,235.93,404.94,232.9,404.94,229.21z"/>
	<path class="st5" d="M409.93,229.12h4.81v1.33h-4.81V229.12z"/>
	<path class="st5" d="M415.87,238.25c1.62-2.68,2.41-5.85,2.41-9.04s-0.79-6.36-2.41-9.04l1.07-0.5c1.74,2.82,2.77,5.84,2.77,9.54
		s-1.03,6.72-2.77,9.54L415.87,238.25z"/>
</g>
<g>
	<path class="st5" d="M300.8,267.35h1.98l4.66,13.78h-1.86l-2.4-7.7c-0.5-1.54-0.94-3.05-1.38-4.64h-0.08
		c-0.43,1.6-0.87,3.1-1.36,4.64l-2.43,7.7h-1.78L300.8,267.35z M298.59,275.54h6.35v1.4h-6.35V275.54z"/>
	<path class="st5" d="M308.68,267.35h4.09c2.8,0,4.74,0.95,4.74,3.38c0,1.36-0.72,2.57-2.01,2.99v0.08c1.65,0.32,2.8,1.41,2.8,3.3
		c0,2.71-2.14,4.03-5.22,4.03h-4.4V267.35z M312.47,273.22c2.34,0,3.31-0.86,3.31-2.26c0-1.61-1.1-2.21-3.23-2.21h-2.12v4.47H312.47
		z M312.83,279.74c2.36,0,3.74-0.85,3.74-2.71c0-1.7-1.33-2.47-3.74-2.47h-2.4v5.18H312.83z"/>
	<path class="st5" d="M323.97,267.35h4.32c2.81,0,4.82,1.01,4.82,3.88c0,2.75-2.02,4.08-4.82,4.08h-2.56v5.82h-1.75V267.35z
		 M328.03,273.89c2.14,0,3.32-0.87,3.32-2.65c0-1.81-1.18-2.46-3.32-2.46h-2.31v5.11H328.03z M327.94,274.83l1.37-0.91l4.2,7.21
		h-1.99L327.94,274.83z"/>
	<path class="st5" d="M335.12,266.18h1.73v4.09l-0.06,2.1c0.95-0.92,1.99-1.69,3.39-1.69c2.15,0,3.12,1.39,3.12,3.99v6.47h-1.73
		v-6.24c0-1.9-0.57-2.71-1.93-2.71c-1.04,0-1.77,0.53-2.79,1.57v7.39h-1.73V266.18z"/>
	<path class="st5" d="M349.48,275.3c0-3.7,1.03-6.72,2.77-9.54l1.07,0.5c-1.62,2.68-2.41,5.85-2.41,9.04s0.79,6.36,2.41,9.04
		l-1.07,0.5C350.52,282.02,349.48,278.99,349.48,275.3z"/>
	<path class="st5" d="M358.02,274.86h-3.81v-1.3h3.81v-4.1h1.38v4.1h3.81v1.3h-3.81v4.1h-1.38V274.86z"/>
	<path class="st5" d="M364.1,284.34c1.62-2.68,2.41-5.85,2.41-9.04s-0.79-6.36-2.41-9.04l1.07-0.5c1.74,2.82,2.77,5.84,2.77,9.54
		s-1.03,6.72-2.77,9.54L364.1,284.34z"/>
	<path class="st5" d="M370.03,283.69c1.18-0.52,1.9-1.45,1.89-2.6l-0.19-1.55l0.85,1.26c-0.23,0.28-0.54,0.36-0.87,0.36
		c-0.67,0-1.25-0.42-1.25-1.2c0-0.75,0.59-1.2,1.28-1.2c0.92,0,1.46,0.77,1.46,2.03c0,1.81-1.06,3.23-2.75,3.93L370.03,283.69z"/>
	<path class="st5" d="M381.92,267.35h1.98l4.66,13.78h-1.86l-2.4-7.7c-0.5-1.54-0.94-3.05-1.38-4.64h-0.08
		c-0.43,1.6-0.87,3.1-1.36,4.64l-2.43,7.7h-1.78L381.92,267.35z M379.71,275.54h6.35v1.4h-6.35V275.54z"/>
	<path class="st5" d="M389.8,267.35h4.09c2.8,0,4.74,0.95,4.74,3.38c0,1.36-0.72,2.57-2.01,2.99v0.08c1.65,0.32,2.8,1.41,2.8,3.3
		c0,2.71-2.14,4.03-5.22,4.03h-4.4V267.35z M393.59,273.22c2.34,0,3.31-0.86,3.31-2.26c0-1.61-1.1-2.21-3.23-2.21h-2.12v4.47H393.59
		z M393.95,279.74c2.36,0,3.74-0.85,3.74-2.71c0-1.7-1.33-2.47-3.74-2.47h-2.4v5.18H393.95z"/>
	<path class="st5" d="M405.09,267.35h4.32c2.81,0,4.82,1.01,4.82,3.88c0,2.75-2.02,4.08-4.82,4.08h-2.56v5.82h-1.75V267.35z
		 M409.15,273.89c2.14,0,3.32-0.87,3.32-2.65c0-1.81-1.18-2.46-3.32-2.46h-2.31v5.11H409.15z M409.06,274.83l1.37-0.91l4.2,7.21
		h-1.99L409.06,274.83z"/>
	<path class="st5" d="M416.24,266.18h1.73v4.09l-0.06,2.1c0.95-0.92,1.99-1.69,3.39-1.69c2.15,0,3.12,1.39,3.12,3.99v6.47h-1.73
		v-6.24c0-1.9-0.57-2.71-1.93-2.71c-1.04,0-1.77,0.53-2.79,1.57v7.39h-1.73V266.18z"/>
	<path class="st5" d="M430.61,275.3c0-3.7,1.03-6.72,2.77-9.54l1.07,0.5c-1.62,2.68-2.41,5.85-2.41,9.04s0.79,6.36,2.41,9.04
		l-1.07,0.5C431.64,282.02,430.61,278.99,430.61,275.3z"/>
	<path class="st5" d="M435.49,275.21h4.81v1.33h-4.81V275.21z"/>
	<path class="st5" d="M441.32,284.34c1.62-2.68,2.41-5.85,2.41-9.04s-0.79-6.36-2.41-9.04l1.07-0.5c1.74,2.82,2.77,5.84,2.77,9.54
		s-1.03,6.72-2.77,9.54L441.32,284.34z"/>
	<path class="st5" d="M447.24,283.69c1.18-0.52,1.9-1.45,1.89-2.6l-0.19-1.55l0.85,1.26c-0.23,0.28-0.54,0.36-0.87,0.36
		c-0.67,0-1.25-0.42-1.25-1.2c0-0.75,0.59-1.2,1.28-1.2c0.92,0,1.46,0.77,1.46,2.03c0,1.81-1.06,3.23-2.75,3.93L447.24,283.69z"/>
	<path class="st5" d="M459.14,267.35h1.98l4.66,13.78h-1.86l-2.4-7.7c-0.5-1.54-0.94-3.05-1.38-4.64h-0.08
		c-0.43,1.6-0.87,3.1-1.36,4.64l-2.43,7.7h-1.78L459.14,267.35z M456.93,275.54h6.35v1.4h-6.35V275.54z"/>
	<path class="st5" d="M470.58,267.35h4.32c2.81,0,4.82,1.01,4.82,3.88c0,2.75-2.02,4.08-4.82,4.08h-2.56v5.82h-1.75V267.35z
		 M474.65,273.89c2.14,0,3.32-0.87,3.32-2.65c0-1.81-1.18-2.46-3.32-2.46h-2.31v5.11H474.65z M474.55,274.83l1.37-0.91l4.2,7.21
		h-1.99L474.55,274.83z"/>
	<path class="st5" d="M481.74,266.18h1.73v4.09l-0.06,2.1c0.95-0.92,1.99-1.69,3.39-1.69c2.15,0,3.12,1.39,3.12,3.99v6.47h-1.73
		v-6.24c0-1.9-0.57-2.71-1.93-2.71c-1.04,0-1.77,0.53-2.79,1.57v7.39h-1.73V266.18z"/>
	<path class="st5" d="M496.1,275.3c0-3.7,1.03-6.72,2.77-9.54l1.07,0.5c-1.62,2.68-2.41,5.85-2.41,9.04s0.79,6.36,2.41,9.04
		l-1.07,0.5C497.14,282.02,496.1,278.99,496.1,275.3z"/>
	<path class="st5" d="M504.64,274.86h-3.81v-1.3h3.81v-4.1h1.38v4.1h3.81v1.3h-3.81v4.1h-1.38V274.86z"/>
	<path class="st5" d="M510.72,284.34c1.62-2.68,2.41-5.85,2.41-9.04s-0.79-6.36-2.41-9.04l1.07-0.5c1.74,2.82,2.77,5.84,2.77,9.54
		s-1.03,6.72-2.77,9.54L510.72,284.34z"/>
	<path class="st5" d="M516.65,283.69c1.18-0.52,1.9-1.45,1.89-2.6l-0.19-1.55l0.85,1.26c-0.23,0.28-0.54,0.36-0.87,0.36
		c-0.67,0-1.25-0.42-1.25-1.2c0-0.75,0.59-1.2,1.28-1.2c0.92,0,1.46,0.77,1.46,2.03c0,1.81-1.06,3.23-2.75,3.93L516.65,283.69z"/>
	<path class="st5" d="M528.54,267.35h1.98l4.66,13.78h-1.86l-2.4-7.7c-0.5-1.54-0.94-3.05-1.38-4.64h-0.08
		c-0.43,1.6-0.87,3.1-1.36,4.64l-2.43,7.7h-1.78L528.54,267.35z M526.33,275.54h6.35v1.4h-6.35V275.54z"/>
	<path class="st5" d="M539.99,267.35h4.32c2.81,0,4.82,1.01,4.82,3.88c0,2.75-2.02,4.08-4.82,4.08h-2.56v5.82h-1.75V267.35z
		 M544.05,273.89c2.14,0,3.32-0.87,3.32-2.65c0-1.81-1.18-2.46-3.32-2.46h-2.31v5.11H544.05z M543.96,274.83l1.37-0.91l4.2,7.21
		h-1.99L543.96,274.83z"/>
	<path class="st5" d="M551.14,266.18h1.73v4.09l-0.06,2.1c0.95-0.92,1.99-1.69,3.39-1.69c2.15,0,3.12,1.39,3.12,3.99v6.47h-1.73
		v-6.24c0-1.9-0.57-2.71-1.93-2.71c-1.04,0-1.77,0.53-2.79,1.57v7.39h-1.73V266.18z"/>
	<path class="st5" d="M565.51,275.3c0-3.7,1.03-6.72,2.77-9.54l1.07,0.5c-1.62,2.68-2.41,5.85-2.41,9.04s0.79,6.36,2.41,9.04
		l-1.07,0.5C566.54,282.02,565.51,278.99,565.51,275.3z"/>
	<path class="st5" d="M570.39,275.21h4.81v1.33h-4.81V275.21z"/>
	<path class="st5" d="M576.22,284.34c1.62-2.68,2.41-5.85,2.41-9.04s-0.79-6.36-2.41-9.04l1.07-0.5c1.74,2.82,2.77,5.84,2.77,9.54
		s-1.03,6.72-2.77,9.54L576.22,284.34z"/>
	<path class="st5" d="M582.14,283.69c1.18-0.52,1.9-1.45,1.89-2.6l-0.19-1.55l0.85,1.26c-0.23,0.28-0.54,0.36-0.87,0.36
		c-0.67,0-1.25-0.42-1.25-1.2c0-0.75,0.59-1.2,1.28-1.2c0.92,0,1.46,0.77,1.46,2.03c0,1.81-1.06,3.23-2.75,3.93L582.14,283.69z"/>
	<path class="st5" d="M591.2,267.35h4.09c2.8,0,4.74,0.95,4.74,3.38c0,1.36-0.72,2.57-2.01,2.99v0.08c1.65,0.32,2.8,1.41,2.8,3.3
		c0,2.71-2.14,4.03-5.22,4.03h-4.4V267.35z M595,273.22c2.34,0,3.31-0.86,3.31-2.26c0-1.61-1.1-2.21-3.23-2.21h-2.12v4.47H595z
		 M595.36,279.74c2.36,0,3.74-0.85,3.74-2.71c0-1.7-1.33-2.47-3.74-2.47h-2.4v5.18H595.36z"/>
	<path class="st5" d="M606.49,267.35h4.32c2.81,0,4.82,1.01,4.82,3.88c0,2.75-2.02,4.08-4.82,4.08h-2.56v5.82h-1.75V267.35z
		 M610.56,273.89c2.14,0,3.32-0.87,3.32-2.65c0-1.81-1.18-2.46-3.32-2.46h-2.31v5.11H610.56z M610.46,274.83l1.37-0.91l4.2,7.21
		h-1.99L610.46,274.83z"/>
	<path class="st5" d="M617.65,266.18h1.73v4.09l-0.06,2.1c0.95-0.92,1.99-1.69,3.39-1.69c2.15,0,3.12,1.39,3.12,3.99v6.47h-1.73
		v-6.24c0-1.9-0.57-2.71-1.93-2.71c-1.04,0-1.77,0.53-2.79,1.57v7.39h-1.73V266.18z"/>
	<path class="st5" d="M632.01,275.3c0-3.7,1.03-6.72,2.77-9.54l1.07,0.5c-1.62,2.68-2.41,5.85-2.41,9.04s0.79,6.36,2.41,9.04
		l-1.07,0.5C633.05,282.02,632.01,278.99,632.01,275.3z"/>
	<path class="st5" d="M640.55,274.86h-3.81v-1.3h3.81v-4.1h1.38v4.1h3.81v1.3h-3.81v4.1h-1.38V274.86z"/>
	<path class="st5" d="M646.63,284.34c1.62-2.68,2.41-5.85,2.41-9.04s-0.79-6.36-2.41-9.04l1.07-0.5c1.74,2.82,2.77,5.84,2.77,9.54
		s-1.03,6.72-2.77,9.54L646.63,284.34z"/>
	<path class="st5" d="M652.56,283.69c1.18-0.52,1.9-1.45,1.89-2.6l-0.19-1.55l0.85,1.26c-0.23,0.28-0.54,0.36-0.87,0.36
		c-0.67,0-1.25-0.42-1.25-1.2c0-0.75,0.59-1.2,1.28-1.2c0.92,0,1.46,0.77,1.46,2.03c0,1.81-1.06,3.23-2.75,3.93L652.56,283.69z"/>
	<path class="st5" d="M661.62,267.35h4.09c2.8,0,4.74,0.95,4.74,3.38c0,1.36-0.72,2.57-2.01,2.99v0.08c1.65,0.32,2.8,1.41,2.8,3.3
		c0,2.71-2.14,4.03-5.22,4.03h-4.4V267.35z M665.41,273.22c2.34,0,3.31-0.86,3.31-2.26c0-1.61-1.1-2.21-3.23-2.21h-2.12v4.47H665.41
		z M665.77,279.74c2.36,0,3.74-0.85,3.74-2.71c0-1.7-1.33-2.47-3.74-2.47h-2.4v5.18H665.77z"/>
	<path class="st5" d="M676.9,267.35h4.32c2.81,0,4.82,1.01,4.82,3.88c0,2.75-2.02,4.08-4.82,4.08h-2.56v5.82h-1.75V267.35z
		 M680.97,273.89c2.14,0,3.32-0.87,3.32-2.65c0-1.81-1.18-2.46-3.32-2.46h-2.31v5.11H680.97z M680.87,274.83l1.37-0.91l4.2,7.21
		h-1.99L680.87,274.83z"/>
	<path class="st5" d="M688.06,266.18h1.73v4.09l-0.06,2.1c0.95-0.92,1.99-1.69,3.39-1.69c2.15,0,3.12,1.39,3.12,3.99v6.47h-1.73
		v-6.24c0-1.9-0.57-2.71-1.93-2.71c-1.04,0-1.77,0.53-2.79,1.57v7.39h-1.73V266.18z"/>
	<path class="st5" d="M702.42,275.3c0-3.7,1.03-6.72,2.77-9.54l1.07,0.5c-1.62,2.68-2.41,5.85-2.41,9.04s0.79,6.36,2.41,9.04
		l-1.07,0.5C703.46,282.02,702.42,278.99,702.42,275.3z"/>
	<path class="st5" d="M707.31,275.21h4.81v1.33h-4.81V275.21z"/>
	<path class="st5" d="M713.14,284.34c1.62-2.68,2.41-5.85,2.41-9.04s-0.79-6.36-2.41-9.04l1.07-0.5c1.74,2.82,2.77,5.84,2.77,9.54
		s-1.03,6.72-2.77,9.54L713.14,284.34z"/>
	<path class="st5" d="M719.06,283.69c1.18-0.52,1.9-1.45,1.89-2.6l-0.19-1.55l0.85,1.26c-0.23,0.28-0.54,0.36-0.87,0.36
		c-0.67,0-1.25-0.42-1.25-1.2c0-0.75,0.59-1.2,1.28-1.2c0.92,0,1.46,0.77,1.46,2.03c0,1.81-1.06,3.23-2.75,3.93L719.06,283.69z"/>
	<path class="st5" d="M727.16,274.39c0-4.49,1.62-6.9,4.29-6.9c2.67,0,4.29,2.42,4.29,6.9c0,4.49-1.62,7-4.29,7
		C728.78,281.39,727.16,278.88,727.16,274.39z M734.07,274.39c0-3.93-1.06-5.51-2.62-5.51c-1.56,0-2.62,1.58-2.62,5.51
		c0,3.93,1.06,5.61,2.62,5.61C733.01,280,734.07,278.32,734.07,274.39z"/>
	<path class="st5" d="M741.5,267.35h4.32c2.81,0,4.82,1.01,4.82,3.88c0,2.75-2.02,4.08-4.82,4.08h-2.56v5.82h-1.75V267.35z
		 M745.56,273.89c2.14,0,3.32-0.87,3.32-2.65c0-1.81-1.18-2.46-3.32-2.46h-2.31v5.11H745.56z M745.47,274.83l1.37-0.91l4.2,7.21
		h-1.99L745.47,274.83z"/>
	<path class="st5" d="M752.66,266.18h1.73v4.09l-0.06,2.1c0.95-0.92,1.99-1.69,3.39-1.69c2.15,0,3.12,1.39,3.12,3.99v6.47h-1.73
		v-6.24c0-1.9-0.57-2.71-1.93-2.71c-1.04,0-1.77,0.53-2.79,1.57v7.39h-1.73V266.18z"/>
	<path class="st5" d="M767.02,275.3c0-3.7,1.03-6.72,2.77-9.54l1.07,0.5c-1.62,2.68-2.41,5.85-2.41,9.04s0.79,6.36,2.41,9.04
		l-1.07,0.5C768.05,282.02,767.02,278.99,767.02,275.3z"/>
	<path class="st5" d="M775.56,274.86h-3.81v-1.3h3.81v-4.1h1.38v4.1h3.81v1.3h-3.81v4.1h-1.38V274.86z"/>
	<path class="st5" d="M781.64,284.34c1.62-2.68,2.41-5.85,2.41-9.04s-0.79-6.36-2.41-9.04l1.07-0.5c1.74,2.82,2.77,5.84,2.77,9.54
		s-1.03,6.72-2.77,9.54L781.64,284.34z"/>
	<path class="st5" d="M787.56,283.69c1.18-0.52,1.9-1.45,1.89-2.6l-0.19-1.55l0.85,1.26c-0.23,0.28-0.54,0.36-0.87,0.36
		c-0.67,0-1.25-0.42-1.25-1.2c0-0.75,0.59-1.2,1.28-1.2c0.92,0,1.46,0.77,1.46,2.03c0,1.81-1.06,3.23-2.75,3.93L787.56,283.69z"/>
	<path class="st5" d="M795.66,274.39c0-4.49,1.62-6.9,4.29-6.9s4.29,2.42,4.29,6.9c0,4.49-1.62,7-4.29,7
		S795.66,278.88,795.66,274.39z M802.57,274.39c0-3.93-1.06-5.51-2.62-5.51s-2.62,1.58-2.62,5.51c0,3.93,1.06,5.61,2.62,5.61
		S802.57,278.32,802.57,274.39z"/>
	<path class="st5" d="M810,267.35h4.32c2.81,0,4.82,1.01,4.82,3.88c0,2.75-2.02,4.08-4.82,4.08h-2.56v5.82H810V267.35z
		 M814.06,273.89c2.14,0,3.32-0.87,3.32-2.65c0-1.81-1.18-2.46-3.32-2.46h-2.31v5.11H814.06z M813.97,274.83l1.37-0.91l4.2,7.21
		h-1.99L813.97,274.83z"/>
	<path class="st5" d="M821.16,266.18h1.73v4.09l-0.06,2.1c0.95-0.92,1.99-1.69,3.39-1.69c2.15,0,3.12,1.39,3.12,3.99v6.47h-1.73
		v-6.24c0-1.9-0.57-2.71-1.93-2.71c-1.04,0-1.77,0.53-2.79,1.57v7.39h-1.73V266.18z"/>
	<path class="st5" d="M835.52,275.3c0-3.7,1.03-6.72,2.77-9.54l1.07,0.5c-1.62,2.68-2.41,5.85-2.41,9.04s0.79,6.36,2.41,9.04
		l-1.07,0.5C836.55,282.02,835.52,278.99,835.52,275.3z"/>
	<path class="st5" d="M840.4,275.21h4.81v1.33h-4.81V275.21z"/>
	<path class="st5" d="M846.23,284.34c1.62-2.68,2.41-5.85,2.41-9.04s-0.79-6.36-2.41-9.04l1.07-0.5c1.74,2.82,2.77,5.84,2.77,9.54
		s-1.03,6.72-2.77,9.54L846.23,284.34z"/>
</g>
<g>
	<path class="st5" d="M300.8,312.44h1.98l4.66,13.78h-1.86l-2.4-7.7c-0.5-1.54-0.94-3.05-1.38-4.64h-0.08
		c-0.43,1.6-0.87,3.1-1.36,4.64l-2.43,7.7h-1.78L300.8,312.44z M298.59,320.63h6.35v1.4h-6.35V320.63z"/>
	<path class="st5" d="M308.78,312.44h4.09c2.8,0,4.74,0.95,4.74,3.38c0,1.36-0.72,2.57-2.01,2.99v0.08c1.65,0.32,2.8,1.41,2.8,3.3
		c0,2.71-2.14,4.03-5.22,4.03h-4.4V312.44z M312.58,318.31c2.34,0,3.31-0.86,3.31-2.26c0-1.61-1.1-2.21-3.23-2.21h-2.12v4.47H312.58
		z M312.94,324.83c2.36,0,3.74-0.85,3.74-2.71c0-1.7-1.33-2.47-3.74-2.47h-2.4v5.18H312.94z"/>
	<path class="st5" d="M324.28,312.44h4.32c2.81,0,4.82,1.01,4.82,3.88c0,2.75-2.02,4.08-4.82,4.08h-2.56v5.82h-1.75V312.44z
		 M328.34,318.98c2.14,0,3.32-0.87,3.32-2.65c0-1.81-1.18-2.46-3.32-2.46h-2.31v5.11H328.34z M328.25,319.92l1.37-0.91l4.2,7.21
		h-1.99L328.25,319.92z"/>
	<path class="st5" d="M335.54,311.27h1.73v4.09l-0.06,2.1c0.95-0.92,1.99-1.69,3.39-1.69c2.15,0,3.12,1.39,3.12,3.99v6.47h-1.73
		v-6.24c0-1.9-0.57-2.71-1.93-2.71c-1.04,0-1.77,0.53-2.79,1.57v7.39h-1.73V311.27z"/>
	<path class="st5" d="M350.11,320.39c0-3.7,1.03-6.72,2.77-9.54l1.07,0.5c-1.62,2.68-2.41,5.85-2.41,9.04s0.79,6.36,2.41,9.04
		l-1.07,0.5C351.15,327.11,350.11,324.08,350.11,320.39z"/>
	<path class="st5" d="M355.1,320.3h4.81v1.33h-4.81V320.3z"/>
	<path class="st5" d="M361.04,329.43c1.62-2.68,2.41-5.85,2.41-9.04s-0.79-6.36-2.41-9.04l1.07-0.5c1.74,2.82,2.77,5.84,2.77,9.54
		s-1.03,6.72-2.77,9.54L361.04,329.43z"/>
	<path class="st5" d="M367.07,328.78c1.18-0.52,1.9-1.45,1.89-2.6l-0.19-1.55l0.85,1.26c-0.23,0.28-0.54,0.36-0.87,0.36
		c-0.67,0-1.25-0.42-1.25-1.2c0-0.75,0.59-1.2,1.28-1.2c0.92,0,1.46,0.77,1.46,2.03c0,1.81-1.06,3.23-2.75,3.93L367.07,328.78z"/>
	<path class="st5" d="M379.17,312.44h1.98l4.66,13.78h-1.86l-2.4-7.7c-0.5-1.54-0.94-3.05-1.38-4.64h-0.08
		c-0.43,1.6-0.87,3.1-1.36,4.64l-2.43,7.7h-1.78L379.17,312.44z M376.96,320.63h6.35v1.4h-6.35V320.63z"/>
	<path class="st5" d="M390.83,312.44h4.32c2.81,0,4.82,1.01,4.82,3.88c0,2.75-2.02,4.08-4.82,4.08h-2.56v5.82h-1.75V312.44z
		 M394.89,318.98c2.14,0,3.32-0.87,3.32-2.65c0-1.81-1.18-2.46-3.32-2.46h-2.31v5.11H394.89z M394.8,319.92l1.37-0.91l4.2,7.21
		h-1.99L394.8,319.92z"/>
	<path class="st5" d="M402.09,311.27h1.73v4.09l-0.06,2.1c0.95-0.92,1.99-1.69,3.39-1.69c2.15,0,3.12,1.39,3.12,3.99v6.47h-1.73
		v-6.24c0-1.9-0.57-2.71-1.93-2.71c-1.04,0-1.77,0.53-2.79,1.57v7.39h-1.73V311.27z"/>
	<path class="st5" d="M416.66,320.39c0-3.7,1.03-6.72,2.77-9.54l1.07,0.5c-1.62,2.68-2.41,5.85-2.41,9.04s0.79,6.36,2.41,9.04
		l-1.07,0.5C417.7,327.11,416.66,324.08,416.66,320.39z"/>
	<path class="st5" d="M421.65,320.3h4.81v1.33h-4.81V320.3z"/>
	<path class="st5" d="M427.58,329.43c1.62-2.68,2.41-5.85,2.41-9.04s-0.79-6.36-2.41-9.04l1.07-0.5c1.74,2.82,2.77,5.84,2.77,9.54
		s-1.03,6.72-2.77,9.54L427.58,329.43z"/>
	<path class="st5" d="M433.62,328.78c1.18-0.52,1.9-1.45,1.89-2.6l-0.19-1.55l0.85,1.26c-0.23,0.28-0.54,0.36-0.87,0.36
		c-0.67,0-1.25-0.42-1.25-1.2c0-0.75,0.59-1.2,1.28-1.2c0.92,0,1.46,0.77,1.46,2.03c0,1.81-1.06,3.23-2.75,3.93L433.62,328.78z"/>
	<path class="st5" d="M442.89,312.44h4.09c2.8,0,4.74,0.95,4.74,3.38c0,1.36-0.72,2.57-2.01,2.99v0.08c1.65,0.32,2.8,1.41,2.8,3.3
		c0,2.71-2.14,4.03-5.22,4.03h-4.4V312.44z M446.68,318.31c2.34,0,3.31-0.86,3.31-2.26c0-1.61-1.1-2.21-3.23-2.21h-2.12v4.47H446.68
		z M447.04,324.83c2.36,0,3.74-0.85,3.74-2.71c0-1.7-1.33-2.47-3.74-2.47h-2.4v5.18H447.04z"/>
	<path class="st5" d="M458.38,312.44h4.32c2.81,0,4.82,1.01,4.82,3.88c0,2.75-2.02,4.08-4.82,4.08h-2.56v5.82h-1.75V312.44z
		 M462.45,318.98c2.14,0,3.32-0.87,3.32-2.65c0-1.81-1.18-2.46-3.32-2.46h-2.31v5.11H462.45z M462.35,319.92l1.37-0.91l4.2,7.21
		h-1.99L462.35,319.92z"/>
	<path class="st5" d="M469.65,311.27h1.73v4.09l-0.06,2.1c0.95-0.92,1.99-1.69,3.39-1.69c2.15,0,3.12,1.39,3.12,3.99v6.47h-1.73
		v-6.24c0-1.9-0.57-2.71-1.93-2.71c-1.04,0-1.77,0.53-2.79,1.57v7.39h-1.73V311.27z"/>
	<path class="st5" d="M484.22,320.39c0-3.7,1.03-6.72,2.77-9.54l1.07,0.5c-1.62,2.68-2.41,5.85-2.41,9.04s0.79,6.36,2.41,9.04
		l-1.07,0.5C485.25,327.11,484.22,324.08,484.22,320.39z"/>
	<path class="st5" d="M489.21,320.3h4.81v1.33h-4.81V320.3z"/>
	<path class="st5" d="M495.14,329.43c1.62-2.68,2.41-5.85,2.41-9.04s-0.79-6.36-2.41-9.04l1.07-0.5c1.74,2.82,2.77,5.84,2.77,9.54
		s-1.03,6.72-2.77,9.54L495.14,329.43z"/>
	<path class="st5" d="M501.17,328.78c1.18-0.52,1.9-1.45,1.89-2.6l-0.19-1.55l0.85,1.26c-0.23,0.28-0.54,0.36-0.87,0.36
		c-0.67,0-1.25-0.42-1.25-1.2c0-0.75,0.59-1.2,1.28-1.2c0.92,0,1.46,0.77,1.46,2.03c0,1.81-1.06,3.23-2.75,3.93L501.17,328.78z"/>
	<path class="st5" d="M509.48,319.48c0-4.49,1.62-6.9,4.29-6.9c2.67,0,4.29,2.42,4.29,6.9c0,4.49-1.62,7-4.29,7
		C511.1,326.48,509.48,323.97,509.48,319.48z M516.39,319.48c0-3.93-1.06-5.51-2.62-5.51c-1.56,0-2.62,1.58-2.62,5.51
		c0,3.93,1.06,5.61,2.62,5.61C515.33,325.09,516.39,323.41,516.39,319.48z"/>
	<path class="st5" d="M524.03,312.44h4.32c2.81,0,4.82,1.01,4.82,3.88c0,2.75-2.02,4.08-4.82,4.08h-2.56v5.82h-1.75V312.44z
		 M528.09,318.98c2.14,0,3.32-0.87,3.32-2.65c0-1.81-1.18-2.46-3.32-2.46h-2.31v5.11H528.09z M528,319.92l1.37-0.91l4.2,7.21h-1.99
		L528,319.92z"/>
	<path class="st5" d="M535.29,311.27h1.73v4.09l-0.06,2.1c0.95-0.92,1.99-1.69,3.39-1.69c2.15,0,3.12,1.39,3.12,3.99v6.47h-1.73
		v-6.24c0-1.9-0.57-2.71-1.93-2.71c-1.04,0-1.77,0.53-2.79,1.57v7.39h-1.73V311.27z"/>
	<path class="st5" d="M549.86,320.39c0-3.7,1.03-6.72,2.77-9.54l1.07,0.5c-1.62,2.68-2.41,5.85-2.41,9.04s0.79,6.36,2.41,9.04
		l-1.07,0.5C550.89,327.11,549.86,324.08,549.86,320.39z"/>
	<path class="st5" d="M554.85,320.3h4.81v1.33h-4.81V320.3z"/>
	<path class="st5" d="M560.78,329.43c1.62-2.68,2.41-5.85,2.41-9.04s-0.79-6.36-2.41-9.04l1.07-0.5c1.74,2.82,2.77,5.84,2.77,9.54
		s-1.03,6.72-2.77,9.54L560.78,329.43z"/>
</g>
<g>
	<path class="st5" d="M297.01,365.57c0-4.49,1.62-6.9,4.29-6.9s4.29,2.42,4.29,6.9c0,4.49-1.62,7-4.29,7
		S297.01,370.06,297.01,365.57z M303.92,365.57c0-3.93-1.06-5.51-2.62-5.51s-2.62,1.58-2.62,5.51c0,3.93,1.06,5.61,2.62,5.61
		S303.92,369.5,303.92,365.57z"/>
	<path class="st5" d="M312.19,358.54h4.32c2.81,0,4.82,1.01,4.82,3.88c0,2.75-2.02,4.08-4.82,4.08h-2.56v5.82h-1.75V358.54z
		 M316.25,365.07c2.14,0,3.32-0.87,3.32-2.65c0-1.81-1.18-2.46-3.32-2.46h-2.31v5.11H316.25z M316.16,366.01l1.37-0.91l4.2,7.21
		h-1.99L316.16,366.01z"/>
	<path class="st5" d="M323.76,357.36h1.73v4.09l-0.06,2.1c0.95-0.92,1.99-1.69,3.39-1.69c2.15,0,3.12,1.39,3.12,3.99v6.47h-1.73
		v-6.24c0-1.9-0.57-2.71-1.93-2.71c-1.04,0-1.77,0.53-2.79,1.57v7.39h-1.73V357.36z"/>
	<path class="st5" d="M338.96,366.48c0-3.7,1.03-6.72,2.77-9.54l1.07,0.5c-1.62,2.68-2.41,5.85-2.41,9.04s0.79,6.36,2.41,9.04
		l-1.07,0.5C340,373.2,338.96,370.17,338.96,366.48z"/>
	<path class="st5" d="M347.92,366.04h-3.81v-1.3h3.81v-4.1h1.38v4.1h3.81v1.3h-3.81v4.1h-1.38V366.04z"/>
	<path class="st5" d="M354.42,375.52c1.62-2.68,2.41-5.85,2.41-9.04s-0.79-6.36-2.41-9.04l1.07-0.5c1.74,2.82,2.77,5.84,2.77,9.54
		s-1.03,6.72-2.77,9.54L354.42,375.52z"/>
	<path class="st5" d="M360.77,374.87c1.18-0.52,1.9-1.45,1.89-2.6l-0.19-1.55l0.85,1.26c-0.23,0.28-0.54,0.36-0.87,0.36
		c-0.67,0-1.25-0.42-1.25-1.2c0-0.75,0.59-1.2,1.28-1.2c0.92,0,1.46,0.77,1.46,2.03c0,1.81-1.06,3.23-2.75,3.93L360.77,374.87z"/>
	<path class="st5" d="M369.71,365.57c0-4.49,1.62-6.9,4.29-6.9s4.29,2.42,4.29,6.9c0,4.49-1.62,7-4.29,7
		S369.71,370.06,369.71,365.57z M376.62,365.57c0-3.93-1.06-5.51-2.62-5.51s-2.62,1.58-2.62,5.51c0,3.93,1.06,5.61,2.62,5.61
		S376.62,369.5,376.62,365.57z"/>
	<path class="st5" d="M384.89,358.54h4.32c2.81,0,4.82,1.01,4.82,3.88c0,2.75-2.02,4.08-4.82,4.08h-2.56v5.82h-1.75V358.54z
		 M388.95,365.07c2.14,0,3.32-0.87,3.32-2.65c0-1.81-1.18-2.46-3.32-2.46h-2.31v5.11H388.95z M388.86,366.01l1.37-0.91l4.2,7.21
		h-1.99L388.86,366.01z"/>
	<path class="st5" d="M396.46,357.36h1.73v4.09l-0.06,2.1c0.95-0.92,1.99-1.69,3.39-1.69c2.15,0,3.12,1.39,3.12,3.99v6.47h-1.73
		v-6.24c0-1.9-0.57-2.71-1.93-2.71c-1.04,0-1.77,0.53-2.79,1.57v7.39h-1.73V357.36z"/>
	<path class="st5" d="M411.66,366.48c0-3.7,1.03-6.72,2.77-9.54l1.07,0.5c-1.62,2.68-2.41,5.85-2.41,9.04s0.79,6.36,2.41,9.04
		l-1.07,0.5C412.7,373.2,411.66,370.17,411.66,366.48z"/>
	<path class="st5" d="M416.97,366.39h4.81v1.33h-4.81V366.39z"/>
	<path class="st5" d="M423.22,375.52c1.62-2.68,2.41-5.85,2.41-9.04s-0.79-6.36-2.41-9.04l1.07-0.5c1.74,2.82,2.77,5.84,2.77,9.54
		s-1.03,6.72-2.77,9.54L423.22,375.52z"/>
</g>
<g>
	<path class="st5" d="M297.01,412.66c0-4.49,1.62-6.9,4.29-6.9c2.67,0,4.29,2.42,4.29,6.9c0,4.49-1.62,7-4.29,7
		C298.63,419.66,297.01,417.15,297.01,412.66z M303.92,412.66c0-3.93-1.06-5.51-2.62-5.51c-1.56,0-2.62,1.58-2.62,5.51
		c0,3.93,1.06,5.61,2.62,5.61C302.86,418.27,303.92,416.59,303.92,412.66z"/>
	<path class="st5" d="M311.97,405.63h4.32c2.81,0,4.82,1.01,4.82,3.88c0,2.75-2.02,4.08-4.82,4.08h-2.56v5.82h-1.75V405.63z
		 M316.04,412.16c2.14,0,3.32-0.87,3.32-2.65c0-1.81-1.18-2.46-3.32-2.46h-2.31v5.11H316.04z M315.94,413.1l1.37-0.91l4.2,7.21
		h-1.99L315.94,413.1z"/>
	<path class="st5" d="M323.45,404.45h1.73v4.09l-0.06,2.1c0.95-0.92,1.99-1.69,3.39-1.69c2.15,0,3.12,1.39,3.12,3.99v6.47h-1.73
		v-6.24c0-1.9-0.57-2.71-1.93-2.71c-1.04,0-1.77,0.53-2.79,1.57v7.39h-1.73V404.45z"/>
	<path class="st5" d="M338.44,413.57c0-3.7,1.03-6.72,2.77-9.54l1.07,0.5c-1.62,2.68-2.41,5.85-2.41,9.04s0.79,6.36,2.41,9.04
		l-1.07,0.5C339.47,420.29,338.44,417.26,338.44,413.57z"/>
	<path class="st5" d="M343.64,413.48h4.81v1.33h-4.81V413.48z"/>
	<path class="st5" d="M349.78,422.61c1.62-2.68,2.41-5.85,2.41-9.04s-0.79-6.36-2.41-9.04l1.07-0.5c1.74,2.82,2.77,5.84,2.77,9.54
		s-1.03,6.72-2.77,9.54L349.78,422.61z"/>
</g>
<g>
	<path class="st6" d="M21.18,29.62h3.13v8.02h0.09l6.28-8.02h3.48l-5.43,6.89l6.35,10.76h-3.46l-4.77-8.3l-2.54,3.15v5.15h-3.13
		V29.62z"/>
	<path class="st6" d="M35.95,34.02h2.55l0.24,2.36h0.09c0.94-1.73,2.35-2.69,3.77-2.69c0.67,0,1.1,0.09,1.5,0.27l-0.54,2.7
		c-0.46-0.13-0.81-0.22-1.36-0.22c-1.06,0-2.33,0.72-3.13,2.74v8.09h-3.11V34.02z"/>
	<path class="st6" d="M43.72,34.02h3.15l2.11,6.88c0.37,1.31,0.76,2.67,1.12,4h0.11c0.37-1.33,0.76-2.69,1.12-4l2.11-6.88h3
		l-4.5,13.26h-3.6L43.72,34.02z"/>
	<path class="st6" d="M57.66,34.02h2.55l0.24,1.79h0.09c1.19-1.16,2.54-2.12,4.35-2.12c2.84,0,4.08,1.92,4.08,5.27v8.31h-3.11v-7.91
		c0-2.18-0.63-3-2.06-3c-1.17,0-1.93,0.57-3.02,1.65v9.26h-3.11V34.02z"/>
	<path class="st6" d="M70.98,43.71c0-2.84,2.35-4.32,7.8-4.9c-0.04-1.43-0.62-2.61-2.41-2.61c-1.32,0-2.56,0.59-3.72,1.31
		l-1.14-2.07c1.46-0.92,3.34-1.74,5.44-1.74c3.31,0,4.95,2.04,4.95,5.73v7.85h-2.55l-0.24-1.47h-0.09
		c-1.19,1.01-2.55,1.79-4.11,1.79C72.58,47.6,70.98,46.03,70.98,43.71z M78.78,43.73v-2.98c-3.6,0.45-4.79,1.39-4.79,2.73
		c0,1.17,0.8,1.68,1.91,1.68C76.98,45.16,77.8,44.63,78.78,43.73z"/>
	<path class="st6" d="M87.96,49.69c0-1.12,0.69-2.09,1.91-2.83v-0.11c-0.68-0.44-1.2-1.14-1.2-2.21c0-1.03,0.7-1.93,1.47-2.47v-0.11
		c-0.91-0.67-1.75-1.93-1.75-3.5c0-3.04,2.46-4.76,5.24-4.76c0.73,0,1.43,0.13,1.97,0.32h4.74v2.31h-2.42
		c0.43,0.5,0.76,1.32,0.76,2.22c0,2.95-2.24,4.52-5.04,4.52c-0.56,0-1.2-0.12-1.79-0.35c-0.4,0.34-0.65,0.67-0.65,1.27
		c0,0.75,0.54,1.2,2.15,1.2h2.36c3.17,0,4.85,0.98,4.85,3.27c0,2.61-2.74,4.68-7.07,4.68C90.31,53.14,87.96,52.01,87.96,49.69z
		 M97.55,48.97c0-1.03-0.82-1.33-2.34-1.33h-1.82c-0.71,0-1.29-0.05-1.79-0.18c-0.71,0.54-1.03,1.13-1.03,1.75
		c0,1.21,1.3,1.91,3.38,1.91C96.09,51.12,97.55,50.12,97.55,48.97z M95.93,38.46c0-1.66-1-2.61-2.3-2.61c-1.3,0-2.3,0.94-2.3,2.61
		c0,1.68,1.03,2.67,2.3,2.67S95.93,40.14,95.93,38.46z"/>
	<path class="st6" d="M101.83,34.02h2.55l0.24,2.36h0.09c0.94-1.73,2.35-2.69,3.77-2.69c0.67,0,1.1,0.09,1.5,0.27l-0.54,2.7
		c-0.46-0.13-0.81-0.22-1.36-0.22c-1.06,0-2.33,0.72-3.13,2.74v8.09h-3.11V34.02z"/>
	<path class="st6" d="M110.67,42.33v-8.31h3.11v7.91c0,2.18,0.63,3,2.06,3c1.17,0,1.93-0.54,2.94-1.84v-9.08h3.11v13.26h-2.55
		l-0.24-1.95h-0.09c-1.17,1.38-2.45,2.28-4.26,2.28C111.91,47.6,110.67,45.68,110.67,42.33z"/>
	<path class="st6" d="M124.75,34.02h2.55l0.24,1.41h0.09c1.12-0.96,2.54-1.74,3.99-1.74c3.31,0,5.22,2.66,5.22,6.75
		c0,4.53-2.71,7.16-5.66,7.16c-1.18,0-2.33-0.53-3.41-1.46l0.1,2.2v4.18h-3.11V34.02z M133.64,40.48c0-2.65-0.86-4.21-2.88-4.21
		c-0.96,0-1.87,0.49-2.89,1.49v6.18c0.95,0.81,1.89,1.1,2.66,1.1C132.29,45.03,133.64,43.48,133.64,40.48z"/>
	<path class="st6" d="M137.86,43.71c0-2.84,2.35-4.32,7.8-4.9c-0.04-1.43-0.62-2.61-2.41-2.61c-1.32,0-2.56,0.59-3.73,1.31
		l-1.14-2.07c1.46-0.92,3.34-1.74,5.44-1.74c3.31,0,4.95,2.04,4.95,5.73v7.85h-2.55l-0.24-1.47h-0.09
		c-1.19,1.01-2.55,1.79-4.11,1.79C139.46,47.6,137.86,46.03,137.86,43.71z M145.66,43.73v-2.98c-3.6,0.45-4.79,1.39-4.79,2.73
		c0,1.17,0.8,1.68,1.91,1.68C143.85,45.16,144.67,44.63,145.66,43.73z"/>
	<path class="st6" d="M155.39,29.94c0-1.05,0.82-1.76,1.92-1.76c1.1,0,1.92,0.71,1.92,1.76c0,1.03-0.82,1.76-1.92,1.76
		C156.21,31.7,155.39,30.96,155.39,29.94z M155.75,34.02h3.11v13.26h-3.11V34.02z"/>
	<path class="st6" d="M166.33,29.62h5.95c3.67,0,6.5,1.3,6.5,5.24c0,3.79-2.83,5.52-6.5,5.52h-2.82v6.9h-3.13V29.62z M171.95,37.87
		c2.42,0,3.74-1,3.74-3.01c0-2.03-1.32-2.73-3.74-2.73h-2.49v5.74H171.95z M171.69,39.54l2.27-1.87l5.51,9.6h-3.52L171.69,39.54z"/>
	<path class="st6" d="M180.96,28.21h3.11v4.93l-0.13,2.56c1.11-1.05,2.43-2.01,4.24-2.01c2.84,0,4.08,1.92,4.08,5.27v8.31h-3.11
		v-7.91c0-2.18-0.63-3-2.06-3c-1.17,0-1.93,0.57-3.02,1.65v9.26h-3.11V28.21z"/>
	<path class="st6" d="M198.02,34.16l1.94-0.14h5.54v2.47h-7.48V34.16z M199.8,32.65c0-2.75,1.26-4.76,4.39-4.76
		c0.96,0,1.84,0.23,2.43,0.46l-0.59,2.32c-0.48-0.21-0.98-0.31-1.44-0.31c-1.1,0-1.68,0.7-1.68,2.23v14.68h-3.11V32.65z"/>
	<path class="st6" d="M205.5,43.71c0-2.84,2.35-4.32,7.8-4.9c-0.04-1.43-0.62-2.61-2.41-2.61c-1.32,0-2.56,0.59-3.73,1.31
		l-1.14-2.07c1.46-0.92,3.34-1.74,5.44-1.74c3.31,0,4.95,2.04,4.95,5.73v7.85h-2.55l-0.24-1.47h-0.09
		c-1.19,1.01-2.55,1.79-4.11,1.79C207.09,47.6,205.5,46.03,205.5,43.71z M213.29,43.73v-2.98c-3.6,0.45-4.79,1.39-4.79,2.73
		c0,1.17,0.8,1.68,1.91,1.68C211.49,45.16,212.31,44.63,213.29,43.73z"/>
	<path class="st6" d="M219.06,28.21h3.04v11.91h0.09l4.91-6.1h3.4l-4.55,5.4l5.01,7.86h-3.38l-3.41-5.75l-2.07,2.39v3.37h-3.04
		V28.21z"/>
	<path class="st6" d="M231.78,42.81v-6.32h-1.89v-2.33l2.05-0.14l0.37-3.62h2.58v3.62h3.38v2.47h-3.38v6.31
		c0,1.56,0.6,2.33,1.88,2.33c0.45,0,0.99-0.15,1.38-0.3l0.53,2.29c-0.72,0.24-1.65,0.49-2.71,0.49
		C232.91,47.6,231.78,45.67,231.78,42.81z"/>
	<path class="st6" d="M238.68,40.66c0-4.42,3-6.96,6.31-6.96c3.3,0,6.31,2.55,6.31,6.96c0,4.39-3,6.94-6.31,6.94
		C241.68,47.6,238.68,45.05,238.68,40.66z M248.09,40.66c0-2.66-1.17-4.43-3.11-4.43s-3.11,1.77-3.11,4.43s1.17,4.41,3.11,4.41
		S248.09,43.32,248.09,40.66z"/>
	<path class="st6" d="M253.3,34.02h2.55l0.24,2.36h0.09c0.94-1.73,2.35-2.69,3.77-2.69c0.67,0,1.1,0.09,1.5,0.27l-0.54,2.7
		c-0.46-0.13-0.81-0.22-1.36-0.22c-1.06,0-2.33,0.72-3.13,2.74v8.09h-3.11V34.02z"/>
</g>
<g>
	<path class="st6" d="M298.41,29.67h3.25v8.32h0.09l6.52-8.32h3.61l-5.63,7.15l6.59,11.17h-3.58l-4.95-8.61l-2.63,3.27v5.34h-3.25
		V29.67z"/>
	<path class="st6" d="M313.61,41.12c0-4.58,3.11-7.22,6.54-7.22s6.54,2.64,6.54,7.22c0,4.56-3.11,7.2-6.54,7.2
		S313.61,45.68,313.61,41.12z M323.37,41.12c0-2.75-1.21-4.59-3.23-4.59s-3.23,1.84-3.23,4.59c0,2.76,1.21,4.57,3.23,4.57
		S323.37,43.87,323.37,41.12z"/>
	<path class="st6" d="M329.89,34.23h2.64l0.25,1.88h0.09c1.16-1.22,2.5-2.21,4.22-2.21c2.02,0,3.16,0.92,3.8,2.46
		c1.32-1.4,2.68-2.46,4.42-2.46c2.9,0,4.24,1.99,4.24,5.47v8.62h-3.23v-8.21c0-2.26-0.67-3.11-2.12-3.11
		c-0.87,0-1.81,0.56-2.88,1.71v9.61h-3.23v-8.21c0-2.26-0.67-3.11-2.12-3.11c-0.85,0-1.81,0.56-2.88,1.71v9.61h-3.23V34.23z"/>
	<path class="st6" d="M353.49,34.23h2.64l0.25,1.47h0.09c1.16-1,2.63-1.8,4.14-1.8c3.44,0,5.41,2.75,5.41,7
		c0,4.7-2.81,7.43-5.87,7.43c-1.22,0-2.42-0.55-3.54-1.51l0.1,2.28v4.33h-3.23V34.23z M362.71,40.93c0-2.74-0.9-4.37-2.99-4.37
		c-1,0-1.94,0.5-3,1.55v6.41c0.99,0.84,1.96,1.14,2.75,1.14C361.31,45.65,362.71,44.04,362.71,40.93z"/>
	<path class="st6" d="M368.21,44.29c0-2.95,2.44-4.48,8.09-5.08c-0.04-1.48-0.64-2.71-2.5-2.71c-1.37,0-2.65,0.62-3.86,1.36
		l-1.19-2.15c1.51-0.95,3.46-1.8,5.64-1.8c3.44,0,5.13,2.12,5.13,5.95v8.14h-2.64l-0.25-1.52h-0.09c-1.23,1.05-2.64,1.86-4.27,1.86
		C369.86,48.32,368.21,46.68,368.21,44.29z M376.29,44.3v-3.09c-3.73,0.47-4.97,1.44-4.97,2.83c0,1.22,0.83,1.75,1.98,1.75
		C374.42,45.79,375.27,45.24,376.29,44.3z"/>
	<path class="st6" d="M383.43,43.35v-6.55h-1.96v-2.42l2.13-0.15l0.38-3.75h2.68v3.75h3.51v2.56h-3.51v6.55
		c0,1.62,0.63,2.41,1.95,2.41c0.47,0,1.03-0.16,1.43-0.31l0.55,2.37c-0.75,0.25-1.71,0.5-2.81,0.5
		C384.6,48.32,383.43,46.31,383.43,43.35z"/>
	<path class="st6" d="M392.69,30c0-1.09,0.85-1.83,1.99-1.83c1.14,0,1.99,0.74,1.99,1.83c0,1.06-0.85,1.83-1.99,1.83
		C393.54,31.82,392.69,31.06,392.69,30z M393.05,34.23h3.23v13.75h-3.23V34.23z"/>
	<path class="st6" d="M403.3,46.54h-0.09l-0.28,1.44h-2.54V28.2h3.23v5.12l-0.09,2.28c1.15-1.01,2.56-1.71,3.97-1.71
		c3.44,0,5.43,2.75,5.43,6.98c0,4.72-2.81,7.44-5.87,7.44C405.8,48.32,404.46,47.68,403.3,46.54z M409.61,40.93
		c0-2.74-0.9-4.37-2.99-4.37c-1,0-1.96,0.5-3,1.55v6.41c0.96,0.84,1.96,1.14,2.75,1.14C408.21,45.65,409.61,44.04,409.61,40.93z"/>
	<path class="st6" d="M415.78,30c0-1.09,0.85-1.83,1.99-1.83c1.14,0,1.99,0.74,1.99,1.83c0,1.06-0.85,1.83-1.99,1.83
		C416.64,31.82,415.78,31.06,415.78,30z M416.15,34.23h3.23v13.75h-3.23V34.23z"/>
	<path class="st6" d="M423.49,44.44V28.2h3.23v16.41c0,0.79,0.36,1.08,0.69,1.08c0.15,0,0.26,0,0.5-0.06l0.4,2.41
		c-0.39,0.16-0.93,0.28-1.7,0.28C424.33,48.32,423.49,46.84,423.49,44.44z"/>
	<path class="st6" d="M431.08,34.23h2.64l0.25,1.86h0.09c1.23-1.2,2.63-2.19,4.51-2.19c2.95,0,4.23,1.99,4.23,5.47v8.62h-3.23v-8.21
		c0-2.26-0.65-3.11-2.14-3.11c-1.21,0-2,0.59-3.14,1.71v9.61h-3.23V34.23z"/>
	<path class="st6" d="M446.02,44.29c0-2.95,2.44-4.48,8.09-5.08c-0.04-1.48-0.64-2.71-2.5-2.71c-1.37,0-2.65,0.62-3.86,1.36
		l-1.19-2.15c1.51-0.95,3.46-1.8,5.64-1.8c3.44,0,5.13,2.12,5.13,5.95v8.14h-2.64l-0.25-1.52h-0.09c-1.23,1.05-2.64,1.86-4.27,1.86
		C447.68,48.32,446.02,46.68,446.02,44.29z M454.1,44.3v-3.09c-3.73,0.47-4.97,1.44-4.97,2.83c0,1.22,0.83,1.75,1.98,1.75
		C452.23,45.79,453.09,45.24,454.1,44.3z"/>
	<path class="st6" d="M466.81,28.2h3.16v12.35h0.09l5.1-6.33h3.53l-4.71,5.6l5.2,8.15h-3.51l-3.54-5.97l-2.15,2.48v3.49h-3.16V28.2z
		"/>
	<path class="st6" d="M481.42,34.23h2.64l0.25,2.45h0.09c0.98-1.79,2.44-2.79,3.91-2.79c0.7,0,1.14,0.09,1.56,0.28l-0.56,2.8
		c-0.48-0.13-0.84-0.22-1.41-0.22c-1.1,0-2.42,0.75-3.25,2.84v8.39h-3.23V34.23z"/>
	<path class="st6" d="M490.6,34.23h3.27l2.18,7.13c0.38,1.35,0.78,2.77,1.16,4.14h0.11c0.38-1.38,0.78-2.79,1.16-4.14l2.18-7.13
		h3.11l-4.67,13.75h-3.73L490.6,34.23z"/>
	<path class="st6" d="M506.17,34.23h2.64l0.25,1.86h0.09c1.23-1.2,2.63-2.19,4.51-2.19c2.95,0,4.23,1.99,4.23,5.47v8.62h-3.23v-8.21
		c0-2.26-0.65-3.11-2.14-3.11c-1.21,0-2,0.59-3.14,1.71v9.61h-3.23V34.23z"/>
	<path class="st6" d="M521.11,44.29c0-2.95,2.44-4.48,8.09-5.08c-0.04-1.48-0.64-2.71-2.5-2.71c-1.37,0-2.65,0.62-3.86,1.36
		l-1.19-2.15c1.51-0.95,3.46-1.8,5.64-1.8c3.44,0,5.13,2.12,5.13,5.95v8.14h-2.64l-0.25-1.52h-0.09c-1.23,1.05-2.64,1.86-4.27,1.86
		C522.77,48.32,521.11,46.68,521.11,44.29z M529.2,44.3v-3.09c-3.73,0.47-4.97,1.44-4.97,2.83c0,1.22,0.83,1.75,1.98,1.75
		C527.33,45.79,528.18,45.24,529.2,44.3z"/>
	<path class="st6" d="M540.96,50.48c0-1.16,0.72-2.17,1.98-2.93v-0.11c-0.71-0.46-1.24-1.19-1.24-2.3c0-1.06,0.73-2,1.52-2.56v-0.11
		c-0.94-0.69-1.81-2-1.81-3.63c0-3.16,2.55-4.94,5.43-4.94c0.76,0,1.48,0.13,2.04,0.34h4.92v2.4h-2.51
		c0.45,0.52,0.78,1.37,0.78,2.31c0,3.06-2.32,4.69-5.23,4.69c-0.58,0-1.24-0.12-1.86-0.36c-0.41,0.35-0.67,0.7-0.67,1.32
		c0,0.77,0.56,1.24,2.23,1.24h2.45c3.29,0,5.03,1.02,5.03,3.39c0,2.71-2.84,4.85-7.34,4.85C543.4,54.07,540.96,52.89,540.96,50.48z
		 M550.9,49.74c0-1.06-0.85-1.38-2.42-1.38h-1.89c-0.74,0-1.33-0.06-1.86-0.19c-0.74,0.56-1.06,1.18-1.06,1.81
		c0,1.25,1.34,1.98,3.51,1.98C549.39,51.97,550.9,50.93,550.9,49.74z M549.23,38.83c0-1.72-1.04-2.71-2.39-2.71
		c-1.34,0-2.39,0.97-2.39,2.71c0,1.75,1.06,2.77,2.39,2.77S549.23,40.58,549.23,38.83z"/>
	<path class="st6" d="M556.46,34.23h2.64l0.25,2.45h0.09c0.98-1.79,2.44-2.79,3.91-2.79c0.7,0,1.14,0.09,1.56,0.28l-0.56,2.8
		c-0.48-0.13-0.84-0.22-1.41-0.22c-1.1,0-2.42,0.75-3.25,2.84v8.39h-3.23V34.23z"/>
	<path class="st6" d="M566.75,42.85v-8.62h3.23v8.21c0,2.26,0.65,3.11,2.14,3.11c1.21,0,2-0.56,3.05-1.9v-9.42h3.23v13.75h-2.64
		l-0.25-2.03h-0.09c-1.21,1.43-2.54,2.36-4.42,2.36C568.03,48.32,566.75,46.33,566.75,42.85z"/>
	<path class="st6" d="M582.47,34.23h2.64l0.25,1.47h0.09c1.16-1,2.63-1.8,4.14-1.8c3.44,0,5.41,2.75,5.41,7
		c0,4.7-2.81,7.43-5.87,7.43c-1.22,0-2.42-0.55-3.54-1.51l0.1,2.28v4.33h-3.23V34.23z M591.69,40.93c0-2.74-0.9-4.37-2.99-4.37
		c-1,0-1.94,0.5-3,1.55v6.41c0.99,0.84,1.96,1.14,2.75,1.14C590.29,45.65,591.69,44.04,591.69,40.93z"/>
	<path class="st6" d="M597.19,44.29c0-2.95,2.44-4.48,8.09-5.08c-0.04-1.48-0.64-2.71-2.5-2.71c-1.37,0-2.65,0.62-3.86,1.36
		l-1.19-2.15c1.51-0.95,3.46-1.8,5.64-1.8c3.44,0,5.13,2.12,5.13,5.95v8.14h-2.64l-0.25-1.52h-0.09c-1.23,1.05-2.64,1.86-4.27,1.86
		C598.85,48.32,597.19,46.68,597.19,44.29z M605.27,44.3v-3.09c-3.73,0.47-4.97,1.44-4.97,2.83c0,1.22,0.83,1.75,1.98,1.75
		C603.4,45.79,604.26,45.24,605.27,44.3z"/>
	<path class="st6" d="M617.61,30c0-1.09,0.85-1.83,1.99-1.83c1.14,0,1.99,0.74,1.99,1.83c0,1.06-0.85,1.83-1.99,1.83
		C618.46,31.82,617.61,31.06,617.61,30z M617.98,34.23h3.23v13.75h-3.23V34.23z"/>
	<path class="st6" d="M631.19,29.67h6.17c3.81,0,6.74,1.34,6.74,5.43c0,3.94-2.93,5.72-6.74,5.72h-2.92v7.16h-3.25V29.67z
		 M637.03,38.23c2.51,0,3.88-1.04,3.88-3.12c0-2.11-1.37-2.83-3.88-2.83h-2.59v5.96H637.03z M636.75,39.96l2.35-1.94l5.72,9.96
		h-3.65L636.75,39.96z"/>
	<path class="st6" d="M647.49,28.2h3.23v5.12l-0.13,2.65c1.15-1.09,2.52-2.08,4.4-2.08c2.95,0,4.23,1.99,4.23,5.47v8.62h-3.23v-8.21
		c0-2.26-0.65-3.11-2.14-3.11c-1.21,0-2,0.59-3.14,1.71v9.61h-3.23V28.2z"/>
	<path class="st6" d="M667.41,34.38l2.02-0.15h5.75v2.56h-7.76V34.38z M669.26,32.81c0-2.85,1.31-4.94,4.56-4.94
		c1,0,1.9,0.24,2.52,0.48l-0.62,2.41c-0.49-0.21-1.02-0.32-1.49-0.32c-1.14,0-1.75,0.72-1.75,2.32v15.23h-3.23V32.81z"/>
	<path class="st6" d="M676.29,44.29c0-2.95,2.44-4.48,8.09-5.08c-0.04-1.48-0.64-2.71-2.5-2.71c-1.37,0-2.65,0.62-3.86,1.36
		l-1.19-2.15c1.51-0.95,3.46-1.8,5.64-1.8c3.44,0,5.13,2.12,5.13,5.95v8.14h-2.64l-0.25-1.52h-0.09c-1.23,1.05-2.64,1.86-4.27,1.86
		C677.95,48.32,676.29,46.68,676.29,44.29z M684.37,44.3v-3.09c-3.73,0.47-4.97,1.44-4.97,2.83c0,1.22,0.83,1.75,1.98,1.75
		C682.5,45.79,683.35,45.24,684.37,44.3z"/>
	<path class="st6" d="M691.47,28.2h3.16v12.35h0.09l5.1-6.33h3.53l-4.71,5.6l5.2,8.15h-3.51l-3.54-5.97l-2.15,2.48v3.49h-3.16V28.2z
		"/>
	<path class="st6" d="M705.79,43.35v-6.55h-1.96v-2.42l2.13-0.15l0.38-3.75h2.68v3.75h3.51v2.56h-3.51v6.55
		c0,1.62,0.63,2.41,1.95,2.41c0.47,0,1.03-0.16,1.43-0.31l0.55,2.37c-0.75,0.25-1.71,0.5-2.81,0.5
		C706.96,48.32,705.79,46.31,705.79,43.35z"/>
	<path class="st6" d="M714.06,41.12c0-4.58,3.11-7.22,6.54-7.22s6.54,2.64,6.54,7.22c0,4.56-3.11,7.2-6.54,7.2
		S714.06,45.68,714.06,41.12z M723.83,41.12c0-2.75-1.21-4.59-3.23-4.59s-3.23,1.84-3.23,4.59c0,2.76,1.21,4.57,3.23,4.57
		S723.83,43.87,723.83,41.12z"/>
	<path class="st6" d="M730.34,34.23h2.64l0.25,2.45h0.09c0.98-1.79,2.44-2.79,3.91-2.79c0.7,0,1.14,0.09,1.56,0.28l-0.56,2.8
		c-0.48-0.13-0.84-0.22-1.41-0.22c-1.1,0-2.42,0.75-3.25,2.84v8.39h-3.23V34.23z"/>
</g>
<rect x="-505.29" y="-441.23" class="st7" width="212.18" height="149.6"/>
</svg>
