<svg xmlns="http://www.w3.org/2000/svg" width="15.659" height="18.8" viewBox="0 0 15.659 18.8">
  <g id="icon_terapija" transform="translate(-15.1 -8.1)">
    <path id="Compound_Path" data-name="Compound Path" d="M28.964,8.1H16.895A1.8,1.8,0,0,0,15.1,9.895v2.042a1.8,1.8,0,0,0,1.077,1.638V24.432A2.468,2.468,0,0,0,18.645,26.9h8.57a2.468,2.468,0,0,0,2.468-2.468V13.6a1.8,1.8,0,0,0,1.077-1.638V9.895A1.8,1.8,0,0,0,28.964,8.1ZM16.424,9.895a.449.449,0,0,1,.449-.449H28.964a.449.449,0,0,1,.449.449v2.042a.449.449,0,0,1-.314.426H16.76a.449.449,0,0,1-.314-.426ZM27.192,25.532H18.645a1.122,1.122,0,0,1-1.122-1.122V13.753H28.336V24.432a1.122,1.122,0,0,1-1.122,1.122Z" transform="translate(0)" fill="#1d88e5"/>
  </g>
</svg>
