<?xml version="1.0" encoding="UTF-8"?>
<svg width="38px" height="34px" viewBox="0 0 38 34" version="1.1" xmlns="http://www.w3.org/2000/svg" xmlns:xlink="http://www.w3.org/1999/xlink">
    <!-- Generator: sketchtool 52.6 (67491) - http://www.bohemiancoding.com/sketch -->
    <title>817F8223-C68D-4A62-9BB4-DF6D908402AA</title>
    <desc>Created with sketchtool.</desc>
    <g id="Main_nav" stroke="none" stroke-width="1" fill="none" fill-rule="evenodd">
        <g id="Grupe-Analiza" transform="translate(-188.000000, -4273.000000)" fill="#FF9600" stroke="#FF9600" stroke-linecap="round" stroke-linejoin="round" stroke-width="0.5">
            <g id="tiroidna" transform="translate(188.000000, 4274.000000)">
                <path d="M28.2361111,24.4196444 L28.2361111,13.9265778 C31.6007156,10.6823911 33.9014889,6.41228889 34.6897778,1.68044444 L34.8250198,0.872268889 L33.5237309,0.656209333 L33.3884889,1.46438489 C32.6199178,6.06914044 30.3356111,10.214096 26.9909778,13.299696 L26.9167596,13.299696 L26.9167596,13.3656682 C25.3993773,14.7510638 23.6676329,15.9220971 21.7626929,16.8193193 L20.8308484,17.2580504 L17.1512662,17.2580504 C14.8851151,16.3080504 12.841644,14.9589238 11.0818218,13.3228127 L11.0834727,13.2997213 L11.0587304,13.2997213 C7.674366,10.141288 5.36210822,5.890988 4.65953044,1.20685467 L4.47975667,0.007828 L3.17348556,0.202447111 L3.35325933,1.40147378 C4.07399267,6.20256267 6.37810156,10.5780516 9.76428156,13.8967182 L9.76428156,24.4193404 C9.76428156,26.507356 8.35414378,28.3430516 6.33701933,28.8822293 L0.358353511,30.4754427 L0.698111511,31.7503427 L6.67677733,30.1571293 C9.27112178,29.4627849 11.0839329,27.1042516 11.0839329,24.4191293 L11.0839329,15.0808404 C12.7777618,16.4943138 14.6859951,17.6702449 16.770844,18.5279049 C16.8500107,18.5608931 16.9357724,18.5773851 17.0215384,18.5773851 L20.9798718,18.5773851 C21.0771813,18.5773851 21.17284,18.5559447 21.2602527,18.5147104 L22.3240416,18.0133216 C23.9881882,17.2298882 25.5269771,16.250206 26.9173971,15.1105438 L26.9173971,24.4175882 C26.9173971,27.1026682 28.7299971,29.4610327 31.3245527,30.1538993 L37.3032193,31.7471127 L37.6429773,30.4722127 L31.6643107,28.8789993 C29.6472284,28.3429882 28.2370484,26.5072927 28.2370484,24.4194882 L28.2361111,24.4196444 Z" id="Fill-118"></path>
                <path d="M22.3347111,8.55337778 C22.9845533,8.55337778 23.6178867,8.29608822 24.0846111,7.82935111 L23.15112,6.89586 C22.888882,7.158098 22.5144933,7.276848 22.1466956,7.21747511 L19.4055444,6.76063067 C19.1350562,6.71609889 18.8629044,6.71609889 18.5924289,6.76063067 L15.8529244,7.21747511 C15.4867776,7.276848 15.1107422,7.15810222 14.8485,6.89586 L13.9150089,7.82935111 C14.4790556,8.39175111 15.2839378,8.6507 16.0706644,8.52040222 L18.8118156,8.06355778 C18.9371607,8.043764 19.0658076,8.043764 19.1911569,8.06355778 L21.932308,8.52040222 C22.0642524,8.54184267 22.1994944,8.55338622 22.3347407,8.55338622 L22.3347111,8.55337778 Z" id="Fill-119"></path>
                <path d="M17.3854222,9.063 L17.9758578,10.2439133 C18.6174244,9.92394911 19.3843489,9.92394911 20.0243111,10.2439133 L20.6147467,9.063 C19.6037356,8.55831778 18.3964333,8.55831778 17.3854222,9.063 Z" id="Fill-120"></path>
                <path d="M17.0176667,29.7928444 L17.6872689,29.7928444 C18.1655622,29.7928444 18.62076,29.644408 19.0001267,29.3673289 C19.379468,29.6444122 19.8346911,29.7928444 20.3129844,29.7928444 L20.9825867,29.7928444 C22.0645311,29.7928444 22.9897889,29.02098 23.1827444,27.9555022 L24.1195711,22.8065022 C24.2515156,22.0841222 24.0206107,21.3435867 23.5011,20.8240422 C22.8677667,20.1907089 21.92106,19.9961067 21.0898311,20.32924 L19.0001689,21.1654511 L16.9121533,20.32924 C16.0792356,19.997728 15.1342178,20.1906962 14.5008844,20.8240422 C13.98134,21.3435867 13.7504689,22.0841222 13.8824133,22.8065022 L14.81924,27.9555022 C15.0105573,29.0209378 15.9358067,29.7928444 17.0177511,29.7928444 L17.0176667,29.7928444 Z M15.4326867,21.7575333 C15.693278,21.4985929 16.0808822,21.4177753 16.4222911,21.5546682 L18.75604,22.4881593 C18.9127224,22.550834 19.0891987,22.550834 19.2459022,22.4881593 L21.5780044,21.5546682 C21.9177624,21.4177753 22.3070133,21.4985929 22.5676089,21.7575333 C22.7803709,21.9702953 22.8760296,22.2737844 22.8216009,22.5706489 L21.8847742,27.7196489 C21.8056076,28.1567333 21.4262831,28.4734 20.982612,28.4734 L20.3130098,28.4734 C20.0672638,28.4734 19.8380098,28.3777413 19.6648142,28.2045627 L19.4668976,28.006646 C19.3382507,27.8779991 19.1683738,27.8136778 19.0001309,27.8136778 C18.831888,27.8136778 18.6620238,27.8779991 18.5333642,28.006646 L18.3354476,28.2045627 C18.1622689,28.3777413 17.9313682,28.4734 17.687252,28.4734 L17.0176498,28.4734 C16.5739787,28.4734 16.1946542,28.1567333 16.1154876,27.7196489 L15.1786609,22.5706489 C15.1242322,22.2754227 15.2198951,21.9719378 15.4326529,21.7575333 L15.4326867,21.7575333 Z" id="Fill-121"></path>
                <polygon id="Fill-122" points="19.6595111 24.5154889 20.9789556 24.5154889 20.9789556 23.1960444 19.6595111 23.1960444"></polygon>
                <polygon id="Fill-123" points="17.0206222 24.5154889 18.3400667 24.5154889 18.3400667 23.1960444 17.0206222 23.1960444"></polygon>
                <polygon id="Fill-124" points="19.6595111 27.1543778 20.9789556 27.1543778 20.9789556 25.8349333 19.6595111 25.8349333"></polygon>
                <polygon id="Fill-125" points="17.0206222 27.1543778 18.3400667 27.1543778 18.3400667 25.8349333 17.0206222 25.8349333"></polygon>
            </g>
        </g>
        <g id="Page"></g>
    </g>
</svg>