<?xml version="1.0" encoding="UTF-8"?>
<svg width="24px" height="36px" viewBox="0 0 24 36" version="1.1" xmlns="http://www.w3.org/2000/svg" xmlns:xlink="http://www.w3.org/1999/xlink">
    <!-- Generator: sketchtool 52.6 (67491) - http://www.bohemiancoding.com/sketch -->
    <title>72DEFE2B-262E-446C-89B5-9A88CFBEC296</title>
    <desc>Created with sketchtool.</desc>
    <g id="Main_nav" stroke="none" stroke-width="1" fill="none" fill-rule="evenodd">
        <g id="Grupe-Analiza" transform="translate(-195.000000, -5058.000000)" fill="#FF4F4F" fill-rule="nonzero">
            <g id="torch" transform="translate(195.000000, 5058.000000)">
                <g id="Group">
                    <path d="M24,28.5103448 C24,30.2068966 23.337931,31.6551724 22.1793103,32.8137931 C20.1517241,34.7586207 16.0551724,35.6689655 12.0413793,35.6689655 C8.02758621,35.6689655 3.93103448,34.8 1.94482759,32.8137931 C0.786206897,31.6551724 0.124137931,30.2068966 0.124137931,28.5103448 C0.124137931,24.9517241 1.28275862,21.1034483 3.22758621,18.0827586 C4.17931034,16.5931034 5.29655172,15.4344828 6.53793103,14.5241379 C6.74482759,14.2758621 6.86896552,14.0689655 6.86896552,13.737931 C6.95172414,13.3241379 6.7862069,12.9103448 6.53793103,12.5793103 C5.37931034,11.2965517 4.59310345,9.51724138 4.59310345,7.57241379 C4.59310345,3.47586207 7.90344828,0.165517241 12,0.165517241 L12.0413793,0.165517241 C12.0827586,0.165517241 12.0827586,0.165517241 12.1241379,0.165517241 C16.262069,0.165517241 19.5310345,3.51724138 19.5310345,7.57241379 C19.5310345,9.51724138 18.7448276,11.2965517 17.5862069,12.5793103 C17.337931,12.9103448 17.2137931,13.3241379 17.2551724,13.737931 C17.2551724,14.0689655 17.3793103,14.2758621 17.5862069,14.5241379 C18.8275862,15.4344828 19.9448276,16.5931034 20.8965517,18.0827586 C22.8,21.062069 24,24.9517241 24,28.5103448 Z M20.5655172,31.1172414 C21.2689655,30.3724138 21.6,29.5448276 21.6,28.5103448 C21.6,20.0689655 16.0551724,14.937931 12,14.937931 C7.9862069,14.937931 2.44137931,20.0689655 2.44137931,28.5103448 C2.44137931,29.5448276 2.77241379,30.3724138 3.47586207,31.1172414 C4.96551724,32.5241379 8.48275862,33.1862069 12,33.1862069 C15.5586207,33.1862069 19.0758621,32.4827586 20.5655172,31.1172414 Z M17.1724138,7.48965517 C17.1724138,4.63448276 14.8965517,2.31724138 12,2.31724138 C9.10344828,2.31724138 6.86896552,4.63448276 6.86896552,7.48965517 C6.86896552,10.3448276 9.1862069,12.662069 12,12.662069 C14.8551724,12.662069 17.1724138,10.3862069 17.1724138,7.48965517 Z" id="Shape"></path>
                    <path d="M17.9586207,24.4551724 C18.662069,25.2827586 18.8689655,26.4 18.4965517,27.5586207 C18.2068966,28.4689655 17.4206897,29.2137931 16.262069,29.7103448 C14.4,30.4965517 12.1241379,30.3310345 10.137931,29.337931 C8.02758621,28.262069 5.62758621,25.862069 5.37931034,23.7103448 C5.25517241,22.6758621 5.5862069,21.8068966 6.4137931,21.062069 C6.95172414,20.6068966 7.57241379,20.3586207 8.19310345,20.3586207 C8.85517241,20.3586207 9.55862069,20.6068966 10.2206897,21.1448276 C10.4689655,21.3103448 10.6758621,21.5586207 10.9655172,21.7655172 C11.8758621,22.5931034 12.9517241,23.5862069 14.4,23.5862069 C14.5655172,23.5862069 14.7724138,23.5862069 14.9793103,23.5448276 C16.137931,23.2965517 17.2551724,23.6689655 17.9586207,24.4551724 Z M9.55862069,23.6689655 C9.93103448,22.8827586 9.6,21.8896552 8.77241379,21.5172414 C7.9862069,21.1448276 6.99310345,21.4758621 6.62068966,22.3034483 C6.28965517,23.0896552 6.62068966,24.0413793 7.44827586,24.4137931 C8.23448276,24.8275862 9.1862069,24.4551724 9.55862069,23.6689655 Z" id="Shape"></path>
                </g>
            </g>
        </g>
        <g id="Page"></g>
    </g>
</svg>