<?xml version="1.0" encoding="UTF-8"?>
<svg width="24px" height="40px" viewBox="0 0 24 40" version="1.1" xmlns="http://www.w3.org/2000/svg" xmlns:xlink="http://www.w3.org/1999/xlink">
    <!-- Generator: sketchtool 52.6 (67491) - http://www.bohemiancoding.com/sketch -->
    <title>00D31ACC-748B-4485-A4A9-33D6A6C89001</title>
    <desc>Created with sketchtool.</desc>
    <g id="Main_nav" stroke="none" stroke-width="1" fill="none" fill-rule="evenodd">
        <g id="Grupe-Analiza" transform="translate(-195.000000, -4364.000000)" fill="#F43B3B">
            <g id="transfuzioloske" transform="translate(195.000000, 4364.000000)">
                <path d="M9.80712329,10.1627397 L6.55369863,10.1627397 C5.7189589,10.1627397 5.04471233,10.8369863 5.04471233,11.671726 C5.04471233,12.5064658 5.7189589,13.1807123 6.55369863,13.1807123 L9.79643836,13.1807123 C10.6311781,13.1807123 11.3054247,12.5064658 11.3054247,11.671726 C11.3054247,10.8369863 10.6419178,10.1627397 9.80712329,10.1627397 Z" id="Fill-1"></path>
                <path d="M9.80712329,15.1391781 L6.55369863,15.1391781 C5.7189589,15.1391781 5.04471233,15.8134247 5.04471233,16.6481644 C5.04471233,17.4829041 5.7189589,18.1571507 6.55369863,18.1571507 L9.79643836,18.1571507 C10.6311781,18.1571507 11.3054247,17.4829041 11.3054247,16.6481644 C11.3054247,15.8134247 10.6419178,15.1391781 9.80712329,15.1391781 Z" id="Fill-2"></path>
                <path d="M9.80712329,20.1156164 L6.55369863,20.1156164 C5.7189589,20.1156164 5.04471233,20.789863 5.04471233,21.6246027 C5.04471233,22.4593425 5.7189589,23.133589 6.55369863,23.133589 L9.79643836,23.133589 C10.6311781,23.133589 11.3054247,22.4593425 11.3054247,21.6246027 C11.316126,20.789863 10.6419178,20.1156164 9.80712329,20.1156164 Z" id="Fill-3"></path>
                <path d="M13.4034521,0.00657534247 L10.3963288,0.0175342466 L6.38306849,0.0175342466 C3.05473973,0.0175342466 0.34690411,2.72515068 0.34690411,6.05369863 L0.34690411,24.2471233 C0.34690411,27.5754521 3.05452055,30.2832877 6.38306849,30.2832877 L10.3963288,30.2832877 L10.3963288,38.0849304 C10.3963288,38.9196701 11.0705753,39.5939167 11.9053151,39.5939167 C12.7400548,39.5939167 13.4143014,38.9196701 13.4143014,38.0849304 L13.4143014,30.2832877 L15.0089315,30.2832877 L15.0089315,31.2571507 C15.0089315,32.0918904 15.6831781,32.766137 16.5179178,32.766137 C17.3526575,32.766137 18.0269041,32.0918904 18.0269041,31.2571507 L18.0269041,30.2511781 C21.0769863,29.9515178 23.4635616,27.3723288 23.4635616,24.2363836 L23.4635616,6.0429589 C23.4528603,2.72531507 20.7345205,0.00679452055 17.4060274,0.00679452055 L13.4034521,0.00657534247 Z M20.4241096,24.2361644 C20.4241096,25.9056986 19.0649315,27.254137 17.406137,27.254137 L6.37216438,27.254137 C4.70263014,27.254137 3.35419178,25.8949589 3.35419178,24.2361644 L3.35419178,6.04273973 C3.35419178,4.37320548 4.71336986,3.02476712 6.37216438,3.02476712 L17.406137,3.02476712 C19.0756712,3.02476712 20.4241096,4.38394521 20.4241096,6.04273973 L20.4241096,24.2361644 Z" id="Fill-4"></path>
            </g>
        </g>
        <g id="Page"></g>
    </g>
</svg>