<?xml version="1.0" encoding="UTF-8"?>
<svg width="40px" height="40px" viewBox="0 0 40 40" version="1.1" xmlns="http://www.w3.org/2000/svg" xmlns:xlink="http://www.w3.org/1999/xlink">
    <!-- Generator: sketchtool 52.6 (67491) - http://www.bohemiancoding.com/sketch -->
    <title>533B56F8-F8A0-4992-9AA8-6CAD82F0161B</title>
    <desc>Created with sketchtool.</desc>
    <g id="Main_nav" stroke="none" stroke-width="1" fill="none" fill-rule="evenodd">
        <g id="Grupe-Analiza" transform="translate(-186.000000, -3792.000000)" fill="#3ADCF6">
            <path d="M206,3792 C194.972,3792 186,3800.972 186,3812 C186,3823.028 194.972,3832 206,3832 C217.028,3832 226,3823.028 226,3812 C226,3800.972 217.028,3792 206,3792 Z M206,3830 C196.0752,3830 188,3821.9248 188,3812 C188,3806.986 190.06248,3802.4452 193.3828,3799.178 C193.634364,3801.23112 194.70936,3804.4404 198.6468,3807.1156 C199.14992,3807.45779 199.62024,3808.23592 199.95304,3809.04528 C199.13272,3808.73434 198.28272,3808.68122 197.44368,3808.90934 C196.64836,3809.12497 195.92336,3809.58278 195.31712,3810.13902 C194.7218,3809.80934 193.99836,3809.71402 193.26868,3809.89527 C192.16088,3810.17027 191.28276,3811.01403 190.9796,3812.09683 C190.626476,3813.35775 190.853036,3814.76715 191.5874,3815.86715 C192.07176,3816.59215 192.9702,3817.47183 194.5796,3817.88747 C194.549912,3818.07966 194.528036,3818.26872 194.5171,3818.44839 C194.201476,3823.41079 196.3999,3826.61719 200.7079,3827.47799 C201.44542,3827.62487 202.20322,3827.69362 202.96882,3827.69362 C208.18602,3827.69362 213.76402,3824.49206 215.67362,3821.09522 C217.88142,3817.16398 217.45018,3815.55442 216.7127,3814.00002 C216.584576,3813.7297 216.479888,3813.50938 216.431452,3813.29222 C216.539264,3813.07972 216.947092,3812.63754 217.251772,3812.30786 C218.298652,3811.1735 219.883012,3809.45942 220.006452,3806.93746 C220.153328,3803.93122 218.765812,3801.02666 216.473652,3799.53746 C214.359572,3798.16558 211.712852,3798.15778 209.022052,3799.51714 C207.323612,3800.3765 206.165812,3801.73278 205.584532,3803.54834 C204.911092,3805.6499 205.153292,3807.94514 205.559532,3809.67034 C204.509532,3809.83597 203.401732,3810.3297 202.437652,3811.06566 C202.445464,3809.4563 201.409532,3806.57366 199.768892,3805.45926 C194.904892,3802.15614 195.275292,3798.03126 195.345292,3797.50446 C198.329652,3795.3029 202.015692,3793.99978 206.000092,3793.99978 C215.924892,3793.99978 224.000092,3802.07498 224.000092,3811.99978 C224.000092,3821.92458 215.924892,3829.99978 206.000092,3829.99978 L206,3830 Z M206.41408,3812.2092 C206.565644,3812.49982 206.73908,3812.74356 206.92188,3812.95452 C205.6422,3813.44516 204.27812,3814.12952 203.71252,3814.97172 C203.404708,3815.42952 203.52502,3816.0514 203.984396,3816.35924 C204.156272,3816.47486 204.35002,3816.52955 204.542196,3816.52955 C204.864072,3816.52955 205.179716,3816.37486 205.371876,3816.08735 C205.768752,3815.49671 208.010956,3814.59359 209.856276,3814.12171 C210.126588,3814.0514 210.342196,3813.87796 210.471916,3813.65295 C210.653164,3813.4217 210.73598,3813.11543 210.664104,3812.80763 C210.53754,3812.27011 210.000024,3811.93575 209.460984,3812.06387 C209.453172,3812.06543 208.682864,3812.23418 208.185984,3811.28263 C207.898484,3810.73575 206.550064,3807.09503 207.490664,3804.16063 C207.909424,3802.85595 208.704744,3801.92155 209.925024,3801.30439 C211.982824,3800.26375 213.870344,3800.23407 215.384224,3801.21689 C217.063904,3802.30753 218.120144,3804.56845 218.009224,3806.84169 C217.92016,3808.63857 216.735784,3809.92137 215.782664,3810.95249 C214.979544,3811.82125 214.287344,3812.57125 214.438904,3813.52281 C214.52328,3814.05093 214.726404,3814.48061 214.906104,3814.85873 C215.351424,3815.79781 215.812344,3816.76809 213.931104,3820.11793 C212.329544,3822.96949 206.396704,3826.57433 201.101504,3825.51953 C197.807744,3824.86173 196.263904,3822.52577 196.515504,3818.57753 C196.585816,3817.47285 197.187384,3815.85097 197.913944,3814.80409 C198.229568,3814.34941 198.117068,3813.72753 197.66238,3813.41189 C197.20926,3813.09627 196.58582,3813.20877 196.27018,3813.66189 C195.81238,3814.32125 195.4077,3815.13065 195.09986,3815.95409 C194.27174,3815.74159 193.63738,3815.33533 193.24986,3814.75721 C192.76078,3814.02597 192.75142,3813.18377 192.904548,3812.63689 C193.035796,3812.16813 193.426428,3811.91657 193.748308,3811.83689 C193.79206,3811.82595 193.877996,3811.80877 193.98112,3811.8072 C193.887368,3811.97283 193.80612,3812.13533 193.735808,3812.29312 C193.513932,3812.79936 193.74362,3813.38844 194.249888,3813.61032 C194.756128,3813.8322 195.345208,3813.60251 195.567088,3813.09624 C195.876464,3812.39156 196.801448,3811.15716 197.967088,3810.84 C198.624888,3810.66188 199.268648,3810.80876 199.935848,3811.29156 C200.221784,3811.49781 200.953048,3812.03376 199.999912,3814.08376 C199.985848,3814.11345 199.970224,3814.14314 199.95616,3814.17439 C199.91866,3814.25251 199.884284,3814.32908 199.842096,3814.41189 C199.809284,3814.47595 199.784284,3814.54314 199.767096,3814.61032 C199.398344,3815.5228 199.129576,3816.6072 199.043656,3817.89 C198.94678,3819.34936 199.585856,3820.10248 200.140536,3820.47592 C200.688976,3820.84624 201.388976,3820.9884 202.142096,3820.9884 C204.326456,3820.9884 206.952896,3819.78996 207.600096,3819.47904 C208.096976,3819.23842 208.306336,3818.64152 208.065736,3818.14468 C207.826672,3817.6478 207.229816,3817.43844 206.731376,3817.67748 C204.976696,3818.52124 202.100176,3819.38684 201.257776,3818.81968 C201.193712,3818.77593 200.99684,3818.64312 201.039024,3818.02436 C201.221836,3815.26968 202.420264,3813.69636 203.392144,3812.85876 C204.392144,3811.9994 205.432784,3811.66656 206.153064,3811.61968 C206.257752,3811.8775 206.348376,3812.08376 206.414,3812.20876 L206.41408,3812.2092 Z" id="trudnoca"></path>
        </g>
        <g id="Page"></g>
    </g>
</svg>