<?xml version="1.0" encoding="UTF-8"?>
<svg width="40px" height="30px" viewBox="0 0 40 30" version="1.1" xmlns="http://www.w3.org/2000/svg" xmlns:xlink="http://www.w3.org/1999/xlink">
    <!-- Generator: sketchtool 52.6 (67491) - http://www.bohemiancoding.com/sketch -->
    <title>A3B634C7-9671-468D-8C18-1E4BB453132E</title>
    <desc>Created with sketchtool.</desc>
    <g id="Main_nav" stroke="none" stroke-width="1" fill="none" fill-rule="evenodd">
        <g id="Grupe-Analiza" transform="translate(-187.000000, -4440.000000)" fill="#042A37">
            <g id="tumor" transform="translate(187.000000, 4440.000000)">
                <path d="M24.7046961,0.0718204492 C21.4913917,1.67847262 17.6546961,1.67847262 14.442957,0.0718204492 C14.1440439,-0.0776360725 13.7806091,0.012376971 13.586957,0.284116101 L0,19.3058552 L1.10565217,20.0955944 L14.3630439,1.53559436 C17.6646961,3.00129001 21.4826091,3.00129001 24.7860874,1.53559436 L38.0434787,20.0955944 L39.1491309,19.3058552 L25.5621743,0.284116101 C25.3668613,0.014076971 25.0051309,-0.0776360725 24.7044787,0.0718204492 L24.7046961,0.0718204492 Z" id="Fill-118"></path>
                <path d="M37,20.9153913 L37.9137391,21.9208261 C38.255113,21.6100261 38.5913913,21.2890435 38.9191739,20.9595652 L37.9562174,20 C37.6437174,20.3142 37.3244348,20.619913 37.0000435,20.9154348 L37,20.9153913 Z" id="Fill-119"></path>
                <path d="M36.0427826,22 C35.699713,22.2819304 35.3515652,22.5536522 35,22.8152174 L35.8101304,23.9055652 C36.1803739,23.6304304 36.5455217,23.345087 36.9072609,23.0478696 L36.0427826,22 Z" id="Fill-120"></path>
                <path d="M3.90895652,22.8322174 C3.5590913,22.5638739 3.216,22.2887391 2.87804348,22 L2,23.0376957 C2.35665652,23.3400043 2.71669565,23.6304348 3.08526087,23.9106522 L3.90895652,22.8322174 Z" id="Fill-121"></path>
                <path d="M6,26.1922609 C6.4093087,26.4164435 6.822,26.6287391 7.23982609,26.8291304 L7.83086957,25.6063043 C7.43514783,25.414387 7.04282609,25.2122826 6.65391304,25 L6,26.1922609 Z" id="Fill-122"></path>
                <path d="M30.5723478,26.8189565 C30.9918435,26.6253435 31.4079565,26.4181391 31.8189565,26.2024348 L31.1871739,25 C30.7948522,25.2055043 30.3991304,25.402513 30,25.5876522 L30.5723478,26.8189565 Z" id="Fill-123"></path>
                <path d="M4,25.1175652 C4.38383043,25.382513 4.77443478,25.6372609 5.16678261,25.8784348 L5.88008696,24.7218261 C5.50644348,24.4908478 5.13621739,24.2513913 4.77104348,24 L4,25.1175652 Z" id="Fill-124"></path>
                <path d="M32.6946522,25.8733043 C33.0920696,25.6372304 33.486087,25.3892609 33.8733043,25.1311304 L33.1192174,24 C32.7506696,24.2445652 32.3770435,24.4806522 32,24.7048261 L32.6946522,25.8733043 Z" id="Fill-125"></path>
                <path d="M25.3056826,28.6542087 C25.7574652,28.5506087 26.2075087,28.4351174 26.6542043,28.3077391 L26.2822609,27 C25.8576696,27.1205826 25.4296957,27.2309783 25,27.3294826 L25.3056826,28.6542087 Z" id="Fill-126"></path>
                <path d="M22.1664174,29.5438087 C22.6266783,29.4877609 23.0869391,29.4181304 23.5438087,29.3383043 L23.3094348,28 C22.8746522,28.0764261 22.4381739,28.1426609 22,28.195313 L22.1664174,29.5438087 Z" id="Fill-127"></path>
                <path d="M9,27.2516957 C9.42968696,27.4317217 9.86278261,27.6015609 10.2975652,27.7578261 L10.7595217,26.4806522 C10.3451217,26.3311957 9.93413043,26.1715478 9.52652174,26 L9,27.2516957 Z" id="Fill-128"></path>
                <path d="M12,28.2992304 C12.4449565,28.4334 12.8933478,28.5573826 13.3451304,28.6677783 L13.6712174,27.3498652 C13.2432261,27.2445652 12.8186522,27.1273783 12.3940435,27 L12,28.2992304 Z" id="Fill-129"></path>
                <path d="M0.976565217,20 L0,20.9443043 C0.326086957,21.2805826 0.655565217,21.6066522 0.991826087,21.9208696 L1.92082609,20.9290435 C1.59983478,20.6284304 1.28565217,20.3193478 0.976521739,20.0000435 L0.976565217,20 Z" id="Fill-130"></path>
                <path d="M28.439913,27.745913 C28.878087,27.5947565 29.3128696,27.433413 29.7459565,27.2601739 L29.2398261,26 C28.8288217,26.1647435 28.4161304,26.3192957 28,26.4619565 L28.439913,27.745913 Z" id="Fill-131"></path>
                <path d="M20.0238043,29.4164478 C20.4891522,29.4079522 20.9528043,29.3875739 21.4164565,29.3553043 L21.3213478,28 C20.8814783,28.0305696 20.4416087,28.0492522 20,28.0577435 L20.0238043,29.4164478 Z" id="Fill-132"></path>
                <path d="M14,29.3332391 C14.4568696,29.4215522 14.9154348,29.4962826 15.374,29.5608217 L15.5608217,28.2156913 C15.1243435,28.1545522 14.6895609,28.0832174 14.2547783,28 L14,29.3332391 Z" id="Fill-133"></path>
                <path d="M17,29.3536 C17.4636522,29.3943609 17.9273043,29.4215348 18.3909565,29.4368217 L18.436813,28.0798217 C17.9969435,28.0645391 17.5570739,28.0373652 17.1171609,28 L17,29.3536 Z" id="Fill-134"></path>
                <path d="M34.1005217,17 C33.7387696,17.2547565 33.3702174,17.4976087 33,17.7303043 L33.720087,18.8817826 C34.1124087,18.6372174 34.4996522,18.379087 34.8817826,18.1107391 L34.1005217,17 Z" id="Fill-135"></path>
                <path d="M29.2313043,19 C28.8236957,19.1698348 28.4126957,19.327787 28,19.4721304 L28.4517826,20.7543913 C28.8899565,20.5998391 29.3230435,20.4334 29.7544348,20.2533913 L29.2313043,19 Z" id="Fill-136"></path>
                <path d="M26.2771739,20 C25.8542783,20.1222826 25.428,20.2343739 25,20.3328783 L25.3057087,21.6576174 C25.759187,21.5523174 26.2092304,21.4368304 26.6576217,21.3043565 L26.2771739,20 Z" id="Fill-137"></path>
                <path d="M24.3060435,21 C23.8712609,21.0747304 23.4364783,21.1358696 23,21.1868217 L23.1545522,22.5353435 C23.6165087,22.4826957 24.0784652,22.4164565 24.5370304,22.3383348 L24.3060435,21 Z" id="Fill-138"></path>
                <path d="M21.317913,21 C20.8797391,21.0254783 20.4398696,21.0373652 20,21.0373652 L20,22.3960609 C20.4653478,22.3960609 20.9306957,22.3824739 21.3960435,22.3553 L21.317913,21 Z" id="Fill-139"></path>
                <path d="M31.1718696,18 C30.7863391,18.2139957 30.394,18.4161 30,18.6063043 L30.5910435,19.8291304 C31.0088435,19.6287217 31.4215652,19.4147304 31.8308696,19.1888261 L31.1718696,18 Z" id="Fill-140"></path>
                <path d="M9,20.244913 C9.4262913,20.4300348 9.85769565,20.6049652 10.2907826,20.768 L10.7697391,19.4976087 C10.3587348,19.3413565 9.94773913,19.1766174 9.54182609,19 L9,20.244913 Z" id="Fill-141"></path>
                <path d="M4,18.109 C4.38043478,18.3773435 4.76595652,18.6354783 5.15486957,18.8851739 L5.88517391,17.7387826 C5.51493043,17.5027087 5.14808696,17.2564348 4.78465217,17 L4,18.109 Z" id="Fill-142"></path>
                <path d="M6,19.1837826 C6.4059087,19.4130609 6.81521739,19.6304348 7.2296087,19.8376522 L7.8376087,18.6216087 C7.44358696,18.4245957 7.05465217,18.2173957 6.66743478,18 L6,19.1837826 Z" id="Fill-143"></path>
                <path d="M7,13.2092609 C7.39572174,13.4096696 7.79652174,13.6015826 8.19904348,13.7833043 L8.75269565,12.5434783 C8.37056087,12.3719435 7.99013043,12.1902174 7.61478261,12 L7,13.2092609 Z" id="Fill-144"></path>
                <path d="M25.3006261,15.6338261 C25.732013,15.5353217 26.161713,15.4266261 26.5879739,15.3077391 L26.2228261,14 C25.8169174,14.1120913 25.4093043,14.2156913 25,14.3091043 L25.3006261,15.6338261 Z" id="Fill-145"></path>
                <path d="M30.0000435,12.5434783 L30.5536957,13.7833043 C30.9579087,13.6032783 31.3570435,13.4113609 31.7527391,13.2109565 L31.137913,12 C30.7625739,12.1919174 30.3821304,12.3736435 30,12.5434783 L30.0000435,12.5434783 Z" id="Fill-146"></path>
                <path d="M22.1681609,15.535313 C22.6063348,15.4809652 23.0462043,15.4147304 23.4826826,15.3383043 L23.2466087,14 C22.8322087,14.0730304 22.4178261,14.1341696 22,14.1868217 L22.1681609,15.535313 Z" id="Fill-147"></path>
                <path d="M20.0322478,15.4215391 C20.4755087,15.4096522 20.918813,15.3875696 21.3603783,15.3553043 L21.2601739,14 C20.8406783,14.0305696 20.4211739,14.0509522 20,14.0611391 L20.0322478,15.4215391 Z" id="Fill-148"></path>
                <path d="M17,15.3553 C17.4415652,15.3875696 17.8831304,15.4096478 18.3264348,15.4215348 L18.3621,14.0628391 C17.9409043,14.0526478 17.5197087,14.0322696 17.1019261,14 L17,15.3553 Z" id="Fill-149"></path>
                <path d="M10,14.2652522 C10.4144,14.4265957 10.8305217,14.5777522 11.25,14.7170348 L11.681387,13.429687 C11.2839696,13.297213 10.8865609,13.1545522 10.494213,13 L10,14.2652522 Z" id="Fill-150"></path>
                <path d="M12,15.3077565 C12.4279913,15.4283391 12.8576957,15.5370348 13.2890435,15.6338435 L13.5879565,14.3091043 C13.1786478,14.2173913 12.7710435,14.1137913 12.3651304,14 L12,15.3077565 Z" id="Fill-151"></path>
                <path d="M27.0000087,13.4280435 L27.428,14.717087 C27.8474957,14.5778217 28.2636087,14.4266652 28.678,14.2653043 L28.1837826,13 C27.7914609,13.1545522 27.3974348,13.297213 27,13.4279913 L27.0000087,13.4280435 Z" id="Fill-152"></path>
                <path d="M15,15.3383348 C15.4364783,15.4147609 15.8746522,15.4793 16.3128261,15.5353435 L16.4826609,14.1868217 C16.0665609,14.1341739 15.6487478,14.0713348 15.2343565,14 L15,15.3383348 Z" id="Fill-153"></path>
                <path d="M21,7.1239913 L21.1002043,8.47929565 C21.5400739,8.44702609 21.9816391,8.40286957 22.4215522,8.34852174 L22.255113,7 C21.837313,7.05264783 21.4195043,7.0934087 21.0000261,7.12398261 L21,7.1239913 Z" id="Fill-154"></path>
                <path d="M19.0339652,8 L19,9.35869565 C19.222487,9.3637913 19.4449565,9.36718696 19.6691739,9.36718696 C19.8882652,9.36718696 20.1090435,9.3637913 20.3281304,9.35869565 L20.2941609,8 C19.8746652,8.0101913 19.4551609,8.0101913 19.033987,8 L19.0339652,8 Z" id="Fill-155"></path>
                <path d="M24.0000174,7.24798261 L24.2343913,8.58628696 C24.6691739,8.50986087 25.1039565,8.42324348 25.5353478,8.32473913 L25.2364348,7 C24.8271261,7.0934087 24.4144348,7.17663043 24,7.24796087 L24.0000174,7.24798261 Z" id="Fill-156"></path>
                <path d="M26,6.36683478 L26.3651478,7.67457391 C26.7897391,7.55568696 27.2143217,7.42661304 27.6355391,7.28734783 L27.2058522,6 C26.8050348,6.13077391 26.4042,6.25475652 26.0000261,6.36684783 L26,6.36683478 Z" id="Fill-157"></path>
                <path d="M16,8.3502087 C16.4381739,8.40455652 16.8797391,8.44871304 17.3196522,8.48098261 L17.4215565,7.12567826 C17.0020609,7.0934087 16.5842522,7.05264783 16.1664696,7 L16,8.3502087 Z" id="Fill-158"></path>
                <path d="M13,8.32471739 C13.431387,8.42322174 13.8661739,8.50983913 14.3009565,8.58626522 L14.5353304,7.24796087 C14.1226261,7.17663043 13.7099391,7.0934087 13.2988957,7 L13,8.32471739 Z" id="Fill-159"></path>
                <path d="M11,7.28905652 C11.4211957,7.43002174 11.8423913,7.5574 12.267,7.67798261 L12.6355478,6.37024348 C12.2313348,6.25645217 11.8288087,6.13246957 11.4297217,6 L11,7.28905652 Z" id="Fill-160"></path>
                <path d="M15.076087,17 C12.8274348,17 11,18.8274348 11,21.076087 C11,23.3247391 12.8274348,25.1521739 15.076087,25.1521739 C17.3247391,25.1521739 19.1521739,23.3247391 19.1521739,21.076087 C19.1521739,18.8274348 17.3247391,17 15.076087,17 Z M15.076087,23.7934783 C13.5781304,23.7934783 12.3586957,22.5740435 12.3586957,21.076087 C12.3586957,19.5781304 13.5781304,18.3586957 15.076087,18.3586957 C16.5740435,18.3586957 17.7934783,19.5781304 17.7934783,21.076087 C17.7934783,22.5740435 16.5740435,23.7934783 15.076087,23.7934783 Z" id="Fill-161"></path>
            </g>
        </g>
        <g id="Page"></g>
    </g>
</svg>