<?xml version="1.0" encoding="UTF-8"?>
<svg width="36px" height="38px" viewBox="0 0 36 38" version="1.1" xmlns="http://www.w3.org/2000/svg" xmlns:xlink="http://www.w3.org/1999/xlink">
    <!-- Generator: sketchtool 52.6 (67491) - http://www.bohemiancoding.com/sketch -->
    <title>6A532004-6917-4F7E-BDE9-3E09B1D86716</title>
    <desc>Created with sketchtool.</desc>
    <g id="Main_nav" stroke="none" stroke-width="1" fill="none" fill-rule="evenodd">
        <g id="Grupe-Analiza" transform="translate(-189.000000, -4536.000000)" fill="#FEBE1A">
            <g id="urin" transform="translate(189.000000, 4536.000000)">
                <path d="M2.23737313,2.22867324 L2.23737313,8.91881408 L33.5820896,8.91881408 L33.5820896,2.22867324 L2.23737313,2.22867324 Z M1.11868657,0 L34.7007761,0 C35.3199224,0 35.8194627,0.497580563 35.8194627,1.11430986 L35.8194627,10.0352113 C35.8194627,10.6498479 35.3199278,11.1495211 34.7007761,11.1495211 L1.11868657,11.1495211 C0.499540299,11.1495211 0,10.6498532 0,10.0352113 L0,1.11430986 C0,0.497585915 0.499534925,0 1.11868657,0 Z" id="Fill-1"></path>
                <path d="M6.44776119,5.396 L6.44776119,9.85746761 C6.44776119,10.4721042 6.94729612,10.9717775 7.56644776,10.9717775 C8.1855994,10.9717775 8.68513433,10.4721096 8.68513433,9.85746761 L8.68513433,5.396 C8.68513433,4.78136338 8.1855994,4.28169014 7.56644776,4.28169014 C6.94729612,4.28169014 6.44776119,4.78135803 6.44776119,5.396 Z" id="Fill-2"></path>
                <path d="M13.4328358,5.396 L13.4328358,9.85746761 C13.4328358,10.4721042 13.9323707,10.9717775 14.5515224,10.9717775 C15.170674,10.9717775 15.670209,10.4721096 15.670209,9.85746761 L15.670209,5.396 C15.670209,4.78136338 15.170674,4.28169014 14.5515224,4.28169014 C13.9323707,4.28169014 13.4328358,4.78135803 13.4328358,5.396 Z" id="Fill-3"></path>
                <path d="M19.880597,5.396 L19.880597,9.85746761 C19.880597,10.4721042 20.3801319,10.9717775 20.9992836,10.9717775 C21.6184352,10.9717775 22.1179701,10.4721096 22.1179701,9.85746761 L22.1179701,5.396 C22.1179701,4.78136338 21.6184352,4.28169014 20.9992836,4.28169014 C20.3801319,4.28169014 19.880597,4.78135803 19.880597,5.396 Z" id="Fill-4"></path>
                <path d="M26.8656716,5.396 L26.8656716,9.85746761 C26.8656716,10.4721042 27.3652066,10.9717775 27.9843582,10.9717775 C28.6035099,10.9717775 29.1030448,10.4721096 29.1030448,9.85746761 L29.1030448,5.396 C29.1030448,4.78136338 28.6035099,4.28169014 27.9843582,4.28169014 C27.3652066,4.28169014 26.8656716,4.78135803 26.8656716,5.396 Z" id="Fill-5"></path>
                <path d="M4.38882931,10.7941408 L4.38882931,31.9788732 C4.38882931,33.8270118 5.89164125,35.3239442 7.74703827,35.3239442 L27.896292,35.3239442 C29.751689,35.3239442 31.254501,33.8270118 31.254501,31.9788732 L31.254501,10.7941408 L4.38882931,10.7941408 Z M3.27014275,8.56338028 L32.3731875,8.56338028 C32.9923338,8.56338028 33.4939696,9.06304817 33.4939696,9.67977746 L33.4939696,31.9788197 C33.4939696,35.0583724 30.987886,37.5546515 27.8962383,37.5546515 L7.74698454,37.5546515 C4.65533678,37.5546515 2.14925373,35.0583724 2.14925373,31.9788197 L2.14925373,9.67977746 C2.14925373,9.06305352 2.65088418,8.56338028 3.27003528,8.56338028 L3.27014275,8.56338028 Z" id="Fill-6"></path>
                <path d="M8.68513433,17.7518873 L8.68513433,28.9014085 L26.5970149,28.9014085 L26.5970149,17.7518873 L8.68513433,17.7518873 Z M7.56644776,15.5211268 L27.7157015,15.5211268 C28.3348478,15.5211268 28.8343881,16.0207946 28.8343881,16.6375239 L28.8343881,30.0178056 C28.8343881,30.6324423 28.3348531,31.1321155 27.7157015,31.1321155 L7.56644776,31.1321155 C6.94730149,31.1321155 6.44776119,30.6324476 6.44776119,30.0178056 L6.44776119,16.6375239 C6.44776119,16.0208 6.94729612,15.5211268 7.56644776,15.5211268 Z" id="Fill-7"></path>
                <path d="M3.27003582,24.174369 L7.74693134,24.174369 C8.36607761,24.174369 8.86561791,23.6747011 8.86561791,23.0600592 C8.86561791,22.4433352 8.36608299,21.943662 7.74693134,21.943662 L3.27003582,21.943662 C2.65088955,21.943662 2.14925373,22.4433299 2.14925373,23.0600592 C2.14925373,23.6746958 2.65088418,24.174369 3.27003582,24.174369 Z" id="Fill-8"></path>
                <path d="M27.9843582,24.174369 L32.4612537,24.174369 C33.0804,24.174369 33.5820358,23.6747011 33.5820358,23.0600592 C33.5820358,22.4433352 33.0804054,21.943662 32.4612537,21.943662 L27.9843582,21.943662 C27.3652119,21.943662 26.8656716,22.4433299 26.8656716,23.0600592 C26.8656716,23.6746958 27.3652066,24.174369 27.9843582,24.174369 Z" id="Fill-9"></path>
                <path d="M12.4022687,22.0314366 L23.5977313,22.0314366 C24.2147821,22.0314366 24.7164179,21.5338561 24.7164179,20.9171268 C24.7164179,20.3003975 24.2147875,19.8028169 23.5977313,19.8028169 L12.4022687,19.8028169 C11.7852179,19.8028169 11.2835821,20.3003975 11.2835821,20.9171268 C11.2835821,21.5338561 11.7852125,22.0314366 12.4022687,22.0314366 Z" id="Fill-10"></path>
                <path d="M12.4022687,26.8504254 L23.5977313,26.8504254 C24.2147821,26.8504254 24.7164179,26.3507575 24.7164179,25.7340282 C24.7164179,25.1193915 24.2147875,24.6197183 23.5977313,24.6197183 L12.4022687,24.6197183 C11.7852179,24.6197183 11.2835821,25.1193862 11.2835821,25.7340282 C11.2835821,26.3507521 11.7852125,26.8504254 12.4022687,26.8504254 Z" id="Fill-11"></path>
            </g>
        </g>
        <g id="Page"></g>
    </g>
</svg>