<?xml version="1.0" encoding="UTF-8"?>
<svg width="46px" height="46px" viewBox="0 0 46 46" version="1.1" xmlns="http://www.w3.org/2000/svg" xmlns:xlink="http://www.w3.org/1999/xlink">
    <!-- Generator: sketchtool 52.5 (67469) - http://www.bohemiancoding.com/sketch -->
    <title>1C8D74C8-E2AB-454C-96B5-0221642FAFF0</title>
    <desc>Created with sketchtool.</desc>
    <g id="Main_nav" stroke="none" stroke-width="1" fill="none" fill-rule="evenodd">
        <g id="Analiza-Page" transform="translate(-191.000000, -449.000000)" fill="#FF9600">
            <g id="uzorak" transform="translate(191.000000, 449.000000)">
                <path d="M18.6666329,0 L2.33332299,0 C0.934074024,0 0,0.920691683 0,2.29989381 C0,3.67909594 0.934074024,4.59978763 2.33332299,4.59978763 L2.33332299,37.949383 C2.33332299,42.3190204 6.06589494,46 10.500958,46 C14.93411,46 18.668593,42.3209041 18.668593,37.949383 L18.666677,4.59978763 C20.065926,4.59978763 21,3.67909594 21,2.29989381 C21,0.918807989 20.065926,0 18.666677,0 L18.6666329,0 Z M10.4989979,41.3982818 C8.63271193,41.3982818 6.99805789,39.7889309 6.99805789,37.9474993 L6.99997387,20.6991409 L13.9998938,20.6991409 L13.9998938,37.9494313 C13.9998938,39.7889792 12.3652398,41.3983301 10.4989538,41.3983301 L10.4989979,41.3982818 Z M13.9999379,16.099305 L7.00001797,16.099305 L7.00001797,4.59959443 L13.9999379,4.59959443 L13.9999379,16.099305 Z" id="Fill-1"></path>
                <path d="M43.6666286,0 L27.3333224,0 C25.9340738,0 25,0.920691683 25,2.29989381 C25,3.67909594 25.9340738,4.59978763 27.3333224,4.59978763 L27.3333224,37.949383 C27.3333224,42.3190204 31.0658935,46 35.5009555,46 C39.9341065,46 43.6685886,42.3209041 43.6685886,37.949383 L43.6666776,4.59978763 C45.0659262,4.59978763 46,3.67909594 46,2.29989381 C46,0.918807989 44.8342943,0 43.6666776,0 L43.6666286,0 Z M35.5009555,41.3982818 C33.63467,41.3982818 32.0000163,39.7889309 32.0000163,37.9474993 L32.0000163,20.6991409 L38.9999347,20.6991409 L38.9999347,37.9494313 C38.9999347,39.7889792 37.3671921,41.3983301 35.5009065,41.3983301 L35.5009555,41.3982818 Z M38.9999837,16.099305 L32.0000653,16.099305 L32.0000653,4.59959443 L38.9999837,4.59959443 L38.9999837,16.099305 Z" id="Fill-2"></path>
            </g>
        </g>
        <g id="Page"></g>
    </g>
</svg>