<?xml version="1.0" encoding="UTF-8"?>
<svg width="18px" height="18px" viewBox="0 0 18 18" version="1.1" xmlns="http://www.w3.org/2000/svg" xmlns:xlink="http://www.w3.org/1999/xlink">
    <!-- Generator: sketchtool 52.5 (67469) - http://www.bohemiancoding.com/sketch -->
    <title>839A4511-BB79-410E-9660-65F769F8C7F6</title>
    <desc>Created with sketchtool.</desc>
    <g id="Main_nav" stroke="none" stroke-width="1" fill="none" fill-rule="evenodd">
        <g id="Home" transform="translate(-671.000000, -1604.000000)" fill="#FFAD00">
            <path d="M680,1604 C675.029517,1604 671,1608.02952 671,1613 C671,1617.97048 675.029517,1622 680,1622 C684.970483,1622 689,1617.97048 689,1613 C689,1608.02952 684.970483,1604 680,1604 Z M684.927966,1611.48583 L679.416862,1616.99693 C679.053169,1617.36062 678.46401,1617.36062 678.100317,1616.99693 L675.072034,1613.96865 C674.708341,1613.60496 674.708341,1613.0158 675.072034,1612.6521 L675.307217,1612.41692 C675.67091,1612.05323 676.260069,1612.05323 676.623762,1612.41692 L678.758593,1614.55175 L683.376213,1609.93413 C683.739907,1609.57044 684.329065,1609.57044 684.692758,1609.93413 L684.927941,1610.16931 C685.291634,1610.53301 685.291634,1611.12217 684.927941,1611.48586 L684.927966,1611.48583 Z" id="verified"></path>
        </g>
        <g id="Page"></g>
    </g>
</svg>