<svg width="95" height="94" viewBox="0 0 95 94" fill="none" xmlns="http://www.w3.org/2000/svg">
<path fill-rule="evenodd" clip-rule="evenodd" d="M15.89 80.35C15.62 82.3 14.97 83.64 14.18 84.62C15.12 84.36 16.08 84.02 17.01 83.62C19.04 82.75 20.94 81.58 22.33 80.18C22.51 79.99 22.75 79.89 23 79.87C27.21 79.52 30.93 78.02 33.59 75.78C36.14 73.64 37.7 70.82 37.7 67.76C37.7 64.45 35.89 61.44 32.97 59.24C29.96 56.98 25.79 55.58 21.16 55.58C16.53 55.58 12.35 56.98 9.34999 59.24C6.42999 61.44 4.61999 64.45 4.61999 67.76C4.61999 70.27 5.65999 72.6 7.42999 74.54C9.29999 76.59 11.99 78.19 15.16 79.11C15.7 79.26 16.02 79.81 15.9 80.35H15.89ZM30.54 64.21C31.52 64.21 32.41 64.61 33.05 65.25C33.69 65.89 34.09 66.78 34.09 67.76C34.09 68.74 33.69 69.63 33.05 70.27C32.41 70.91 31.52 71.31 30.54 71.31C29.56 71.31 28.67 70.91 28.03 70.27C27.39 69.63 26.99 68.74 26.99 67.76C26.99 66.78 27.39 65.89 28.03 65.25C28.67 64.61 29.56 64.21 30.54 64.21ZM31.56 66.74C31.82 67 31.98 67.36 31.98 67.76C31.98 68.16 31.82 68.52 31.56 68.78C31.3 69.04 30.94 69.2 30.54 69.2C30.14 69.2 29.78 69.04 29.52 68.78C29.26 68.52 29.1 68.16 29.1 67.76C29.1 67.36 29.26 67 29.52 66.74C29.78 66.48 30.14 66.32 30.54 66.32C30.94 66.32 31.3 66.48 31.56 66.74ZM21.15 64.21C22.13 64.21 23.02 64.61 23.66 65.25C24.3 65.89 24.7 66.78 24.7 67.76C24.7 68.74 24.3 69.63 23.66 70.27C23.02 70.91 22.13 71.31 21.15 71.31C20.17 71.31 19.28 70.91 18.64 70.27C18 69.63 17.6 68.74 17.6 67.76C17.6 66.78 18 65.89 18.64 65.25C19.28 64.61 20.17 64.21 21.15 64.21ZM22.17 66.74C22.43 67 22.59 67.36 22.59 67.76C22.59 68.16 22.43 68.52 22.17 68.78C21.91 69.04 21.55 69.2 21.15 69.2C20.75 69.2 20.39 69.04 20.13 68.78C19.87 68.52 19.71 68.16 19.71 67.76C19.71 67.36 19.87 67 20.13 66.74C20.39 66.48 20.75 66.32 21.15 66.32C21.55 66.32 21.91 66.48 22.17 66.74ZM11.76 64.21C12.74 64.21 13.63 64.61 14.27 65.25C14.91 65.89 15.31 66.78 15.31 67.76C15.31 68.74 14.91 69.63 14.27 70.27C13.63 70.91 12.74 71.31 11.76 71.31C10.78 71.31 9.88999 70.91 9.24999 70.27C8.60999 69.63 8.20999 68.74 8.20999 67.76C8.20999 66.78 8.60999 65.89 9.24999 65.25C9.88999 64.61 10.78 64.21 11.76 64.21ZM12.78 66.74C13.04 67 13.2 67.36 13.2 67.76C13.2 68.16 13.04 68.52 12.78 68.78C12.52 69.04 12.16 69.2 11.76 69.2C11.36 69.2 11 69.04 10.74 68.78C10.48 68.52 10.32 68.16 10.32 67.76C10.32 67.36 10.48 67 10.74 66.74C11 66.48 11.36 66.32 11.76 66.32C12.16 66.32 12.52 66.48 12.78 66.74ZM17.25 53.79V7.44C17.25 6.42 17.66 5.5 18.33 4.83C19 4.16 19.92 3.75 20.94 3.75H67.38C68.4 3.75 69.32 4.16 69.99 4.83C70.66 5.5 71.07 6.42 71.07 7.44V9.71H88.87C89.87 9.71 90.77 10.12 91.43 10.77C92.09 11.42 92.49 12.33 92.49 13.33V34.1C92.49 35.1 92.08 36 91.43 36.66C90.78 37.32 89.87 37.72 88.87 37.72H73.49L71.07 39.12V87.57C71.07 88.59 70.66 89.51 69.99 90.18C69.32 90.85 68.4 91.26 67.38 91.26H20.95C19.93 91.26 19.01 90.85 18.34 90.18C17.67 89.51 17.26 88.59 17.26 87.57V85.81C14.96 86.72 12.56 87.28 10.48 87.41C10.12 87.44 9.74999 87.29 9.51999 86.97C9.18999 86.49 9.29999 85.84 9.77999 85.5C9.95999 85.37 10.16 85.24 10.37 85.1C11.58 84.3 13.08 83.3 13.66 80.87C10.51 79.81 7.81999 78.11 5.85999 75.98C3.73999 73.66 2.48999 70.83 2.48999 67.78C2.48999 63.78 4.61999 60.18 8.06999 57.58C10.55 55.72 13.72 54.38 17.25 53.8V53.79ZM19.36 84.84C20.91 84.04 22.36 83.06 23.53 81.94C28.03 81.5 32.03 79.84 34.93 77.4C37.96 74.86 39.8 71.49 39.8 67.77C39.8 63.77 37.67 60.17 34.22 57.57C30.86 55.04 26.24 53.48 21.15 53.48C20.55 53.48 19.95 53.5 19.37 53.54V7.44C19.37 7 19.55 6.61 19.83 6.32C20.11 6.03 20.51 5.86 20.95 5.86H33.36L34.98 10.85C35.1 11.31 35.51 11.64 36 11.64H52.33C52.77 11.64 53.19 11.36 53.33 10.91L54.97 5.85H67.38C67.82 5.85 68.21 6.03 68.5 6.31C68.79 6.59 68.96 6.99 68.96 7.43V9.7H57.77C56.77 9.7 55.87 10.11 55.21 10.76C54.55 11.41 54.15 12.32 54.15 13.32V34.09C54.15 35.09 54.56 35.99 55.21 36.65C55.86 37.31 56.77 37.71 57.77 37.71H60.03V43.66C60.03 43.84 60.08 44.02 60.17 44.19C60.46 44.69 61.11 44.86 61.61 44.57L68.96 40.33V87.57C68.96 88 68.78 88.4 68.5 88.69C68.21 88.98 67.82 89.15 67.38 89.15H20.95C20.52 89.15 20.12 88.97 19.83 88.69C19.54 88.4 19.37 88.01 19.37 87.57V84.85L19.36 84.84ZM62.02 17.91H64.06C64.64 17.91 65.11 17.44 65.11 16.86C65.11 16.28 64.64 15.81 64.06 15.81H62.02C61.44 15.81 60.97 16.28 60.97 16.86C60.97 17.44 61.44 17.91 62.02 17.91ZM67.01 17.91H84.65C85.23 17.91 85.7 17.44 85.7 16.86C85.7 16.28 85.23 15.81 84.65 15.81H67.01C66.43 15.81 65.96 16.28 65.96 16.86C65.96 17.44 66.43 17.91 67.01 17.91ZM62.02 24.06H64.06C64.64 24.06 65.11 23.59 65.11 23.01C65.11 22.43 64.64 21.96 64.06 21.96H62.02C61.44 21.96 60.97 22.43 60.97 23.01C60.97 23.59 61.44 24.06 62.02 24.06ZM67.01 24.06H84.65C85.23 24.06 85.7 23.59 85.7 23.01C85.7 22.43 85.23 21.96 84.65 21.96H67.01C66.43 21.96 65.96 22.43 65.96 23.01C65.96 23.59 66.43 24.06 67.01 24.06ZM62.02 30.21H64.06C64.64 30.21 65.11 29.74 65.11 29.16C65.11 28.58 64.64 28.11 64.06 28.11H62.02C61.44 28.11 60.97 28.58 60.97 29.16C60.97 29.74 61.44 30.21 62.02 30.21ZM67.01 30.21H84.65C85.23 30.21 85.7 29.74 85.7 29.16C85.7 28.58 85.23 28.11 84.65 28.11H67.01C66.43 28.11 65.96 28.58 65.96 29.16C65.96 29.74 66.43 30.21 67.01 30.21ZM57.78 35.61H61.1C61.68 35.61 62.15 36.08 62.15 36.66V41.84L72.63 35.79C72.8 35.68 73 35.61 73.22 35.61H88.88C89.29 35.61 89.67 35.44 89.94 35.17C90.21 34.9 90.38 34.52 90.38 34.11V13.32C90.38 12.91 90.21 12.53 89.94 12.26C89.67 11.99 89.29 11.82 88.88 11.82H57.78C57.37 11.82 56.99 11.99 56.72 12.26C56.45 12.53 56.28 12.91 56.28 13.32V34.09C56.28 34.5 56.45 34.88 56.72 35.15C56.99 35.42 57.37 35.59 57.78 35.59V35.61ZM34.3 84.79C33.72 84.79 33.25 84.32 33.25 83.74C33.25 83.16 33.72 82.69 34.3 82.69H54.03C54.61 82.69 55.08 83.16 55.08 83.74C55.08 84.32 54.61 84.79 54.03 84.79H34.3ZM52.77 5.85H35.58L36.78 9.53H51.58L52.78 5.85H52.77Z" fill="black"/>
</svg>
