<?xml version="1.0" encoding="UTF-8"?>
<svg width="32px" height="34px" viewBox="0 0 32 34" version="1.1" xmlns="http://www.w3.org/2000/svg" xmlns:xlink="http://www.w3.org/1999/xlink">
    <!-- Generator: sketchtool 52.6 (67491) - http://www.bohemiancoding.com/sketch -->
    <title>49E74CD0-D888-4F40-A504-1D9559AD93F0</title>
    <desc>Created with sketchtool.</desc>
    <g id="Main_nav" stroke="none" stroke-width="1" fill="none" fill-rule="evenodd">
        <g id="Grupe-Analiza" transform="translate(-190.000000, -4654.000000)" fill="#55D159">
            <g id="virusi" transform="translate(190.000000, 4654.000000)">
                <path d="M31.4884267,25.6075949 L25.1733333,19.2375443 C24.8316672,18.8929048 24.32,18.8929048 23.9783253,19.1938349 L16.6400853,26.0377337 L16.6400853,18.8069235 L23.8934187,14.6745894 C24.1500843,14.5031089 24.3200853,14.2442096 24.3200853,13.9432881 L24.3200853,5.20787038 C24.3200853,4.90694025 24.1500843,4.60602734 23.8934187,4.47656911 L16.2134187,0.128872911 C15.9567531,-0.000576708861 15.616768,-0.000576708861 15.3600853,0.128872911 L7.68008533,4.47484759 C7.42341973,4.6463281 7.25341867,4.90522734 7.25341867,5.20614886 L7.25341867,13.9432881 C7.25341867,14.2442182 7.42341973,14.5451311 7.68008533,14.6745894 L14.9334187,18.8069235 L14.9334187,25.8225438 L7.764992,19.1955565 C7.42332587,18.8946263 6.91165867,18.8946263 6.569984,19.2392658 L0.256597333,25.6075949 C-0.0850688,25.9522344 -0.0850688,26.4683544 0.256597333,26.8130025 C0.598263467,27.157642 1.10993067,27.157642 1.45160533,26.8130025 L7.21160533,21.0028759 L14.1666987,27.3729266 L7.59688533,24.5754582 C7.383552,24.489718 7.12686933,24.489718 6.913536,24.5754582 C6.70020267,24.6611985 6.5302016,24.8763884 6.44352,25.1352962 L4.73685333,31.1606127 C4.60852053,31.634719 4.86518613,32.1071038 5.333504,32.236562 C5.80352,32.3660116 6.27182933,32.1071124 6.40017067,31.634719 L7.85015467,26.5558076 L13.4403413,28.9228962 L11.6903253,29.6962456 C11.3919915,29.6105053 11.0936747,29.6962456 10.8803413,29.9114354 C10.5386752,30.2560749 10.5386752,30.7721949 10.8803413,31.116843 L13.4836907,33.7428481 C13.6536917,33.9143286 13.8670251,34.0000689 14.0803413,34.0000689 C14.2936576,34.0000689 14.507008,33.9143286 14.676992,33.7411696 C15.0186581,33.3965301 15.0186581,32.8804101 14.676992,32.535762 L13.0986667,30.9437013 L15.5303253,29.8677519 C15.6586581,29.9114613 15.8286592,29.9114613 15.956992,29.8677519 L18.3886507,30.9437013 L16.8103253,32.535762 C16.4686592,32.8804015 16.4686592,33.3965215 16.8103253,33.7411696 C16.9803264,33.9126501 17.1936597,34.0000689 17.406976,34.0000689 C17.6202923,34.0000689 17.8336427,33.9143286 18.0036267,33.7411696 L20.606976,31.1151646 C20.9486421,30.7705251 20.9486421,30.2544051 20.606976,29.909757 C20.3936427,29.6945671 20.051968,29.6088268 19.796992,29.6945671 L18.1336747,28.9632658 L23.7238613,26.5524506 L25.1738453,31.631362 C25.3021781,32.0180324 25.6438613,32.2769316 25.9838293,32.2769316 C26.0688299,32.2769316 26.1538304,32.2769316 26.2404949,32.2332223 C26.7105109,32.1037727 26.9654869,31.6313792 26.8371456,31.1572729 L25.1304789,25.1319565 C25.0454784,24.8730572 24.9171456,24.7015767 24.6604629,24.5721185 C24.4471296,24.4863782 24.1904469,24.4426689 23.9771136,24.5721185 L17.8753536,27.1981235 L24.5322069,21.0015159 L30.2939136,26.8133641 C30.6355797,27.1580035 31.1472469,27.1580035 31.4889216,26.8133641 C31.8305963,26.4687246 31.8305877,25.9526046 31.4889216,25.6079565 L31.4884267,25.6075949 Z M8.96,5.72448101 L15.7866667,1.85106329 L22.6133333,5.72448101 L22.6133333,13.4274177 L15.9150933,17.2151038 L15.7867605,17.2151038 L15.6584277,17.2151038 L8.96018773,13.4274177 L8.96,5.72448101 Z" id="Fill-1"></path>
                <path d="M11.52,8.17721519 C11.6900011,8.17721519 11.8183339,8.13350582 11.9466667,8.04776557 L16.2133333,5.46548709 C16.5966677,5.20658785 16.7683413,4.69045924 16.5116672,4.30380608 C16.2550016,3.9171357 15.7433259,3.7439681 15.3600085,4.00287595 L11.0933419,6.58515443 C10.7100075,6.84405367 10.5383339,7.36018228 10.795008,7.74683544 C10.9650091,8.04776557 11.2216747,8.17721519 11.52,8.17721519 Z" id="Fill-2"></path>
                <path d="M19.2,7.18691139 C19.6266667,6.92801215 19.755008,6.41188354 19.4983339,6.02523038 C19.2416683,5.59485063 18.7299925,5.46539241 18.3466752,5.72430025 L11.0933419,10.0280977 C10.6666752,10.286997 10.5383339,10.8031256 10.795008,11.1897787 C10.9650091,11.448678 11.2216747,11.6201585 11.52,11.6201585 C11.6483328,11.6201585 11.8183339,11.5764491 11.9466667,11.4907089 L19.2,7.18691139 Z" id="Fill-3"></path>
            </g>
        </g>
        <g id="Page"></g>
    </g>
</svg>