<?xml version="1.0" encoding="UTF-8"?>
<svg width="40px" height="35px" viewBox="0 0 40 35" version="1.1" xmlns="http://www.w3.org/2000/svg" xmlns:xlink="http://www.w3.org/1999/xlink">
    <!-- Generator: sketchtool 52.6 (67491) - http://www.bohemiancoding.com/sketch -->
    <title>91C371CA-AC9D-45A0-A71D-B3E5FDBA316D</title>
    <desc>Created with sketchtool.</desc>
    <g id="Main_nav" stroke="none" stroke-width="1" fill="none" fill-rule="evenodd">
        <g id="Grupe-Analiza" transform="translate(-186.000000, -4741.000000)" fill="#CF5DFF">
            <path d="M212.170549,4745.93574 L221.004703,4754.66719 C218.501653,4756.38288 215.059668,4756.07712 212.901728,4753.94447 C210.745548,4751.81182 210.434597,4748.40973 212.170509,4745.93571 L212.170549,4745.93574 Z M222.612218,4753.07947 L213.778064,4744.34803 C216.281114,4742.63234 219.724699,4742.94118 221.881039,4745.07229 C224.038779,4747.20494 224.34973,4750.60544 222.612258,4753.07947 L222.612218,4753.07947 Z M198.339294,4765.39821 L206.056279,4757.77095 L214.514044,4766.13038 L214.514044,4770.25534 L210.965702,4773.76242 L206.801818,4773.76397 L198.339294,4765.39821 Z M195.990923,4747.82266 L204.448688,4756.18208 L196.731702,4763.80777 L188.273936,4755.44992 L188.273936,4751.32496 L191.817599,4747.8225 L195.990923,4747.82266 Z M216.787144,4765.19896 L196.931297,4745.57555 L190.875065,4745.57555 L186,4750.39394 L186,4756.37975 L205.851049,4776 L211.91648,4775.99846 L216.786744,4771.18481 L216.787144,4765.19896 Z M198.184462,4759.93898 L192.101831,4753.92707 L192.101831,4752.06313 L190.095647,4752.06313 L190.095647,4754.74867 L196.765861,4761.34133 L198.184462,4759.93898 Z M211.294897,4743.48303 C207.94655,4746.79244 207.94655,4752.22356 211.294897,4755.53294 C214.644804,4758.84236 220.138251,4758.84236 223.488158,4755.53448 C226.836501,4752.22352 226.838061,4746.79553 223.488158,4743.48457 C220.138251,4740.17207 214.643204,4740.17207 211.294897,4743.48303 Z" id="vitamini"></path>
        </g>
        <g id="Page"></g>
    </g>
</svg>