<svg id="Group" xmlns="http://www.w3.org/2000/svg" width="15.37" height="17.052" viewBox="0 0 15.37 17.052">
  <path id="Compound_Path" data-name="Compound Path" d="M22.413,6.4H14.357a1.369,1.369,0,0,0-1.369,1.369V9.333h-.332A1.955,1.955,0,0,0,10.7,11.289v7.47a1.955,1.955,0,0,0,1.955,1.955h3.461L15.55,22.67h-.665a.391.391,0,1,0,0,.782h7a.391.391,0,1,0,0-.782H21.22l-.567-1.955h3.461a1.955,1.955,0,0,0,1.955-1.955v-7.47a1.955,1.955,0,0,0-1.955-1.955h-.332V7.769A1.369,1.369,0,0,0,22.413,6.4ZM13.79,7.769a.587.587,0,0,1,.587-.587h8.037A.587.587,0,0,1,23,7.769v7.47H13.77V7.769Zm6.629,14.9H16.351l.567-1.955h2.933Zm3.715-2.738H12.655a1.173,1.173,0,0,1-1.173-1.173v-.45H25.288v.43a1.173,1.173,0,0,1-1.173,1.193Zm0-9.816a1.173,1.173,0,0,1,1.173,1.173v6.258H11.482V11.289a1.173,1.173,0,0,1,1.173-1.173h.352V15.63a.391.391,0,0,0,.391.391h9.992a.391.391,0,0,0,.391-.391V10.115Z" transform="translate(-10.7 -6.4)" fill="#202020"/>
  <path id="Compound_Path-2" data-name="Compound Path" d="M31.891,19.844h2.738a.391.391,0,0,0,.391-.391V16.891a.391.391,0,0,0-.391-.391H31.891a.391.391,0,0,0-.391.391v2.562A.391.391,0,0,0,31.891,19.844Zm.391-2.562h1.936v1.779H32.282Z" transform="translate(-27.433 -14.525)" fill="#202020"/>
  <rect id="Path" width="7.216" height="0.782" transform="translate(4.067 6.688)" fill="#202020"/>
  <rect id="Path-2" data-name="Path" width="2.718" height="0.782" transform="translate(8.565 2.19)" fill="#202020"/>
  <rect id="Path-3" data-name="Path" width="2.718" height="0.782" transform="translate(8.565 4.341)" fill="#202020"/>
</svg>
