<svg xmlns="http://www.w3.org/2000/svg" width="37.423" height="32" viewBox="0 0 37.423 32">
  <g id="Group_183" data-name="Group 183" transform="translate(-10431.579 -1884)">
    <path id="Path_1234" data-name="Path 1234" d="M10435.816,1893.775h-7.237" transform="translate(4 0.225)" fill="none" stroke="#2486e5" stroke-linecap="round" stroke-width="2"/>
    <path id="Path_1235" data-name="Path 1235" d="M10433.289,1893.775h-4.71" transform="translate(8 16.225)" fill="none" stroke="#2486e5" stroke-linecap="round" stroke-width="2"/>
    <path id="Path_1236" data-name="Path 1236" d="M10433.748,1893.775h-5.169" transform="translate(7 12.225)" fill="none" stroke="#2486e5" stroke-linecap="round" stroke-width="2"/>
    <path id="Path_1237" data-name="Path 1237" d="M10434.368,1893.775h-5.789" transform="translate(6 8.225)" fill="none" stroke="#2486e5" stroke-linecap="round" stroke-width="2"/>
    <path id="Path_1238" data-name="Path 1238" d="M10435.368,1893.775h-6.789" transform="translate(5 4.225)" fill="none" stroke="#2486e5" stroke-linecap="round" stroke-width="2"/>
    <path id="Path_1232" data-name="Path 1232" d="M44.562,39H39.945a3.849,3.849,0,0,0-3.934,4.087L37.438,62.34A2.908,2.908,0,0,0,40.389,65H59.58a2.936,2.936,0,0,0,2.951-2.688l1.458-19.219A3.849,3.849,0,0,0,60.055,39H55.472" transform="translate(10404 1850)" fill="none" stroke="#2486e5" stroke-linecap="round" stroke-linejoin="round" stroke-miterlimit="10" stroke-width="2"/>
    <path id="Path_1239" data-name="Path 1239" d="M0,0V8.871" transform="translate(10454.003 1905.645)" fill="none" stroke="#2486e5" stroke-linecap="round" stroke-width="2"/>
    <path id="Path_1240" data-name="Path 1240" d="M0,0V1.412" transform="translate(10454.045 1895.626)" fill="none" stroke="#2486e5" stroke-linecap="round" stroke-width="2.061"/>
    <g id="Ellipse_25" data-name="Ellipse 25" transform="translate(10448 1884)" fill="none" stroke="#2485e6" stroke-width="2">
      <circle cx="6" cy="6" r="6" stroke="none"/>
      <circle cx="6" cy="6" r="5" fill="none"/>
    </g>
  </g>
</svg>
