<svg width="650" height="650" viewBox="0 0 650 650" fill="none" xmlns="http://www.w3.org/2000/svg">
<circle cx="195.5" cy="158.5" r="123.5" fill="#E8F5FF"/>
<circle cx="447.5" cy="226.5" r="161.5" fill="#E8F5FF"/>
<circle cx="242.5" cy="431.5" r="183.5" fill="#E8F5FF"/>
<rect x="56.6586" y="198.984" width="451" height="315" rx="81.5" transform="rotate(-4.57385 56.6586 198.984)" fill="#C9E8FF" stroke="#0389EC" stroke-width="17"/>
<path d="M248.996 412.827C252.548 412.543 255.7 411.132 259.829 408.331L348.239 347.52C355.02 342.886 358.272 338.842 357.793 332.858C357.321 326.95 353.467 323.475 346.03 319.901L249.076 273.919C244.555 271.81 241.225 270.995 237.672 271.279C230.412 271.86 224.978 277.777 225.714 286.983L234.687 399.147C235.424 408.354 241.736 413.408 248.996 412.827Z" fill="#0389EC"/>
<path d="M530.746 139.224C531.219 138.752 531.8 138.47 532.694 138.213L551.957 132.821C553.43 132.404 554.391 132.42 555.168 133.197C555.935 133.965 555.951 134.925 555.544 136.409L550.152 155.671C549.896 156.565 549.604 157.136 549.131 157.609C548.165 158.574 546.677 158.648 545.482 157.452L530.913 142.884C529.717 141.688 529.781 140.19 530.746 139.224Z" fill="#0389EC"/>
<path d="M45.6777 125.208C45.6777 124.539 45.8891 123.929 46.3401 123.116L56.1482 105.682C56.8951 104.346 57.5856 103.677 58.6848 103.677C59.7699 103.677 60.4604 104.346 61.2214 105.682L71.0295 123.116C71.4804 123.929 71.6777 124.539 71.6777 125.208C71.6777 126.573 70.6772 127.677 68.9861 127.677L48.3834 127.677C46.6924 127.677 45.6777 126.573 45.6777 125.208Z" fill="#0389EC"/>
<path d="M142.069 592.547C142.541 592.074 143.122 591.792 144.016 591.536L163.279 586.144C164.752 585.727 165.713 585.743 166.49 586.52C167.257 587.287 167.273 588.248 166.866 589.731L161.474 608.994C161.218 609.888 160.926 610.459 160.453 610.931C159.488 611.897 158 611.97 156.804 610.774L142.235 596.206C141.04 595.01 141.103 593.512 142.069 592.547Z" fill="#0389EC"/>
<path d="M477.185 574.431C476.85 573.852 476.728 573.218 476.712 572.288L476.489 552.286C476.468 550.755 476.732 549.831 477.684 549.282C478.624 548.739 479.556 548.973 480.883 549.75L498.094 559.943C498.891 560.422 499.367 560.852 499.701 561.431C500.384 562.614 500.07 564.07 498.605 564.916L480.763 575.217C479.298 576.063 477.867 575.614 477.185 574.431Z" fill="#0389EC"/>
<line x1="508.096" y1="449.783" x2="247.927" y2="470.596" stroke="#0389EC" stroke-width="15" stroke-linecap="round"/>
<line x1="507.777" y1="245.157" x2="470.895" y2="248.107" stroke="#0389EC" stroke-width="15" stroke-linecap="round"/>
<line x1="146.611" y1="320.197" x2="76.8339" y2="325.779" stroke="#0389EC" stroke-width="15" stroke-linecap="round"/>
<line x1="212.72" y1="218.601" x2="80.1434" y2="229.207" stroke="#0389EC" stroke-width="15" stroke-linecap="round"/>
<line x1="515.911" y1="346.832" x2="463.08" y2="351.058" stroke="#0389EC" stroke-width="15" stroke-linecap="round"/>
<line x1="114.354" y1="431.122" x2="74.4813" y2="434.312" stroke="#0389EC" stroke-width="15" stroke-linecap="round"/>
<line x1="438.159" y1="353.052" x2="437.163" y2="353.132" stroke="#0389EC" stroke-width="15" stroke-linecap="round"/>
<line x1="138.277" y1="429.208" x2="137.281" y2="429.288" stroke="#0389EC" stroke-width="15" stroke-linecap="round"/>
<path d="M145.137 112.048L150.855 111.624L150.367 105.033L154.232 104.747C159.249 104.375 162.262 101.05 161.905 96.235L161.903 96.2038C161.547 91.3889 158.072 88.4812 153.055 88.8528L143.472 89.5624L145.137 112.048ZM152.008 93.3329C154.423 93.1541 155.949 94.2945 156.122 96.6319L156.124 96.6631C156.297 99.0004 154.957 100.369 152.542 100.548L150.049 100.732L149.515 93.5176L152.008 93.3329Z" fill="#0389EC"/>
<path d="M176.02 110.168C182.876 109.661 186.799 104.873 186.268 97.7056L186.266 97.6744C185.736 90.5221 181.135 86.3661 174.295 86.8727C167.501 87.3757 163.531 92.1663 164.061 99.3186L164.063 99.3498C164.594 106.518 169.195 110.674 176.02 110.168ZM175.669 105.431C172.459 105.669 170.207 103.188 169.891 98.9183L169.889 98.8871C169.572 94.6175 171.451 91.8462 174.645 91.6097C177.871 91.3709 180.138 93.8508 180.453 98.1048L180.456 98.136C180.768 102.359 178.941 105.189 175.669 105.431Z" fill="#0389EC"/>
<path d="M200.406 108.363C206.81 107.888 210.334 103.851 209.879 97.6964L209.67 94.876L199.65 95.6179L199.95 99.6693L204.454 99.3359L204.459 99.6175C204.439 101.891 202.767 103.425 200.18 103.616C196.892 103.86 194.584 101.461 194.254 97.0046L194.252 96.989C193.929 92.626 195.666 90.0532 198.907 89.8132C201.104 89.6505 202.789 90.6069 203.516 92.3862L203.574 92.5385L209.231 92.1197L209.186 91.935C208.27 87.6158 204.057 84.6689 198.541 85.0773C191.762 85.5792 187.889 90.1904 188.429 97.4829L188.43 97.4985C188.978 104.9 193.472 108.876 200.406 108.363Z" fill="#0389EC"/>
<path d="M213.418 106.992L228.44 105.879L228.099 101.283L218.797 101.971L217.472 84.0829L211.753 84.5064L213.418 106.992Z" fill="#0389EC"/>
<path d="M231.058 105.686L246.469 104.544L246.128 99.9476L236.436 100.665L236.099 96.1153L245.215 95.4403L244.896 91.1396L235.781 91.8145L235.452 87.3736L245.144 86.6559L244.804 82.0591L229.393 83.2002L231.058 105.686Z" fill="#0389EC"/>
<path d="M249.694 104.306L258.825 103.629C265.604 103.128 269.298 98.6394 268.766 91.4559L268.764 91.4247C268.234 84.2724 263.939 80.6422 257.16 81.1441L248.029 81.8203L249.694 104.306ZM255.071 99.2698L254.089 86.0092L256.754 85.8119C260.354 85.5454 262.641 87.6635 262.953 91.8707L262.955 91.9019C263.287 96.3896 261.46 98.7967 257.736 99.0725L255.071 99.2698Z" fill="#0389EC"/>
<path d="M270.013 102.801L276.013 102.357L277.049 97.3134L284.389 96.7699L286.157 101.606L292.156 101.161L282.918 79.2369L275.922 79.7549L270.013 102.801ZM279.728 84.3928L279.837 84.3847L282.9 92.7439L277.929 93.1119L279.728 84.3928Z" fill="#0389EC"/>
<path d="M300.912 100.92C306.163 100.532 308.957 97.4262 308.587 92.4243L307.476 77.4185L301.773 77.8408L302.88 92.7998C303.03 94.8255 302.205 95.952 300.491 96.079C298.839 96.2013 297.776 95.1676 297.597 93.3947L297.594 93.3479L292.093 93.7552L292.099 93.8331C292.513 98.5811 295.879 101.293 300.912 100.92Z" fill="#0389EC"/>
<path d="M318.023 99.2461L323.726 98.8238L322.401 80.9353L328.603 80.4761L328.263 75.8793L310.156 77.22L310.496 81.8168L316.698 81.3576L318.023 99.2461Z" fill="#0389EC"/>
<path d="M332.343 98.1858L347.754 97.0446L347.413 92.4478L337.721 93.1655L337.384 88.6155L346.5 87.9405L346.181 83.6398L337.066 84.3147L336.737 79.8738L346.429 79.1561L346.089 74.5593L330.678 75.7004L332.343 98.1858Z" fill="#0389EC"/>
<path d="M261.657 131.496L268.949 130.956L274.405 107.944L268.001 108.418L264.952 125.643L264.843 125.651L259.275 109.064L252.87 109.538L261.657 131.496Z" fill="#0389EC"/>
<path d="M278.221 130.27L283.939 129.847L282.274 107.361L276.556 107.785L278.221 130.27Z" fill="#0389EC"/>
<path d="M287.352 129.594L296.483 128.918C303.261 128.416 306.956 123.928 306.424 116.744L306.421 116.713C305.892 109.561 301.596 105.93 294.818 106.432L285.687 107.109L287.352 129.594ZM292.729 124.558L291.747 111.297L294.412 111.1C298.011 110.834 300.299 112.952 300.61 117.159L300.613 117.19C300.945 121.678 299.118 124.085 295.394 124.361L292.729 124.558Z" fill="#0389EC"/>
<path d="M310.04 127.914L325.451 126.773L325.11 122.176L315.418 122.894L315.081 118.344L324.197 117.669L323.878 113.368L314.763 114.043L314.434 109.602L324.126 108.884L323.786 104.287L308.375 105.429L310.04 127.914Z" fill="#0389EC"/>
<path d="M339.178 126.164C346.034 125.656 349.957 120.869 349.426 113.701L349.424 113.67C348.894 106.518 344.293 102.362 337.453 102.868C330.659 103.371 326.689 108.162 327.219 115.314L327.221 115.345C327.752 122.513 332.352 126.669 339.178 126.164ZM338.827 121.427C335.617 121.664 333.365 119.183 333.049 114.914L333.046 114.883C332.73 110.613 334.609 107.842 337.803 107.605C341.029 107.366 343.296 109.846 343.611 114.1L343.614 114.131C343.926 118.354 342.099 121.184 338.827 121.427Z" fill="#0389EC"/>
</svg>
