<?xml version="1.0" encoding="UTF-8"?>
<svg width="413px" height="237px" viewBox="0 0 413 237" version="1.1" xmlns="http://www.w3.org/2000/svg" xmlns:xlink="http://www.w3.org/1999/xlink">
    <!-- Generator: Sketch 52.5 (67469) - http://www.bohemiancoding.com/sketch -->
    <title>zeleno</title>
    <desc>Created with Sketch.</desc>
    <g id="Main_nav" stroke="none" stroke-width="1" fill="none" fill-rule="evenodd">
        <g id="Analiza-Page" transform="translate(-164.000000, -2795.000000)" fill-rule="nonzero">
            <g id="zeleno" transform="translate(164.000000, 2795.000000)">
                <polygon id="Rectangle-2" fill="#1AE9B6" opacity="0.049999997" transform="translate(206.500000, 118.500000) scale(-1, -1) translate(-206.500000, -118.500000) " points="0 0 413 0 413 237 0 237"></polygon>
                <polygon id="Rectangle-2" fill="#E8FDF8" transform="translate(206.500000, 189.500000) scale(1, -1) translate(-206.500000, -189.500000) " points="0 142 413 142 413 181.165146 354 184.121607 295 194.934052 236 205.065889 177 194.934052 118 212.388162 59 217.738397 0 237"></polygon>
                <polygon id="Rectangle-2" fill="#DEFCF5" transform="translate(206.500000, 200.000000) scale(1, -1) translate(-206.500000, -200.000000) " points="0 163 413 163 413 193.507587 354 195.810515 295 204.232841 236 212.125008 177 204.232841 118 217.828674 59 221.996225 0 237"></polygon>
                <polygon id="Rectangle-2" fill="#D4FBF2" transform="translate(206.500000, 212.000000) scale(1, -1) translate(-206.500000, -212.000000) " points="0 187 413 187 413 207.613235 354 209.169267 295 214.860027 236 220.192573 177 214.860027 118 224.046401 59 226.862314 0 237"></polygon>
            </g>
        </g>
        <g id="Page"></g>
    </g>
</svg>